<?xml version="1.0" encoding="utf-8"?>
<!-- Generator: Adobe Illustrator 26.3.1, SVG Export Plug-In . SVG Version: 6.00 Build 0)  -->
<svg version="1.1" id="分離模式" xmlns="http://www.w3.org/2000/svg" xmlns:xlink="http://www.w3.org/1999/xlink" x="0px"
	 y="0px" viewBox="0 0 152 93" style="enable-background:new 0 0 152 93;" xml:space="preserve">
<style type="text/css">
	.st0{fill:#FFC239;}
	.st1{fill:#FEE597;}
	.st2{fill:#FFC545;}
	.st3{fill:#FFD567;}
	.st4{fill:#FFAE28;}
</style>
<g>
	<g>
		<g>
			<g>
				<g>
					<g>
						<path class="st0" d="M11.5,14.5l0.19,2.4c15.61-5.91,45.95-1.64,72.35,8.37c26.4,10.01,51.95,26.94,59.71,41.71l1.66-1.82
							l6.17-1.79l-7.49,19.74c-6.24,16.46-46.24,9.87-80.77-3.22C29.11,66.91-4.92,45.58,0.59,29.17l-0.01-0.01L7.88,9.89L11.5,14.5
							z"/>
					</g>
					<g>
						<path class="st1" d="M70.49,61.03c34.53,13.09,74.53,19.68,80.77,3.22c6.24-16.46-28.08-38.04-62.61-51.14
							C54.13,0.02,14.12-6.57,7.88,9.89C1.64,26.35,35.96,47.93,70.49,61.03z"/>
					</g>
					<g>
						<path class="st2" d="M15.94,11.93C12,22.32,37.45,41.6,72.78,54.99c35.33,13.4,67.16,15.83,71.1,5.45
							c3.94-10.39-21.51-29.66-56.84-43.06C51.71,3.99,19.87,1.55,15.94,11.93z"/>
					</g>
				</g>
				<g>
					<g>
						<g>
							<path class="st3" d="M139.3,76.42c-1.12,4.59-2.66,9.07-4.6,13.38c-0.45,1-2.05,0.4-1.6-0.61c1.94-4.31,3.48-8.79,4.6-13.38
								C137.96,74.75,139.56,75.36,139.3,76.42L139.3,76.42z"/>
						</g>
					</g>
					<g>
						<g>
							<path class="st3" d="M128,77.18c-1,4.26-2.4,8.42-4.19,12.41c-0.45,1-2.05,0.4-1.6-0.61c1.79-4,3.19-8.15,4.19-12.41
								c0.11-0.45,0.71-0.64,1.1-0.5C127.99,76.25,128.11,76.73,128,77.18L128,77.18z"/>
						</g>
					</g>
					<g>
						<g>
							<path class="st3" d="M117.58,77.15c-1.3,3.43-2.6,6.85-3.9,10.28c-0.39,1.03-1.99,0.42-1.6-0.61c1.3-3.43,2.6-6.85,3.9-10.28
								C116.37,75.52,117.97,76.12,117.58,77.15L117.58,77.15z"/>
						</g>
					</g>
					<g>
						<g>
							<path class="st3" d="M105.74,72.67c-1.32,4.16-2.64,8.32-3.96,12.49c-0.33,1.05-1.93,0.44-1.6-0.61
								c1.32-4.16,2.64-8.32,3.96-12.49C104.47,71.01,106.07,71.62,105.74,72.67L105.74,72.67z"/>
						</g>
					</g>
					<g>
						<g>
							<path class="st3" d="M92.65,70.5c-1.48,3.92-2.97,7.83-4.45,11.75c-0.39,1.03-1.99,0.42-1.6-0.61
								c1.48-3.92,2.97-7.83,4.45-11.75C91.44,68.86,93.04,69.47,92.65,70.5L92.65,70.5z"/>
						</g>
					</g>
					<g>
						<g>
							<path class="st3" d="M82.61,67.81c-1.62,3.5-3.24,7-4.86,10.49c-0.46,0.99-2.06,0.39-1.6-0.61c1.62-3.5,3.24-7,4.86-10.49
								C81.47,66.21,83.07,66.81,82.61,67.81L82.61,67.81z"/>
						</g>
					</g>
					<g>
						<g>
							<path class="st3" d="M71.82,64.28c-1.42,3.75-2.85,7.51-4.27,11.26c-0.39,1.03-1.99,0.42-1.6-0.61
								c1.42-3.75,2.85-7.51,4.27-11.26C70.61,62.65,72.21,63.25,71.82,64.28L71.82,64.28z"/>
						</g>
					</g>
					<g>
						<g>
							<path class="st3" d="M62.94,60.36c-1.48,3.92-2.97,7.83-4.45,11.75c-0.39,1.03-1.99,0.42-1.6-0.61
								c1.49-3.92,2.97-7.83,4.45-11.75C61.73,58.72,63.33,59.33,62.94,60.36L62.94,60.36z"/>
						</g>
					</g>
					<g>
						<g>
							<path class="st3" d="M52.99,56.02c-1.48,3.92-2.97,7.83-4.45,11.75c-0.39,1.03-1.99,0.42-1.6-0.61
								c1.48-3.92,2.97-7.83,4.45-11.75C51.78,54.39,53.38,54.99,52.99,56.02L52.99,56.02z"/>
						</g>
					</g>
					<g>
						<g>
							<path class="st3" d="M42.94,50.54c-1.65,3.66-3.3,7.33-4.95,10.99c-0.45,1-2.05,0.4-1.6-0.61c1.65-3.66,3.3-7.33,4.95-10.99
								C41.8,48.93,43.4,49.53,42.94,50.54L42.94,50.54z"/>
						</g>
					</g>
					<g>
						<g>
							<path class="st3" d="M32.24,44.8c-1.3,3.43-2.6,6.85-3.9,10.28c-0.39,1.03-1.99,0.42-1.6-0.61c1.3-3.43,2.6-6.85,3.9-10.28
								C31.03,43.16,32.63,43.77,32.24,44.8L32.24,44.8z"/>
						</g>
					</g>
					<g>
						<g>
							<path class="st3" d="M21.94,39.77c-1.36,3.59-2.72,7.18-4.08,10.77c-0.39,1.03-1.99,0.42-1.6-0.61
								c1.36-3.59,2.72-7.18,4.08-10.77C20.73,38.14,22.33,38.74,21.94,39.77L21.94,39.77z"/>
						</g>
					</g>
					<g>
						<g>
							<path class="st3" d="M14.36,31.3c-1.44,4.32-2.88,8.63-4.32,12.95c-0.35,1.04-1.95,0.44-1.6-0.61
								c1.44-4.32,2.88-8.63,4.32-12.95C13.11,29.64,14.71,30.25,14.36,31.3L14.36,31.3z"/>
						</g>
					</g>
					<g>
						<g>
							<path class="st3" d="M9.08,24.44c-1.44,4.32-2.88,8.63-4.32,12.95c-0.35,1.04-1.95,0.44-1.6-0.61
								c1.44-4.32,2.88-8.63,4.32-12.95C7.83,22.79,9.43,23.4,9.08,24.44L9.08,24.44z"/>
						</g>
					</g>
				</g>
			</g>
		</g>
		<g>
			<path class="st4" d="M15.93,11.93c-0.23,0.6-0.35,1.22-0.39,1.87c6.64-8.42,36.84-5.53,70.15,7.1
				c33.31,12.63,57.84,30.49,57.22,41.19c0.41-0.51,0.72-1.06,0.95-1.66c3.94-10.39-21.51-29.66-56.84-43.06
				C51.71,3.99,19.87,1.54,15.93,11.93z"/>
		</g>
	</g>
</g>
</svg>
