<?xml version="1.0" encoding="UTF-8"?>
<svg xmlns="http://www.w3.org/2000/svg" version="1.1" viewBox="0 0 120 120">
  <defs>
    <style>
      .cls-1 {
        fill: #aedcff;
      }

      .cls-2 {
        fill: #f46300;
      }

      .cls-3 {
        fill: #ffda00;
      }

      .cls-4 {
        fill: #007aff;
      }
    </style>
  </defs>
  <!-- Generator: Adobe Illustrator 28.7.1, SVG Export Plug-In . SVG Version: 1.2.0 Build 142)  -->
  <g>
    <g id="_圖層_1" data-name="圖層_1">
      <g>
        <path class="cls-1" d="M69,97.3c0,.3,0,.6,0,.9,0,4.9-4,8.8-8.8,8.8h-.4c-4.9,0-8.8-4-8.8-8.8s0-.6,0-.9"/>
        <g>
          <rect class="cls-4" x="90.1" y="79.2" width="2" height="7.7" transform="translate(-31.8 93) rotate(-47)"/>
          <rect class="cls-4" x="48.8" y="13" width="2" height="7.7" transform="translate(-2.6 12.7) rotate(-14.2)"/>
          <rect class="cls-4" x="30.9" y="22.5" width="2" height="7.7" transform="translate(-9.5 28) rotate(-41.9)"/>
          <rect class="cls-4" x="19.4" y="39.5" width="2" height="7.7" transform="translate(-27.3 48.2) rotate(-70.5)"/>
          <rect class="cls-4" x="15.2" y="63.6" width="7.7" height="2" transform="translate(-13.5 5.7) rotate(-12.5)"/>
          <rect class="cls-4" x="25.1" y="82" width="7.7" height="2" transform="translate(-48.9 42.1) rotate(-43)"/>
          <rect class="cls-4" x="99.9" y="60.7" width="2" height="7.7" transform="translate(16 149.1) rotate(-77.5)"/>
          <rect class="cls-4" x="95.7" y="42.4" width="7.7" height="2" transform="translate(-8.8 35.7) rotate(-19.5)"/>
          <rect class="cls-4" x="84.3" y="25.4" width="7.7" height="2" transform="translate(9.6 74.3) rotate(-48.1)"/>
          <rect class="cls-4" x="66.4" y="15.8" width="7.7" height="2" transform="translate(36.6 80.7) rotate(-75.7)"/>
        </g>
        <path class="cls-3" d="M64.6,98.2c6,0,11-4.8,11.1-10.7,0,0,0-.4,0-.4,0-4.9,1.9-9.6,5.4-13.3,4.8-5.1,7.5-11.9,7-19.2-1-13.4-13-25.3-28-25.3s-27.1,11.8-28,25.3c-.5,7.3,2.2,14,7,19.2,3.5,3.7,5.4,8.5,5.4,13.3,0,0,0,.4,0,.4,0,6,5.1,10.7,11.1,10.7h9.1Z"/>
        <polygon class="cls-2" points="71.8 51.4 69 48.6 57.1 60.4 51.2 54.5 48.3 57.4 57.1 66.1 71.8 51.4"/>
      </g>
    </g>
  </g>
</svg>