<?xml version="1.0" encoding="UTF-8"?>
<svg xmlns="http://www.w3.org/2000/svg" version="1.1" viewBox="0 0 120 120">
  <defs>
    <style>
      .cls-1 {
        fill: #2799ff;
      }

      .cls-2 {
        fill: #b0ddff;
      }

      .cls-3 {
        fill: #4aa9ff;
      }

      .cls-4 {
        fill: #7bc0ff;
      }

      .cls-5 {
        fill: #aedcff;
      }

      .cls-6 {
        fill: #ffda00;
      }

      .cls-7 {
        fill: #007aff;
      }
    </style>
  </defs>
  <!-- Generator: Adobe Illustrator 28.7.1, SVG Export Plug-In . SVG Version: 1.2.0 Build 142)  -->
  <g>
    <g id="_圖層_1" data-name="圖層_1">
      <g>
        <circle class="cls-5" cx="60" cy="60" r="60"/>
        <g>
          <path class="cls-3" d="M101.4,29c-19.8-.5-41.5-12-41.5-12,0,0-21.7,11.8-41.4,12.4,0,0-7.5,59.2,41.9,79.6,49.2-20.9,41-80,41-80Z"/>
          <path class="cls-7" d="M95.2,34.2c-16.8-.4-35.3-10.2-35.3-10.2,0,0-18.4,10-35.1,10.5,0,0-6.4,50.2,35.6,67.4,41.8-17.7,34.9-67.8,34.9-67.8Z"/>
          <path class="cls-1" d="M90.6,36.8c-14.6-.4-30.7-9.3-30.7-9.3,0,0-16,9.1-30.6,9.6,0,0-5.6,45.6,31,61.4,36.4-16.1,30.3-61.7,30.3-61.7Z"/>
          <path class="cls-7" d="M59.9,27.5l.4,70.9c36.4-16.1,30.3-61.7,30.3-61.7-14.6-.4-30.7-9.3-30.7-9.3Z"/>
          <g id="g1685">
            <path class="cls-4" d="M56.9,41.9c-9.8,1.5-17,9.9-17,19.8,0,7.7,4.4,14.7,11.4,18l1.2-2.1c-6.2-2.9-10.1-9.1-10.1-15.9,0-8.2,5.7-15.3,13.6-17.1l.9-2.7Z"/>
            <path class="cls-4" d="M70.7,44.8l-1.3,2.1c5.1,3.2,8.1,8.8,8.1,14.8,0,9.7-7.9,17.6-17.6,17.6-.6,0-1.2,0-1.8,0l-1.5,2.2c1.1.2,2.2.3,3.3.3,11.1,0,20-9,20-20h0c0-6.8-3.5-13.2-9.2-16.9Z"/>
            <path id="circle1661" class="cls-6" d="M59.9,41.6c-.1,0-.3,0-.4,0l-8.6,23.7h8l-5.1,15.3s0,0,.1,0l15.7-22.6h-8.7c0,0,7.8-14.4,7.8-14.4-2.7-1.4-5.8-2.1-8.8-2.1Z"/>
            <path id="path1670" class="cls-2" d="M52.1,72.7l-.5-1.3-1.3-.5,1.3-.5.5-1.3.5,1.3,1.3.5-1.3.5-.5,1.3Z"/>
            <path id="path1673" class="cls-2" d="M68,55.9l-.5-1.4-1.4-.5,1.4-.5.5-1.4.5,1.4,1.4.5-1.4.5-.5,1.4Z"/>
            <path id="path1675" class="cls-2" d="M75,56.7l-6.7,9,2.5-.4-3.9,8.6,7.5-9.8-2.3.4,2.8-7.8Z"/>
            <path id="path1677" class="cls-2" d="M52.8,48.5l-6.7,9,2.5-.4-3.9,8.6,7.5-9.8-2.3.4,2.8-7.8Z"/>
          </g>
        </g>
      </g>
    </g>
  </g>
</svg>