<?xml version="1.0" encoding="UTF-8"?>
<svg xmlns="http://www.w3.org/2000/svg" version="1.1" viewBox="0 0 120 120">
  <defs>
    <style>
      .cls-1 {
        fill: #fdc91c;
      }

      .cls-2 {
        fill: #05d;
      }

      .cls-3 {
        fill: #ed9900;
      }

      .cls-4 {
        fill: #aedcff;
      }

      .cls-5 {
        fill: #ffda00;
      }

      .cls-6 {
        fill: #003cb5;
      }

      .cls-7 {
        fill: #007aff;
      }
    </style>
  </defs>
  <!-- Generator: Adobe Illustrator 28.7.1, SVG Export Plug-In . SVG Version: 1.2.0 Build 142)  -->
  <g>
    <g id="_圖層_1" data-name="圖層_1">
      <g>
        <circle class="cls-4" cx="60" cy="60" r="60"/>
        <g>
          <polygon class="cls-6" points="84.9 19.3 84.9 33.7 36.1 33.7 36.1 18.3 38.5 15.8 81.4 15.8 84.9 19.3"/>
          <polygon class="cls-2" points="94 28.4 72.8 49.7 60.5 52.1 47.7 49.5 81.4 15.8 94 28.4"/>
          <polygon class="cls-2" points="38.6 15.7 72.5 50.1 50.5 52.9 26 28.3 38.6 15.7"/>
          <polygon class="cls-7" points="72.3 50.3 60.6 50.4 32.3 22.1 38.6 15.7 72.7 49.8 72.3 50.3"/>
          <path class="cls-3" d="M64.9,64.6h-10v-4.8c0-2.5,2-4.6,4.6-4.6h.9c2.5,0,4.6,2,4.6,4.6v4.8ZM57.2,62.3h5.4v-2.5c0-1.2-1-2.3-2.3-2.3h-.9c-1.2,0-2.3,1-2.3,2.3v2.5Z"/>
          <path class="cls-3" d="M59.9,59.2c-.6,0-1.1-.5-1.1-1.1v-5.2c0-.6.5-1.1,1.1-1.1s1.1.5,1.1,1.1v5.2c0,.6-.5,1.1-1.1,1.1Z"/>
          <path class="cls-3" d="M74,51.6c0,1.3-1.1,2.4-2.4,2.4h-22.7c-1.3,0-2.4-1.1-2.4-2.4s1.1-2.4,2.4-2.4h22.7c1.3,0,2.4,1.1,2.4,2.4Z"/>
          <path class="cls-5" d="M84.8,85.2c0,13.6-11.1,24.7-24.7,24.7s-11.1-2-15.3-5.3c-.8-.6-1.5-1.3-2.2-2-2.9-2.9-5.1-6.6-6.2-10.6-.6-2.2-.9-4.4-.9-6.8,0-13.6,11.1-24.7,24.7-24.7s11.7,2.2,16,5.9c.5.4,1,.9,1.4,1.3,3.2,3.1,5.5,7.1,6.6,11.6.5,1.9.7,3.9.7,5.9Z"/>
          <path class="cls-1" d="M84.8,85.2c0,13.6-11.1,24.7-24.7,24.7s-11.1-2-15.3-5.3c-.8-.6-1.5-1.3-2.2-2-.9-.9-1.8-2-2.6-3.1,3.9,2.6,8.6,4.1,13.6,4.1,13.6,0,24.7-11.1,24.7-24.7s-.3-4-.7-5.9c-.8-3.1-2.1-5.9-3.9-8.4.8.5,1.6,1.1,2.4,1.8.5.4,1,.9,1.4,1.3,3.2,3.1,5.5,7.1,6.6,11.6.5,1.9.7,3.9.7,5.9Z"/>
          <circle class="cls-3" cx="60.1" cy="85.2" r="18.8" transform="translate(-36.4 45.8) rotate(-32.6)"/>
          <path class="cls-5" d="M76.9,85.2c0,9.3-7.5,16.8-16.8,16.8s-16.8-7.5-16.8-16.8,7.5-16.8,16.8-16.8,16.8,7.5,16.8,16.8Z"/>
          <path class="cls-1" d="M76.9,85.2c0,9.3-7.5,16.8-16.8,16.8s-5.9-.8-8.4-2.3c1.7.5,3.4.8,5.3.8,10.2,0,18.5-8.3,18.5-18.5s-.3-3.6-.8-5.3c1.5,2.5,2.3,5.4,2.3,8.4Z"/>
          <polygon class="cls-3" points="60.2 73.1 64 80.8 72.4 82 66.3 88 67.7 96.4 60.2 92.5 52.6 96.4 54 88 47.9 82 56.4 80.8 60.2 73.1"/>
        </g>
      </g>
    </g>
  </g>
</svg>