<?xml version="1.0" encoding="utf-8"?>
<!-- Generator: Adobe Illustrator 26.3.1, SVG Export Plug-In . SVG Version: 6.00 Build 0)  -->
<svg version="1.1" id="分離模式" xmlns="http://www.w3.org/2000/svg" xmlns:xlink="http://www.w3.org/1999/xlink" x="0px"
	 y="0px" viewBox="0 0 162 145" style="enable-background:new 0 0 162 145;" xml:space="preserve">
<style type="text/css">
	.st0{fill:#FFC239;}
	.st1{fill:#FEE597;}
	.st2{fill:#FFC545;}
	.st3{fill:#FFD567;}
	.st4{fill:#FFAE28;}
</style>
<g>
	<g>
		<g>
			<g>
				<g>
					<g>
						<path class="st0" d="M141.45,12.43l0.68,2.77c-19.74-0.79-52.21,15.35-78.11,36.47c-25.9,21.12-48.25,49.69-51.44,69.18
							l-2.55-1.42l-7.6,0.3l15.79,19.37c13.17,16.15,55.62-6.23,89.49-33.85c33.58-27.38,63.8-64.07,51.48-80.43l0.01-0.01
							L143.79,5.9L141.45,12.43z"/>
					</g>
					<g>
						<path class="st1" d="M92.62,86.75C58.75,114.37,16.3,136.74,3.14,120.6c-13.17-16.15,17.29-53.23,51.16-80.85
							c33.87-27.62,76.32-49.99,89.49-33.85C156.95,22.05,126.49,59.13,92.62,86.75z"/>
					</g>
					<g>
						
							<ellipse transform="matrix(0.775 -0.632 0.632 0.775 -23.0535 60.0139)" class="st2" cx="72.75" cy="62.38" rx="80.97" ry="23.8"/>
					</g>
				</g>
				<g>
					<g>
						<g>
							<path class="st3" d="M21.12,129.79c2.98,4.74,6.38,9.19,10.17,13.3c0.88,0.95,2.45-0.32,1.57-1.28
								c-3.79-4.11-7.19-8.57-10.17-13.3C21.99,127.41,20.43,128.7,21.12,129.79L21.12,129.79z"/>
						</g>
					</g>
					<g>
						<g>
							<path class="st3" d="M34.09,126.41c2.72,4.41,5.85,8.55,9.35,12.37c0.88,0.96,2.45-0.32,1.57-1.28
								c-3.5-3.82-6.63-7.96-9.35-12.37c-0.29-0.47-1.04-0.45-1.42-0.14C33.76,125.36,33.8,125.94,34.09,126.41L34.09,126.41z"/>
						</g>
					</g>
					<g>
						<g>
							<path class="st3" d="M45.78,122.48c2.74,3.36,5.48,6.72,8.22,10.08c0.82,1.01,2.39-0.27,1.57-1.28
								c-2.74-3.36-5.48-6.72-8.22-10.08C46.53,120.19,44.96,121.47,45.78,122.48L45.78,122.48z"/>
						</g>
					</g>
					<g>
						<g>
							<path class="st3" d="M57.4,113.01c3.04,4.18,6.08,8.36,9.12,12.54c0.77,1.05,2.33-0.23,1.57-1.28
								c-3.04-4.18-6.08-8.36-9.12-12.54C58.2,110.68,56.64,111.96,57.4,113.01L57.4,113.01z"/>
						</g>
					</g>
					<g>
						<g>
							<path class="st3" d="M71.29,105.68c3.13,3.84,6.27,7.68,9.4,11.52c0.82,1.01,2.39-0.27,1.57-1.28
								c-3.13-3.84-6.26-7.68-9.4-11.52C72.03,103.39,70.46,104.67,71.29,105.68L71.29,105.68z"/>
						</g>
					</g>
					<g>
						<g>
							<path class="st3" d="M81.55,98.9c3.13,3.32,6.26,6.64,9.39,9.96c0.89,0.94,2.46-0.33,1.57-1.28
								c-3.13-3.32-6.26-6.64-9.39-9.96C82.23,96.68,80.66,97.95,81.55,98.9L81.55,98.9z"/>
						</g>
					</g>
					<g>
						<g>
							<path class="st3" d="M92.34,90.91c3,3.68,6,7.36,9.01,11.04c0.82,1.01,2.39-0.27,1.57-1.28c-3-3.68-6-7.36-9.01-11.04
								C93.09,88.62,91.52,89.9,92.34,90.91L92.34,90.91z"/>
						</g>
					</g>
					<g>
						<g>
							<path class="st3" d="M100.85,83.17c3.13,3.84,6.27,7.68,9.4,11.52c0.82,1.01,2.39-0.27,1.57-1.28
								c-3.13-3.84-6.26-7.68-9.4-11.52C101.59,80.89,100.02,82.16,100.85,83.17L100.85,83.17z"/>
						</g>
					</g>
					<g>
						<g>
							<path class="st3" d="M110.4,74.59c3.13,3.84,6.27,7.68,9.4,11.52c0.82,1.01,2.39-0.27,1.57-1.28
								c-3.13-3.84-6.27-7.68-9.4-11.52C111.14,72.3,109.57,73.57,110.4,74.59L110.4,74.59z"/>
						</g>
					</g>
					<g>
						<g>
							<path class="st3" d="M119.63,64.67c3.22,3.5,6.45,6.99,9.67,10.49c0.88,0.95,2.45-0.32,1.57-1.28
								c-3.22-3.5-6.45-6.99-9.67-10.49C120.32,62.44,118.74,63.71,119.63,64.67L119.63,64.67z"/>
						</g>
					</g>
					<g>
						<g>
							<path class="st3" d="M129.5,54.21c2.74,3.36,5.48,6.72,8.22,10.08c0.82,1.01,2.39-0.27,1.57-1.28
								c-2.74-3.36-5.48-6.72-8.22-10.08C130.25,51.92,128.68,53.2,129.5,54.21L129.5,54.21z"/>
						</g>
					</g>
					<g>
						<g>
							<path class="st3" d="M139.18,44.72c2.87,3.52,5.74,7.04,8.61,10.56c0.82,1.01,2.39-0.27,1.57-1.28
								c-2.87-3.52-5.74-7.04-8.61-10.56C139.93,42.43,138.36,43.71,139.18,44.72L139.18,44.72z"/>
						</g>
					</g>
					<g>
						<g>
							<path class="st3" d="M144.52,32.36c3.23,4.31,6.47,8.61,9.7,12.92c0.78,1.04,2.35-0.24,1.57-1.28
								c-3.23-4.31-6.47-8.61-9.7-12.92C145.31,30.04,143.74,31.32,144.52,32.36L144.52,32.36z"/>
						</g>
					</g>
					<g>
						<g>
							<path class="st3" d="M147.89,22.69c3.23,4.31,6.47,8.61,9.7,12.92c0.78,1.04,2.35-0.24,1.57-1.28
								c-3.23-4.31-6.47-8.61-9.7-12.92C148.67,20.37,147.11,21.65,147.89,22.69L147.89,22.69z"/>
						</g>
					</g>
				</g>
			</g>
		</g>
		<g>
			<path class="st4" d="M135.51,11.21c0.48,0.59,0.85,1.24,1.13,1.96c-10.6-6.97-43.43,7.57-76.12,34.22
				c-32.68,26.65-53.53,55.88-48.84,67.67c-0.65-0.42-1.21-0.92-1.69-1.5c-8.31-10.19,13.05-41.36,47.71-69.62
				C92.37,15.67,127.2,1.02,135.51,11.21z"/>
		</g>
	</g>
</g>
</svg>
