<?xml version="1.0" encoding="utf-8"?>
<!-- Generator: Adobe Illustrator 26.3.1, SVG Export Plug-In . SVG Version: 6.00 Build 0)  -->
<svg version="1.1" id="圖層_1" xmlns="http://www.w3.org/2000/svg" xmlns:xlink="http://www.w3.org/1999/xlink" x="0px" y="0px"
	 viewBox="0 0 20 20" style="enable-background:new 0 0 20 20;" xml:space="preserve">
<style type="text/css">
	.st0{fill:#FFD824;}
</style>
<path class="st0" d="M13.98,6.3l5.66,3.1c0.48,0.26,0.48,0.95,0,1.21l-5.66,3.1c-0.12,0.06-0.21,0.16-0.27,0.27l-3.1,5.66
	c-0.26,0.48-0.95,0.48-1.21,0l-3.1-5.66c-0.06-0.12-0.16-0.21-0.27-0.27l-5.66-3.1c-0.48-0.26-0.48-0.95,0-1.21l5.66-3.1
	C6.14,6.23,6.23,6.14,6.3,6.02l3.1-5.66c0.26-0.48,0.95-0.48,1.21,0l3.1,5.66C13.77,6.14,13.86,6.23,13.98,6.3z"/>
</svg>
