<?xml version="1.0" encoding="utf-8"?>
<!-- Generator: Adobe Illustrator 26.3.1, SVG Export Plug-In . SVG Version: 6.00 Build 0)  -->
<svg version="1.1" id="Object" xmlns="http://www.w3.org/2000/svg" xmlns:xlink="http://www.w3.org/1999/xlink" x="0px" y="0px"
	 viewBox="0 0 240 180" style="enable-background:new 0 0 240 180;" xml:space="preserve">
<style type="text/css">
	.st0{fill:#FFC239;}
	.st1{fill:#FEE597;}
	.st2{fill:#FFC545;}
	.st3{fill:#FFD567;}
	.st4{fill:#FFAE28;}
	.st5{fill:#399EFF;}
	.st6{fill:#1876E8;}
	.st7{fill:#FFD824;}
	.st8{fill:#FFFFFF;}
</style>
<g>
	<g>
		<g>
			<g>
				<g>
					<g>
						<g>
							<path class="st0" d="M101.3,151.2l-0.4,0.8c-4.7-4.1-15.9-6.7-26.4-6.7c-10.6,0-21.7,2.5-26.4,6.7l-0.3-0.9l-1.9-1.4l0,7.9
								c0,6.6,14.9,9.6,28.7,9.6c13.7,0,28.4-2.9,28.7-9.4l0,0l0-7.7L101.3,151.2z"/>
						</g>
						<g>
							<path class="st1" d="M74.5,159.7c-13.8,0-28.7-3-28.7-9.6c0-6.6,14.9-9.6,28.7-9.6c13.8,0,28.7,3,28.7,9.6
								C103.2,156.7,88.3,159.7,74.5,159.7z"/>
						</g>
						<g>
							<path class="st2" d="M100.1,149.7c0,4.2-11.5,7.5-25.6,7.5c-14.1,0-25.6-3.4-25.6-7.5c0-4.2,11.5-7.5,25.6-7.5
								C88.6,142.2,100.1,145.6,100.1,149.7z"/>
						</g>
					</g>
					<g>
						<g>
							<g>
								<path class="st3" d="M48.4,155.9c-0.2,1.8-0.3,3.5-0.2,5.3c0,0.4,0.7,0.4,0.6,0c-0.1-1.8-0.1-3.5,0.2-5.3
									C49.1,155.5,48.4,155.5,48.4,155.9L48.4,155.9z"/>
							</g>
						</g>
						<g>
							<g>
								<path class="st3" d="M52.2,157.7c-0.2,1.6-0.3,3.3-0.2,4.9c0,0.4,0.7,0.4,0.6,0c-0.1-1.6,0-3.3,0.2-4.9
									c0-0.2-0.2-0.3-0.3-0.3C52.3,157.4,52.2,157.5,52.2,157.7L52.2,157.7z"/>
							</g>
						</g>
						<g>
							<g>
								<path class="st3" d="M55.9,159.1c0,1.4,0,2.7,0,4.1c0,0.4,0.6,0.4,0.6,0c0-1.4,0-2.7,0-4.1
									C56.5,158.6,55.9,158.6,55.9,159.1L55.9,159.1z"/>
							</g>
						</g>
						<g>
							<g>
								<path class="st3" d="M60.6,159.1c-0.1,1.6-0.2,3.3-0.3,4.9c0,0.4,0.6,0.4,0.6,0c0.1-1.6,0.2-3.3,0.3-4.9
									C61.3,158.6,60.6,158.6,60.6,159.1L60.6,159.1z"/>
							</g>
						</g>
						<g>
							<g>
								<path class="st3" d="M65.5,160c0,1.6,0,3.1,0,4.7c0,0.4,0.6,0.4,0.6,0c0-1.6,0-3.1,0-4.7C66.1,159.6,65.5,159.6,65.5,160
									L65.5,160z"/>
							</g>
						</g>
						<g>
							<g>
								<path class="st3" d="M69.3,160.4c0.1,1.4,0.2,2.9,0.3,4.3c0,0.4,0.7,0.4,0.6,0c-0.1-1.4-0.2-2.9-0.3-4.3
									C70,160,69.3,160,69.3,160.4L69.3,160.4z"/>
							</g>
						</g>
						<g>
							<g>
								<path class="st3" d="M73.6,160.6c0,1.5,0,3,0,4.5c0,0.4,0.6,0.4,0.6,0c0-1.5,0-3,0-4.5C74.2,160.2,73.6,160.2,73.6,160.6
									L73.6,160.6z"/>
							</g>
						</g>
						<g>
							<g>
								<path class="st3" d="M77.2,160.4c0,1.6,0,3.1,0,4.7c0,0.4,0.6,0.4,0.6,0c0-1.6,0-3.1,0-4.7C77.8,160,77.2,160,77.2,160.4
									L77.2,160.4z"/>
							</g>
						</g>
						<g>
							<g>
								<path class="st3" d="M81.3,160.2c0,1.6,0,3.1,0,4.7c0,0.4,0.6,0.4,0.6,0c0-1.6,0-3.1,0-4.7
									C81.9,159.8,81.3,159.8,81.3,160.2L81.3,160.2z"/>
							</g>
						</g>
						<g>
							<g>
								<path class="st3" d="M85.5,159.6c0.1,1.5,0.2,3,0.3,4.5c0,0.4,0.7,0.4,0.6,0c-0.1-1.5-0.2-3-0.3-4.5
									C86.1,159.2,85.5,159.2,85.5,159.6L85.5,159.6z"/>
							</g>
						</g>
						<g>
							<g>
								<path class="st3" d="M90,159.1c0,1.4,0,2.7,0,4.1c0,0.4,0.6,0.4,0.6,0c0-1.4,0-2.7,0-4.1C90.6,158.6,90,158.6,90,159.1
									L90,159.1z"/>
							</g>
						</g>
						<g>
							<g>
								<path class="st3" d="M94.3,158.7c0,1.4,0,2.9,0,4.3c0,0.4,0.6,0.4,0.6,0c0-1.4,0-2.9,0-4.3
									C94.9,158.2,94.3,158.2,94.3,158.7L94.3,158.7z"/>
							</g>
						</g>
						<g>
							<g>
								<path class="st3" d="M98.1,156.7c-0.1,1.7-0.1,3.4-0.2,5.1c0,0.4,0.6,0.4,0.6,0c0.1-1.7,0.1-3.4,0.2-5.1
									C98.7,156.3,98.1,156.3,98.1,156.7L98.1,156.7z"/>
							</g>
						</g>
						<g>
							<g>
								<path class="st3" d="M100.8,155c-0.1,1.7-0.1,3.4-0.2,5.1c0,0.4,0.6,0.4,0.6,0c0.1-1.7,0.1-3.4,0.2-5.1
									C101.5,154.6,100.8,154.6,100.8,155L100.8,155z"/>
							</g>
						</g>
					</g>
				</g>
			</g>
			<g>
				<path class="st4" d="M100.1,149.7c0,0.2,0,0.5-0.1,0.7c-1.2-3.8-12.1-6.8-25.5-6.8c-13.3,0-24.3,3-25.5,6.8
					c-0.1-0.2-0.1-0.5-0.1-0.7c0-4.2,11.5-7.5,25.6-7.5C88.6,142.2,100.1,145.6,100.1,149.7z"/>
			</g>
		</g>
	</g>
	<g>
		<g>
			<g>
				<g>
					<g>
						<g>
							<path class="st0" d="M101.3,141.9l-0.4,0.8c-4.7-4.1-15.9-6.7-26.4-6.7c-10.6,0-21.7,2.5-26.4,6.7l-0.3-0.9l-1.9-1.4l0,7.9
								c0,6.6,14.9,9.6,28.7,9.6c13.7,0,28.4-2.9,28.7-9.4l0,0l0-7.7L101.3,141.9z"/>
						</g>
						<g>
							<path class="st1" d="M74.5,150.4c-13.8,0-28.7-3-28.7-9.6c0-6.6,14.9-9.6,28.7-9.6c13.8,0,28.7,3,28.7,9.6
								C103.2,147.4,88.3,150.4,74.5,150.4z"/>
						</g>
						<g>
							<path class="st2" d="M100.1,140.4c0,4.2-11.5,7.5-25.6,7.5c-14.1,0-25.6-3.4-25.6-7.5c0-4.2,11.5-7.5,25.6-7.5
								C88.6,132.9,100.1,136.3,100.1,140.4z"/>
						</g>
					</g>
					<g>
						<g>
							<g>
								<path class="st3" d="M48.4,146.6c-0.2,1.8-0.3,3.5-0.2,5.3c0,0.4,0.7,0.4,0.6,0c-0.1-1.8-0.1-3.5,0.2-5.3
									C49.1,146.2,48.4,146.2,48.4,146.6L48.4,146.6z"/>
							</g>
						</g>
						<g>
							<g>
								<path class="st3" d="M52.2,148.4c-0.2,1.6-0.3,3.3-0.2,4.9c0,0.4,0.7,0.4,0.6,0c-0.1-1.6,0-3.3,0.2-4.9
									c0-0.2-0.2-0.3-0.3-0.3C52.3,148.1,52.2,148.2,52.2,148.4L52.2,148.4z"/>
							</g>
						</g>
						<g>
							<g>
								<path class="st3" d="M55.9,149.8c0,1.4,0,2.7,0,4.1c0,0.4,0.6,0.4,0.6,0c0-1.4,0-2.7,0-4.1
									C56.5,149.3,55.9,149.3,55.9,149.8L55.9,149.8z"/>
							</g>
						</g>
						<g>
							<g>
								<path class="st3" d="M60.6,149.8c-0.1,1.6-0.2,3.3-0.3,4.9c0,0.4,0.6,0.4,0.6,0c0.1-1.6,0.2-3.3,0.3-4.9
									C61.3,149.3,60.6,149.3,60.6,149.8L60.6,149.8z"/>
							</g>
						</g>
						<g>
							<g>
								<path class="st3" d="M65.5,150.7c0,1.6,0,3.1,0,4.7c0,0.4,0.6,0.4,0.6,0c0-1.6,0-3.1,0-4.7
									C66.1,150.3,65.5,150.3,65.5,150.7L65.5,150.7z"/>
							</g>
						</g>
						<g>
							<g>
								<path class="st3" d="M69.3,151.1c0.1,1.4,0.2,2.9,0.3,4.3c0,0.4,0.7,0.4,0.6,0c-0.1-1.4-0.2-2.9-0.3-4.3
									C70,150.7,69.3,150.7,69.3,151.1L69.3,151.1z"/>
							</g>
						</g>
						<g>
							<g>
								<path class="st3" d="M73.6,151.3c0,1.5,0,3,0,4.5c0,0.4,0.6,0.4,0.6,0c0-1.5,0-3,0-4.5C74.2,150.9,73.6,150.9,73.6,151.3
									L73.6,151.3z"/>
							</g>
						</g>
						<g>
							<g>
								<path class="st3" d="M77.2,151.1c0,1.6,0,3.1,0,4.7c0,0.4,0.6,0.4,0.6,0c0-1.6,0-3.1,0-4.7
									C77.8,150.7,77.2,150.7,77.2,151.1L77.2,151.1z"/>
							</g>
						</g>
						<g>
							<g>
								<path class="st3" d="M81.3,150.9c0,1.6,0,3.1,0,4.7c0,0.4,0.6,0.4,0.6,0c0-1.6,0-3.1,0-4.7
									C81.9,150.5,81.3,150.5,81.3,150.9L81.3,150.9z"/>
							</g>
						</g>
						<g>
							<g>
								<path class="st3" d="M85.5,150.3c0.1,1.5,0.2,3,0.3,4.5c0,0.4,0.7,0.4,0.6,0c-0.1-1.5-0.2-3-0.3-4.5
									C86.1,149.9,85.5,149.9,85.5,150.3L85.5,150.3z"/>
							</g>
						</g>
						<g>
							<g>
								<path class="st3" d="M90,149.8c0,1.4,0,2.7,0,4.1c0,0.4,0.6,0.4,0.6,0c0-1.4,0-2.7,0-4.1C90.6,149.3,90,149.3,90,149.8
									L90,149.8z"/>
							</g>
						</g>
						<g>
							<g>
								<path class="st3" d="M94.3,149.4c0,1.4,0,2.9,0,4.3c0,0.4,0.6,0.4,0.6,0c0-1.4,0-2.9,0-4.3C94.9,149,94.3,149,94.3,149.4
									L94.3,149.4z"/>
							</g>
						</g>
						<g>
							<g>
								<path class="st3" d="M98.1,147.4c-0.1,1.7-0.1,3.4-0.2,5.1c0,0.4,0.6,0.4,0.6,0c0.1-1.7,0.1-3.4,0.2-5.1
									C98.7,147,98.1,147,98.1,147.4L98.1,147.4z"/>
							</g>
						</g>
						<g>
							<g>
								<path class="st3" d="M100.8,145.7c-0.1,1.7-0.1,3.4-0.2,5.1c0,0.4,0.6,0.4,0.6,0c0.1-1.7,0.1-3.4,0.2-5.1
									C101.5,145.3,100.8,145.3,100.8,145.7L100.8,145.7z"/>
							</g>
						</g>
					</g>
				</g>
			</g>
			<g>
				<path class="st4" d="M100.1,140.4c0,0.2,0,0.5-0.1,0.7c-1.2-3.8-12.1-6.8-25.5-6.8c-13.3,0-24.3,3-25.5,6.8
					c-0.1-0.2-0.1-0.5-0.1-0.7c0-4.2,11.5-7.5,25.6-7.5C88.6,132.9,100.1,136.3,100.1,140.4z"/>
			</g>
		</g>
	</g>
	<g>
		<g>
			<g>
				<g>
					<g>
						<g>
							<path class="st0" d="M101.3,132.6l-0.4,0.8c-4.7-4.1-15.9-6.7-26.4-6.7c-10.6,0-21.7,2.5-26.4,6.7l-0.3-0.9l-1.9-1.4l0,7.9
								c0,6.6,14.9,9.6,28.7,9.6c13.7,0,28.4-2.9,28.7-9.4l0,0l0-7.7L101.3,132.6z"/>
						</g>
						<g>
							<path class="st1" d="M74.5,141.1c-13.8,0-28.7-3-28.7-9.6c0-6.6,14.9-9.6,28.7-9.6c13.8,0,28.7,3,28.7,9.6
								C103.2,138.1,88.3,141.1,74.5,141.1z"/>
						</g>
						<g>
							<path class="st2" d="M100.1,131.1c0,4.2-11.5,7.5-25.6,7.5c-14.1,0-25.6-3.4-25.6-7.5c0-4.2,11.5-7.5,25.6-7.5
								C88.6,123.6,100.1,127,100.1,131.1z"/>
						</g>
					</g>
					<g>
						<g>
							<g>
								<path class="st3" d="M48.4,137.3c-0.2,1.8-0.3,3.5-0.2,5.3c0,0.4,0.7,0.4,0.6,0c-0.1-1.8-0.1-3.5,0.2-5.3
									C49.1,136.9,48.4,136.9,48.4,137.3L48.4,137.3z"/>
							</g>
						</g>
						<g>
							<g>
								<path class="st3" d="M52.2,139.1c-0.2,1.6-0.3,3.3-0.2,4.9c0,0.4,0.7,0.4,0.6,0c-0.1-1.6,0-3.3,0.2-4.9
									c0-0.2-0.2-0.3-0.3-0.3C52.3,138.8,52.2,138.9,52.2,139.1L52.2,139.1z"/>
							</g>
						</g>
						<g>
							<g>
								<path class="st3" d="M55.9,140.5c0,1.4,0,2.7,0,4.1c0,0.4,0.6,0.4,0.6,0c0-1.4,0-2.7,0-4.1C56.5,140,55.9,140,55.9,140.5
									L55.9,140.5z"/>
							</g>
						</g>
						<g>
							<g>
								<path class="st3" d="M60.6,140.5c-0.1,1.6-0.2,3.3-0.3,4.9c0,0.4,0.6,0.4,0.6,0c0.1-1.6,0.2-3.3,0.3-4.9
									C61.3,140.1,60.6,140.1,60.6,140.5L60.6,140.5z"/>
							</g>
						</g>
						<g>
							<g>
								<path class="st3" d="M65.5,141.4c0,1.6,0,3.1,0,4.7c0,0.4,0.6,0.4,0.6,0c0-1.6,0-3.1,0-4.7C66.1,141,65.5,141,65.5,141.4
									L65.5,141.4z"/>
							</g>
						</g>
						<g>
							<g>
								<path class="st3" d="M69.3,141.8c0.1,1.4,0.2,2.9,0.3,4.3c0,0.4,0.7,0.4,0.6,0c-0.1-1.4-0.2-2.9-0.3-4.3
									C70,141.4,69.3,141.4,69.3,141.8L69.3,141.8z"/>
							</g>
						</g>
						<g>
							<g>
								<path class="st3" d="M73.6,142c0,1.5,0,3,0,4.5c0,0.4,0.6,0.4,0.6,0c0-1.5,0-3,0-4.5C74.2,141.6,73.6,141.6,73.6,142
									L73.6,142z"/>
							</g>
						</g>
						<g>
							<g>
								<path class="st3" d="M77.2,141.8c0,1.6,0,3.1,0,4.7c0,0.4,0.6,0.4,0.6,0c0-1.6,0-3.1,0-4.7
									C77.8,141.4,77.2,141.4,77.2,141.8L77.2,141.8z"/>
							</g>
						</g>
						<g>
							<g>
								<path class="st3" d="M81.3,141.6c0,1.6,0,3.1,0,4.7c0,0.4,0.6,0.4,0.6,0c0-1.6,0-3.1,0-4.7
									C81.9,141.2,81.3,141.2,81.3,141.6L81.3,141.6z"/>
							</g>
						</g>
						<g>
							<g>
								<path class="st3" d="M85.5,141c0.1,1.5,0.2,3,0.3,4.5c0,0.4,0.7,0.4,0.6,0c-0.1-1.5-0.2-3-0.3-4.5
									C86.1,140.6,85.5,140.6,85.5,141L85.5,141z"/>
							</g>
						</g>
						<g>
							<g>
								<path class="st3" d="M90,140.5c0,1.4,0,2.7,0,4.1c0,0.4,0.6,0.4,0.6,0c0-1.4,0-2.7,0-4.1C90.6,140,90,140,90,140.5L90,140.5
									z"/>
							</g>
						</g>
						<g>
							<g>
								<path class="st3" d="M94.3,140.1c0,1.4,0,2.9,0,4.3c0,0.4,0.6,0.4,0.6,0c0-1.4,0-2.9,0-4.3
									C94.9,139.7,94.3,139.7,94.3,140.1L94.3,140.1z"/>
							</g>
						</g>
						<g>
							<g>
								<path class="st3" d="M98.1,138.1c-0.1,1.7-0.1,3.4-0.2,5.1c0,0.4,0.6,0.4,0.6,0c0.1-1.7,0.1-3.4,0.2-5.1
									C98.7,137.7,98.1,137.7,98.1,138.1L98.1,138.1z"/>
							</g>
						</g>
						<g>
							<g>
								<path class="st3" d="M100.8,136.4c-0.1,1.7-0.1,3.4-0.2,5.1c0,0.4,0.6,0.4,0.6,0c0.1-1.7,0.1-3.4,0.2-5.1
									C101.5,136,100.8,136,100.8,136.4L100.8,136.4z"/>
							</g>
						</g>
					</g>
				</g>
			</g>
			<g>
				<path class="st4" d="M100.1,131.1c0,0.2,0,0.5-0.1,0.7c-1.2-3.8-12.1-6.8-25.5-6.8c-13.3,0-24.3,3-25.5,6.8
					c-0.1-0.2-0.1-0.5-0.1-0.7c0-4.2,11.5-7.5,25.6-7.5C88.6,123.6,100.1,127,100.1,131.1z"/>
			</g>
		</g>
	</g>
	<g>
		<g>
			<g>
				<g>
					<g>
						<g>
							<path class="st0" d="M101.3,123.3l-0.4,0.8c-4.7-4.1-15.9-6.7-26.4-6.7c-10.6,0-21.7,2.5-26.4,6.7l-0.3-0.9l-1.9-1.4l0,7.9
								c0,6.6,14.9,9.6,28.7,9.6c13.7,0,28.4-2.9,28.7-9.4l0,0l0-7.7L101.3,123.3z"/>
						</g>
						<g>
							<path class="st1" d="M74.5,131.8c-13.8,0-28.7-3-28.7-9.6c0-6.6,14.9-9.6,28.7-9.6c13.8,0,28.7,3,28.7,9.6
								C103.2,128.8,88.3,131.8,74.5,131.8z"/>
						</g>
						<g>
							<path class="st2" d="M100.1,121.8c0,4.2-11.5,7.5-25.6,7.5c-14.1,0-25.6-3.4-25.6-7.5c0-4.2,11.5-7.5,25.6-7.5
								C88.6,114.3,100.1,117.7,100.1,121.8z"/>
						</g>
					</g>
					<g>
						<g>
							<g>
								<path class="st3" d="M48.4,128c-0.2,1.8-0.3,3.5-0.2,5.3c0,0.4,0.7,0.4,0.6,0c-0.1-1.8-0.1-3.5,0.2-5.3
									C49.1,127.6,48.4,127.6,48.4,128L48.4,128z"/>
							</g>
						</g>
						<g>
							<g>
								<path class="st3" d="M52.2,129.8c-0.2,1.6-0.3,3.3-0.2,4.9c0,0.4,0.7,0.4,0.6,0c-0.1-1.6,0-3.3,0.2-4.9
									c0-0.2-0.2-0.3-0.3-0.3C52.3,129.5,52.2,129.6,52.2,129.8L52.2,129.8z"/>
							</g>
						</g>
						<g>
							<g>
								<path class="st3" d="M55.9,131.2c0,1.4,0,2.7,0,4.1c0,0.4,0.6,0.4,0.6,0c0-1.4,0-2.7,0-4.1
									C56.5,130.8,55.9,130.8,55.9,131.2L55.9,131.2z"/>
							</g>
						</g>
						<g>
							<g>
								<path class="st3" d="M60.6,131.2c-0.1,1.6-0.2,3.3-0.3,4.9c0,0.4,0.6,0.4,0.6,0c0.1-1.6,0.2-3.3,0.3-4.9
									C61.3,130.8,60.6,130.8,60.6,131.2L60.6,131.2z"/>
							</g>
						</g>
						<g>
							<g>
								<path class="st3" d="M65.5,132.1c0,1.6,0,3.1,0,4.7c0,0.4,0.6,0.4,0.6,0c0-1.6,0-3.1,0-4.7
									C66.1,131.7,65.5,131.7,65.5,132.1L65.5,132.1z"/>
							</g>
						</g>
						<g>
							<g>
								<path class="st3" d="M69.3,132.5c0.1,1.4,0.2,2.9,0.3,4.3c0,0.4,0.7,0.4,0.6,0c-0.1-1.4-0.2-2.9-0.3-4.3
									C70,132.1,69.3,132.1,69.3,132.5L69.3,132.5z"/>
							</g>
						</g>
						<g>
							<g>
								<path class="st3" d="M73.6,132.7c0,1.5,0,3,0,4.5c0,0.4,0.6,0.4,0.6,0c0-1.5,0-3,0-4.5C74.2,132.3,73.6,132.3,73.6,132.7
									L73.6,132.7z"/>
							</g>
						</g>
						<g>
							<g>
								<path class="st3" d="M77.2,132.5c0,1.6,0,3.1,0,4.7c0,0.4,0.6,0.4,0.6,0c0-1.6,0-3.1,0-4.7
									C77.8,132.1,77.2,132.1,77.2,132.5L77.2,132.5z"/>
							</g>
						</g>
						<g>
							<g>
								<path class="st3" d="M81.3,132.3c0,1.6,0,3.1,0,4.7c0,0.4,0.6,0.4,0.6,0c0-1.6,0-3.1,0-4.7
									C81.9,131.9,81.3,131.9,81.3,132.3L81.3,132.3z"/>
							</g>
						</g>
						<g>
							<g>
								<path class="st3" d="M85.5,131.8c0.1,1.5,0.2,3,0.3,4.5c0,0.4,0.7,0.4,0.6,0c-0.1-1.5-0.2-3-0.3-4.5
									C86.1,131.3,85.5,131.3,85.5,131.8L85.5,131.8z"/>
							</g>
						</g>
						<g>
							<g>
								<path class="st3" d="M90,131.2c0,1.4,0,2.7,0,4.1c0,0.4,0.6,0.4,0.6,0c0-1.4,0-2.7,0-4.1C90.6,130.8,90,130.8,90,131.2
									L90,131.2z"/>
							</g>
						</g>
						<g>
							<g>
								<path class="st3" d="M94.3,130.8c0,1.4,0,2.9,0,4.3c0,0.4,0.6,0.4,0.6,0c0-1.4,0-2.9,0-4.3
									C94.9,130.4,94.3,130.4,94.3,130.8L94.3,130.8z"/>
							</g>
						</g>
						<g>
							<g>
								<path class="st3" d="M98.1,128.8c-0.1,1.7-0.1,3.4-0.2,5.1c0,0.4,0.6,0.4,0.6,0c0.1-1.7,0.1-3.4,0.2-5.1
									C98.7,128.4,98.1,128.4,98.1,128.8L98.1,128.8z"/>
							</g>
						</g>
						<g>
							<g>
								<path class="st3" d="M100.8,127.1c-0.1,1.7-0.1,3.4-0.2,5.1c0,0.4,0.6,0.4,0.6,0c0.1-1.7,0.1-3.4,0.2-5.1
									C101.5,126.7,100.8,126.7,100.8,127.1L100.8,127.1z"/>
							</g>
						</g>
					</g>
				</g>
			</g>
			<g>
				<path class="st4" d="M100.1,121.8c0,0.2,0,0.5-0.1,0.7c-1.2-3.8-12.1-6.8-25.5-6.8c-13.3,0-24.3,3-25.5,6.8
					c-0.1-0.2-0.1-0.5-0.1-0.7c0-4.2,11.5-7.5,25.6-7.5C88.6,114.3,100.1,117.7,100.1,121.8z"/>
			</g>
		</g>
	</g>
	<path class="st5" d="M187,170.2H96.5c-5.5,0-10-4.5-10-10V10.4c0-5.5,4.5-10,10-10H187c5.5,0,10,4.5,10,10v149.7
		C197,165.6,192.5,170.2,187,170.2z"/>
	<g>
		<path class="st6" d="M184,64.6H99.6c-3.3,0-6-2.7-6-6V15.8c0-3.3,2.7-6,6-6H184c3.3,0,6,2.7,6,6v42.8
			C190,61.9,187.3,64.6,184,64.6z"/>
	</g>
	<path class="st7" d="M176.8,158.4c-4,0.3-38.1,0.3-42,0c-2.9-0.2-5.7-3.1-6-6c-0.3-4-0.3-7.9,0-11.9c0.3-2.9,3.1-5.8,6-6
		c4-0.3,37.2-0.3,41.2,0c2.9,0.2,6.5,3.1,6.8,6c0.3,4,0.3,7.9,0,11.9C182.5,155.3,179.7,158.2,176.8,158.4z"/>
	<path class="st8" d="M114.4,97c-4,0.3-7.9,0.3-11.9,0c-2.9-0.2-5.7-3.1-6-6c-0.3-4-0.3-7.9,0-11.9c0.3-2.9,3.1-5.8,6-6
		c4-0.3,7.9-0.3,11.9,0c2.9,0.2,5.7,3.1,6,6c0.3,4,0.3,7.9,0,11.9C120.1,93.9,117.3,96.8,114.4,97z"/>
	<path class="st8" d="M146.7,97c-4,0.3-7.9,0.3-11.9,0c-2.9-0.2-5.7-3.1-6-6c-0.3-4-0.3-7.9,0-11.9c0.3-2.9,3.1-5.8,6-6
		c4-0.3,7.9-0.3,11.9,0c2.9,0.2,5.7,3.1,6,6c0.3,4,0.3,7.9,0,11.9C152.4,93.9,149.6,96.8,146.7,97z"/>
	<path class="st8" d="M179,97c-4,0.3-7.9,0.3-11.9,0c-2.9-0.2-5.7-3.1-6-6c-0.3-4-0.3-7.9,0-11.9c0.3-2.9,3.1-5.8,6-6
		c4-0.3,7.9-0.3,11.9,0c2.9,0.2,5.7,3.1,6,6c0.3,4,0.3,7.9,0,11.9C184.7,93.9,181.9,96.8,179,97z"/>
	<path class="st8" d="M114.4,127.3c-4,0.3-7.9,0.3-11.9,0c-2.9-0.2-5.7-3.1-6-6c-0.3-4-0.3-7.9,0-11.9c0.3-2.9,3.1-5.8,6-6
		c4-0.3,7.9-0.3,11.9,0c2.9,0.2,5.7,3.1,6,6c0.3,4,0.3,7.9,0,11.9C120.1,124.2,117.3,127,114.4,127.3z"/>
	<path class="st8" d="M146.7,127.3c-4,0.3-7.9,0.3-11.9,0c-2.9-0.2-5.7-3.1-6-6c-0.3-4-0.3-7.9,0-11.9c0.3-2.9,3.1-5.8,6-6
		c4-0.3,7.9-0.3,11.9,0c2.9,0.2,5.7,3.1,6,6c0.3,4,0.3,7.9,0,11.9C152.4,124.2,149.6,127,146.7,127.3z"/>
	<path class="st8" d="M179,127.3c-4,0.3-7.9,0.3-11.9,0c-2.9-0.2-5.7-3.1-6-6c-0.3-4-0.3-7.9,0-11.9c0.3-2.9,3.1-5.8,6-6
		c4-0.3,7.9-0.3,11.9,0c2.9,0.2,5.7,3.1,6,6c0.3,4,0.3,7.9,0,11.9C184.7,124.2,181.9,127,179,127.3z"/>
	<path class="st8" d="M114.4,158c-4,0.3-7.9,0.3-11.9,0c-2.9-0.2-5.7-3.1-6-6c-0.3-4-0.3-7.9,0-11.9c0.3-2.9,3.1-5.8,6-6
		c4-0.3,7.9-0.3,11.9,0c2.9,0.2,5.7,3.1,6,6c0.3,4,0.3,7.9,0,11.9C120.1,154.9,117.3,157.8,114.4,158z"/>
	<path class="st0" d="M238.3,151c-1,18.7-18.3,32.3-36.5,27.2c-14.5-4-23-16.3-22.5-31c0.5-14.8,11.1-28.6,26.2-31
		C224.5,113.1,239.6,128.6,238.3,151z"/>
	<path class="st1" d="M238.3,151c-1.1,20.8-16.7,33.2-34.7,27c-13.3-3.5-21.9-17.4-21.4-31.7c0.5-14.4,10.2-28.6,24.1-30
		C226.6,114.2,239.4,129.9,238.3,151z"/>
	<path class="st4" d="M234.2,148.8c0,16.8-13.1,27.8-26.7,25.4c-11.5-2-19.7-13.2-19.9-25.4c-0.3-12.3,7.7-23.8,19.3-26
		C220.7,120.3,234.2,131.8,234.2,148.8z"/>
	<path class="st2" d="M234.1,150c0,16.1-12.3,26.7-25.3,24.3c-10.9-2.1-18.8-13-19-24.8c-0.2-11.9,7.3-23,18.4-24.9
		C221.4,122.4,234.1,133.7,234.1,150z"/>
	<g>
		<g>
			<g>
				<g>
					<g>
						<g>
							<path class="st0" d="M57.1,162.3l-0.4,0.8c-4.7-4.1-15.9-6.7-26.4-6.7c-10.6,0-21.7,2.5-26.4,6.7l-0.3-0.9l-1.9-1.4l0,7.9
								c0,6.6,14.9,9.6,28.7,9.6c13.7,0,28.4-2.9,28.7-9.4l0,0l0-7.7L57.1,162.3z"/>
						</g>
						<g>
							<path class="st1" d="M30.3,170.8c-13.8,0-28.7-3-28.7-9.6c0-6.6,14.9-9.6,28.7-9.6c13.8,0,28.7,3,28.7,9.6
								C59,167.8,44.1,170.8,30.3,170.8z"/>
						</g>
						<g>
							<path class="st2" d="M55.9,160.8c0,4.2-11.5,7.5-25.6,7.5c-14.1,0-25.6-3.4-25.6-7.5c0-4.2,11.5-7.5,25.6-7.5
								C44.5,153.3,55.9,156.7,55.9,160.8z"/>
						</g>
					</g>
					<g>
						<g>
							<g>
								<path class="st3" d="M4.2,167c-0.2,1.8-0.3,3.5-0.2,5.3c0,0.4,0.7,0.4,0.6,0c-0.1-1.8-0.1-3.5,0.2-5.3
									C4.9,166.6,4.3,166.6,4.2,167L4.2,167z"/>
							</g>
						</g>
						<g>
							<g>
								<path class="st3" d="M8.1,168.8c-0.2,1.6-0.3,3.3-0.2,4.9c0,0.4,0.7,0.4,0.6,0c-0.1-1.6,0-3.3,0.2-4.9
									c0-0.2-0.2-0.3-0.3-0.3C8.2,168.5,8.1,168.6,8.1,168.8L8.1,168.8z"/>
							</g>
						</g>
						<g>
							<g>
								<path class="st3" d="M11.7,170.2c0,1.4,0,2.7,0,4.1c0,0.4,0.6,0.4,0.6,0c0-1.4,0-2.7,0-4.1
									C12.4,169.7,11.7,169.7,11.7,170.2L11.7,170.2z"/>
							</g>
						</g>
						<g>
							<g>
								<path class="st3" d="M16.5,170.2c-0.1,1.6-0.2,3.3-0.3,4.9c0,0.4,0.6,0.4,0.6,0c0.1-1.6,0.2-3.3,0.3-4.9
									C17.1,169.7,16.5,169.7,16.5,170.2L16.5,170.2z"/>
							</g>
						</g>
						<g>
							<g>
								<path class="st3" d="M21.3,171.1c0,1.6,0,3.1,0,4.7c0,0.4,0.6,0.4,0.6,0c0-1.6,0-3.1,0-4.7C22,170.7,21.3,170.7,21.3,171.1
									L21.3,171.1z"/>
							</g>
						</g>
						<g>
							<g>
								<path class="st3" d="M25.2,171.5c0.1,1.4,0.2,2.9,0.3,4.3c0,0.4,0.7,0.4,0.6,0c-0.1-1.4-0.2-2.9-0.3-4.3
									C25.8,171.1,25.2,171.1,25.2,171.5L25.2,171.5z"/>
							</g>
						</g>
						<g>
							<g>
								<path class="st3" d="M29.4,171.7c0,1.5,0,3,0,4.5c0,0.4,0.6,0.4,0.6,0c0-1.5,0-3,0-4.5C30.1,171.3,29.4,171.3,29.4,171.7
									L29.4,171.7z"/>
							</g>
						</g>
						<g>
							<g>
								<path class="st3" d="M33.1,171.5c0,1.6,0,3.1,0,4.7c0,0.4,0.6,0.4,0.6,0c0-1.6,0-3.1,0-4.7
									C33.7,171.1,33.1,171.1,33.1,171.5L33.1,171.5z"/>
							</g>
						</g>
						<g>
							<g>
								<path class="st3" d="M37.1,171.3c0,1.6,0,3.1,0,4.7c0,0.4,0.6,0.4,0.6,0c0-1.6,0-3.1,0-4.7
									C37.7,170.9,37.1,170.9,37.1,171.3L37.1,171.3z"/>
							</g>
						</g>
						<g>
							<g>
								<path class="st3" d="M41.3,170.7c0.1,1.5,0.2,3,0.3,4.5c0,0.4,0.7,0.4,0.6,0c-0.1-1.5-0.2-3-0.3-4.5
									C42,170.3,41.3,170.3,41.3,170.7L41.3,170.7z"/>
							</g>
						</g>
						<g>
							<g>
								<path class="st3" d="M45.9,170.2c0,1.4,0,2.7,0,4.1c0,0.4,0.6,0.4,0.6,0c0-1.4,0-2.7,0-4.1
									C46.5,169.7,45.9,169.7,45.9,170.2L45.9,170.2z"/>
							</g>
						</g>
						<g>
							<g>
								<path class="st3" d="M50.1,169.8c0,1.4,0,2.9,0,4.3c0,0.4,0.6,0.4,0.6,0c0-1.4,0-2.9,0-4.3
									C50.8,169.4,50.1,169.4,50.1,169.8L50.1,169.8z"/>
							</g>
						</g>
						<g>
							<g>
								<path class="st3" d="M53.9,167.8c-0.1,1.7-0.1,3.4-0.2,5.1c0,0.4,0.6,0.4,0.6,0c0.1-1.7,0.1-3.4,0.2-5.1
									C54.6,167.4,53.9,167.4,53.9,167.8L53.9,167.8z"/>
							</g>
						</g>
						<g>
							<g>
								<path class="st3" d="M56.7,166.1c-0.1,1.7-0.1,3.4-0.2,5.1c0,0.4,0.6,0.4,0.6,0c0.1-1.7,0.1-3.4,0.2-5.1
									C57.3,165.7,56.7,165.7,56.7,166.1L56.7,166.1z"/>
							</g>
						</g>
					</g>
				</g>
			</g>
			<g>
				<path class="st4" d="M55.9,160.8c0,0.2,0,0.5-0.1,0.7c-1.2-3.8-12.1-6.8-25.5-6.8c-13.3,0-24.3,3-25.5,6.8
					c-0.1-0.2-0.1-0.5-0.1-0.7c0-4.2,11.5-7.5,25.6-7.5C44.5,153.3,55.9,156.7,55.9,160.8z"/>
			</g>
		</g>
	</g>
	<g>
		<g>
			<g>
				<g>
					<g>
						<g>
							<path class="st0" d="M57.1,153l-0.4,0.8c-4.7-4.1-15.9-6.7-26.4-6.7c-10.6,0-21.7,2.5-26.4,6.7L3.6,153l-1.9-1.4l0,7.9
								c0,6.6,14.9,9.6,28.7,9.6c13.7,0,28.4-2.9,28.7-9.4l0,0l0-7.7L57.1,153z"/>
						</g>
						<g>
							<path class="st1" d="M30.3,161.5c-13.8,0-28.7-3-28.7-9.6c0-6.6,14.9-9.6,28.7-9.6c13.8,0,28.7,3,28.7,9.6
								C59,158.5,44.1,161.5,30.3,161.5z"/>
						</g>
						<g>
							<path class="st2" d="M55.9,151.5c0,4.2-11.5,7.5-25.6,7.5c-14.1,0-25.6-3.4-25.6-7.5c0-4.2,11.5-7.5,25.6-7.5
								C44.5,144,55.9,147.4,55.9,151.5z"/>
						</g>
					</g>
					<g>
						<g>
							<g>
								<path class="st3" d="M4.2,157.7C4,159.5,3.9,161.2,4,163c0,0.4,0.7,0.4,0.6,0c-0.1-1.8-0.1-3.5,0.2-5.3
									C4.9,157.3,4.3,157.3,4.2,157.7L4.2,157.7z"/>
							</g>
						</g>
						<g>
							<g>
								<path class="st3" d="M8.1,159.5c-0.2,1.6-0.3,3.3-0.2,4.9c0,0.4,0.7,0.4,0.6,0c-0.1-1.6,0-3.3,0.2-4.9
									c0-0.2-0.2-0.3-0.3-0.3C8.2,159.2,8.1,159.3,8.1,159.5L8.1,159.5z"/>
							</g>
						</g>
						<g>
							<g>
								<path class="st3" d="M11.7,160.9c0,1.4,0,2.7,0,4.1c0,0.4,0.6,0.4,0.6,0c0-1.4,0-2.7,0-4.1
									C12.4,160.4,11.7,160.4,11.7,160.9L11.7,160.9z"/>
							</g>
						</g>
						<g>
							<g>
								<path class="st3" d="M16.5,160.9c-0.1,1.6-0.2,3.3-0.3,4.9c0,0.4,0.6,0.4,0.6,0c0.1-1.6,0.2-3.3,0.3-4.9
									C17.1,160.5,16.5,160.5,16.5,160.9L16.5,160.9z"/>
							</g>
						</g>
						<g>
							<g>
								<path class="st3" d="M21.3,161.8c0,1.6,0,3.1,0,4.7c0,0.4,0.6,0.4,0.6,0c0-1.6,0-3.1,0-4.7C22,161.4,21.3,161.4,21.3,161.8
									L21.3,161.8z"/>
							</g>
						</g>
						<g>
							<g>
								<path class="st3" d="M25.2,162.2c0.1,1.4,0.2,2.9,0.3,4.3c0,0.4,0.7,0.4,0.6,0c-0.1-1.4-0.2-2.9-0.3-4.3
									C25.8,161.8,25.2,161.8,25.2,162.2L25.2,162.2z"/>
							</g>
						</g>
						<g>
							<g>
								<path class="st3" d="M29.4,162.4c0,1.5,0,3,0,4.5c0,0.4,0.6,0.4,0.6,0c0-1.5,0-3,0-4.5C30.1,162,29.4,162,29.4,162.4
									L29.4,162.4z"/>
							</g>
						</g>
						<g>
							<g>
								<path class="st3" d="M33.1,162.2c0,1.6,0,3.1,0,4.7c0,0.4,0.6,0.4,0.6,0c0-1.6,0-3.1,0-4.7
									C33.7,161.8,33.1,161.8,33.1,162.2L33.1,162.2z"/>
							</g>
						</g>
						<g>
							<g>
								<path class="st3" d="M37.1,162c0,1.6,0,3.1,0,4.7c0,0.4,0.6,0.4,0.6,0c0-1.6,0-3.1,0-4.7C37.7,161.6,37.1,161.6,37.1,162
									L37.1,162z"/>
							</g>
						</g>
						<g>
							<g>
								<path class="st3" d="M41.3,161.4c0.1,1.5,0.2,3,0.3,4.5c0,0.4,0.7,0.4,0.6,0c-0.1-1.5-0.2-3-0.3-4.5
									C42,161,41.3,161,41.3,161.4L41.3,161.4z"/>
							</g>
						</g>
						<g>
							<g>
								<path class="st3" d="M45.9,160.9c0,1.4,0,2.7,0,4.1c0,0.4,0.6,0.4,0.6,0c0-1.4,0-2.7,0-4.1
									C46.5,160.4,45.9,160.4,45.9,160.9L45.9,160.9z"/>
							</g>
						</g>
						<g>
							<g>
								<path class="st3" d="M50.1,160.5c0,1.4,0,2.9,0,4.3c0,0.4,0.6,0.4,0.6,0c0-1.4,0-2.9,0-4.3
									C50.8,160.1,50.1,160.1,50.1,160.5L50.1,160.5z"/>
							</g>
						</g>
						<g>
							<g>
								<path class="st3" d="M53.9,158.5c-0.1,1.7-0.1,3.4-0.2,5.1c0,0.4,0.6,0.4,0.6,0c0.1-1.7,0.1-3.4,0.2-5.1
									C54.6,158.1,53.9,158.1,53.9,158.5L53.9,158.5z"/>
							</g>
						</g>
						<g>
							<g>
								<path class="st3" d="M56.7,156.8c-0.1,1.7-0.1,3.4-0.2,5.1c0,0.4,0.6,0.4,0.6,0c0.1-1.7,0.1-3.4,0.2-5.1
									C57.3,156.4,56.7,156.4,56.7,156.8L56.7,156.8z"/>
							</g>
						</g>
					</g>
				</g>
			</g>
			<g>
				<path class="st4" d="M55.9,151.5c0,0.2,0,0.5-0.1,0.7c-1.2-3.8-12.1-6.8-25.5-6.8c-13.3,0-24.3,3-25.5,6.8
					c-0.1-0.2-0.1-0.5-0.1-0.7c0-4.2,11.5-7.5,25.6-7.5C44.5,144,55.9,147.4,55.9,151.5z"/>
			</g>
		</g>
	</g>
	<g>
		<g>
			<g>
				<g>
					<g>
						<g>
							<path class="st0" d="M57.1,143.7l-0.4,0.8c-4.7-4.1-15.9-6.7-26.4-6.7c-10.6,0-21.7,2.5-26.4,6.7l-0.3-0.9l-1.9-1.4l0,7.9
								c0,6.6,14.9,9.6,28.7,9.6c13.7,0,28.4-2.9,28.7-9.4l0,0l0-7.7L57.1,143.7z"/>
						</g>
						<g>
							<path class="st1" d="M30.3,152.2c-13.8,0-28.7-3-28.7-9.6c0-6.6,14.9-9.6,28.7-9.6c13.8,0,28.7,3,28.7,9.6
								C59,149.2,44.1,152.2,30.3,152.2z"/>
						</g>
						<g>
							<path class="st2" d="M55.9,142.2c0,4.2-11.5,7.5-25.6,7.5c-14.1,0-25.6-3.4-25.6-7.5c0-4.2,11.5-7.5,25.6-7.5
								C44.5,134.7,55.9,138.1,55.9,142.2z"/>
						</g>
					</g>
					<g>
						<g>
							<g>
								<path class="st3" d="M4.2,148.4C4,150.2,3.9,152,4,153.7c0,0.4,0.7,0.4,0.6,0c-0.1-1.8-0.1-3.5,0.2-5.3
									C4.9,148,4.3,148,4.2,148.4L4.2,148.4z"/>
							</g>
						</g>
						<g>
							<g>
								<path class="st3" d="M8.1,150.2c-0.2,1.6-0.3,3.3-0.2,4.9c0,0.4,0.7,0.4,0.6,0c-0.1-1.6,0-3.3,0.2-4.9
									c0-0.2-0.2-0.3-0.3-0.3C8.2,149.9,8.1,150,8.1,150.2L8.1,150.2z"/>
							</g>
						</g>
						<g>
							<g>
								<path class="st3" d="M11.7,151.6c0,1.4,0,2.7,0,4.1c0,0.4,0.6,0.4,0.6,0c0-1.4,0-2.7,0-4.1
									C12.4,151.2,11.7,151.2,11.7,151.6L11.7,151.6z"/>
							</g>
						</g>
						<g>
							<g>
								<path class="st3" d="M16.5,151.6c-0.1,1.6-0.2,3.3-0.3,4.9c0,0.4,0.6,0.4,0.6,0c0.1-1.6,0.2-3.3,0.3-4.9
									C17.1,151.2,16.5,151.2,16.5,151.6L16.5,151.6z"/>
							</g>
						</g>
						<g>
							<g>
								<path class="st3" d="M21.3,152.5c0,1.6,0,3.1,0,4.7c0,0.4,0.6,0.4,0.6,0c0-1.6,0-3.1,0-4.7C22,152.1,21.3,152.1,21.3,152.5
									L21.3,152.5z"/>
							</g>
						</g>
						<g>
							<g>
								<path class="st3" d="M25.2,152.9c0.1,1.4,0.2,2.9,0.3,4.3c0,0.4,0.7,0.4,0.6,0c-0.1-1.4-0.2-2.9-0.3-4.3
									C25.8,152.5,25.2,152.5,25.2,152.9L25.2,152.9z"/>
							</g>
						</g>
						<g>
							<g>
								<path class="st3" d="M29.4,153.1c0,1.5,0,3,0,4.5c0,0.4,0.6,0.4,0.6,0c0-1.5,0-3,0-4.5C30.1,152.7,29.4,152.7,29.4,153.1
									L29.4,153.1z"/>
							</g>
						</g>
						<g>
							<g>
								<path class="st3" d="M33.1,152.9c0,1.6,0,3.1,0,4.7c0,0.4,0.6,0.4,0.6,0c0-1.6,0-3.1,0-4.7
									C33.7,152.5,33.1,152.5,33.1,152.9L33.1,152.9z"/>
							</g>
						</g>
						<g>
							<g>
								<path class="st3" d="M37.1,152.7c0,1.6,0,3.1,0,4.7c0,0.4,0.6,0.4,0.6,0c0-1.6,0-3.1,0-4.7
									C37.7,152.3,37.1,152.3,37.1,152.7L37.1,152.7z"/>
							</g>
						</g>
						<g>
							<g>
								<path class="st3" d="M41.3,152.2c0.1,1.5,0.2,3,0.3,4.5c0,0.4,0.7,0.4,0.6,0c-0.1-1.5-0.2-3-0.3-4.5
									C42,151.7,41.3,151.7,41.3,152.2L41.3,152.2z"/>
							</g>
						</g>
						<g>
							<g>
								<path class="st3" d="M45.9,151.6c0,1.4,0,2.7,0,4.1c0,0.4,0.6,0.4,0.6,0c0-1.4,0-2.7,0-4.1
									C46.5,151.2,45.9,151.2,45.9,151.6L45.9,151.6z"/>
							</g>
						</g>
						<g>
							<g>
								<path class="st3" d="M50.1,151.2c0,1.4,0,2.9,0,4.3c0,0.4,0.6,0.4,0.6,0c0-1.4,0-2.9,0-4.3
									C50.8,150.8,50.1,150.8,50.1,151.2L50.1,151.2z"/>
							</g>
						</g>
						<g>
							<g>
								<path class="st3" d="M53.9,149.2c-0.1,1.7-0.1,3.4-0.2,5.1c0,0.4,0.6,0.4,0.6,0c0.1-1.7,0.1-3.4,0.2-5.1
									C54.6,148.8,53.9,148.8,53.9,149.2L53.9,149.2z"/>
							</g>
						</g>
						<g>
							<g>
								<path class="st3" d="M56.7,147.5c-0.1,1.7-0.1,3.4-0.2,5.1c0,0.4,0.6,0.4,0.6,0c0.1-1.7,0.1-3.4,0.2-5.1
									C57.3,147.1,56.7,147.1,56.7,147.5L56.7,147.5z"/>
							</g>
						</g>
					</g>
				</g>
			</g>
			<g>
				<path class="st4" d="M55.9,142.2c0,0.2,0,0.5-0.1,0.7c-1.2-3.8-12.1-6.8-25.5-6.8c-13.3,0-24.3,3-25.5,6.8
					c-0.1-0.2-0.1-0.5-0.1-0.7c0-4.2,11.5-7.5,25.6-7.5C44.5,134.7,55.9,138.1,55.9,142.2z"/>
			</g>
		</g>
	</g>
</g>
</svg>
