<?xml version="1.0" encoding="utf-8"?>
<!-- Generator: Adobe Illustrator 26.3.1, SVG Export Plug-In . SVG Version: 6.00 Build 0)  -->
<svg version="1.1" id="圖層_1" xmlns="http://www.w3.org/2000/svg" xmlns:xlink="http://www.w3.org/1999/xlink" x="0px" y="0px"
	 viewBox="0 0 378 300" style="enable-background:new 0 0 378 300;" xml:space="preserve">
<style type="text/css">
	.st0{fill-rule:evenodd;clip-rule:evenodd;fill:#EDE6CA;}
	.st1{fill-rule:evenodd;clip-rule:evenodd;fill:#EDE1B0;}
	.st2{fill-rule:evenodd;clip-rule:evenodd;fill:#FFFFFF;}
	.st3{fill-rule:evenodd;clip-rule:evenodd;fill:#F2B406;}
	.st4{fill-rule:evenodd;clip-rule:evenodd;fill:url(#SVGID_1_);}
</style>
<g>
	<path class="st0" d="M185.75,74.14c-26.94-3.35-40-7.73-45.77-8.79c-11.72-2.15-19.51-2.01-25.14-2.73
		c-4.14-0.54-5.66-16.97-0.57-17.39c8.18-0.7,21.33-3.3,37.48-4.26c12.59-0.75,28.45-1.94,46.93,2.3
		c21.73,4.99,29.86,8.67,29.85,15.77C228.55,68.15,211.57,77.35,185.75,74.14z"/>
	<path class="st1" d="M86.28,120.58c-8.82,8.6-14.19,22.51-18.83,24.53c-4.64,2-16.94-5.05-26.47-6.57
		c-3.69-0.59-11.96,4.66-20.21,7.93c-6.16,2.44-12.59,3.23-14.01,3.85c-3.53,1.55-7.94,7.17-6.49,10.55
		c4.08,9.45,20.85,8.77,26.41,7.33c2.68-0.69,10.28-7.42,12.03-8.97c2.09-1.85,14.3,10.59,23.2,14.69
		c8.35,3.84,18.25,11.78,28.25,13.05c12.15,1.55,26.7-4.44,34.02-12.03c12.66-13.14,5.28-31.17-3.6-37.11
		C110.48,131.04,92.27,114.74,86.28,120.58L86.28,120.58z"/>
	<path class="st1" d="M232.56,228.51c6.03,7.99,9.89,10.44,18.52,18.41c10.22,9.43,26.22,17.06,43.21,18.03
		c12.16,0.7,28.38-0.72,36.02-1.42c7.15-0.65,15.5,11.61,21.84,15.04c5.51,3,13.81,6.96,17.21,6.1c5.69-1.45,9.58-7.46,8.45-9.59
		c-2.56-4.78-14.13-9.01-18-11.56c-11.53-7.64-21.43-22.26-25.96-22.64c-5.39-0.46-17.23-2.35-21.37-7.01
		c-4.14-4.66-9.86-19.53-12.45-25.01c-11.26-23.95-40.51-14.41-50.55-12C247.06,197.45,223.7,216.74,232.56,228.51L232.56,228.51z"
		/>
	<path class="st2" d="M108.13,46.01c-3.99-0.9-9.99-2.55-15.1-2.32c-28.55,1.32-38.85,17.39-44.21,19
		c-4.03,1.21-5.51,1.19-7.68,3.84c-3.92,4.78-2.35,18.66,0.35,25.33c3.91,9.64,13.51,20.23,32.89,25.31
		c5.69,1.49,6.81,7.75,6.63,16.48c-0.18,8.73-6.65,14.32-8.54,15.81c-5.14,4.09-18.99-1.9-29.48-2.55
		c-4.08-0.25-12.32,6.77-20.81,11.51c-6.34,3.54-13.21,5.32-14.66,6.2c-3.61,2.19-7.67,8.97-5.53,12.38
		c4.66,7.41,23.89,6.53,29.73,4.17c2.81-1.13,11.55-8.87,14.09-9.24c5.38-0.77,15.23,5.92,24.98,10.4
		c9.55,4.39,21.51,10.18,32.54,10.12c7.66-0.04,15.8-2.85,22.67-6.99c32.37,28.37,35.45,30.96,75.15,41.99
		c3.02,0.84,23.61,5.29,29.58,8.6s4.8,4.48,9.61,9.99c10.02,11.46,26.55,20.64,44.94,23.69c13.16,2.18,30.98,2.53,39.39,2.66
		c7.85,0.12,15.52,14.44,22.02,18.94c5.65,3.9,14.22,9.2,18.02,8.65c6.36-0.9,11.31-7,10.33-9.45c-2.23-5.5-14.32-11.45-18.24-14.69
		c-11.67-9.67-20.74-25.75-25.63-26.69c-5.82-1.13-18.49-4.58-22.45-10.12c-3.51-4.92-8.05-17.41-7.6-22.56
		c0.21-2.41,1.44-7.8,3.39-14.1c2.01-6.51,0.22-12.67-2.39-18.85c-1.81-4.28,11.2-3.45,15.51-9.8c3.19-4.7,5.01-13.31-1.61-22.75
		c-3.52-5.03-10.44-12.42-24.74-9.98c-6.19,1.05-16.04,9.89-13.91,13.01c-12.92-18.86-57.29-11.32-77.36-17.57
		c-38.67-12.05-58.41-33.43-61.15-42.86c-1.32-4.52,1.87-12.42-0.09-22.42c-1.33-6.8-9.05-12.7-5.08-13.24
		c10.74-1.48,29.89-6.97,47.14-11.75c22.21-6.16,30.53-29.37,29.7-36.1c-1.17-9.54-7.74-12.17-24.89-8.38
		c-40.62,8.98-53.27,22.8-62.33,29.78C113.17,39.21,108.13,46.01,108.13,46.01z"/>
	<path class="st3" d="M74.76,67.62c3.08-1.28,6.05-0.18,6.91,2.73c0.55,1.86-0.12,4.42-3.2,5.71c-3.08,1.28-6.49-0.21-7.12-2.49
		C70.74,71.37,71.68,68.91,74.76,67.62L74.76,67.62z"/>
	
		<linearGradient id="SVGID_1_" gradientUnits="userSpaceOnUse" x1="114.2831" y1="217.7821" x2="173.6722" y2="248.8649" gradientTransform="matrix(0.9848 0.1736 0.1736 -0.9848 -20.8013 236.7745)">
		<stop  offset="0.1779" style="stop-color:#F2B406"/>
		<stop  offset="0.391" style="stop-color:#F3B809"/>
		<stop  offset="0.5912" style="stop-color:#F7C313"/>
		<stop  offset="0.7857" style="stop-color:#FED622"/>
		<stop  offset="0.8024" style="stop-color:#FFD824"/>
	</linearGradient>
	<path class="st4" d="M120.37,49.14c-2.34-3.58,22.14-20.74,48.13-31.68c14.08-5.92,24.33-7.1,25.49-3.41
		c0.9,2.88-3.39,12.91-15.98,21.76c-10.57,7.43-18.77,10.19-27.98,12.02C130.48,51.74,121.74,51.23,120.37,49.14z"/>
</g>
</svg>
