<?xml version="1.0" encoding="utf-8"?>
<!-- Generator: Adobe Illustrator 26.3.1, SVG Export Plug-In . SVG Version: 6.00 Build 0)  -->
<svg version="1.1" id="溯檜橫_1" xmlns="http://www.w3.org/2000/svg" xmlns:xlink="http://www.w3.org/1999/xlink" x="0px"
	 y="0px" viewBox="0 0 736 515" style="enable-background:new 0 0 736 515;" xml:space="preserve">
<style type="text/css">
	.st0{fill:#E5F7FE;}
	.st1{fill:#D2EFFA;}
</style>
<g>
	<path class="st0" d="M83.5,0H0c2.25,0.78,109.17,42.99,126.31,44.79c7.83,1.6,50.65,16.56,49.48,29.5
		c-2.22,13.06,3.95,26.87,10.34,37.72c9.79,16.61,52.39,45.44,94.13,24.96c6.78-3.32,22.47-15.77,22.96-16.15
		c-11.08,47.98,40.37,97.95,90.33,77.06c13.98,18.46,31.1,19.26,50.27,9.52c3.5,16.51,16.28,30.31,32.12,32.99
		c-5.73,16.29,4.47,23.84,15.21,31.63c-11.2,14.66-17.01,31.12-7.33,48.7c7.74,16.69,21.72,34.19,40.94,31.74
		c11.39,39.12,63.23,44.62,85.75,14.11c0,0,10.08,1.37,18.78-2.09c9.12-3.61,17.01-10.82,20.57-18.36
		c4.71,1.34,9.14,2.59,14.14,4.02c1.06,10.56,4.78,18.98,11.54,27.55c-22.33,12.62-10.72,35.42-10.72,35.42
		c-3.28,9.63-6.68,21.84-3.43,31.8c9.07,27.8,32.98,29.6,32.98,29.6c3.95,14.82,10.74,21.71,18.43,29.23
		c6.6,6.46,14.58,8.98,23.21,11.28V0H83.5z"/>
	<path class="st1" d="M210.62,0c-1.46,12.7,11.43,24.72,16.18,36.06c9.98,18.5,46.67,46.17,88.41,25.67
		c6.78-3.32,22.47-15.77,22.96-16.15c-11.08,47.98,40.37,97.95,90.33,77.06c13.98,18.47,31.1,19.26,50.27,9.52
		c3.5,16.51,16.28,30.32,32.12,32.99c-5.73,16.29,4.47,23.85,15.21,31.63c-11.2,14.67-17.01,31.12-7.33,48.7
		c7.74,16.7,21.73,34.2,40.94,31.74c11.39,39.12,63.23,44.63,85.75,14.12c0,0,10.08,1.37,18.78-2.1
		c9.12-3.61,17.01-10.82,20.57-18.36c4.71,1.34,9.14,2.59,14.14,4.02c1.06,10.56,4.78,18.98,11.54,27.55
		c-22.33,12.62-10.72,35.42-10.72,35.42c-3.28,9.63-6.68,21.84-3.43,31.8c9.07,27.81,32.98,29.6,32.98,29.6
		c1.73,6.51,4.02,11.49,6.68,15.66V0H210.62z"/>
</g>
</svg>
