<?xml version="1.0" encoding="utf-8"?>
<!-- Generator: Adobe Illustrator 26.3.1, SVG Export Plug-In . SVG Version: 6.00 Build 0)  -->
<svg version="1.1" id="Layer_3" xmlns="http://www.w3.org/2000/svg" xmlns:xlink="http://www.w3.org/1999/xlink" x="0px" y="0px"
	 viewBox="0 0 150 200" style="enable-background:new 0 0 150 200;" xml:space="preserve">
<style type="text/css">
	.st0{fill:#22467A;}
	.st1{fill:#375C93;}
	.st2{filter:url(#Adobe_OpacityMaskFilter);}
	.st3{filter:url(#Adobe_OpacityMaskFilter_00000003104638653991677660000011105748322290624952_);}
	.st4{mask:url(#SVGID_1_);fill:url(#SVGID_00000161594944577023155530000007702424964418016656_);}
	.st5{opacity:0.11;fill:url(#SVGID_00000167377619960428457370000015437130729830334354_);}
	.st6{fill:#F06698;}
	.st7{fill:#FFFFFF;}
	.st8{opacity:0.19;fill:#103451;}
	.st9{fill:#F5F5F5;}
	.st10{fill:#05BD6B;}
	.st11{fill:#D4D4D4;}
	.st12{clip-path:url(#SVGID_00000078032625631371278830000007319933320742315148_);}
	.st13{clip-path:url(#SVGID_00000183244757520016886110000005432208131476976319_);fill:#399EFF;}
	.st14{clip-path:url(#SVGID_00000078750211532429606260000018049670731187952830_);fill:#399EFF;}
</style>
<g>
	<g>
		<path class="st0" d="M137.63,200H50.75c-6.63,0-12-5.37-12-12V12c0-6.63,5.37-12,12-12h86.89c6.63,0,12,5.37,12,12v176
			C149.63,194.63,144.26,200,137.63,200z"/>
		<path class="st1" d="M136.45,194.59H51.93c-4.42,0-8-3.58-8-8V13.41c0-4.42,3.58-8,8-8h84.52c4.42,0,8,3.58,8,8v173.17
			C144.45,191,140.87,194.59,136.45,194.59z"/>
		<defs>
			<filter id="Adobe_OpacityMaskFilter" filterUnits="userSpaceOnUse" x="60.65" y="5.41" width="83.8" height="189.17">
				<feFlood  style="flood-color:white;flood-opacity:1" result="back"/>
				<feBlend  in="SourceGraphic" in2="back" mode="normal"/>
			</filter>
		</defs>
		<mask maskUnits="userSpaceOnUse" x="60.65" y="5.41" width="83.8" height="189.17" id="SVGID_1_">
			<g class="st2">
				<defs>
					
						<filter id="Adobe_OpacityMaskFilter_00000085964726124670086310000012193570340302310559_" filterUnits="userSpaceOnUse" x="60.65" y="5.41" width="83.8" height="189.17">
						<feFlood  style="flood-color:white;flood-opacity:1" result="back"/>
						<feBlend  in="SourceGraphic" in2="back" mode="normal"/>
					</filter>
				</defs>
				<mask maskUnits="userSpaceOnUse" x="60.65" y="5.41" width="83.8" height="189.17" id="SVGID_1_">
					<g style="filter:url(#Adobe_OpacityMaskFilter_00000085964726124670086310000012193570340302310559_);">
					</g>
				</mask>
				
					<linearGradient id="SVGID_00000042733428103807909640000013410599379995582132_" gradientUnits="userSpaceOnUse" x1="137.7681" y1="46.2173" x2="97.1893" y2="217.1552">
					<stop  offset="0" style="stop-color:#FFFFFF"/>
					<stop  offset="1" style="stop-color:#000000"/>
				</linearGradient>
				<polygon style="mask:url(#SVGID_1_);fill:url(#SVGID_00000042733428103807909640000013410599379995582132_);" points="
					144.45,194.59 60.65,194.59 126.15,5.41 144.45,5.41 				"/>
			</g>
		</mask>
		
			<linearGradient id="SVGID_00000173161356595543073130000014847124114351351697_" gradientUnits="userSpaceOnUse" x1="136.6753" y1="47.2931" x2="96.4216" y2="216.8617">
			<stop  offset="0" style="stop-color:#FFFFFF"/>
			<stop  offset="1" style="stop-color:#FFFFFF"/>
		</linearGradient>
		<path style="opacity:0.11;fill:url(#SVGID_00000173161356595543073130000014847124114351351697_);" d="M136.45,194.59h-75.8
			L126.15,5.41h10.3c4.42,0,8,3.58,8,8v173.17C144.45,191,140.87,194.59,136.45,194.59z"/>
		<g>
			<line class="st6" x1="70.94" y1="187.08" x2="117.44" y2="187.08"/>
			<path class="st7" d="M117.44,188.07H70.94c-0.55,0-1-0.45-1-1c0-0.55,0.45-1,1-1h46.51c0.55,0,1,0.45,1,1
				C118.44,187.63,117.99,188.07,117.44,188.07z"/>
		</g>
	</g>
	<g>
		<g>
			<g>
				<path class="st8" d="M20.18,184.51l92.03-12.86c2.19-0.31,3.71-2.33,3.41-4.51l-15.26-109.2c-0.31-2.19-2.33-3.71-4.51-3.41
					L3.81,67.38c-2.19,0.31-3.71,2.33-3.41,4.51l15.26,109.2C15.97,183.29,17.99,184.81,20.18,184.51z"/>
				<path class="st9" d="M26.87,175.83l92.03-12.86c2.19-0.31,3.71-2.33,3.41-4.51l-15.26-109.2c-0.31-2.19-2.33-3.71-4.51-3.41
					L10.5,58.71c-2.19,0.31-3.71,2.33-3.41,4.51l15.26,109.2C22.66,174.61,24.68,176.14,26.87,175.83z"/>
			</g>
		</g>
		<g>
			<g>
				<path class="st8" d="M25.9,161.94h92.94c2.21,0,3.99-1.79,3.99-3.99V43.67L21.91,57.33v100.61
					C21.91,160.15,23.7,161.94,25.9,161.94z"/>
				<path class="st7" d="M33.73,155.28h92.93c2.21,0,4-1.79,4-4V34.57c0-2.21-1.79-4-4-4H33.73c-2.21,0-4,1.79-4,4v116.71
					C29.73,153.49,31.53,155.28,33.73,155.28z"/>
			</g>
			<g>
				<g>
					<path class="st10" d="M50.06,105.89l-5.25-5.25c-0.75-0.75-0.75-1.98,0-2.73l0,0c0.75-0.75,1.98-0.75,2.73,0l3.06,3.06
						c0.39,0.39,1.02,0.36,1.38-0.05l7.06-8.16c0.7-0.81,1.92-0.89,2.72-0.2l0,0c0.81,0.7,0.89,1.92,0.2,2.72l-9.08,10.49
						C52.15,106.63,50.85,106.68,50.06,105.89z"/>
					<g>
						<path class="st11" d="M113.46,97.7H70.61c-1.07,0-1.93-0.86-1.93-1.93l0,0c0-1.07,0.86-1.93,1.93-1.93h42.85
							c1.07,0,1.93,0.86,1.93,1.93l0,0C115.39,96.83,114.52,97.7,113.46,97.7z"/>
						<path class="st11" d="M99.74,104.79H70.61c-1.07,0-1.93-0.86-1.93-1.93v0c0-1.07,0.86-1.93,1.93-1.93h29.13
							c1.07,0,1.93,0.86,1.93,1.93v0C101.67,103.92,100.8,104.79,99.74,104.79z"/>
					</g>
				</g>
				<g>
					<path class="st10" d="M50.06,135.9l-5.25-5.25c-0.75-0.75-0.75-1.98,0-2.73h0c0.75-0.75,1.98-0.75,2.73,0l3.06,3.06
						c0.39,0.39,1.02,0.36,1.38-0.05l7.05-8.15c0.7-0.81,1.92-0.89,2.72-0.2l0,0c0.81,0.7,0.89,1.92,0.2,2.72l-9.08,10.49
						C52.15,136.64,50.85,136.69,50.06,135.9z"/>
					<g>
						<path class="st11" d="M113.46,127.71H70.61c-1.07,0-1.93-0.86-1.93-1.93v0c0-1.07,0.86-1.93,1.93-1.93h42.85
							c1.07,0,1.93,0.86,1.93,1.93v0C115.39,126.84,114.52,127.71,113.46,127.71z"/>
						<path class="st11" d="M105.17,134.8H70.61c-1.07,0-1.93-0.86-1.93-1.93v0c0-1.07,0.86-1.93,1.93-1.93h34.55
							c1.07,0,1.93,0.86,1.93,1.93v0C107.1,133.94,106.23,134.8,105.17,134.8z"/>
					</g>
				</g>
				<g>
					<defs>
						<circle id="SVGID_00000139983299965908370750000013470960442174587018_" cx="58.01" cy="59.91" r="17.47"/>
					</defs>
					<use xlink:href="#SVGID_00000139983299965908370750000013470960442174587018_"  style="overflow:visible;fill:#E6F1FF;"/>
					<clipPath id="SVGID_00000070816103670817001530000011236714710049233047_">
						<use xlink:href="#SVGID_00000139983299965908370750000013470960442174587018_"  style="overflow:visible;"/>
					</clipPath>
					<g style="clip-path:url(#SVGID_00000070816103670817001530000011236714710049233047_);">
						<g>
							<g>
								<defs>
									<ellipse id="SVGID_00000012447868364097862540000002034782760405494973_" cx="58.01" cy="81.58" rx="16.99" ry="18.04"/>
								</defs>
								<use xlink:href="#SVGID_00000012447868364097862540000002034782760405494973_"  style="overflow:visible;fill:#399EFF;"/>
								<clipPath id="SVGID_00000109733160649596650460000007830136260832116864_">
									<use xlink:href="#SVGID_00000012447868364097862540000002034782760405494973_"  style="overflow:visible;"/>
								</clipPath>
								<polygon style="clip-path:url(#SVGID_00000109733160649596650460000007830136260832116864_);fill:#399EFF;" points="
									42.95,63.54 41.02,63.57 41.02,63.54 								"/>
								<polygon style="clip-path:url(#SVGID_00000109733160649596650460000007830136260832116864_);fill:#399EFF;" points="
									63.71,63.54 41.02,63.93 41.02,63.57 42.95,63.54 								"/>
								<polygon style="clip-path:url(#SVGID_00000109733160649596650460000007830136260832116864_);fill:#399EFF;" points="
									75,63.7 41.02,64.28 41.02,63.93 63.71,63.54 75,63.54 								"/>
								<polygon style="clip-path:url(#SVGID_00000109733160649596650460000007830136260832116864_);fill:#399EFF;" points="
									75,64.06 41.02,64.64 41.02,64.28 75,63.7 								"/>
								<polygon style="clip-path:url(#SVGID_00000109733160649596650460000007830136260832116864_);fill:#399EFF;" points="
									75,64.41 41.02,65 41.02,64.64 75,64.06 								"/>
								<polygon style="clip-path:url(#SVGID_00000109733160649596650460000007830136260832116864_);fill:#399EFF;" points="
									75,64.77 41.02,65.35 41.02,65 75,64.41 								"/>
								<polygon style="clip-path:url(#SVGID_00000109733160649596650460000007830136260832116864_);fill:#399EFF;" points="
									75,65.13 41.02,65.71 41.02,65.35 75,64.77 								"/>
								<polygon style="clip-path:url(#SVGID_00000109733160649596650460000007830136260832116864_);fill:#399EFF;" points="
									75,65.48 41.02,66.07 41.02,65.71 75,65.13 								"/>
								<polygon style="clip-path:url(#SVGID_00000109733160649596650460000007830136260832116864_);fill:#399EFF;" points="
									75,65.84 41.02,66.42 41.02,66.07 75,65.48 								"/>
								<polygon style="clip-path:url(#SVGID_00000109733160649596650460000007830136260832116864_);fill:#399EFF;" points="
									75,66.19 41.02,66.78 41.02,66.42 75,65.84 								"/>
								<polygon style="clip-path:url(#SVGID_00000109733160649596650460000007830136260832116864_);fill:#399EFF;" points="
									75,66.55 41.02,67.13 41.02,66.78 75,66.19 								"/>
								<polygon style="clip-path:url(#SVGID_00000109733160649596650460000007830136260832116864_);fill:#399EFF;" points="
									75,66.91 41.02,67.49 41.02,67.13 75,66.55 								"/>
								<polygon style="clip-path:url(#SVGID_00000109733160649596650460000007830136260832116864_);fill:#399EFF;" points="
									75,67.26 41.02,67.85 41.02,67.49 75,66.91 								"/>
								<polygon style="clip-path:url(#SVGID_00000109733160649596650460000007830136260832116864_);fill:#399EFF;" points="
									75,67.62 41.02,68.2 41.02,67.85 75,67.26 								"/>
								<polygon style="clip-path:url(#SVGID_00000109733160649596650460000007830136260832116864_);fill:#399EFF;" points="
									75,67.98 41.02,68.56 41.02,68.2 75,67.62 								"/>
								<polygon style="clip-path:url(#SVGID_00000109733160649596650460000007830136260832116864_);fill:#399EFF;" points="
									75,68.33 41.02,68.92 41.02,68.56 75,67.98 								"/>
								<polygon style="clip-path:url(#SVGID_00000109733160649596650460000007830136260832116864_);fill:#399EFF;" points="
									75,68.69 41.02,69.27 41.02,68.92 75,68.33 								"/>
								<polygon style="clip-path:url(#SVGID_00000109733160649596650460000007830136260832116864_);fill:#399EFF;" points="
									75,69.05 41.02,69.63 41.02,69.27 75,68.69 								"/>
								<polygon style="clip-path:url(#SVGID_00000109733160649596650460000007830136260832116864_);fill:#399EFF;" points="
									75,69.4 41.02,69.99 41.02,69.63 75,69.05 								"/>
								<polygon style="clip-path:url(#SVGID_00000109733160649596650460000007830136260832116864_);fill:#399EFF;" points="
									75,69.76 41.02,70.34 41.02,69.99 75,69.4 								"/>
								<polygon style="clip-path:url(#SVGID_00000109733160649596650460000007830136260832116864_);fill:#399EFF;" points="
									75,70.11 41.02,70.7 41.02,70.34 75,69.76 								"/>
								<polygon style="clip-path:url(#SVGID_00000109733160649596650460000007830136260832116864_);fill:#399EFF;" points="
									75,70.47 41.02,71.05 41.02,70.7 75,70.11 								"/>
								<polygon style="clip-path:url(#SVGID_00000109733160649596650460000007830136260832116864_);fill:#399EFF;" points="
									75,70.83 41.02,71.41 41.02,71.05 75,70.47 								"/>
								<polygon style="clip-path:url(#SVGID_00000109733160649596650460000007830136260832116864_);fill:#399EFF;" points="
									75,71.18 41.02,71.77 41.02,71.41 75,70.83 								"/>
								<polygon style="clip-path:url(#SVGID_00000109733160649596650460000007830136260832116864_);fill:#399EFF;" points="
									75,71.54 41.02,72.12 41.02,71.77 75,71.18 								"/>
								<polygon style="clip-path:url(#SVGID_00000109733160649596650460000007830136260832116864_);fill:#399EFF;" points="
									75,71.9 41.02,72.48 41.02,72.12 75,71.54 								"/>
								<polygon style="clip-path:url(#SVGID_00000109733160649596650460000007830136260832116864_);fill:#399EFF;" points="
									75,72.25 41.02,72.84 41.02,72.48 75,71.9 								"/>
								<polygon style="clip-path:url(#SVGID_00000109733160649596650460000007830136260832116864_);fill:#399EFF;" points="
									75,72.61 41.02,73.19 41.02,72.84 75,72.25 								"/>
								<polygon style="clip-path:url(#SVGID_00000109733160649596650460000007830136260832116864_);fill:#399EFF;" points="
									75,72.97 41.02,73.55 41.02,73.19 75,72.61 								"/>
								<polygon style="clip-path:url(#SVGID_00000109733160649596650460000007830136260832116864_);fill:#399EFF;" points="
									75,73.32 41.02,73.91 41.02,73.55 75,72.97 								"/>
								<polygon style="clip-path:url(#SVGID_00000109733160649596650460000007830136260832116864_);fill:#399EFF;" points="
									75,73.68 41.02,74.26 41.02,73.91 75,73.32 								"/>
								<polygon style="clip-path:url(#SVGID_00000109733160649596650460000007830136260832116864_);fill:#399EFF;" points="
									75,74.03 41.02,74.62 41.02,74.26 75,73.68 								"/>
								<polygon style="clip-path:url(#SVGID_00000109733160649596650460000007830136260832116864_);fill:#399EFF;" points="
									75,74.39 41.02,74.97 41.02,74.62 75,74.03 								"/>
								<polygon style="clip-path:url(#SVGID_00000109733160649596650460000007830136260832116864_);fill:#399EFF;" points="
									75,74.75 41.02,75.33 41.02,74.97 75,74.39 								"/>
								<polygon style="clip-path:url(#SVGID_00000109733160649596650460000007830136260832116864_);fill:#399EFF;" points="
									75,75.1 41.02,75.69 41.02,75.33 75,74.75 								"/>
								<polygon style="clip-path:url(#SVGID_00000109733160649596650460000007830136260832116864_);fill:#399EFF;" points="
									75,75.46 41.02,76.04 41.02,75.69 75,75.1 								"/>
								<polygon style="clip-path:url(#SVGID_00000109733160649596650460000007830136260832116864_);fill:#399EFF;" points="
									75,75.82 41.02,76.4 41.02,76.04 75,75.46 								"/>
								<polygon style="clip-path:url(#SVGID_00000109733160649596650460000007830136260832116864_);fill:#399EFF;" points="
									75,76.17 41.02,76.76 41.02,76.4 75,75.82 								"/>
								<polygon style="clip-path:url(#SVGID_00000109733160649596650460000007830136260832116864_);fill:#399EFF;" points="
									75,76.53 41.02,77.11 41.02,76.76 75,76.17 								"/>
								<polygon style="clip-path:url(#SVGID_00000109733160649596650460000007830136260832116864_);fill:#399EFF;" points="
									75,76.89 41.02,77.47 41.02,77.11 75,76.53 								"/>
								<polygon style="clip-path:url(#SVGID_00000109733160649596650460000007830136260832116864_);fill:#399EFF;" points="
									75,77.24 41.02,77.82 41.02,77.47 75,76.89 								"/>
								<polygon style="clip-path:url(#SVGID_00000109733160649596650460000007830136260832116864_);fill:#399EFF;" points="
									75,77.6 41.02,78.18 41.02,77.82 75,77.24 								"/>
								<polygon style="clip-path:url(#SVGID_00000109733160649596650460000007830136260832116864_);fill:#399EFF;" points="
									75,77.95 41.02,78.54 41.02,78.18 75,77.6 								"/>
								<polygon style="clip-path:url(#SVGID_00000109733160649596650460000007830136260832116864_);fill:#399EFF;" points="
									75,78.31 41.02,78.89 41.02,78.54 75,77.95 								"/>
								<polygon style="clip-path:url(#SVGID_00000109733160649596650460000007830136260832116864_);fill:#399EFF;" points="
									75,78.67 41.02,79.25 41.02,78.89 75,78.31 								"/>
								<polygon style="clip-path:url(#SVGID_00000109733160649596650460000007830136260832116864_);fill:#399EFF;" points="
									75,79.02 41.02,79.61 41.02,79.25 75,78.67 								"/>
								<polygon style="clip-path:url(#SVGID_00000109733160649596650460000007830136260832116864_);fill:#399EFF;" points="
									75,79.38 41.02,79.96 41.02,79.61 75,79.02 								"/>
								<polygon style="clip-path:url(#SVGID_00000109733160649596650460000007830136260832116864_);fill:#399EFF;" points="
									41.02,79.96 75,79.38 75,99.61 41.02,99.61 								"/>
							</g>
						</g>
						<g>
							<g>
								<defs>
									<circle id="SVGID_00000074432898948961818830000003884774556634853303_" cx="57.81" cy="57.14" r="5.19"/>
								</defs>
								<use xlink:href="#SVGID_00000074432898948961818830000003884774556634853303_"  style="overflow:visible;fill:#399EFF;"/>
								<clipPath id="SVGID_00000069390418324935540170000008239439484470453379_">
									<use xlink:href="#SVGID_00000074432898948961818830000003884774556634853303_"  style="overflow:visible;"/>
								</clipPath>
								<polygon style="clip-path:url(#SVGID_00000069390418324935540170000008239439484470453379_);fill:#399EFF;" points="
									54.19,51.94 52.62,51.97 52.62,51.94 								"/>
								<polygon style="clip-path:url(#SVGID_00000069390418324935540170000008239439484470453379_);fill:#399EFF;" points="
									63,52.15 52.62,52.33 52.62,51.97 54.19,51.94 63,51.94 								"/>
								<polygon style="clip-path:url(#SVGID_00000069390418324935540170000008239439484470453379_);fill:#399EFF;" points="
									63,52.5 52.62,52.68 52.62,52.33 63,52.15 								"/>
								<polygon style="clip-path:url(#SVGID_00000069390418324935540170000008239439484470453379_);fill:#399EFF;" points="
									63,52.86 52.62,53.04 52.62,52.68 63,52.5 								"/>
								<polygon style="clip-path:url(#SVGID_00000069390418324935540170000008239439484470453379_);fill:#399EFF;" points="
									63,53.22 52.62,53.39 52.62,53.04 63,52.86 								"/>
								<polygon style="clip-path:url(#SVGID_00000069390418324935540170000008239439484470453379_);fill:#399EFF;" points="
									63,53.57 52.62,53.75 52.62,53.39 63,53.22 								"/>
								<polygon style="clip-path:url(#SVGID_00000069390418324935540170000008239439484470453379_);fill:#399EFF;" points="
									63,53.93 52.62,54.11 52.62,53.75 63,53.57 								"/>
								<polygon style="clip-path:url(#SVGID_00000069390418324935540170000008239439484470453379_);fill:#399EFF;" points="
									63,54.29 52.62,54.46 52.62,54.11 63,53.93 								"/>
								<polygon style="clip-path:url(#SVGID_00000069390418324935540170000008239439484470453379_);fill:#399EFF;" points="
									63,54.64 52.62,54.82 52.62,54.46 63,54.29 								"/>
								<polygon style="clip-path:url(#SVGID_00000069390418324935540170000008239439484470453379_);fill:#399EFF;" points="63,55 
									52.62,55.18 52.62,54.82 63,54.64 								"/>
								<polygon style="clip-path:url(#SVGID_00000069390418324935540170000008239439484470453379_);fill:#399EFF;" points="
									63,55.35 52.62,55.53 52.62,55.18 63,55 								"/>
								<polygon style="clip-path:url(#SVGID_00000069390418324935540170000008239439484470453379_);fill:#399EFF;" points="
									63,55.71 52.62,55.89 52.62,55.53 63,55.35 								"/>
								<polygon style="clip-path:url(#SVGID_00000069390418324935540170000008239439484470453379_);fill:#399EFF;" points="
									63,56.07 52.62,56.25 52.62,55.89 63,55.71 								"/>
								<polygon style="clip-path:url(#SVGID_00000069390418324935540170000008239439484470453379_);fill:#399EFF;" points="
									63,56.42 52.62,56.6 52.62,56.25 63,56.07 								"/>
								<polygon style="clip-path:url(#SVGID_00000069390418324935540170000008239439484470453379_);fill:#399EFF;" points="
									63,56.78 52.62,56.96 52.62,56.6 63,56.42 								"/>
								<polygon style="clip-path:url(#SVGID_00000069390418324935540170000008239439484470453379_);fill:#399EFF;" points="
									63,57.14 52.62,57.31 52.62,56.96 63,56.78 								"/>
								<polygon style="clip-path:url(#SVGID_00000069390418324935540170000008239439484470453379_);fill:#399EFF;" points="
									63,57.49 52.62,57.67 52.62,57.31 63,57.14 								"/>
								<polygon style="clip-path:url(#SVGID_00000069390418324935540170000008239439484470453379_);fill:#399EFF;" points="
									63,57.85 52.62,58.03 52.62,57.67 63,57.49 								"/>
								<polygon style="clip-path:url(#SVGID_00000069390418324935540170000008239439484470453379_);fill:#399EFF;" points="
									63,58.2 52.62,58.38 52.62,58.03 63,57.85 								"/>
								<polygon style="clip-path:url(#SVGID_00000069390418324935540170000008239439484470453379_);fill:#399EFF;" points="
									63,58.56 52.62,58.74 52.62,58.38 63,58.2 								"/>
								<polygon style="clip-path:url(#SVGID_00000069390418324935540170000008239439484470453379_);fill:#399EFF;" points="
									63,58.92 52.62,59.1 52.62,58.74 63,58.56 								"/>
								<polygon style="clip-path:url(#SVGID_00000069390418324935540170000008239439484470453379_);fill:#399EFF;" points="
									63,59.27 52.62,59.45 52.62,59.1 63,58.92 								"/>
								<polygon style="clip-path:url(#SVGID_00000069390418324935540170000008239439484470453379_);fill:#399EFF;" points="
									63,59.63 52.62,59.81 52.62,59.45 63,59.27 								"/>
								<polygon style="clip-path:url(#SVGID_00000069390418324935540170000008239439484470453379_);fill:#399EFF;" points="
									63,59.99 52.62,60.16 52.62,59.81 63,59.63 								"/>
								<polygon style="clip-path:url(#SVGID_00000069390418324935540170000008239439484470453379_);fill:#399EFF;" points="
									63,60.34 52.62,60.52 52.62,60.16 63,59.99 								"/>
								<polygon style="clip-path:url(#SVGID_00000069390418324935540170000008239439484470453379_);fill:#399EFF;" points="
									63,60.7 52.62,60.88 52.62,60.52 63,60.34 								"/>
								<polygon style="clip-path:url(#SVGID_00000069390418324935540170000008239439484470453379_);fill:#399EFF;" points="
									63,61.06 52.62,61.23 52.62,60.88 63,60.7 								"/>
								<polygon style="clip-path:url(#SVGID_00000069390418324935540170000008239439484470453379_);fill:#399EFF;" points="
									63,61.41 52.62,61.59 52.62,61.23 63,61.06 								"/>
								<polygon style="clip-path:url(#SVGID_00000069390418324935540170000008239439484470453379_);fill:#399EFF;" points="
									63,61.77 52.62,61.95 52.62,61.59 63,61.41 								"/>
								<polygon style="clip-path:url(#SVGID_00000069390418324935540170000008239439484470453379_);fill:#399EFF;" points="
									63,62.12 52.62,62.3 52.62,61.95 63,61.77 								"/>
								<polygon style="clip-path:url(#SVGID_00000069390418324935540170000008239439484470453379_);fill:#399EFF;" points="
									52.62,62.3 63,62.12 63,62.33 52.62,62.33 								"/>
							</g>
						</g>
					</g>
				</g>
			</g>
		</g>
	</g>
</g>
</svg>
