<?xml version="1.0" encoding="utf-8"?>
<!-- Generator: Adobe Illustrator 26.3.1, SVG Export Plug-In . SVG Version: 6.00 Build 0)  -->
<svg version="1.1" id="圖層_1" xmlns="http://www.w3.org/2000/svg" xmlns:xlink="http://www.w3.org/1999/xlink" x="0px" y="0px"
	 viewBox="0 0 202 328" style="enable-background:new 0 0 202 328;" xml:space="preserve">
<style type="text/css">
	.st0{fill:#EDE1B0;}
	.st1{fill-rule:evenodd;clip-rule:evenodd;fill:#EDE6CA;}
	.st2{fill:#FFFFFF;}
	.st3{fill-rule:evenodd;clip-rule:evenodd;fill:#F2B406;}
	.st4{fill-rule:evenodd;clip-rule:evenodd;fill:url(#SVGID_1_);}
</style>
<g>
	<path class="st0" d="M125.4,224.79c-3.66-4.31-20.69-7.84-47.02,6.65c-23.23,12.79-27.82,20.63-27.82,34.2
		c0,13.57,10.39,39.12,19.46,37.7c12.87-2.02,58.7,13.38,67.73,8.7c5.29-2.74,7.3-3.87,7.05-8.57c-0.27-5.04-7.29-8.74-15.22-9.13
		c-9-0.45-13.1-0.77-17.28-2.85c-4.18-2.09,18.98-15.94,23.68-21.29C150.63,253.53,129.06,229.1,125.4,224.79z"/>
	<path class="st0" d="M134.54,227.84c-3.76-22.88-4.88-39.76,19.53-63.02c24.42-23.26,24.9,24.34,24.9,24.34
		c1.67,15.74,2.07,31.44,0.47,47.23c-0.41,4.1-0.96,17.55,1.1,31.69c1.42,9.73,2.13,14.6,5.18,18.84c0.68,0.94,2.78,3.7,3.94,7.86
		c0.62,2.24,1.35,5.03,0,7.86c-0.2,0.41-1.33,2.71-3.94,3.93c-3.2,1.51-10.14-1.74-10.83-1.97c-6.95-2.34-6.58-9.35-12.23-28.45
		c-0.82-2.75-1.51-5.59-4.16-8.5C158.5,267.64,138.3,250.72,134.54,227.84z"/>
	<path class="st1" d="M46.89,37.08c22.44,18.25,33.8,18.23,42.82,22.86c10.15,5.21,14.68,6.44,19.46,9.01
		c3.52,1.89,16.01-11.2,12.26-14.37c-6.02-5.09-28.77-32.84-53.26-44.83C50.67,1.19,35.93-2.74,32.68,2.1
		C28.33,8.58,38.64,30.37,46.89,37.08z"/>
	<g>
		<path class="st2" d="M108.23,59.96c-2.11,3.45-4.88,1.8-7.18,1.57c-18.12-1.76-35.47-2.2-54.22,0.01
			c-12.94,1.53-21.03,4.2-34.88,10.77c-7.84,3.72-12.57,7.86-11.4,13.51c1.17,5.65,28.65,16.45,51.3,15.25
			c22.65-1.2,38.4-9.51,53.34-15.41c1.18,12.54-3.76,22.1-10.84,31.71c-9.53,12.93-20,24.51-33.06,33.88
			c-29.18,20.43-42.24,56.17-44.3,76.85c-2.5,25.06,2.56,37.74-0.41,37.19c-7.84-1.44-17.88,10.48-16.46,18.92
			c3,17.88,10.97,19.44,20.01,18.38c1.94-0.23,4.07,0.75,5.48,1.9c1.82,1.48,2.55,3.76,2.1,6.41c-0.85,4.94,1.37,7.71,6.43,8.24
			c3.36,0.35,6.76,0.68,10.12,0.53c18.12-0.85,36.15,0.6,54.21,1.87c7.47,0.52,14.4,2.84,21.35,5.17
			c5.38,1.81,10.46,1.82,15.54-0.79c4.31-2.23,5.16-4.85,2.87-9.23c-1.64-3.14-4.18-5.19-7.49-6.43c-4.28-1.6-8.44-3.53-12.77-4.97
			c-3.42-1.13-3.07-2.36-0.71-4.28c3.36-2.73,16.89-13.26,19.39-19.1c3,8.73,3.97,13.17,8.15,20.13
			c4.21,6.99,2.84,12.25,10.69,15.91c3.4,1.58,12.2,2.92,15.37,1.22c3.69-1.97,5.07-4.66,3.44-8.83c-1.31-3.38-3.07-6.46-5.24-9.3
			c-6.89-8.98-8.44-19.35-8.57-31.19c0.02,1.52,11.75-19.84,15.72-31.95c4.49-13.72,7.37-33.52,5.64-49.95
			c-1.8-17-4.4-33.81-8.67-50.4c-2.02-7.84,1.06-15.31,5.88-21.07c13.02-15.52,22.85-25.31,22.93-45.24
			c0.03-7.88-3.32-17.87-5.94-22.12c-2.79-4.53-7.21-6.19-12.39-4.87c-5.77,1.47-11.18,0.86-16.94-0.67
			C136.09,35.43,110.51,49.21,108.23,59.96z"/>
	</g>
	<path class="st3" d="M159.08,57.4c-3.14,0.94-4.75,3.55-3.66,6.17c0.7,1.69,2.76,3.14,5.9,2.21c3.14-0.94,4.86-4.09,3.97-6.13
		C164.44,57.69,162.23,56.47,159.08,57.4L159.08,57.4z"/>
	
		<linearGradient id="SVGID_1_" gradientUnits="userSpaceOnUse" x1="20.4764" y1="247.0644" x2="101.9804" y2="247.0644" gradientTransform="matrix(1 0 0 -1 0 328)">
		<stop  offset="0.1976" style="stop-color:#FFD824"/>
		<stop  offset="0.2143" style="stop-color:#FED622"/>
		<stop  offset="0.4088" style="stop-color:#F7C313"/>
		<stop  offset="0.609" style="stop-color:#F3B809"/>
		<stop  offset="0.8221" style="stop-color:#F2B406"/>
	</linearGradient>
	<path class="st4" d="M101.98,73.61c0.13-4.29-29.83-6.16-57.82-1.92C29,73.99,19.59,78.34,20.54,82.12
		c0.74,2.93,9.67,9.28,25.09,10.26c12.95,0.82,21.41-1.11,30.27-4.35C94.69,81.14,101.91,76.12,101.98,73.61z"/>
</g>
</svg>
