<?xml version="1.0" encoding="utf-8"?>
<!-- Generator: Adobe Illustrator 26.3.1, SVG Export Plug-In . SVG Version: 6.00 Build 0)  -->
<svg version="1.1" id="分離模式" xmlns="http://www.w3.org/2000/svg" xmlns:xlink="http://www.w3.org/1999/xlink" x="0px"
	 y="0px" viewBox="0 0 154 94" style="enable-background:new 0 0 154 94;" xml:space="preserve">
<style type="text/css">
	.st0{fill:#FFC239;}
	.st1{fill:#FEE597;}
	.st2{fill:#FFC545;}
	.st3{fill:#FFD567;}
	.st4{fill:#FFAE28;}
</style>
<g>
	<g>
		<g>
			<g>
				<g>
					<g>
						<path class="st0" d="M12.28,14.89l0.19,2.41c15.66-5.93,46.11-1.65,72.6,8.4c26.5,10.05,52.13,27.03,59.92,41.85l1.67-1.82
							l6.19-1.8l-7.51,19.81c-6.26,16.52-46.4,9.9-81.05-3.24C29.94,67.48-4.19,46.07,1.33,29.61l-0.01-0.01l7.33-19.34L12.28,14.89
							z"/>
					</g>
					<g>
						<path class="st1" d="M71.47,61.58c34.65,13.14,74.79,19.75,81.05,3.24c6.26-16.52-28.18-38.18-62.82-51.31
							C55.05,0.36,14.91-6.25,8.65,10.26C2.39,26.78,36.82,48.44,71.47,61.58z"/>
					</g>
					<g>
						<path class="st2" d="M16.73,12.31c-3.95,10.42,21.58,29.77,57.04,43.21c35.45,13.44,67.39,15.89,71.34,5.47
							c3.95-10.42-21.58-29.77-57.04-43.21C52.62,4.34,20.68,1.89,16.73,12.31z"/>
					</g>
				</g>
				<g>
					<g>
						<g>
							<path class="st3" d="M140.52,77.02c-1.12,4.61-2.67,9.1-4.61,13.43c-0.45,1-2.06,0.4-1.6-0.61
								c1.95-4.33,3.49-8.82,4.61-13.43C139.18,75.35,140.78,75.96,140.52,77.02L140.52,77.02z"/>
						</g>
					</g>
					<g>
						<g>
							<path class="st3" d="M129.18,77.78c-1.01,4.28-2.41,8.44-4.21,12.45c-0.45,1-2.06,0.4-1.6-0.61
								c1.79-4.01,3.2-8.18,4.21-12.46c0.11-0.45,0.71-0.64,1.11-0.5C129.17,76.85,129.29,77.33,129.18,77.78L129.18,77.78z"/>
						</g>
					</g>
					<g>
						<g>
							<path class="st3" d="M118.72,77.76c-1.3,3.44-2.61,6.88-3.91,10.31c-0.39,1.03-2,0.43-1.6-0.61
								c1.3-3.44,2.61-6.88,3.91-10.32C117.51,76.12,119.11,76.72,118.72,77.76L118.72,77.76z"/>
						</g>
					</g>
					<g>
						<g>
							<path class="st3" d="M106.84,73.26c-1.33,4.18-2.65,8.35-3.98,12.53c-0.33,1.05-1.94,0.44-1.6-0.61
								c1.33-4.18,2.65-8.35,3.98-12.53C105.57,71.6,107.17,72.21,106.84,73.26L106.84,73.26z"/>
						</g>
					</g>
					<g>
						<g>
							<path class="st3" d="M93.71,71.08c-1.49,3.93-2.98,7.86-4.47,11.79c-0.39,1.03-2,0.43-1.6-0.61
								c1.49-3.93,2.98-7.86,4.47-11.79C92.49,69.44,94.1,70.05,93.71,71.08L93.71,71.08z"/>
						</g>
					</g>
					<g>
						<g>
							<path class="st3" d="M83.63,68.38c-1.63,3.51-3.25,7.02-4.88,10.53c-0.46,1-2.07,0.4-1.6-0.61
								c1.63-3.51,3.25-7.02,4.88-10.53C82.49,66.78,84.1,67.38,83.63,68.38L83.63,68.38z"/>
						</g>
					</g>
					<g>
						<g>
							<path class="st3" d="M72.81,64.84c-1.43,3.77-2.86,7.53-4.28,11.3c-0.39,1.03-2,0.43-1.6-0.61c1.43-3.77,2.86-7.53,4.28-11.3
								C71.6,63.2,73.2,63.81,72.81,64.84L72.81,64.84z"/>
						</g>
					</g>
					<g>
						<g>
							<path class="st3" d="M63.9,60.9c-1.49,3.93-2.98,7.86-4.47,11.79c-0.39,1.03-2,0.43-1.6-0.61c1.49-3.93,2.98-7.86,4.47-11.79
								C62.68,59.26,64.29,59.87,63.9,60.9L63.9,60.9z"/>
						</g>
					</g>
					<g>
						<g>
							<path class="st3" d="M53.91,56.56c-1.49,3.93-2.98,7.86-4.47,11.79c-0.39,1.03-2,0.43-1.6-0.61
								c1.49-3.93,2.98-7.86,4.47-11.79C52.7,54.92,54.3,55.52,53.91,56.56L53.91,56.56z"/>
						</g>
					</g>
					<g>
						<g>
							<path class="st3" d="M43.83,51.05c-1.66,3.68-3.31,7.35-4.97,11.03c-0.45,1-2.06,0.4-1.6-0.61
								c1.66-3.68,3.31-7.35,4.97-11.03C42.68,49.44,44.29,50.04,43.83,51.05L43.83,51.05z"/>
						</g>
					</g>
					<g>
						<g>
							<path class="st3" d="M33.09,45.29c-1.3,3.44-2.61,6.88-3.91,10.31c-0.39,1.03-2,0.43-1.6-0.61c1.3-3.44,2.61-6.88,3.91-10.31
								C31.87,43.65,33.48,44.26,33.09,45.29L33.09,45.29z"/>
						</g>
					</g>
					<g>
						<g>
							<path class="st3" d="M22.75,40.25c-1.37,3.6-2.73,7.2-4.1,10.81c-0.39,1.03-2,0.43-1.6-0.61c1.37-3.6,2.73-7.2,4.1-10.81
								C21.54,38.61,23.15,39.22,22.75,40.25L22.75,40.25z"/>
						</g>
					</g>
					<g>
						<g>
							<path class="st3" d="M15.15,31.74c-1.45,4.33-2.89,8.66-4.34,12.99c-0.35,1.05-1.95,0.44-1.6-0.61
								c1.44-4.33,2.89-8.66,4.34-12.99C13.89,30.09,15.5,30.7,15.15,31.74L15.15,31.74z"/>
						</g>
					</g>
					<g>
						<g>
							<path class="st3" d="M9.85,24.87C8.4,29.2,6.96,33.53,5.51,37.86c-0.35,1.05-1.95,0.44-1.6-0.61
								c1.45-4.33,2.89-8.66,4.34-12.99C8.6,23.21,10.2,23.82,9.85,24.87L9.85,24.87z"/>
						</g>
					</g>
				</g>
			</g>
		</g>
		<g>
			<path class="st4" d="M16.73,12.31c-0.23,0.6-0.35,1.22-0.39,1.88C23,5.74,53.3,8.64,86.74,21.31
				c33.43,12.67,58.04,30.59,57.42,41.34c0.41-0.51,0.73-1.06,0.95-1.66c3.95-10.42-21.58-29.77-57.03-43.21
				C52.62,4.34,20.68,1.89,16.73,12.31z"/>
		</g>
	</g>
</g>
</svg>
