<?xml version="1.0" encoding="utf-8"?>
<!-- Generator: Adobe Illustrator 26.3.1, SVG Export Plug-In . SVG Version: 6.00 Build 0)  -->
<svg version="1.1" id="分離模式" xmlns="http://www.w3.org/2000/svg" xmlns:xlink="http://www.w3.org/1999/xlink" x="0px"
	 y="0px" viewBox="0 0 58 89" style="enable-background:new 0 0 58 89;" xml:space="preserve">
<style type="text/css">
	.st0{fill:#FFC239;}
	.st1{fill:#FEE597;}
	.st2{fill:#FFC545;}
	.st3{fill:#FFD567;}
	.st4{fill:#FFAE28;}
</style>
<g>
	<g>
		<g>
			<g>
				<g>
					<g>
						<path class="st0" d="M50.16,81.31l-1.42-0.03c2.91-9.4-0.69-27.11-7.53-42.29C34.37,23.82,23.48,9.39,14.51,5.35l1.01-1.04
							l0.83-3.7L5,5.73C-4.47,9.99,0.86,33.3,9.8,53.15c8.87,19.68,22.65,38.94,32.11,35.11l0,0.01l11.08-5L50.16,81.31z"/>
					</g>
					<g>
						<path class="st1" d="M20.65,48.27C11.7,28.41,6.38,5.11,15.84,0.84C25.3-3.43,39.25,16,48.2,35.85
							C57.14,55.7,62.47,79.01,53,83.28C43.54,87.54,29.6,68.12,20.65,48.27z"/>
					</g>
					<g>
						<path class="st2" d="M51.51,78.61C45.54,81.3,33.27,67.02,24.12,46.7C14.96,26.39,12.38,7.74,18.35,5.05
							c5.97-2.69,18.24,11.59,27.39,31.91C54.9,57.27,57.48,75.92,51.51,78.61z"/>
					</g>
				</g>
				<g>
					<g>
						<g>
							<path class="st3" d="M9.11,8.32C6.44,9.14,3.87,10.21,1.4,11.5c-0.57,0.3-0.16,1.22,0.41,0.92c2.47-1.3,5.05-2.36,7.71-3.19
								C10.14,9.04,9.72,8.13,9.11,8.32L9.11,8.32z"/>
						</g>
					</g>
					<g>
						<g>
							<path class="st3" d="M9.07,14.99c-2.47,0.74-4.87,1.72-7.16,2.92c-0.57,0.3-0.16,1.22,0.41,0.92
								c2.29-1.2,4.68-2.17,7.16-2.91c0.26-0.08,0.35-0.44,0.25-0.67C9.62,14.97,9.33,14.92,9.07,14.99L9.07,14.99z"/>
						</g>
					</g>
					<g>
						<g>
							<path class="st3" d="M9.46,21.13c-1.97,0.89-3.94,1.78-5.91,2.66c-0.59,0.27-0.18,1.19,0.41,0.92
								c1.97-0.89,3.94-1.78,5.91-2.66C10.47,21.78,10.05,20.86,9.46,21.13L9.46,21.13z"/>
						</g>
					</g>
					<g>
						<g>
							<path class="st3" d="M12.53,27.94c-2.4,0.93-4.8,1.86-7.21,2.78c-0.61,0.23-0.19,1.15,0.41,0.92c2.4-0.93,4.8-1.86,7.21-2.78
								C13.55,28.62,13.13,27.71,12.53,27.94L12.53,27.94z"/>
						</g>
					</g>
					<g>
						<g>
							<path class="st3" d="M14.27,35.56c-2.25,1.01-4.5,2.03-6.76,3.04c-0.59,0.27-0.18,1.19,0.41,0.92
								c2.25-1.02,4.5-2.03,6.75-3.04C15.28,36.22,14.87,35.3,14.27,35.56L14.27,35.56z"/>
						</g>
					</g>
					<g>
						<g>
							<path class="st3" d="M16.22,41.38c-2,1.08-4,2.16-6,3.24c-0.57,0.31-0.16,1.23,0.41,0.92c2-1.08,4-2.16,6-3.24
								C17.2,41.99,16.79,41.07,16.22,41.38L16.22,41.38z"/>
						</g>
					</g>
					<g>
						<g>
							<path class="st3" d="M18.68,47.6c-2.16,0.97-4.32,1.95-6.47,2.92c-0.59,0.27-0.18,1.19,0.41,0.92
								c2.16-0.97,4.32-1.95,6.47-2.92C19.69,48.25,19.28,47.33,18.68,47.6L18.68,47.6z"/>
						</g>
					</g>
					<g>
						<g>
							<path class="st3" d="M21.31,52.69c-2.25,1.01-4.5,2.03-6.75,3.04c-0.59,0.27-0.18,1.19,0.41,0.92
								c2.25-1.02,4.5-2.03,6.75-3.05C22.32,53.34,21.91,52.42,21.31,52.69L21.31,52.69z"/>
						</g>
					</g>
					<g>
						<g>
							<path class="st3" d="M24.22,58.39c-2.25,1.01-4.5,2.03-6.75,3.05c-0.59,0.27-0.18,1.19,0.41,0.92
								c2.25-1.02,4.5-2.03,6.75-3.05C25.23,59.04,24.81,58.12,24.22,58.39L24.22,58.39z"/>
						</g>
					</g>
					<g>
						<g>
							<path class="st3" d="M27.81,64.1c-2.1,1.1-4.19,2.21-6.29,3.31c-0.57,0.3-0.16,1.22,0.41,0.92c2.1-1.1,4.19-2.21,6.29-3.31
								C28.8,64.72,28.39,63.8,27.81,64.1L27.81,64.1z"/>
						</g>
					</g>
					<g>
						<g>
							<path class="st3" d="M31.58,70.2c-1.97,0.89-3.94,1.78-5.91,2.66c-0.59,0.27-0.18,1.19,0.41,0.92
								c1.97-0.89,3.94-1.78,5.91-2.66C32.58,70.85,32.17,69.93,31.58,70.2L31.58,70.2z"/>
						</g>
					</g>
					<g>
						<g>
							<path class="st3" d="M34.91,76.08c-2.06,0.93-4.13,1.86-6.19,2.79c-0.59,0.27-0.18,1.19,0.41,0.92
								c2.06-0.93,4.13-1.86,6.19-2.79C35.91,76.73,35.5,75.81,34.91,76.08L34.91,76.08z"/>
						</g>
					</g>
					<g>
						<g>
							<path class="st3" d="M40.17,80.24c-2.49,1-4.98,2.01-7.47,3.01c-0.6,0.24-0.19,1.16,0.41,0.92c2.49-1,4.98-2.01,7.47-3.01
								C41.19,80.91,40.77,79.99,40.17,80.24L40.17,80.24z"/>
						</g>
					</g>
					<g>
						<g>
							<path class="st3" d="M44.39,83.1c-2.49,1-4.98,2.01-7.47,3.01c-0.6,0.24-0.19,1.16,0.41,0.92c2.49-1,4.98-2.01,7.47-3.01
								C45.41,83.77,44.99,82.85,44.39,83.1L44.39,83.1z"/>
						</g>
					</g>
				</g>
			</g>
		</g>
		<g>
			<path class="st4" d="M51.51,78.61c-0.34,0.15-0.7,0.25-1.09,0.29c4.72-4.21,1.93-21.88-6.71-41.04
				C35.08,18.71,23.69,4.92,17.41,5.67c0.29-0.26,0.6-0.46,0.94-0.62c5.97-2.69,18.24,11.59,27.39,31.9
				C54.9,57.27,57.48,75.92,51.51,78.61z"/>
		</g>
	</g>
</g>
</svg>
