<?xml version="1.0" encoding="utf-8"?>
<!-- Generator: Adobe Illustrator 26.3.1, SVG Export Plug-In . SVG Version: 6.00 Build 0)  -->
<svg version="1.1" id="圖層_1" xmlns="http://www.w3.org/2000/svg" xmlns:xlink="http://www.w3.org/1999/xlink" x="0px" y="0px"
	 viewBox="0 0 482 549" style="enable-background:new 0 0 482 549;" xml:space="preserve">
<style type="text/css">
	.st0{fill:#78C5EF;}
	.st1{fill:#FFFFFF;}
	.st2{fill:#005AD7;}
	.st3{fill:#399EFF;}
	.st4{fill:#FFD824;}
	.st5{fill:#EF8903;}
	.st6{fill:#C90000;}
</style>
<g>
	<g>
		<path class="st0" d="M452.3,339.7c2-2.5,3.1-5.8,3.1-9.8v-8.2c0-3.1-0.4-7.7-3.4-11c-0.4-0.4-0.8-0.8-1.2-1.1
			c1-2.1,1.5-4.5,1.5-7.3v-8.1c0-3.2-0.4-7.9-3.7-11.2c-1.3-1.3-2.7-2.1-4.1-2.6c-0.2-2.8-1.2-5.3-3-7.5l-0.5-0.6l-0.6-0.5
			c-1.6-1.3-4.4-2.9-8.6-2.9h-13.5c-3.3,0-6,0.8-8.4,2.5l-0.5,0.4l-0.5,0.5c-0.7,0.7-1.4,1.6-1.9,2.4c-0.5-0.8-1.1-1.6-1.9-2.4
			l-0.5-0.5l-0.5-0.4c-2.4-1.7-5.1-2.5-8.4-2.5h-13.4c-3.8,0-6.9,1.1-9.1,3.4c-1.3,1.3-2.2,2.7-2.8,4.2c-0.7-1.3-1.5-2.5-2.5-3.5
			c-1.8-1.8-4-3-6.4-3.6c1.4-0.4,2.8-1,4-1.7l0.2-0.1l0.2-0.1c3.2-2.3,4.9-6.1,4.9-11.3v-11.6c0-4.8-1.4-8.4-4.3-10.9l-0.2-0.2
			l-0.2-0.2c-0.7-0.5-1.5-1-2.3-1.4c0-1.2-0.3-2.6-0.8-4l-0.1-0.3l-4.4-10.3c-0.7-1.5-1.3-2.6-1.8-3.4c1.6-2.5,2.4-5.7,2.4-9.7V168
			c0-5.3-1.5-9.5-4.4-12.4c-2.8-2.9-7-4.3-12.4-4.3h-7.9c4.3-6.7,7.7-13.6,10.2-20.7c8.1-22.9,7.9-46.8,3.1-56.6
			c-1.5-3.1-3.7-5.2-6.4-6.1c-1-0.3-2-0.5-3.1-0.5c-9.8,0-30,17.4-40.5,45.8c-1.4,3.9-2.7,7.7-3.7,11.4c-1.8-5-3.6-9.2-4.9-12.2
			l-0.2-0.6c-0.1-0.2-0.3-0.8-1-1.8c-0.1-0.1-0.1-0.2-0.2-0.3c-0.7-1-2.2-3.5-5.4-4.4c-0.5-0.1-1-0.3-1.5-0.3
			c-2.2-0.5-4.5-0.6-6.7-0.6h-1c-1.3,0-2.8,0-4.2,0c-1.9,0-3.7,0-5.3,0.1c-0.3,0-0.5,0-0.7,0c-0.6,0-1.2,0-1.7,0
			c-0.7,0-1.4-0.1-2.1-0.1c-1.8,0-3.4,0.2-5.1,0.5c-6.2,1.2-11.6,6.1-15.5,14.2c-4,8.2-6.6,20.3-2.8,27.6c1.5,2.9,3.7,4.9,6.5,6.1
			c-1.7,0.7-3.1,1.7-4.3,2.9c-2.7,2.7-4.2,6.5-4.4,11.1c0,0.2,0,0.5,0,0.7s0,0.3,0,0.5v35.9c0,6.3,1.9,10.8,5.7,13.5l0.1,0.1
			l0.2,0.1c2.9,1.8,6.4,2.7,10.7,2.7h9.3l-0.3,0.8c-2.5,5.7-4.2,8.1-4.9,8.9c-0.2,0.2-1.2,0.7-3.9,0.7H235h-0.4
			c-3.9,0.4-6.5,2-8.1,3.2l-0.5,0.3l-0.4,0.4c-0.2,0.2-0.3,0.3-0.4,0.5c-0.2-2.8-1-5.9-3.3-8.4c-2.2-2.4-5.5-3.8-9.8-3.9v-1.6
			c0-2.8-0.9-5.5-2.6-7.8l0,0l0.2-0.3c1.8-2.5,2.7-5.6,2.7-9.4v-8.1c0-1.3-0.1-2.6-0.2-3.7l2.1,1.2l0.5,0.2c2.7,1.2,4.9,1.7,7,1.7
			s4-0.6,5.6-1.7l0.3-0.2l0.3-0.2c2.8-2.2,4.2-5.7,4.2-10.3v-15.9c0-3.1-0.4-7.6-3.4-10.9c-1.3-1.5-3.2-2.9-6.2-5l-0.2-0.1
			l-57.3-35.2c-3.1-1.9-5.9-2.8-8.5-2.8c-2.7,0-5.4,0.9-8.5,2.8L90,150.9l-0.2,0.1c-3,2.1-4.9,3.5-6.2,5c-3.1,3.3-3.4,7.8-3.4,10.9
			v15.9c0,4.6,1.4,8.1,4.2,10.3l0.3,0.2l0.3,0.2c1.6,1.1,3.6,1.7,5.6,1.7l0,0c2.1,0,4.3-0.5,7-1.7l0.5-0.2l2.1-1.2
			c-0.2,1.1-0.2,2.4-0.2,3.7v8.1c0,3.8,0.9,6.9,2.7,9.4l0.2,0.3l0,0c-1.7,2.3-2.6,5-2.6,7.8v1.6c-4.4,0.2-7.6,1.5-9.8,3.9
			c-3.1,3.3-3.4,7.8-3.4,11v8.2c0,3.9,1,7.1,3.1,9.6c1.7,2.2,5,4.7,11.4,4.7h109.2c5.6,0,8.8-2.1,10.6-4.2v0.6c0,3.8,1.3,7,3.8,9.6
			l0.4,0.4l0.5,0.3c1.6,1.2,4.2,2.9,8.1,3.2h0.4h20.9c13,0,22.3-2.2,28.4-6.8c3-2.1,5.6-4.9,8-8.3v1c0,4.8,1.3,8.4,4,10.7
			c2.4,2.2,5.9,3.3,10.6,3.3h34.9c-1.4,0.6-2.8,1.4-4,2.5L337,273l-0.2,0.2c-2.3,2.3-3.8,5.4-4.1,8.8v0.4v0.4
			c0,9.5-1.9,19.7-5.7,30.1c-4.5,12.4-8.9,16.5-11.9,17.8c-0.9,0.4-2.8,1.1-4.8,1.8l-9.2,1.8l7.2-16.5c1.4-2.9,2.1-5.7,2.1-8.5
			v-10.7c0-5.1-1.2-8.7-3.7-11.2c-3.1-3.1-7.4-3.5-10.8-3.5H248c-3,0-7.3,0.4-10.5,3.5c-2.5,2.5-3.7,6.1-3.7,11.2v10.7
			c0,1,0.1,1.9,0.2,2.7c-1-0.1-1.7-0.1-2.2-0.1h-8l2.9-10.9c1.3-3.3,2.4-7.4,0.4-11.2c-2.9-5.8-9.7-5.8-12-5.8h-9.4
			c-3.8,0-7,1.1-9.4,3.1l-0.2,0.2l-0.2,0.2c-2,2-3.4,4.9-4.4,9.2l-4,15.2h-4c-2.9,0-5.4,0.5-7.4,1.5c-0.4-0.8-1-1.7-1.7-2.4
			c-1.3-1.5-3.2-2.9-6.2-5l-0.2-0.1l-57.3-35.2c-3.1-1.9-5.9-2.8-8.5-2.8c-2.7,0-5.4,0.9-8.5,2.8l-57.3,35.2l-0.2,0.1
			c-3,2.1-4.9,3.5-6.2,5c-3.1,3.3-3.4,7.8-3.4,10.9v15.9c0,4.6,1.4,8.1,4.2,10.3l0.3,0.2l0.3,0.2c1.6,1.1,3.6,1.7,5.6,1.7
			c2.1,0,4.3-0.5,7-1.7l0.5-0.2l2.1-1.2c-0.2,1.1-0.2,2.4-0.2,3.7v8.1c0,3.8,0.9,6.9,2.7,9.4l0.2,0.3l0,0c-1.7,2.3-2.6,5-2.6,7.8
			v1.6c-4.4,0.2-7.6,1.5-9.8,3.9c-3.1,3.3-3.4,7.8-3.4,11v8.2c0,3.9,1,7.1,3.1,9.6c1.7,2.2,5,4.7,11.4,4.7h109.2
			c6.1,0,9.4-2.5,11.1-4.7c2-2.5,3.1-5.7,3.1-9.6v-8.2c0-3.1-0.4-7.7-3.5-11c-2.2-2.4-5.5-3.8-9.8-3.9v-1.6c0-2.8-0.9-5.5-2.6-7.8
			l0,0l0.2-0.3c1.8-2.5,2.7-5.6,2.7-9.4v-8.1c0-1.3-0.1-2.6-0.2-3.7l2.1,1.2l0.5,0.2c2.7,1.2,4.9,1.7,7,1.7s4-0.6,5.6-1.7l0.3-0.2
			l0.3-0.2c0.2-0.1,0.4-0.3,0.5-0.5c1,0.8,2.1,1.4,3.4,1.9l-6,23c-1,4-0.8,7.7,0.6,11.3l0.1,0.2l0.1,0.2c1.6,3.5,4.5,6.4,8.4,8.5
			c-2.1,0.7-4.3,1.7-6.1,3.7c-2.3,2.4-3.5,5.5-3.5,9v12.3c0,3.6,1.4,6.9,4,9.6l0.2,0.2l0.2,0.2c2.4,2,5.3,3.3,8.5,3.5l0.6,0.1h0.6
			c5.8-0.4,12-2.8,18.4-7.2c4.2-2.9,8.5-6.6,13-11.4l11.1,6.4c2.4,1.3,5.2,2.7,8.2,2.7l0,0c1.4,0,2.8-0.3,4-0.9
			c1.6-0.7,2.8-1.8,3.8-3.1v0.9c0,5.3,2.3,8.3,4.2,9.9c3.1,2.6,6.9,2.9,9.9,2.9H279c3.3,0,7.3-0.4,10.3-3.1c1.9-1.7,4-4.6,4-9.7
			v-43.2l27-4.5l0,0c0.2,0,0.3-0.1,0.5-0.1c0.7-0.1,1.4-0.3,2.1-0.5v32.2c0,1.7,0,6.8,3.7,10.5l0.3,0.3l0.3,0.2c2.4,2,5.5,3.1,9,3.1
			h14.5h0.4c3.3-0.3,6.1-1.4,8.3-3.2l0.3-0.2l0.3-0.3c1.1-1.1,2-2.5,2.6-4.1c0.9,2,2.3,3.6,4,4.8l0.1,0.1l0.2,0.1
			c2.9,1.9,6.4,2.7,10.7,2.7h59.1c3.3,0,8.2-0.4,11.9-3.5c2.3-1.9,5-5.6,5-12.6v-49.7c0-3.8-0.8-7.1-2.4-9.7
			C451.4,340.7,451.9,340.3,452.3,339.7z M248.1,323.6h14.6l-1.9,4.4c-0.8,0.4-1.5,1-2.2,1.6c-2,1.8-3.2,4.2-3.6,7.5h-8.7
			c0-0.3,0-0.7,0-1v-9.3c0-1,0-2.2-0.2-3.4C246.8,323.5,247.5,323.6,248.1,323.6z M246.4,397.5c0-3.7-0.5-8.2-3.3-11.5
			c-1.5-1.8-3.8-3.5-7.3-5.7l0,0c0.3-1.4,0.6-2.8,0.8-4.1c1.5,0.5,3.3,0.7,5.1,0.7h13.2v15.7c-2.6,0.4-4.8,1.3-6.6,2.8
			C247.5,396,246.9,396.7,246.4,397.5z"/>
		<path class="st1" d="M452.3,324.7c2-2.5,3.1-5.8,3.1-9.8v-8.2c0-3.1-0.4-7.7-3.4-11c-0.4-0.4-0.8-0.8-1.2-1.1
			c1-2.1,1.5-4.5,1.5-7.3v-8.1c0-3.2-0.4-7.9-3.7-11.2c-1.3-1.3-2.7-2.1-4.1-2.6c-0.2-2.8-1.2-5.3-3-7.5l-0.5-0.6l-0.6-0.5
			c-1.6-1.3-4.4-2.9-8.6-2.9h-13.5c-3.3,0-6,0.8-8.4,2.5l-0.5,0.4l-0.5,0.5c-0.7,0.7-1.4,1.6-1.9,2.4c-0.5-0.8-1.1-1.6-1.9-2.4
			l-0.5-0.5l-0.5-0.4c-2.4-1.7-5.1-2.5-8.4-2.5h-13.4c-3.8,0-6.9,1.1-9.1,3.4c-1.3,1.3-2.2,2.7-2.8,4.2c-0.7-1.3-1.5-2.5-2.5-3.5
			c-1.8-1.8-4-3-6.4-3.6c1.4-0.4,2.8-1,4-1.7l0.2-0.1l0.2-0.1c3.2-2.3,4.9-6.1,4.9-11.3v-11.6c0-4.8-1.4-8.4-4.3-10.9l-0.2-0.2
			l-0.2-0.2c-0.7-0.5-1.5-1-2.3-1.4c0-1.2-0.3-2.6-0.8-4l-0.1-0.3l-4.4-10.3c-0.7-1.5-1.3-2.6-1.8-3.4c1.6-2.5,2.4-5.7,2.4-9.7V153
			c0-5.3-1.5-9.5-4.4-12.4c-2.8-2.9-7-4.3-12.4-4.3h-7.9c4.3-6.7,7.7-13.6,10.2-20.7c8.1-22.9,7.9-46.8,3.1-56.6
			c-1.5-3.1-3.7-5.2-6.4-6.1c-1-0.3-2-0.5-3.1-0.5c-9.8,0-30,17.4-40.5,45.8c-1.4,3.9-2.7,7.7-3.7,11.4c-1.8-5-3.6-9.2-4.9-12.2
			l-0.2-0.6c-0.1-0.2-0.3-0.8-1-1.8c-0.1-0.1-0.1-0.2-0.2-0.3c-0.7-1-2.2-3.5-5.4-4.4c-0.5-0.1-1-0.3-1.5-0.3
			c-2.2-0.5-4.5-0.6-6.7-0.6h-1c-1.3,0-2.8,0-4.2,0c-1.9,0-3.7,0-5.3,0.1c-0.3,0-0.5,0-0.7,0c-0.6,0-1.2,0-1.7,0
			c-0.7,0-1.4-0.1-2.1-0.1c-1.8,0-3.4,0.2-5.1,0.5c-6.2,1.2-11.6,6.1-15.5,14.2c-4,8.2-6.6,20.3-2.8,27.6c1.5,2.9,3.7,4.9,6.5,6.1
			c-1.7,0.7-3.1,1.7-4.3,2.9c-2.7,2.7-4.2,6.5-4.4,11.1c0,0.2,0,0.5,0,0.7s0,0.3,0,0.5v35.9c0,6.3,1.9,10.8,5.7,13.5l0.1,0.1
			l0.2,0.1c2.9,1.8,6.4,2.7,10.7,2.7h9.3l-0.3,0.8c-2.5,5.7-4.2,8.1-4.9,8.9c-0.2,0.2-1.2,0.7-3.9,0.7H235h-0.4
			c-3.9,0.4-6.5,2-8.1,3.2l-0.5,0.3l-0.4,0.4c-0.2,0.2-0.3,0.3-0.4,0.5c-0.2-2.8-1-5.9-3.3-8.4c-2.2-2.4-5.5-3.8-9.8-3.9v-1.6
			c0-2.8-0.9-5.5-2.6-7.8l0,0l0.2-0.3c1.8-2.5,2.7-5.6,2.7-9.4v-8.1c0-1.3-0.1-2.6-0.2-3.7l2.1,1.2l0.5,0.2c2.7,1.2,4.9,1.7,7,1.7
			s4-0.6,5.6-1.7l0.3-0.2l0.3-0.2c2.8-2.2,4.2-5.7,4.2-10.3v-15.9c0-3.1-0.4-7.6-3.4-10.9c-1.3-1.5-3.2-2.9-6.2-5l-0.2-0.1
			l-57.3-35.2c-3.1-1.9-5.9-2.8-8.5-2.8c-2.7,0-5.4,0.9-8.5,2.8L90,135.9l-0.2,0.1c-3,2.1-4.9,3.5-6.2,5c-3.1,3.3-3.4,7.8-3.4,10.9
			v15.9c0,4.6,1.4,8.1,4.2,10.3l0.3,0.2l0.3,0.2c1.6,1.1,3.6,1.7,5.6,1.7l0,0c2.1,0,4.3-0.5,7-1.7l0.5-0.2l2.1-1.2
			c-0.2,1.1-0.2,2.4-0.2,3.7v8.1c0,3.8,0.9,6.9,2.7,9.4l0.2,0.3l0,0c-1.7,2.3-2.6,5-2.6,7.8v1.6c-4.4,0.2-7.6,1.5-9.8,3.9
			c-3.1,3.3-3.4,7.8-3.4,11v8.2c0,3.9,1,7.1,3.1,9.6c1.7,2.2,5,4.7,11.4,4.7h109.2c5.6,0,8.8-2.1,10.6-4.2v0.6c0,3.8,1.3,7,3.8,9.6
			l0.4,0.4l0.5,0.3c1.6,1.2,4.2,2.9,8.1,3.2h0.4h20.9c13,0,22.3-2.2,28.4-6.8c3-2.1,5.6-4.9,8-8.3v1c0,4.8,1.3,8.4,4,10.7
			c2.4,2.2,5.9,3.3,10.6,3.3h34.9c-1.4,0.6-2.8,1.4-4,2.5L337,258l-0.2,0.2c-2.3,2.3-3.8,5.4-4.1,8.8v0.4v0.4
			c0,9.5-1.9,19.7-5.7,30.1c-4.5,12.4-8.9,16.5-11.9,17.8c-0.9,0.4-2.8,1.1-4.8,1.8l-9.2,1.8l7.2-16.5c1.4-2.9,2.1-5.7,2.1-8.5
			v-10.7c0-5.1-1.2-8.7-3.7-11.2c-3.1-3.1-7.4-3.5-10.8-3.5H248c-3,0-7.3,0.4-10.5,3.5c-2.5,2.5-3.7,6.1-3.7,11.2v10.7
			c0,1,0.1,1.9,0.2,2.7c-1-0.1-1.7-0.1-2.2-0.1h-8l2.9-10.9c1.3-3.3,2.4-7.4,0.4-11.2c-2.9-5.8-9.7-5.8-12-5.8h-9.4
			c-3.8,0-7,1.1-9.4,3.1l-0.2,0.2l-0.2,0.2c-2,2-3.4,4.9-4.4,9.2l-4,15.2h-4c-2.9,0-5.4,0.5-7.4,1.5c-0.4-0.8-1-1.7-1.7-2.4
			c-1.3-1.5-3.2-2.9-6.2-5l-0.2-0.1l-57.3-35.2c-3.1-1.9-5.9-2.8-8.5-2.8c-2.7,0-5.4,0.9-8.5,2.8l-57.3,35.2l-0.2,0.1
			c-3,2.1-4.9,3.5-6.2,5c-3.1,3.3-3.4,7.8-3.4,10.9v15.9c0,4.6,1.4,8.1,4.2,10.3l0.3,0.2l0.3,0.2c1.6,1.1,3.6,1.7,5.6,1.7
			c2.1,0,4.3-0.5,7-1.7l0.5-0.2l2.1-1.2c-0.2,1.1-0.2,2.4-0.2,3.7v8.1c0,3.8,0.9,6.9,2.7,9.4l0.2,0.3l0,0c-1.7,2.3-2.6,5-2.6,7.8
			v1.6c-4.4,0.2-7.6,1.5-9.8,3.9c-3.1,3.3-3.4,7.8-3.4,11v8.2c0,3.9,1,7.1,3.1,9.6c1.7,2.2,5,4.7,11.4,4.7h109.2
			c6.1,0,9.4-2.5,11.1-4.7c2-2.5,3.1-5.7,3.1-9.6v-8.2c0-3.1-0.4-7.7-3.5-11c-2.2-2.4-5.5-3.8-9.8-3.9v-1.6c0-2.8-0.9-5.5-2.6-7.8
			l0,0l0.2-0.3c1.8-2.5,2.7-5.6,2.7-9.4v-8.1c0-1.3-0.1-2.6-0.2-3.7l2.1,1.2l0.5,0.2c2.7,1.2,4.9,1.7,7,1.7s4-0.6,5.6-1.7l0.3-0.2
			l0.3-0.2c0.2-0.1,0.4-0.3,0.5-0.5c1,0.8,2.1,1.4,3.4,1.9l-6,23c-1,4-0.8,7.7,0.6,11.3l0.1,0.2l0.1,0.2c1.6,3.5,4.5,6.4,8.4,8.5
			c-2.1,0.7-4.3,1.7-6.1,3.7c-2.3,2.4-3.5,5.5-3.5,9v12.3c0,3.6,1.4,6.9,4,9.6l0.2,0.2l0.2,0.2c2.4,2,5.3,3.3,8.5,3.5l0.6,0.1h0.6
			c5.8-0.4,12-2.8,18.4-7.2c4.2-2.9,8.5-6.6,13-11.4l11.1,6.4c2.4,1.3,5.2,2.7,8.2,2.7l0,0c1.4,0,2.8-0.3,4-0.9
			c1.6-0.7,2.8-1.8,3.8-3.1v0.9c0,5.3,2.3,8.3,4.2,9.9c3.1,2.6,6.9,2.9,9.9,2.9H279c3.3,0,7.3-0.4,10.3-3.1c1.9-1.7,4-4.6,4-9.7
			v-43.2l27-4.5l0,0c0.2,0,0.3-0.1,0.5-0.1c0.7-0.1,1.4-0.3,2.1-0.5v32.2c0,1.7,0,6.8,3.7,10.5l0.3,0.3l0.3,0.2c2.4,2,5.5,3.1,9,3.1
			h14.5h0.4c3.3-0.3,6.1-1.4,8.3-3.2l0.3-0.2l0.3-0.3c1.1-1.1,2-2.5,2.6-4.1c0.9,2,2.3,3.6,4,4.8l0.1,0.1l0.2,0.1
			c2.9,1.9,6.4,2.7,10.7,2.7h59.1c3.3,0,8.2-0.4,11.9-3.5c2.3-1.9,5-5.6,5-12.6v-49.7c0-3.8-0.8-7.1-2.4-9.7
			C451.4,325.7,451.9,325.3,452.3,324.7z M248.1,308.6h14.6l-1.9,4.4c-0.8,0.4-1.5,1-2.2,1.6c-2,1.8-3.2,4.2-3.6,7.5h-8.7
			c0-0.3,0-0.7,0-1v-9.3c0-1,0-2.2-0.2-3.4C246.8,308.5,247.5,308.6,248.1,308.6z M246.4,382.5c0-3.7-0.5-8.2-3.3-11.5
			c-1.5-1.8-3.8-3.5-7.3-5.7l0,0c0.3-1.4,0.6-2.8,0.8-4.1c1.5,0.5,3.3,0.7,5.1,0.7h13.2v15.7c-2.6,0.4-4.8,1.3-6.6,2.8
			C247.5,381,246.9,381.7,246.4,382.5z"/>
		<g>
			<path class="st2" d="M229.2,327.4h2.7c2.5,0,4.2-0.5,5.1-1.5c0.9-1,1.4-2.6,1.4-4.8v-9.3c0-2.9-0.5-4.7-1.4-5.6
				c-0.9-0.9-2.5-1.3-5.1-1.3h-18.5l5.7-21.5c1-2.5,1.4-4.2,0.9-5.1c-0.4-0.9-1.9-1.3-4.8-1.3h-9.4c-1.6,0-3.1,0.3-4.2,1.2
				c-0.8,0.9-1.6,2.7-2.2,5.4l-5.6,21.3h-10.2c-2.4,0-4,0.4-4.8,1.3c-0.9,0.9-1.4,2.8-1.4,5.6v9.3c0,2.2,0.5,3.7,1.4,4.8
				c0.7,1,2.4,1.5,4.8,1.5h4.2l-8.5,32c-0.6,2.5-0.5,4.7,0.3,6.6c0.9,1.9,2.7,3.8,5.4,5.1l13.1,6.6c-4.2,3.9-8.5,6.5-13.2,7.4
				c-2.1,0.4-3.6,1-4.4,1.9c-0.9,0.9-1.3,2.1-1.3,3.6v12.3c0,1.7,0.5,2.9,1.6,3.9c1.1,0.9,2.4,1.6,4.1,1.7c4.3-0.2,9.2-2.2,14.4-5.8
				c5.2-3.6,10.5-8.7,15.9-15l16.7,9.6c2.4,1.3,4.1,1.9,5,1.5c1-0.5,1.5-2,1.5-4.8v-11.1c0-3.4-0.5-5.6-1.4-6.6
				c-0.9-1.1-2.7-2.4-5.4-4.1l-5.3-3c1.8-5.3,2.9-11,2.9-17V327.4z M210.8,348.8c0,4.3-0.3,7.9-1.2,10.5l-8.9-5.3l6.9-26.6h3.2
				V348.8z"/>
			<path class="st2" d="M258.2,408.7c-2.4,0-3.9-0.3-4.8-1c-0.9-0.8-1.4-2-1.4-3.8v-12.6c0-2.2,0.5-3.9,1.4-4.7s2.4-1.2,4.8-1.2h1.8
				c2,0,2.9-1,2.9-3.2v-28.4h-21.2c-2.2,0-3.9-0.5-4.8-1.5c-0.9-1-1.4-2.5-1.4-4.8v-10.5c0-2.9,0.4-4.7,1.4-5.6
				c0.9-0.9,2.5-1.4,4.8-1.4h21.2v-4.8c0-2.6,0.4-4.2,1.2-4.8c0.8-0.8,1.7-1,2.7-1l8.3-18.9h-26.9c-2.2,0-3.9-0.6-4.8-1.5
				c-0.9-1.1-1.3-2.7-1.3-4.8v-10.7c0-2.7,0.4-4.7,1.3-5.6s2.6-1.2,4.8-1.2H296c2.5,0,4.2,0.3,5.1,1.2c0.9,0.9,1.3,2.9,1.3,5.6v10.7
				c0,1.7-0.4,3.3-1.3,5.1l-13.5,30.8c0,0,9.7-1.1,13.7-2.1s16-4,16-4s2,8.1,2,11l-6.9,9.5c0,2.3,0,4.8,0,4.8l-27,4.5v50
				c0,1.8-0.4,3-1.4,3.8c-0.8,0.8-2.6,1-4.9,1H258.2z"/>
		</g>
		<path class="st3" d="M377.4,393.6c-2.7,0-4.8-0.4-6.4-1.5c-1.5-1.1-2.2-3.5-2.2-6.9V336c0-3.2,0.8-5.4,2.2-6.8
			c1.5-1.4,3.6-2.1,6.3-2.1h59.1c3.2,0,5.4,0.8,6.8,2c1.5,1.3,2.2,3.6,2.2,6.8v49.7c0,3.2-0.8,5.4-2.1,6.5c-1.4,1.2-3.6,1.7-6.8,1.7
			h-59.1V393.6z"/>
		<path class="st3" d="M446,301.2c-0.8-0.9-2.6-1.4-5.1-1.4h-4.5v-6.2h1.4c2.6,0,4.2-0.4,5.1-1.5s1.3-2.6,1.3-4.8v-8.1
			c0-2.8-0.4-4.7-1.3-5.6s-2.6-1.3-5.1-1.3h-1.4v-5.9c0-1.5-0.4-2.6-1.2-3.5c-0.9-0.8-2.1-1-3.4-1h-13.5c-1.5,0-2.7,0.3-3.8,1
			c-0.9,0.9-1.3,2-1.3,3.5v5.9h-12.3v-5.9c0-1.5-0.6-2.6-1.5-3.5c-1.1-0.8-2.2-1-3.8-1h-13.4c-1.5,0-2.7,0.3-3.5,1
			c-0.9,0.9-1.4,2-1.4,3.5v5.9h-1.5c-2.4,0-4,0.4-4.9,1.3c-0.8,0.9-1.2,2.7-1.2,5.6v8.1c0,2.2,0.4,3.8,1.2,4.8
			c0.9,1.1,2.6,1.5,4.9,1.5h1.5v6.2h-4.8c-2.2,0-3.9,0.5-4.8,1.4s-1.3,2.7-1.3,5.6v8.2c0,2.1,0.4,3.8,1.3,4.8
			c0.9,1.1,2.6,1.5,4.8,1.5h68.3c2.6,0,4.4-0.5,5.1-1.5c0.9-1,1.4-2.7,1.4-4.8v-8.2C447.3,303.9,446.9,302.1,446,301.2z
			 M413.1,299.8h-12.3v-6.2h12.3V299.8z"/>
		<g>
			<g>
				<circle class="st4" cx="407" cy="360.4" r="22.8"/>
				<path class="st1" d="M407,386.2c-14.2,0-25.8-11.6-25.8-25.8c0-14.2,11.6-25.8,25.8-25.8c14.2,0,25.8,11.6,25.8,25.8
					S421.2,386.2,407,386.2z M407,340.5c-10.9,0-19.8,8.9-19.8,19.8s8.9,19.8,19.8,19.8s19.8-8.9,19.8-19.8S417.9,340.5,407,340.5z"
					/>
			</g>
			<g>
				<path class="st5" d="M408.3,367.1c0.2-0.9,0.1-1.7-0.2-2.3c-0.3-0.6-1-1.3-2.1-2s-2-1.4-2.9-2.1s-1.6-1.4-2.2-2.2
					c-0.6-0.8-1-1.6-1.2-2.6c-0.2-0.9-0.2-2,0.1-3.2c0.4-2,1.4-3.5,3.1-4.5c1.6-1,3.6-1.4,5.9-1.1l0.8-3.7l2.8,0.6l-0.8,3.8
					c2.1,0.8,3.6,2,4.5,3.7c0.3,0.5,0.5,1,0.6,1.6c0.6,2.1-1.3,4.1-3.5,3.6l0,0c-1.3-0.3-2.1-1.3-2.3-2.6c0-0.3-0.1-0.6-0.2-0.9
					c-0.3-0.8-0.9-1.2-1.8-1.4c-0.8-0.2-1.4,0-2,0.3c-0.5,0.4-0.9,1-1.1,1.9s-0.1,1.6,0.3,2.2s1.1,1.3,2.1,2s1.9,1.4,2.8,2.1
					s1.6,1.5,2.2,2.2c0.6,0.8,1,1.6,1.2,2.6c0.2,0.9,0.2,2,0,3.2c-0.4,2-1.4,3.5-3,4.5c-1.5,1-3.5,1.4-5.7,1.1l-0.5,2.1
					c-0.2,0.8-0.9,1.3-1.7,1.1l0,0c-0.8-0.2-1.3-0.9-1.1-1.7l0.5-2.2c-2.5-0.8-4.3-2.1-5.4-3.9c-0.4-0.6-0.7-1.3-0.8-2.1
					c-0.5-2.1,1.4-4,3.5-3.5l0,0c1.2,0.3,2.2,1.3,2.3,2.5c0.1,0.5,0.2,0.9,0.4,1.3c0.4,0.8,1.2,1.4,2.3,1.6c0.8,0.2,1.5,0.1,2-0.3
					C407.8,368.6,408.1,367.9,408.3,367.1z"/>
			</g>
		</g>
		<g>
			<path class="st2" d="M89.4,171.9c-0.8-0.6-1.2-1.9-1.2-4.1v-15.9c0-2.8,0.4-4.7,1.3-5.6c0.8-0.9,2.4-2.1,4.8-3.8l57.2-35.1
				c1.9-1.2,3.3-1.7,4.3-1.7c1.1,0,2.4,0.4,4.4,1.7l57.2,35.1c2.4,1.7,4.1,2.8,4.8,3.8c0.9,0.9,1.4,2.7,1.4,5.6v15.9
				c0,2.1-0.5,3.5-1.2,4.1c-0.9,0.6-2.6,0.3-5-0.8l-13.5-8.1c-0.2,1.7-0.6,2.9-1.3,3.8c-0.9,0.9-2.6,1.5-5.1,1.5h-28.2v5.6h28.2
				c2.6,0,4.4,0.4,5.3,1.2c0.8,0.9,1.2,2.9,1.2,5.7v8.1c0,2.2-0.4,3.8-1.2,4.8c-0.9,1.1-2.7,1.5-5.3,1.5h-28.2V216h8v-9.6
				c0-1.3,0.6-2.7,1.8-3.9s2.7-1.8,4.5-1.8h13.7c1.9,0,3.6,0.6,4.7,1.8c1.2,1.2,1.8,2.6,1.8,3.9v9.6h7.1c2.4,0,4.1,0.5,4.8,1.4
				c0.9,0.9,1.3,2.7,1.3,5.6v8.2c0,2.1-0.4,3.6-1.3,4.7c-0.8,1.1-2.4,1.7-4.8,1.7H101.4c-2.5,0-4.3-0.6-5.1-1.7
				c-0.9-1-1.4-2.5-1.4-4.7V223c0-2.9,0.5-4.7,1.4-5.6c0.8-0.9,2.6-1.4,5.1-1.4h6.8v-9.6c0-1.3,0.6-2.7,1.8-3.9
				c1-1.2,2.7-1.8,4.7-1.8h13.7c1.8,0,3.3,0.6,4.5,1.8s1.8,2.6,1.8,3.9v9.6h8.1v-20.9H114c-2.4,0-4.1-0.4-5-1.5
				c-0.8-1.1-1.2-2.6-1.2-4.8v-8.1c0-2.8,0.5-4.8,1.2-5.7c0.9-0.8,2.6-1.2,5-1.2h28.7v-5.6H114c-2.4,0-3.9-0.6-4.8-1.5
				c-0.8-0.9-1.2-2.1-1.4-3.8L94.3,171C91.9,172.2,90.3,172.5,89.4,171.9z M135.3,146.8h41.1l-20.6-12.2L135.3,146.8z"/>
			<path class="st1" d="M98.7,151.3c-0.7,0-1.3-0.3-1.7-1c-0.6-0.9-0.3-2.2,0.7-2.8l1.3-0.8c0.9-0.6,2.2-0.3,2.8,0.7
				c0.6,0.9,0.3,2.2-0.7,2.8l-1.3,0.8C99.4,151.3,99,151.3,98.7,151.3z M108.5,145.3c-0.7,0-1.3-0.3-1.7-1c-0.6-0.9-0.3-2.2,0.7-2.8
				l26.7-16.4c0.9-0.6,2.2-0.3,2.8,0.7c0.6,0.9,0.3,2.2-0.7,2.8L109.6,145C109.3,145.2,108.9,145.3,108.5,145.3z"/>
		</g>
		<g>
			<path class="st1" d="M294.4,286.9h-12.9c-1.1,0-2-0.9-2-2s0.9-2,2-2h12.9c1.1,0,2,0.9,2,2S295.5,286.9,294.4,286.9z"/>
			<path class="st1" d="M273,286.9h-2.1c-1.1,0-2-0.9-2-2s0.9-2,2-2h2.1c1.1,0,2,0.9,2,2S274.1,286.9,273,286.9z"/>
			<path class="st1" d="M191.7,346c-0.2,0-0.3,0-0.5-0.1c-1.1-0.3-1.7-1.4-1.4-2.4l0.4-1.5c0.3-1.1,1.4-1.7,2.4-1.4
				c1.1,0.3,1.7,1.4,1.4,2.4l-0.4,1.5C193.4,345.4,192.6,346,191.7,346z"/>
			<path class="st1" d="M201.8,372.6c-0.3,0-0.6-0.1-0.9-0.2l-13-6.6c-1.3-0.6-1.9-1.3-2.3-1.7c-0.2-0.3-0.4-0.6-0.4-0.9
				c-0.1-0.6-0.1-1.4,0.1-2.3l2.7-10.4c0.3-1.1,1.4-1.7,2.4-1.4c1.1,0.3,1.7,1.4,1.4,2.4l-2.7,10.3c0,0,0,0,0,0.1
				c0.1,0.1,0.3,0.2,0.5,0.3l13.1,6.6c1,0.5,1.4,1.7,0.9,2.7C203.2,372.2,202.5,372.6,201.8,372.6z"/>
		</g>
		<g>
			<g>
				<path class="st3" d="M345.3,201.2h-12.8c-1.9-0.2-3.3,0.3-4.1,1.2s-0.9,1.9-0.3,3.2l4.1,9.8c0.9,1.8,1.7,3,2.2,3.8
					c0.8,0.6,1.9,0.9,3.6,0.9h12.8c1.8,0,3.2-0.3,4.1-0.8c0.8-0.6,0.9-1.8,0.3-3.6l-4.2-9.8c-0.9-1.9-1.7-3.2-2.1-3.9
					C348.3,201.4,347.1,201.1,345.3,201.2z"/>
				<path class="st3" d="M361.1,224.9c-1.2-0.9-2.9-1.3-5.1-1.3h-31.8v-26.1h18c3,0,5.3-0.5,6.8-1.7c1.3-1.1,1.9-3.3,1.9-6.5v-36.2
					c0-3.2-0.8-5.4-2.1-6.8c-1.3-1.4-3.8-2-6.8-2h-23.8c6.4-7.4,14-18.2,18.6-31.4c9.3-26.5,6-51,1.7-52.4
					c-4-1.3-23.4,12.8-33.7,40.5c-7.5,20.2-9.1,38.3-9.4,43.3h-3.2c0.3-2.3,0.6-11.1-4.7-27.9c-2-6.3-4.3-11.6-6.2-15.9l0,0
					c0,0,0-0.1-0.1-0.2s-0.1-0.3-0.2-0.4s-0.2-0.4-0.4-0.7c0-0.1-0.1-0.1-0.1-0.2c-0.3-0.5-0.7-1-0.8-1c-0.3-0.1-0.5-0.1-0.8-0.1
					c-1.6-0.5-3.9-0.4-6.3-0.5c-2.8-0.1-6.2-0.1-9.1,0c-3.2,0.1-5.2-0.4-8.5,0.3c-9.8,1.9-16.2,23.5-12.7,30.3
					c2.9,5.7,11.3,1.4,18.7-4c4.5-3.5,10.2-10.9,13.6-17.8c1.7,1.5,2.7,3.4,1.7,5.7c-2.8,6.6-7.8,12.2-12.7,15.8
					c-0.6,0.4-1.2,0.8-1.9,1.2c0.2,0.3,0.3,0.6,0.3,0.7c2.6,6.4,5.3,11.1,7.8,14.6h-0.7h-6.6h-12.8c-3,0-5.4,0.6-6.8,2
					c-1.2,1.2-1.9,3.2-2.1,5.9c0,0.2,0,0.3,0,0.5c0,0.1,0,0.2,0,0.3v0.1l0,0v35.7c0,3.5,0.8,5.9,2.2,6.9c1.7,1,3.8,1.5,6.5,1.5h21
					l-4.7,11.9c-2.3,5.1-4.4,8.9-6.3,11.1c-2.1,2.4-5.4,3.5-9.9,3.5h-15c-1.7,0.2-2.9,0.8-4.1,1.7c-1.1,1-1.5,2.2-1.5,3.8v12.6
					c0,1.7,0.4,2.9,1.5,3.9c1.2,0.9,2.4,1.5,4.1,1.7h20.6c11,0,18.9-1.7,23.7-5.2c4.8-3.5,8.7-9.3,11.6-17.6l8.9-27.2h0.3v43.8
					c0,2.4,0.5,4.1,1.4,4.8c0.8,0.8,2.5,1.2,5.2,1.2H356c2.2,0,3.9-0.5,5.1-1.2c1-0.8,1.5-2.4,1.5-4.8v-11.6
					C362.6,227.5,362.1,225.8,361.1,224.9z M280.1,175.7h-11v-9.5h14.4L280.1,175.7z M322.5,175.7h-15.8l3.3-9.5h12.5V175.7z"/>
			</g>
			<path class="st1" d="M248.9,181.7L248.9,181.7c-1.1,0-2-0.9-2-2V169c0-1.1,0.9-2,2-2l0,0c1.1,0,2,0.9,2,2v10.7
				C250.9,180.8,250,181.7,248.9,181.7z"/>
			<path class="st1" d="M248.9,192c-1.1,0-2-0.9-2-2v-2c0-1.1,0.9-2,2-2s2,0.9,2,2v2.1C250.9,191.1,250,192,248.9,192z"/>
			<path class="st1" d="M329.3,112.5c-0.2,0-0.4,0-0.7-0.1c-1-0.4-1.6-1.5-1.2-2.6c3.8-10.8,5-20.3,5.3-26.4c0.1-1.1,1-1.9,2.1-1.9
				c1.1,0.1,1.9,1,1.9,2.1c-0.3,6.4-1.6,16.3-5.5,27.5C330.9,112,330.1,112.5,329.3,112.5z"/>
			<path class="st1" d="M334.7,77c-1,0-1.9-0.8-2-1.9c0-0.5-0.1-0.9-0.1-1.4c-0.1-1.1,0.7-2.1,1.8-2.2c1.1-0.1,2.1,0.7,2.2,1.8
				c0,0.5,0.1,1,0.1,1.5c0.1,1.1-0.8,2-1.9,2.1C334.8,77,334.7,77,334.7,77z"/>
		</g>
		<g>
			<path class="st2" d="M35.9,326.9c-0.8-0.6-1.2-1.9-1.2-4.1v-15.9c0-2.8,0.4-4.7,1.3-5.6c0.8-0.9,2.4-2.1,4.8-3.8l57.2-35
				c1.9-1.2,3.3-1.7,4.3-1.7c1.1,0,2.4,0.4,4.4,1.7l57.2,35.1c2.4,1.7,4.1,2.8,4.8,3.8c0.9,0.9,1.4,2.7,1.4,5.6v15.9
				c0,2.1-0.5,3.5-1.2,4.1c-0.9,0.6-2.6,0.3-5-0.8l-13.5-8.1c-0.2,1.7-0.6,2.9-1.3,3.8c-0.9,0.9-2.6,1.5-5.1,1.5h-28.2v5.6H144
				c2.6,0,4.4,0.4,5.3,1.2c0.8,0.9,1.2,2.9,1.2,5.7v8.1c0,2.2-0.4,3.8-1.2,4.8c-0.9,1.1-2.7,1.5-5.3,1.5h-28.2V371h8v-9.6
				c0-1.3,0.6-2.7,1.8-3.9c1.2-1.2,2.7-1.8,4.5-1.8h13.7c1.9,0,3.6,0.6,4.7,1.8c1.2,1.2,1.8,2.6,1.8,3.9v9.6h7.1
				c2.4,0,4.1,0.5,4.8,1.4c0.9,0.9,1.3,2.7,1.3,5.6v8.2c0,2.1-0.4,3.6-1.3,4.7c-0.8,1.1-2.4,1.7-4.8,1.7H47.9
				c-2.5,0-4.3-0.6-5.1-1.7c-0.9-1-1.4-2.5-1.4-4.7V378c0-2.9,0.5-4.7,1.4-5.6c0.8-0.9,2.6-1.4,5.1-1.4h6.8v-9.6
				c0-1.3,0.6-2.7,1.8-3.9c1-1.2,2.7-1.8,4.7-1.8h13.7c1.8,0,3.3,0.6,4.5,1.8c1.2,1.2,1.8,2.6,1.8,3.9v9.6h8.1v-20.9H60.5
				c-2.4,0-4.1-0.4-5-1.5c-0.8-1.1-1.2-2.6-1.2-4.8v-8.1c0-2.8,0.5-4.8,1.2-5.7c0.9-0.8,2.6-1.2,5-1.2h28.7v-5.6H60.5
				c-2.4,0-3.9-0.6-4.8-1.5c-0.8-0.9-1.2-2.1-1.4-3.8L40.8,326C38.4,327.2,36.8,327.5,35.9,326.9z M81.8,301.8h41.1l-20.6-12.2
				L81.8,301.8z"/>
			<path class="st1" d="M45.2,306.3c-0.7,0-1.3-0.3-1.7-1c-0.6-0.9-0.3-2.2,0.7-2.8l1.3-0.8c0.9-0.6,2.2-0.3,2.8,0.7
				s0.3,2.2-0.7,2.8l-1.3,0.8C45.9,306.3,45.5,306.3,45.2,306.3z M55,300.3c-0.7,0-1.3-0.3-1.7-1c-0.6-0.9-0.3-2.2,0.7-2.8
				l26.7-16.4c0.9-0.6,2.2-0.3,2.8,0.7c0.6,0.9,0.3,2.2-0.7,2.8L56.1,300C55.8,300.2,55.4,300.3,55,300.3z"/>
		</g>
		<path class="st3" d="M355.4,314.7v72.9c0,2.4-0.4,3.9-1.2,4.7c-0.9,0.8-2.2,1.2-3.9,1.3h-14.1c-1.7,0-3-0.4-3.9-1.2
			c-0.9-0.9-1.4-2.4-1.4-4.8v-45c-3.7,2.4-6.8,3.8-11.7,5.4c-3,1-17,3-17,3s4-5,7-12s3.1-13.8,3.1-13.8s3.8-1.3,5.9-2.2
			c7-3,12.2-11.2,16.3-22.4c4.1-11.3,6.2-22.2,6.2-32.9c0.2-1.5,0.8-2.9,1.8-3.9c1.2-1,2.6-1.7,4.1-1.7H358c1.6,0,3.1,0.6,4.2,1.7
			c1.1,1.1,1.7,2.4,1.8,3.9v8.7C362.8,292.2,360.1,304.9,355.4,314.7z"/>
		<g>
			<path class="st1" d="M335.5,318.5c-0.4,0-0.8-0.1-1.2-0.4c-0.9-0.6-1.1-1.9-0.5-2.8c2.4-3.4,4.5-7.6,6.3-12.7
				c2.2-6.1,3.9-12.2,4.9-18.1c0.2-1.1,1.2-1.8,2.3-1.6c1.1,0.2,1.8,1.2,1.6,2.3c-1.1,6.2-2.8,12.5-5.1,18.8
				c-2,5.5-4.2,9.9-6.8,13.7C336.7,318.2,336.1,318.5,335.5,318.5z"/>
			<path class="st1" d="M327,326.7c-0.7,0-1.3-0.3-1.7-0.9c-0.6-0.9-0.3-2.2,0.6-2.8c0.5-0.3,1-0.7,1.5-1c0.9-0.7,2.1-0.5,2.8,0.4
				c0.7,0.9,0.5,2.1-0.4,2.8c-0.6,0.4-1.1,0.8-1.7,1.2C327.8,326.6,327.4,326.7,327,326.7z"/>
		</g>
	</g>
	<g>
		<path class="st6" d="M482,483.1c-48-23.5-97.2-28.2-146.9-25.7l-0.9-13.3l-7.8,0.5c-6.1,0.4-11.7,2.3-16.6,5.5
			c-4,2.6-7.2,6-9.5,10c-1.6,0.2-3.1,0.3-4.7,0.5c-1.2-2-2.6-3.8-4.2-5.4c-4.8-4.6-11.3-6.5-18.6-5.6c-7.4,0.9-13.1,4.3-16.7,9.9
			c-1.2,1.9-2.2,4.1-2.8,6.5c-7,1-14,1.9-21.1,2.9c-1.8-3.8-4.4-6.2-6.6-7.6c-4.5-2.9-10.3-4-17.2-3c-4.4,0.6-8.3,2.1-11.7,4.5
			c-3.5,2.5-6,5.7-7.7,9.6c-0.3,0.7-0.5,1.4-0.8,2.1c-62.2,6.6-124,6.6-183.9-22.8C19.1,470.1,34,486.6,49,501.6
			c-16.4,6.9-32.8,12.1-49,15.5c154.9,76,322.7-44.5,477.6,31.5c-14.8-18.5-29.7-35.1-44.7-50.1C449.4,491.7,465.8,486.4,482,483.1z
			"/>
		<g>
			<g>
				<path class="st1" d="M81.9,502.1l5.5,0.7l-0.3,2.5l-5.5-0.7l-0.1,0.9c1.3,1.4,4,4.7,4.7,5.6l-1.8,2.1c-0.7-1.1-2-3.1-3.2-4.7
					l-1.4,11.4l-2.7-0.3l1.4-11.3c-1.8,2.8-3.8,5.4-5.8,7c-0.2-0.8-0.7-2-1.1-2.8c2.4-1.8,5.2-5.1,6.9-8.3l-5.2-0.6l0.3-2.5l5.7,0.7
					l0.5-4.2c-1.8,0.1-3.6,0.2-5.2,0.2c-0.1-0.6-0.3-1.5-0.6-2.2c4.2-0.1,9.1-0.6,12-1.4l1.7,2.3c-1.5,0.4-3.2,0.7-5.1,0.9
					L81.9,502.1z M90.7,514l-2.6-0.3L90,498l2.6,0.3L90.7,514z M99,496l-2.7,22.4c-0.2,1.7-0.7,2.4-1.7,2.7
					c-1.1,0.3-2.8,0.2-5.4-0.1c0-0.8-0.3-2.1-0.6-2.9c1.9,0.3,3.7,0.5,4.3,0.6c0.5,0,0.8-0.1,0.8-0.7l2.7-22.4L99,496z"/>
				<path class="st1" d="M127.2,517.3l-11.5-0.3l-0.2,5.7l-2.8-0.1l0.2-5.7l-11.5-0.3l0.1-2.5l11.5,0.3l0.1-2.2l2.8,0.1l-0.1,2.2
					l11.5,0.3L127.2,517.3z M109.3,509.2c-2.2,1.1-4.5,2.2-6.4,3.1l-1.3-2.2c1.8-0.6,4.6-1.7,7.2-2.9L109.3,509.2z M118.9,512.9
					c-0.2-0.4-0.4-0.9-0.6-1.5c-7.2,0.5-8.3,0.6-8.9,0.9c-0.1-0.5-0.4-1.6-0.7-2.3c0.7-0.1,1.4-0.6,2.4-1.4c0.5-0.4,1.6-1.3,2.9-2.5
					c-2.8,0.1-3.4,0.2-3.9,0.4c-0.1-0.5-0.5-1.6-0.7-2.2c0.4-0.1,0.8-0.4,1.3-0.9c0.4-0.3,1.2-1.3,1.9-2.5l-10.2-0.3l0.1-2.4
					l11.3,0.3c-0.3-0.7-0.7-1.4-1.1-2l2.7-0.6c0.6,0.8,1.2,1.9,1.6,2.7l10.4,0.3l-0.1,2.4l-11.9-0.3c-0.8,1-1.6,2.1-2.5,3l3.2-0.1
					c0.7-0.7,1.3-1.5,2-2.3l2,1.3c-2.2,2.4-4.7,4.7-7.1,6.6l4.1-0.2c-0.4-0.6-0.7-1.2-1.1-1.7l2-0.7c1.2,1.6,2.5,3.6,3.1,5.1
					L118.9,512.9z M106.9,506.6c-0.9-1-2.7-2.4-4.2-3.4l1.9-1.4c1.5,0.9,3.4,2.3,4.3,3.3L106.9,506.6z M125,513.1
					c-1.2-1.2-3.6-2.9-5.5-4.1l1.9-1.4c1.9,1.1,4.3,2.8,5.6,4L125,513.1z M126.2,503.6c-1.3,1.3-3,2.6-4.3,3.4l-1.9-1.3
					c1.3-0.9,3-2.4,4-3.5L126.2,503.6z"/>
				<path class="st1" d="M141.8,514.8c-2.1,2.9-5.3,6-8.3,8c-0.6-0.6-1.6-1.3-2.3-1.8c3-1.8,6.2-4.8,7.7-7.2L141.8,514.8z
					 M153.1,497.7l0.6,13.2l-19.8,0.8l-0.6-13.2L153.1,497.7z M136.5,509l14.2-0.6l-0.3-8.1l-14.2,0.6L136.5,509z M148.5,513.4
					c2.8,2,6.5,4.8,8.3,6.8l-2.4,1.7c-1.7-1.9-5.3-4.9-8.1-7L148.5,513.4z"/>
				<path class="st1" d="M166.2,498l-7.6,0.7l-0.2-2.3l24.6-2.2l0.2,2.3l-7.9,0.7l0.2,2.1l6.8-0.6l0.7,7.6l-22.1,2l-0.7-7.6l6.3-0.6
					L166.2,498z M179.2,511.8c-0.7,1.5-1.7,2.8-2.9,3.9c3.4,0.5,6.4,1,8.7,1.6l-2.2,2.1c-2.3-0.6-5.4-1.3-9-1.8
					c-3.1,1.8-7.3,3-12.7,3.9c-0.3-0.8-0.8-1.7-1.3-2.2c3.9-0.6,7.1-1.3,9.6-2.2c-2.1-0.2-4.2-0.4-6.3-0.6c0.7-1,1.4-2.1,2.1-3.3
					l-5.8,0.5l-0.2-2.2l7.3-0.7c0.5-1,1-2.1,1.3-3l2.7,0.3c-0.3,0.8-0.7,1.6-1.1,2.4l7.7-0.7c0.2-0.5,0.4-1.1,0.5-1.7l2.6,0.5
					c-0.1,0.3-0.2,0.6-0.3,0.9l4.6-0.4l0.2,2.2L179.2,511.8z M163.1,505.9l3.8-0.3l-0.3-3.4l-3.8,0.3L163.1,505.9z M168.3,512.8
					c-0.3,0.7-0.7,1.3-1.1,1.9c2,0.2,3.9,0.3,5.8,0.6c1.3-0.9,2.3-1.9,3.1-3.1L168.3,512.8z M172.7,497.4l-4,0.4l0.2,2.1l4-0.4
					L172.7,497.4z M169.4,505.3l4-0.4l-0.3-3.4l-4,0.4L169.4,505.3z M175.6,501.4l0.3,3.4l4.2-0.4l-0.3-3.4L175.6,501.4z"/>
				<path class="st4" d="M234.3,513.2l-35.4,4.7l-1-7.7l14-19.3c3.4-5.1,4.9-9,4.6-11.7c-0.3-2.2-1-3.8-2.1-4.8s-2.6-1.4-4.4-1.2
					c-1.8,0.2-3.1,1.2-4.1,2.9c-0.9,1.7-1.2,3.6-0.9,5.9l-11.8,1.6c-0.4-3.1,0-6.1,1.2-8.9s3.1-5.2,5.7-7c2.6-1.9,5.6-3,9-3.5
					c5.5-0.7,9.9,0,13.2,2.1s5.3,5.6,5.9,10.3c0.3,2,0.1,4-0.3,6c-0.5,2-1.4,4.1-2.7,6.4s-3.5,5.4-6.5,9.3l-5.6,8.4l20-2.6
					L234.3,513.2z"/>
				<path class="st4" d="M246.3,499.9c1.9-0.3,3.5,0.1,4.9,1s2.2,2.3,2.4,4s-0.2,3.2-1.3,4.5s-2.5,2-4.4,2.3s-3.5-0.1-4.9-1
					s-2.2-2.3-2.4-4s0.2-3.2,1.2-4.5C243,500.9,244.4,500.1,246.3,499.9z"/>
				<path class="st4" d="M294.9,484.1c0.8,6.9-0.1,12.3-2.7,16.4s-6.7,6.5-12.4,7.2c-5.7,0.7-10.3-0.7-13.8-4
					c-3.6-3.4-5.7-8.5-6.6-15.3l-1.1-9.3c-0.8-6.9,0.1-12.3,2.7-16.4s6.8-6.5,12.4-7.2s10.2,0.7,13.8,4c3.6,3.4,5.7,8.5,6.6,15.3
					L294.9,484.1z M281.9,474.8c-0.4-3.7-1.3-6.3-2.4-8c-1.2-1.7-2.8-2.4-4.9-2.2c-2,0.2-3.4,1.3-4.1,3.1c-0.7,1.8-0.9,4.4-0.6,7.8
					l1.6,13c0.5,3.8,1.3,6.5,2.4,8.1c1.2,1.6,2.8,2.3,4.9,2.1c2-0.2,3.4-1.3,4.1-3.1c0.7-1.8,0.9-4.6,0.5-8.2L281.9,474.8z"/>
				<path class="st4" d="M328.6,450.4l0.6,9.3h-0.5c-4.4,0.3-8,1.6-10.7,3.9s-4.2,5.4-4.6,9.2c2.5-2.8,5.8-4.3,9.8-4.6
					c4.4-0.3,8.1,1.1,10.9,4.1s4.4,7.2,4.8,12.4c0.2,3.2-0.3,6.3-1.7,9.1c-1.3,2.8-3.3,5.1-6,6.8c-2.6,1.7-5.6,2.7-9,2.9
					c-3.6,0.3-6.9-0.3-9.9-1.8c-3-1.4-5.4-3.7-7.2-6.6s-2.9-6.4-3.2-10.4l-0.3-4.7c-0.4-5.3,0.4-10.1,2.4-14.4c2-4.4,5-7.9,9-10.5
					c4-2.7,8.6-4.2,13.7-4.5L328.6,450.4z M319.7,477.6c-1.6,0.1-2.9,0.6-3.9,1.4s-1.7,1.7-2.2,2.8l0.2,3.5c0.4,6.5,2.9,9.5,7.4,9.2
					c1.8-0.1,3.2-1,4.3-2.7s1.6-3.8,1.4-6.2c-0.2-2.5-0.9-4.5-2.3-6C323.5,478.1,321.8,477.4,319.7,477.6z"/>
				<path class="st4" d="M344.3,475.4c0-2,0.7-3.6,2-4.8c1.3-1.2,3.1-1.8,5.3-1.8c2.2,0,4,0.7,5.3,1.9c1.3,1.2,1.9,2.9,1.9,5v1.6
					c0,2-0.7,3.6-2,4.8c-1.3,1.2-3.1,1.8-5.2,1.8c-2.2,0-3.9-0.6-5.2-1.9c-1.3-1.2-2-2.9-1.9-5L344.3,475.4z M349.1,477.2
					c0,0.8,0.2,1.4,0.6,1.9s1,0.7,1.8,0.7c1.6,0,2.3-1,2.4-2.9v-1.3c0-0.8-0.2-1.4-0.6-1.9s-1-0.8-1.8-0.8c-0.7,0-1.3,0.2-1.7,0.7
					c-0.4,0.5-0.7,1.1-0.7,2L349.1,477.2z M352.7,499.2l-3.5-1.8l16.1-25.2l3.5,1.8L352.7,499.2z M359.5,493.8c0-2,0.7-3.6,2-4.8
					c1.3-1.2,3.1-1.8,5.3-1.8c2.2,0,4,0.6,5.3,1.9c1.3,1.2,1.9,2.9,1.9,5.1v1.6c0,2-0.7,3.6-2,4.8c-1.3,1.2-3.1,1.8-5.3,1.8
					c-2.2,0-3.9-0.6-5.2-1.9c-1.3-1.2-2-2.9-1.9-5L359.5,493.8z M364.3,495.5c0,0.7,0.2,1.3,0.7,1.8s1,0.8,1.7,0.8
					c1.4,0,2.2-0.7,2.4-2v-2.3c0-0.8-0.2-1.4-0.6-1.9s-1-0.7-1.8-0.7c-0.7,0-1.3,0.2-1.7,0.7c-0.4,0.4-0.7,1.1-0.7,1.8V495.5z"/>
				<path class="st1" d="M394,499.5c1.5,0.8,3.5,1.2,6.1,1.5c1.7,0.2,9.9,1.3,12,1.5c-0.5,0.6-1.1,1.7-1.4,2.5l-10.9-1.4
					c-5.7-0.7-9-2-10.7-5.8c-0.6,2-1.3,3.8-2.2,5.2c-0.4-0.4-1.5-1.1-2.1-1.5c1.9-2.7,2.8-7.2,3.5-12.2l2.4,0.5
					c-0.2,1.3-0.4,2.6-0.6,3.7c0.3,1.8,0.9,3.1,1.7,4.1l1.2-9.8l-5.7-0.7l0.3-2.3l5.1,0.7l0.4-3.2l-4.4-0.6l0.3-2.3l4.4,0.6l0.4-3
					l2.5,0.3l-0.4,3l4,0.5l-0.3,2.3l-4-0.5l-0.4,3.2l4.7,0.6l-0.3,2.3l-4.2-0.5L395,492l3.9,0.5l-0.3,2.3l-3.9-0.5L394,499.5z
					 M403.5,499.8c-2.9-0.4-3.7-1.3-3.3-4.4l2-16.1l10.7,1.4l-1.3,10.5l-8.2-1l-0.7,5.7c-0.2,1.3,0,1.5,1.4,1.7l4.4,0.6
					c1.1,0.1,1.5-0.5,2-3.6c0.5,0.5,1.5,1.1,2.2,1.3c-0.8,3.9-1.7,5.1-4.3,4.7L403.5,499.8z M404.5,482l-0.7,5.8l5.6,0.7l0.7-5.8
					L404.5,482z"/>
			</g>
		</g>
	</g>
	<g>
		<path class="st2" d="M82.9,35.4c2.1,2,4.7,4.8,6,6.6l-2.8,2.6c-0.4-0.7-1-1.5-1.7-2.3c-6.3,3.9-7.4,4.7-8.1,5.5
			c-0.5-0.9-1.5-2.5-2.2-3.2c0.6-0.5,1.1-1.3,0.8-2.4l-5-19.7l12.3-3.1l3.7,14.5l-8.8,2.2l1.5,5.8l3.6-2.1c-0.7-0.7-1.4-1.5-2-2.1
			L82.9,35.4z M74.3,24.7l0.6,2.5l5.3-1.3l-0.6-2.5L74.3,24.7z M81.7,31.7L81,29l-5.3,1.3l0.7,2.7L81.7,31.7z M98.7,33.4
			c0.4,1.6,0.4,2.6-0.5,3.4c-0.8,0.8-2.1,1.2-4,1.6c-0.4-0.9-1.1-2.2-1.8-3c1.1-0.2,2.2-0.5,2.5-0.6c0.4-0.1,0.5-0.2,0.4-0.6
			l-3.4-13.6l-3.5,0.9L94,44l-3.5,0.9L84,19.2l10.5-2.7L98.7,33.4z"/>
		<path class="st2" d="M126.4,10.3l4.9,25.5l-3.8,0.7l-0.4-1.9l-13.2,2.5l0.4,1.9l-3.7,0.7l-4.9-25.6L126.4,10.3z M110.1,17.1
			l1.2,6.4l13.2-2.5l-1.2-6.4L110.1,17.1z M126.4,31.1l-1.3-6.7L112,27l1.3,6.7L126.4,31.1z"/>
		<path class="st2" d="M148.6,28.7c1.7,0.3,3.7,0.2,6.1-0.1c2.3-0.3,10.2-1.3,12.9-1.8c-0.4,0.9-0.8,2.6-0.9,3.7L155.1,32
			c-5.5,0.7-9.2,0.5-12-2.6c0,2.1-0.2,3.9-0.7,5.5c-0.7-0.3-2.4-0.9-3.2-1.1c1.1-3.2,0.7-8.3,0.1-13.4l3.3-0.2
			c0.1,1.3,0.3,2.6,0.4,3.9c0.6,1.3,1.3,2.2,2.1,3l-1.2-9l-5.8,0.8l-0.4-3.1l5.1-0.7l-0.4-2.8l-4.2,0.6l-0.4-3.1l4.2-0.6l-0.4-2.9
			l3.4-0.4l0.4,2.9l4-0.5l0.4,3.1l-4,0.5l0.4,2.8l4.7-0.6l0.4,3.1l-4,0.5l0.4,3.2l3.8-0.5l0.4,3.1l-3.8,0.5L148.6,28.7z M158.2,26.7
			c-3.4,0.4-4.6-0.4-5.1-4.2L151,6l11.6-1.5l1.5,11.4L156,17l0.7,5.1c0.2,1.4,0.4,1.6,1.7,1.4l3.9-0.5c1.1-0.2,1.3-0.9,1-4.1
			c0.8,0.5,2.3,0.9,3.3,1c0.2,4.3-0.6,5.9-3.6,6.3L158.2,26.7z M154.8,8.6l0.7,5.2l4.7-0.6L159.5,8L154.8,8.6z"/>
		<path class="st2" d="M195.8,14.6c-0.5-0.6-1.1-1.2-1.8-1.9c-15.3,1.9-17.3,2.1-18.7,2.6c-0.2-0.7-1-2.4-1.4-3.3
			c0.7-0.2,1.3-0.7,2-1.5c0.6-0.6,1.9-2.2,3.1-4.1L172.3,7L172,3.7l25.5-2l0.3,3.3l-14.1,1.1c-1.2,1.9-2.5,3.6-3.9,5.1l11-1.2
			c-1-0.8-2.1-1.6-3-2.2l2.7-2.2c2.8,1.8,6.5,4.5,8.3,6.5L195.8,14.6z M200.3,24l0.3,3.3l-27.3,2.2l-0.3-3.3l11.6-0.9l-0.3-4.2
			l-8.9,0.7l-0.3-3.3l8.9-0.7l-0.2-3l3.7-0.3l0.2,3l9.1-0.7l0.3,3.3l-9.1,0.7l0.3,4.2L200.3,24z"/>
		<path class="st2" d="M228.8,25.9l-16.9,0.5l-0.1-2.9l8.1-9.4c1.2-1.4,2-2.5,2.5-3.4s0.7-1.8,0.7-2.7c0-1.2-0.4-2.1-1.1-2.9
			c-0.7-0.7-1.6-1.1-2.7-1c-1.4,0-2.4,0.5-3.1,1.3c-0.7,0.8-1.1,2-1,3.4L210.9,9c0-1.5,0.3-2.9,0.9-4.2c0.7-1.2,1.6-2.2,2.9-2.9
			c1.3-0.7,2.8-1.1,4.4-1.2c2.4-0.1,4.4,0.5,5.8,1.7c1.4,1.2,2.2,2.8,2.3,5c0,1.3-0.3,2.6-0.9,4c-0.7,1.4-1.8,3-3.3,4.8l-5.9,6.7
			l11.6-0.4L228.8,25.9z"/>
		<path class="st2" d="M249.6,15.3c0,3.6-0.7,6.3-2.1,8.1c-1.4,1.8-3.4,2.7-6.2,2.7c-2.7,0-4.7-0.9-6.1-2.7c-1.4-1.8-2-4.4-2-7.9
			v-4.3c0-3.6,0.7-6.3,2.1-8.1c1.4-1.8,3.4-2.7,6.2-2.7c2.7,0,4.8,0.9,6.1,2.7s2,4.4,2,7.9V15.3z M245.4,10.6c0-2.4-0.3-4.1-0.9-5.2
			c-0.6-1.1-1.7-1.7-3.1-1.7c-1.4,0-2.4,0.5-3,1.5s-1,2.7-1.1,4.9v5.7c0,2.3,0.3,4.1,0.9,5.2c0.6,1.2,1.7,1.7,3.1,1.7
			c1.3,0,2.3-0.5,3-1.6s1-2.7,1.1-5V10.6z"/>
		<path class="st2" d="M271.3,26.4l-16.9-0.5l0.1-2.9l8.6-8.8c1.2-1.3,2.1-2.4,2.7-3.3c0.5-0.9,0.8-1.8,0.9-2.7
			c0-1.2-0.3-2.2-0.9-2.9c-0.6-0.8-1.5-1.2-2.7-1.2c-1.4,0-2.4,0.3-3.2,1.1c-0.8,0.8-1.2,1.9-1.2,3.4l-4.2-0.1
			c0-1.5,0.4-2.9,1.2-4.1c0.7-1.2,1.8-2.1,3.1-2.8c1.3-0.6,2.8-0.9,4.5-0.9c2.4,0.1,4.3,0.7,5.7,2c1.4,1.3,2,3,1.9,5.1
			c0,1.3-0.4,2.6-1.2,3.9c-0.7,1.3-2,2.9-3.6,4.6l-6.3,6.4l11.6,0.4L271.3,26.4z"/>
		<path class="st2" d="M281.4,12.5l2.5,0.2c1.3,0.1,2.3-0.2,3.1-0.8s1.2-1.5,1.3-2.8c0.1-1.2-0.2-2.1-0.8-2.8
			c-0.6-0.7-1.5-1.1-2.8-1.2c-1.1-0.1-2.1,0.2-2.8,0.8c-0.8,0.6-1.2,1.4-1.2,2.5l-4.2-0.3c0.1-1.3,0.5-2.4,1.2-3.4s1.8-1.8,3-2.3
			s2.6-0.7,4.2-0.6c2.5,0.2,4.4,0.9,5.8,2.3c1.3,1.3,2,3.1,1.8,5.4c-0.1,1.1-0.5,2.2-1.3,3.1c-0.8,0.9-1.8,1.6-2.9,2.1
			c1.3,0.6,2.3,1.4,3,2.4c0.7,1.1,0.9,2.3,0.8,3.7c-0.1,2.2-1,4-2.7,5.2s-3.7,1.8-6.2,1.6c-2.4-0.2-4.3-0.9-5.8-2.3s-2.1-3.1-2-5.3
			l4.2,0.3c-0.1,1.1,0.2,2,0.9,2.8c0.7,0.7,1.7,1.1,2.9,1.2c1.3,0.1,2.3-0.2,3.1-0.8c0.8-0.6,1.2-1.6,1.3-2.9c0.1-1.3-0.2-2.4-1-3.1
			c-0.7-0.8-1.9-1.2-3.4-1.3l-2.5-0.2L281.4,12.5z"/>
		<path class="st2" d="M299.9,29l-2.8-0.3l10.6-22.5l2.8,0.3L299.9,29z"/>
		<path class="st2" d="M325.5,31.1l-4.1-0.5l2.5-20l-6.4,1.3l0.4-3.5L328.1,6l0.5,0.1L325.5,31.1z"/>
		<path class="st2" d="M351.9,35.1l-16.7-2.6l0.5-2.8l9.7-7.7c1.4-1.1,2.4-2.1,3.1-2.9c0.6-0.8,1-1.7,1.2-2.6c0.2-1.2,0-2.2-0.5-3
			s-1.4-1.3-2.5-1.5c-1.3-0.2-2.4,0-3.3,0.7s-1.4,1.8-1.6,3.2l-4.1-0.7c0.2-1.5,0.8-2.8,1.7-3.9s2-1.9,3.4-2.3
			c1.4-0.5,2.9-0.6,4.6-0.3c2.4,0.4,4.2,1.3,5.4,2.7c1.2,1.4,1.6,3.2,1.3,5.3c-0.2,1.2-0.8,2.5-1.7,3.7s-2.3,2.6-4.2,4.1L341,30
			l11.5,1.8L351.9,35.1z"/>
		<path class="st2" d="M359.2,37l-2.8-0.5l12.7-21.3l2.8,0.5L359.2,37z"/>
		<path class="st2" d="M389.8,43l-16.4-3.8l0.6-2.8l10.2-7c1.5-1,2.6-1.9,3.3-2.7c0.7-0.8,1.1-1.6,1.4-2.5c0.3-1.2,0.2-2.2-0.3-3
			c-0.5-0.9-1.3-1.4-2.4-1.7c-1.3-0.3-2.4-0.1-3.3,0.5s-1.5,1.7-1.8,3.1l-4.1-0.9c0.3-1.5,1-2.8,1.9-3.8c1-1,2.1-1.7,3.5-2.1
			s2.9-0.4,4.6,0c2.4,0.5,4.1,1.6,5.2,3.1s1.4,3.3,0.9,5.4c-0.3,1.2-0.9,2.4-1.9,3.6s-2.5,2.4-4.4,3.8l-7.4,5l11.4,2.6L389.8,43z"/>
		<path class="st2" d="M408.2,37c-1.7,1.1-3.5,1.3-5.3,0.9c-2.1-0.6-3.6-1.8-4.5-3.6s-1-4-0.3-6.4c0.4-1.6,1.1-3,2.1-4.1
			s2.2-1.9,3.6-2.3s2.9-0.4,4.4,0c2.4,0.7,4.1,2.1,5.1,4.3c0.9,2.2,1,4.8,0.2,7.9l-0.3,1.1c-1.2,4.4-3.1,7.4-5.7,9.2
			s-5.9,2.1-9.8,1.1l-0.5-0.1l0.9-3.3l0.6,0.2c2.4,0.6,4.4,0.5,6-0.2S407.4,39.3,408.2,37z M404.6,34.9c0.8,0.2,1.6,0.2,2.5-0.1
			c0.8-0.3,1.6-0.8,2.2-1.5l0.4-1.6c0.5-1.8,0.5-3.3,0.1-4.6s-1.2-2.1-2.4-2.4c-1.2-0.3-2.2-0.1-3.2,0.7c-1,0.8-1.6,1.9-2,3.4
			s-0.4,2.8,0.1,4C402.6,33.9,403.4,34.6,404.6,34.9z"/>
	</g>
	<rect x="41.1" y="28.4" transform="matrix(0.6684 -0.7438 0.7438 0.6684 -19.0082 46.4793)" class="st2" width="3" height="32.4"/>
	
		<rect x="431.8" y="43.1" transform="matrix(0.7437 -0.6685 0.6685 0.7437 85.0274 310.9309)" class="st2" width="32.4" height="3"/>
</g>
</svg>
