<?xml version="1.0" encoding="utf-8"?>
<!-- Generator: Adobe Illustrator 28.0.0, SVG Export Plug-In . SVG Version: 6.00 Build 0)  -->
<svg version="1.1" id="圖層_1" xmlns="http://www.w3.org/2000/svg" xmlns:xlink="http://www.w3.org/1999/xlink" x="0px" y="0px"
	 viewBox="0 0 546 628" style="enable-background:new 0 0 546 628;" xml:space="preserve">
<style type="text/css">
	.st0{fill:#1D2344;}
	.st1{fill:#EEB41C;}
	.st2{fill:#0067E2;}
	.st3{fill:#00A988;}
	.st4{fill:#E84D24;}
	.st5{fill:#FFFFFF;}
	.st6{fill:#F38E9E;}
	.st7{fill:none;stroke:#E7E6DE;stroke-width:6.4049;stroke-linecap:round;stroke-linejoin:round;stroke-miterlimit:10;}
	.st8{fill:#E8E5DB;}
</style>
<g>
	<path class="st0" d="M355.76,295.23v36.38h26.17C381.93,311.52,370.22,295.23,355.76,295.23z"/>
	<path class="st0" d="M321.98,295.23v36.38h26.17C348.15,311.52,336.44,295.23,321.98,295.23z"/>
	<path class="st0" d="M288.2,295.23v36.38h26.17C314.37,311.52,302.66,295.23,288.2,295.23z"/>
	<rect x="221.08" y="328.45" class="st1" width="180.21" height="125.97"/>
	<path class="st2" d="M401.04,454.42V328.45h125.97C527.01,398.02,470.61,454.42,401.04,454.42z"/>
	<g>
		<path class="st0" d="M498.5,158.61l-20.77,29.87l-21.49-14.94C467.72,157.05,486.64,150.36,498.5,158.61z"/>
		<path class="st0" d="M525.7,185.52l-26.29,25.15l-18.09-18.91C495.84,177.87,515.71,175.07,525.7,185.52z"/>
		<path class="st0" d="M545.97,220.72l-32.14,17.05l-12.26-23.12C519.32,205.23,539.2,207.95,545.97,220.72z"/>
	</g>
	<g>
		<path class="st0" d="M320.71,470.01v36.38h26.17C346.88,486.3,335.17,470.01,320.71,470.01z"/>
		<path class="st0" d="M287.01,470.01v36.38h26.17C313.18,486.3,301.46,470.01,287.01,470.01z"/>
		<path class="st0" d="M253.3,470.01v36.38h26.17C279.47,486.3,267.75,470.01,253.3,470.01z"/>
		<path class="st0" d="M354.42,470.01v36.38h26.17C380.59,486.3,368.87,470.01,354.42,470.01z"/>
	</g>
	<g>
		<path class="st3" d="M122.34,401.8l-26.59-24.65c-0.43-0.35-0.7-0.87-0.72-1.43l-4.84-42.58c-0.03-0.71-0.44-1.34-1.07-1.66
			l-7.16-4.78c-0.35-0.18-4.74-0.89-5.13-0.84l-6.14,2.31c-1.69,0.22,2.05,6.07,3.35,7.18l4.24,4.1c0.44,0.37,0.69,0.92,0.69,1.49
			l0.59,25.04c0,2.25-0.67,5.62-1.35,3.48l-14.19-22.03c-0.13-0.41-0.39-0.77-0.75-1.02l-8.41-5.37c-0.85-0.59-4.41-1.33-5.06-0.53
			l-4.77,4.21c-0.59,0.74,1.93,4.66,2.54,5.37l7.35,6.35c0.16,0.19,0.29,0.41,0.37,0.65l10.72,27.08c0.23,0.68,0.07,1.44-0.42,1.96
			l-19.95,21.53c-0.43,0.54-0.95,1.08-1.77,0.69l-5.84-5.95c-1.75-0.11-7.68,7.97-6.52,9.28l10.64,12.17
			c0.66,0.75,1.79,0.88,2.61,0.3l30.75-22.97c0.61-0.43,1.41-0.48,2.07-0.13l37.97,30.57c1.24,0.66,7.5-28.11,7.5-28.11
			C123.11,402.86,122.85,402.22,122.34,401.8z"/>
		<path class="st0" d="M32.76,340.79l14.86,9.45l7.24-9.19C47.43,337.03,35.9,337.13,32.76,340.79z"/>
		<path class="st0" d="M27.48,390.26l11.63,13.22l-7.67,8.15C26.04,405.76,23.76,395.31,27.48,390.26z"/>
		<path class="st0" d="M59.65,327.34l14.92,8.53l7.38-9.18C74.52,322.68,62.8,323.68,59.65,327.34z"/>
	</g>
	<rect x="221.08" y="328.45" class="st0" width="54.15" height="125.97"/>
	
		<rect x="221.08" y="502.01" transform="matrix(-1 -1.224647e-16 1.224647e-16 -1 622.3682 1129.9933)" class="st4" width="180.21" height="125.97"/>
	
		<rect x="347.14" y="502.01" transform="matrix(-1 -1.224647e-16 1.224647e-16 -1 748.4352 1129.9933)" class="st2" width="54.15" height="125.97"/>
	<rect x="221.08" y="154.68" class="st3" width="180.21" height="125.97"/>
	
		<rect x="440.12" y="241.56" transform="matrix(6.123234e-17 -1 1 6.123234e-17 159.4854 768.5712)" class="st1" width="47.82" height="125.97"/>
	<path class="st4" d="M527.01,280.65H401.04V154.68C470.61,154.68,527.01,211.08,527.01,280.65z"/>
	<g>
		<g>
			<g>
				<g>
					<path class="st1" d="M284.79,502.01c-0.17,33.64-28.09,61.2-63.71,64.18c34.77,2.91,62.14,29.26,63.58,61.81h0.26
						c1.42-32.03,27.95-58.05,61.93-61.65v-0.32C312.03,562.35,284.96,535.13,284.79,502.01z"/>
				</g>
			</g>
		</g>
	</g>
	<g>
		<g>
			<g>
				<g>
					<path class="st4" d="M427.24,303.14C427.24,303.14,427.24,303.14,427.24,303.14c6.07,0,11-4.92,11-11c0,0,0,0,0,0
						C432.16,292.14,427.24,297.06,427.24,303.14z"/>
					<path class="st4" d="M423.07,303.14C423.07,303.14,423.07,303.14,423.07,303.14c-6.07,0-11-4.92-11-11c0,0,0,0,0,0
						C418.15,292.14,423.07,297.06,423.07,303.14z"/>
					<path class="st4" d="M423.07,306.35C423.07,306.35,423.07,306.35,423.07,306.35c-6.07,0-11,4.92-11,11c0,0,0,0,0,0
						C418.15,317.35,423.07,312.43,423.07,306.35z"/>
					<path class="st4" d="M427.24,306.35C427.24,306.35,427.24,306.35,427.24,306.35c6.07,0,11,4.92,11,11c0,0,0,0,0,0
						C432.16,317.35,427.24,312.43,427.24,306.35z"/>
				</g>
			</g>
		</g>
		<g>
			<g>
				<g>
					<path class="st4" d="M467.12,303.14C467.12,303.14,467.12,303.14,467.12,303.14c6.07,0,11-4.92,11-11c0,0,0,0,0,0
						C472.04,292.14,467.12,297.06,467.12,303.14z"/>
					<path class="st4" d="M462.96,303.14C462.96,303.14,462.96,303.14,462.96,303.14c-6.07,0-11-4.92-11-11c0,0,0,0,0,0
						C458.03,292.14,462.96,297.06,462.96,303.14z"/>
					<path class="st4" d="M462.96,306.35C462.96,306.35,462.96,306.35,462.96,306.35c-6.07,0-11,4.92-11,11c0,0,0,0,0,0
						C458.03,317.35,462.96,312.43,462.96,306.35z"/>
					<path class="st4" d="M467.12,306.35C467.12,306.35,467.12,306.35,467.12,306.35c6.07,0,11,4.92,11,11c0,0,0,0,0,0
						C472.04,317.35,467.12,312.43,467.12,306.35z"/>
				</g>
			</g>
		</g>
		<g>
			<g>
				<g>
					<path class="st4" d="M507,303.14C507,303.14,507,303.14,507,303.14c6.07,0,11-4.92,11-11c0,0,0,0,0,0
						C511.93,292.14,507,297.06,507,303.14z"/>
					<path class="st4" d="M502.84,303.14C502.84,303.14,502.84,303.14,502.84,303.14c-6.07,0-11-4.92-11-11c0,0,0,0,0,0
						C497.91,292.14,502.84,297.06,502.84,303.14z"/>
					<path class="st4" d="M502.84,306.35C502.84,306.35,502.84,306.35,502.84,306.35c-6.07,0-11,4.92-11,11c0,0,0,0,0,0
						C497.91,317.35,502.84,312.43,502.84,306.35z"/>
					<path class="st4" d="M507,306.35C507,306.35,507,306.35,507,306.35c6.07,0,11,4.92,11,11c0,0,0,0,0,0
						C511.93,317.35,507,312.43,507,306.35z"/>
				</g>
			</g>
		</g>
	</g>
	<g>
		<g>
			<g>
				<g>
					<g>
						<path class="st4" d="M334.8,431.87c-4.63,0-9.26-1.75-12.76-5.25c-1.54-1.54-2.78-3.34-3.68-5.35
							c-9.38-0.63-16.86-8.53-16.86-18.03c0-2.2,0.4-4.35,1.18-6.4c-6.17-7.08-5.88-17.94,0.83-24.65c1.54-1.54,3.34-2.78,5.35-3.68
							c0.63-9.38,8.52-16.86,18.03-16.86c2.2,0,4.35,0.4,6.41,1.18c7.08-6.17,17.94-5.88,24.65,0.83c1.54,1.54,2.78,3.34,3.68,5.35
							c9.38,0.63,16.86,8.53,16.86,18.03c0,2.2-0.39,4.35-1.18,6.4c6.17,7.08,5.88,17.94-0.83,24.65c-1.54,1.54-3.34,2.78-5.35,3.68
							c-0.63,9.38-8.52,16.86-18.03,16.86c-2.2,0-4.35-0.4-6.4-1.18C343.3,430.4,339.05,431.87,334.8,431.87z"/>
					</g>
				</g>
				<path class="st5" d="M347.98,390.13c0-2.18-1.64-3.98-3.75-4.25c-0.26-2.11-2.06-3.75-4.25-3.75c-2.18,0-3.98,1.64-4.25,3.75
					c-2.11,0.26-3.75,2.06-3.75,4.25c0,2.18,1.64,3.98,3.75,4.25c0.26,2.11,2.06,3.75,4.25,3.75c2.18,0,3.98-1.64,4.25-3.75
					C346.35,394.12,347.98,392.32,347.98,390.13z"/>
			</g>
		</g>
	</g>
	<g>
		<path class="st1" d="M524.78,257.09c-0.36,1.05-0.61,2.15-0.7,3.3c0.01,0.16,0.06,0.31,0.07,0.48h1.31
			C525.26,259.61,525.02,258.35,524.78,257.09z"/>
		<path class="st1" d="M510.43,247.75c-7.22,0-13.08,5.57-13.65,12.64c0.01,0.16,0.06,0.32,0.07,0.48h27.16h0.14
			c-0.01-0.16-0.06-0.32-0.07-0.48C523.51,253.33,517.64,247.75,510.43,247.75z"/>
		<path class="st1" d="M483.13,247.75c-7.22,0-13.08,5.58-13.65,12.65c0.01,0.16,0.06,0.31,0.07,0.48h27.16h0.14
			c-0.01-0.16-0.06-0.32-0.07-0.48C496.21,253.33,490.34,247.75,483.13,247.75z"/>
		<path class="st1" d="M455.83,247.75c-7.22,0-13.08,5.57-13.65,12.64c0.01,0.16,0.06,0.32,0.07,0.48h27.16h0.14
			c-0.01-0.16-0.06-0.32-0.07-0.48C468.91,253.33,463.05,247.75,455.83,247.75z"/>
		<path class="st1" d="M428.53,247.75c-7.22,0-13.08,5.58-13.65,12.65c0.01,0.16,0.06,0.31,0.07,0.48h27.16h0.14
			c-0.01-0.16-0.06-0.32-0.07-0.48C441.61,253.33,435.75,247.75,428.53,247.75z"/>
		<path class="st1" d="M401.23,247.75c-0.06,0-0.12,0.02-0.19,0.02v13.11h13.77h0.14c-0.01-0.16-0.06-0.32-0.07-0.48
			C414.31,253.33,408.45,247.75,401.23,247.75z"/>
		<path class="st6" d="M514.64,226.14c-2.12-4.42-4.53-8.68-7.13-12.79c-5.83,1.27-10.24,6.23-10.73,12.31
			c0.01,0.16,0.06,0.32,0.07,0.48H514.64z"/>
		<path class="st6" d="M496.71,226.14h0.14c-0.01-0.16-0.06-0.32-0.07-0.48c-0.57-7.07-6.43-12.64-13.65-12.64
			c-7.22,0-13.08,5.58-13.65,12.65c0.01,0.16,0.06,0.31,0.07,0.48H496.71z"/>
		<path class="st6" d="M469.41,226.14h0.14c-0.01-0.16-0.06-0.32-0.07-0.48c-0.57-7.07-6.43-12.65-13.65-12.65
			c-7.22,0-13.08,5.57-13.65,12.64c0.01,0.16,0.06,0.32,0.07,0.48H469.41z"/>
		<path class="st6" d="M442.11,226.14h0.14c-0.01-0.16-0.06-0.32-0.07-0.48c-0.57-7.07-6.43-12.64-13.65-12.64
			c-7.22,0-13.08,5.58-13.65,12.65c0.01,0.16,0.06,0.31,0.07,0.48H442.11z"/>
		<path class="st6" d="M414.95,226.14c-0.01-0.16-0.06-0.32-0.07-0.48c-0.57-7.07-6.43-12.65-13.65-12.65
			c-0.06,0-0.12,0.02-0.19,0.02v13.11h13.77H414.95z"/>
		<path class="st1" d="M489.94,191.4c-4.13-4.12-8.56-7.95-13.23-11.47c-4.02,2.15-6.85,6.2-7.23,10.99
			c0.01,0.16,0.06,0.31,0.07,0.48H489.94z"/>
		<path class="st1" d="M469.41,191.4h0.14c-0.01-0.16-0.06-0.32-0.07-0.48c-0.57-7.07-6.43-12.65-13.65-12.65
			c-7.22,0-13.08,5.57-13.65,12.64c0.01,0.16,0.06,0.32,0.07,0.48H469.41z"/>
		<path class="st1" d="M442.11,191.4h0.14c-0.01-0.16-0.06-0.32-0.07-0.48c-0.57-7.07-6.43-12.64-13.65-12.64
			c-7.22,0-13.08,5.58-13.65,12.65c0.01,0.16,0.06,0.31,0.07,0.48H442.11z"/>
		<path class="st1" d="M401.04,191.4h13.77h0.14c-0.01-0.16-0.06-0.32-0.07-0.48c-0.57-7.07-6.43-12.65-13.65-12.65
			c-0.06,0-0.12,0.02-0.19,0.02V191.4z"/>
	</g>
	<g>
		<path class="st4" d="M95.11,454.42h125.97V328.45C151.51,328.45,95.11,384.85,95.11,454.42z"/>
		<g>
			<path class="st1" d="M97.34,430.87c-0.24,1.26-0.48,2.51-0.68,3.78h1.31c0.01-0.16,0.06-0.32,0.07-0.48
				C97.96,433.02,97.7,431.92,97.34,430.87z"/>
			<path class="st1" d="M111.7,421.53c-7.22,0-13.08,5.58-13.65,12.65c-0.01,0.16-0.06,0.31-0.07,0.48h0.14h27.16
				c0.01-0.16,0.06-0.32,0.07-0.48C124.78,427.1,118.91,421.53,111.7,421.53z"/>
			<path class="st1" d="M139,421.53c-7.22,0-13.08,5.57-13.65,12.64c-0.01,0.16-0.06,0.32-0.07,0.48h0.14h27.16
				c0.01-0.16,0.06-0.32,0.07-0.48C152.08,427.1,146.21,421.53,139,421.53z"/>
			<path class="st1" d="M166.3,421.53c-7.22,0-13.08,5.58-13.65,12.65c-0.01,0.16-0.06,0.31-0.07,0.48h0.14h27.16
				c0.01-0.16,0.06-0.32,0.07-0.48C179.38,427.1,173.51,421.53,166.3,421.53z"/>
			<path class="st1" d="M193.59,421.53c-7.22,0-13.08,5.58-13.65,12.65c-0.01,0.16-0.06,0.31-0.07,0.48h0.14h27.16
				c0.01-0.16,0.06-0.32,0.07-0.48C206.67,427.1,200.81,421.53,193.59,421.53z"/>
			<path class="st1" d="M221.08,421.55c-0.06,0-0.12-0.02-0.19-0.02c-7.22,0-13.08,5.58-13.65,12.65c-0.01,0.16-0.06,0.31-0.07,0.48
				h0.14h13.77V421.55z"/>
			<path class="st6" d="M114.62,387.12c-2.61,4.12-5.01,8.37-7.13,12.79h17.79c0.01-0.16,0.06-0.32,0.07-0.48
				C124.86,393.35,120.45,388.39,114.62,387.12z"/>
			<path class="st6" d="M139,386.79c-7.22,0-13.08,5.57-13.65,12.64c-0.01,0.16-0.06,0.32-0.07,0.48h0.14h27.16
				c0.01-0.16,0.06-0.32,0.07-0.48C152.08,392.37,146.21,386.79,139,386.79z"/>
			<path class="st6" d="M166.3,386.79c-7.22,0-13.08,5.58-13.65,12.65c-0.01,0.16-0.06,0.31-0.07,0.48h0.14h27.16
				c0.01-0.16,0.06-0.32,0.07-0.48C179.38,392.37,173.51,386.79,166.3,386.79z"/>
			<path class="st6" d="M193.59,386.79c-7.22,0-13.08,5.58-13.65,12.65c-0.01,0.16-0.06,0.31-0.07,0.48h0.14h27.16
				c0.01-0.16,0.06-0.32,0.07-0.48C206.67,392.37,200.81,386.79,193.59,386.79z"/>
			<path class="st6" d="M220.89,386.79c-7.22,0-13.08,5.58-13.65,12.65c-0.01,0.16-0.06,0.31-0.07,0.48h0.14h13.77v-13.11
				C221.02,386.81,220.96,386.79,220.89,386.79z"/>
			<path class="st1" d="M145.42,353.71c-4.67,3.52-9.09,7.35-13.23,11.47h20.39c0.01-0.16,0.06-0.32,0.07-0.48
				C152.26,359.91,149.44,355.86,145.42,353.71z"/>
			<path class="st1" d="M166.3,352.05c-7.22,0-13.08,5.58-13.65,12.65c-0.01,0.16-0.06,0.31-0.07,0.48h0.14h27.16
				c0.01-0.16,0.06-0.32,0.07-0.48C179.38,357.63,173.51,352.05,166.3,352.05z"/>
			<path class="st1" d="M193.59,352.05c-7.22,0-13.08,5.58-13.65,12.65c-0.01,0.16-0.06,0.32-0.07,0.48h0.14h27.16
				c0.01-0.16,0.06-0.32,0.07-0.48C206.67,357.63,200.81,352.05,193.59,352.05z"/>
			<path class="st1" d="M220.89,352.05c-7.22,0-13.08,5.58-13.65,12.65c-0.01,0.16-0.06,0.32-0.07,0.48h0.14h13.77v-13.11
				C221.02,352.07,220.96,352.05,220.89,352.05z"/>
		</g>
	</g>
	<g>
		<path class="st2" d="M221.08,502.01v-47.59H95.11v47.82h0.01c0.12,69.47,56.47,125.74,125.96,125.74L221.08,502.01L221.08,502.01z
			"/>
		<g>
			<path class="st0" d="M95.11,480.34h91.48c9.73,0,13.03-4.11,13.03-11.95H95.11V480.34z"/>
			<path class="st0" d="M177.76,492.02H95.11v10.22h0.01c0,0.58,0.04,1.15,0.05,1.73h69.56
				C174.46,503.97,177.76,499.86,177.76,492.02z"/>
			<path class="st0" d="M95.87,515.65c0.44,4.04,1.05,8.03,1.86,11.95h88.86c9.73,0,13.03-4.11,13.03-11.95H95.87z"/>
			<path class="st0" d="M164.73,551.22c9.73,0,13.03-4.11,13.03-11.95h-77.01c1.26,4.07,2.72,8.06,4.37,11.95H164.73z"/>
			<path class="st0" d="M199.62,562.9h-88.78c2.29,4.13,4.82,8.11,7.55,11.95h68.2C196.32,574.85,199.62,570.74,199.62,562.9z"/>
			<path class="st0" d="M177.76,586.53h-50.01c3.87,4.26,8.03,8.25,12.44,11.95h24.54C174.46,598.48,177.76,594.37,177.76,586.53z"
				/>
		</g>
	</g>
	<g>
		<g>
			<path class="st2" d="M15.6,133.55c-1.44,0-2.68-1.08-2.84-2.54c-1.68-15.09-1.36-26.59,5.62-33.7c6.34-6.46,17.76-8.68,35.88-7
				c34.02,1.61,61.47,0.47,71.45-3.01c7.52-2.62,16.87-15.03,20.2-33.67c0.28-1.56,1.79-2.59,3.32-2.31
				c1.56,0.28,2.59,1.76,2.31,3.32c-3.33,18.66-13.17,34.32-23.95,38.07c-10.79,3.76-38.34,5-73.73,3.31
				c-16.4-1.51-26.36,0.17-31.4,5.31c-5.4,5.5-5.51,15.6-4.02,29.06c0.17,1.57-0.96,2.98-2.53,3.16
				C15.82,133.55,15.71,133.55,15.6,133.55z"/>
		</g>
		<g>
			<path class="st2" d="M34.19,133.86c-1.58,0-2.86-1.28-2.86-2.86c0-3.24-0.12-6.77-0.24-10.47c-0.7-21.43-1.56-48.1,18.01-55.01
				c7.05-2.49,17.32-2.49,28.18-2.49c12.73,0,25.89-0.01,34.56-3.9c11.45-5.14,18.63-23.14,20.23-50.69
				c0.09-1.58,1.46-2.8,3.02-2.69c1.58,0.09,2.78,1.44,2.69,3.02c-1.75,30.21-9.91,49.43-23.59,55.58c-9.8,4.4-23.58,4.4-36.91,4.4
				c-10.37,0-20.15,0.01-26.28,2.17c-15.63,5.52-14.83,29.87-14.2,49.43c0.12,3.76,0.24,7.36,0.24,10.65
				C37.05,132.58,35.77,133.86,34.19,133.86z"/>
		</g>
		<path class="st2" d="M206.18,123.89v156.77h9.77c139.13,3.18,158.92-89.41,158.92-156.77H206.18z"/>
		<path class="st4" d="M303.56,193.65H275.3h-47.08v28.11h75.17c0.06,0,0.11,0.01,0.17,0.01c15.56,0,28.18-12.58,28.26-28.12H303.56
			z"/>
		<path class="st4" d="M301.82,160.62h-28.26h-39.09v28.11h67.18c0.06,0,0.11,0.01,0.17,0.01c15.56,0,28.18-12.58,28.26-28.12
			H301.82z"/>
		<path class="st4" d="M272.57,226.69h-28.26h-18.4v28.11h46.48c0.06,0,0.11,0.01,0.17,0.01c15.56,0,28.18-12.58,28.26-28.12H272.57
			z"/>
		<path class="st0" d="M230.68,115.45c13.19-4.89,80.93-45.1,118.96-83.72c10.1-11.09,20.51,21.77-3.36,46.85
			c-20.34,22.47-55.93,51.79-83.93,66.96c-1.95,0.49-60.06-1.24-60.06-1.24L230.68,115.45z"/>
		<path class="st0" d="M179.83,96.55c12.47-6.1,74.98-52.28,108.49-93.95c8.82-11.89,22.28,19.34,1.34,46.32
			c-17.74,24.07-49.78,56.37-75.76,74.04c-1.87,0.67-59.08,4.73-59.08,4.73L179.83,96.55z"/>
		<path class="st3" d="M154.54,227.23h-37.35v40.46c0,18.49,12.85,24.76,37.35,24.76V227.23z"/>
		<path class="st4" d="M117.66,227.23l-37.35,17.6v22.86c0,18.49,12.85,24.76,37.35,24.76V227.23z"/>
		<g>
			<path class="st4" d="M191.42,227.23h-37.35v40.46c0,18.49,12.85,24.76,37.35,24.76V227.23z"/>
			<path class="st7" d="M183.25,283.98c-19.25-1.49-21.01-8.54-21.01-16.3v-38.21"/>
		</g>
		<g>
			<path class="st7" d="M109.48,283.98c-19.25-1.49-21.01-8.54-21.01-16.3V235.4"/>
		</g>
		<g>
			<path class="st7" d="M146.37,283.98c-19.25-1.49-21.01-8.54-21.01-16.3v-38.21"/>
		</g>
		<path class="st3" d="M228.3,227.23h-37.35v40.46c0,18.49,12.85,24.76,37.35,24.76V227.23z"/>
		<g>
			<path class="st7" d="M220.13,283.98c-19.25-1.49-21.01-8.54-21.01-16.3v-38.21"/>
		</g>
		<path class="st5" d="M43.04,163.62H21.35v12.33c0,8.87,8.97,17.16,21.69,17.16V163.62z"/>
		<path class="st5" d="M113.76,163.62H92.07v12.33c0,8.87,8.97,17.16,21.69,17.16V163.62z"/>
		<path class="st5" d="M65.12,258.43H43.43V246.1c0-8.87,8.97-17.16,21.69-17.16V258.43z"/>
		<path class="st1" d="M276.22,164.11c14.94,0,27.06-12.08,27.14-27H51.95c-4.9-7.02-12.86-11.79-21.82-12.28
			c-16.47-0.89-30.1,12.2-30.1,28.47c0,2.58,0.36,5.07,1.01,7.45h13.82h41.21h110.35c1.12,9.93,3.78,47.98,3.23,47.61
			c-0.64-0.43-51.46,9.57-51.46,9.57L82.17,249.3H32.29c-0.8,2.75-1.25,3.94-1.25,6.95c0,17.1,13.86,30.96,30.96,30.96
			c12.91,0,23.96-7.9,28.61-19.13c10.42-15.01,26.23-37.78,71.6-36.53l80.24-0.64v-0.01c0,0,18.62,0.01,18.68,0.01
			c14.94,0,27.06-12.08,27.14-27l-48.6,0c-1.77,0-3.2-1.43-3.2-3.2c0-1.77,1.43-3.2,3.2-3.2c0,0,18.68,0.01,18.74,0.01
			c14.94,0,27.06-12.08,27.14-27l-45.88,0c-1.77,0-3.2-1.43-3.2-3.2c0-1.77,1.43-3.2,3.2-3.2
			C239.67,164.1,276.17,164.11,276.22,164.11z"/>
		<path class="st4" d="M184.83,177.48c0,0,18.86,0,18.89,0c9.16,0,16.59-7.41,16.64-16.56h-7.38v-0.17H1.04
			c0.92,3.38,2.43,6.51,4.43,9.27c1.84,2.52,4.75,4.05,7.87,4.05h14.29h20.42l107.38,0.02c5.61,0.24,10.09,4.86,10.09,10.53v10.05
			c0,5.83-4.72,10.43-10.55,10.43l-4.2,0.12c-33.63,1.75-59.37,15.12-72.93,38.04c-1.73,2.93-4.81,4.78-8.21,4.78h-38.5
			c-3.82,0-6.88,3.28-6.51,7.18c0.32,3.4,3.37,5.89,6.79,5.89h48.05c2.66,0,5.03-1.62,6.06-4.07
			c12.71-30.34,43.38-37.75,66.88-38.75l41.96,0.02c0.03,0,0.07,0.01,0.1,0.01c9.16,0,16.59-7.41,16.64-16.56l-26.27,0.01
			c-1.07,0-1.93-0.86-1.93-1.93c0-1.07,0.86-1.93,1.93-1.93c0,0,7.93-0.01,7.97-0.01c9.16,0,16.59-7.41,16.64-16.56l-24.6,0
			c-1.07,0-1.93-0.86-1.93-1.93C182.9,178.34,183.76,177.48,184.83,177.48z"/>
		<g>
			<path class="st2" d="M199.78,82.57c17.93,0.29,45.4,1.32,53.28-6.1c2.13,30.2-10.28,68.79-48.03,72.92"/>
			<path class="st2" d="M199.31,149.83h-23.22c-18.58,0-33.64-15.06-33.64-33.64v0c0-18.58,15.06-33.64,33.64-33.64h23.22
				c18.58,0,33.64,15.06,33.64,33.64v0C232.95,134.77,217.89,149.83,199.31,149.83z"/>
		</g>
		<g>
			<path class="st4" d="M180.9,103.2c13,0.2,32.94,0.92,38.65-4.24c1.54,20.99-7.46,47.8-34.85,50.68"/>
			<path class="st4" d="M181.58,149.94h-18.9c-12.91,0-23.38-10.47-23.38-23.38v0c0-12.91,10.47-23.38,23.38-23.38h18.9
				c12.91,0,23.38,10.47,23.38,23.38v0C204.96,139.48,194.5,149.94,181.58,149.94z"/>
		</g>
		
			<ellipse transform="matrix(0.7446 -0.6675 0.6675 0.7446 -48.071 146.0171)" class="st5" cx="166.78" cy="135.83" rx="18.39" ry="18.39"/>
		
			<ellipse transform="matrix(0.1674 -0.9859 0.9859 0.1674 -3.027 272.8402)" class="st0" cx="160.03" cy="138.21" rx="12" ry="12"/>
		<path class="st8" d="M14.4,147.28c2.18-5.68,7.69-9.71,14.13-9.71c6.43,0,11.94,4.04,14.12,9.71H14.4z"/>
	</g>
	<g>
		<path class="st0" d="M498.5,502.95l-20.77,29.87l-21.49-14.94C467.72,501.39,486.64,494.7,498.5,502.95z"/>
		<path class="st0" d="M525.7,529.86L499.4,555l-18.09-18.91C495.84,522.21,515.71,519.41,525.7,529.86z"/>
		<path class="st0" d="M545.97,565.05l-32.14,17.05l-12.26-23.12C519.32,549.57,539.2,552.29,545.97,565.05z"/>
	</g>
	<path class="st6" d="M401.04,502.01v125.97h125.97C527.01,558.41,470.61,502.01,401.04,502.01z"/>
	<g>
		<path class="st4" d="M524.78,604.43c-0.36,1.05-0.61,2.15-0.7,3.3c0.01,0.16,0.06,0.31,0.07,0.48h1.31
			C525.26,606.94,525.02,605.69,524.78,604.43z"/>
		<path class="st4" d="M510.43,595.09c-7.22,0-13.08,5.57-13.65,12.64c0.01,0.16,0.06,0.32,0.07,0.48h27.16h0.14
			c-0.01-0.16-0.06-0.32-0.07-0.48C523.51,600.66,517.64,595.09,510.43,595.09z"/>
		<path class="st4" d="M483.13,595.09c-7.22,0-13.08,5.58-13.65,12.65c0.01,0.16,0.06,0.31,0.07,0.48h27.16h0.14
			c-0.01-0.16-0.06-0.32-0.07-0.48C496.21,600.66,490.34,595.09,483.13,595.09z"/>
		<path class="st4" d="M455.83,595.09c-7.22,0-13.08,5.57-13.65,12.64c0.01,0.16,0.06,0.32,0.07,0.48h27.16h0.14
			c-0.01-0.16-0.06-0.32-0.07-0.48C468.91,600.66,463.05,595.09,455.83,595.09z"/>
		<path class="st4" d="M428.53,595.09c-7.22,0-13.08,5.58-13.65,12.65c0.01,0.16,0.06,0.31,0.07,0.48h27.16h0.14
			c-0.01-0.16-0.06-0.32-0.07-0.48C441.61,600.66,435.75,595.09,428.53,595.09z"/>
		<path class="st4" d="M401.23,595.09c-0.06,0-0.12,0.02-0.19,0.02v13.11h13.77h0.14c-0.01-0.16-0.06-0.32-0.07-0.48
			C414.31,600.66,408.45,595.09,401.23,595.09z"/>
		<path class="st4" d="M514.64,573.47c-2.12-4.42-4.53-8.68-7.13-12.79c-5.83,1.27-10.24,6.23-10.73,12.31
			c0.01,0.16,0.06,0.32,0.07,0.48H514.64z"/>
		<path class="st4" d="M496.71,573.47h0.14c-0.01-0.16-0.06-0.32-0.07-0.48c-0.57-7.07-6.43-12.64-13.65-12.64
			c-7.22,0-13.08,5.58-13.65,12.65c0.01,0.16,0.06,0.31,0.07,0.48H496.71z"/>
		<path class="st4" d="M469.41,573.47h0.14c-0.01-0.16-0.06-0.32-0.07-0.48c-0.57-7.07-6.43-12.65-13.65-12.65
			c-7.22,0-13.08,5.57-13.65,12.64c0.01,0.16,0.06,0.32,0.07,0.48H469.41z"/>
		<path class="st4" d="M442.11,573.47h0.14c-0.01-0.16-0.06-0.32-0.07-0.48c-0.57-7.07-6.43-12.64-13.65-12.64
			c-7.22,0-13.08,5.58-13.65,12.65c0.01,0.16,0.06,0.31,0.07,0.48H442.11z"/>
		<path class="st4" d="M414.95,573.47c-0.01-0.16-0.06-0.32-0.07-0.48c-0.57-7.07-6.43-12.65-13.65-12.65
			c-0.06,0-0.12,0.02-0.19,0.02v13.11h13.77H414.95z"/>
		<path class="st4" d="M489.94,538.74c-4.13-4.12-8.56-7.95-13.23-11.47c-4.02,2.15-6.85,6.2-7.23,10.99
			c0.01,0.16,0.06,0.31,0.07,0.48H489.94z"/>
		<path class="st4" d="M469.41,538.74h0.14c-0.01-0.16-0.06-0.32-0.07-0.48c-0.57-7.07-6.43-12.65-13.65-12.65
			c-7.22,0-13.08,5.57-13.65,12.64c0.01,0.16,0.06,0.32,0.07,0.48H469.41z"/>
		<path class="st4" d="M442.11,538.74h0.14c-0.01-0.16-0.06-0.32-0.07-0.48c-0.57-7.07-6.43-12.64-13.65-12.64
			c-7.22,0-13.08,5.58-13.65,12.65c0.01,0.16,0.06,0.31,0.07,0.48H442.11z"/>
		<path class="st4" d="M401.04,538.74h13.77h0.14c-0.01-0.16-0.06-0.32-0.07-0.48c-0.57-7.07-6.43-12.65-13.65-12.65
			c-0.06,0-0.12,0.02-0.19,0.02V538.74z"/>
	</g>
</g>
</svg>
