<?xml version="1.0" encoding="utf-8"?>
<!-- Generator: Adobe Illustrator 28.0.0, SVG Export Plug-In . SVG Version: 6.00 Build 0)  -->
<svg version="1.1" id="圖層_1" xmlns="http://www.w3.org/2000/svg" xmlns:xlink="http://www.w3.org/1999/xlink" x="0px" y="0px"
	 viewBox="0 0 450 360" style="enable-background:new 0 0 450 360;" xml:space="preserve">
<style type="text/css">
	.st0{fill:#8DBDF2;}
	.st1{opacity:0.1;}
	.st2{fill:#1D2344;}
	.st3{fill:#FFFFFF;}
	.st4{fill:#C5E0F9;}
	.st5{fill:#C0C2CC;}
	.st6{fill:#203388;}
	.st7{fill:#4D90E2;}
	.st8{fill:#2166CC;}
	.st9{fill:#FCB686;}
	.st10{fill:#EF995E;}
	.st11{fill:#0067E2;}
	.st12{fill:#004AB5;}
	.st13{fill:#92BEFF;}
	.st14{fill:#444E77;}
	.st15{fill:#ADD0F7;}
</style>
<path class="st0" d="M392.13,360c31.11-12.33,67.75-94.93,55.42-168.18C433.46,108.12,373.76,60,305.44,60
	c-27.86,0-53.57,10.3-74.24,27.68c-16.24,13.65-39.02,18.26-60.1,12.6c-9.67-2.6-19.77-3.98-30.16-3.98
	C41.93,96.3,0,158.06,0,237.49C0,287.53,23.39,335.34,42.75,360H392.13z"/>
<g>
	<g class="st1">
		<path class="st2" d="M229.09,137.02L28.92,158.06c-2.2,0.23-4.17-1.36-4.4-3.56L11.59,31.46c-0.23-2.2,1.36-4.17,3.56-4.4
			L215.32,6.02c2.2-0.23,4.17,1.36,4.4,3.56l12.93,123.04C232.88,134.82,231.28,136.79,229.09,137.02z"/>
	</g>
	<g>
		<path class="st3" d="M235.09,131.02L34.92,152.06c-2.2,0.23-4.17-1.36-4.4-3.56L17.59,25.46c-0.23-2.2,1.36-4.17,3.56-4.4
			L221.32,0.02c2.2-0.23,4.17,1.36,4.4,3.56l12.93,123.04C238.88,128.82,237.28,130.79,235.09,131.02z"/>
	</g>
	<g>
		<g>
			<path class="st4" d="M144.22,57.67L42.49,68.36c-1.55,0.16-2.94-0.96-3.1-2.51l-0.86-8.18c-0.16-1.55,0.96-2.94,2.51-3.1
				l101.72-10.69c1.55-0.16,2.94,0.96,3.1,2.51l0.86,8.18C146.89,56.11,145.77,57.5,144.22,57.67z"/>
			<path class="st4" d="M210.47,50.7l-58.64,6.16c-1.55,0.16-2.94-0.96-3.1-2.51l-0.86-8.18c-0.16-1.55,0.96-2.94,2.51-3.1
				l58.64-6.16c1.55-0.16,2.94,0.96,3.1,2.51l0.86,8.18C213.15,49.15,212.02,50.54,210.47,50.7z"/>
		</g>
		<g>
			<path class="st5" d="M37.36,49.06c-0.25,0-0.47-0.19-0.5-0.45c-0.03-0.27,0.17-0.52,0.44-0.55l173.58-18.24
				c0.29-0.03,0.52,0.17,0.55,0.44c0.03,0.27-0.17,0.52-0.44,0.55L37.42,49.06C37.4,49.06,37.38,49.06,37.36,49.06z"/>
			<path class="st5" d="M173.98,34.7c-0.25,0-0.47-0.19-0.5-0.45l-2.26-21.52c-0.03-0.27,0.17-0.52,0.44-0.55
				c0.28-0.03,0.52,0.17,0.55,0.44l2.26,21.52c0.03,0.27-0.17,0.52-0.44,0.55C174.02,34.7,174,34.7,173.98,34.7z"/>
			<path class="st5" d="M103.57,42.1c-0.25,0-0.47-0.19-0.5-0.45l-2.26-21.52c-0.03-0.27,0.17-0.52,0.44-0.55
				c0.28-0.03,0.52,0.17,0.55,0.44l2.26,21.52c0.03,0.27-0.17,0.52-0.44,0.55C103.6,42.1,103.58,42.1,103.57,42.1z"/>
			<path class="st5" d="M38.36,34.32c-0.51,0-0.94-0.38-0.99-0.9c-0.06-0.55,0.34-1.04,0.89-1.1l34.15-3.59
				c0.53-0.06,1.04,0.34,1.1,0.89c0.06,0.55-0.34,1.04-0.89,1.1l-34.15,3.59C38.43,34.32,38.4,34.32,38.36,34.32z"/>
			<path class="st5" d="M39.21,40.14c-0.51,0-0.94-0.38-0.99-0.9c-0.06-0.55,0.34-1.04,0.89-1.1l39.77-4.18
				c0.54-0.05,1.04,0.34,1.1,0.89c0.06,0.55-0.34,1.04-0.89,1.1l-39.77,4.18C39.28,40.14,39.25,40.14,39.21,40.14z"/>
			<path class="st5" d="M120.03,25.97c-0.51,0-0.94-0.38-0.99-0.9c-0.06-0.55,0.34-1.04,0.89-1.1l34.15-3.59
				c0.54-0.05,1.04,0.34,1.1,0.89c0.06,0.55-0.34,1.04-0.89,1.1l-34.15,3.59C120.1,25.97,120.07,25.97,120.03,25.97z"/>
			<path class="st5" d="M117.35,31.93c-0.51,0-0.94-0.38-0.99-0.9c-0.06-0.55,0.34-1.04,0.89-1.1l40.7-4.28
				c0.54-0.05,1.04,0.34,1.1,0.89c0.06,0.55-0.34,1.04-0.89,1.1l-40.7,4.28C117.42,31.93,117.38,31.93,117.35,31.93z"/>
			<path class="st5" d="M172.43,19.97c-0.25,0-0.47-0.19-0.5-0.45c-0.03-0.27,0.17-0.52,0.44-0.55l36.96-3.88
				c0.28-0.03,0.52,0.17,0.55,0.44c0.03,0.27-0.17,0.52-0.44,0.55l-36.96,3.88C172.47,19.96,172.45,19.97,172.43,19.97z"/>
			<path class="st5" d="M173.24,27.69c-0.25,0-0.47-0.19-0.5-0.45c-0.03-0.27,0.17-0.52,0.44-0.55l36.96-3.88
				c0.27-0.03,0.52,0.17,0.55,0.44c0.03,0.27-0.17,0.52-0.44,0.55l-36.96,3.88C173.28,27.69,173.26,27.69,173.24,27.69z"/>
		</g>
		<g>
			<path class="st5" d="M40.5,76.64c-0.25,0-0.47-0.19-0.5-0.45c-0.03-0.27,0.17-0.52,0.44-0.55L214.03,57.4
				c0.28-0.03,0.52,0.17,0.55,0.44c0.03,0.27-0.17,0.52-0.44,0.55L40.55,76.64C40.53,76.64,40.52,76.64,40.5,76.64z"/>
			<path class="st5" d="M41.59,87.05c-0.25,0-0.47-0.19-0.5-0.45c-0.03-0.27,0.17-0.52,0.44-0.55l173.58-18.24
				c0.28-0.04,0.52,0.17,0.55,0.44c0.03,0.27-0.17,0.52-0.44,0.55L41.65,87.05C41.63,87.05,41.61,87.05,41.59,87.05z"/>
			<path class="st5" d="M42.69,97.46c-0.25,0-0.47-0.19-0.5-0.45c-0.03-0.27,0.17-0.52,0.44-0.55l173.58-18.24
				c0.28-0.03,0.52,0.17,0.55,0.44c0.03,0.27-0.17,0.52-0.44,0.55L42.74,97.46C42.72,97.46,42.71,97.46,42.69,97.46z"/>
			<path class="st5" d="M43.78,107.87c-0.25,0-0.47-0.19-0.5-0.45c-0.03-0.27,0.17-0.52,0.44-0.55l173.58-18.24
				c0.28-0.03,0.52,0.17,0.55,0.44c0.03,0.27-0.17,0.52-0.44,0.55L43.84,107.87C43.82,107.87,43.8,107.87,43.78,107.87z"/>
			<path class="st5" d="M44.88,118.28c-0.25,0-0.47-0.19-0.5-0.45c-0.03-0.27,0.17-0.52,0.44-0.55L218.4,99.04
				c0.28-0.03,0.52,0.17,0.55,0.44c0.03,0.27-0.17,0.52-0.44,0.55L44.93,118.28C44.91,118.28,44.89,118.28,44.88,118.28z"/>
			<path class="st5" d="M88.39,113.71c-0.25,0-0.47-0.19-0.5-0.45l-4.38-41.64c-0.03-0.27,0.17-0.52,0.44-0.55
				c0.28-0.03,0.52,0.17,0.55,0.44l4.38,41.64c0.03,0.27-0.17,0.52-0.44,0.55C88.42,113.71,88.41,113.71,88.39,113.71z"/>
			<path class="st5" d="M131.43,109.19c-0.25,0-0.47-0.19-0.5-0.45l-4.38-41.64c-0.03-0.27,0.17-0.52,0.44-0.55
				c0.29-0.03,0.52,0.17,0.55,0.44l4.38,41.64c0.03,0.27-0.17,0.52-0.44,0.55C131.47,109.18,131.45,109.19,131.43,109.19z"/>
			<path class="st5" d="M174.47,104.66c-0.25,0-0.47-0.19-0.5-0.45l-4.38-41.64c-0.03-0.27,0.17-0.52,0.44-0.55
				c0.28-0.04,0.52,0.17,0.55,0.44l4.38,41.64c0.03,0.27-0.17,0.52-0.44,0.55C174.51,104.66,174.49,104.66,174.47,104.66z"/>
		</g>
		<g>
			
				<rect x="210.22" y="109" transform="matrix(0.9945 -0.1045 0.1045 0.9945 -10.4931 22.8504)" class="st4" width="5.07" height="5.07"/>
			<path class="st5" d="M46.06,130.06c-0.51,0-0.94-0.38-0.99-0.9c-0.06-0.55,0.34-1.04,0.89-1.1l93.57-9.83
				c0.53-0.05,1.04,0.34,1.1,0.89c0.06,0.55-0.34,1.04-0.89,1.1l-93.57,9.83C46.13,130.05,46.1,130.06,46.06,130.06z"/>
			<g>
				<path class="st5" d="M145.01,119.66c-0.51,0-0.94-0.38-0.99-0.9c-0.06-0.55,0.34-1.04,0.89-1.1l0.1-0.01
					c0.54-0.07,1.04,0.34,1.1,0.89c0.06,0.55-0.34,1.04-0.89,1.1l-0.1,0.01C145.08,119.65,145.05,119.66,145.01,119.66z"/>
				<path class="st5" d="M151.15,119.01c-0.51,0-0.94-0.38-0.99-0.9c-0.06-0.55,0.34-1.04,0.89-1.1l0.2-0.02
					c0.55-0.06,1.04,0.34,1.1,0.89c0.06,0.55-0.34,1.04-0.89,1.1l-0.2,0.02C151.22,119.01,151.19,119.01,151.15,119.01z
					 M157.39,118.35c-0.51,0-0.94-0.38-0.99-0.9c-0.06-0.55,0.34-1.04,0.89-1.1l0.2-0.02c0.55-0.06,1.04,0.34,1.1,0.89
					c0.06,0.55-0.34,1.04-0.89,1.1l-0.2,0.02C157.46,118.35,157.42,118.35,157.39,118.35z M163.63,117.7c-0.51,0-0.94-0.38-0.99-0.9
					c-0.06-0.55,0.34-1.04,0.89-1.1l0.2-0.02c0.56-0.06,1.04,0.34,1.1,0.89c0.06,0.55-0.34,1.04-0.89,1.1l-0.2,0.02
					C163.7,117.7,163.66,117.7,163.63,117.7z M169.87,117.04c-0.51,0-0.94-0.38-0.99-0.9c-0.06-0.55,0.34-1.04,0.89-1.1l0.2-0.02
					c0.56-0.06,1.04,0.34,1.1,0.89c0.06,0.55-0.34,1.04-0.89,1.1l-0.2,0.02C169.94,117.04,169.9,117.04,169.87,117.04z
					 M176.11,116.39c-0.5,0-0.94-0.38-0.99-0.89c-0.06-0.55,0.34-1.04,0.89-1.1l0.2-0.02c0.55-0.06,1.04,0.34,1.1,0.89
					s-0.34,1.04-0.89,1.1l-0.2,0.02C176.18,116.39,176.14,116.39,176.11,116.39z M182.34,115.73c-0.5,0-0.94-0.38-0.99-0.89
					c-0.06-0.55,0.34-1.04,0.89-1.1l0.2-0.02c0.55-0.06,1.04,0.34,1.1,0.89c0.06,0.55-0.34,1.04-0.89,1.1l-0.2,0.02
					C182.42,115.73,182.38,115.73,182.34,115.73z M188.58,115.08c-0.51,0-0.94-0.38-0.99-0.9c-0.06-0.55,0.34-1.04,0.89-1.1
					l0.2-0.02c0.56-0.06,1.04,0.34,1.1,0.89c0.06,0.55-0.34,1.04-0.89,1.1l-0.2,0.02C188.65,115.07,188.62,115.08,188.58,115.08z
					 M194.82,114.42c-0.51,0-0.94-0.38-0.99-0.9c-0.06-0.55,0.34-1.04,0.89-1.1l0.2-0.02c0.55-0.06,1.04,0.34,1.1,0.89
					c0.06,0.55-0.34,1.04-0.89,1.1l-0.2,0.02C194.89,114.42,194.85,114.42,194.82,114.42z"/>
				<path class="st5" d="M201.06,113.77c-0.51,0-0.94-0.38-0.99-0.9c-0.06-0.55,0.34-1.04,0.89-1.1l0.1-0.01
					c0.55-0.07,1.04,0.34,1.1,0.89c0.06,0.55-0.34,1.04-0.89,1.1l-0.1,0.01C201.13,113.76,201.09,113.77,201.06,113.77z"/>
			</g>
		</g>
		<g>
			<path class="st5" d="M47.04,138.87c-0.25,0-0.47-0.19-0.5-0.45c-0.03-0.27,0.17-0.52,0.44-0.55l173.58-18.24
				c0.28-0.03,0.52,0.17,0.55,0.44c0.03,0.27-0.17,0.52-0.44,0.55L47.09,138.87C47.08,138.87,47.06,138.87,47.04,138.87z"/>
			<path class="st5" d="M47.79,144.26c-0.51,0-0.94-0.38-0.99-0.9c-0.06-0.55,0.34-1.04,0.89-1.1l26.67-2.8
				c0.54-0.05,1.04,0.34,1.1,0.89c0.06,0.55-0.34,1.04-0.89,1.1l-26.67,2.8C47.86,144.25,47.83,144.26,47.79,144.26z"/>
			<path class="st5" d="M136.68,134.91c-0.51,0-0.94-0.38-0.99-0.9c-0.06-0.55,0.34-1.04,0.89-1.1l49.59-5.21
				c0.53-0.05,1.04,0.34,1.1,0.89c0.06,0.55-0.34,1.04-0.89,1.1l-49.59,5.21C136.75,134.91,136.72,134.91,136.68,134.91z"/>
			<path class="st5" d="M199.38,128.32c-0.51,0-0.94-0.38-0.99-0.9c-0.06-0.55,0.34-1.04,0.89-1.1l21.76-2.29
				c0.54-0.05,1.04,0.34,1.1,0.89c0.06,0.55-0.34,1.04-0.89,1.1l-21.76,2.29C199.45,128.32,199.41,128.32,199.38,128.32z"/>
		</g>
	</g>
</g>
<g>
	<g id="栺鵻_4-2_5_">
		<g>
			<g>
				<polygon class="st6" points="395.01,359.84 399.67,359.84 388.7,247.51 334.5,247.51 328.95,359.84 333.63,359.84 338.9,252.2 
					384.56,252.2 				"/>
			</g>
			<g>
				<polygon class="st6" points="246.79,359.84 257.24,252.2 302.9,252.2 308.17,359.84 312.86,359.84 307.3,247.51 253.11,247.51 
					242.14,359.84 				"/>
			</g>
		</g>
		<g>
			<path class="st7" d="M356.31,110.03c-22.66-0.33-43.78,12.97-48.61,35.64c-0.01,0.06-0.02,0.11-0.03,0.17l-13.92,93.78
				c-0.14,0.97-0.97,1.69-1.95,1.69h-39.65c-5.37,0-9.73,4.36-9.73,9.74l0,0c0,5.38,4.35,9.74,9.73,9.74h136.73
				c4.46,0,8.22-3.32,8.78-7.75l10.8-87.78c5.15-24.38-10.05-49.3-34.93-53.7C369.29,110.81,364.05,110.14,356.31,110.03z"/>
			<path class="st8" d="M375.63,242.46h-82.21c-0.64,0-1.16-0.52-1.16-1.15s0.52-1.15,1.16-1.15h82.21c5.28,0,9.78-3.95,10.47-9.19
				l8.7-65.86c2.11-21.31-4.69-46.3-30.11-52.42c-2.11-0.51-5.02-0.82-8.4-0.92c-0.64-0.02-1.14-0.55-1.12-1.19
				c0.02-0.64,0.58-1.13,1.19-1.12c3.54,0.1,6.62,0.43,8.88,0.98c22.48,5.41,34.69,26.46,31.87,54.94l-8.71,65.9
				C387.54,237.65,382.06,242.46,375.63,242.46z"/>
		</g>
	</g>
	<g id="_x32_2-3_1_">
		<path id="媗絻禖謥蓲V_7_" class="st9" d="M330.4,92.5c4.85-2.84,2.71-30.63,2.71-30.63l14.55-2.77c0,0-1.14,19.22,2.76,31.46
			c-1.16,2.57-13.41,12.07-15.79,11.64C333.16,101.93,330.4,94.13,330.4,92.5z"/>
		<path class="st9" d="M320.05,54.95c0.02,9.71,3.9,21.79,8.78,21.79c7.52,0,16.99-8.14,16.99-18.01c0-9.87-6.6-20.03-14.11-20.03
			C324.19,38.71,320.02,42.4,320.05,54.95z"/>
		<path class="st10" d="M333.56,77.24c-0.34,0-0.66-0.2-0.8-0.53c-0.19-0.44,0.02-0.95,0.46-1.14c3.46-1.47,6.38-4.12,9.19-8.34
			c0.27-0.4,0.8-0.51,1.2-0.24c0.4,0.27,0.51,0.8,0.24,1.2c-3.01,4.52-6.17,7.37-9.96,8.98C333.78,77.22,333.67,77.24,333.56,77.24z
			"/>
		<path class="st2" d="M333.27,32.44c0,0-2.94-2.24-2.3-5.14c0.94-4.21,3.64-2.65,4.62-3.63c0.98-0.98,0.16-3.07,2.54-3.56
			c2.89-0.59,3.86,1.21,4.5,1.13c1.46-0.17,4.27-1.49,6.55,0c4.13,2.7,1.91,4.89,2.6,6.32c0.67,1.4,1.75,2.93,1.49,4.66
			c-0.73,4.83-5.23,5.44-5.23,5.44L333.27,32.44z"/>
		<g>
			<path class="st2" d="M320.13,57.47c0,0,0.02-9.14,1.53-11.85c0.28-0.5-1.4-2.15-1.62-1.62
				C317.91,49.18,320.13,57.47,320.13,57.47z"/>
			<path class="st2" d="M347.52,67.39c4.83-6.71,5.2-12.71,5.2-17.98c0-7.29-5.2-15.99-17.76-16.54
				c-11.6-0.51-17.72,7.71-16.33,13.1c2.82,10.99,14.38,8.38,17.44,8.38c4.22,0,7.54,2.03,7.94,2.91c0.76,1.67,2.67,6.98,2.67,6.98
				S347.14,65.84,347.52,67.39z"/>
		</g>
		<path class="st9" d="M343.79,57.79c-1.11,3-0.62,5.95,1.11,6.59c1.72,0.64,4.02-1.27,5.13-4.27c1.11-3,0.62-5.95-1.11-6.59
			C347.2,52.88,344.9,54.79,343.79,57.79z"/>
	</g>
	<path class="st2" d="M288.87,245.5l-53.32-34.46l-6.15,1.66c-21.21,16.8,28.78,71.21,61.77,60.76L288.87,245.5z"/>
	<g id="_x37__睙罻_罻譇罽僤_5_">
		<path class="st11" d="M291.18,273.45c12.73-21.85,72.17-18.2,81.24-51.47c4.74-17.37-7.97-40.3-7.97-40.3h-50.2
			c0,0-0.3,2.07-0.66,4.65c-0.5,3.63-2.63,7.72-7.45,8.21c-5.81,0.59-46.28,10.91-67.1,14.45c-4.75,0.81-10.17,2.65-12.48,6.54
			c0,0,3.71-2.75,8.68-2.23C261.31,216.02,265.37,265.68,291.18,273.45z"/>
	</g>
	<g id="_x37__倬岍_2_2_">
		<path id="抌嚦_24_" class="st9" d="M281.98,175.54c-1.73,0.42-3.82,1.41-5.43,1.42c-3.93,0.04-6.74,0.09-9.45-0.12
			c-1.24-0.1-3.58-1.63-4.71-2.14c-1.59-0.73-4.35-1.93-6.82-1.56c-1.55,0.23-5.81,1.2-7.82,3.02c-1.59,1.45-3.1,0.22-2.37-2.6
			c0.57-2.21,3.79-5.52,8.24-8.46c7.65-5.05,15.66,2.05,22.97,3.39c1.51,0.28,3.16-1.13,4.48-2.11L281.98,175.54z"/>
		<path id="嵙豂膱嶱20_" class="st3" d="M334.54,106.13c-0.65-4.54-3.82-8.52-8.49-9.95c-6.44-1.97-13.26,1.65-15.22,8.09
			c-0.38,1.24-0.63,2.5-0.81,3.72c-1.38,9.41-3.1,30.21-4.68,46.76c-0.25,2.66-1.07,4.05-3.56,5.01
			c-10.39,4.02-16.86,4.59-25.33,6.47v14.14l36.73,0c5.29-0.03,12.09-3.87,13.23-13.15C329.76,140.01,336.58,117.73,334.54,106.13z"
			/>
	</g>
	<g id="_x32_2_錼瀖3_">
		<path id="雞謥蓲U_7_" class="st11" d="M372.83,98.96c-8.07-5.54-22.41-8.41-22.41-8.41c-0.31,0.84-5.95,8.65-13.38,8.65
			c-5.09,0-6.64-5.98-6.64-6.7c0,0-11.94,3.15-14.52,4.95c0,0,0.57,4.76,0.46,8.99c-0.28,10.41-1.75,17.69-1.75,17.69
			c-0.08,9.38-2.17,57.57-3.52,65.88l10.48,4.97l4.85-4.97l5.09,5.59l38.35-3.64c0,0-4.63-25.62-3.5-47.51L372.83,98.96z"/>
		<path class="st12" d="M331.49,196.47c-0.24,0-0.48-0.1-0.64-0.28l-4.47-4.91l-4.21,4.31c-0.26,0.26-0.66,0.33-0.99,0.18
			l-10.48-4.97c-0.43-0.2-0.62-0.72-0.41-1.15c0.21-0.43,0.72-0.62,1.15-0.41l9.92,4.7l4.42-4.52c0.17-0.17,0.39-0.27,0.63-0.26
			c0.24,0,0.46,0.11,0.63,0.28l4.8,5.27l37.92-3.6c0.48-0.05,0.9,0.3,0.94,0.78c0.04,0.48-0.3,0.9-0.78,0.94l-38.36,3.64
			C331.55,196.47,331.52,196.47,331.49,196.47z"/>
		<path class="st3" d="M350.42,90.55c-0.31,0.84-5.95,8.7-13.38,8.7c-5.09,0-6.64-6.03-6.64-6.75c0,0-3.33,0.71-7.82,2.26
			l6.97,30.89l29.86-32.72C353.93,91.22,350.42,90.55,350.42,90.55z"/>
		<g>
			<polygon class="st13" points="330.2,97.15 340.8,97.38 335.21,108.19 330.8,108.06 			"/>
			<polygon class="st13" points="330.8,108.06 335.21,108.19 336.74,117.77 329.55,125.65 327.44,116.3 			"/>
		</g>
		<g>
			<path class="st3" d="M349.41,86.75c0,0-10.81,10.4-14.14,10.28c-2.8-0.1-2.85-8.27-2.85-8.27l-6.64,4.97l2.06,12.14l7.23-8.18
				l5.05,9.77l15.79-15.56L349.41,86.75z"/>
			<path class="st13" d="M340.11,108.32c-0.04,0-0.09,0-0.14-0.01c-0.27-0.04-0.51-0.21-0.63-0.46l-4.47-8.65l-6.39,7.23
				c-0.22,0.25-0.57,0.35-0.89,0.26c-0.32-0.09-0.56-0.36-0.62-0.69l-2.06-12.14c-0.08-0.47,0.24-0.92,0.71-1
				c0.48-0.08,0.92,0.24,1,0.71l1.76,10.35l6.03-6.82c0.19-0.21,0.47-0.32,0.76-0.29c0.28,0.04,0.53,0.21,0.66,0.46l4.51,8.73
				l14.96-14.74c0.34-0.33,0.89-0.33,1.23,0.01c0.34,0.34,0.33,0.89-0.01,1.23l-15.79,15.56
				C340.56,108.24,340.34,108.32,340.11,108.32z"/>
		</g>
		<path class="st12" d="M326.4,190.88c-0.04,0-0.09,0-0.13-0.01c-0.47-0.07-0.8-0.52-0.72-0.99c2.27-14.55,3.13-63.75,3.14-64.24
			c0.01-0.48,0.41-0.85,0.88-0.85c0.48,0.01,0.86,0.4,0.85,0.88c-0.01,0.5-0.87,49.81-3.16,64.48
			C327.19,190.58,326.82,190.88,326.4,190.88z"/>
	</g>
	<g id="侹麔_2_">
		<path class="st2" d="M260.8,176.96h-66.83c-1.62,0-3.05-1.07-3.51-2.63l-14.83-50.33c-0.69-2.35,1.07-4.7,3.51-4.7h66.83
			c1.62,0,3.05,1.07,3.51,2.63l14.83,50.33C265,174.61,263.24,176.96,260.8,176.96z"/>
		<path class="st2" d="M292.24,181.89h-99.45c-1.16,0-2.11-0.94-2.11-2.11v-0.71c0-1.16,0.94-2.11,2.11-2.11h99.45
			c1.16,0,2.11,0.94,2.11,2.11v0.71C294.34,180.95,293.4,181.89,292.24,181.89z"/>
		<path class="st14" d="M219.48,151.83c-5.1,0-8.95-1.95-8.95-4.54s3.85-4.54,8.95-4.54s8.95,1.95,8.95,4.54
			S224.58,151.83,219.48,151.83z M219.48,144.62c-4.32,0-7.08,1.58-7.08,2.67s2.76,2.67,7.08,2.67s7.08-1.58,7.08-2.67
			S223.8,144.62,219.48,144.62z"/>
	</g>
	<g id="_x37__倬岍_1_2_">
		<path id="抌嚦_23_" class="st9" d="M315.97,180.08c-1.99-0.5-3.75-1-5.34-1.34c-3.84-0.82-6.71-0.71-9.4-1.29
			c-1.21-0.26-3.55-1.18-4.65-1.75c-1.55-0.8-4.25-2.14-6.73-1.9c-1.55,0.15-5.87,0.91-7.96,2.63c-1.66,1.37-3.11,0.06-2.24-2.72
			c0.68-2.18,5.32-5.87,10.22-7.99c7-3.03,13.99,2.93,21.23,4.64c1.49,0.35,2.87,0.39,4.44,0.21L315.97,180.08z"/>
		<path id="嵙豂膱嶱19_" class="st3" d="M379.14,109.23c-0.1-4.58-2.78-8.92-7.25-10.89c-6.16-2.72-13.36,0.06-16.08,6.22
			c-0.52,1.18-0.84,2.41-0.97,3.63c-0.89,9.37-1,30.3-1.42,46.92c-0.07,2.67-0.98,4.76-5.68,5.93c-10.91,2.71-22.85,4.71-36.14,6.65
			l-1.84,14.21c13.99,1.59,31.28,0.34,47.66-0.05c5.29-0.13,14.75-2.58,17-11.66C380.98,143.58,379.78,120.99,379.14,109.23z"/>
	</g>
	<path class="st11" d="M354,126.96c0.84-18.78,10.51-29.26,18.84-28c0,0-1.48-1.45-10.26-4.96c0,0-8.07,5.59-9.74,11.18
		C350.79,112.01,354,126.96,354,126.96z"/>
	<g>
		<rect x="116.59" y="181.9" class="st4" width="243.22" height="178.1"/>
		<rect x="116.59" y="226.8" class="st15" width="243.22" height="10.07"/>
		<rect x="116.59" y="252.45" class="st15" width="243.22" height="10.07"/>
		<rect x="110.24" y="181.9" class="st15" width="255.93" height="14.97"/>
		<rect x="309.58" y="181.9" class="st15" width="2.31" height="178.1"/>
	</g>
</g>
</svg>
