<?xml version="1.0" encoding="utf-8"?>
<!-- Generator: Adobe Illustrator 28.0.0, SVG Export Plug-In . SVG Version: 6.00 Build 0)  -->
<svg version="1.1" id="圖層_1" xmlns="http://www.w3.org/2000/svg" xmlns:xlink="http://www.w3.org/1999/xlink" x="0px" y="0px"
	 viewBox="0 0 200 84" style="enable-background:new 0 0 200 84;" xml:space="preserve">
<style type="text/css">
	.st0{fill:#FFFFFF;}
</style>
<path class="st0" d="M29.99,28.32c7.94,0,15.14,3.71,20.51,9.72C52.62,16.69,71.13,0,93.65,0c23.1,0,41.94,17.58,43.24,39.73
	c6.71-6.3,15.73-10.19,25.69-10.19c19.44,0,35.4,14.71,37.24,33.52l0.05,0.93c0.07,0.89,0.14,1.78,0.14,2.69
	c0,1.62-0.11,3.21-0.32,4.77l-5.64-8.39h-3.13L199,75.07c-0.43,1.81-0.98,3.57-1.65,5.27l-11.64-17.29h-3.12l13.49,20.05
	c-0.15,0.29-0.26,0.6-0.41,0.89v-0.12h-4.29l-14.01-20.82h-3.12l14.01,20.82h-5.2l-14.02-20.82h-3.12l14,20.82h-5.19l-14.01-20.82
	h-3.12l14,20.82h-5.2l-14.01-20.82h-3.12l14.01,20.82h-5.2l-14.01-20.82h-3.13l14.01,20.82h-5.2l-14-20.82h-3.13l14,20.82h-5.2
	l-14-20.82h-3.13l14.01,20.82h-5.21L119.1,63.06h-3.12l14,20.82h-5.19l-14.01-20.82h-3.13l14,20.82h-5.19l-14.01-20.82h-3.12
	l14.01,20.82h-5.21l-14-20.82h-3.12l14,20.82h-5.2L85.8,63.06h-3.13l14,20.82h-5.19L77.48,63.06h-3.12l14.01,20.82h-5.21l-14-20.82
	h-3.13l14.01,20.82h-5.2l-14-20.82h-3.12l14,20.82h-5.2l-14-20.82h-3.13l14.01,20.82h-5.2L44.18,63.06h-3.13l14.01,20.82H5.01
	C1.85,78.21,0,71.41,0,64.09C0,44.34,13.42,28.32,29.99,28.32z"/>
</svg>
