<?xml version="1.0" encoding="utf-8"?>
<!-- Generator: Adobe Illustrator 28.0.0, SVG Export Plug-In . SVG Version: 6.00 Build 0)  -->
<svg version="1.1" id="圖層_1" xmlns="http://www.w3.org/2000/svg" xmlns:xlink="http://www.w3.org/1999/xlink" x="0px" y="0px"
	 viewBox="0 0 193 98" style="enable-background:new 0 0 193 98;" xml:space="preserve">
<style type="text/css">
	.st0{fill:#E84D24;}
	.st1{fill:#E8E5DB;}
	.st2{fill:#F38E9E;}
	.st3{fill:#00A988;}
</style>
<g>
	<path class="st0" d="M146.35,73.14C146.35,73.14,146.35,73.14,146.35,73.14C146.35,32.74,113.6,0,73.21,0
		C32.82,0,0.08,32.74,0.08,73.14c0,0,0,0,0,0H146.35z"/>
	<path class="st1" d="M131.29,73.14C131.29,73.14,131.29,73.14,131.29,73.14c0-32.08-26-58.08-58.08-58.08s-58.08,26-58.08,58.08
		c0,0,0,0,0,0H131.29z"/>
	<path class="st2" d="M122.05,73.14C122.05,73.14,122.05,73.14,122.05,73.14c0-26.98-21.87-48.84-48.84-48.84
		c-26.97,0-48.84,21.87-48.84,48.84c0,0,0,0,0,0H122.05z"/>
	<path class="st3" d="M192.92,26.24c-4.55-0.89-9.24-1.38-14.05-1.38c-40.39,0-73.14,32.74-73.14,73.14c0,0,0,0,0,0h87.18V26.24z"/>
	<path class="st1" d="M192.92,41.7c-4.51-1.12-9.19-1.78-14.05-1.78c-32.08,0-58.08,26-58.08,58.08c0,0,0,0,0,0h72.13V41.7z"/>
	<path class="st3" d="M192.92,51.23c-4.45-1.34-9.16-2.07-14.05-2.07c-26.97,0-48.84,21.87-48.84,48.84c0,0,0,0,0,0h62.89V51.23z"/>
	<path class="st1" d="M192.92,71.39c-4.2-2.22-8.97-3.49-14.05-3.49c-16.62,0-30.09,13.47-30.09,30.09c0,0,0,0,0,0h44.14V71.39z"/>
</g>
</svg>
