<?xml version="1.0" encoding="utf-8"?>
<!-- Generator: Adobe Illustrator 28.0.0, SVG Export Plug-In . SVG Version: 6.00 Build 0)  -->
<svg version="1.1" id="圖層_1" xmlns="http://www.w3.org/2000/svg" xmlns:xlink="http://www.w3.org/1999/xlink" x="0px" y="0px"
	 viewBox="0 0 728 273" style="enable-background:new 0 0 728 273;" xml:space="preserve">
<style type="text/css">
	.st0{fill:#FFFFFF;}
</style>
<path class="st0" d="M728,273V0.31c-66.31,6.24-118.21,62.05-118.21,130c0,0.99,0.05,1.96,0.07,2.94
	c-24.98,0.24-46.08,16.64-53.37,39.25c-13.48-9.04-29.7-14.32-47.16-14.32c-10.71,0-20.95,2.01-30.39,5.63
	c-18.11-16.93-42.42-27.31-69.16-27.31c-36.92,0-69.22,19.75-86.93,49.26c-21.48-25.71-53.77-42.08-89.9-42.08
	c-38.69,0-72.99,18.78-94.31,47.7c-12.77-6.24-27.13-9.75-42.3-9.75C44.78,181.63,2.66,222.09,0,273H728z"/>
</svg>
