<?xml version="1.0" encoding="utf-8"?>
<!-- Generator: Adobe Illustrator 28.0.0, SVG Export Plug-In . SVG Version: 6.00 Build 0)  -->
<svg version="1.1" id="圖層_1" xmlns="http://www.w3.org/2000/svg" xmlns:xlink="http://www.w3.org/1999/xlink" x="0px" y="0px"
	 viewBox="0 0 795 126" style="enable-background:new 0 0 795 126;" xml:space="preserve">
<style type="text/css">
	.st0{fill:#1D2344;}
	.st1{fill:#00A988;}
	.st2{fill:#E84D24;}
	.st3{fill:#EEB41C;}
	.st4{fill:#0067E2;}
	.st5{fill:#FFFFFF;}
</style>
<path class="st0" d="M618.54,47.56c4.58-5.01,9.23-10.99,13.92-17.92l-7.36-25.6h-68.96v8.32H482.7V38.6h9.92
	c0,0,62.88,4.21,63.52-5.92h39.36c-2.03,2.24-4.16,4.21-6.4,5.92h-5.44v8.96h-25.44v29.92h25.44v5.12c0,3.63-0.38,6-1.12,7.12
	c-0.75,1.12-2.51,1.68-5.28,1.68c-1.71,0-5.81-0.37-12.32-1.12l-7.36-0.96L555.45,89l2.12,5.28c3.09,8.32,4.64,16.06,4.64,23.2
	c0,1.28-0.11,3.2-0.32,5.76c2.77,0.11,6.67,0.16,11.68,0.16c13.23,0,22.85-0.8,28.88-2.4c6.03-1.6,9.95-4.24,11.76-7.92
	c1.81-3.68,2.72-9.41,2.72-17.2v-18.4h18.08V47.56H618.54z"/>
<path class="st0" d="M463.82,55.88v-5.76l7.52,0.96c0.42-5.01,1.09-10.72,2-17.12c0.91-6.4,1.84-11.89,2.8-16.48
	c-22.29,0.43-42.93-2.67-61.92-9.28c1.17-2.34-20.38,19.11-19.36,18.4c6.61,3.73,12.96,6.88,19.04,9.44h-34.72
	c2.47-1.28-49.44,14.67-48.48,14.56v5.28h47.52v3.04h-50.4v22.72h50.4v13.6h-4.16c-0.85-4.26-1.55-8.26-2.08-12l-31.04,4
	c0.43,1.71,0.82,3.23,1.2,4.56c0.37,1.33,0.67,2.48,0.88,3.44h-20.48v26.08h149.44V95.24h-21.12c0.21-0.96,0.5-2.1,0.88-3.44
	c0.37-1.33,0.77-2.85,1.2-4.56l-31.04-4c-0.53,3.74-1.23,7.74-2.08,12h-3.52v-13.6h50.4V58.92h-50.4v-3.04H463.82z"/>
<path class="st0" d="M270.38,79.72c4.9-2.24,8.26-4.11,10.08-5.6l5.12,2.88c4.69,2.56,8.74,5.02,12.16,7.36
	c0.43-5.65,1.65-11.17,3.68-16.56c2.03-5.39,4.64-9.62,7.84-12.72c-8.96-1.6-15.9-3.09-20.8-4.48v-0.48V37.96l-23.68-0.16v6.88
	c0,2.35-0.11,4.24-0.32,5.68c-0.21,1.44-0.64,2.7-1.28,3.76c-1.07,1.92-3.36,3.42-6.88,4.48V35.88h55.04V6.12H256.3V0.68h-38.08
	v5.44h-55.04v29.76h55.04v18.24c-3.84-1.17-7.36-2.72-10.56-4.64l0.16-4.8l0.32-6.72l-25.92-0.16v6.88c0,2.24-0.16,4.11-0.48,5.6
	c-0.32,1.5-1.07,2.78-2.24,3.84c-1.07,0.96-3.2,1.81-6.4,2.56c-3.2,0.75-6.61,1.12-10.24,1.12c3.62,3.73,6.26,7.73,7.92,12
	c1.65,4.27,2.58,9.55,2.8,15.84c7.89-3.62,13.52-6.29,16.88-8c3.36-1.71,6.21-3.52,8.56-5.44c2.34,1.6,5.65,3.68,9.92,6.24
	c-7.57,2.24-15.97,4.19-25.2,5.84c-9.23,1.66-18.43,2.75-27.6,3.28c3.73,4.91,6.72,10.27,8.96,16.08
	c2.24,5.81,4.26,12.83,6.08,21.04c19.41-5.54,35.09-12.16,47.04-19.84v20h38.08V66.92c2.88,3.09,5.33,6.72,7.36,10.88
	c1.39,2.77,2.42,3.83,2.42,3.83S268.19,80.79,270.38,79.72z"/>
<path class="st0" d="M55.34,0.68v5.76H77.1v20h-4.32c-0.64,1.71-1.12,3.47-1.44,5.28h5.76v18.24H0.3V31.72h10.24
	c-0.11-0.53-0.27-1.25-0.48-2.16c-0.22-0.91-0.54-1.95-0.96-3.12H2.38v-20h23.04V0.68H55.34z M49.1,102.12H31.66v20H4.3V52.68h44.8
	 M49.1,68.2H31.66v3.36H49.1 M49.1,85H31.66v3.36H49.1 M45.1,31.72c0.42-2.35,0.85-4.11,1.28-5.28H35.66
	c0.1,0.43,0.43,2.19,0.96,5.28H45.1z M141.9,75.88c5.12,0.96,9.65,1.71,13.6,2.24c0,13.76-0.48,22.83-1.44,27.2
	c-1.07,5.23-2.61,9.02-4.64,11.36c-2.03,2.35-4.11,3.76-6.24,4.24c-2.14,0.48-5.6,0.88-10.4,1.2s-11.2,0.48-19.2,0.48
	c-5.23,0-11.04-0.1-17.44-0.32c-5.23-0.21-9.04-0.74-11.44-1.6c-2.4-0.85-3.9-1.89-4.48-3.12c-0.59-1.23-0.88-3.12-0.88-5.68v-63.2
	h46.08v-3.04H79.34V1h28.16v4.32h42.72v18.4H107.5v3.52h43.68v36.32h-44.64v2.56h35.36V75.88z M127.66,76.84h-21.12v2.56h21.12
	V76.84z M127.98,87.4h-21.44v2.72h21.44V87.4z M125.66,101.08c0.8-0.48,1.36-1.41,1.68-2.8h-20.8v1.28c0,1.5,1.65,2.24,4.96,2.24
	h10.56C123.66,101.8,124.86,101.56,125.66,101.08z"/>
<path class="st0" d="M688.78,2.76c-0.43,12.16-0.94,21.73-1.52,28.72c-0.59,6.99-1.68,13.47-3.28,19.44v73.12h-34.72V88.68
	c-2.35,1.07-4.32,1.81-5.92,2.24c-0.54-8.96-1.28-16.45-2.24-22.48c-0.96-6.02-2.83-12.45-5.6-19.28c8,0,13.01-2.08,15.04-6.24
	c1.17-2.03,1.76-8.21,1.76-18.56c0-7.14-0.32-14.4-0.96-21.76L688.78,2.76z M783.66,29.48v4.96h11.04v22.88H687.98V34.44h13.6v-4.96
	H690.7V6.12h10.88v-4.8h33.92v4.8h14.08v-4.8h34.08v4.8h8.48v23.36H783.66z M689.74,77.48H791.5v45.92h-32.32v-1.76h-35.36v1.76
	h-34.08V77.48z M759.18,81.16v-3.68h-35.36v3.68H759.18z M723.82,100.2h35.36v-3.84h-35.36V100.2z M749.58,29.48H735.5v4.96h14.08
	V29.48z"/>
<path class="st1" d="M49.1,52.68v49.44v0.64c0,0.75-0.19,1.28-0.56,1.6c-0.38,0.32-1.39,0.59-3.04,0.8
	c-1.66,0.21-4.4,0.32-8.24,0.32c2.34,2.56,4.05,5.2,5.12,7.92c1.06,2.72,1.97,5.84,2.72,9.36c7.04,0,12.61-0.35,16.72-1.04
	c4.1-0.69,7.3-2.16,9.6-4.4c2.29-2.24,3.44-5.65,3.44-10.24v-54.4H49.1z"/>
<path class="st2" d="M560.89,90.86l-20.75,25.66l-2.88-2.4c-2.77-2.56-8-6.88-8-6.88l-25.6-20c0,0-12.75-8.69-18.72-12.32
	c3.52-10.67,6.08-22.77,7.68-36.32l2.24-26.24l0.64-11.52h30.72l-0.16,3.84c0,1.71-0.11,4.27-0.32,7.68l-2.88,26.24
	c-1.28,8.75-3.2,17.07-5.76,24.96l4.8,2.88L560.89,90.86z"/>
<path class="st0" d="M528.89,12.36l27.25,0v20.32c-0.64,10.13-1.71,19.23-3.2,27.28c-1.5,8.06-3.63,15.44-6.4,22.16
	c0,0-6.91,15.5-17.28,25.12c-8.64,7.79-19.63,13.92-32.96,18.4c-2.35-5.54-4.91-10.53-7.68-14.96c-2.78-4.42-6.51-9.25-11.2-14.48
	c10.88-2.34,19.62-5.33,26.24-8.96c13.27-8.62,18.24-20.8,18.24-20.8c2.67-6.83,4.59-16.1,5.76-27.84L528.89,12.36z"/>
<path class="st3" d="M330.7,50.6c-0.96,0.11-2.08,0.21-3.36,0.32c-1.28,0.11-2.83,0.16-4.64,0.16c-0.11-4.8-0.51-10.48-1.2-17.04
	c-0.7-6.56-1.47-12.08-2.32-16.56l4.96,0.16c6.29,0,13.04-0.42,20.24-1.28c7.2-0.85,13.52-2.18,18.96-4
	c4.91-1.6,8.42-3.25,10.56-4.96c2.13-1.71,3.41-4.05,3.84-7.04h39.52c-0.37,2-1.02,4.28-3.04,7.84
	c-4.33,7.66-10.31,13.42-18.33,18.66c-4.91,3.42-11.16,6.3-16.71,9.18C379.18,36.04,359.51,45.84,330.7,50.6z"/>
<path class="st4" d="M256.3,75.08c1.49,0.64,2.85,1.18,4.08,1.6c1.22,0.43,2.32,0.8,3.28,1.12l6.72,1.92
	c14.72,4.27,30.72,6.88,48,7.84c-3.74,4.8-6.72,10.11-8.96,15.92c-2.24,5.82-4.27,12.88-6.08,21.2c-19.74-5.87-34.69-12.08-47.04-20
	c-30.91-19.82-38.08-29.82-38.08-29.82v-12.5L256.3,75.08z"/>
<polygon class="st3" points="689.74,60.36 689.74,77.48 759.18,77.48 791.5,77.48 791.5,60.36 "/>
<path class="st5" d="M7.39,19.36c-0.28,0-0.5-0.22-0.5-0.5v-7.5c0-0.28,0.22-0.5,0.5-0.5s0.5,0.22,0.5,0.5v7.5
	C7.89,19.14,7.66,19.36,7.39,19.36z"/>
<path class="st5" d="M167.64,27.94c-0.28,0-0.5-0.22-0.5-0.5V10.61c0-0.28,0.22-0.5,0.5-0.5s0.5,0.22,0.5,0.5v16.83
	C168.14,27.72,167.91,27.94,167.64,27.94z"/>
<path class="st5" d="M468.14,117.52h-6.66c-0.28,0-0.5-0.22-0.5-0.5s0.22-0.5,0.5-0.5h6.16v-11.41c0-0.28,0.22-0.5,0.5-0.5
	s0.5,0.22,0.5,0.5v11.91C468.64,117.3,468.41,117.52,468.14,117.52z"/>
<path class="st5" d="M608.14,113.61c-0.19,0-0.37-0.11-0.46-0.29c-0.11-0.25,0-0.55,0.25-0.66c4.25-1.93,4.15-15.62,3.75-20.74
	c-0.02-0.28,0.18-0.52,0.46-0.54c0.27-0.02,0.52,0.18,0.54,0.46c0.06,0.78,1.42,19.11-4.33,21.73
	C608.28,113.6,608.21,113.61,608.14,113.61z"/>
<path class="st5" d="M657.14,32.46c-0.02,0-0.04,0-0.06,0c-0.27-0.03-0.47-0.28-0.44-0.56c0.98-8.01,0.01-23.6,0-23.76
	c-0.02-0.28,0.19-0.51,0.47-0.53c0.26-0.01,0.51,0.19,0.53,0.47c0.01,0.16,0.99,15.84,0,23.94
	C657.6,32.27,657.39,32.46,657.14,32.46z"/>
</svg>
