<?xml version="1.0" encoding="utf-8"?>
<!-- Generator: Adobe Illustrator 28.0.0, SVG Export Plug-In . SVG Version: 6.00 Build 0)  -->
<svg version="1.1" id="圖層_1" xmlns="http://www.w3.org/2000/svg" xmlns:xlink="http://www.w3.org/1999/xlink" x="0px" y="0px"
	 viewBox="0 0 141 25" style="enable-background:new 0 0 141 25;" xml:space="preserve">
<style type="text/css">
	.st0{fill:#0067E2;}
</style>
<g>
	<path class="st0" d="M1.84,18.48c0.48-0.94,0.94-2.03,1.39-3.26c1.51,0.88,3.27,1.56,5.28,2.05S12.39,18,14.12,18
		c1.77,0,3.02-0.15,3.74-0.46c0.73-0.31,1.09-0.65,1.09-1.01c0-1.3-1.98-1.95-5.95-1.95c-4.35,0-7.51-0.45-9.47-1.36
		c-1.96-0.91-2.94-2.37-2.94-4.4c0-2.88,1.19-5,3.58-6.37C6.55,1.09,9.66,0.4,13.48,0.4c2.22,0,4.5,0.28,6.83,0.85
		c2.34,0.57,4.44,1.34,6.32,2.32c-0.62,1.41-1.27,3.13-1.95,5.15c-0.13,0.43-0.23,0.75-0.32,0.96c-1.09-0.87-2.73-1.6-4.93-2.19
		c-2.2-0.59-4.14-0.88-5.82-0.88c-2.03,0-3.39,0.13-4.1,0.4C8.8,7.28,8.45,7.67,8.45,8.18c0,0.51,0.49,0.92,1.46,1.23
		s2.37,0.46,4.21,0.46c4.52,0,7.81,0.52,9.86,1.55c2.05,1.04,3.07,2.62,3.07,4.75c0,2.99-1.09,5.14-3.26,6.45
		c-2.18,1.31-5.47,1.97-9.89,1.97c-2.37,0-4.78-0.26-7.23-0.78S2,22.53,0.04,21.52C0.76,20.44,1.36,19.42,1.84,18.48z"/>
	<path class="st0" d="M57.41,7.76c-3.35-0.11-6.6-0.17-9.76-0.19v16.7h-8V7.57c-3.18,0.02-6.42,0.09-9.73,0.19V1.04h27.49V7.76z"/>
	<path class="st0" d="M67.84,18.42c8.11-0.04,13.98-0.16,17.63-0.35c-0.15,0.88-0.24,1.78-0.27,2.7c-0.03,0.93-0.05,2.1-0.05,3.5
		H60.29c0.17-4.14,0.26-8.01,0.26-11.62c0-3.6-0.09-7.48-0.26-11.62h24.86v5.79H67.84v3.07c1.02,0.02,2.54,0.03,4.54,0.03
		c3.39,0,6.9-0.06,10.53-0.19v5.5c-3.63-0.13-7.14-0.19-10.53-0.19c-2.01,0-3.52,0.01-4.54,0.03V18.42z"/>
	<path class="st0" d="M102.88,1.08c4.25,0,7.2,0.75,8.86,2.26c1.66,1.5,2.5,3.62,2.5,6.35c0,1.88-0.33,3.47-0.99,4.78
		s-1.82,2.34-3.49,3.07c-1.66,0.74-3.96,1.1-6.88,1.1h-6.66v5.63h-7.87c0.17-4.14,0.26-8.01,0.26-11.62c0-3.6-0.09-7.48-0.26-11.62
		h7.87v0.03H102.88z M100.64,12.47c1.77,0,3.1-0.07,3.98-0.21c0.89-0.14,1.5-0.39,1.86-0.75c0.35-0.36,0.53-0.9,0.53-1.6
		c0-0.7-0.17-1.23-0.5-1.58c-0.33-0.35-0.94-0.59-1.82-0.72c-0.89-0.13-2.24-0.19-4.05-0.19h-4.42v5.06H100.64z"/>
	<path class="st0" d="M136.71,18.36c1.92-0.04,3.34-0.08,4.26-0.13v6.05h-16.93v-6.05c2.3,0.09,4.04,0.13,5.22,0.13V7.32
		c-0.77,1.69-2.34,2.77-4.7,3.26c-0.06-2.52-0.3-4.81-0.7-6.88c1.71-0.23,2.9-0.53,3.57-0.88s1.2-0.74,1.57-1.17
		c0.37-0.43,0.62-0.71,0.75-0.86V0.72h6.98V18.36z"/>
</g>
</svg>
