<?xml version="1.0" encoding="utf-8"?>
<!-- Generator: Adobe Illustrator 28.0.0, SVG Export Plug-In . SVG Version: 6.00 Build 0)  -->
<svg version="1.1" id="圖層_1" xmlns="http://www.w3.org/2000/svg" xmlns:xlink="http://www.w3.org/1999/xlink" x="0px" y="0px"
	 viewBox="0 0 112 318" style="enable-background:new 0 0 112 318;" xml:space="preserve">
<style type="text/css">
	.st0{fill:#F38E9E;}
	.st1{fill:#F9BE00;}
	.st2{fill:#FFE100;}
</style>
<g>
	<g>
		<polygon class="st0" points="76.2,148.9 57.7,148.9 57.7,0 54.3,0 54.3,148.9 35.8,148.9 35.8,163.3 76.2,163.3 		"/>
		<path class="st0" d="M76.7,166.7H35.3C14.6,174,0,192,0,212.9c0,21.2,15,39.3,36,46.5H76c21.1-7.1,36-25.2,36-46.5
			C112,192,97.4,174,76.7,166.7z"/>
		<rect x="35.8" y="262.6" class="st0" width="40.5" height="14.4"/>
		<path class="st0" d="M57.1,279.7h-2.2c-2.8,0-5.1,2.3-5.1,5.1V318h12.3v-33.2C62.2,282,59.9,279.7,57.1,279.7z"/>
	</g>
	<g>
		<g>
			<ellipse class="st1" cx="55.9" cy="204.4" rx="15.2" ry="11.7"/>
			<path class="st2" d="M82.2,199.3c-8.3,3.1-16.9,4.6-25.6,4.7c-0.4,0-0.7,0-1.1,0c-8.7-0.1-17.4-1.6-25.6-4.7
				c-6.9-2.8-9.9,0.9-7.1,8.4c2.3,5.8,4.7,11.2,7.2,16.1c3,6.3,11.3,10.6,18.4,10.6c2.4,0,4.8,0,7.2,0c0.4,0,0.7,0,1.1,0
				c2.4,0,4.8,0,7.2,0c7,0.1,15.4-4.3,18.4-10.6c2.4-4.9,4.8-10.2,7.2-16.1C92.1,200.1,89.1,196.4,82.2,199.3z"/>
		</g>
	</g>
</g>
</svg>
