<?xml version="1.0" encoding="utf-8"?>
<!-- Generator: Adobe Illustrator 28.0.0, SVG Export Plug-In . SVG Version: 6.00 Build 0)  -->
<svg version="1.1" id="圖層_1" xmlns="http://www.w3.org/2000/svg" xmlns:xlink="http://www.w3.org/1999/xlink" x="0px" y="0px"
	 viewBox="0 0 546 707" style="enable-background:new 0 0 546 707;" xml:space="preserve">
<style type="text/css">
	.st0{fill:#1D2344;}
	.st1{fill:#EEB41C;}
	.st2{fill:#0067E2;}
	.st3{fill:#00A988;}
	.st4{fill:#E84D24;}
	.st5{fill:#FFFFFF;}
	.st6{fill:#F38E9E;}
	.st7{fill:none;stroke:#E7E6DE;stroke-width:5.7375;stroke-linecap:round;stroke-linejoin:round;stroke-miterlimit:10;}
	.st8{fill:#E8E5DB;}
</style>
<g>
	<path class="st0" d="M355.8,295.8v36.4h26.2C381.9,312.1,370.2,295.8,355.8,295.8z"/>
	<path class="st0" d="M322,295.8v36.4h26.2C348.2,312.1,336.4,295.8,322,295.8z"/>
	<path class="st0" d="M288.2,295.8v36.4h26.2C314.4,312.1,302.7,295.8,288.2,295.8z"/>
	<rect x="221.1" y="329" class="st1" width="180.2" height="126"/>
	<path class="st2" d="M401,455V329h126C527,398.6,470.6,455,401,455z"/>
	<g>
		<path class="st0" d="M498.5,159.2l-20.8,29.9l-21.5-14.9C467.7,157.6,486.6,150.9,498.5,159.2z"/>
		<path class="st0" d="M525.7,186.1l-26.3,25.1l-18.1-18.9C495.8,178.5,515.7,175.7,525.7,186.1z"/>
		<path class="st0" d="M546,221.3l-32.1,17l-12.3-23.1C519.3,205.8,539.2,208.5,546,221.3z"/>
	</g>
	<g>
		<path class="st0" d="M355.3,643.1v36.4h26.2C381.5,659.4,369.8,643.1,355.3,643.1z"/>
		<path class="st0" d="M321.5,643.1v36.4h26.2C347.7,659.4,336,643.1,321.5,643.1z"/>
		<path class="st0" d="M287.7,643.1v36.4h26.2C313.9,659.4,302.2,643.1,287.7,643.1z"/>
	</g>
	<rect x="275.4" y="676.1" class="st3" width="125.7" height="30.9"/>
	<g>
		<path class="st0" d="M320.7,470.6V507h26.2C346.9,486.9,335.2,470.6,320.7,470.6z"/>
		<path class="st0" d="M287,470.6V507h26.2C313.2,486.9,301.5,470.6,287,470.6z"/>
		<path class="st0" d="M253.3,470.6V507h26.2C279.5,486.9,267.8,470.6,253.3,470.6z"/>
		<path class="st0" d="M354.4,470.6V507h26.2C380.6,486.9,368.9,470.6,354.4,470.6z"/>
	</g>
	<g>
		<path class="st3" d="M122.3,402.4l-26.6-24.7c-0.4-0.4-0.7-0.9-0.7-1.4l-4.8-42.6c0-0.7-0.4-1.3-1.1-1.7l-7.2-4.8
			c-0.4-0.2-4.7-0.9-5.1-0.8l-6.1,2.3c-1.7,0.2,2.1,6.1,3.3,7.2l4.2,4.1c0.4,0.4,0.7,0.9,0.7,1.5l0.6,25c0,2.2-0.7,5.6-1.4,3.5
			L64,348c-0.1-0.4-0.4-0.8-0.7-1l-8.4-5.4c-0.8-0.6-4.4-1.3-5.1-0.5l-4.8,4.2c-0.6,0.7,1.9,4.7,2.5,5.4l7.3,6.4
			c0.2,0.2,0.3,0.4,0.4,0.6L66,384.8c0.2,0.7,0.1,1.4-0.4,2l-19.9,21.5c-0.4,0.5-1,1.1-1.8,0.7l-5.8-6c-1.7-0.1-7.7,8-6.5,9.3
			l10.6,12.2c0.7,0.8,1.8,0.9,2.6,0.3l30.7-23c0.6-0.4,1.4-0.5,2.1-0.1l38,30.6c1.2,0.7,7.5-28.1,7.5-28.1
			C123.1,403.4,122.8,402.8,122.3,402.4z"/>
		<path class="st0" d="M32.8,341.4l14.9,9.4l7.2-9.2C47.4,337.6,35.9,337.7,32.8,341.4z"/>
		<path class="st0" d="M27.5,390.8l11.6,13.2l-7.7,8.2C26,406.4,23.8,395.9,27.5,390.8z"/>
		<path class="st0" d="M59.7,327.9l14.9,8.5l7.4-9.2C74.5,323.3,62.8,324.3,59.7,327.9z"/>
	</g>
	<rect x="221.1" y="329" class="st0" width="54.1" height="126"/>
	
		<rect x="221.1" y="502.6" transform="matrix(-1 -1.224647e-16 1.224647e-16 -1 622.3687 1131.1694)" class="st4" width="180.2" height="126"/>
	
		<rect x="347.1" y="502.6" transform="matrix(-1 -1.224647e-16 1.224647e-16 -1 748.4366 1131.1694)" class="st2" width="54.1" height="126"/>
	<rect x="221.1" y="155.3" class="st3" width="180.2" height="126"/>
	
		<rect x="440.1" y="242.1" transform="matrix(6.123234e-17 -1 1 6.123234e-17 158.9002 769.1588)" class="st1" width="47.8" height="126"/>
	
		<rect x="440.1" y="589.4" transform="matrix(6.123234e-17 -1 1 6.123234e-17 -188.3418 1116.4008)" class="st0" width="47.8" height="126"/>
	<path class="st4" d="M527,281.2H401v-126C470.6,155.3,527,211.7,527,281.2z"/>
	<g>
		<g>
			<g>
				<g>
					<path class="st1" d="M284.8,502.6c-0.2,33.6-28.1,61.2-63.7,64.2c34.8,2.9,62.1,29.3,63.6,61.8h0.3c1.4-32,27.9-58,61.9-61.6
						v-0.3C312,562.9,285,535.7,284.8,502.6z"/>
				</g>
			</g>
		</g>
	</g>
	<g>
		<g>
			<g>
				<g>
					<path class="st4" d="M427.2,303.7C427.2,303.7,427.2,303.7,427.2,303.7c6.1,0,11-4.9,11-11c0,0,0,0,0,0
						C432.2,292.7,427.2,297.7,427.2,303.7z"/>
					<path class="st4" d="M423.1,303.7C423.1,303.7,423.1,303.7,423.1,303.7c-6.1,0-11-4.9-11-11c0,0,0,0,0,0
						C418.2,292.7,423.1,297.7,423.1,303.7z"/>
					<path class="st4" d="M423.1,306.9C423.1,306.9,423.1,306.9,423.1,306.9c-6.1,0-11,4.9-11,11c0,0,0,0,0,0
						C418.2,317.9,423.1,313,423.1,306.9z"/>
					<path class="st4" d="M427.2,306.9C427.2,306.9,427.2,306.9,427.2,306.9c6.1,0,11,4.9,11,11c0,0,0,0,0,0
						C432.2,317.9,427.2,313,427.2,306.9z"/>
				</g>
			</g>
		</g>
		<g>
			<g>
				<g>
					<path class="st4" d="M467.1,303.7C467.1,303.7,467.1,303.7,467.1,303.7c6.1,0,11-4.9,11-11c0,0,0,0,0,0
						C472,292.7,467.1,297.7,467.1,303.7z"/>
					<path class="st4" d="M463,303.7C463,303.7,463,303.7,463,303.7c-6.1,0-11-4.9-11-11c0,0,0,0,0,0C458,292.7,463,297.7,463,303.7
						z"/>
					<path class="st4" d="M463,306.9C463,306.9,463,306.9,463,306.9c-6.1,0-11,4.9-11,11c0,0,0,0,0,0C458,317.9,463,313,463,306.9z"
						/>
					<path class="st4" d="M467.1,306.9C467.1,306.9,467.1,306.9,467.1,306.9c6.1,0,11,4.9,11,11c0,0,0,0,0,0
						C472,317.9,467.1,313,467.1,306.9z"/>
				</g>
			</g>
		</g>
		<g>
			<g>
				<g>
					<path class="st4" d="M507,303.7C507,303.7,507,303.7,507,303.7c6.1,0,11-4.9,11-11c0,0,0,0,0,0
						C511.9,292.7,507,297.7,507,303.7z"/>
					<path class="st4" d="M502.8,303.7C502.8,303.7,502.8,303.7,502.8,303.7c-6.1,0-11-4.9-11-11c0,0,0,0,0,0
						C497.9,292.7,502.8,297.7,502.8,303.7z"/>
					<path class="st4" d="M502.8,306.9C502.8,306.9,502.8,306.9,502.8,306.9c-6.1,0-11,4.9-11,11c0,0,0,0,0,0
						C497.9,317.9,502.8,313,502.8,306.9z"/>
					<path class="st4" d="M507,306.9C507,306.9,507,306.9,507,306.9c6.1,0,11,4.9,11,11c0,0,0,0,0,0C511.9,317.9,507,313,507,306.9z
						"/>
				</g>
			</g>
		</g>
	</g>
	<g>
		<g>
			<g>
				<g>
					<g>
						<path class="st4" d="M334.8,432.5c-4.6,0-9.3-1.8-12.8-5.3c-1.5-1.5-2.8-3.3-3.7-5.3c-9.4-0.6-16.9-8.5-16.9-18
							c0-2.2,0.4-4.4,1.2-6.4c-6.2-7.1-5.9-17.9,0.8-24.7c1.5-1.5,3.3-2.8,5.3-3.7c0.6-9.4,8.5-16.9,18-16.9c2.2,0,4.4,0.4,6.4,1.2
							c7.1-6.2,17.9-5.9,24.7,0.8c1.5,1.5,2.8,3.3,3.7,5.3c9.4,0.6,16.9,8.5,16.9,18c0,2.2-0.4,4.4-1.2,6.4
							c6.2,7.1,5.9,17.9-0.8,24.7c-1.5,1.5-3.3,2.8-5.3,3.7c-0.6,9.4-8.5,16.9-18,16.9c-2.2,0-4.4-0.4-6.4-1.2
							C343.3,431,339.1,432.5,334.8,432.5z"/>
					</g>
				</g>
				<path class="st5" d="M348,390.7c0-2.2-1.6-4-3.7-4.2c-0.3-2.1-2.1-3.7-4.2-3.7c-2.2,0-4,1.6-4.2,3.7c-2.1,0.3-3.7,2.1-3.7,4.2
					c0,2.2,1.6,4,3.7,4.2c0.3,2.1,2.1,3.7,4.2,3.7c2.2,0,4-1.6,4.2-3.7C346.3,394.7,348,392.9,348,390.7z"/>
			</g>
		</g>
	</g>
	<path class="st0" d="M211.3,698.4c-12.5-15.8-31.7-21.3-43.1-12.3l16.5,21h15.6L211.3,698.4z"/>
	<path class="st4" d="M275.4,707v-30.9c0,0,0,0,0,0c-31.6,0-60.5,11.7-82.7,30.9H275.4z"/>
	<g>
		<path class="st1" d="M524.8,257.7c-0.4,1.1-0.6,2.2-0.7,3.3c0,0.2,0.1,0.3,0.1,0.5h1.3C525.3,260.2,525,258.9,524.8,257.7z"/>
		<path class="st1" d="M510.4,248.3c-7.2,0-13.1,5.6-13.6,12.6c0,0.2,0.1,0.3,0.1,0.5H524h0.1c0-0.2-0.1-0.3-0.1-0.5
			C523.5,253.9,517.6,248.3,510.4,248.3z"/>
		<path class="st1" d="M483.1,248.3c-7.2,0-13.1,5.6-13.6,12.6c0,0.2,0.1,0.3,0.1,0.5h27.2h0.1c0-0.2-0.1-0.3-0.1-0.5
			C496.2,253.9,490.3,248.3,483.1,248.3z"/>
		<path class="st1" d="M455.8,248.3c-7.2,0-13.1,5.6-13.6,12.6c0,0.2,0.1,0.3,0.1,0.5h27.2h0.1c0-0.2-0.1-0.3-0.1-0.5
			C468.9,253.9,463,248.3,455.8,248.3z"/>
		<path class="st1" d="M428.5,248.3c-7.2,0-13.1,5.6-13.6,12.6c0,0.2,0.1,0.3,0.1,0.5h27.2h0.1c0-0.2-0.1-0.3-0.1-0.5
			C441.6,253.9,435.7,248.3,428.5,248.3z"/>
		<path class="st1" d="M401.2,248.3c-0.1,0-0.1,0-0.2,0v13.1h13.8h0.1c0-0.2-0.1-0.3-0.1-0.5C414.3,253.9,408.4,248.3,401.2,248.3z"
			/>
		<path class="st6" d="M514.6,226.7c-2.1-4.4-4.5-8.7-7.1-12.8c-5.8,1.3-10.2,6.2-10.7,12.3c0,0.2,0.1,0.3,0.1,0.5H514.6z"/>
		<path class="st6" d="M496.7,226.7h0.1c0-0.2-0.1-0.3-0.1-0.5c-0.6-7.1-6.4-12.6-13.6-12.6c-7.2,0-13.1,5.6-13.6,12.6
			c0,0.2,0.1,0.3,0.1,0.5H496.7z"/>
		<path class="st6" d="M469.4,226.7h0.1c0-0.2-0.1-0.3-0.1-0.5c-0.6-7.1-6.4-12.6-13.6-12.6c-7.2,0-13.1,5.6-13.6,12.6
			c0,0.2,0.1,0.3,0.1,0.5H469.4z"/>
		<path class="st6" d="M442.1,226.7h0.1c0-0.2-0.1-0.3-0.1-0.5c-0.6-7.1-6.4-12.6-13.6-12.6c-7.2,0-13.1,5.6-13.6,12.6
			c0,0.2,0.1,0.3,0.1,0.5H442.1z"/>
		<path class="st6" d="M415,226.7c0-0.2-0.1-0.3-0.1-0.5c-0.6-7.1-6.4-12.6-13.6-12.6c-0.1,0-0.1,0-0.2,0v13.1h13.8H415z"/>
		<path class="st1" d="M489.9,192c-4.1-4.1-8.6-7.9-13.2-11.5c-4,2.1-6.8,6.2-7.2,11c0,0.2,0.1,0.3,0.1,0.5H489.9z"/>
		<path class="st1" d="M469.4,192h0.1c0-0.2-0.1-0.3-0.1-0.5c-0.6-7.1-6.4-12.6-13.6-12.6c-7.2,0-13.1,5.6-13.6,12.6
			c0,0.2,0.1,0.3,0.1,0.5H469.4z"/>
		<path class="st1" d="M442.1,192h0.1c0-0.2-0.1-0.3-0.1-0.5c-0.6-7.1-6.4-12.6-13.6-12.6c-7.2,0-13.1,5.6-13.6,12.6
			c0,0.2,0.1,0.3,0.1,0.5H442.1z"/>
		<path class="st1" d="M401,192h13.8h0.1c0-0.2-0.1-0.3-0.1-0.5c-0.6-7.1-6.4-12.6-13.6-12.6c-0.1,0-0.1,0-0.2,0V192z"/>
	</g>
	<g>
		<path class="st4" d="M95.1,455h126V329C151.5,329,95.1,385.4,95.1,455z"/>
		<g>
			<path class="st1" d="M97.3,431.5c-0.2,1.3-0.5,2.5-0.7,3.8H98c0-0.2,0.1-0.3,0.1-0.5C98,433.6,97.7,432.5,97.3,431.5z"/>
			<path class="st1" d="M111.7,422.1c-7.2,0-13.1,5.6-13.6,12.6c0,0.2-0.1,0.3-0.1,0.5h0.1h27.2c0-0.2,0.1-0.3,0.1-0.5
				C124.8,427.7,118.9,422.1,111.7,422.1z"/>
			<path class="st1" d="M139,422.1c-7.2,0-13.1,5.6-13.6,12.6c0,0.2-0.1,0.3-0.1,0.5h0.1h27.2c0-0.2,0.1-0.3,0.1-0.5
				C152.1,427.7,146.2,422.1,139,422.1z"/>
			<path class="st1" d="M166.3,422.1c-7.2,0-13.1,5.6-13.6,12.6c0,0.2-0.1,0.3-0.1,0.5h0.1h27.2c0-0.2,0.1-0.3,0.1-0.5
				C179.4,427.7,173.5,422.1,166.3,422.1z"/>
			<path class="st1" d="M193.6,422.1c-7.2,0-13.1,5.6-13.6,12.6c0,0.2-0.1,0.3-0.1,0.5h0.1h27.2c0-0.2,0.1-0.3,0.1-0.5
				C206.7,427.7,200.8,422.1,193.6,422.1z"/>
			<path class="st1" d="M221.1,422.1c-0.1,0-0.1,0-0.2,0c-7.2,0-13.1,5.6-13.6,12.6c0,0.2-0.1,0.3-0.1,0.5h0.1h13.8V422.1z"/>
			<path class="st6" d="M114.6,387.7c-2.6,4.1-5,8.4-7.1,12.8h17.8c0-0.2,0.1-0.3,0.1-0.5C124.9,393.9,120.4,389,114.6,387.7z"/>
			<path class="st6" d="M139,387.4c-7.2,0-13.1,5.6-13.6,12.6c0,0.2-0.1,0.3-0.1,0.5h0.1h27.2c0-0.2,0.1-0.3,0.1-0.5
				C152.1,393,146.2,387.4,139,387.4z"/>
			<path class="st6" d="M166.3,387.4c-7.2,0-13.1,5.6-13.6,12.6c0,0.2-0.1,0.3-0.1,0.5h0.1h27.2c0-0.2,0.1-0.3,0.1-0.5
				C179.4,393,173.5,387.4,166.3,387.4z"/>
			<path class="st6" d="M193.6,387.4c-7.2,0-13.1,5.6-13.6,12.6c0,0.2-0.1,0.3-0.1,0.5h0.1h27.2c0-0.2,0.1-0.3,0.1-0.5
				C206.7,393,200.8,387.4,193.6,387.4z"/>
			<path class="st6" d="M220.9,387.4c-7.2,0-13.1,5.6-13.6,12.6c0,0.2-0.1,0.3-0.1,0.5h0.1h13.8v-13.1
				C221,387.4,221,387.4,220.9,387.4z"/>
			<path class="st1" d="M145.4,354.3c-4.7,3.5-9.1,7.3-13.2,11.5h20.4c0-0.2,0.1-0.3,0.1-0.5C152.3,360.5,149.4,356.4,145.4,354.3z"
				/>
			<path class="st1" d="M166.3,352.6c-7.2,0-13.1,5.6-13.6,12.6c0,0.2-0.1,0.3-0.1,0.5h0.1h27.2c0-0.2,0.1-0.3,0.1-0.5
				C179.4,358.2,173.5,352.6,166.3,352.6z"/>
			<path class="st1" d="M193.6,352.6c-7.2,0-13.1,5.6-13.6,12.6c0,0.2-0.1,0.3-0.1,0.5h0.1h27.2c0-0.2,0.1-0.3,0.1-0.5
				C206.7,358.2,200.8,352.6,193.6,352.6z"/>
			<path class="st1" d="M220.9,352.6c-7.2,0-13.1,5.6-13.6,12.6c0,0.2-0.1,0.3-0.1,0.5h0.1h13.8v-13.1
				C221,352.7,221,352.6,220.9,352.6z"/>
		</g>
	</g>
	<path class="st1" d="M401,707h122.1c2.5-9.9,3.8-20.2,3.8-30.9H401V707z"/>
	<path class="st2" d="M527,676.1H401L432,707h91.2C525.7,697.1,527,686.8,527,676.1z"/>
	<g>
		
			<rect x="134.2" y="415.9" transform="matrix(6.123234e-17 -1 1 6.123234e-17 -320.8208 637.0128)" class="st2" width="47.8" height="126"/>
		<path class="st2" d="M221.1,628.6v-126h-126C95.1,572.2,151.5,628.6,221.1,628.6z"/>
		<g>
			<path class="st0" d="M95.1,480.9h91.5c9.7,0,13-4.1,13-11.9H95.1V480.9z"/>
			<path class="st0" d="M177.8,492.6H95.1v10.2h0c0,0.6,0,1.2,0,1.7h69.6C174.5,504.6,177.8,500.4,177.8,492.6z"/>
			<path class="st0" d="M95.9,516.2c0.4,4,1.1,8,1.9,11.9h88.9c9.7,0,13-4.1,13-11.9H95.9z"/>
			<path class="st0" d="M164.7,551.8c9.7,0,13-4.1,13-11.9h-77c1.3,4.1,2.7,8.1,4.4,11.9H164.7z"/>
			<path class="st0" d="M199.6,563.5h-88.8c2.3,4.1,4.8,8.1,7.5,11.9h68.2C196.3,575.4,199.6,571.3,199.6,563.5z"/>
			<path class="st0" d="M177.8,587.1h-50c3.9,4.3,8,8.2,12.4,11.9h24.5C174.5,599.1,177.8,595,177.8,587.1z"/>
		</g>
	</g>
	<g>
		<g>
			<path class="st2" d="M15.6,134.1c-1.4,0-2.7-1.1-2.8-2.5c-1.7-15.1-1.4-26.6,5.6-33.7c6.3-6.5,17.7-8.7,35.9-7
				c34,1.6,61.5,0.5,71.5-3c7.5-2.6,16.9-15,20.2-33.7c0.3-1.6,1.8-2.6,3.3-2.3c1.6,0.3,2.6,1.8,2.3,3.3
				c-3.3,18.7-13.2,34.3-23.9,38.1c-10.8,3.8-38.4,5-73.7,3.3c-16.4-1.5-26.4,0.2-31.4,5.3c-5.4,5.5-5.5,15.6-4,29.1
				c0.2,1.6-1,3-2.5,3.2C15.8,134.1,15.7,134.1,15.6,134.1z"/>
		</g>
		<g>
			<path class="st2" d="M34.2,134.4c-1.6,0-2.9-1.3-2.9-2.9c0-3.2-0.1-6.8-0.2-10.5c-0.7-21.4-1.6-48.1,18-55
				c7-2.5,17.3-2.5,28.2-2.5c12.7,0,25.9,0,34.6-3.9c11.4-5.1,18.6-23.1,20.2-50.7c0.1-1.6,1.5-2.8,3-2.7c1.6,0.1,2.8,1.4,2.7,3
				c-1.8,30.2-9.9,49.4-23.6,55.6c-9.8,4.4-23.6,4.4-36.9,4.4c-10.4,0-20.2,0-26.3,2.2c-15.6,5.5-14.8,29.9-14.2,49.4
				c0.1,3.8,0.2,7.4,0.2,10.7C37,133.2,35.8,134.4,34.2,134.4z"/>
		</g>
		<path class="st2" d="M206.2,124.5v156.8h9.8c139.1,3.2,158.9-89.4,158.9-156.8H206.2z"/>
		<path class="st4" d="M303.6,194.2h-28.3h-47.1v28.1h75.2c0.1,0,0.1,0,0.2,0c15.6,0,28.2-12.6,28.3-28.1H303.6z"/>
		<path class="st4" d="M301.8,161.2h-28.3h-39.1v28.1h67.2c0.1,0,0.1,0,0.2,0c15.6,0,28.2-12.6,28.3-28.1H301.8z"/>
		<path class="st4" d="M272.6,227.3h-28.3h-18.4v28.1h46.5c0.1,0,0.1,0,0.2,0c15.6,0,28.2-12.6,28.3-28.1H272.6z"/>
		<path class="st0" d="M230.7,116c13.2-4.9,80.9-45.1,119-83.7c10.1-11.1,20.5,21.8-3.4,46.9c-20.3,22.5-55.9,51.8-83.9,67
			c-2,0.5-60.1-1.2-60.1-1.2L230.7,116z"/>
		<path class="st0" d="M179.8,97.1c12.5-6.1,75-52.3,108.5-94c8.8-11.9,22.3,19.3,1.3,46.3c-17.7,24.1-49.8,56.4-75.8,74
			c-1.9,0.7-59.1,4.7-59.1,4.7L179.8,97.1z"/>
		<path class="st3" d="M154.5,227.8h-37.4v40.5c0,18.5,12.9,24.8,37.4,24.8V227.8z"/>
		<path class="st4" d="M117.7,227.8l-37.4,17.6v22.9c0,18.5,12.9,24.8,37.4,24.8V227.8z"/>
		<g>
			<path class="st4" d="M191.4,227.8h-37.4v40.5c0,18.5,12.9,24.8,37.4,24.8V227.8z"/>
			<path class="st7" d="M183.2,284.6c-19.3-1.5-21-8.5-21-16.3v-38.2"/>
		</g>
		<g>
			<path class="st7" d="M109.5,284.6c-19.3-1.5-21-8.5-21-16.3V236"/>
		</g>
		<g>
			<path class="st7" d="M146.4,284.6c-19.3-1.5-21-8.5-21-16.3v-38.2"/>
		</g>
		<path class="st3" d="M228.3,227.8h-37.4v40.5c0,18.5,12.9,24.8,37.4,24.8V227.8z"/>
		<g>
			<path class="st7" d="M220.1,284.6c-19.3-1.5-21-8.5-21-16.3v-38.2"/>
		</g>
		<path class="st5" d="M43,164.2H21.3v12.3c0,8.9,9,17.2,21.7,17.2V164.2z"/>
		<path class="st5" d="M113.8,164.2H92.1v12.3c0,8.9,9,17.2,21.7,17.2V164.2z"/>
		<path class="st5" d="M65.1,259H43.4v-12.3c0-8.9,9-17.2,21.7-17.2V259z"/>
		<path class="st1" d="M276.2,164.7c14.9,0,27.1-12.1,27.1-27H52c-4.9-7-12.9-11.8-21.8-12.3C13.7,124.5,0,137.6,0,153.9
			c0,2.6,0.4,5.1,1,7.4h13.8h41.2h110.4c1.1,9.9,3.8,48,3.2,47.6c-0.6-0.4-51.5,9.6-51.5,9.6l-36,31.4H32.3
			c-0.8,2.7-1.2,3.9-1.2,6.9c0,17.1,13.9,31,31,31c12.9,0,24-7.9,28.6-19.1c10.4-15,26.2-37.8,71.6-36.5l80.2-0.6v0
			c0,0,18.6,0,18.7,0c14.9,0,27.1-12.1,27.1-27l-48.6,0c-1.8,0-3.2-1.4-3.2-3.2c0-1.8,1.4-3.2,3.2-3.2c0,0,18.7,0,18.7,0
			c14.9,0,27.1-12.1,27.1-27l-45.9,0c-1.8,0-3.2-1.4-3.2-3.2c0-1.8,1.4-3.2,3.2-3.2C239.7,164.7,276.2,164.7,276.2,164.7z"/>
		<path class="st4" d="M184.8,178.1c0,0,18.9,0,18.9,0c9.2,0,16.6-7.4,16.6-16.6H213v-0.2H1c0.9,3.4,2.4,6.5,4.4,9.3
			c1.8,2.5,4.7,4,7.9,4h14.3h20.4l107.4,0c5.6,0.2,10.1,4.9,10.1,10.5v10c0,5.8-4.7,10.4-10.6,10.4l-4.2,0.1
			c-33.6,1.8-59.4,15.1-72.9,38c-1.7,2.9-4.8,4.8-8.2,4.8H31.1c-3.8,0-6.9,3.3-6.5,7.2c0.3,3.4,3.4,5.9,6.8,5.9h48.1
			c2.7,0,5-1.6,6.1-4.1c12.7-30.3,43.4-37.8,66.9-38.8l42,0c0,0,0.1,0,0.1,0c9.2,0,16.6-7.4,16.6-16.6l-26.3,0
			c-1.1,0-1.9-0.9-1.9-1.9c0-1.1,0.9-1.9,1.9-1.9c0,0,7.9,0,8,0c9.2,0,16.6-7.4,16.6-16.6l-24.6,0c-1.1,0-1.9-0.9-1.9-1.9
			C182.9,178.9,183.8,178.1,184.8,178.1z"/>
		<g>
			<path class="st2" d="M199.8,83.2c17.9,0.3,45.4,1.3,53.3-6.1c2.1,30.2-10.3,68.8-48,72.9"/>
			<path class="st2" d="M199.3,150.4h-23.2c-18.6,0-33.6-15.1-33.6-33.6v0c0-18.6,15.1-33.6,33.6-33.6h23.2
				c18.6,0,33.6,15.1,33.6,33.6v0C232.9,135.4,217.9,150.4,199.3,150.4z"/>
		</g>
		<g>
			<path class="st4" d="M180.9,103.8c13,0.2,32.9,0.9,38.7-4.2c1.5,21-7.5,47.8-34.8,50.7"/>
			<path class="st4" d="M181.6,150.5h-18.9c-12.9,0-23.4-10.5-23.4-23.4v0c0-12.9,10.5-23.4,23.4-23.4h18.9
				c12.9,0,23.4,10.5,23.4,23.4v0C205,140.1,194.5,150.5,181.6,150.5z"/>
		</g>
		
			<ellipse transform="matrix(0.7071 -0.7071 0.7071 0.7071 -47.6101 157.8862)" class="st5" cx="166.8" cy="136.4" rx="18.4" ry="18.4"/>
		<circle class="st0" cx="160" cy="138.8" r="12"/>
		<path class="st8" d="M14.4,147.9c2.2-5.7,7.7-9.7,14.1-9.7c6.4,0,11.9,4,14.1,9.7H14.4z"/>
	</g>
	<g>
		<path class="st0" d="M498.5,503.5l-20.8,29.9l-21.5-14.9C467.7,502,486.6,495.3,498.5,503.5z"/>
		<path class="st0" d="M525.7,530.4l-26.3,25.1l-18.1-18.9C495.8,522.8,515.7,520,525.7,530.4z"/>
		<path class="st0" d="M546,565.6l-32.1,17l-12.3-23.1C519.3,550.2,539.2,552.9,546,565.6z"/>
	</g>
	<path class="st6" d="M401,502.6v126h126C527,559,470.6,502.6,401,502.6z"/>
	<g>
		<path class="st4" d="M524.8,605c-0.4,1.1-0.6,2.2-0.7,3.3c0,0.2,0.1,0.3,0.1,0.5h1.3C525.3,607.5,525,606.3,524.8,605z"/>
		<path class="st4" d="M510.4,595.7c-7.2,0-13.1,5.6-13.6,12.6c0,0.2,0.1,0.3,0.1,0.5H524h0.1c0-0.2-0.1-0.3-0.1-0.5
			C523.5,601.3,517.6,595.7,510.4,595.7z"/>
		<path class="st4" d="M483.1,595.7c-7.2,0-13.1,5.6-13.6,12.6c0,0.2,0.1,0.3,0.1,0.5h27.2h0.1c0-0.2-0.1-0.3-0.1-0.5
			C496.2,601.3,490.3,595.7,483.1,595.7z"/>
		<path class="st4" d="M455.8,595.7c-7.2,0-13.1,5.6-13.6,12.6c0,0.2,0.1,0.3,0.1,0.5h27.2h0.1c0-0.2-0.1-0.3-0.1-0.5
			C468.9,601.3,463,595.7,455.8,595.7z"/>
		<path class="st4" d="M428.5,595.7c-7.2,0-13.1,5.6-13.6,12.6c0,0.2,0.1,0.3,0.1,0.5h27.2h0.1c0-0.2-0.1-0.3-0.1-0.5
			C441.6,601.3,435.7,595.7,428.5,595.7z"/>
		<path class="st4" d="M401.2,595.7c-0.1,0-0.1,0-0.2,0v13.1h13.8h0.1c0-0.2-0.1-0.3-0.1-0.5C414.3,601.3,408.4,595.7,401.2,595.7z"
			/>
		<path class="st4" d="M514.6,574.1c-2.1-4.4-4.5-8.7-7.1-12.8c-5.8,1.3-10.2,6.2-10.7,12.3c0,0.2,0.1,0.3,0.1,0.5H514.6z"/>
		<path class="st4" d="M496.7,574.1h0.1c0-0.2-0.1-0.3-0.1-0.5c-0.6-7.1-6.4-12.6-13.6-12.6c-7.2,0-13.1,5.6-13.6,12.6
			c0,0.2,0.1,0.3,0.1,0.5H496.7z"/>
		<path class="st4" d="M469.4,574.1h0.1c0-0.2-0.1-0.3-0.1-0.5c-0.6-7.1-6.4-12.6-13.6-12.6c-7.2,0-13.1,5.6-13.6,12.6
			c0,0.2,0.1,0.3,0.1,0.5H469.4z"/>
		<path class="st4" d="M442.1,574.1h0.1c0-0.2-0.1-0.3-0.1-0.5c-0.6-7.1-6.4-12.6-13.6-12.6c-7.2,0-13.1,5.6-13.6,12.6
			c0,0.2,0.1,0.3,0.1,0.5H442.1z"/>
		<path class="st4" d="M415,574.1c0-0.2-0.1-0.3-0.1-0.5c-0.6-7.1-6.4-12.6-13.6-12.6c-0.1,0-0.1,0-0.2,0v13.1h13.8H415z"/>
		<path class="st4" d="M489.9,539.3c-4.1-4.1-8.6-7.9-13.2-11.5c-4,2.1-6.8,6.2-7.2,11c0,0.2,0.1,0.3,0.1,0.5H489.9z"/>
		<path class="st4" d="M469.4,539.3h0.1c0-0.2-0.1-0.3-0.1-0.5c-0.6-7.1-6.4-12.6-13.6-12.6c-7.2,0-13.1,5.6-13.6,12.6
			c0,0.2,0.1,0.3,0.1,0.5H469.4z"/>
		<path class="st4" d="M442.1,539.3h0.1c0-0.2-0.1-0.3-0.1-0.5c-0.6-7.1-6.4-12.6-13.6-12.6c-7.2,0-13.1,5.6-13.6,12.6
			c0,0.2,0.1,0.3,0.1,0.5H442.1z"/>
		<path class="st4" d="M401,539.3h13.8h0.1c0-0.2-0.1-0.3-0.1-0.5c-0.6-7.1-6.4-12.6-13.6-12.6c-0.1,0-0.1,0-0.2,0V539.3z"/>
	</g>
</g>
</svg>
