<?xml version="1.0" encoding="utf-8"?>
<!-- Generator: Adobe Illustrator 28.0.0, SVG Export Plug-In . SVG Version: 6.00 Build 0)  -->
<svg version="1.1" id="圖層_1" xmlns="http://www.w3.org/2000/svg" xmlns:xlink="http://www.w3.org/1999/xlink" x="0px" y="0px"
	 viewBox="0 0 148 25" style="enable-background:new 0 0 148 25;" xml:space="preserve">
<style type="text/css">
	.st0{fill:#0067E2;}
</style>
<g>
	<path class="st0" d="M1.82,18.48c0.48-0.94,0.94-2.03,1.39-3.26c1.51,0.88,3.27,1.56,5.28,2.05S12.37,18,14.1,18
		c1.77,0,3.02-0.15,3.74-0.46c0.73-0.31,1.09-0.64,1.09-1.01c0-1.3-1.98-1.95-5.95-1.95c-4.35,0-7.51-0.45-9.47-1.36
		c-1.96-0.91-2.94-2.37-2.94-4.4c0-2.88,1.19-5,3.58-6.37C6.53,1.09,9.64,0.4,13.46,0.4c2.22,0,4.5,0.28,6.83,0.85
		c2.34,0.56,4.44,1.34,6.32,2.32c-0.62,1.41-1.27,3.13-1.95,5.15c-0.13,0.43-0.23,0.75-0.32,0.96c-1.09-0.88-2.73-1.61-4.93-2.19
		s-4.14-0.88-5.82-0.88c-2.03,0-3.39,0.13-4.1,0.4S8.43,7.67,8.43,8.18S8.92,9.1,9.89,9.41c0.97,0.31,2.37,0.46,4.21,0.46
		c4.52,0,7.81,0.52,9.86,1.55c2.05,1.04,3.07,2.62,3.07,4.75c0,2.99-1.09,5.14-3.26,6.45c-2.18,1.31-5.47,1.97-9.89,1.97
		c-2.37,0-4.78-0.26-7.23-0.78s-4.66-1.29-6.62-2.29C0.74,20.44,1.34,19.42,1.82,18.48z"/>
	<path class="st0" d="M57.39,7.76c-3.35-0.11-6.6-0.17-9.76-0.19v16.7h-8V7.57c-3.18,0.02-6.42,0.08-9.73,0.19V1.04h27.49V7.76z"/>
	<path class="st0" d="M67.82,18.42c8.11-0.04,13.98-0.16,17.63-0.35c-0.15,0.88-0.24,1.78-0.27,2.7c-0.03,0.93-0.05,2.1-0.05,3.5
		H60.27c0.17-4.14,0.26-8.01,0.26-11.62c0-3.6-0.09-7.48-0.26-11.62h24.86v5.79H67.82v3.07c1.02,0.02,2.54,0.03,4.54,0.03
		c3.39,0,6.9-0.06,10.53-0.19v5.5c-3.63-0.13-7.14-0.19-10.53-0.19c-2.01,0-3.52,0.01-4.54,0.03V18.42z"/>
	<path class="st0" d="M102.86,1.08c4.25,0,7.2,0.75,8.86,2.26c1.66,1.5,2.5,3.62,2.5,6.35c0,1.88-0.33,3.47-0.99,4.78
		c-0.66,1.31-1.82,2.34-3.49,3.07s-3.96,1.1-6.88,1.1h-6.66v5.63h-7.87c0.17-4.14,0.26-8.01,0.26-11.62c0-3.6-0.09-7.48-0.26-11.62
		h7.87v0.03H102.86z M100.62,12.47c1.77,0,3.1-0.07,3.98-0.21s1.5-0.39,1.86-0.75c0.35-0.36,0.53-0.9,0.53-1.6s-0.17-1.23-0.5-1.58
		c-0.33-0.35-0.94-0.59-1.82-0.72c-0.89-0.13-2.24-0.19-4.05-0.19h-4.42v5.05H100.62z"/>
	<path class="st0" d="M147.98,17.4c-0.36,1.11-0.64,2.28-0.83,3.52c-0.19,1.24-0.29,2.36-0.29,3.36h-22.88l-0.03-0.67
		c0-2.09,0.61-3.9,1.84-5.44c1.23-1.54,2.94-2.96,5.14-4.26c0.64-0.38,1.64-0.87,3.01-1.47c1.77-0.77,3.14-1.45,4.1-2.03
		s1.44-1.17,1.44-1.74c0-0.72-0.3-1.3-0.9-1.73c-0.6-0.43-1.53-0.64-2.78-0.64c-1.39,0-2.44,0.35-3.15,1.06
		c-0.71,0.7-1.07,1.6-1.07,2.69c0,0.34,0.03,0.69,0.1,1.06c-2.69-0.34-5.3-0.58-7.84-0.71c0-1.81,0.47-3.45,1.42-4.91
		s2.38-2.62,4.29-3.47c1.91-0.85,4.25-1.28,7.02-1.28c2.54,0,4.66,0.35,6.35,1.04s2.94,1.57,3.74,2.62c0.8,1.06,1.2,2.14,1.2,3.25
		c0,1.28-0.28,2.38-0.85,3.3s-1.38,1.73-2.43,2.45c-1.06,0.71-2.47,1.49-4.24,2.32c-0.26,0.13-0.67,0.27-1.25,0.43
		s-0.94,0.26-1.09,0.3c-1.51,0.45-2.72,0.82-3.62,1.12c-0.9,0.3-1.74,0.67-2.53,1.12C138.79,18.29,144.17,17.87,147.98,17.4z"/>
</g>
</svg>
