<?xml version="1.0" encoding="utf-8"?>
<!-- Generator: Adobe Illustrator 26.3.1, SVG Export Plug-In . SVG Version: 6.00 Build 0)  -->
<svg version="1.1" id="分離模式" xmlns="http://www.w3.org/2000/svg" xmlns:xlink="http://www.w3.org/1999/xlink" x="0px"
	 y="0px" viewBox="0 0 95 72" style="enable-background:new 0 0 95 72;" xml:space="preserve">
<style type="text/css">
	.st0{fill:#FFC239;}
	.st1{fill:#FEE597;}
	.st2{fill:#FFC545;}
	.st3{fill:#FFD567;}
	.st4{fill:#FFAE28;}
</style>
<g>
	<g>
		<g>
			<g>
				<g>
					<g>
						<path class="st0" d="M90.07,56.35l-1.32,0.87C85.5,46.78,71.04,32.84,55.2,23.27C39.37,13.69,20.32,7.35,9.56,9.31l0.26-1.59
							L8.25,3.81L1.09,15.65c-5.97,9.87,13.59,27.85,34.3,40.37c20.53,12.42,45.28,21.35,51.52,11.88l0.01,0.01l6.99-11.56
							L90.07,56.35z"/>
					</g>
					<g>
						<path class="st1" d="M42.23,44.71C21.53,32.19,1.96,14.21,7.93,4.34S38.9,3.46,59.61,15.98c20.71,12.52,40.27,30.5,34.3,40.37
							C87.94,66.22,62.94,57.24,42.23,44.71z"/>
					</g>
					<g>
						<path class="st2" d="M89.6,53.02c-3.77,6.23-24,0.89-45.18-11.93C23.23,28.28,9.11,12.84,12.88,6.61
							c3.77-6.23,24-0.89,45.18,11.93S93.37,46.79,89.6,53.02z"/>
					</g>
				</g>
				<g>
					<g>
						<g>
							<path class="st3" d="M6.48,15.43c-1.92,2.43-3.61,5.04-5.05,7.78c-0.33,0.64,0.62,1.22,0.96,0.58
								c1.44-2.74,3.13-5.35,5.05-7.78C7.89,15.44,6.92,14.87,6.48,15.43L6.48,15.43z"/>
						</g>
					</g>
					<g>
						<g>
							<path class="st3" d="M10.66,21.57c-1.79,2.24-3.37,4.64-4.71,7.18c-0.34,0.63,0.62,1.22,0.96,0.58
								c1.34-2.54,2.92-4.94,4.71-7.18c0.19-0.24,0.04-0.62-0.19-0.77C11.14,21.2,10.85,21.33,10.66,21.57L10.66,21.57z"/>
						</g>
					</g>
					<g>
						<g>
							<path class="st3" d="M14.88,26.93c-1.24,2.05-2.49,4.11-3.73,6.16c-0.37,0.62,0.58,1.2,0.96,0.58
								c1.24-2.05,2.49-4.11,3.73-6.16C16.22,26.9,15.26,26.32,14.88,26.93L14.88,26.93z"/>
						</g>
					</g>
					<g>
						<g>
							<path class="st3" d="M21.98,31.23c-1.61,2.36-3.23,4.73-4.84,7.09c-0.41,0.6,0.55,1.17,0.96,0.58
								c1.61-2.36,3.23-4.73,4.84-7.09C23.35,31.22,22.39,30.64,21.98,31.23L21.98,31.23z"/>
						</g>
					</g>
					<g>
						<g>
							<path class="st3" d="M28.39,37.11c-1.42,2.35-2.84,4.7-4.26,7.05c-0.37,0.62,0.58,1.2,0.96,0.58
								c1.42-2.35,2.84-4.7,4.26-7.05C29.72,37.07,28.76,36.49,28.39,37.11L28.39,37.11z"/>
						</g>
					</g>
					<g>
						<g>
							<path class="st3" d="M33.83,41.2c-1.15,2.25-2.3,4.5-3.45,6.75c-0.33,0.64,0.63,1.22,0.96,0.58c1.15-2.25,2.3-4.5,3.45-6.75
								C35.12,41.14,34.16,40.56,33.83,41.2L33.83,41.2z"/>
						</g>
					</g>
					<g>
						<g>
							<path class="st3" d="M40.01,45.34c-1.36,2.25-2.72,4.5-4.08,6.75c-0.37,0.62,0.58,1.2,0.96,0.58
								c1.36-2.25,2.72-4.5,4.08-6.75C41.34,45.3,40.39,44.72,40.01,45.34L40.01,45.34z"/>
						</g>
					</g>
					<g>
						<g>
							<path class="st3" d="M45.63,48.34c-1.42,2.35-2.84,4.7-4.26,7.04c-0.37,0.62,0.58,1.2,0.96,0.58
								c1.42-2.35,2.84-4.7,4.26-7.05C46.96,48.3,46,47.72,45.63,48.34L45.63,48.34z"/>
						</g>
					</g>
					<g>
						<g>
							<path class="st3" d="M51.88,51.72c-1.42,2.35-2.84,4.7-4.26,7.04c-0.37,0.62,0.58,1.2,0.96,0.58
								c1.42-2.35,2.84-4.7,4.26-7.05C53.21,51.68,52.25,51.1,51.88,51.72L51.88,51.72z"/>
						</g>
					</g>
					<g>
						<g>
							<path class="st3" d="M58.77,54.69c-1.22,2.33-2.45,4.66-3.67,7c-0.33,0.64,0.62,1.22,0.96,0.58c1.22-2.33,2.45-4.66,3.67-7
								C60.06,54.63,59.11,54.05,58.77,54.69L58.77,54.69z"/>
						</g>
					</g>
					<g>
						<g>
							<path class="st3" d="M66.06,57.89c-1.24,2.05-2.49,4.11-3.73,6.16c-0.37,0.62,0.59,1.2,0.96,0.58
								c1.24-2.05,2.49-4.11,3.73-6.16C67.39,57.85,66.43,57.27,66.06,57.89L66.06,57.89z"/>
						</g>
					</g>
					<g>
						<g>
							<path class="st3" d="M72.81,61.17c-1.3,2.15-2.6,4.31-3.91,6.46c-0.37,0.62,0.58,1.2,0.96,0.58c1.3-2.15,2.6-4.31,3.91-6.46
								C74.14,61.14,73.19,60.55,72.81,61.17L72.81,61.17z"/>
						</g>
					</g>
					<g>
						<g>
							<path class="st3" d="M80.25,61.66c-1.64,2.49-3.29,4.97-4.93,7.46c-0.4,0.6,0.56,1.18,0.96,0.58
								c1.64-2.49,3.29-4.97,4.93-7.46C81.61,61.64,80.65,61.06,80.25,61.66L80.25,61.66z"/>
						</g>
					</g>
					<g>
						<g>
							<path class="st3" d="M85.92,61.61c-1.64,2.49-3.29,4.97-4.93,7.46c-0.4,0.6,0.56,1.18,0.96,0.58
								c1.64-2.49,3.29-4.97,4.93-7.46C87.28,61.59,86.32,61.01,85.92,61.61L85.92,61.61z"/>
						</g>
					</g>
				</g>
			</g>
		</g>
		<g>
			<path class="st4" d="M89.6,53.02c-0.22,0.36-0.49,0.67-0.81,0.95c1.66-6.83-12.03-21.24-32.01-33.33
				C36.81,8.57,17.68,3.13,12.41,7.77c0.1-0.42,0.25-0.8,0.47-1.16c3.77-6.23,24-0.89,45.18,11.93
				C79.25,31.36,93.37,46.79,89.6,53.02z"/>
		</g>
	</g>
</g>
</svg>
