<?xml version="1.0" encoding="utf-8"?>
<!-- Generator: Adobe Illustrator 26.3.1, SVG Export Plug-In . SVG Version: 6.00 Build 0)  -->
<svg version="1.1" id="圖層_1" xmlns="http://www.w3.org/2000/svg" xmlns:xlink="http://www.w3.org/1999/xlink" x="0px" y="0px"
	 viewBox="0 0 482 549" style="enable-background:new 0 0 482 549;" xml:space="preserve">
<style type="text/css">
	.st0{fill:#78C5EF;}
	.st1{fill:#FFFFFF;}
	.st2{fill:#005AD7;}
	.st3{fill:#399EFF;}
	.st4{fill:#FFD824;}
	.st5{fill:#EF8903;}
	.st6{fill:#C90000;}
</style>
<g>
	<g>
		<path class="st0" d="M452.26,339.75c2.04-2.51,3.07-5.79,3.07-9.76v-8.25c0-3.14-0.36-7.66-3.45-10.95
			c-0.37-0.41-0.76-0.79-1.19-1.13c0.99-2.06,1.48-4.46,1.48-7.27v-8.1c0-3.22-0.38-7.89-3.7-11.21c-1.26-1.26-2.71-2.09-4.14-2.64
			c-0.21-2.81-1.22-5.32-3.01-7.47l-0.46-0.56l-0.56-0.47c-1.59-1.33-4.37-2.91-8.57-2.91h-13.5c-3.26,0-6,0.83-8.4,2.54l-0.54,0.39
			l-0.47,0.47c-0.75,0.75-1.38,1.55-1.9,2.41c-0.51-0.81-1.14-1.62-1.93-2.41l-0.47-0.47l-0.54-0.39c-2.39-1.71-5.14-2.54-8.4-2.54
			h-13.35c-3.79,0-6.86,1.14-9.11,3.4c-1.25,1.25-2.18,2.67-2.79,4.23c-0.66-1.27-1.51-2.45-2.54-3.49c-1.78-1.78-4-2.99-6.45-3.58
			c1.45-0.4,2.78-0.97,3.98-1.72l0.21-0.13l0.2-0.15c3.22-2.3,4.85-6.1,4.85-11.31v-11.55c0-4.77-1.44-8.43-4.29-10.87l-0.2-0.17
			l-0.21-0.16c-0.71-0.53-1.48-0.99-2.3-1.38c-0.04-1.22-0.26-2.56-0.76-4.05l-0.11-0.32l-4.42-10.25
			c-0.67-1.46-1.28-2.58-1.77-3.42c1.55-2.5,2.35-5.74,2.35-9.73v-36.15c0-5.29-1.5-9.46-4.44-12.4c-2.85-2.85-7.02-4.3-12.41-4.3
			h-7.91c3.87-6.03,7.51-12.98,10.25-20.74c8.06-22.9,7.9-46.75,3.09-56.58c-1.54-3.14-3.7-5.19-6.44-6.1
			c-0.99-0.33-2.04-0.5-3.14-0.5c-9.84,0-30.02,17.44-40.55,45.85c-1.45,3.9-2.68,7.73-3.72,11.38c-1.77-4.93-3.6-9.14-5.13-12.66
			l-0.06-0.15c-0.68-1.57-2.68-5.35-6.5-6.44c-0.49-0.14-0.98-0.24-1.49-0.32c-2.18-0.52-4.43-0.56-6.64-0.6l-1.04-0.02
			c-1.33-0.03-2.77-0.04-4.22-0.04c-1.93,0-3.72,0.03-5.3,0.09c-0.25,0.01-0.49,0.01-0.73,0.01c-0.62,0-1.19-0.02-1.74-0.04
			c-0.72-0.03-1.42-0.05-2.14-0.05c-1.8,0-3.43,0.15-5.13,0.48c-6.23,1.2-11.6,6.1-15.53,14.17c-3.98,8.17-6.55,20.3-2.8,27.63
			c1.47,2.87,3.75,4.95,6.53,6.08c-1.67,0.7-3.13,1.64-4.33,2.84c-2.71,2.71-4.19,6.47-4.4,11.12c-0.01,0.22-0.02,0.45-0.03,0.74
			c-0.01,0.16-0.01,0.32-0.01,0.48l0,35.91c0,6.3,1.9,10.82,5.66,13.45l0.15,0.1l0.15,0.1c2.91,1.85,6.42,2.75,10.74,2.75h9.27
			l-0.3,0.77c-2.53,5.72-4.19,8.06-4.94,8.91c-0.17,0.2-1.21,0.72-3.88,0.72h-15.36l-0.36,0.03c-3.91,0.36-6.51,2.01-8.13,3.22
			l-0.45,0.34l-0.4,0.4c-0.16,0.16-0.29,0.32-0.44,0.48c-0.24-2.76-1.02-5.95-3.35-8.43c-2.19-2.44-5.46-3.76-9.75-3.93v-1.62
			c0-2.76-0.92-5.45-2.62-7.78l0.03-0.03l0.21-0.29c1.81-2.53,2.69-5.62,2.69-9.45v-8.1c0-1.33-0.08-2.57-0.23-3.71l2.05,1.23
			l0.47,0.21c2.69,1.18,4.91,1.73,6.97,1.73c2.06,0,4.01-0.57,5.63-1.65l0.29-0.19l0.27-0.22c2.79-2.23,4.21-5.7,4.21-10.3v-15.9
			c0-3.14-0.36-7.64-3.42-10.93c-1.32-1.5-3.16-2.88-6.2-4.97l-0.17-0.12l-57.32-35.21c-3.15-1.94-5.86-2.84-8.54-2.84
			c-2.68,0-5.4,0.9-8.54,2.83l-57.33,35.21l-0.17,0.12c-3.03,2.09-4.87,3.46-6.19,4.97c-3.06,3.29-3.42,7.79-3.42,10.93v15.9
			c0,4.6,1.41,8.07,4.2,10.3l0.27,0.22l0.29,0.19c1.62,1.08,3.57,1.65,5.63,1.65c2.06,0,4.27-0.55,6.97-1.73l0.47-0.21l2.05-1.23
			c-0.15,1.14-0.23,2.38-0.23,3.71v8.1c0,3.82,0.88,6.91,2.69,9.45l0.21,0.29l0.03,0.03c-1.7,2.33-2.62,5.03-2.62,7.78v1.63
			c-4.38,0.2-7.58,1.49-9.75,3.92c-3.08,3.29-3.45,7.81-3.45,10.95v8.25c0,3.88,1.04,7.11,3.08,9.62c1.71,2.21,5.04,4.68,11.37,4.68
			h109.21c5.63,0,8.84-2.1,10.64-4.16v0.61c0,3.79,1.29,7.01,3.85,9.56l0.4,0.4l0.45,0.34c1.62,1.21,4.22,2.86,8.13,3.22l0.36,0.03
			h20.91c12.98,0,22.29-2.22,28.43-6.8c2.97-2.15,5.63-4.93,7.97-8.31v0.96c0,4.77,1.33,8.37,3.96,10.72
			c2.38,2.21,5.87,3.28,10.64,3.28h34.87c-1.41,0.6-2.76,1.44-3.99,2.52l-0.2,0.17l-0.19,0.19c-2.34,2.34-3.76,5.37-4.11,8.76
			l-0.04,0.4v0.4c0,9.54-1.91,19.68-5.68,30.14c-2.79,7.75-6.22,12.4-9.43,12.76l-1.17,0.13l-1.08,0.46
			c-3.41,1.46-6.12,3.6-8.06,6.37c-0.94,1.35-1.65,2.85-2.13,4.53h-5.3l8.5-19.37c1.41-2.88,2.1-5.66,2.1-8.48v-10.65
			c0-5.05-1.21-8.72-3.7-11.21c-3.14-3.14-7.4-3.54-10.75-3.54h-47.85c-2.97,0-7.28,0.37-10.46,3.54
			c-2.48,2.48-3.69,6.15-3.69,11.21v10.65c0,0.95,0.06,1.86,0.18,2.73c-0.95-0.08-1.73-0.08-2.23-0.08h-8.05l2.9-10.92
			c1.29-3.26,2.38-7.37,0.45-11.21c-2.89-5.77-9.71-5.77-11.96-5.77h-9.45c-3.82,0-6.99,1.05-9.41,3.13l-0.23,0.2l-0.22,0.22
			c-2.02,2.02-3.41,4.94-4.37,9.17l-3.96,15.19h-4.02c-2.9,0-5.36,0.5-7.38,1.48c-0.44-0.84-0.99-1.65-1.69-2.4
			c-1.32-1.51-3.16-2.88-6.19-4.97l-0.17-0.12l-57.32-35.21c-3.15-1.94-5.86-2.84-8.54-2.84c-2.68,0-5.4,0.9-8.54,2.83l-57.33,35.21
			l-0.17,0.12c-3.03,2.08-4.87,3.46-6.2,4.97c-3.06,3.29-3.42,7.79-3.42,10.93v15.9c0,4.6,1.41,8.07,4.2,10.3l0.27,0.21l0.29,0.19
			c1.62,1.08,3.57,1.65,5.63,1.65c2.06,0,4.27-0.55,6.97-1.73l0.47-0.21l2.05-1.23c-0.15,1.14-0.23,2.38-0.23,3.71v8.1
			c0,3.82,0.88,6.91,2.69,9.45l0.23,0.32c-1.7,2.33-2.62,5.02-2.62,7.78v1.63c-4.38,0.2-7.58,1.49-9.75,3.92
			c-3.08,3.29-3.45,7.81-3.45,10.96v8.25c0,3.88,1.04,7.11,3.08,9.62c1.71,2.21,5.04,4.68,11.37,4.68h109.21
			c6.11,0,9.38-2.48,11.08-4.69c2.04-2.5,3.07-5.73,3.07-9.61v-8.25c0-3.15-0.36-7.67-3.45-10.96c-2.19-2.44-5.46-3.76-9.75-3.92
			v-1.62c0-2.76-0.92-5.45-2.62-7.78l0.23-0.32c1.81-2.53,2.69-5.62,2.69-9.45v-8.1c0-1.33-0.08-2.57-0.23-3.71l2.05,1.23l0.47,0.21
			c2.69,1.18,4.91,1.73,6.97,1.73c2.06,0,4.01-0.57,5.63-1.65l0.29-0.19l0.27-0.21c0.19-0.15,0.35-0.32,0.53-0.48
			c0.98,0.79,2.1,1.43,3.38,1.88l-6.05,23.02c-0.95,4.04-0.75,7.74,0.62,11.31l0.09,0.24l0.11,0.24c1.62,3.5,4.51,6.44,8.36,8.53
			c-2.06,0.66-4.33,1.75-6.08,3.7c-2.27,2.39-3.47,5.5-3.47,9.03v12.3c0,3.64,1.38,6.95,4,9.56l0.22,0.22l0.23,0.2
			c2.36,2.03,5.32,3.25,8.53,3.54l0.63,0.06l0.63-0.04c5.77-0.4,11.96-2.83,18.38-7.23c4.2-2.88,8.48-6.64,13-11.43l11.11,6.4
			c2.35,1.32,5.16,2.68,8.17,2.68c1.44,0,2.8-0.29,4.05-0.88c1.57-0.71,2.84-1.74,3.81-3.09v0.92c0,5.26,2.3,8.29,4.23,9.89
			c3.09,2.58,6.93,2.91,9.92,2.91h20.85c3.25,0,7.33-0.36,10.32-3.12c1.87-1.66,3.98-4.64,3.98-9.68v-41.95h12.55
			c1.97,0,7.88,0,11.38-4.54c0.49-0.6,0.91-1.23,1.28-1.91c0.03,0,0.05,0,0.08,0c0.15,0,0.46,0,0.46,0c1.31,0,2.6-0.1,3.85-0.29
			v32.48c0,1.67,0,6.76,3.69,10.45l0.26,0.26l0.28,0.23c2.4,2,5.52,3.05,9.02,3.05h14.46l0.36-0.03c3.34-0.3,6.13-1.37,8.29-3.17
			l0.28-0.23l0.26-0.26c1.13-1.13,1.98-2.5,2.57-4.1c0.94,2,2.26,3.64,3.99,4.85l0.14,0.1l0.15,0.09c2.91,1.85,6.42,2.75,10.75,2.75
			h59.1c3.35,0,8.19-0.37,11.87-3.5c2.32-1.9,4.98-5.59,4.98-12.6v-49.65c0-3.84-0.82-7.07-2.43-9.69
			C451.41,340.74,451.85,340.28,452.26,339.75z M254.83,392.58c-2.64,0.41-4.81,1.34-6.57,2.81c-0.72,0.6-1.34,1.28-1.88,2.04
			c-0.02-3.66-0.46-8.17-3.27-11.45c-1.5-1.75-3.75-3.5-7.3-5.67l-0.03-0.02c0.31-1.37,0.57-2.75,0.78-4.13
			c1.53,0.45,3.24,0.67,5.13,0.67h13.15V392.58z M260.83,328c-0.78,0.44-1.51,0.99-2.19,1.62c-1.97,1.75-3.17,4.23-3.61,7.52h-8.67
			c0.01-0.33,0.02-0.66,0.02-1v-9.3c0-1-0.04-2.15-0.19-3.35c0.63,0.07,1.28,0.1,1.94,0.1h14.63L260.83,328z"/>
		<path class="st1" d="M452.26,324.75c2.04-2.51,3.07-5.79,3.07-9.76v-8.25c0-3.14-0.36-7.66-3.45-10.95
			c-0.37-0.41-0.76-0.79-1.19-1.13c0.99-2.06,1.48-4.46,1.48-7.27v-8.1c0-3.22-0.38-7.89-3.7-11.21c-1.26-1.26-2.71-2.09-4.14-2.64
			c-0.21-2.81-1.22-5.32-3.01-7.47l-0.46-0.56l-0.56-0.47c-1.59-1.33-4.37-2.91-8.57-2.91h-13.5c-3.26,0-6,0.83-8.4,2.54l-0.54,0.39
			l-0.47,0.47c-0.75,0.75-1.38,1.55-1.9,2.41c-0.51-0.81-1.14-1.62-1.93-2.41l-0.47-0.47l-0.54-0.39c-2.39-1.71-5.14-2.54-8.4-2.54
			h-13.35c-3.79,0-6.86,1.14-9.11,3.4c-1.25,1.25-2.18,2.67-2.79,4.23c-0.66-1.27-1.51-2.45-2.54-3.49c-1.78-1.78-4-2.99-6.45-3.58
			c1.45-0.4,2.78-0.97,3.98-1.72l0.21-0.13l0.2-0.15c3.22-2.3,4.85-6.1,4.85-11.31v-11.55c0-4.77-1.44-8.43-4.29-10.87l-0.2-0.17
			l-0.21-0.16c-0.71-0.53-1.48-0.99-2.3-1.38c-0.04-1.22-0.26-2.56-0.76-4.05l-0.11-0.32l-4.42-10.25
			c-0.67-1.46-1.28-2.58-1.77-3.42c1.55-2.5,2.35-5.74,2.35-9.73v-36.15c0-5.29-1.5-9.46-4.44-12.4c-2.85-2.85-7.02-4.3-12.41-4.3
			h-7.91c3.87-6.03,7.51-12.98,10.25-20.74c8.06-22.9,7.9-46.75,3.09-56.58c-1.54-3.14-3.7-5.19-6.44-6.1
			c-0.99-0.33-2.04-0.5-3.14-0.5c-9.84,0-30.02,17.44-40.55,45.85c-1.45,3.9-2.68,7.73-3.72,11.38c-1.77-4.93-3.6-9.14-5.13-12.66
			l-0.06-0.15c-0.68-1.57-2.68-5.35-6.5-6.44c-0.49-0.14-0.98-0.24-1.49-0.32c-2.18-0.52-4.43-0.56-6.64-0.6l-1.04-0.02
			c-1.33-0.03-2.77-0.04-4.22-0.04c-1.93,0-3.72,0.03-5.3,0.09c-0.25,0.01-0.49,0.01-0.73,0.01c-0.62,0-1.19-0.02-1.74-0.04
			c-0.72-0.03-1.42-0.05-2.14-0.05c-1.8,0-3.43,0.15-5.13,0.48c-6.23,1.2-11.6,6.1-15.53,14.17c-3.98,8.17-6.55,20.3-2.8,27.63
			c1.47,2.87,3.75,4.95,6.53,6.08c-1.67,0.7-3.13,1.64-4.33,2.84c-2.71,2.71-4.19,6.47-4.4,11.12c-0.01,0.22-0.02,0.45-0.03,0.74
			c-0.01,0.16-0.01,0.32-0.01,0.48l0,35.91c0,6.3,1.9,10.82,5.66,13.45l0.15,0.1l0.15,0.1c2.91,1.85,6.42,2.75,10.74,2.75h9.27
			l-0.3,0.77c-2.53,5.72-4.19,8.06-4.94,8.91c-0.17,0.2-1.21,0.72-3.88,0.72h-15.36l-0.36,0.03c-3.91,0.36-6.51,2.01-8.13,3.22
			l-0.45,0.34l-0.4,0.4c-0.16,0.16-0.29,0.32-0.44,0.48c-0.24-2.76-1.02-5.95-3.35-8.43c-2.19-2.44-5.46-3.76-9.75-3.93v-1.62
			c0-2.76-0.92-5.45-2.62-7.78l0.03-0.03l0.21-0.29c1.81-2.53,2.69-5.62,2.69-9.45v-8.1c0-1.33-0.08-2.57-0.23-3.71l2.05,1.23
			l0.47,0.21c2.69,1.18,4.91,1.73,6.97,1.73c2.06,0,4.01-0.57,5.63-1.65l0.29-0.19l0.27-0.22c2.79-2.23,4.21-5.7,4.21-10.3v-15.9
			c0-3.14-0.36-7.64-3.42-10.93c-1.32-1.5-3.16-2.88-6.2-4.97l-0.17-0.12l-57.32-35.21c-3.15-1.94-5.86-2.84-8.54-2.84
			c-2.68,0-5.4,0.9-8.54,2.83l-57.33,35.21l-0.17,0.12c-3.03,2.09-4.87,3.46-6.19,4.97c-3.06,3.29-3.42,7.79-3.42,10.93v15.9
			c0,4.6,1.41,8.07,4.2,10.3l0.27,0.22l0.29,0.19c1.62,1.08,3.57,1.65,5.63,1.65c2.06,0,4.27-0.55,6.97-1.73l0.47-0.21l2.05-1.23
			c-0.15,1.14-0.23,2.38-0.23,3.71v8.1c0,3.82,0.88,6.91,2.69,9.45l0.21,0.29l0.03,0.03c-1.7,2.33-2.62,5.03-2.62,7.78v1.63
			c-4.38,0.2-7.58,1.49-9.75,3.92c-3.08,3.29-3.45,7.81-3.45,10.95v8.25c0,3.88,1.04,7.11,3.08,9.62c1.71,2.21,5.04,4.68,11.37,4.68
			h109.21c5.63,0,8.84-2.1,10.64-4.16v0.61c0,3.79,1.29,7.01,3.85,9.56l0.4,0.4l0.45,0.34c1.62,1.21,4.22,2.86,8.13,3.22l0.36,0.03
			h20.91c12.98,0,22.29-2.22,28.43-6.8c2.97-2.15,5.63-4.93,7.97-8.31v0.96c0,4.77,1.33,8.37,3.96,10.72
			c2.38,2.21,5.87,3.28,10.64,3.28h34.87c-1.41,0.6-2.76,1.44-3.99,2.52l-0.2,0.17l-0.19,0.19c-2.34,2.34-3.76,5.37-4.11,8.76
			l-0.04,0.4v0.4c0,9.54-1.91,19.68-5.68,30.14c-2.79,7.75-6.22,12.4-9.43,12.76l-1.17,0.13l-1.08,0.46
			c-3.41,1.46-6.12,3.6-8.06,6.37c-0.94,1.35-1.65,2.85-2.13,4.53h-5.3l8.5-19.37c1.41-2.88,2.1-5.66,2.1-8.48v-10.65
			c0-5.05-1.21-8.72-3.7-11.21c-3.14-3.14-7.4-3.54-10.75-3.54h-47.85c-2.97,0-7.28,0.37-10.46,3.54
			c-2.48,2.48-3.69,6.15-3.69,11.21v10.65c0,0.95,0.06,1.86,0.18,2.73c-0.95-0.08-1.73-0.08-2.23-0.08h-8.05l2.9-10.92
			c1.29-3.26,2.38-7.37,0.45-11.21c-2.89-5.77-9.71-5.77-11.96-5.77h-9.45c-3.82,0-6.99,1.05-9.41,3.13l-0.23,0.2l-0.22,0.22
			c-2.02,2.02-3.41,4.94-4.37,9.17l-3.96,15.19h-4.02c-2.9,0-5.36,0.5-7.38,1.48c-0.44-0.84-0.99-1.65-1.69-2.4
			c-1.32-1.51-3.16-2.88-6.19-4.97l-0.17-0.12l-57.32-35.21c-3.15-1.94-5.86-2.84-8.54-2.84c-2.68,0-5.4,0.9-8.54,2.83l-57.33,35.21
			l-0.17,0.12c-3.03,2.08-4.87,3.46-6.2,4.97c-3.06,3.29-3.42,7.79-3.42,10.93v15.9c0,4.6,1.41,8.07,4.2,10.3l0.27,0.21l0.29,0.19
			c1.62,1.08,3.57,1.65,5.63,1.65c2.06,0,4.27-0.55,6.97-1.73l0.47-0.21l2.05-1.23c-0.15,1.14-0.23,2.38-0.23,3.71v8.1
			c0,3.82,0.88,6.91,2.69,9.45l0.23,0.32c-1.7,2.33-2.62,5.02-2.62,7.78v1.63c-4.38,0.2-7.58,1.49-9.75,3.92
			c-3.08,3.29-3.45,7.81-3.45,10.96v8.25c0,3.88,1.04,7.11,3.08,9.62c1.71,2.21,5.04,4.68,11.37,4.68h109.21
			c6.11,0,9.38-2.48,11.08-4.69c2.04-2.5,3.07-5.73,3.07-9.61v-8.25c0-3.15-0.36-7.67-3.45-10.96c-2.19-2.44-5.46-3.76-9.75-3.92
			v-1.62c0-2.76-0.92-5.45-2.62-7.78l0.23-0.32c1.81-2.53,2.69-5.62,2.69-9.45v-8.1c0-1.33-0.08-2.57-0.23-3.71l2.05,1.23l0.47,0.21
			c2.69,1.18,4.91,1.73,6.97,1.73c2.06,0,4.01-0.57,5.63-1.65l0.29-0.19l0.27-0.21c0.19-0.15,0.35-0.32,0.53-0.48
			c0.98,0.79,2.1,1.43,3.38,1.88l-6.05,23.02c-0.95,4.04-0.75,7.74,0.62,11.31l0.09,0.24l0.11,0.24c1.62,3.5,4.51,6.44,8.36,8.53
			c-2.06,0.66-4.33,1.75-6.08,3.7c-2.27,2.39-3.47,5.5-3.47,9.03v12.3c0,3.64,1.38,6.95,4,9.56l0.22,0.22l0.23,0.2
			c2.36,2.03,5.32,3.25,8.53,3.54l0.63,0.06l0.63-0.04c5.77-0.4,11.96-2.83,18.38-7.23c4.2-2.88,8.48-6.64,13-11.43l11.11,6.4
			c2.35,1.32,5.16,2.68,8.17,2.68c1.44,0,2.8-0.29,4.05-0.88c1.57-0.71,2.84-1.74,3.81-3.09v0.92c0,5.26,2.3,8.29,4.23,9.89
			c3.09,2.58,6.93,2.91,9.92,2.91h20.85c3.25,0,7.33-0.36,10.32-3.12c1.87-1.66,3.98-4.64,3.98-9.68v-41.95h12.55
			c1.97,0,7.88,0,11.38-4.54c0.49-0.6,0.91-1.23,1.28-1.91c0.03,0,0.05,0,0.08,0c0.15,0,0.46,0,0.46,0c1.31,0,2.6-0.1,3.85-0.29
			v32.48c0,1.67,0,6.76,3.69,10.45l0.26,0.26l0.28,0.23c2.4,2,5.52,3.05,9.02,3.05h14.46l0.36-0.03c3.34-0.3,6.13-1.37,8.29-3.17
			l0.28-0.23l0.26-0.26c1.13-1.13,1.98-2.5,2.57-4.1c0.94,2,2.26,3.64,3.99,4.85l0.14,0.1l0.15,0.09c2.91,1.85,6.42,2.75,10.75,2.75
			h59.1c3.35,0,8.19-0.37,11.87-3.5c2.32-1.9,4.98-5.59,4.98-12.6v-49.65c0-3.84-0.82-7.07-2.43-9.69
			C451.41,325.74,451.85,325.28,452.26,324.75z M254.83,377.58c-2.64,0.41-4.81,1.34-6.57,2.81c-0.72,0.6-1.34,1.28-1.88,2.04
			c-0.02-3.66-0.46-8.17-3.27-11.45c-1.5-1.75-3.75-3.5-7.3-5.67l-0.03-0.02c0.31-1.37,0.57-2.75,0.78-4.13
			c1.53,0.45,3.24,0.67,5.13,0.67h13.15V377.58z M260.83,313c-0.78,0.44-1.51,0.99-2.19,1.62c-1.97,1.75-3.17,4.23-3.61,7.52h-8.67
			c0.01-0.33,0.02-0.66,0.02-1v-9.3c0-1-0.04-2.15-0.19-3.35c0.63,0.07,1.28,0.1,1.94,0.1h14.63L260.83,313z"/>
		<path class="st2" d="M89.37,171.89c-0.75-0.6-1.2-1.95-1.2-4.05v-15.9c0-2.85,0.45-4.65,1.35-5.55c0.75-0.9,2.4-2.1,4.8-3.75
			l57.15-35.1c1.95-1.2,3.3-1.65,4.35-1.65c1.05,0,2.4,0.45,4.35,1.65l57.15,35.1c2.4,1.65,4.05,2.85,4.8,3.75
			c0.9,0.9,1.35,2.7,1.35,5.55v15.9c0,2.1-0.45,3.45-1.2,4.05c-0.9,0.6-2.55,0.3-4.95-0.75l-13.5-8.1c-0.15,1.65-0.6,2.85-1.35,3.75
			c-0.9,0.9-2.55,1.5-5.1,1.5h-28.2v5.55h28.2c2.55,0,4.35,0.45,5.25,1.2c0.75,0.9,1.2,2.85,1.2,5.7v8.1c0,2.25-0.45,3.75-1.2,4.8
			c-0.9,1.05-2.7,1.5-5.25,1.5h-28.2v20.85h7.95v-9.6c0-1.35,0.6-2.7,1.8-3.9c1.2-1.2,2.7-1.8,4.5-1.8h13.65
			c1.95,0,3.6,0.6,4.65,1.8c1.2,1.2,1.8,2.55,1.8,3.9v9.6h7.05c2.4,0,4.05,0.45,4.8,1.35c0.9,0.9,1.35,2.7,1.35,5.55v8.25
			c0,2.1-0.45,3.6-1.35,4.65c-0.75,1.05-2.4,1.65-4.8,1.65H101.37c-2.55,0-4.35-0.6-5.1-1.65c-0.9-1.05-1.35-2.55-1.35-4.65v-8.25
			c0-2.85,0.45-4.65,1.35-5.55c0.75-0.9,2.55-1.35,5.1-1.35h6.75v-9.6c0-1.35,0.6-2.7,1.8-3.9c1.05-1.2,2.7-1.8,4.65-1.8h13.65
			c1.8,0,3.3,0.6,4.5,1.8c1.2,1.2,1.8,2.55,1.8,3.9v9.6h8.1v-20.85h-28.65c-2.4,0-4.05-0.45-4.95-1.5c-0.75-1.05-1.2-2.55-1.2-4.8
			v-8.1c0-2.85,0.45-4.8,1.2-5.7c0.9-0.75,2.55-1.2,4.95-1.2h28.65v-5.55h-28.65c-2.4,0-3.9-0.6-4.8-1.5
			c-0.75-0.9-1.2-2.1-1.35-3.75l-13.5,8.1C91.92,172.19,90.27,172.49,89.37,171.89z M135.27,146.84h41.1l-20.55-12.15L135.27,146.84
			z"/>
		<path class="st2" d="M35.87,326.89c-0.75-0.6-1.2-1.95-1.2-4.05v-15.9c0-2.85,0.45-4.65,1.35-5.55c0.75-0.9,2.4-2.1,4.8-3.75
			l57.15-35.1c1.95-1.2,3.3-1.65,4.35-1.65c1.05,0,2.4,0.45,4.35,1.65l57.15,35.1c2.4,1.65,4.05,2.85,4.8,3.75
			c0.9,0.9,1.35,2.7,1.35,5.55v15.9c0,2.1-0.45,3.45-1.2,4.05c-0.9,0.6-2.55,0.3-4.95-0.75l-13.5-8.1c-0.15,1.65-0.6,2.85-1.35,3.75
			c-0.9,0.9-2.55,1.5-5.1,1.5h-28.2v5.55h28.2c2.55,0,4.35,0.45,5.25,1.2c0.75,0.9,1.2,2.85,1.2,5.7v8.1c0,2.25-0.45,3.75-1.2,4.8
			c-0.9,1.05-2.7,1.5-5.25,1.5h-28.2v20.85h7.95v-9.6c0-1.35,0.6-2.7,1.8-3.9c1.2-1.2,2.7-1.8,4.5-1.8h13.65
			c1.95,0,3.6,0.6,4.65,1.8c1.2,1.2,1.8,2.55,1.8,3.9v9.6h7.05c2.4,0,4.05,0.45,4.8,1.35c0.9,0.9,1.35,2.7,1.35,5.55v8.25
			c0,2.1-0.45,3.6-1.35,4.65c-0.75,1.05-2.4,1.65-4.8,1.65H47.87c-2.55,0-4.35-0.6-5.1-1.65c-0.9-1.05-1.35-2.55-1.35-4.65v-8.25
			c0-2.85,0.45-4.65,1.35-5.55c0.75-0.9,2.55-1.35,5.1-1.35h6.75v-9.6c0-1.35,0.6-2.7,1.8-3.9c1.05-1.2,2.7-1.8,4.65-1.8h13.65
			c1.8,0,3.3,0.6,4.5,1.8c1.2,1.2,1.8,2.55,1.8,3.9v9.6h8.1v-20.85H60.47c-2.4,0-4.05-0.45-4.95-1.5c-0.75-1.05-1.2-2.55-1.2-4.8
			v-8.1c0-2.85,0.45-4.8,1.2-5.7c0.9-0.75,2.55-1.2,4.95-1.2h28.65v-5.55H60.47c-2.4,0-3.9-0.6-4.8-1.5c-0.75-0.9-1.2-2.1-1.35-3.75
			l-13.5,8.1C38.42,327.19,36.77,327.49,35.87,326.89z M81.77,301.84h41.1l-20.55-12.15L81.77,301.84z"/>
		<path class="st2" d="M187.82,327.44h-4.2c-2.4,0-4.05-0.45-4.8-1.5c-0.9-1.05-1.35-2.55-1.35-4.8v-9.3c0-2.85,0.45-4.65,1.35-5.55
			c0.75-0.9,2.4-1.35,4.8-1.35h10.2l5.55-21.3c0.6-2.7,1.35-4.5,2.25-5.4c1.05-0.9,2.55-1.2,4.2-1.2h9.45c2.85,0,4.35,0.45,4.8,1.35
			c0.45,0.9,0.15,2.55-0.9,5.1l-5.7,21.45h18.45c2.55,0,4.2,0.45,5.1,1.35s1.35,2.7,1.35,5.55v9.3c0,2.25-0.45,3.75-1.35,4.8
			c-0.9,1.05-2.55,1.5-5.1,1.5h-2.7v24.75c0,6-1.05,11.7-2.85,16.95l5.25,3c2.7,1.65,4.5,3,5.4,4.05c0.9,1.05,1.35,3.15,1.35,6.6
			v11.1c0,2.85-0.45,4.35-1.5,4.8c-0.9,0.45-2.55-0.15-4.95-1.5l-16.65-9.6c-5.4,6.3-10.65,11.4-15.9,15
			c-5.25,3.6-10.05,5.55-14.4,5.85c-1.65-0.15-3-0.75-4.05-1.65c-1.05-1.05-1.65-2.25-1.65-3.9v-12.3c0-1.5,0.45-2.7,1.35-3.6
			c0.75-0.9,2.25-1.5,4.35-1.95c4.65-0.9,9-3.45,13.2-7.35l-13.05-6.6c-2.7-1.35-4.5-3.15-5.4-5.1c-0.75-1.95-0.9-4.05-0.3-6.6
			L187.82,327.44z M210.77,327.44h-3.15l-6.9,26.55l8.85,5.25c0.9-2.55,1.2-6.15,1.2-10.5V327.44z M258.18,408.59
			c-2.4,0-3.9-0.3-4.8-1.05c-0.9-0.75-1.35-1.95-1.35-3.75v-12.6c0-2.25,0.45-3.9,1.35-4.65s2.4-1.2,4.8-1.2h1.8
			c1.95,0,2.85-1.05,2.85-3.15v-28.35h-21.15c-2.25,0-3.9-0.45-4.8-1.5c-0.9-1.05-1.35-2.55-1.35-4.8v-10.5
			c0-2.85,0.45-4.65,1.35-5.55c0.9-0.9,2.55-1.35,4.8-1.35h21.15v-4.8c0-2.55,0.45-4.2,1.2-4.8c0.75-0.75,1.65-1.05,2.7-1.05
			l8.25-18.9h-26.85c-2.25,0-3.9-0.6-4.8-1.5c-0.9-1.05-1.35-2.7-1.35-4.8v-10.65c0-2.7,0.45-4.65,1.35-5.55s2.55-1.2,4.8-1.2h47.85
			c2.55,0,4.2,0.3,5.1,1.2c0.9,0.9,1.35,2.85,1.35,5.55v10.65c0,1.65-0.45,3.3-1.35,5.1l-13.5,30.75h18.3c2.55,0,4.35,0.45,5.1,1.35
			c0.9,0.9,1.35,2.7,1.35,5.55v10.5c0,2.25-0.45,3.75-1.35,4.8c-0.75,1.05-2.55,1.5-5.1,1.5h-20.55v49.95c0,1.8-0.45,3-1.35,3.75
			c-0.75,0.75-2.55,1.05-4.95,1.05H258.18z"/>
		<path class="st3" d="M355.37,314.69v72.9c0,2.4-0.45,3.9-1.2,4.65c-0.9,0.75-2.25,1.2-3.9,1.35h-14.1c-1.65,0-3-0.45-3.9-1.2
			c-0.9-0.9-1.35-2.4-1.35-4.8v-45c-3.6,3.3-7.65,4.95-12.45,4.8c-2.25,0.15-3.75-0.15-4.65-1.2c-1.05-0.9-1.5-2.85-1.5-5.85v-12
			c0-2.55,0.45-4.65,1.5-6.15c1.05-1.5,2.55-2.7,4.65-3.6c6.6-0.75,12-6.75,16.05-18c4.05-11.25,6.15-22.2,6.15-32.85
			c0.15-1.5,0.75-2.85,1.8-3.9c1.2-1.05,2.55-1.65,4.05-1.65h11.4c1.65,0,3.15,0.6,4.2,1.65c1.05,1.05,1.65,2.4,1.8,3.9v8.7
			C362.72,292.19,360.02,304.94,355.37,314.69z"/>
		<path class="st3" d="M377.42,393.59c-2.7,0-4.8-0.45-6.45-1.5c-1.5-1.05-2.25-3.45-2.25-6.9v-49.2c0-3.15,0.75-5.4,2.25-6.75
			c1.5-1.35,3.6-2.1,6.3-2.1h59.1c3.15,0,5.4,0.75,6.75,1.95c1.5,1.35,2.25,3.6,2.25,6.75v49.65c0,3.15-0.75,5.4-2.1,6.45
			c-1.35,1.2-3.6,1.65-6.75,1.65H377.42z"/>
		<rect x="395.73" y="344.99" class="st3" width="22.35" height="6.45"/>
		<rect x="395.73" y="369.29" class="st3" width="22.35" height="6.45"/>
		<path class="st3" d="M445.98,301.19c-0.75-0.9-2.55-1.35-5.1-1.35h-4.5v-6.15h1.35c2.55,0,4.2-0.45,5.1-1.5
			c0.9-1.05,1.35-2.55,1.35-4.8v-8.1c0-2.85-0.45-4.65-1.35-5.55c-0.9-0.9-2.55-1.35-5.1-1.35h-1.35v-5.85c0-1.5-0.45-2.55-1.2-3.45
			c-0.9-0.75-2.1-1.05-3.45-1.05h-13.5c-1.5,0-2.7,0.3-3.75,1.05c-0.9,0.9-1.35,1.95-1.35,3.45v5.85h-12.3v-5.85
			c0-1.5-0.6-2.55-1.5-3.45c-1.05-0.75-2.25-1.05-3.75-1.05h-13.35c-1.5,0-2.7,0.3-3.45,1.05c-0.9,0.9-1.35,1.95-1.35,3.45v5.85
			h-1.5c-2.4,0-4.05,0.45-4.95,1.35c-0.75,0.9-1.2,2.7-1.2,5.55v8.1c0,2.25,0.45,3.75,1.2,4.8c0.9,1.05,2.55,1.5,4.95,1.5h1.5v6.15
			h-4.8c-2.25,0-3.9,0.45-4.8,1.35c-0.9,0.9-1.35,2.7-1.35,5.55v8.25c0,2.1,0.45,3.75,1.35,4.8c0.9,1.05,2.55,1.5,4.8,1.5h68.25
			c2.55,0,4.35-0.45,5.1-1.5c0.9-1.05,1.35-2.7,1.35-4.8v-8.25C447.33,303.89,446.88,302.09,445.98,301.19z M413.13,299.84h-12.3
			v-6.15h12.3V299.84z"/>
		<g>
			<path class="st3" d="M328.53,202.44c0.75-0.9,2.1-1.35,4.05-1.2h12.75c1.8-0.15,3,0.15,3.6,0.75c0.45,0.75,1.2,1.95,2.1,3.9
				l4.2,9.75c0.6,1.8,0.45,3-0.3,3.6c-0.9,0.45-2.25,0.75-4.05,0.75h-12.75c-1.65,0-2.85-0.3-3.6-0.9c-0.6-0.75-1.35-1.95-2.25-3.75
				l-4.05-9.75C327.63,204.39,327.78,203.34,328.53,202.44z"/>
			<path class="st3" d="M361.08,224.94c-1.2-0.9-2.85-1.35-5.1-1.35h-31.8v-26.1h18c3,0,5.25-0.45,6.75-1.65
				c1.35-1.05,1.95-3.3,1.95-6.45v-36.15c0-3.15-0.75-5.4-2.1-6.75c-1.35-1.35-3.75-1.95-6.75-1.95h-72.9h-6.6h-12.75
				c-3,0-5.4,0.6-6.75,1.95c-1.22,1.22-1.95,3.2-2.07,5.9c-0.01,0.16-0.01,0.33-0.02,0.5c0,0.12-0.01,0.23-0.01,0.35v0.12
				c0,0.01,0,0.02,0,0.03v35.7c0,3.45,0.75,5.85,2.25,6.9c1.65,1.05,3.75,1.5,6.45,1.5h21l-4.65,11.85c-2.25,5.1-4.35,8.85-6.3,11.1
				c-2.1,2.4-5.4,3.45-9.9,3.45h-15c-1.65,0.15-2.85,0.75-4.05,1.65c-1.05,1.05-1.5,2.25-1.5,3.75v12.6c0,1.65,0.45,2.85,1.5,3.9
				c1.2,0.9,2.4,1.5,4.05,1.65h20.55c10.95,0,18.9-1.65,23.7-5.25c4.8-3.45,8.7-9.3,11.55-17.55l8.85-27.15h0.3v43.8
				c0,2.4,0.45,4.05,1.35,4.8c0.75,0.75,2.55,1.2,5.25,1.2h49.65c2.25,0,3.9-0.45,5.1-1.2c1.05-0.75,1.5-2.4,1.5-4.8v-11.55
				C362.58,227.49,362.13,225.84,361.08,224.94z M280.07,175.74h-10.95v-9.45h14.4L280.07,175.74z M322.53,175.74h-15.75l3.3-9.45
				h12.45V175.74z"/>
			<g>
				<path class="st3" d="M261.03,124.23c-7.46,5.47-15.83,9.71-18.75,4.03c-3.5-6.84,2.97-28.41,12.72-30.3
					c3.33-0.65,5.32-0.14,8.51-0.26c2.91-0.1,6.23-0.1,9.07-0.04c2.88,0.06,5.62-0.02,7.21,0.83c0.75,0.4,1.53,2.3,1.53,2.3
					c-1.55-3.07-2.9-2.27-6.06,4.45C271.87,112.43,265.75,120.53,261.03,124.23z"/>
				<path class="st3" d="M287.49,116.68c-2.12-6.58-4.52-12.09-6.41-16.45c-0.14-0.32-1.05-1.84-1.37-1.93
					c-3.85-1.11-9.19,3.24-10.93,4.76c3.34,1.37,9.59,4.44,7.57,9.14c-2.85,6.62-7.79,12.22-12.74,15.78
					c-0.6,0.44-1.23,0.84-1.88,1.23c0.15,0.34,0.27,0.6,0.31,0.7c6.41,15.63,13.14,21.5,17.5,23.67l0.02,0
					c0.95-1.5,11.95-8.44,12.59-8.39C292.14,145.18,293.86,136.47,287.49,116.68z"/>
			</g>
			<path class="st3" d="M338.49,60.71c-4.03-1.34-23.38,12.8-33.66,40.54c-8.79,23.72-9.45,44.63-9.45,44.63
				c0.91,0.2,1.8,0.45,2.67,0.78c0.56,0.21,1.59,0.73,1.56,0.71l4.51,3.64c1.18,1.32,2.52,3.12,2.53,4.99
				c1.91-1.54,21.3-17.67,30.17-42.87C346.15,86.63,342.78,62.14,338.49,60.71z"/>
		</g>
		<g>
			<circle class="st4" cx="406.98" cy="360.37" r="22.84"/>
			<path class="st1" d="M406.98,386.2c-14.25,0-25.84-11.59-25.84-25.83c0-14.25,11.59-25.84,25.84-25.84s25.84,11.59,25.84,25.84
				C432.81,374.61,421.22,386.2,406.98,386.2z M406.98,340.53c-10.94,0-19.84,8.9-19.84,19.84s8.9,19.83,19.84,19.83
				s19.84-8.9,19.84-19.83S417.91,340.53,406.98,340.53z"/>
		</g>
		<g>
			<path class="st5" d="M408.31,367.11c0.2-0.93,0.12-1.71-0.22-2.34c-0.35-0.63-1.05-1.3-2.1-2.02c-1.06-0.72-2.02-1.42-2.9-2.11
				c-0.88-0.69-1.6-1.43-2.17-2.22c-0.57-0.79-0.96-1.64-1.16-2.56c-0.2-0.92-0.17-1.97,0.08-3.16c0.42-1.99,1.44-3.49,3.06-4.5
				c1.62-1,3.57-1.38,5.86-1.11l0.79-3.73l2.81,0.6l-0.81,3.8c2.09,0.78,3.6,2.02,4.52,3.74c0.92,1.72,1.15,3.7,0.67,5.94
				l-5.98-1.27c0.26-1.23,0.22-2.22-0.11-2.98c-0.33-0.76-0.93-1.23-1.81-1.42c-0.78-0.17-1.44-0.05-1.97,0.35
				c-0.53,0.4-0.89,1.03-1.08,1.89c-0.19,0.87-0.09,1.62,0.3,2.24c0.39,0.62,1.08,1.28,2.07,1.98c1,0.7,1.93,1.4,2.8,2.11
				s1.59,1.46,2.16,2.24c0.57,0.79,0.97,1.65,1.19,2.58c0.22,0.93,0.2,2-0.05,3.19c-0.43,2.02-1.42,3.53-2.97,4.53
				c-1.55,1-3.45,1.37-5.7,1.12l-0.76,3.55l-2.81-0.6l0.76-3.57c-2.51-0.82-4.3-2.12-5.35-3.9c-1.06-1.78-1.33-3.9-0.81-6.34
				l5.96,1.27c-0.29,1.34-0.21,2.43,0.24,3.26c0.45,0.83,1.22,1.36,2.31,1.59c0.8,0.17,1.48,0.07,2.05-0.31
				C407.77,368.56,408.14,367.95,408.31,367.11z"/>
		</g>
	</g>
	<g>
		<path class="st6" d="M477.64,548.6c-154.88-76.02-322.73,44.5-477.61-31.52c16.21-3.32,32.55-8.6,48.99-15.45
			c-15-14.98-29.9-31.54-44.67-50.06c154.88,76.02,322.73-44.5,477.61,31.52c-16.21,3.32-32.55,8.6-48.99,15.45
			C447.98,513.52,462.87,530.07,477.64,548.6z"/>
		<g>
			<g>
				<g>
					<path class="st6" d="M81.57,504.48l5.55,0.67l-0.3,2.46l-5.55-0.67l-0.11,0.89c1.26,1.37,3.96,4.69,4.67,5.55l-1.79,2.08
						c-0.68-1.1-2.04-3.06-3.24-4.66l-1.38,11.44l-2.66-0.32l1.37-11.33c-1.76,2.81-3.85,5.43-5.84,7.01c-0.16-0.8-0.74-2-1.09-2.77
						c2.42-1.77,5.18-5.15,6.89-8.28l-5.21-0.63l0.3-2.46l5.72,0.69l0.51-4.23c-1.79,0.13-3.56,0.18-5.22,0.18
						c-0.07-0.62-0.34-1.55-0.58-2.16c4.22-0.13,9.15-0.55,11.98-1.43l1.67,2.26c-1.47,0.4-3.25,0.71-5.13,0.89L81.57,504.48z
						 M90.43,516.38l-2.63-0.32l1.9-15.73l2.63,0.32L90.43,516.38z M98.73,498.34l-2.7,22.39c-0.2,1.69-0.7,2.41-1.75,2.72
						c-1.08,0.3-2.81,0.18-5.38-0.13c-0.02-0.76-0.3-2.07-0.61-2.86c1.91,0.32,3.71,0.53,4.28,0.6c0.52,0.03,0.77-0.11,0.83-0.65
						l2.7-22.39L98.73,498.34z"/>
					<path class="st6" d="M92.64,529.63c-1.27,0-2.71-0.13-4.46-0.34l-3.51-0.42l-0.01,0.06l-14.57-1.76l0.02-0.13l-1.73,1.38
						l-1.94-9.49c-0.1-0.29-0.39-0.93-0.53-1.24l-2.15-4.81l2.48-1.81l1.43-11.84l-2.81-6.99l8.59-0.26
						c4.22-0.13,7.95-0.52,9.96-1.04l3.9-6.22l-0.63,5.21l1.23-0.38l2.74,3.7l0.23-1.89l14.55,1.75l-3.42,28.35
						c-0.62,5.14-3.61,7.06-6.02,7.76C94.93,529.51,93.86,529.63,92.64,529.63z M66.42,518.81
						C66.42,518.82,66.42,518.82,66.42,518.81L66.42,518.81z"/>
				</g>
				<g>
					<path class="st6" d="M109.27,511.55c-2.16,1.09-4.47,2.24-6.37,3.08l-1.29-2.2c1.83-0.64,4.57-1.74,7.2-2.88L109.27,511.55z
						 M127.19,519.67l-11.49-0.33l-0.16,5.7l-2.82-0.08l0.16-5.7l-11.49-0.33l0.07-2.48l11.49,0.33l0.06-2.16l2.82,0.08l-0.06,2.16
						l11.49,0.33L127.19,519.67z M118.91,515.25c-0.16-0.44-0.38-0.93-0.65-1.49c-7.25,0.49-8.26,0.6-8.93,0.9
						c-0.07-0.46-0.41-1.63-0.66-2.27c0.69-0.07,1.43-0.59,2.4-1.37c0.53-0.36,1.62-1.28,2.87-2.45c-2.8,0.12-3.44,0.25-3.87,0.41
						c-0.13-0.49-0.47-1.6-0.69-2.18c0.41-0.08,0.85-0.44,1.32-0.94c0.35-0.31,1.16-1.29,1.94-2.45l-10.16-0.29l0.07-2.45
						l11.26,0.32c-0.32-0.7-0.74-1.4-1.1-2.02l2.7-0.56c0.55,0.82,1.19,1.88,1.57,2.67l10.42,0.3l-0.07,2.45l-11.95-0.34
						c-0.78,1.04-1.62,2.12-2.48,2.99l3.2-0.05c0.68-0.73,1.34-1.52,1.97-2.28l2.04,1.27c-2.17,2.45-4.66,4.74-7.1,6.6l4.13-0.2
						c-0.36-0.62-0.74-1.17-1.13-1.7l1.98-0.69c1.22,1.56,2.55,3.62,3.05,5.07L118.91,515.25z M106.84,508.95
						c-0.87-1-2.7-2.44-4.2-3.43l1.86-1.42c1.47,0.94,3.36,2.31,4.29,3.29L106.84,508.95z M124.95,515.48
						c-1.18-1.16-3.58-2.93-5.5-4.13l1.91-1.41c1.87,1.12,4.33,2.83,5.59,3.99L124.95,515.48z M126.14,505.95
						c-1.31,1.29-2.98,2.57-4.28,3.45l-1.92-1.32c1.27-0.91,3.01-2.39,3.99-3.52L126.14,505.95z"/>
					<path class="st6" d="M121.37,531.21l-14.82-0.42l0.16-5.7l-11.49-0.33l0.17-5.9l-1.4,0.07l1.43-1.09l0.11-3.91l-2.8-4.76
						l2.99-1.04l-3.42-2.27l4.19-3.2l0.23-8.16l6.99,0.2l14.42-2.98l2.25,3.34c0.03,0.04,0.05,0.08,0.08,0.11l13.1,0.37l-0.22,7.84
						l2.41,1.51l-2.52,2.49l-0.07,2.6l-1.67-0.05l1.54,1.41l0.41,0.01l-0.01,0.35l2.82,2.59l-2.96,2.3l-0.26,9.23l-11.49-0.33
						L121.37,531.21z"/>
				</g>
				<g>
					<path class="st6" d="M141.9,517.25c-2.07,2.91-5.31,5.99-8.31,8.02c-0.57-0.55-1.61-1.35-2.27-1.78
						c2.95-1.82,6.17-4.78,7.69-7.21L141.9,517.25z M153.2,500.05l0.55,13.21l-19.8,0.83l-0.55-13.21L153.2,500.05z M136.58,511.44
						l14.19-0.59l-0.34-8.14l-14.19,0.59L136.58,511.44z M148.64,515.78c2.82,1.96,6.46,4.83,8.3,6.8l-2.44,1.69
						c-1.67-1.92-5.25-4.94-8.14-7.01L148.64,515.78z"/>
					<path class="st6" d="M132.91,532.96l-3.5-3.39c-0.22-0.21-0.95-0.78-1.41-1.09l-7.8-5.18l7.93-4.9l-0.97-23.26l31.79-1.33
						l0.97,23.29c0.52,0.48,0.99,0.95,1.4,1.39l4.75,5.08l-12.58,8.7l-3.52-4.06c-0.97-1.12-3.16-3.05-5.36-4.76
						c-2.23,2.52-4.98,4.97-7.67,6.79L132.91,532.96z"/>
				</g>
				<g>
					<path class="st6" d="M166.43,500.35l-7.63,0.7l-0.21-2.32l24.59-2.25l0.21,2.32l-7.89,0.72l0.19,2.09l6.83-0.62l0.7,7.6
						l-22.15,2.02l-0.69-7.6l6.25-0.57L166.43,500.35z M179.53,514.22c-0.7,1.51-1.68,2.79-2.86,3.88c3.37,0.5,6.43,1.03,8.74,1.6
						l-2.24,2.08c-2.31-0.63-5.44-1.27-9.05-1.81c-3.1,1.82-7.28,2.98-12.69,3.91c-0.27-0.76-0.79-1.69-1.27-2.23
						c3.88-0.56,7.06-1.28,9.63-2.24c-2.08-0.25-4.18-0.43-6.33-0.61c0.66-0.96,1.4-2.09,2.1-3.32l-5.82,0.53l-0.2-2.24l7.32-0.67
						c0.52-1,0.97-2.06,1.29-2.98l2.75,0.33c-0.31,0.78-0.66,1.59-1.06,2.38l7.72-0.71c0.18-0.54,0.36-1.1,0.51-1.7l2.65,0.48
						c-0.09,0.3-0.18,0.62-0.26,0.95l4.65-0.42l0.2,2.24L179.53,514.22z M163.37,508.26l3.76-0.34l-0.31-3.36l-3.76,0.34
						L163.37,508.26z M168.57,515.22c-0.34,0.67-0.72,1.28-1.1,1.87c1.95,0.17,3.88,0.34,5.78,0.57c1.28-0.87,2.31-1.92,3.1-3.15
						L168.57,515.22z M172.97,499.75l-4.02,0.37l0.19,2.09l4.02-0.37L172.97,499.75z M169.65,507.69l4.02-0.37l-0.31-3.36
						l-4.02,0.37L169.65,507.69z M175.88,503.74l0.31,3.36l4.19-0.38l-0.31-3.36L175.88,503.74z"/>
					<path class="st6" d="M157.5,530.65l-1.7-4.73c-0.03-0.08-0.11-0.24-0.17-0.34l-1.37-1.51l-1.64-0.14l0.66-0.95l-5.11-5.66
						l5.59-0.8l-0.75-8.16l1.81-0.17l-0.07-0.76l-1.38,0.13l-1.3-14.27l36.54-3.34l1.3,14.28l-1.06,0.1l0.07,0.76l1.61-0.15
						l0.92,10.08l6.18,1.53l-12.8,11.91l-3.22-0.87c-1.75-0.47-3.99-0.95-6.46-1.36c-3.23,1.52-7.26,2.65-12.69,3.58L157.5,530.65z"
						/>
				</g>
				<g>
					<path class="st6" d="M234.32,513.17l-35.41,4.68l-1.01-7.67l14.05-19.3c3.42-5.11,4.94-9.01,4.59-11.71
						c-0.29-2.18-0.98-3.78-2.09-4.8c-1.1-1.01-2.56-1.4-4.37-1.16c-1.79,0.24-3.14,1.19-4.05,2.86c-0.91,1.67-1.22,3.64-0.92,5.92
						l-11.78,1.56c-0.41-3.11-0.01-6.09,1.2-8.93c1.21-2.84,3.1-5.19,5.67-7.04c2.57-1.85,5.56-3,8.98-3.46
						c5.48-0.72,9.87-0.02,13.17,2.13c3.3,2.14,5.26,5.58,5.89,10.32c0.26,2,0.15,3.99-0.34,5.99c-0.49,1.99-1.39,4.13-2.68,6.42
						c-1.29,2.29-3.45,5.4-6.48,9.35l-5.55,8.43l19.97-2.64L234.32,513.17z"/>
					<path class="st6" d="M193.74,524.58l-2.11-15.99l15.11-20.76l-18.59,2.46l-0.79-5.95c-0.55-4.18-0.01-8.24,1.62-12.07
						c1.63-3.85,4.22-7.07,7.68-9.56c3.37-2.43,7.31-3.96,11.7-4.54c6.91-0.91,12.71,0.11,17.23,3.04
						c3.31,2.15,7.49,6.43,8.56,14.57c0.36,2.74,0.2,5.51-0.47,8.22c-0.62,2.51-1.73,5.18-3.28,7.93c-1.09,1.93-2.65,4.27-4.74,7.12
						l12.62-1.67l2.77,20.96L193.74,524.58z M210.24,478.64L210.24,478.64L210.24,478.64z M220.97,473.27
						c0.46,0.92,0.83,1.92,1.1,3.01C221.81,474.98,221.42,474,220.97,473.27z"/>
				</g>
				<g>
					<path class="st6" d="M246.38,499.84c1.86-0.26,3.48,0.08,4.86,1.02c1.38,0.93,2.19,2.26,2.43,3.98
						c0.24,1.72-0.19,3.21-1.26,4.49c-1.08,1.27-2.55,2.04-4.4,2.29c-1.88,0.26-3.51-0.09-4.88-1.03c-1.37-0.95-2.17-2.27-2.41-3.96
						c-0.23-1.69,0.18-3.18,1.25-4.46C243.03,500.87,244.5,500.1,246.38,499.84z"/>
					<path class="st6" d="M246.84,517.7c-2.62,0-5.05-0.74-7.13-2.18c-2.77-1.91-4.48-4.71-4.94-8.09
						c-0.46-3.38,0.43-6.53,2.58-9.12c2.02-2.43,4.86-3.96,8.22-4.42c3.31-0.45,6.43,0.23,9.03,1.99c2.81,1.9,4.54,4.71,5.01,8.14
						c0.47,3.42-0.44,6.6-2.64,9.18c-2.03,2.39-4.85,3.9-8.16,4.35C248.15,517.65,247.49,517.7,246.84,517.7z"/>
				</g>
				<g>
					<path class="st6" d="M295,484.13c0.84,6.86-0.06,12.34-2.69,16.44c-2.63,4.1-6.75,6.49-12.35,7.17
						c-5.65,0.69-10.26-0.65-13.81-4.02c-3.55-3.37-5.74-8.46-6.57-15.28l-1.13-9.28c-0.84-6.86,0.06-12.34,2.69-16.44
						c2.63-4.1,6.76-6.49,12.39-7.17c5.63-0.68,10.22,0.66,13.77,4.03c3.55,3.37,5.74,8.47,6.57,15.31L295,484.13z M281.92,474.78
						c-0.44-3.65-1.25-6.32-2.43-8.01c-1.17-1.69-2.79-2.41-4.87-2.15c-2.02,0.25-3.39,1.26-4.11,3.05
						c-0.71,1.79-0.9,4.38-0.56,7.79l1.58,12.98c0.46,3.79,1.28,6.51,2.44,8.15c1.17,1.64,2.79,2.34,4.86,2.08
						c2-0.24,3.37-1.28,4.12-3.1c0.75-1.83,0.91-4.57,0.49-8.22L281.92,474.78z"/>
					<path class="st6" d="M277.23,513.91c-5.95,0-11.16-1.99-15.22-5.84c-4.57-4.33-7.4-10.7-8.4-18.91l-1.13-9.28
						c-1-8.25,0.21-15.12,3.6-20.41c3.58-5.58,9.36-8.99,16.72-9.89c7.36-0.9,13.8,1.05,18.62,5.63c4.57,4.34,7.4,10.71,8.4,18.94
						l1.12,9.25c1,8.26-0.21,15.12-3.6,20.41c-3.58,5.57-9.34,8.99-16.68,9.89C279.5,513.84,278.35,513.91,277.23,513.91z"/>
				</g>
				<g>
					<path class="st6" d="M328.59,450.4l0.65,9.29l-0.53,0.04c-4.42,0.31-7.98,1.62-10.67,3.93c-2.69,2.31-4.24,5.38-4.63,9.18
						c2.48-2.8,5.76-4.35,9.83-4.63c4.42-0.31,8.05,1.06,10.89,4.1c2.84,3.04,4.45,7.18,4.81,12.42c0.23,3.25-0.33,6.28-1.68,9.1
						c-1.34,2.82-3.33,5.09-5.98,6.81s-5.63,2.7-8.98,2.93c-3.62,0.25-6.92-0.35-9.89-1.8c-2.97-1.45-5.35-3.65-7.15-6.6
						c-1.8-2.95-2.87-6.43-3.19-10.42l-0.33-4.73c-0.37-5.26,0.43-10.07,2.4-14.42c1.96-4.35,4.96-7.87,8.98-10.54
						c4.02-2.68,8.58-4.19,13.67-4.55L328.59,450.4z M319.77,477.55c-1.57,0.11-2.85,0.56-3.85,1.36c-1,0.8-1.72,1.74-2.16,2.83
						l0.25,3.54c0.45,6.45,2.91,9.52,7.37,9.21c1.8-0.13,3.25-1.04,4.34-2.73c1.09-1.7,1.55-3.76,1.38-6.19
						c-0.17-2.5-0.93-4.5-2.27-5.99C323.49,478.08,321.8,477.41,319.77,477.55z"/>
					<path class="st6" d="M320.73,509.64c-3.92,0-7.59-0.82-10.94-2.46c-4-1.95-7.24-4.94-9.64-8.87
						c-2.29-3.75-3.65-8.14-4.05-13.06l-0.33-4.81c-0.43-6.24,0.55-12.06,2.91-17.3c2.43-5.38,6.17-9.77,11.12-13.07
						c4.88-3.25,10.46-5.11,16.58-5.54l7.77-0.54l1.48,21.28l-0.53,0.04c1.22,0.82,2.36,1.79,3.41,2.91
						c3.79,4.07,5.95,9.48,6.41,16.1c0.3,4.28-0.46,8.35-2.24,12.1c-1.82,3.82-4.55,6.93-8.11,9.26c-3.5,2.28-7.48,3.59-11.84,3.89
						C322.06,509.62,321.39,509.64,320.73,509.64z M319.89,483.57l0.09,1.3c0.14,1.99,0.5,3.09,0.73,3.57
						c0.17-0.28,0.5-0.96,0.39-2.45c-0.08-1.13-0.33-1.94-0.75-2.41c-0.02-0.02-0.03-0.04-0.05-0.05c-0.03,0-0.07,0-0.13,0h0
						C320.07,483.54,319.97,483.55,319.89,483.57z M320.38,483.53L320.38,483.53L320.38,483.53z"/>
				</g>
				<g>
					<path class="st6" d="M344.31,475.4c0.02-2,0.69-3.62,2.01-4.83c1.32-1.22,3.08-1.82,5.27-1.8c2.23,0.02,3.98,0.65,5.26,1.89
						c1.28,1.24,1.91,2.9,1.89,4.99l-0.02,1.6c-0.02,2-0.68,3.61-1.98,4.81s-3.05,1.8-5.25,1.77c-2.18-0.02-3.93-0.64-5.25-1.87
						s-1.96-2.89-1.94-5L344.31,475.4z M349.12,477.16c-0.01,0.77,0.2,1.39,0.63,1.88c0.43,0.48,1.02,0.73,1.77,0.74
						c1.56,0.02,2.35-0.96,2.37-2.94l0.01-1.33c0.01-0.77-0.19-1.4-0.61-1.9c-0.41-0.5-0.99-0.75-1.75-0.76
						c-0.73-0.01-1.31,0.23-1.74,0.7c-0.44,0.48-0.66,1.13-0.66,1.95L349.12,477.16z M352.76,499.24l-3.48-1.79l16.08-25.18
						l3.48,1.79L352.76,499.24z M359.53,493.79c0.02-2.02,0.69-3.63,2.02-4.83c1.33-1.2,3.08-1.8,5.26-1.77
						c2.21,0.02,3.96,0.64,5.26,1.85c1.3,1.22,1.93,2.9,1.91,5.05l-0.01,1.56c-0.02,2.02-0.68,3.63-1.98,4.83
						c-1.3,1.2-3.06,1.8-5.27,1.77c-2.18-0.02-3.93-0.64-5.25-1.87s-1.96-2.89-1.94-5L359.53,493.79z M364.33,495.54
						c-0.01,0.69,0.22,1.3,0.69,1.83c0.47,0.53,1.05,0.79,1.73,0.8c1.44,0.01,2.23-0.66,2.36-2.01l0.04-2.28
						c0.01-0.78-0.2-1.41-0.63-1.9c-0.43-0.48-1.01-0.73-1.75-0.74c-0.71-0.01-1.29,0.21-1.72,0.66c-0.44,0.45-0.67,1.05-0.71,1.82
						L364.33,495.54z"/>
					<path class="st6" d="M366.82,508.25c-0.06,0-0.11,0-0.17,0c-3.66-0.04-6.86-1.23-9.27-3.47c-0.21-0.19-0.42-0.41-0.64-0.64
						l-1.87,2.94l-14.19-7.31l6.7-10.49c-2.4-0.68-4.1-1.86-5.22-2.91c-1.79-1.66-3.91-4.65-3.86-9.45l0.02-1.59
						c0.04-3.66,1.4-6.83,3.93-9.18c1.68-1.55,4.64-3.39,9.24-3.39c0.06,0,0.11,0,0.17,0c4.74,0.05,7.71,1.97,9.37,3.58
						c0.2,0.19,0.4,0.4,0.6,0.63l1.63-2.55l14.19,7.32l-6.4,10.02c2.37,0.69,4.04,1.86,5.15,2.9c1.76,1.65,3.85,4.64,3.8,9.48
						l-0.01,1.56c-0.04,3.68-1.39,6.86-3.91,9.19C374.39,506.43,371.44,508.25,366.82,508.25z M365.67,496.1
						c0.29,0.13,0.9,0.15,1.1,0.15c0.54,0,0.83-0.06,1-0.11L365.67,496.1z M365.54,495.82l2.38,0.23c0.02-0.06,0.05-0.21,0.05-0.46
						l0.01-1.56c0-0.04,0-0.08,0-0.12l-2.45-0.12c0,0.02,0,0.04,0,0.06l-0.02,1.6C365.52,495.6,365.53,495.73,365.54,495.82z
						 M365.54,493.74l2.44,0.02c-0.01-0.2-0.04-0.32-0.05-0.39c-0.13-0.08-0.49-0.19-1.17-0.2c-0.57-0.01-1.02,0.08-1.17,0.21
						C365.58,493.41,365.55,493.53,365.54,493.74z M350.29,477.17c0.01,0.34,0.06,0.47,0.06,0.47c0.22,0.18,0.97,0.21,1.19,0.21
						c0.67,0.03,1.03-0.1,1.12-0.18c0.02-0.02,0.06-0.18,0.06-0.46v0L350.29,477.17z M350.29,477.17l2.43,0.02l0.02-1.6
						c0-0.46-0.07-0.64-0.07-0.64c-0.05-0.04-0.42-0.17-1.14-0.18c-0.63,0.01-1.02,0.1-1.14,0.2c-0.02,0.02-0.08,0.15-0.08,0.49
						l-0.02,1.59C350.29,477.09,350.29,477.13,350.29,477.17z"/>
				</g>
				<g>
					<path class="st6" d="M393.78,501.93c1.53,0.77,3.53,1.2,6.08,1.53c1.71,0.25,9.85,1.28,11.98,1.46
						c-0.51,0.57-1.12,1.72-1.39,2.49l-10.91-1.39c-5.69-0.72-8.98-1.98-10.67-5.83c-0.58,2.05-1.3,3.81-2.2,5.21
						c-0.45-0.38-1.51-1.12-2.11-1.49c1.91-2.66,2.8-7.19,3.52-12.18l2.43,0.51c-0.19,1.28-0.41,2.56-0.65,3.75
						c0.33,1.78,0.85,3.1,1.65,4.13l1.25-9.83l-5.66-0.72l0.3-2.34l5.11,0.65l0.4-3.17l-4.4-0.56l0.3-2.34l4.4,0.56l0.38-2.97
						l2.49,0.32l-0.38,2.97l3.97,0.5l-0.3,2.34l-3.97-0.5l-0.4,3.17l4.69,0.59l-0.3,2.34l-4.17-0.53l-0.48,3.74l3.89,0.49
						l-0.29,2.31l-3.89-0.49L393.78,501.93z M403.2,502.23c-2.91-0.37-3.7-1.25-3.3-4.4l2.05-16.14l10.74,1.37l-1.33,10.49
						l-8.17-1.04l-0.72,5.66c-0.16,1.29,0.04,1.54,1.35,1.71l4.43,0.56c1.14,0.14,1.46-0.51,2.03-3.63c0.52,0.5,1.49,1.06,2.18,1.32
						c-0.84,3.9-1.69,5.07-4.32,4.74L403.2,502.23z M404.23,484.36l-0.74,5.83l5.63,0.71l0.74-5.83L404.23,484.36z"/>
					<path class="st6" d="M395.63,515.26l-3.7-4.78c-0.38-0.14-0.75-0.28-1.12-0.44l-2.82,4.35l-5.21-4.38
						c-0.22-0.18-0.99-0.72-1.39-0.97l-5.47-3.37l3.74-5.23c0.78-1.08,1.37-3.37,1.79-5.51l-1.08-0.14l1.81-14.25l0.71,0.09
						l0.7-5.52l4.4,0.56l0.38-2.97l14.39,1.83l-0.15,1.2l16.77,2.13l-1.99,15.72l2.04,0.77l-1.12,5.04c0,0.02-0.01,0.04-0.01,0.07
						l5.92,0.51l-7.82,8.83c-0.1,0.16-0.26,0.46-0.31,0.61l-1.61,4.58l-15.72-2c-0.89-0.11-1.79-0.25-2.67-0.41L395.63,515.26z
						 M416.33,508.89L416.33,508.89C416.33,508.9,416.33,508.89,416.33,508.89z"/>
				</g>
			</g>
		</g>
		<g>
			<g>
				<path class="st1" d="M81.83,502.13l5.55,0.67l-0.3,2.46l-5.55-0.67l-0.11,0.89c1.26,1.37,3.96,4.68,4.67,5.55l-1.79,2.08
					c-0.68-1.1-2.04-3.06-3.24-4.66l-1.38,11.44l-2.66-0.32l1.36-11.32c-1.76,2.8-3.84,5.42-5.84,7.01c-0.16-0.8-0.75-2-1.09-2.77
					c2.42-1.77,5.18-5.15,6.89-8.28l-5.21-0.63l0.3-2.46l5.72,0.69l0.51-4.23c-1.79,0.13-3.56,0.18-5.21,0.18
					c-0.07-0.62-0.34-1.55-0.58-2.16c4.22-0.13,9.15-0.55,11.98-1.43l1.67,2.26c-1.47,0.4-3.25,0.71-5.13,0.89L81.83,502.13z
					 M90.7,514.02l-2.63-0.32l1.9-15.73l2.63,0.32L90.7,514.02z M98.99,495.99l-2.7,22.39c-0.2,1.69-0.7,2.41-1.75,2.72
					c-1.08,0.31-2.81,0.18-5.38-0.13c-0.03-0.76-0.3-2.07-0.61-2.86c1.91,0.32,3.71,0.53,4.28,0.6c0.52,0.03,0.77-0.11,0.83-0.65
					l2.7-22.39L98.99,495.99z"/>
				<path class="st1" d="M127.21,517.31l-11.49-0.33l-0.16,5.7l-2.82-0.08l0.16-5.7l-11.49-0.33l0.07-2.48l11.49,0.33l0.06-2.16
					l2.82,0.08l-0.06,2.16l11.49,0.33L127.21,517.31z M109.29,509.19c-2.16,1.09-4.47,2.23-6.37,3.07l-1.29-2.2
					c1.83-0.64,4.57-1.74,7.2-2.88L109.29,509.19z M118.92,512.89c-0.16-0.44-0.38-0.93-0.65-1.49c-7.25,0.48-8.26,0.6-8.93,0.9
					c-0.07-0.46-0.41-1.63-0.65-2.27c0.69-0.07,1.43-0.59,2.4-1.37c0.53-0.36,1.62-1.28,2.87-2.45c-2.8,0.12-3.44,0.25-3.87,0.41
					c-0.13-0.49-0.47-1.6-0.69-2.18c0.41-0.08,0.85-0.44,1.32-0.94c0.36-0.31,1.16-1.29,1.94-2.45l-10.16-0.29l0.07-2.45l11.25,0.33
					c-0.33-0.7-0.74-1.4-1.09-2.02l2.7-0.56c0.55,0.82,1.18,1.88,1.56,2.67l10.42,0.3l-0.07,2.45l-11.95-0.34
					c-0.78,1.04-1.62,2.11-2.48,2.98l3.2-0.05c0.68-0.73,1.34-1.52,1.97-2.28l2.04,1.27c-2.17,2.44-4.66,4.73-7.11,6.59l4.12-0.2
					c-0.36-0.62-0.74-1.17-1.13-1.7l1.98-0.69c1.22,1.56,2.55,3.62,3.05,5.07L118.92,512.89z M106.86,506.58
					c-0.86-1-2.7-2.44-4.19-3.43l1.85-1.42c1.47,0.93,3.36,2.31,4.29,3.29L106.86,506.58z M124.96,513.13
					c-1.18-1.16-3.57-2.93-5.5-4.13l1.91-1.41c1.87,1.12,4.33,2.83,5.59,3.99L124.96,513.13z M126.16,503.59
					c-1.3,1.29-2.98,2.57-4.28,3.45l-1.92-1.32c1.27-0.92,3.01-2.39,3.99-3.52L126.16,503.59z"/>
				<path class="st1" d="M141.75,514.88c-2.07,2.91-5.31,5.99-8.31,8.02c-0.57-0.55-1.61-1.35-2.27-1.78
					c2.95-1.82,6.17-4.79,7.69-7.21L141.75,514.88z M153.05,497.68l0.55,13.21l-19.8,0.83l-0.55-13.21L153.05,497.68z
					 M136.43,509.07l14.19-0.59l-0.34-8.15l-14.19,0.59L136.43,509.07z M148.49,513.41c2.82,1.96,6.46,4.83,8.3,6.8l-2.44,1.69
					c-1.67-1.92-5.25-4.94-8.14-7.01L148.49,513.41z"/>
				<path class="st1" d="M166.13,498l-7.63,0.7l-0.21-2.32l24.58-2.25l0.21,2.32l-7.89,0.72l0.19,2.09l6.82-0.62l0.7,7.6
					l-22.14,2.02l-0.69-7.6l6.25-0.57L166.13,498z M179.22,511.87c-0.7,1.51-1.68,2.79-2.86,3.88c3.37,0.5,6.43,1.03,8.73,1.6
					l-2.24,2.08c-2.31-0.63-5.44-1.27-9.04-1.81c-3.1,1.82-7.27,2.98-12.68,3.91c-0.27-0.76-0.79-1.69-1.27-2.23
					c3.88-0.56,7.05-1.28,9.63-2.24c-2.08-0.24-4.17-0.43-6.33-0.61c0.67-0.96,1.4-2.09,2.1-3.31l-5.82,0.53l-0.2-2.24l7.31-0.67
					c0.52-1,0.97-2.05,1.29-2.98l2.75,0.33c-0.31,0.78-0.67,1.59-1.06,2.38l7.71-0.7c0.18-0.54,0.36-1.1,0.51-1.69l2.65,0.48
					c-0.09,0.3-0.17,0.62-0.26,0.95l4.65-0.42l0.2,2.24L179.22,511.87z M163.07,505.92l3.76-0.34l-0.31-3.35l-3.76,0.34
					L163.07,505.92z M168.27,512.87c-0.34,0.67-0.72,1.28-1.1,1.87c1.95,0.17,3.88,0.34,5.78,0.57c1.28-0.87,2.31-1.92,3.09-3.15
					L168.27,512.87z M172.67,497.41l-4.02,0.37l0.19,2.09l4.01-0.37L172.67,497.41z M169.35,505.34l4.01-0.37l-0.31-3.36l-4.02,0.37
					L169.35,505.34z M175.58,501.39l0.31,3.36l4.19-0.38l-0.31-3.36L175.58,501.39z"/>
				<path class="st4" d="M234.23,513.21l-35.41,4.68l-1.01-7.67l14.05-19.3c3.41-5.11,4.94-9.01,4.59-11.71
					c-0.29-2.18-0.98-3.78-2.09-4.79c-1.1-1.01-2.56-1.4-4.37-1.16c-1.79,0.24-3.14,1.19-4.06,2.86c-0.91,1.67-1.22,3.64-0.92,5.92
					l-11.78,1.56c-0.41-3.11-0.01-6.09,1.2-8.93c1.21-2.84,3.1-5.19,5.67-7.04c2.57-1.85,5.56-3,8.98-3.46
					c5.48-0.72,9.87-0.01,13.17,2.13c3.3,2.14,5.26,5.58,5.89,10.32c0.26,2,0.15,3.99-0.34,5.98c-0.49,1.99-1.39,4.13-2.68,6.42
					c-1.29,2.29-3.45,5.4-6.48,9.35l-5.55,8.43l19.97-2.64L234.23,513.21z"/>
				<path class="st4" d="M246.3,499.88c1.86-0.25,3.48,0.08,4.86,1.02s2.19,2.26,2.43,3.98c0.24,1.72-0.19,3.21-1.26,4.48
					c-1.08,1.27-2.55,2.04-4.41,2.29c-1.88,0.26-3.51-0.09-4.88-1.03s-2.17-2.27-2.41-3.96c-0.23-1.69,0.18-3.18,1.25-4.46
					C242.94,500.91,244.42,500.14,246.3,499.88z"/>
				<path class="st4" d="M294.91,484.17c0.84,6.86-0.06,12.34-2.69,16.44c-2.63,4.1-6.75,6.49-12.35,7.17
					c-5.65,0.69-10.26-0.65-13.81-4.02c-3.55-3.37-5.74-8.46-6.57-15.28l-1.13-9.28c-0.83-6.86,0.06-12.34,2.69-16.44
					c2.63-4.1,6.76-6.49,12.39-7.17c5.63-0.69,10.22,0.66,13.77,4.03c3.55,3.37,5.74,8.47,6.58,15.31L294.91,484.17z M281.84,474.82
					c-0.44-3.65-1.25-6.32-2.43-8.01c-1.17-1.69-2.8-2.4-4.87-2.15c-2.02,0.25-3.39,1.26-4.11,3.05c-0.71,1.79-0.9,4.38-0.56,7.79
					l1.58,12.98c0.46,3.79,1.28,6.51,2.44,8.15c1.17,1.64,2.79,2.33,4.86,2.08c2-0.24,3.37-1.28,4.12-3.1
					c0.74-1.83,0.91-4.57,0.49-8.22L281.84,474.82z"/>
				<path class="st4" d="M328.54,450.43l0.65,9.29l-0.53,0.04c-4.42,0.31-7.97,1.62-10.67,3.93c-2.69,2.31-4.24,5.38-4.63,9.19
					c2.48-2.8,5.76-4.35,9.83-4.63c4.42-0.31,8.05,1.06,10.89,4.1c2.84,3.04,4.45,7.19,4.81,12.42c0.23,3.25-0.33,6.28-1.67,9.1
					c-1.34,2.82-3.33,5.09-5.97,6.81c-2.64,1.72-5.63,2.7-8.98,2.93c-3.62,0.25-6.92-0.35-9.89-1.79c-2.97-1.45-5.35-3.65-7.16-6.6
					c-1.8-2.95-2.87-6.43-3.19-10.42l-0.33-4.73c-0.37-5.26,0.43-10.07,2.4-14.42c1.96-4.35,4.96-7.87,8.98-10.54
					c4.02-2.68,8.58-4.19,13.67-4.55L328.54,450.43z M319.71,477.58c-1.57,0.11-2.85,0.56-3.85,1.36c-1,0.8-1.72,1.74-2.17,2.83
					l0.25,3.54c0.45,6.45,2.91,9.52,7.37,9.21c1.8-0.12,3.25-1.04,4.34-2.73c1.09-1.7,1.55-3.76,1.38-6.19
					c-0.17-2.5-0.93-4.5-2.27-5.99C323.43,478.12,321.75,477.44,319.71,477.58z"/>
				<path class="st4" d="M344.25,475.44c0.02-2,0.69-3.62,2.01-4.84c1.32-1.22,3.08-1.82,5.27-1.8c2.23,0.02,3.98,0.65,5.26,1.89
					c1.28,1.24,1.91,2.9,1.89,4.99l-0.02,1.6c-0.02,2-0.68,3.61-1.98,4.81c-1.3,1.2-3.05,1.8-5.25,1.77
					c-2.18-0.02-3.93-0.64-5.25-1.87s-1.96-2.89-1.94-5L344.25,475.44z M349.07,477.19c-0.01,0.77,0.2,1.39,0.63,1.88
					c0.43,0.48,1.02,0.73,1.77,0.74c1.56,0.01,2.35-0.96,2.37-2.94l0.01-1.33c0.01-0.77-0.19-1.4-0.6-1.9
					c-0.41-0.5-1-0.75-1.75-0.76c-0.73-0.01-1.31,0.23-1.74,0.7c-0.44,0.48-0.66,1.13-0.67,1.95L349.07,477.19z M352.7,499.28
					l-3.48-1.79l16.08-25.18l3.48,1.79L352.7,499.28z M359.48,493.82c0.02-2.02,0.69-3.63,2.02-4.83c1.33-1.2,3.08-1.8,5.26-1.78
					c2.21,0.02,3.96,0.64,5.26,1.86c1.29,1.21,1.93,2.9,1.91,5.05l-0.01,1.56c-0.02,2.02-0.68,3.63-1.98,4.83
					c-1.3,1.2-3.06,1.8-5.27,1.77c-2.18-0.02-3.93-0.64-5.25-1.87c-1.32-1.22-1.96-2.89-1.94-5L359.48,493.82z M364.28,495.58
					c-0.01,0.69,0.22,1.3,0.69,1.83c0.47,0.53,1.05,0.79,1.73,0.8c1.44,0.01,2.23-0.66,2.36-2.01l0.05-2.28
					c0.01-0.78-0.2-1.41-0.63-1.9c-0.43-0.48-1.01-0.73-1.75-0.74c-0.71-0.01-1.29,0.21-1.72,0.66c-0.43,0.45-0.67,1.05-0.71,1.82
					L364.28,495.58z"/>
				<path class="st1" d="M394.02,499.58c1.53,0.77,3.53,1.2,6.08,1.53c1.71,0.25,9.85,1.28,11.98,1.46
					c-0.51,0.57-1.12,1.72-1.39,2.49l-10.91-1.39c-5.68-0.72-8.98-1.98-10.67-5.83c-0.58,2.04-1.3,3.81-2.2,5.21
					c-0.45-0.38-1.51-1.12-2.1-1.49c1.91-2.66,2.8-7.19,3.52-12.18l2.43,0.51c-0.19,1.28-0.41,2.56-0.65,3.75
					c0.32,1.78,0.85,3.1,1.65,4.13l1.25-9.83l-5.66-0.72l0.3-2.34l5.11,0.65l0.4-3.17l-4.4-0.56l0.3-2.34l4.4,0.56l0.38-2.97
					l2.49,0.32l-0.38,2.97l3.97,0.5l-0.3,2.34l-3.97-0.5l-0.4,3.17l4.68,0.59l-0.3,2.34l-4.17-0.53l-0.47,3.74l3.89,0.49l-0.29,2.31
					l-3.88-0.49L394.02,499.58z M403.45,499.88c-2.92-0.37-3.7-1.25-3.3-4.4l2.05-16.14l10.74,1.36l-1.33,10.49l-8.17-1.04
					l-0.72,5.66c-0.16,1.29,0.04,1.54,1.35,1.71l4.43,0.56c1.14,0.15,1.46-0.51,2.03-3.63c0.52,0.5,1.49,1.06,2.18,1.32
					c-0.84,3.9-1.69,5.07-4.32,4.74L403.45,499.88z M404.47,482.01l-0.74,5.83l5.63,0.71l0.74-5.83L404.47,482.01z"/>
			</g>
		</g>
	</g>
	<g>
		<path class="st2" d="M82.94,35.42c2.08,2.03,4.68,4.77,5.99,6.62l-2.81,2.56c-0.42-0.67-1-1.46-1.67-2.26
			c-6.34,3.92-7.39,4.69-8.07,5.45c-0.46-0.94-1.48-2.5-2.25-3.2c0.56-0.49,1.12-1.25,0.83-2.39l-5-19.67l12.34-3.13l3.68,14.48
			l-8.76,2.23l1.47,5.77l3.62-2.1c-0.68-0.73-1.37-1.46-2-2.11L82.94,35.42z M74.32,24.72l0.63,2.49l5.28-1.34l-0.63-2.49
			L74.32,24.72z M81.7,31.64l-0.68-2.67l-5.28,1.34l0.68,2.67L81.7,31.64z M98.76,33.36c0.4,1.58,0.37,2.56-0.48,3.4
			c-0.8,0.8-2.14,1.17-4.01,1.64c-0.36-0.91-1.13-2.24-1.8-3.04c1.07-0.21,2.15-0.48,2.47-0.6c0.35-0.09,0.47-0.24,0.37-0.62
			l-3.45-13.57l-3.55,0.9l5.72,22.51l-3.52,0.89l-6.53-25.71l10.49-2.67L98.76,33.36z"/>
		<path class="st2" d="M126.38,10.26l4.87,25.55l-3.8,0.72l-0.36-1.87l-13.19,2.51l0.37,1.93l-3.65,0.7l-4.88-25.61L126.38,10.26z
			 M110.06,17.06l1.22,6.39l13.19-2.51l-1.22-6.39L110.06,17.06z M126.41,31.09l-1.27-6.65l-13.19,2.51l1.27,6.65L126.41,31.09z"/>
		<path class="st2" d="M148.59,28.67c1.66,0.33,3.68,0.18,6.08-0.14c2.28-0.27,10.22-1.33,12.9-1.84c-0.43,0.91-0.81,2.61-0.88,3.72
			l-11.57,1.54c-5.54,0.74-9.21,0.47-12.03-2.57c-0.03,2.08-0.24,3.91-0.67,5.46c-0.72-0.33-2.41-0.9-3.2-1.13
			c1.06-3.22,0.7-8.27,0.07-13.4l3.3-0.2c0.15,1.32,0.26,2.65,0.37,3.89c0.6,1.26,1.3,2.24,2.07,2.96l-1.2-9.02l-5.81,0.78
			l-0.42-3.12l5.06-0.68l-0.37-2.79l-4.23,0.56l-0.41-3.09l4.23-0.56l-0.39-2.91l3.36-0.45l0.39,2.91l3.99-0.53l0.41,3.09
			l-3.99,0.53l0.37,2.79l4.71-0.63l0.42,3.12l-4.04,0.54l0.43,3.24l3.81-0.51l0.41,3.09l-3.81,0.51L148.59,28.67z M158.24,26.66
			c-3.36,0.45-4.57-0.43-5.08-4.23l-2.2-16.45l11.57-1.54l1.52,11.39l-8.12,1.08l0.68,5.06c0.18,1.38,0.4,1.59,1.65,1.43l3.87-0.52
			c1.14-0.15,1.26-0.87,1.01-4.07c0.83,0.47,2.31,0.85,3.3,0.96c0.18,4.31-0.59,5.87-3.59,6.27L158.24,26.66z M154.82,8.63
			l0.69,5.18l4.7-0.63L159.53,8L154.82,8.63z"/>
		<path class="st2" d="M195.8,14.6c-0.47-0.57-1.06-1.16-1.79-1.86c-15.29,1.87-17.31,2.06-18.69,2.63
			c-0.24-0.71-0.98-2.41-1.45-3.31c0.68-0.21,1.28-0.71,2-1.53c0.56-0.59,1.89-2.15,3.1-4.1l-6.69,0.54l-0.27-3.31l25.46-2.05
			l0.27,3.31l-14.13,1.14c-1.21,1.86-2.53,3.6-3.86,5.13l10.98-1.16c-1.04-0.8-2.07-1.59-3.03-2.21l2.71-2.16
			c2.82,1.84,6.52,4.51,8.35,6.49L195.8,14.6z M200.31,23.97l0.27,3.35l-27.27,2.2l-0.27-3.35l11.63-0.94l-0.34-4.22l-8.86,0.71
			l-0.27-3.31l8.86-0.71l-0.24-2.95l3.74-0.3l0.24,2.95l9.1-0.73l0.27,3.31l-9.1,0.73l0.34,4.22L200.31,23.97z"/>
		<path class="st2" d="M228.8,25.88l-16.86,0.51l-0.09-2.88l8.07-9.36c1.16-1.38,1.99-2.53,2.47-3.44c0.48-0.92,0.71-1.83,0.68-2.73
			c-0.04-1.19-0.4-2.15-1.09-2.86c-0.69-0.71-1.61-1.05-2.75-1.02c-1.35,0.04-2.39,0.49-3.11,1.34c-0.72,0.85-1.06,1.99-1.02,3.43
			l-4.18,0.13c-0.05-1.53,0.26-2.91,0.92-4.16c0.66-1.24,1.62-2.22,2.89-2.94c1.27-0.72,2.75-1.1,4.44-1.15
			c2.43-0.07,4.37,0.48,5.82,1.66c1.44,1.18,2.2,2.85,2.26,5.01c0.04,1.25-0.27,2.57-0.94,3.97c-0.66,1.39-1.77,2.99-3.33,4.78
			l-5.93,6.75l11.64-0.36L228.8,25.88z"/>
		<path class="st2" d="M249.58,15.34c-0.03,3.61-0.73,6.32-2.09,8.14c-1.36,1.82-3.42,2.72-6.18,2.7c-2.71-0.02-4.74-0.93-6.1-2.73
			c-1.36-1.8-2.04-4.45-2.05-7.95l0.04-4.34c0.03-3.61,0.73-6.3,2.09-8.1c1.36-1.79,3.43-2.68,6.2-2.65
			c2.74,0.02,4.78,0.92,6.12,2.69s2.01,4.4,2.01,7.91L249.58,15.34z M245.43,10.62c0.02-2.35-0.29-4.08-0.92-5.18
			c-0.63-1.1-1.65-1.66-3.05-1.67c-1.37-0.01-2.38,0.5-3.03,1.53s-1,2.65-1.06,4.86l-0.05,5.68c-0.02,2.34,0.29,4.09,0.94,5.24
			c0.65,1.15,1.67,1.74,3.07,1.75c1.34,0.01,2.34-0.51,2.99-1.57c0.65-1.06,1-2.72,1.06-4.98L245.43,10.62z"/>
		<path class="st2" d="M271.33,26.45l-16.86-0.53l0.09-2.88l8.64-8.84c1.25-1.3,2.14-2.4,2.68-3.28c0.54-0.88,0.82-1.78,0.85-2.69
			c0.04-1.19-0.27-2.17-0.92-2.92c-0.65-0.76-1.54-1.15-2.68-1.19c-1.35-0.04-2.42,0.34-3.19,1.14c-0.77,0.8-1.18,1.92-1.23,3.36
			l-4.18-0.13c0.05-1.53,0.44-2.89,1.17-4.09c0.73-1.2,1.76-2.12,3.07-2.76c1.31-0.64,2.81-0.93,4.5-0.88
			c2.43,0.08,4.33,0.75,5.7,2.02c1.37,1.27,2.02,2.98,1.95,5.14c-0.04,1.25-0.43,2.55-1.18,3.9c-0.75,1.35-1.95,2.87-3.62,4.57
			l-6.34,6.37l11.64,0.37L271.33,26.45z"/>
		<path class="st2" d="M281.45,12.54l2.54,0.16c1.28,0.07,2.32-0.2,3.12-0.8s1.23-1.53,1.31-2.77c0.08-1.19-0.18-2.14-0.76-2.84
			c-0.58-0.7-1.52-1.09-2.8-1.17c-1.12-0.07-2.07,0.19-2.83,0.8c-0.76,0.6-1.18,1.42-1.24,2.47l-4.18-0.26
			c0.08-1.28,0.5-2.43,1.25-3.44c0.75-1.01,1.75-1.77,3.01-2.29s2.64-0.72,4.16-0.63c2.5,0.16,4.42,0.91,5.77,2.25
			c1.35,1.35,1.95,3.14,1.81,5.37c-0.07,1.12-0.5,2.16-1.27,3.1c-0.78,0.95-1.75,1.64-2.92,2.07c1.35,0.56,2.34,1.36,3,2.42
			c0.65,1.05,0.93,2.28,0.85,3.68c-0.14,2.25-1.03,3.99-2.65,5.22s-3.69,1.77-6.2,1.61c-2.41-0.15-4.34-0.92-5.79-2.3
			s-2.11-3.14-1.98-5.27l4.18,0.26c-0.07,1.1,0.24,2.02,0.94,2.75c0.7,0.73,1.67,1.14,2.92,1.22c1.3,0.08,2.34-0.2,3.13-0.84
			c0.79-0.64,1.22-1.61,1.31-2.92c0.08-1.32-0.24-2.36-0.98-3.12c-0.74-0.76-1.87-1.19-3.41-1.29l-2.46-0.16L281.45,12.54z"/>
		<path class="st2" d="M299.93,28.97l-2.81-0.26l10.58-22.46l2.81,0.26L299.93,28.97z"/>
		<path class="st2" d="M325.5,31.15l-4.14-0.51l2.47-20l-6.36,1.33l0.43-3.49l10.15-2.37l0.53,0.07L325.5,31.15z"/>
		<path class="st2" d="M351.98,35.09l-16.66-2.64l0.45-2.84l9.68-7.69c1.4-1.14,2.42-2.11,3.07-2.92c0.65-0.81,1.04-1.66,1.18-2.56
			c0.19-1.18,0.01-2.19-0.54-3.02c-0.55-0.83-1.38-1.34-2.51-1.51c-1.34-0.21-2.44,0.03-3.31,0.73c-0.87,0.7-1.41,1.76-1.64,3.18
			l-4.13-0.66c0.24-1.51,0.8-2.81,1.68-3.91c0.88-1.1,2.01-1.88,3.39-2.35c1.38-0.47,2.91-0.57,4.57-0.3
			c2.41,0.38,4.21,1.29,5.4,2.72c1.2,1.43,1.63,3.21,1.29,5.34c-0.2,1.24-0.75,2.48-1.66,3.72c-0.91,1.24-2.3,2.6-4.16,4.07
			L341,29.96l11.5,1.83L351.98,35.09z"/>
		<path class="st2" d="M359.19,37.04l-2.77-0.53l12.72-21.32l2.77,0.53L359.19,37.04z"/>
		<path class="st2" d="M389.77,42.97l-16.44-3.76l0.64-2.8l10.17-7.02c1.48-1.04,2.56-1.94,3.26-2.71c0.7-0.76,1.15-1.59,1.35-2.47
			c0.27-1.16,0.15-2.18-0.34-3.05c-0.49-0.87-1.29-1.43-2.4-1.68c-1.32-0.3-2.44-0.13-3.35,0.51c-0.91,0.64-1.53,1.66-1.85,3.06
			l-4.08-0.93c0.34-1.49,0.99-2.75,1.93-3.79c0.95-1.04,2.13-1.74,3.54-2.12c1.41-0.37,2.94-0.37,4.58,0.01
			c2.37,0.54,4.11,1.57,5.21,3.07c1.1,1.51,1.41,3.31,0.93,5.42c-0.28,1.22-0.92,2.42-1.91,3.6s-2.47,2.44-4.43,3.79l-7.44,5.03
			l11.35,2.59L389.77,42.97z"/>
		<path class="st2" d="M408.17,37.01c-1.74,1.06-3.51,1.35-5.32,0.86c-2.13-0.58-3.62-1.78-4.48-3.62c-0.86-1.83-0.96-3.96-0.3-6.39
			c0.43-1.6,1.15-2.96,2.14-4.08c0.99-1.12,2.18-1.88,3.56-2.28c1.38-0.4,2.85-0.39,4.42,0.04c2.44,0.66,4.13,2.1,5.06,4.3
			s0.99,4.83,0.16,7.88l-0.31,1.13c-1.18,4.37-3.08,7.43-5.67,9.19c-2.59,1.76-5.85,2.12-9.78,1.1l-0.48-0.13l0.91-3.34l0.58,0.16
			c2.39,0.61,4.38,0.54,5.95-0.23S407.38,39.3,408.17,37.01z M404.56,34.94c0.81,0.22,1.63,0.19,2.47-0.08
			c0.84-0.27,1.56-0.77,2.17-1.48l0.43-1.58c0.48-1.78,0.51-3.32,0.07-4.6c-0.44-1.28-1.24-2.08-2.4-2.4
			c-1.16-0.32-2.22-0.09-3.18,0.68c-0.95,0.77-1.63,1.89-2.02,3.35c-0.41,1.52-0.4,2.84,0.05,3.96
			C402.59,33.91,403.39,34.62,404.56,34.94z"/>
	</g>
	
		<rect x="41.07" y="28.36" transform="matrix(0.6684 -0.7438 0.7438 0.6684 -19.0225 46.4325)" class="st2" width="3" height="32.38"/>
	
		<rect x="431.78" y="43.05" transform="matrix(0.7439 -0.6683 0.6683 0.7439 84.9676 310.8055)" class="st2" width="32.38" height="3"/>
</g>
</svg>
