<?xml version="1.0" encoding="utf-8"?>
<!-- Generator: Adobe Illustrator 26.3.1, SVG Export Plug-In . SVG Version: 6.00 Build 0)  -->
<svg version="1.1" id="Layer_1" xmlns="http://www.w3.org/2000/svg" xmlns:xlink="http://www.w3.org/1999/xlink" x="0px" y="0px"
	 viewBox="0 0 215 200" style="enable-background:new 0 0 215 200;" xml:space="preserve">
<style type="text/css">
	.st0{fill:#71D39F;}
	.st1{fill:#2DC479;}
	.st2{fill:#F2F2F2;}
	.st3{fill:#D1D1D1;}
	.st4{fill:#D3D0CD;}
	.st5{fill:#C4BAAD;}
	.st6{fill:#C1E8B5;}
	.st7{fill:#FFC85A;}
	.st8{fill:#EF9E11;}
	.st9{fill:#FCB638;}
	.st10{fill:#05BD6B;}
</style>
<g>
	<g>
		<g>
			<path class="st0" d="M212.8,162.3h-85.2c-1.1,0-2,0.9-2,2v4.4c0,1.1,0.9,2,2,2h85.2c1.1,0,2-0.9,2-2v-4.4
				C214.8,163.2,213.9,162.3,212.8,162.3z"/>
			<path class="st1" d="M214.8,169h-89.2v0c0,0.9,0.7,1.6,1.6,1.6h85.9C214,170.7,214.8,169.9,214.8,169L214.8,169z"/>
			<rect x="154.7" y="162.3" class="st2" width="30.8" height="8.4"/>
			<rect x="154.7" y="169" class="st3" width="30.8" height="1.6"/>
			<rect x="154.7" y="162.3" class="st4" width="4" height="8.4"/>
			<rect x="181.6" y="162.3" class="st4" width="4" height="8.4"/>
			<rect x="154.7" y="169" class="st5" width="4" height="1.6"/>
			<rect x="181.6" y="169" class="st5" width="4" height="1.6"/>
		</g>
		<g>
			<path class="st0" d="M212.8,153.8h-85.2c-1.1,0-2,0.9-2,2v4.4c0,1.1,0.9,2,2,2h85.2c1.1,0,2-0.9,2-2v-4.4
				C214.8,154.7,213.9,153.8,212.8,153.8z"/>
			<path class="st1" d="M214.8,160.6h-89.2v0c0,0.9,0.7,1.6,1.6,1.6h85.9C214,162.2,214.8,161.5,214.8,160.6L214.8,160.6z"/>
			<rect x="154.7" y="153.8" class="st2" width="30.8" height="8.4"/>
			<rect x="154.7" y="160.6" class="st3" width="30.8" height="1.6"/>
			<rect x="154.7" y="153.8" class="st4" width="4" height="8.4"/>
			<rect x="181.6" y="153.8" class="st4" width="4" height="8.4"/>
			<rect x="154.7" y="160.6" class="st5" width="4" height="1.6"/>
			<rect x="181.6" y="160.6" class="st5" width="4" height="1.6"/>
		</g>
		<g>
			<path class="st0" d="M214.8,147.4v4.4c0,1.1-0.9,2-2,2h-85.2c-1.1,0-2-0.9-2-2v-4.4c0-1.1,0.9-2,2-2h85.2
				C213.9,145.4,214.8,146.3,214.8,147.4z"/>
			<path class="st1" d="M214.8,152.2h-89.2v0c0,0.9,0.7,1.6,1.6,1.6h85.9C214,153.8,214.8,153.1,214.8,152.2L214.8,152.2z"/>
			<rect x="154.7" y="145.4" class="st2" width="30.8" height="8.4"/>
			<rect x="154.7" y="152.2" class="st3" width="30.8" height="1.6"/>
			<rect x="154.7" y="145.4" class="st4" width="4" height="8.4"/>
			<rect x="181.6" y="145.4" class="st4" width="4" height="8.4"/>
			<rect x="154.7" y="152.2" class="st5" width="4" height="1.6"/>
			<rect x="181.6" y="152.2" class="st5" width="4" height="1.6"/>
		</g>
	</g>
	<g>
		<g>
			<path class="st0" d="M195.1,139.6v4.4c0,1.1-0.9,2-2,2h-85.2c-1.1,0-2-0.9-2-2v-4.4c0-1.1,0.9-2,2-2h85.2
				C194.2,137.6,195.1,138.5,195.1,139.6z"/>
			<path class="st1" d="M195.1,144.3L195.1,144.3c0,0.9-0.7,1.6-1.6,1.6h-85.9c-0.9,0-1.6-0.7-1.6-1.6v0H195.1z"/>
			<rect x="135.1" y="137.6" class="st2" width="30.8" height="8.4"/>
			<rect x="135.1" y="144.3" class="st3" width="30.8" height="1.6"/>
			<rect x="135.1" y="137.6" class="st4" width="4" height="8.4"/>
			<rect x="162" y="137.6" class="st4" width="4" height="8.4"/>
			<rect x="135.1" y="144.3" class="st5" width="4" height="1.6"/>
			<rect x="162" y="144.3" class="st5" width="4" height="1.6"/>
		</g>
		<g>
			<path class="st0" d="M195.1,131.2v4.4c0,1.1-0.9,2-2,2h-85.2c-1.1,0-2-0.9-2-2v-4.4c0-1.1,0.9-2,2-2h85.2
				C194.2,129.2,195.1,130,195.1,131.2z"/>
			<path class="st1" d="M195.1,135.9L195.1,135.9c0,0.9-0.7,1.6-1.6,1.6h-85.9c-0.9,0-1.6-0.7-1.6-1.6l0,0H195.1z"/>
			<rect x="135.1" y="129.2" class="st2" width="30.8" height="8.4"/>
			<rect x="135.1" y="135.9" class="st3" width="30.8" height="1.6"/>
			<rect x="135.1" y="129.2" class="st4" width="4" height="8.4"/>
			<rect x="162" y="129.2" class="st4" width="4" height="8.4"/>
			<rect x="135.1" y="135.9" class="st5" width="4" height="1.6"/>
			<rect x="162" y="135.9" class="st5" width="4" height="1.6"/>
		</g>
		<g>
			<path class="st0" d="M195.1,122.7v4.4c0,1.1-0.9,2-2,2h-85.2c-1.1,0-2-0.9-2-2v-4.4c0-1.1,0.9-2,2-2h85.2
				C194.2,120.7,195.1,121.6,195.1,122.7z"/>
			<path class="st1" d="M195.1,127.5L195.1,127.5c0,0.9-0.7,1.6-1.6,1.6h-85.9c-0.9,0-1.6-0.7-1.6-1.6v0H195.1z"/>
			<rect x="135.1" y="120.7" class="st2" width="30.8" height="8.4"/>
			<rect x="135.1" y="127.5" class="st3" width="30.8" height="1.6"/>
			<rect x="135.1" y="120.7" class="st4" width="4" height="8.4"/>
			<rect x="162" y="120.7" class="st4" width="4" height="8.4"/>
			<rect x="135.1" y="127.5" class="st5" width="4" height="1.6"/>
			<rect x="162" y="127.5" class="st5" width="4" height="1.6"/>
		</g>
	</g>
	<g>
		<rect x="105.9" y="120.7" class="st6" width="89.2" height="8.4"/>
		<rect x="105.9" y="129.2" class="st6" width="89.2" height="8.4"/>
		<path class="st6" d="M195.1,145.4v-7.8h-89.2v8.2c0,0.1,0,0.2,0.1,0.2c3.1,10,9.5,15.9,16.8,19.5c0.9,0.5,1.8,0.9,2.8,1.2
			c2.5,1,5.1,1.8,7.6,2.3c6.1,1.4,12,1.6,16.3,1.6c2.4,0,4.3-0.1,5.3-0.1h0c0.9,0,2.2,0.1,4,0.1c0.4,0,0.9,0,1.4,0
			c4.2,0,10.1-0.2,16.3-1.6c0,0,0,0,0,0c1.7-0.4,3.5-0.9,5.3-1.5c1.3-0.5,2.7-1,4-1.6c2.2-1,4.4-2.2,6.4-3.7c0,0,0,0,0.1,0
			c0.7-0.5,1.4-1.1,2-1.6c2.2-1.9,4.1-4.1,5.8-6.8c0,0,0,0,0,0c0.3-0.5,0.6-1.1,1-1.6c1.1-2,2-4.3,2.8-6.8H195.1z"/>
	</g>
	<g>
		<path class="st7" d="M187.8,132c0,42.3-43.5,38.6-50.7,38.6c-4,0-19.2,1.1-32-5.1c-10.2-5-18.8-14.7-18.8-33.4
			c0-42.3,39.1-75.1,39.1-75.1h23.2c0,0,0.9,0.7,2.4,2.1C159.5,66.9,187.8,96.1,187.8,132z"/>
		<path class="st7" d="M160.2,34.1L148.6,57h-23.2l-11.4-22.9c0,0,4.3,0.4,8.3-3.1c2.3-2,4.1-2,5.8-1.3c2.7,1.2,5.1,4.4,8.9,4.4
			c4,0,6.4-3.6,9.4-4.6c1.5-0.5,3.2-0.3,5.3,1.5C155.7,34.6,160.2,34.1,160.2,34.1z"/>
		<g>
			<path class="st8" d="M119.3,77.1c-0.3,0-0.6-0.1-0.8-0.2c-0.8-0.5-1.2-1.5-0.7-2.4c5.7-10.3,14-18.6,14.3-19
				c0.7-0.7,1.8-0.7,2.5,0c0.7,0.7,0.7,1.8,0,2.5c-0.1,0.1-8.3,8.4-13.7,18.2C120.5,76.8,119.9,77.1,119.3,77.1z"/>
		</g>
		<g>
			<path class="st8" d="M153.2,74.7c-0.6,0-1.2-0.3-1.5-0.9c-0.4-0.7-0.8-1.4-1.2-2.1c-2.4-4.3-5.3-9.6-9.3-13.7
				c-0.7-0.7-0.7-1.8,0-2.5c0.7-0.7,1.8-0.7,2.5,0c4.4,4.4,7.4,10,9.9,14.5c0.4,0.7,0.8,1.4,1.1,2.1c0.5,0.8,0.2,1.9-0.7,2.4
				C153.8,74.6,153.5,74.7,153.2,74.7z"/>
		</g>
		<path class="st9" d="M187.8,132c0,42.3-43.5,38.6-50.7,38.6c-4,0-19.2,1.1-32-5.1c24.8,1.4,45.4-4.1,58-20.2
			C175.8,129,165.8,85.1,151,59C159.5,66.9,187.8,96.1,187.8,132z"/>
		<path class="st9" d="M146.5,29.6L141.4,57l-0.2,1l-5.3-1l-0.8-0.1c-2.6-10.3-5.2-20.5-6.9-27.1c2.7,1.2,5.1,4.4,8.9,4.4
			C141,34.1,143.5,30.5,146.5,29.6z"/>
		<polygon class="st8" points="151,59 123.1,59 124.4,54.8 149.6,54.8 		"/>
		<g>
			<path class="st8" d="M141,123.7c0-1.2-0.3-2.2-0.9-2.9s-1.7-1.4-3.2-2s-2.9-1.3-4.2-1.9s-2.4-1.4-3.4-2.2s-1.7-1.8-2.2-2.9
				s-0.8-2.5-0.8-4c0-2.6,0.9-4.8,2.7-6.5s4.2-2.7,7.1-3v-3.1c0-1,0.8-1.9,1.9-1.9l0,0c1,0,1.9,0.8,1.9,1.9v3.2
				c2.9,0.4,5.1,1.6,6.7,3.5c0.5,0.5,0.8,1.1,1.2,1.7c1.4,2.5-0.5,5.6-3.4,5.6h0c-1.6,0-3.1-1-3.6-2.6c-0.1-0.5-0.3-0.8-0.6-1.2
				c-0.6-0.9-1.5-1.3-2.7-1.3c-1,0-1.8,0.3-2.4,1c-0.6,0.6-0.9,1.5-0.9,2.7c0,1.2,0.3,2.1,1,2.8s1.7,1.3,3.2,1.9s2.8,1.3,4.1,1.9
				c1.3,0.7,2.4,1.4,3.3,2.3s1.7,1.8,2.2,3s0.8,2.5,0.8,4.1c0,2.7-0.8,4.9-2.5,6.5s-4,2.7-6.9,3v2.8c0,1-0.8,1.9-1.9,1.9l0,0
				c-1,0-1.9-0.8-1.9-1.9v-2.9c-3.4-0.4-6-1.5-7.8-3.5c-0.8-0.8-1.4-1.8-1.8-2.8c-1-2.4,0.8-5,3.4-5h0.4c1.6,0,3,1.1,3.5,2.6
				c0.2,0.6,0.5,1,0.8,1.4c0.8,0.9,1.9,1.4,3.4,1.4c1.1,0,1.9-0.3,2.5-0.9S141,124.8,141,123.7z"/>
		</g>
	</g>
	<g>
		<g>
			<path class="st0" d="M87.4,162.3H2.2c-1.1,0-2,0.9-2,2v4.4c0,1.1,0.9,2,2,2h85.2c1.1,0,2-0.9,2-2v-4.4
				C89.4,163.2,88.5,162.3,87.4,162.3z"/>
			<path class="st1" d="M89.4,169H0.2v0c0,0.9,0.7,1.6,1.6,1.6h85.9C88.7,170.7,89.4,169.9,89.4,169L89.4,169z"/>
			<rect x="29.4" y="162.3" class="st2" width="30.8" height="8.4"/>
			<rect x="29.4" y="169" class="st3" width="30.8" height="1.6"/>
			<rect x="29.4" y="162.3" class="st4" width="4" height="8.4"/>
			<rect x="56.3" y="162.3" class="st4" width="4" height="8.4"/>
			<rect x="29.4" y="169" class="st5" width="4" height="1.6"/>
			<rect x="56.3" y="169" class="st5" width="4" height="1.6"/>
		</g>
		<g>
			<path class="st0" d="M87.4,153.8H2.2c-1.1,0-2,0.9-2,2v4.4c0,1.1,0.9,2,2,2h85.2c1.1,0,2-0.9,2-2v-4.4
				C89.4,154.7,88.5,153.8,87.4,153.8z"/>
			<path class="st1" d="M89.4,160.6H0.2v0c0,0.9,0.7,1.6,1.6,1.6h85.9C88.7,162.2,89.4,161.5,89.4,160.6L89.4,160.6z"/>
			<rect x="29.4" y="153.8" class="st2" width="30.8" height="8.4"/>
			<rect x="29.4" y="160.6" class="st3" width="30.8" height="1.6"/>
			<rect x="29.4" y="153.8" class="st4" width="4" height="8.4"/>
			<rect x="56.3" y="153.8" class="st4" width="4" height="8.4"/>
			<rect x="29.4" y="160.6" class="st5" width="4" height="1.6"/>
			<rect x="56.3" y="160.6" class="st5" width="4" height="1.6"/>
		</g>
		<g>
			<path class="st0" d="M87.4,145.4H2.2c-1.1,0-2,0.9-2,2v4.4c0,1.1,0.9,2,2,2h85.2c1.1,0,2-0.9,2-2v-4.4
				C89.4,146.3,88.5,145.4,87.4,145.4z"/>
			<path class="st1" d="M89.4,152.2H0.2v0c0,0.9,0.7,1.6,1.6,1.6h85.9C88.7,153.8,89.4,153.1,89.4,152.2L89.4,152.2z"/>
			<rect x="29.4" y="145.4" class="st2" width="30.8" height="8.4"/>
			<rect x="29.4" y="152.2" class="st3" width="30.8" height="1.6"/>
			<rect x="29.4" y="145.4" class="st4" width="4" height="8.4"/>
			<rect x="56.3" y="145.4" class="st4" width="4" height="8.4"/>
			<rect x="29.4" y="152.2" class="st5" width="4" height="1.6"/>
			<rect x="56.3" y="152.2" class="st5" width="4" height="1.6"/>
		</g>
	</g>
	<g>
		<g>
			<path class="st0" d="M100.7,137.6H15.5c-1.1,0-2,0.9-2,2v4.4c0,1.1,0.9,2,2,2h85.2c1.1,0,2-0.9,2-2v-4.4
				C102.7,138.5,101.8,137.6,100.7,137.6z"/>
			<path class="st1" d="M102.7,144.3H13.5v0c0,0.9,0.7,1.6,1.6,1.6H101C102,146,102.7,145.2,102.7,144.3L102.7,144.3z"/>
			<rect x="42.7" y="137.6" class="st2" width="30.8" height="8.4"/>
			<rect x="42.7" y="144.3" class="st3" width="30.8" height="1.6"/>
			<rect x="42.7" y="137.6" class="st4" width="4" height="8.4"/>
			<rect x="69.5" y="137.6" class="st4" width="4" height="8.4"/>
			<rect x="42.7" y="144.3" class="st5" width="4" height="1.6"/>
			<rect x="69.5" y="144.3" class="st5" width="4" height="1.6"/>
		</g>
		<g>
			<path class="st0" d="M100.7,129.2H15.5c-1.1,0-2,0.9-2,2v4.4c0,1.1,0.9,2,2,2h85.2c1.1,0,2-0.9,2-2v-4.4
				C102.7,130,101.8,129.2,100.7,129.2z"/>
			<path class="st1" d="M102.7,135.9H13.5v0c0,0.9,0.7,1.6,1.6,1.6H101C102,137.5,102.7,136.8,102.7,135.9L102.7,135.9z"/>
			<rect x="42.7" y="129.2" class="st2" width="30.8" height="8.4"/>
			<rect x="42.7" y="135.9" class="st3" width="30.8" height="1.6"/>
			<rect x="42.7" y="129.2" class="st4" width="4" height="8.4"/>
			<rect x="69.5" y="129.2" class="st4" width="4" height="8.4"/>
			<rect x="42.7" y="135.9" class="st5" width="4" height="1.6"/>
			<rect x="69.5" y="135.9" class="st5" width="4" height="1.6"/>
		</g>
		<g>
			<path class="st0" d="M100.7,120.7H15.5c-1.1,0-2,0.9-2,2v4.4c0,1.1,0.9,2,2,2h85.2c1.1,0,2-0.9,2-2v-4.4
				C102.7,121.6,101.8,120.7,100.7,120.7z"/>
			<path class="st1" d="M102.7,127.5H13.5v0c0,0.9,0.7,1.6,1.6,1.6H101C102,129.1,102.7,128.4,102.7,127.5L102.7,127.5z"/>
			<rect x="42.7" y="120.7" class="st2" width="30.8" height="8.4"/>
			<rect x="42.7" y="127.5" class="st3" width="30.8" height="1.6"/>
			<rect x="42.7" y="120.7" class="st4" width="4" height="8.4"/>
			<rect x="69.5" y="120.7" class="st4" width="4" height="8.4"/>
			<rect x="42.7" y="127.5" class="st5" width="4" height="1.6"/>
			<rect x="69.5" y="127.5" class="st5" width="4" height="1.6"/>
		</g>
	</g>
	<g>
		<g>
			<path class="st0" d="M94.4,112.4H9.2c-1.1,0-2,0.9-2,2v4.4c0,1.1,0.9,2,2,2h85.2c1.1,0,2-0.9,2-2v-4.4
				C96.4,113.2,95.5,112.4,94.4,112.4z"/>
			<path class="st1" d="M96.4,119.1H7.2v0c0,0.9,0.7,1.6,1.6,1.6h85.9C95.7,120.7,96.4,120,96.4,119.1L96.4,119.1z"/>
			<rect x="36.4" y="112.4" class="st2" width="30.8" height="8.4"/>
			<rect x="36.4" y="119.1" class="st3" width="30.8" height="1.6"/>
			<rect x="36.4" y="112.4" class="st4" width="4" height="8.4"/>
			<rect x="63.3" y="112.4" class="st4" width="4" height="8.4"/>
			<rect x="36.4" y="119.1" class="st5" width="4" height="1.6"/>
			<rect x="63.3" y="119.1" class="st5" width="4" height="1.6"/>
		</g>
		<g>
			<path class="st0" d="M94.4,103.9H9.2c-1.1,0-2,0.9-2,2v4.4c0,1.1,0.9,2,2,2h85.2c1.1,0,2-0.9,2-2v-4.4
				C96.4,104.8,95.5,103.9,94.4,103.9z"/>
			<path class="st1" d="M96.4,110.7H7.2v0c0,0.9,0.7,1.6,1.6,1.6h85.9C95.7,112.3,96.4,111.6,96.4,110.7L96.4,110.7z"/>
			<rect x="36.4" y="103.9" class="st2" width="30.8" height="8.4"/>
			<rect x="36.4" y="110.7" class="st3" width="30.8" height="1.6"/>
			<rect x="36.4" y="103.9" class="st4" width="4" height="8.4"/>
			<rect x="63.3" y="103.9" class="st4" width="4" height="8.4"/>
			<rect x="36.4" y="110.7" class="st5" width="4" height="1.6"/>
			<rect x="63.3" y="110.7" class="st5" width="4" height="1.6"/>
		</g>
		<g>
			<path class="st0" d="M94.4,95.5H9.2c-1.1,0-2,0.9-2,2v4.4c0,1.1,0.9,2,2,2h85.2c1.1,0,2-0.9,2-2v-4.4
				C96.4,96.4,95.5,95.5,94.4,95.5z"/>
			<path class="st1" d="M96.4,102.3H7.2v0c0,0.9,0.7,1.6,1.6,1.6h85.9C95.7,103.9,96.4,103.2,96.4,102.3L96.4,102.3z"/>
			<rect x="36.4" y="95.5" class="st2" width="30.8" height="8.4"/>
			<rect x="36.4" y="102.3" class="st3" width="30.8" height="1.6"/>
			<rect x="36.4" y="95.5" class="st4" width="4" height="8.4"/>
			<rect x="63.3" y="95.5" class="st4" width="4" height="8.4"/>
			<rect x="36.4" y="102.3" class="st5" width="4" height="1.6"/>
			<rect x="63.3" y="102.3" class="st5" width="4" height="1.6"/>
		</g>
	</g>
	<g>
		<path class="st10" d="M122.9,170.7h-80c-2.2,0-4-1.8-4-4v-32.7c0-2.2,1.8-4,4-4h80c2.2,0,4,1.8,4,4v32.7
			C126.9,168.9,125.1,170.7,122.9,170.7z"/>
		<rect x="42.5" y="133" class="st0" width="80.8" height="34.6"/>
		
			<ellipse transform="matrix(0.7071 -0.7071 0.7071 0.7071 -82.0027 102.6233)" class="st10" cx="82.9" cy="150.3" rx="15.4" ry="15.4"/>
		<g>
			<path class="st10" d="M50.9,150.3c0-1.5,1.3-2.8,2.8-2.8c1.5,0,2.8,1.3,2.8,2.8c0,1.5-1.3,2.8-2.8,2.8
				C52.2,153.1,50.9,151.8,50.9,150.3z"/>
			<path class="st10" d="M109.3,150.3c0-1.5,1.3-2.8,2.8-2.8c1.5,0,2.8,1.3,2.8,2.8c0,1.5-1.3,2.8-2.8,2.8
				C110.5,153.1,109.3,151.8,109.3,150.3z"/>
		</g>
		<path class="st10" d="M48.9,133c0,3.5-2.9,6.4-6.4,6.4l-1.1-7.8L48.9,133z"/>
		<path class="st10" d="M124.8,131.6l-1.5,7.8c-3.5,0-6.4-2.9-6.4-6.4L124.8,131.6z"/>
		<path class="st10" d="M48.9,167.6l-7.5,1.1l1.1-7.5C46,161.2,48.9,164,48.9,167.6z"/>
		<path class="st10" d="M123.3,161.2l1.5,7.5l-8-1.1C116.9,164,119.7,161.2,123.3,161.2z"/>
		<g>
			<path class="st0" d="M84.6,154.2c0-0.6-0.1-1.1-0.4-1.4s-0.8-0.7-1.6-1c-0.7-0.3-1.4-0.6-2.1-0.9c-0.6-0.3-1.2-0.7-1.6-1.1
				c-0.5-0.4-0.8-0.9-1-1.4s-0.4-1.2-0.4-2c0-1.3,0.4-2.3,1.3-3.2s2-1.3,3.5-1.4v-1.5c0-0.5,0.4-0.9,0.9-0.9l0,0
				c0.5,0,0.9,0.4,0.9,0.9v1.5c1.4,0.2,2.5,0.8,3.3,1.7c0.2,0.3,0.4,0.5,0.6,0.8c0.7,1.2-0.2,2.7-1.6,2.7l0,0
				c-0.8,0-1.5-0.5-1.7-1.2c-0.1-0.2-0.2-0.4-0.3-0.6c-0.3-0.4-0.7-0.6-1.3-0.6c-0.5,0-0.9,0.2-1.2,0.5c-0.3,0.3-0.4,0.7-0.4,1.3
				c0,0.6,0.2,1,0.5,1.3s0.8,0.6,1.5,0.9c0.7,0.3,1.4,0.6,2,0.9c0.6,0.3,1.2,0.7,1.6,1.1c0.5,0.4,0.8,0.9,1.1,1.4
				c0.3,0.5,0.4,1.2,0.4,2c0,1.3-0.4,2.3-1.2,3.2c-0.8,0.8-1.9,1.3-3.4,1.4v1.4c0,0.5-0.4,0.9-0.9,0.9l0,0c-0.5,0-0.9-0.4-0.9-0.9
				v-1.4c-1.6-0.2-2.9-0.7-3.8-1.7c-0.4-0.4-0.7-0.9-0.9-1.4c-0.5-1.2,0.4-2.4,1.7-2.4h0.2c0.8,0,1.4,0.5,1.7,1.3
				c0.1,0.3,0.2,0.5,0.4,0.7c0.4,0.5,0.9,0.7,1.6,0.7c0.5,0,0.9-0.2,1.2-0.5C84.5,155.2,84.6,154.8,84.6,154.2z"/>
		</g>
	</g>
</g>
</svg>
