<?xml version="1.0" encoding="utf-8"?>
<!-- Generator: Adobe Illustrator 26.3.1, SVG Export Plug-In . SVG Version: 6.00 Build 0)  -->
<svg version="1.1" id="溯檜橫_1" xmlns="http://www.w3.org/2000/svg" xmlns:xlink="http://www.w3.org/1999/xlink" x="0px"
	 y="0px" viewBox="0 0 670 782" style="enable-background:new 0 0 670 782;" xml:space="preserve">
<style type="text/css">
	.st0{fill:#E5F7FE;}
	.st1{fill:#C3EBFA;}
</style>
<g>
	<path class="st0" d="M543.41,485.67c28.4-68.43-59.15-125.35-111.49-72.55c0,0,5.87-31.98-21.06-52.22
		c-21.93-16.48-49.78-6.86-49.78-6.86c35.32-99.47-104.59-186.3-183.67-124.84c-3.79-28.08-14.25-51.22-34.38-68.53
		c25.66-33.55,25.76-91.6-1.14-121.97C113.03,6.1,87.64,0.49,67.05,0.03C40.32-0.56,18.29,7.26,0,21.31v553.14l130.12,25.97
		c7.15,9.06,21.6,10.74,33.6,6.71l22.03,4.4c28.61,32.33,53.49,10.31,77.03,33.99c28.42,29.54,70.32,3.14,90.16-28.02
		c-4.43,6.95,37.89,15.83,42.3,15.55c16.23-1.04,29.79-5.55,46.59-5.55c28.07,0,56.13,0.41,84.19,1.21
		c12.67,0.36,26.35-0.79,38.82,0.34c10,0.91,19.37,5.33,29.57,5.56c34.21,1.15,68.34-22.05,73.8-56.21
		C682.77,510.62,605.67,445.75,543.41,485.67z"/>
	<path class="st1" d="M512.08,528.49c28.41-68.44-59.14-125.35-111.49-72.56c0,0,5.87-31.97-21.06-52.22
		c-11.08-8.34-23.69-10-33.44-9.6c0,0-0.02,0-0.03,0c-28.8,0.69-52.81,15.01-65,41.86c0,0-67.31-45.9-132.15-8.41
		c0,0,31.24-41.04,83.27-31.85c24.23,4.28,37.55,10.84,37.55,10.84s14.08-37.71,65.61-43.35c-1.68-83.85-119.29-145.57-189.26-91.19
		c-3.8-28.07-14.25-51.22-34.38-68.53c25.66-33.54,25.76-91.59-1.14-121.96c-28.87-32.6-54.25-38.2-74.85-38.66
		C22.74,42.56,10.87,44.27,0,47.7v620.13c13.58,10.46,30.6,16.7,49.07,16.7c12.58,0,24.49-2.89,35.09-8.03
		c12.98,39.36,50.05,67.78,93.77,67.78c24.77,0,47.41-9.13,64.74-24.2c22.46,37.24,63.3,61.92,109.96,61.92
		c45.25,0,85.03-23.2,107.88-58.59c11.45,6.92,24.87,10.9,39.22,10.9c35.5,0,65.31-24.37,73.62-57.29
		c30.5-3.24,58.61-25.09,63.51-55.82C651.44,553.44,574.34,488.56,512.08,528.49z"/>
</g>
</svg>
