<?xml version="1.0" encoding="utf-8"?>
<!-- Generator: Adobe Illustrator 26.3.1, SVG Export Plug-In . SVG Version: 6.00 Build 0)  -->
<svg version="1.1" id="Layer_1" xmlns="http://www.w3.org/2000/svg" xmlns:xlink="http://www.w3.org/1999/xlink" x="0px" y="0px"
	 viewBox="0 0 215 200" style="enable-background:new 0 0 215 200;" xml:space="preserve">
<style type="text/css">
	.st0{fill:#71D39F;}
	.st1{fill:#2DC479;}
	.st2{fill:#F2F2F2;}
	.st3{fill:#D1D1D1;}
	.st4{fill:#D3D0CD;}
	.st5{fill:#C4BAAD;}
	.st6{fill:#C1E8B5;}
	.st7{fill:#FCCE70;}
	.st8{fill:#DB8F16;}
	.st9{fill:#EDBA54;}
	.st10{fill:#05BD6B;}
</style>
<g>
	<g>
		<g>
			<path class="st0" d="M212.77,162.27h-85.2c-1.1,0-2,0.9-2,2v4.39c0,1.1,0.9,2,2,2h85.2c1.1,0,2-0.9,2-2v-4.39
				C214.77,163.17,213.87,162.27,212.77,162.27z"/>
			<path class="st1" d="M214.77,169.03h-89.2v0c0,0.9,0.73,1.63,1.63,1.63h85.94C214.04,170.66,214.77,169.93,214.77,169.03
				L214.77,169.03z"/>
			<rect x="154.75" y="162.27" class="st2" width="30.84" height="8.39"/>
			<rect x="154.75" y="169.03" class="st3" width="30.84" height="1.63"/>
			<rect x="154.75" y="162.27" class="st4" width="3.95" height="8.39"/>
			<rect x="181.64" y="162.27" class="st4" width="3.95" height="8.39"/>
			<rect x="154.75" y="169.03" class="st5" width="3.95" height="1.63"/>
			<rect x="181.64" y="169.03" class="st5" width="3.95" height="1.63"/>
		</g>
		<g>
			<path class="st0" d="M212.77,153.84h-85.2c-1.1,0-2,0.9-2,2v4.39c0,1.1,0.9,2,2,2h85.2c1.1,0,2-0.9,2-2v-4.39
				C214.77,154.74,213.87,153.84,212.77,153.84z"/>
			<path class="st1" d="M214.77,160.6h-89.2v0c0,0.9,0.73,1.63,1.63,1.63h85.94C214.04,162.23,214.77,161.5,214.77,160.6
				L214.77,160.6z"/>
			<rect x="154.75" y="153.84" class="st2" width="30.84" height="8.39"/>
			<rect x="154.75" y="160.6" class="st3" width="30.84" height="1.63"/>
			<rect x="154.75" y="153.84" class="st4" width="3.95" height="8.39"/>
			<rect x="181.64" y="153.84" class="st4" width="3.95" height="8.39"/>
			<rect x="154.75" y="160.6" class="st5" width="3.95" height="1.63"/>
			<rect x="181.64" y="160.6" class="st5" width="3.95" height="1.63"/>
		</g>
		<g>
			<path class="st0" d="M214.77,147.41v4.39c0,1.1-0.9,2-2,2h-85.2c-1.1,0-2-0.9-2-2v-4.39c0-1.1,0.9-2,2-2h85.2
				C213.87,145.41,214.77,146.31,214.77,147.41z"/>
			<path class="st1" d="M214.77,152.17h-89.2v0c0,0.9,0.73,1.63,1.63,1.63h85.94C214.04,153.8,214.77,153.07,214.77,152.17
				L214.77,152.17z"/>
			<rect x="154.75" y="145.41" class="st2" width="30.84" height="8.39"/>
			<rect x="154.75" y="152.17" class="st3" width="30.84" height="1.63"/>
			<rect x="154.75" y="145.41" class="st4" width="3.95" height="8.39"/>
			<rect x="181.64" y="145.41" class="st4" width="3.95" height="8.39"/>
			<rect x="154.75" y="152.17" class="st5" width="3.95" height="1.63"/>
			<rect x="181.64" y="152.17" class="st5" width="3.95" height="1.63"/>
		</g>
	</g>
	<g>
		<g>
			<path class="st0" d="M195.1,139.58v4.39c0,1.1-0.9,2-2,2h-85.2c-1.1,0-2-0.9-2-2v-4.39c0-1.1,0.9-2,2-2h85.2
				C194.2,137.58,195.1,138.48,195.1,139.58z"/>
			<path class="st1" d="M195.1,144.34L195.1,144.34c0,0.9-0.73,1.63-1.63,1.63h-85.94c-0.9,0-1.63-0.73-1.63-1.63v0H195.1z"/>
			<rect x="135.07" y="137.58" class="st2" width="30.84" height="8.39"/>
			<rect x="135.07" y="144.34" class="st3" width="30.84" height="1.63"/>
			<rect x="135.07" y="137.58" class="st4" width="3.95" height="8.39"/>
			<rect x="161.96" y="137.58" class="st4" width="3.95" height="8.39"/>
			<rect x="135.07" y="144.34" class="st5" width="3.95" height="1.63"/>
			<rect x="161.96" y="144.34" class="st5" width="3.95" height="1.63"/>
		</g>
		<g>
			<path class="st0" d="M195.1,131.15v4.39c0,1.1-0.9,2-2,2h-85.2c-1.1,0-2-0.9-2-2v-4.39c0-1.1,0.9-2,2-2h85.2
				C194.2,129.15,195.1,130.05,195.1,131.15z"/>
			<path class="st1" d="M195.1,135.91L195.1,135.91c0,0.9-0.73,1.63-1.63,1.63h-85.94c-0.9,0-1.63-0.73-1.63-1.63l0,0H195.1z"/>
			<rect x="135.07" y="129.15" class="st2" width="30.84" height="8.39"/>
			<rect x="135.07" y="135.91" class="st3" width="30.84" height="1.63"/>
			<rect x="135.07" y="129.15" class="st4" width="3.95" height="8.39"/>
			<rect x="161.96" y="129.15" class="st4" width="3.95" height="8.39"/>
			<rect x="135.07" y="135.91" class="st5" width="3.95" height="1.63"/>
			<rect x="161.96" y="135.91" class="st5" width="3.95" height="1.63"/>
		</g>
		<g>
			<path class="st0" d="M195.1,122.72v4.39c0,1.1-0.9,2-2,2h-85.2c-1.1,0-2-0.9-2-2v-4.39c0-1.1,0.9-2,2-2h85.2
				C194.2,120.72,195.1,121.62,195.1,122.72z"/>
			<path class="st1" d="M195.1,127.48L195.1,127.48c0,0.9-0.73,1.63-1.63,1.63h-85.94c-0.9,0-1.63-0.73-1.63-1.63v0H195.1z"/>
			<rect x="135.07" y="120.72" class="st2" width="30.84" height="8.39"/>
			<rect x="135.07" y="127.48" class="st3" width="30.84" height="1.63"/>
			<rect x="135.07" y="120.72" class="st4" width="3.95" height="8.39"/>
			<rect x="161.96" y="120.72" class="st4" width="3.95" height="8.39"/>
			<rect x="135.07" y="127.48" class="st5" width="3.95" height="1.63"/>
			<rect x="161.96" y="127.48" class="st5" width="3.95" height="1.63"/>
		</g>
	</g>
	<g>
		<rect x="105.9" y="120.72" class="st6" width="89.2" height="8.39"/>
		<rect x="105.9" y="129.15" class="st6" width="89.2" height="8.39"/>
		<path class="st6" d="M195.1,145.41v-7.83h-89.2v8.16c0.02,0.08,0.05,0.15,0.07,0.23c3.1,9.95,9.55,15.92,16.81,19.49
			c0.92,0.45,1.85,0.86,2.79,1.24c2.51,1.01,5.07,1.77,7.6,2.33c6.14,1.38,12.04,1.63,16.26,1.63c2.4,0,4.26-0.08,5.32-0.08h0
			c0.85,0,2.21,0.05,3.95,0.07c0.44,0,0.9,0.01,1.38,0.01c4.23,0,10.12-0.25,16.26-1.63c0,0,0.01,0,0.01,0
			c1.75-0.39,3.52-0.88,5.28-1.48c1.33-0.45,2.65-0.97,3.95-1.56c2.23-1.01,4.41-2.23,6.44-3.72c0.02-0.01,0.04-0.03,0.06-0.04
			c0.7-0.51,1.38-1.05,2.04-1.63c2.17-1.88,4.15-4.11,5.81-6.76c0.01-0.01,0.02-0.03,0.03-0.04c0.33-0.53,0.65-1.07,0.96-1.63
			c1.11-2.03,2.04-4.27,2.78-6.76H195.1z"/>
	</g>
	<g>
		<path class="st7" d="M187.77,132.01c0,42.25-43.54,38.57-50.72,38.57c-4,0-19.23,1.14-31.97-5.12
			c-10.17-4.99-18.75-14.69-18.75-33.45c0-42.26,39.12-75.12,39.12-75.12h23.2c0,0,0.87,0.73,2.35,2.12
			C159.46,66.91,187.77,96.06,187.77,132.01z"/>
		<path class="st7" d="M160.16,34.14l-11.52,22.9h-23.2l-11.4-22.9c0,0,4.33,0.42,8.33-3.06c2.31-2.01,4.12-2.04,5.8-1.32
			c2.74,1.18,5.15,4.38,8.87,4.38c3.96,0,6.43-3.63,9.4-4.58c1.53-0.49,3.19-0.27,5.26,1.52C155.72,34.56,160.16,34.14,160.16,34.14
			z"/>
		<g>
			<path class="st8" d="M119.27,77.12c-0.29,0-0.58-0.07-0.85-0.22c-0.85-0.47-1.16-1.53-0.69-2.38
				c5.67-10.27,13.97-18.63,14.33-18.98c0.68-0.68,1.79-0.68,2.48,0c0.69,0.68,0.69,1.8,0,2.48c-0.08,0.08-8.31,8.37-13.73,18.2
				C120.49,76.79,119.89,77.12,119.27,77.12z"/>
		</g>
		<g>
			<path class="st8" d="M153.19,74.71c-0.61,0-1.21-0.32-1.53-0.89c-0.37-0.66-0.76-1.36-1.16-2.1c-2.36-4.29-5.29-9.64-9.32-13.72
				c-0.68-0.69-0.68-1.8,0.01-2.48c0.69-0.68,1.8-0.68,2.48,0.01c4.38,4.43,7.44,10.01,9.9,14.5c0.4,0.72,0.78,1.42,1.14,2.07
				c0.47,0.84,0.18,1.91-0.67,2.39C153.78,74.64,153.48,74.71,153.19,74.71z"/>
		</g>
		<path class="st9" d="M187.77,132.01c0,42.25-43.54,38.57-50.72,38.57c-4,0-19.23,1.14-31.97-5.12
			c24.84,1.42,45.42-4.06,58.04-20.24c12.63-16.18,2.63-60.1-12.12-86.21C159.46,66.91,187.77,96.06,187.77,132.01z"/>
		<path class="st9" d="M146.46,29.56l-5.1,27.47L141.17,58l-5.31-0.96l-0.81-0.15c-2.62-10.34-5.2-20.52-6.87-27.13
			c2.74,1.18,5.15,4.38,8.87,4.38C141.02,34.14,143.49,30.52,146.46,29.56z"/>
		<polygon class="st8" points="151,59.01 123.1,59.01 124.41,54.84 149.62,54.84 		"/>
		<g>
			<path class="st8" d="M140.96,123.69c0-1.23-0.3-2.2-0.91-2.91s-1.68-1.37-3.21-1.99s-2.95-1.26-4.24-1.9s-2.41-1.38-3.35-2.23
				s-1.66-1.82-2.16-2.93s-0.75-2.45-0.75-4.03c0-2.64,0.89-4.82,2.67-6.53s4.16-2.71,7.12-2.99v-3.08c0-1.03,0.83-1.86,1.86-1.86
				l0,0c1.03,0,1.86,0.83,1.86,1.86v3.18c2.86,0.42,5.11,1.6,6.74,3.53c0.45,0.53,0.84,1.11,1.17,1.72c1.36,2.55-0.5,5.63-3.39,5.63
				h0c-1.62,0-3.1-1.02-3.61-2.56c-0.15-0.45-0.34-0.85-0.59-1.19c-0.62-0.88-1.52-1.31-2.67-1.31c-1.03,0-1.83,0.32-2.4,0.97
				c-0.57,0.65-0.86,1.54-0.86,2.68c0,1.16,0.33,2.07,0.98,2.75s1.71,1.33,3.16,1.95s2.82,1.26,4.11,1.92
				c1.29,0.66,2.4,1.42,3.34,2.26s1.67,1.83,2.2,2.95s0.8,2.48,0.8,4.05c0,2.67-0.85,4.85-2.54,6.54s-4,2.67-6.93,2.95v2.85
				c0,1.03-0.83,1.86-1.86,1.86l0,0c-1.03,0-1.86-0.83-1.86-1.86v-2.87c-3.41-0.36-6.02-1.53-7.84-3.5c-0.76-0.82-1.36-1.76-1.8-2.8
				c-1.01-2.38,0.83-5.02,3.42-5.02h0.42c1.63,0,2.98,1.1,3.51,2.64c0.19,0.55,0.46,1.03,0.8,1.43c0.79,0.93,1.91,1.39,3.36,1.39
				c1.06,0,1.9-0.32,2.51-0.95S140.96,124.8,140.96,123.69z"/>
		</g>
	</g>
	<g>
		<g>
			<path class="st0" d="M87.43,162.27H2.23c-1.1,0-2,0.9-2,2v4.39c0,1.1,0.9,2,2,2h85.2c1.1,0,2-0.9,2-2v-4.39
				C89.43,163.17,88.54,162.27,87.43,162.27z"/>
			<path class="st1" d="M89.43,169.03H0.23v0c0,0.9,0.73,1.63,1.63,1.63H87.8C88.7,170.66,89.43,169.93,89.43,169.03L89.43,169.03z"
				/>
			<rect x="29.41" y="162.27" class="st2" width="30.84" height="8.39"/>
			<rect x="29.41" y="169.03" class="st3" width="30.84" height="1.63"/>
			<rect x="29.41" y="162.27" class="st4" width="3.95" height="8.39"/>
			<rect x="56.3" y="162.27" class="st4" width="3.95" height="8.39"/>
			<rect x="29.41" y="169.03" class="st5" width="3.95" height="1.63"/>
			<rect x="56.3" y="169.03" class="st5" width="3.95" height="1.63"/>
		</g>
		<g>
			<path class="st0" d="M87.43,153.84H2.23c-1.1,0-2,0.9-2,2v4.39c0,1.1,0.9,2,2,2h85.2c1.1,0,2-0.9,2-2v-4.39
				C89.43,154.74,88.54,153.84,87.43,153.84z"/>
			<path class="st1" d="M89.43,160.6H0.23v0c0,0.9,0.73,1.63,1.63,1.63H87.8C88.7,162.23,89.43,161.5,89.43,160.6L89.43,160.6z"/>
			<rect x="29.41" y="153.84" class="st2" width="30.84" height="8.39"/>
			<rect x="29.41" y="160.6" class="st3" width="30.84" height="1.63"/>
			<rect x="29.41" y="153.84" class="st4" width="3.95" height="8.39"/>
			<rect x="56.3" y="153.84" class="st4" width="3.95" height="8.39"/>
			<rect x="29.41" y="160.6" class="st5" width="3.95" height="1.63"/>
			<rect x="56.3" y="160.6" class="st5" width="3.95" height="1.63"/>
		</g>
		<g>
			<path class="st0" d="M87.43,145.41H2.23c-1.1,0-2,0.9-2,2v4.39c0,1.1,0.9,2,2,2h85.2c1.1,0,2-0.9,2-2v-4.39
				C89.43,146.31,88.54,145.41,87.43,145.41z"/>
			<path class="st1" d="M89.43,152.17H0.23v0c0,0.9,0.73,1.63,1.63,1.63H87.8C88.7,153.8,89.43,153.07,89.43,152.17L89.43,152.17z"
				/>
			<rect x="29.41" y="145.41" class="st2" width="30.84" height="8.39"/>
			<rect x="29.41" y="152.17" class="st3" width="30.84" height="1.63"/>
			<rect x="29.41" y="145.41" class="st4" width="3.95" height="8.39"/>
			<rect x="56.3" y="145.41" class="st4" width="3.95" height="8.39"/>
			<rect x="29.41" y="152.17" class="st5" width="3.95" height="1.63"/>
			<rect x="56.3" y="152.17" class="st5" width="3.95" height="1.63"/>
		</g>
	</g>
	<g>
		<g>
			<path class="st0" d="M100.68,137.58h-85.2c-1.1,0-2,0.9-2,2v4.39c0,1.1,0.9,2,2,2h85.2c1.1,0,2-0.9,2-2v-4.39
				C102.68,138.48,101.78,137.58,100.68,137.58z"/>
			<path class="st1" d="M102.68,144.34h-89.2v0c0,0.9,0.73,1.63,1.63,1.63h85.94C101.95,145.97,102.68,145.24,102.68,144.34
				L102.68,144.34z"/>
			<rect x="42.66" y="137.58" class="st2" width="30.84" height="8.39"/>
			<rect x="42.66" y="144.34" class="st3" width="30.84" height="1.63"/>
			<rect x="42.66" y="137.58" class="st4" width="3.95" height="8.39"/>
			<rect x="69.55" y="137.58" class="st4" width="3.95" height="8.39"/>
			<rect x="42.66" y="144.34" class="st5" width="3.95" height="1.63"/>
			<rect x="69.55" y="144.34" class="st5" width="3.95" height="1.63"/>
		</g>
		<g>
			<path class="st0" d="M100.68,129.15h-85.2c-1.1,0-2,0.9-2,2v4.39c0,1.1,0.9,2,2,2h85.2c1.1,0,2-0.9,2-2v-4.39
				C102.68,130.05,101.78,129.15,100.68,129.15z"/>
			<path class="st1" d="M102.68,135.91h-89.2v0c0,0.9,0.73,1.63,1.63,1.63h85.94C101.95,137.54,102.68,136.81,102.68,135.91
				L102.68,135.91z"/>
			<rect x="42.66" y="129.15" class="st2" width="30.84" height="8.39"/>
			<rect x="42.66" y="135.91" class="st3" width="30.84" height="1.63"/>
			<rect x="42.66" y="129.15" class="st4" width="3.95" height="8.39"/>
			<rect x="69.55" y="129.15" class="st4" width="3.95" height="8.39"/>
			<rect x="42.66" y="135.91" class="st5" width="3.95" height="1.63"/>
			<rect x="69.55" y="135.91" class="st5" width="3.95" height="1.63"/>
		</g>
		<g>
			<path class="st0" d="M100.68,120.72h-85.2c-1.1,0-2,0.9-2,2v4.39c0,1.1,0.9,2,2,2h85.2c1.1,0,2-0.9,2-2v-4.39
				C102.68,121.62,101.78,120.72,100.68,120.72z"/>
			<path class="st1" d="M102.68,127.48h-89.2v0c0,0.9,0.73,1.63,1.63,1.63h85.94C101.95,129.11,102.68,128.38,102.68,127.48
				L102.68,127.48z"/>
			<rect x="42.66" y="120.72" class="st2" width="30.84" height="8.39"/>
			<rect x="42.66" y="127.48" class="st3" width="30.84" height="1.63"/>
			<rect x="42.66" y="120.72" class="st4" width="3.95" height="8.39"/>
			<rect x="69.55" y="120.72" class="st4" width="3.95" height="8.39"/>
			<rect x="42.66" y="127.48" class="st5" width="3.95" height="1.63"/>
			<rect x="69.55" y="127.48" class="st5" width="3.95" height="1.63"/>
		</g>
	</g>
	<g>
		<g>
			<path class="st0" d="M94.44,112.35H9.24c-1.1,0-2,0.9-2,2v4.39c0,1.1,0.9,2,2,2h85.2c1.1,0,2-0.9,2-2v-4.39
				C96.44,113.25,95.55,112.35,94.44,112.35z"/>
			<path class="st1" d="M96.44,119.11H7.24v0c0,0.9,0.73,1.63,1.63,1.63h85.94C95.71,120.75,96.44,120.02,96.44,119.11L96.44,119.11
				z"/>
			<rect x="36.42" y="112.35" class="st2" width="30.84" height="8.39"/>
			<rect x="36.42" y="119.11" class="st3" width="30.84" height="1.63"/>
			<rect x="36.42" y="112.35" class="st4" width="3.95" height="8.39"/>
			<rect x="63.31" y="112.35" class="st4" width="3.95" height="8.39"/>
			<rect x="36.42" y="119.11" class="st5" width="3.95" height="1.63"/>
			<rect x="63.31" y="119.11" class="st5" width="3.95" height="1.63"/>
		</g>
		<g>
			<path class="st0" d="M94.44,103.92H9.24c-1.1,0-2,0.9-2,2v4.39c0,1.1,0.9,2,2,2h85.2c1.1,0,2-0.9,2-2v-4.39
				C96.44,104.82,95.55,103.92,94.44,103.92z"/>
			<path class="st1" d="M96.44,110.68H7.24v0c0,0.9,0.73,1.63,1.63,1.63h85.94C95.71,112.31,96.44,111.58,96.44,110.68L96.44,110.68
				z"/>
			<rect x="36.42" y="103.92" class="st2" width="30.84" height="8.39"/>
			<rect x="36.42" y="110.68" class="st3" width="30.84" height="1.63"/>
			<rect x="36.42" y="103.92" class="st4" width="3.95" height="8.39"/>
			<rect x="63.31" y="103.92" class="st4" width="3.95" height="8.39"/>
			<rect x="36.42" y="110.68" class="st5" width="3.95" height="1.63"/>
			<rect x="63.31" y="110.68" class="st5" width="3.95" height="1.63"/>
		</g>
		<g>
			<path class="st0" d="M94.44,95.49H9.24c-1.1,0-2,0.9-2,2v4.39c0,1.1,0.9,2,2,2h85.2c1.1,0,2-0.9,2-2v-4.39
				C96.44,96.39,95.55,95.49,94.44,95.49z"/>
			<path class="st1" d="M96.44,102.25H7.24v0c0,0.9,0.73,1.63,1.63,1.63h85.94C95.71,103.88,96.44,103.15,96.44,102.25L96.44,102.25
				z"/>
			<rect x="36.42" y="95.49" class="st2" width="30.84" height="8.39"/>
			<rect x="36.42" y="102.25" class="st3" width="30.84" height="1.63"/>
			<rect x="36.42" y="95.49" class="st4" width="3.95" height="8.39"/>
			<rect x="63.31" y="95.49" class="st4" width="3.95" height="8.39"/>
			<rect x="36.42" y="102.25" class="st5" width="3.95" height="1.63"/>
			<rect x="63.31" y="102.25" class="st5" width="3.95" height="1.63"/>
		</g>
	</g>
	<g>
		<path class="st10" d="M122.9,170.66H42.86c-2.21,0-4-1.79-4-4v-32.73c0-2.21,1.79-4,4-4h80.04c2.21,0,4,1.79,4,4v32.73
			C126.9,168.87,125.11,170.66,122.9,170.66z"/>
		<rect x="42.47" y="133.01" class="st0" width="80.81" height="34.57"/>
		
			<ellipse transform="matrix(0.7071 -0.7071 0.7071 0.7071 -82.0027 102.6233)" class="st10" cx="82.88" cy="150.3" rx="15.42" ry="15.42"/>
		<g>
			<path class="st10" d="M50.9,150.3c0-1.55,1.25-2.8,2.8-2.8c1.55,0,2.8,1.25,2.8,2.8c0,1.55-1.25,2.8-2.8,2.8
				C52.16,153.1,50.9,151.84,50.9,150.3z"/>
			<path class="st10" d="M109.25,150.3c0-1.55,1.25-2.8,2.8-2.8c1.55,0,2.8,1.25,2.8,2.8c0,1.55-1.25,2.8-2.8,2.8
				C110.51,153.1,109.25,151.84,109.25,150.3z"/>
		</g>
		<path class="st10" d="M48.88,133.01c0,3.54-2.87,6.41-6.41,6.41l-1.12-7.79L48.88,133.01z"/>
		<path class="st10" d="M124.83,131.63l-1.55,7.79c-3.54,0-6.41-2.87-6.41-6.41L124.83,131.63z"/>
		<path class="st10" d="M48.88,167.58l-7.53,1.06l1.12-7.47C46.01,161.17,48.88,164.04,48.88,167.58z"/>
		<path class="st10" d="M123.28,161.17l1.55,7.47l-7.96-1.06C116.87,164.04,119.74,161.17,123.28,161.17z"/>
		<g>
			<path class="st0" d="M84.65,154.24c0-0.6-0.15-1.07-0.44-1.41s-0.81-0.66-1.56-0.96c-0.74-0.3-1.43-0.61-2.05-0.92
				c-0.63-0.31-1.17-0.67-1.62-1.08c-0.45-0.41-0.8-0.88-1.04-1.42s-0.36-1.19-0.36-1.95c0-1.28,0.43-2.33,1.29-3.16
				s2.01-1.31,3.45-1.45v-1.49c0-0.5,0.4-0.9,0.9-0.9l0,0c0.5,0,0.9,0.4,0.9,0.9v1.54c1.38,0.2,2.47,0.77,3.26,1.71
				c0.22,0.26,0.41,0.54,0.57,0.83c0.66,1.23-0.24,2.73-1.64,2.73l0,0c-0.79,0-1.5-0.49-1.75-1.24c-0.07-0.22-0.17-0.41-0.28-0.58
				c-0.3-0.42-0.73-0.64-1.29-0.64c-0.5,0-0.89,0.16-1.16,0.47c-0.28,0.31-0.41,0.75-0.41,1.3c0,0.56,0.16,1,0.48,1.33
				s0.83,0.64,1.53,0.94c0.7,0.3,1.37,0.61,1.99,0.93c0.62,0.32,1.16,0.69,1.62,1.1c0.45,0.41,0.81,0.89,1.07,1.43
				c0.26,0.54,0.39,1.2,0.39,1.96c0,1.29-0.41,2.35-1.23,3.17c-0.82,0.82-1.94,1.29-3.35,1.43v1.38c0,0.5-0.4,0.9-0.9,0.9l0,0
				c-0.5,0-0.9-0.4-0.9-0.9v-1.39c-1.65-0.17-2.92-0.74-3.8-1.7c-0.37-0.4-0.66-0.85-0.87-1.35c-0.49-1.15,0.4-2.43,1.66-2.43h0.2
				c0.79,0,1.44,0.53,1.7,1.28c0.09,0.27,0.22,0.5,0.39,0.69c0.38,0.45,0.93,0.68,1.63,0.68c0.51,0,0.92-0.15,1.21-0.46
				C84.5,155.2,84.65,154.78,84.65,154.24z"/>
		</g>
	</g>
</g>
</svg>
