<?xml version="1.0" encoding="utf-8"?>
<!-- Generator: Adobe Illustrator 26.3.1, SVG Export Plug-In . SVG Version: 6.00 Build 0)  -->
<svg version="1.1" id="圖層_1" xmlns="http://www.w3.org/2000/svg" xmlns:xlink="http://www.w3.org/1999/xlink" x="0px" y="0px"
	 viewBox="0 0 880 395" style="enable-background:new 0 0 880 395;" xml:space="preserve">
<style type="text/css">
	.st0{fill:#78C5EF;}
	.st1{fill:#FFFFFF;}
	.st2{fill:#005AD7;}
	.st3{fill:#399EFF;}
	.st4{fill:#FFD824;}
	.st5{fill:#EF8903;}
	.st6{fill:#C90000;}
</style>
<g>
	<g>
		<g>
			<path class="st0" d="M174.15,270.59v-9.94c0-3.79-0.44-9.23-4.15-13.2c-2.64-2.94-6.58-4.53-11.75-4.73v-1.95
				c0-3.32-1.11-6.57-3.16-9.38l0.28-0.39c2.18-3.05,3.24-6.78,3.24-11.38v-9.76c0-1.61-0.09-3.09-0.28-4.47l2.48,1.48l0.56,0.25
				c3.24,1.42,5.91,2.08,8.39,2.08c2.49,0,4.84-0.69,6.79-1.99l0.34-0.23l0.32-0.26c3.36-2.69,5.07-6.86,5.07-12.41v-19.16
				c0-3.78-0.44-9.2-4.12-13.16c-1.6-1.82-3.81-3.47-7.47-5.99l-0.2-0.14l-69.06-42.41c-3.79-2.33-7.06-3.42-10.29-3.42
				c-3.23,0-6.5,1.09-10.28,3.41l-69.06,42.42l-0.2,0.14c-3.65,2.51-5.87,4.17-7.47,5.98C0.44,165.97,0,171.39,0,175.17v19.16
				c0,5.55,1.7,9.72,5.06,12.41l0.32,0.26l0.34,0.23c1.95,1.3,4.3,1.99,6.79,1.99c2.48,0,5.15-0.66,8.39-2.08l0.56-0.25l2.48-1.48
				c-0.19,1.38-0.28,2.86-0.28,4.47v9.76c0,4.61,1.06,8.33,3.24,11.38l0.28,0.39c-2.05,2.8-3.16,6.05-3.16,9.38v1.96
				c-5.27,0.24-9.13,1.79-11.75,4.72c-3.72,3.97-4.15,9.41-4.15,13.2v9.94c0,4.67,1.25,8.57,3.71,11.59
				c2.06,2.66,6.07,5.64,13.7,5.64H157.1c7.36,0,11.3-2.99,13.35-5.65C172.91,279.15,174.15,275.26,174.15,270.59z"/>
			<path class="st0" d="M837.38,199.04c2.46-3.02,3.7-6.97,3.7-11.76v-9.94c0-3.79-0.44-9.23-4.15-13.19
				c-0.44-0.49-0.92-0.95-1.43-1.36c1.2-2.48,1.78-5.37,1.78-8.76v-9.76c0-3.88-0.46-9.51-4.45-13.51
				c-1.52-1.52-3.27-2.52-4.99-3.18c-0.25-3.38-1.47-6.41-3.63-9l-0.56-0.67l-0.67-0.56c-1.91-1.6-5.26-3.5-10.33-3.5h-16.27
				c-3.92,0-7.23,1-10.12,3.06l-0.65,0.46l-0.57,0.56c-0.9,0.9-1.67,1.87-2.29,2.91c-0.61-0.98-1.37-1.95-2.32-2.9l-0.57-0.57
				l-0.65-0.47c-2.88-2.06-6.19-3.06-10.12-3.06h-16.08c-4.57,0-8.26,1.38-10.98,4.09c-1.51,1.51-2.62,3.22-3.36,5.1
				c-0.8-1.54-1.81-2.95-3.06-4.2c-3.1-3.1-7.32-4.81-11.87-4.81H710c-4.08,0-7.96,1.51-11.23,4.37l-0.24,0.21l-0.22,0.22
				c-2.82,2.82-4.54,6.47-4.95,10.55l-0.05,0.48v0.48c0,11.49-2.3,23.71-6.84,36.31c-3.36,9.33-7.5,14.94-11.36,15.37l-1.41,0.16
				l-1.3,0.56c-1.91,0.82-3.63,1.82-5.16,2.99c-1.83-0.46-3.89-0.69-6.21-0.69h-7.29l10.25-23.34c1.7-3.47,2.52-6.82,2.52-10.22
				v-12.83c0-6.09-1.45-10.5-4.45-13.5c-3.78-3.78-8.91-4.26-12.96-4.26h-57.65c-3.57,0-8.77,0.44-12.6,4.27
				c-2.99,2.99-4.45,7.41-4.45,13.5v12.83c0,1.15,0.07,2.24,0.21,3.29c-1.14-0.1-2.09-0.1-2.68-0.1h-9.69l3.5-13.15
				c1.55-3.93,2.86-8.88,0.54-13.51c-3.48-6.95-11.7-6.95-14.4-6.95h-11.38c-4.61,0-8.42,1.27-11.34,3.77l-0.28,0.24l-0.26,0.26
				c-2.43,2.43-4.11,5.95-5.26,11.05l-4.77,18.3h-4.84c-2.56,0-4.83,0.34-6.82,0.97c-0.13-3.63-0.86-8.24-4.1-11.72
				c-1.6-1.81-3.81-3.47-7.46-5.98l-0.2-0.14L426.1,95.4c-3.79-2.33-7.06-3.42-10.29-3.42c-3.23,0-6.5,1.09-10.28,3.41l-69.06,42.42
				l-0.2,0.14c-3.66,2.51-5.87,4.17-7.47,5.98c-3.69,3.96-4.12,9.38-4.12,13.16v19.16c0,5.55,1.7,9.72,5.06,12.41l0.32,0.26
				l0.35,0.23c1.95,1.3,4.3,1.99,6.78,1.99c2.48,0,5.15-0.66,8.39-2.08l0.56-0.25l2.48-1.48c-0.19,1.38-0.28,2.86-0.28,4.47v9.76
				c0,4.6,1.06,8.33,3.24,11.38l0.28,0.38c-2.05,2.8-3.16,6.05-3.16,9.38v1.96c-5.27,0.24-9.13,1.79-11.75,4.72
				c-0.44,0.47-0.84,0.97-1.19,1.48v-26.42c0-6.37-1.8-11.4-5.35-14.95c-3.43-3.43-8.46-5.17-14.95-5.17h-9.53
				c4.66-7.26,9.05-15.64,12.34-24.99c9.71-27.59,9.52-56.32,3.72-68.16c-1.85-3.78-4.46-6.25-7.75-7.35
				c-1.19-0.4-2.47-0.6-3.78-0.6c-11.85,0-36.17,21.01-48.85,55.24c-1.74,4.7-3.22,9.31-4.49,13.71c-2.15-5.96-4.35-11.04-6.19-15.3
				l-0.06-0.14c-0.82-1.89-3.23-6.44-7.83-7.76c-0.59-0.17-1.19-0.29-1.8-0.39c-2.63-0.62-5.34-0.68-8-0.72l-1.26-0.02
				c-1.6-0.03-3.32-0.05-5.07-0.05c-2.33,0-4.49,0.04-6.4,0.1c-0.3,0.01-0.6,0.02-0.88,0.02c-0.74,0-1.43-0.03-2.1-0.05
				c-0.87-0.03-1.71-0.06-2.58-0.06c-2.17,0-4.13,0.18-6.18,0.58c-7.5,1.45-13.97,7.35-18.71,17.07
				c-4.79,9.84-7.89,24.45-3.37,33.28c1.77,3.46,4.51,5.97,7.87,7.33c-2.01,0.84-3.76,1.97-5.21,3.42
				c-3.26,3.26-5.05,7.8-5.31,13.41c-0.01,0.27-0.02,0.54-0.03,0.89c-0.01,0.19-0.01,0.38-0.02,0.58l0,43.26
				c0,7.58,2.29,13.04,6.82,16.21l0.18,0.12l0.18,0.12c3.5,2.23,7.74,3.31,12.94,3.31h11.17l-0.36,0.93
				c-3.06,6.89-5.05,9.71-5.95,10.74c-0.21,0.24-1.46,0.87-4.67,0.87h-18.51l-0.44,0.04c-4.72,0.43-7.85,2.42-9.79,3.88l-0.55,0.41
				l-0.48,0.48c-3.03,3.03-4.63,6.95-4.63,11.34v15.18c0,4.57,1.56,8.44,4.63,11.52l0.48,0.48l0.55,0.41
				c1.95,1.46,5.08,3.45,9.79,3.88l0.43,0.04h25.19c15.64,0,26.85-2.68,34.25-8.19c3.58-2.59,6.79-5.93,9.6-10.01v1.16
				c0,5.74,1.61,10.09,4.78,12.91c2.87,2.66,7.07,3.95,12.81,3.95h59.82c4.37,0,8.16-0.98,11.25-2.91l0.26-0.16l0.25-0.18
				c3.87-2.77,5.84-7.35,5.84-13.62v-13.92c0-5.75-1.74-10.16-5.17-13.1l-0.24-0.21l-0.26-0.19c-0.86-0.64-1.78-1.19-2.77-1.66
				c-0.05-1.46-0.32-3.08-0.91-4.88l-0.13-0.39l-5.32-12.35c-0.81-1.76-1.54-3.11-2.13-4.12c0.24-0.39,0.48-0.79,0.69-1.21
				c0.62,2.11,1.57,3.99,2.89,5.6c2.06,2.66,6.07,5.64,13.7,5.64h131.56c7.36,0,11.3-2.99,13.35-5.65c2.45-3.02,3.7-6.91,3.7-11.58
				v-9.94c0-3.79-0.44-9.24-4.16-13.2c-2.64-2.94-6.58-4.53-11.75-4.73v-1.95c0-3.32-1.11-6.57-3.16-9.38l0.28-0.39
				c2.18-3.05,3.24-6.78,3.24-11.38v-9.76c0-1.61-0.09-3.09-0.28-4.47l2.48,1.49l0.56,0.25c3.24,1.42,5.91,2.08,8.39,2.08
				c1.14,0,2.24-0.16,3.29-0.44c0.61,1.82,1.49,3.46,2.67,4.9c1.55,2.02,3.62,3.48,6.2,4.38l-7.29,27.73
				c-1.15,4.87-0.9,9.33,0.75,13.62l0.11,0.29l0.13,0.28c1.95,4.22,5.43,7.76,10.07,10.27c-2.48,0.8-5.21,2.11-7.32,4.45
				c-2.73,2.88-4.18,6.63-4.18,10.87v14.82c0,4.39,1.66,8.37,4.81,11.52l0.26,0.26l0.28,0.24c2.85,2.44,6.4,3.92,10.28,4.27
				l0.76,0.07l0.76-0.05c6.96-0.48,14.4-3.41,22.14-8.71c5.06-3.47,10.22-8,15.66-13.77l13.38,7.71c2.83,1.59,6.22,3.22,9.84,3.22
				c1.73,0,3.37-0.36,4.88-1.06c1.89-0.85,3.42-2.1,4.59-3.73v1.11c0,6.34,2.77,9.98,5.09,11.92c3.72,3.1,8.34,3.5,11.96,3.5h25.12
				c3.92,0,8.83-0.44,12.43-3.75c2.26-1.99,4.8-5.59,4.8-11.67v-50.54h15.12c0.81,0,2.17-0.01,3.78-0.22
				c2.62,2.22,6.03,3.34,10.17,3.34c0.44,0,0.9-0.01,1.38-0.04c0.18,0,0.55,0,0.55,0c1.58,0,3.13-0.12,4.64-0.35v39.13
				c0,2.01,0,8.14,4.45,12.59l0.31,0.31l0.34,0.28c2.89,2.41,6.65,3.68,10.87,3.68h17.42l0.44-0.04c4.03-0.37,7.39-1.65,9.99-3.82
				l0.34-0.28l0.31-0.31c1.36-1.37,2.39-3.01,3.09-4.94c1.13,2.41,2.72,4.38,4.8,5.84l0.17,0.12l0.18,0.11
				c3.5,2.23,7.74,3.31,12.94,3.31h71.2c4.03,0,9.87-0.44,14.3-4.22c2.8-2.28,6-6.74,6-15.17V212.4c0-4.63-0.99-8.52-2.93-11.67
				C836.35,200.23,836.89,199.67,837.38,199.04z M599.53,251.85c-3.18,0.49-5.79,1.61-7.92,3.39c-0.86,0.72-1.62,1.54-2.26,2.46
				c-0.03-4.41-0.56-9.84-3.94-13.8c-1.81-2.11-4.52-4.22-8.8-6.83l-0.04-0.03c0.37-1.65,0.68-3.31,0.94-4.98
				c1.85,0.54,3.91,0.81,6.18,0.81h15.84V251.85z M606.76,174.04c-0.94,0.54-1.82,1.19-2.64,1.95c-2.38,2.11-3.81,5.1-4.35,9.06
				h-10.45c0.02-0.39,0.03-0.8,0.03-1.2v-11.2c0-1.21-0.04-2.59-0.23-4.03c0.76,0.08,1.54,0.12,2.34,0.12h17.63L606.76,174.04z"/>
		</g>
		<g>
			<path class="st1" d="M174.15,252.52v-9.94c0-3.79-0.44-9.23-4.15-13.2c-2.64-2.94-6.58-4.53-11.75-4.73v-1.95
				c0-3.32-1.11-6.57-3.16-9.38l0.28-0.39c2.18-3.05,3.24-6.78,3.24-11.38v-9.76c0-1.61-0.09-3.09-0.28-4.47l2.48,1.48l0.56,0.25
				c3.24,1.42,5.91,2.08,8.39,2.08c2.49,0,4.84-0.69,6.79-1.99l0.34-0.23l0.32-0.26c3.36-2.69,5.07-6.86,5.07-12.41V157.1
				c0-3.78-0.44-9.2-4.12-13.16c-1.6-1.82-3.81-3.47-7.47-5.99l-0.2-0.14L101.43,95.4c-3.79-2.33-7.06-3.42-10.29-3.42
				c-3.23,0-6.5,1.09-10.28,3.41l-69.06,42.42l-0.2,0.14c-3.65,2.51-5.87,4.17-7.47,5.98C0.44,147.9,0,153.32,0,157.1v19.16
				c0,5.55,1.7,9.72,5.06,12.41l0.32,0.26l0.34,0.23c1.95,1.3,4.3,1.99,6.79,1.99c2.48,0,5.15-0.66,8.39-2.08l0.56-0.25l2.48-1.48
				c-0.19,1.38-0.28,2.86-0.28,4.47v9.76c0,4.61,1.06,8.33,3.24,11.38l0.28,0.39c-2.05,2.8-3.16,6.05-3.16,9.38v1.96
				c-5.27,0.24-9.13,1.79-11.75,4.72c-3.72,3.97-4.15,9.41-4.15,13.2v9.94c0,4.67,1.25,8.57,3.71,11.59
				c2.06,2.66,6.07,5.64,13.7,5.64H157.1c7.36,0,11.3-2.99,13.35-5.65C172.91,261.08,174.15,257.19,174.15,252.52z"/>
			<path class="st1" d="M837.38,180.97c2.46-3.02,3.7-6.97,3.7-11.76v-9.94c0-3.79-0.44-9.23-4.15-13.19
				c-0.44-0.49-0.92-0.95-1.43-1.36c1.2-2.48,1.78-5.37,1.78-8.76v-9.76c0-3.88-0.46-9.51-4.45-13.51
				c-1.52-1.52-3.27-2.52-4.99-3.18c-0.25-3.38-1.47-6.41-3.63-9l-0.56-0.67l-0.67-0.56c-1.91-1.6-5.26-3.5-10.33-3.5h-16.27
				c-3.92,0-7.23,1-10.12,3.06l-0.65,0.46l-0.57,0.56c-0.9,0.9-1.67,1.87-2.29,2.91c-0.61-0.98-1.37-1.95-2.32-2.9l-0.57-0.57
				l-0.65-0.47c-2.88-2.06-6.19-3.06-10.12-3.06h-16.08c-4.57,0-8.26,1.38-10.98,4.09c-1.51,1.51-2.62,3.22-3.36,5.1
				c-0.8-1.54-1.81-2.95-3.06-4.2c-3.1-3.1-7.32-4.81-11.87-4.81H710c-4.08,0-7.96,1.51-11.23,4.37l-0.24,0.21l-0.22,0.22
				c-2.82,2.82-4.54,6.47-4.95,10.55l-0.05,0.48v0.48c0,11.49-2.3,23.71-6.84,36.31c-3.36,9.33-7.5,14.94-11.36,15.37l-1.41,0.16
				l-1.3,0.56c-1.91,0.82-3.63,1.82-5.16,2.99c-1.83-0.46-3.89-0.69-6.21-0.69h-7.29l10.25-23.34c1.7-3.47,2.52-6.82,2.52-10.22
				V120.6c0-6.09-1.45-10.5-4.45-13.5c-3.78-3.78-8.91-4.26-12.96-4.26h-57.65c-3.57,0-8.77,0.44-12.6,4.27
				c-2.99,2.99-4.45,7.41-4.45,13.5v12.83c0,1.15,0.07,2.24,0.21,3.29c-1.14-0.1-2.09-0.1-2.68-0.1h-9.69l3.5-13.15
				c1.55-3.93,2.86-8.88,0.54-13.51c-3.48-6.95-11.7-6.95-14.4-6.95h-11.38c-4.61,0-8.42,1.27-11.34,3.77l-0.28,0.24l-0.26,0.26
				c-2.43,2.43-4.11,5.95-5.26,11.05l-4.77,18.3h-4.84c-2.56,0-4.83,0.34-6.82,0.97c-0.13-3.63-0.86-8.24-4.1-11.72
				c-1.6-1.81-3.81-3.47-7.46-5.98l-0.2-0.14L426.1,77.33c-3.79-2.33-7.06-3.42-10.29-3.42c-3.23,0-6.5,1.09-10.28,3.41
				l-69.06,42.42l-0.2,0.14c-3.66,2.51-5.87,4.17-7.47,5.98c-3.69,3.96-4.12,9.38-4.12,13.16v19.16c0,5.55,1.7,9.72,5.06,12.41
				l0.32,0.26l0.35,0.23c1.95,1.3,4.3,1.99,6.78,1.99c2.48,0,5.15-0.66,8.39-2.08l0.56-0.25l2.48-1.48
				c-0.19,1.38-0.28,2.86-0.28,4.47v9.76c0,4.6,1.06,8.33,3.24,11.38l0.28,0.38c-2.05,2.8-3.16,6.05-3.16,9.38v1.96
				c-5.27,0.24-9.13,1.79-11.75,4.72c-0.44,0.47-0.84,0.97-1.19,1.48v-26.42c0-6.37-1.8-11.4-5.35-14.95
				c-3.43-3.43-8.46-5.17-14.95-5.17h-9.53c4.66-7.26,9.05-15.64,12.34-24.99c9.71-27.59,9.52-56.32,3.72-68.16
				c-1.85-3.78-4.46-6.25-7.75-7.35c-1.19-0.4-2.47-0.6-3.78-0.6c-11.85,0-36.17,21.01-48.85,55.24c-1.74,4.7-3.22,9.31-4.49,13.71
				c-2.15-5.96-4.35-11.04-6.19-15.3l-0.06-0.14c-0.82-1.89-3.23-6.44-7.83-7.76c-0.59-0.17-1.19-0.29-1.8-0.39
				c-2.63-0.62-5.34-0.68-8-0.72l-1.26-0.02c-1.6-0.03-3.32-0.05-5.07-0.05c-2.33,0-4.49,0.04-6.4,0.1c-0.3,0.01-0.6,0.02-0.88,0.02
				c-0.74,0-1.43-0.03-2.1-0.05c-0.87-0.03-1.71-0.06-2.58-0.06c-2.17,0-4.13,0.18-6.18,0.58c-7.5,1.45-13.97,7.35-18.71,17.07
				c-4.79,9.84-7.89,24.45-3.37,33.28c1.77,3.46,4.51,5.97,7.87,7.33c-2.01,0.84-3.76,1.97-5.21,3.42
				c-3.26,3.26-5.05,7.8-5.31,13.41c-0.01,0.27-0.02,0.54-0.03,0.89c-0.01,0.19-0.01,0.38-0.02,0.58l0,43.26
				c0,7.58,2.29,13.04,6.82,16.21l0.18,0.12l0.18,0.12c3.5,2.23,7.74,3.31,12.94,3.31h11.17l-0.36,0.93
				c-3.06,6.89-5.05,9.71-5.95,10.74c-0.21,0.24-1.46,0.87-4.67,0.87h-18.51l-0.44,0.04c-4.72,0.43-7.85,2.42-9.79,3.88l-0.55,0.41
				l-0.48,0.48c-3.03,3.03-4.63,6.95-4.63,11.34v15.18c0,4.57,1.56,8.44,4.63,11.52l0.48,0.48l0.55,0.41
				c1.95,1.46,5.08,3.45,9.79,3.88l0.43,0.04h25.19c15.64,0,26.85-2.68,34.25-8.19c3.58-2.59,6.79-5.93,9.6-10.01v1.16
				c0,5.74,1.61,10.09,4.78,12.91c2.87,2.66,7.07,3.95,12.81,3.95h59.82c4.37,0,8.16-0.98,11.25-2.91l0.26-0.16l0.25-0.18
				c3.87-2.77,5.84-7.35,5.84-13.62v-13.92c0-5.75-1.74-10.16-5.17-13.1l-0.24-0.21l-0.26-0.19c-0.86-0.64-1.78-1.19-2.77-1.66
				c-0.05-1.46-0.32-3.08-0.91-4.88l-0.13-0.39l-5.32-12.35c-0.81-1.76-1.54-3.11-2.13-4.12c0.24-0.39,0.48-0.79,0.69-1.21
				c0.62,2.11,1.57,3.99,2.89,5.6c2.06,2.66,6.07,5.64,13.7,5.64h131.56c7.36,0,11.3-2.99,13.35-5.65c2.45-3.02,3.7-6.91,3.7-11.58
				v-9.94c0-3.79-0.44-9.24-4.16-13.2c-2.64-2.94-6.58-4.53-11.75-4.73v-1.95c0-3.32-1.11-6.57-3.16-9.38l0.28-0.39
				c2.18-3.05,3.24-6.78,3.24-11.38v-9.76c0-1.61-0.09-3.09-0.28-4.47l2.48,1.49l0.56,0.25c3.24,1.42,5.91,2.08,8.39,2.08
				c1.14,0,2.24-0.16,3.29-0.44c0.61,1.82,1.49,3.46,2.67,4.9c1.55,2.02,3.62,3.48,6.2,4.38l-7.29,27.73
				c-1.15,4.87-0.9,9.33,0.75,13.62l0.11,0.29l0.13,0.28c1.95,4.22,5.43,7.76,10.07,10.27c-2.48,0.8-5.21,2.11-7.32,4.45
				c-2.73,2.88-4.18,6.63-4.18,10.87v14.82c0,4.39,1.66,8.37,4.81,11.52l0.26,0.26l0.28,0.24c2.85,2.44,6.4,3.92,10.28,4.27
				l0.76,0.07l0.76-0.05c6.96-0.48,14.4-3.41,22.14-8.71c5.06-3.47,10.22-8,15.66-13.77l13.38,7.71c2.83,1.59,6.22,3.22,9.84,3.22
				c1.73,0,3.37-0.36,4.88-1.06c1.89-0.85,3.42-2.1,4.59-3.73v1.11c0,6.34,2.77,9.98,5.09,11.92c3.72,3.1,8.34,3.5,11.96,3.5h25.12
				c3.92,0,8.83-0.44,12.43-3.75c2.26-1.99,4.8-5.59,4.8-11.67v-50.54h15.12c0.81,0,2.17-0.01,3.78-0.22
				c2.62,2.22,6.03,3.34,10.17,3.34c0.44,0,0.9-0.01,1.38-0.04c0.18,0,0.55,0,0.55,0c1.58,0,3.13-0.12,4.64-0.35v39.13
				c0,2.01,0,8.14,4.45,12.59l0.31,0.31l0.34,0.28c2.89,2.41,6.65,3.68,10.87,3.68h17.42l0.44-0.04c4.03-0.37,7.39-1.65,9.99-3.82
				l0.34-0.28l0.31-0.31c1.36-1.37,2.39-3.01,3.09-4.94c1.13,2.41,2.72,4.38,4.8,5.84l0.17,0.12l0.18,0.11
				c3.5,2.23,7.74,3.31,12.94,3.31h71.2c4.03,0,9.87-0.44,14.3-4.22c2.8-2.28,6-6.74,6-15.17v-59.82c0-4.63-0.99-8.52-2.93-11.67
				C836.35,182.16,836.89,181.6,837.38,180.97z M599.53,233.78c-3.18,0.49-5.79,1.61-7.92,3.39c-0.86,0.72-1.62,1.54-2.26,2.46
				c-0.03-4.41-0.56-9.84-3.94-13.8c-1.81-2.11-4.52-4.22-8.8-6.83l-0.04-0.03c0.37-1.65,0.68-3.31,0.94-4.98
				c1.85,0.54,3.91,0.81,6.18,0.81h15.84V233.78z M606.76,155.97c-0.94,0.54-1.82,1.19-2.64,1.95c-2.38,2.11-3.81,5.1-4.35,9.06
				h-10.45c0.02-0.39,0.03-0.8,0.03-1.2v-11.2c0-1.21-0.04-2.59-0.23-4.03c0.76,0.08,1.54,0.12,2.34,0.12h17.63L606.76,155.97z"/>
		</g>
		<path class="st2" d="M11.08,181.14c-0.9-0.72-1.45-2.35-1.45-4.88V157.1c0-3.43,0.54-5.6,1.63-6.69c0.9-1.08,2.89-2.53,5.78-4.52
			l68.85-42.29c2.35-1.45,3.98-1.99,5.24-1.99c1.27,0,2.89,0.54,5.24,1.99l68.85,42.29c2.89,1.99,4.88,3.43,5.78,4.52
			c1.08,1.08,1.63,3.25,1.63,6.69v19.16c0,2.53-0.54,4.16-1.45,4.88c-1.08,0.72-3.07,0.36-5.96-0.9l-16.26-9.76
			c-0.18,1.99-0.72,3.43-1.63,4.52c-1.08,1.08-3.07,1.81-6.14,1.81h-33.97v6.69h33.97c3.07,0,5.24,0.54,6.33,1.45
			c0.9,1.08,1.45,3.43,1.45,6.87v9.76c0,2.71-0.54,4.52-1.45,5.78c-1.08,1.27-3.25,1.81-6.33,1.81h-33.97v25.12h9.58V222.7
			c0-1.63,0.72-3.25,2.17-4.7c1.45-1.45,3.25-2.17,5.42-2.17h16.45c2.35,0,4.34,0.72,5.6,2.17c1.45,1.45,2.17,3.07,2.17,4.7v11.57
			h8.49c2.89,0,4.88,0.54,5.78,1.63c1.08,1.08,1.63,3.25,1.63,6.69v9.94c0,2.53-0.54,4.34-1.63,5.6c-0.9,1.27-2.89,1.99-5.78,1.99
			H25.54c-3.07,0-5.24-0.72-6.14-1.99c-1.08-1.26-1.63-3.07-1.63-5.6v-9.94c0-3.43,0.54-5.6,1.63-6.69c0.9-1.08,3.07-1.63,6.14-1.63
			h8.13V222.7c0-1.63,0.72-3.25,2.17-4.7c1.26-1.45,3.25-2.17,5.6-2.17h16.45c2.17,0,3.98,0.72,5.42,2.17
			c1.45,1.45,2.17,3.07,2.17,4.7v11.57h9.76v-25.12H40.72c-2.89,0-4.88-0.54-5.96-1.81c-0.9-1.27-1.45-3.07-1.45-5.78v-9.76
			c0-3.43,0.54-5.78,1.45-6.87c1.08-0.9,3.07-1.45,5.96-1.45h34.52v-6.69H40.72c-2.89,0-4.7-0.72-5.78-1.81
			c-0.9-1.08-1.45-2.53-1.63-4.52l-16.26,9.76C14.16,181.5,12.17,181.86,11.08,181.14z M66.38,150.96h49.52l-24.76-14.64
			L66.38,150.96z"/>
		<path class="st2" d="M335.75,163.07c-0.9-0.72-1.45-2.35-1.45-4.88v-19.16c0-3.43,0.54-5.6,1.63-6.69
			c0.9-1.08,2.89-2.53,5.78-4.52l68.85-42.29c2.35-1.45,3.98-1.99,5.24-1.99c1.27,0,2.89,0.54,5.24,1.99l68.85,42.29
			c2.89,1.99,4.88,3.43,5.78,4.52c1.09,1.08,1.63,3.25,1.63,6.69v19.16c0,2.53-0.54,4.16-1.45,4.88c-1.09,0.72-3.07,0.36-5.96-0.9
			l-16.27-9.76c-0.18,1.99-0.72,3.43-1.63,4.52c-1.09,1.08-3.07,1.81-6.14,1.81h-33.98v6.69h33.98c3.07,0,5.24,0.54,6.32,1.45
			c0.9,1.08,1.45,3.43,1.45,6.87v9.76c0,2.71-0.54,4.52-1.45,5.78c-1.08,1.27-3.25,1.81-6.32,1.81h-33.98v25.12h9.58v-11.57
			c0-1.63,0.72-3.25,2.17-4.7c1.45-1.45,3.25-2.17,5.42-2.17h16.45c2.35,0,4.34,0.72,5.6,2.17c1.44,1.45,2.17,3.07,2.17,4.7v11.57
			h8.5c2.89,0,4.88,0.54,5.78,1.63c1.09,1.08,1.63,3.25,1.63,6.69v9.94c0,2.53-0.54,4.34-1.63,5.6c-0.9,1.27-2.89,1.99-5.78,1.99
			H350.21c-3.07,0-5.24-0.72-6.14-1.99c-1.08-1.26-1.63-3.07-1.63-5.6v-9.94c0-3.43,0.54-5.6,1.63-6.69
			c0.9-1.08,3.07-1.63,6.14-1.63h8.13v-11.57c0-1.63,0.72-3.25,2.17-4.7c1.26-1.45,3.25-2.17,5.6-2.17h16.45
			c2.17,0,3.98,0.72,5.42,2.17c1.45,1.45,2.17,3.07,2.17,4.7v11.57h9.76v-25.12h-34.52c-2.89,0-4.88-0.54-5.96-1.81
			c-0.9-1.27-1.45-3.07-1.45-5.78v-9.76c0-3.43,0.54-5.78,1.45-6.87c1.08-0.9,3.07-1.45,5.96-1.45h34.52v-6.69h-34.52
			c-2.89,0-4.7-0.72-5.78-1.81c-0.9-1.08-1.45-2.53-1.63-4.52l-16.26,9.76C338.82,163.43,336.84,163.79,335.75,163.07z
			 M391.05,132.89h49.52l-24.76-14.64L391.05,132.89z"/>
		<path class="st2" d="M518.81,173.37h-5.06c-2.89,0-4.88-0.54-5.78-1.81c-1.08-1.27-1.63-3.07-1.63-5.78v-11.2
			c0-3.43,0.54-5.6,1.63-6.69c0.9-1.08,2.89-1.63,5.78-1.63h12.29l6.69-25.66c0.72-3.25,1.63-5.42,2.71-6.51
			c1.27-1.08,3.07-1.45,5.06-1.45h11.38c3.43,0,5.24,0.54,5.78,1.63c0.54,1.08,0.18,3.07-1.08,6.14l-6.87,25.84h22.23
			c3.07,0,5.06,0.54,6.14,1.63c1.08,1.08,1.63,3.25,1.63,6.69v11.2c0,2.71-0.54,4.52-1.63,5.78c-1.08,1.26-3.07,1.81-6.14,1.81
			h-3.25v29.82c0,7.23-1.27,14.1-3.43,20.42l6.33,3.61c3.25,1.99,5.42,3.61,6.5,4.88c1.08,1.26,1.63,3.79,1.63,7.95v13.37
			c0,3.43-0.54,5.24-1.81,5.78c-1.09,0.54-3.07-0.18-5.96-1.81l-20.06-11.57c-6.51,7.59-12.83,13.73-19.16,18.07
			c-6.32,4.34-12.11,6.69-17.35,7.05c-1.99-0.18-3.61-0.9-4.88-1.99c-1.27-1.26-1.99-2.71-1.99-4.7v-14.82
			c0-1.81,0.54-3.25,1.63-4.34c0.91-1.08,2.71-1.81,5.24-2.35c5.6-1.08,10.84-4.16,15.9-8.86l-15.72-7.95
			c-3.25-1.63-5.42-3.79-6.51-6.14c-0.9-2.35-1.09-4.88-0.36-7.95L518.81,173.37z M546.46,173.37h-3.8l-8.31,31.99l10.66,6.33
			c1.08-3.07,1.45-7.41,1.45-12.65V173.37z M603.56,271.13c-2.89,0-4.7-0.36-5.78-1.26c-1.08-0.9-1.63-2.35-1.63-4.52v-15.18
			c0-2.71,0.54-4.7,1.63-5.6c1.08-0.9,2.89-1.45,5.78-1.45h2.17c2.35,0,3.43-1.26,3.43-3.79v-34.15h-25.48
			c-2.71,0-4.7-0.54-5.78-1.81c-1.09-1.26-1.63-3.07-1.63-5.78v-12.65c0-3.43,0.54-5.6,1.63-6.69c1.08-1.08,3.07-1.63,5.78-1.63
			h25.48v-5.78c0-3.07,0.54-5.06,1.45-5.78c0.9-0.9,1.99-1.26,3.25-1.26l9.94-22.77h-32.35c-2.71,0-4.7-0.72-5.78-1.81
			c-1.09-1.27-1.63-3.25-1.63-5.78V120.6c0-3.25,0.54-5.6,1.63-6.69s3.07-1.45,5.78-1.45h57.65c3.07,0,5.06,0.36,6.14,1.45
			c1.08,1.08,1.63,3.43,1.63,6.69v12.83c0,1.99-0.54,3.98-1.63,6.14l-16.27,37.05h22.05c3.07,0,5.24,0.54,6.14,1.63
			c1.08,1.08,1.63,3.25,1.63,6.69v12.65c0,2.71-0.54,4.52-1.63,5.78c-0.9,1.27-3.07,1.81-6.14,1.81h-24.76v60.18
			c0,2.17-0.54,3.61-1.63,4.52c-0.9,0.9-3.07,1.26-5.96,1.26H603.56z"/>
		<path class="st3" d="M720.66,168.85v87.83c0,2.89-0.54,4.7-1.45,5.6c-1.09,0.9-2.71,1.45-4.7,1.63h-16.99
			c-1.99,0-3.61-0.54-4.7-1.45c-1.08-1.08-1.63-2.89-1.63-5.78v-54.22c-4.34,3.98-9.22,5.96-15,5.78c-2.71,0.18-4.52-0.18-5.6-1.45
			c-1.26-1.08-1.81-3.43-1.81-7.05v-14.46c0-3.07,0.54-5.6,1.81-7.41c1.27-1.81,3.07-3.25,5.6-4.34c7.95-0.9,14.46-8.13,19.34-21.69
			c4.88-13.55,7.41-26.75,7.41-39.58c0.18-1.81,0.9-3.43,2.17-4.7c1.45-1.26,3.07-1.99,4.88-1.99h13.73c1.99,0,3.79,0.72,5.06,1.99
			c1.27,1.27,1.99,2.89,2.17,4.7v10.48C729.51,141.74,726.26,157.1,720.66,168.85z"/>
		<path class="st3" d="M747.22,263.9c-3.25,0-5.78-0.54-7.77-1.81c-1.81-1.27-2.71-4.16-2.71-8.31v-59.28c0-3.79,0.9-6.51,2.71-8.13
			c1.81-1.63,4.34-2.53,7.59-2.53h71.2c3.8,0,6.51,0.9,8.13,2.35c1.81,1.63,2.71,4.34,2.71,8.13v59.82c0,3.8-0.9,6.51-2.53,7.77
			c-1.63,1.45-4.34,1.99-8.13,1.99H747.22z"/>
		<rect x="769.27" y="205.35" class="st3" width="26.93" height="7.77"/>
		<rect x="769.27" y="234.63" class="st3" width="26.93" height="7.77"/>
		<path class="st3" d="M829.81,152.58c-0.9-1.08-3.07-1.63-6.14-1.63h-5.42v-7.41h1.63c3.07,0,5.06-0.54,6.14-1.81
			c1.08-1.27,1.63-3.07,1.63-5.78v-9.76c0-3.43-0.54-5.6-1.63-6.69c-1.09-1.08-3.07-1.63-6.14-1.63h-1.63v-7.05
			c0-1.81-0.54-3.07-1.45-4.16c-1.08-0.9-2.53-1.26-4.16-1.26h-16.27c-1.81,0-3.25,0.36-4.52,1.26c-1.09,1.08-1.63,2.35-1.63,4.16
			v7.05h-14.82v-7.05c0-1.81-0.72-3.07-1.81-4.16c-1.27-0.9-2.71-1.26-4.52-1.26h-16.08c-1.81,0-3.25,0.36-4.16,1.26
			c-1.08,1.08-1.63,2.35-1.63,4.16v7.05h-1.81c-2.89,0-4.88,0.54-5.96,1.63c-0.9,1.08-1.45,3.25-1.45,6.69v9.76
			c0,2.71,0.54,4.52,1.45,5.78c1.09,1.27,3.07,1.81,5.96,1.81h1.81v7.41h-5.78c-2.71,0-4.7,0.54-5.78,1.63
			c-1.08,1.08-1.63,3.25-1.63,6.69v9.94c0,2.53,0.54,4.52,1.63,5.78c1.09,1.27,3.07,1.81,5.78,1.81h82.22
			c3.07,0,5.24-0.54,6.14-1.81c1.09-1.26,1.63-3.25,1.63-5.78v-9.94C831.44,155.84,830.9,153.67,829.81,152.58z M790.23,150.96
			h-14.82v-7.41h14.82V150.96z"/>
		<g>
			<path class="st3" d="M299.2,245.65c0.9-1.08,2.53-1.63,4.88-1.45h15.36c2.17-0.18,3.62,0.18,4.34,0.9
				c0.54,0.9,1.45,2.35,2.53,4.7l5.06,11.75c0.72,2.17,0.54,3.61-0.36,4.34c-1.08,0.54-2.71,0.9-4.88,0.9h-15.36
				c-1.99,0-3.43-0.36-4.34-1.08c-0.72-0.9-1.63-2.35-2.71-4.52l-4.88-11.75C298.11,248,298.29,246.74,299.2,245.65z"/>
			<path class="st3" d="M338.41,272.76c-1.45-1.08-3.43-1.63-6.14-1.63h-38.31v-31.44h21.69c3.61,0,6.33-0.54,8.13-1.99
				c1.63-1.27,2.35-3.98,2.35-7.77v-43.55c0-3.79-0.9-6.51-2.53-8.13c-1.63-1.63-4.52-2.35-8.13-2.35h-87.83h-7.95h-15.36
				c-3.61,0-6.51,0.72-8.13,2.35c-1.47,1.47-2.35,3.85-2.5,7.11c-0.01,0.19-0.01,0.4-0.02,0.6c0,0.14-0.01,0.27-0.01,0.42v0.14
				c0,0.01,0,0.03,0,0.04v43.01c0,4.16,0.9,7.05,2.71,8.31c1.99,1.26,4.52,1.81,7.77,1.81h25.3l-5.6,14.28
				c-2.71,6.14-5.24,10.66-7.59,13.37c-2.53,2.89-6.51,4.16-11.93,4.16h-18.07c-1.99,0.18-3.43,0.9-4.88,1.99
				c-1.27,1.26-1.81,2.71-1.81,4.52v15.18c0,1.99,0.54,3.43,1.81,4.7c1.45,1.08,2.89,1.81,4.88,1.99h24.76
				c13.19,0,22.77-1.99,28.55-6.32c5.78-4.16,10.48-11.2,13.92-21.14l10.66-32.71h0.36v52.77c0,2.89,0.54,4.88,1.63,5.78
				c0.9,0.9,3.07,1.45,6.32,1.45h59.82c2.71,0,4.7-0.54,6.14-1.45c1.26-0.9,1.81-2.89,1.81-5.78v-13.92
				C340.22,275.83,339.68,273.84,338.41,272.76z M240.82,213.48h-13.19V202.1h17.35L240.82,213.48z M291.97,213.48h-18.97
				l3.97-11.38h15V213.48z"/>
			<g>
				<path class="st3" d="M217.88,151.43c-8.99,6.58-19.07,11.7-22.58,4.85c-4.22-8.24,3.58-34.23,15.33-36.5
					c4.02-0.78,6.41-0.17,10.25-0.31c3.51-0.13,7.5-0.12,10.93-0.05c3.46,0.07,6.77-0.02,8.68,1c0.9,0.48,1.84,2.77,1.84,2.77
					c-1.87-3.7-3.49-2.73-7.3,5.36C230.94,137.22,223.57,146.98,217.88,151.43z"/>
				<path class="st3" d="M249.75,142.33c-2.55-7.92-5.44-14.57-7.72-19.82c-0.17-0.39-1.27-2.22-1.66-2.33
					c-4.63-1.33-11.07,3.91-13.17,5.73c4.03,1.65,11.56,5.35,9.12,11.01c-3.43,7.98-9.38,14.72-15.34,19.01
					c-0.72,0.53-1.49,1.02-2.26,1.49c0.18,0.42,0.32,0.72,0.37,0.84c7.73,18.83,15.83,25.9,21.09,28.52l0.02,0
					c1.14-1.8,14.4-10.17,15.17-10.11C255.36,176.66,257.43,166.18,249.75,142.33z"/>
			</g>
			<path class="st3" d="M311.2,74.91c-4.85-1.62-28.16,15.42-40.55,48.84c-10.59,28.57-11.39,53.76-11.39,53.76
				c1.09,0.24,2.17,0.55,3.22,0.94c0.68,0.26,1.91,0.88,1.88,0.86l5.43,4.38c1.42,1.59,3.03,3.76,3.05,6.02
				c2.3-1.86,25.66-21.29,36.34-51.64C320.42,106.13,316.36,76.63,311.2,74.91z"/>
		</g>
		<g>
			<circle class="st4" cx="782.83" cy="223.88" r="27.51"/>
			<path class="st1" d="M782.82,255c-17.16,0-31.12-13.96-31.12-31.12c0-17.16,13.96-31.12,31.12-31.12
				c17.16,0,31.12,13.96,31.12,31.12C813.95,241.04,799.99,255,782.82,255z M782.82,199.98c-13.18,0-23.9,10.72-23.9,23.9
				c0,13.18,10.72,23.9,23.9,23.9c13.18,0,23.9-10.72,23.9-23.9C806.72,210.7,796,199.98,782.82,199.98z"/>
		</g>
		<g>
			<path class="st5" d="M784.44,232c0.24-1.12,0.15-2.06-0.27-2.82c-0.42-0.76-1.26-1.57-2.53-2.43c-1.27-0.86-2.44-1.71-3.49-2.54
				c-1.06-0.83-1.93-1.72-2.62-2.67c-0.69-0.95-1.16-1.98-1.39-3.08c-0.24-1.1-0.21-2.37,0.1-3.81c0.51-2.4,1.74-4.21,3.69-5.42
				c1.95-1.21,4.3-1.66,7.05-1.34l0.96-4.49l3.39,0.72l-0.97,4.58c2.52,0.94,4.33,2.44,5.45,4.51c1.11,2.07,1.38,4.45,0.81,7.15
				l-7.2-1.53c0.31-1.48,0.27-2.67-0.13-3.59c-0.4-0.92-1.12-1.49-2.18-1.71c-0.94-0.2-1.73-0.06-2.37,0.42
				c-0.64,0.48-1.08,1.24-1.3,2.27c-0.22,1.05-0.1,1.95,0.36,2.69c0.46,0.74,1.3,1.54,2.5,2.38c1.2,0.84,2.33,1.69,3.37,2.54
				c1.04,0.85,1.91,1.75,2.6,2.7c0.69,0.95,1.17,1.98,1.43,3.11c0.26,1.12,0.24,2.4-0.06,3.84c-0.52,2.43-1.71,4.25-3.58,5.45
				c-1.87,1.21-4.16,1.66-6.87,1.35l-0.91,4.28l-3.39-0.72l0.92-4.3c-3.03-0.99-5.18-2.55-6.45-4.7c-1.27-2.15-1.6-4.69-0.97-7.63
				l7.18,1.53c-0.34,1.62-0.25,2.93,0.29,3.92c0.54,1,1.47,1.64,2.79,1.92c0.97,0.21,1.79,0.08,2.46-0.38
				C783.78,233.74,784.22,233.01,784.44,232z"/>
		</g>
	</g>
	<g>
		<path class="st6" d="M875.66,395c-155.49-76.32-323.99,44.68-479.48-31.64c16.27-3.33,32.67-8.63,49.18-15.52
			c-15.06-15.04-30.02-31.66-44.84-50.26c155.49,76.32,323.99-44.68,479.48,31.64c-16.27,3.33-32.67,8.63-49.18,15.52
			C845.88,359.79,860.83,376.41,875.66,395z"/>
		<g>
			<g>
				<g>
					<path class="st6" d="M478.03,350.71l5.57,0.67l-0.3,2.47l-5.57-0.67l-0.11,0.89c1.26,1.38,3.98,4.7,4.69,5.58l-1.8,2.08
						c-0.68-1.1-2.05-3.07-3.25-4.67l-1.38,11.49l-2.67-0.32l1.37-11.37c-1.77,2.82-3.86,5.45-5.86,7.04
						c-0.16-0.81-0.75-2.01-1.09-2.78c2.43-1.78,5.2-5.17,6.92-8.31l-5.23-0.63l0.3-2.47l5.74,0.69l0.51-4.25
						c-1.79,0.13-3.57,0.18-5.24,0.18c-0.07-0.62-0.34-1.55-0.58-2.17c4.24-0.13,9.18-0.55,12.03-1.43l1.68,2.27
						c-1.48,0.4-3.26,0.71-5.15,0.89L478.03,350.71z M486.93,362.65l-2.64-0.32l1.9-15.79l2.64,0.32L486.93,362.65z M495.26,344.55
						l-2.71,22.48c-0.2,1.69-0.7,2.42-1.76,2.73c-1.09,0.31-2.82,0.18-5.4-0.13c-0.02-0.76-0.3-2.08-0.61-2.87
						c1.91,0.32,3.72,0.54,4.3,0.61c0.52,0.03,0.77-0.11,0.84-0.66l2.71-22.48L495.26,344.55z"/>
					<path class="st6" d="M489.1,377.16c-1.45,0-2.97-0.16-4.57-0.36l-2.32-0.28l-0.01,0.06l-15.45-1.86l-2.74,2.18l-2.32-11.37
						c-0.1-0.27-0.34-0.79-0.47-1.08l-2.56-5.72l2.86-2.09l1.33-11.09l-3.19-8.22l10.19-0.39c4.45-0.14,7.59-0.53,9.28-0.9
						l6.51-10.38l-1.05,8.73l0.27-0.09l1.45,1.97l0.01-0.08l16.99,2.04l-3.57,29.66c-0.73,6.12-4.64,8.14-6.9,8.8
						C491.62,377.04,490.39,377.16,489.1,377.16z"/>
				</g>
				<g>
					<path class="st6" d="M505.84,357.81c-2.17,1.1-4.49,2.25-6.39,3.09l-1.3-2.21c1.84-0.64,4.59-1.75,7.23-2.89L505.84,357.81z
						 M523.84,365.96l-11.53-0.33l-0.16,5.72l-2.83-0.08l0.16-5.72l-11.53-0.33l0.07-2.49l11.53,0.33l0.06-2.17l2.83,0.08
						l-0.06,2.17l11.53,0.33L523.84,365.96z M515.52,361.53c-0.16-0.44-0.38-0.94-0.65-1.49c-7.27,0.49-8.29,0.6-8.96,0.9
						c-0.07-0.47-0.42-1.63-0.66-2.28c0.7-0.07,1.43-0.6,2.41-1.38c0.53-0.36,1.63-1.29,2.88-2.46c-2.81,0.12-3.45,0.25-3.89,0.41
						c-0.13-0.5-0.48-1.61-0.69-2.19c0.41-0.08,0.85-0.44,1.33-0.95c0.36-0.31,1.17-1.3,1.95-2.46l-10.2-0.29l0.07-2.46l11.3,0.32
						c-0.33-0.7-0.74-1.41-1.1-2.03l2.71-0.56c0.56,0.83,1.19,1.89,1.57,2.68l10.46,0.3l-0.07,2.46l-12-0.34
						c-0.78,1.05-1.62,2.12-2.49,3l3.21-0.05c0.69-0.73,1.34-1.52,1.97-2.29l2.05,1.27c-2.18,2.46-4.68,4.76-7.13,6.62l4.14-0.2
						c-0.36-0.62-0.75-1.18-1.14-1.71l1.99-0.7c1.23,1.57,2.56,3.63,3.07,5.09L515.52,361.53z M503.4,355.2
						c-0.87-1.01-2.71-2.45-4.21-3.45l1.86-1.42c1.48,0.94,3.38,2.32,4.3,3.3L503.4,355.2z M521.59,361.76
						c-1.18-1.16-3.59-2.94-5.52-4.15l1.92-1.42c1.88,1.12,4.35,2.84,5.61,4.01L521.59,361.76z M522.78,352.19
						c-1.31,1.29-2.99,2.58-4.29,3.46l-1.93-1.33c1.27-0.92,3.02-2.4,4.01-3.53L522.78,352.19z"/>
					<polygon class="st6" points="519.16,378.78 501.88,378.3 502.04,372.57 490.51,372.24 490.67,366.42 486.69,366.61 
						490.76,363.52 490.84,360.51 487.46,354.77 489.56,354.04 486.74,352.16 491.82,348.28 492.07,339.46 500.41,339.69 
						515.29,336.56 517.73,340.18 531.47,340.57 531.23,348.96 534.35,350.92 531.08,354.15 531.02,356.44 531.34,356.45 
						531.31,357.46 534.79,360.65 531.14,363.49 530.86,373.39 519.32,373.06 					"/>
				</g>
				<g>
					<path class="st6" d="M538.6,363.53c-2.08,2.92-5.33,6.01-8.35,8.05c-0.57-0.56-1.62-1.35-2.27-1.79
						c2.96-1.83,6.2-4.8,7.72-7.24L538.6,363.53z M549.95,346.27l0.55,13.26l-19.88,0.83l-0.55-13.26L549.95,346.27z M533.26,357.7
						l14.24-0.6l-0.34-8.18l-14.24,0.6L533.26,357.7z M545.37,362.06c2.83,1.97,6.48,4.85,8.33,6.83l-2.45,1.69
						c-1.67-1.93-5.27-4.96-8.17-7.04L545.37,362.06z"/>
					<path class="st6" d="M529.44,380.85l-4.22-4.08c-0.2-0.19-0.85-0.69-1.25-0.96l-9.38-6.25l8.95-5.53l-1-23.86l34.32-1.43
						l1.01,24.09c0.4,0.38,0.77,0.75,1.11,1.11l5.72,6.12l-14.67,10.14l-4.24-4.89c-0.72-0.83-2.38-2.36-4.33-3.92
						c-2.14,2.3-4.65,4.46-7.17,6.17L529.44,380.85z"/>
				</g>
				<g>
					<path class="st6" d="M563.23,346.56l-7.66,0.7l-0.21-2.33l24.68-2.25l0.21,2.33l-7.92,0.72l0.19,2.1l6.85-0.63l0.7,7.63
						l-22.23,2.03l-0.7-7.63l6.28-0.57L563.23,346.56z M576.38,360.49c-0.7,1.52-1.69,2.8-2.87,3.89c3.39,0.5,6.45,1.04,8.77,1.61
						l-2.25,2.09c-2.32-0.63-5.46-1.27-9.08-1.81c-3.12,1.82-7.31,2.99-12.74,3.92c-0.27-0.76-0.79-1.7-1.28-2.23
						c3.9-0.56,7.08-1.29,9.67-2.25c-2.08-0.25-4.19-0.43-6.36-0.61c0.67-0.96,1.41-2.1,2.11-3.33l-5.85,0.53l-0.21-2.25l7.34-0.67
						c0.52-1.01,0.97-2.06,1.3-2.99l2.76,0.33c-0.31,0.78-0.67,1.6-1.06,2.39l7.75-0.71c0.18-0.54,0.36-1.11,0.51-1.7l2.66,0.48
						c-0.09,0.3-0.18,0.63-0.26,0.95l4.67-0.43l0.21,2.25L576.38,360.49z M560.15,354.51l3.77-0.34l-0.31-3.37l-3.77,0.34
						L560.15,354.51z M565.38,361.5c-0.34,0.67-0.73,1.29-1.11,1.87c1.96,0.17,3.89,0.34,5.8,0.57c1.28-0.87,2.32-1.93,3.11-3.16
						L565.38,361.5z M569.8,345.96l-4.03,0.37l0.19,2.1l4.03-0.37L569.8,345.96z M566.46,353.94l4.03-0.37l-0.31-3.37l-4.03,0.37
						L566.46,353.94z M572.72,349.96l0.31,3.37l4.21-0.38l-0.31-3.37L572.72,349.96z"/>
					<path class="st6" d="M553.47,378.34l-2.05-5.7c0,0-0.01-0.02-0.02-0.04l-0.96-1.07l-3.26-0.27l1.31-1.89l-5.99-6.64l6.7-0.96
						l-0.75-8.25l0.43-0.04l-1.38-15.09l39.08-3.57l1.38,15.09l0.55-0.05l0.96,10.46l6.37,1.58l1.33,0.16l-0.28,0.1l0.1,0.02
						l-14.97,13.93l-3.88-1.05c-1.63-0.44-3.71-0.88-6-1.28c-3.28,1.5-7.33,2.61-12.71,3.54L553.47,378.34z M551.54,372.77
						c0.01,0.01,0.02,0.02,0.03,0.03L551.54,372.77z"/>
				</g>
				<g>
					<path class="st6" d="M631.38,359.43l-35.55,4.7l-1.02-7.7l14.1-19.38c3.43-5.13,4.96-9.05,4.61-11.75
						c-0.29-2.19-0.99-3.8-2.1-4.81c-1.11-1.02-2.57-1.41-4.39-1.16c-1.8,0.24-3.15,1.19-4.07,2.87c-0.92,1.68-1.23,3.66-0.92,5.94
						l-11.83,1.56c-0.41-3.13-0.01-6.12,1.2-8.97c1.21-2.85,3.11-5.21,5.69-7.07c2.58-1.86,5.58-3.02,9.01-3.47
						c5.5-0.73,9.91-0.02,13.22,2.13c3.31,2.15,5.28,5.6,5.91,10.36c0.26,2.01,0.15,4.01-0.35,6.01c-0.5,2-1.39,4.15-2.69,6.44
						c-1.3,2.3-3.47,5.42-6.5,9.39l-5.58,8.46l20.05-2.65L631.38,359.43z"/>
					<path class="st6" d="M589.61,372.24l-2.34-17.73l13.8-18.96l-17.07,2.26l-0.94-7.17c-0.58-4.41,0-8.7,1.72-12.74
						c1.73-4.07,4.46-7.47,8.11-10.1c3.55-2.56,7.68-4.16,12.29-4.77c7.24-0.96,13.33,0.13,18.11,3.24c3.54,2.3,8,6.85,9.14,15.48
						c0.38,2.9,0.22,5.83-0.5,8.7c-0.65,2.63-1.8,5.41-3.42,8.26c-0.81,1.43-1.87,3.08-3.2,4.99l11.1-1.47l3.09,23.43L589.61,372.24
						z"/>
				</g>
				<g>
					<path class="st6" d="M643.49,346.06c1.86-0.26,3.49,0.09,4.88,1.02c1.39,0.94,2.2,2.27,2.44,3.99c0.24,1.73-0.19,3.23-1.27,4.5
						c-1.08,1.28-2.56,2.04-4.42,2.3c-1.89,0.26-3.52-0.09-4.9-1.04c-1.38-0.95-2.18-2.28-2.42-3.98c-0.23-1.7,0.18-3.2,1.26-4.48
						C640.12,347.09,641.6,346.31,643.49,346.06z"/>
					<path class="st6" d="M643.95,365.18c-2.87,0-5.54-0.81-7.84-2.4c-3.07-2.12-4.96-5.21-5.47-8.95
						c-0.51-3.74,0.48-7.22,2.86-10.09c2.22-2.67,5.34-4.35,9.01-4.86l0,0c3.62-0.5,7.05,0.26,9.91,2.19c3.11,2.1,5.03,5.22,5.55,9
						c0.52,3.78-0.49,7.3-2.92,10.16c-2.24,2.63-5.33,4.28-8.95,4.78C645.37,365.13,644.66,365.18,643.95,365.18z M644.26,353.26
						L644.26,353.26L644.26,353.26z M644.68,353.2L644.68,353.2L644.68,353.2z M644.14,350.79c-0.04,0.03-0.08,0.07-0.11,0.1
						c-0.29,0.34-0.42,0.91-0.38,1.16c0.04,0.25,0.31,0.76,0.68,1.01c0.04,0.03,0.09,0.05,0.14,0.07c0.05-0.04,0.11-0.09,0.15-0.15
						c0.24-0.29,0.38-0.83,0.35-1.12c-0.04-0.28-0.33-0.77-0.64-0.99C644.26,350.85,644.2,350.82,644.14,350.79z M644.33,350.67
						L644.33,350.67L644.33,350.67z"/>
				</g>
				<g>
					<path class="st6" d="M692.3,330.28c0.84,6.89-0.06,12.39-2.7,16.51c-2.64,4.12-6.77,6.51-12.4,7.2
						c-5.68,0.69-10.3-0.65-13.86-4.04c-3.57-3.38-5.76-8.5-6.6-15.34l-1.13-9.32c-0.84-6.89,0.06-12.39,2.7-16.51
						c2.64-4.11,6.79-6.51,12.44-7.2c5.65-0.69,10.26,0.66,13.83,4.04c3.56,3.38,5.76,8.51,6.6,15.37L692.3,330.28z M679.17,320.89
						c-0.45-3.67-1.26-6.35-2.44-8.04c-1.18-1.69-2.81-2.41-4.88-2.16c-2.03,0.25-3.41,1.27-4.13,3.06c-0.72,1.79-0.9,4.4-0.56,7.82
						l1.59,13.03c0.46,3.81,1.28,6.53,2.45,8.18c1.17,1.65,2.8,2.34,4.88,2.09c2.01-0.24,3.39-1.28,4.14-3.12
						c0.75-1.83,0.91-4.59,0.49-8.26L679.17,320.89z"/>
					<path class="st6" d="M674.45,361.39c-6.28,0-11.79-2.11-16.1-6.2c-4.8-4.55-7.76-11.18-8.8-19.71l-1.13-9.32
						c-1.04-8.57,0.23-15.73,3.79-21.28c3.79-5.91,9.9-9.53,17.65-10.47c7.77-0.94,14.56,1.12,19.67,5.97
						c4.8,4.55,7.76,11.2,8.8,19.74l1.13,9.29c1.04,8.58-0.23,15.74-3.8,21.28c-3.79,5.91-9.88,9.53-17.61,10.47
						C676.84,361.31,675.63,361.39,674.45,361.39z"/>
				</g>
				<g>
					<path class="st6" d="M726.03,296.41l0.65,9.33l-0.53,0.04c-4.44,0.31-8.01,1.62-10.71,3.95c-2.7,2.32-4.25,5.4-4.65,9.22
						c2.49-2.81,5.78-4.37,9.87-4.65c4.44-0.31,8.08,1.07,10.94,4.12c2.85,3.06,4.46,7.21,4.83,12.47c0.23,3.26-0.33,6.31-1.68,9.14
						c-1.35,2.83-3.35,5.11-6,6.84c-2.65,1.73-5.66,2.71-9.01,2.94c-3.64,0.25-6.95-0.35-9.93-1.8s-5.37-3.66-7.18-6.63
						c-1.81-2.96-2.88-6.45-3.21-10.46l-0.33-4.75c-0.37-5.28,0.43-10.11,2.41-14.48c1.97-4.37,4.98-7.9,9.01-10.59
						c4.04-2.69,8.61-4.21,13.73-4.56L726.03,296.41z M717.17,323.67c-1.57,0.11-2.86,0.56-3.87,1.36c-1.01,0.8-1.73,1.75-2.17,2.84
						l0.25,3.56c0.45,6.48,2.92,9.56,7.4,9.25c1.81-0.13,3.26-1.04,4.35-2.74c1.1-1.7,1.56-3.78,1.39-6.22
						c-0.17-2.51-0.93-4.52-2.28-6.02C720.9,324.21,719.21,323.53,717.17,323.67z"/>
					<path class="st6" d="M718.14,357.1c-4.12,0-7.98-0.87-11.51-2.59c-4.23-2.07-7.65-5.21-10.18-9.36
						c-2.39-3.92-3.82-8.51-4.24-13.64l-0.34-4.84c-0.45-6.46,0.57-12.5,3.03-17.95c2.53-5.61,6.43-10.19,11.59-13.63
						c5.08-3.38,10.88-5.32,17.23-5.76l9-0.63l1.56,22.45c0.91,0.7,1.77,1.48,2.58,2.35c4,4.29,6.28,9.97,6.76,16.9
						c0.31,4.5-0.48,8.79-2.37,12.75c-1.92,4.04-4.81,7.33-8.58,9.79c-3.68,2.4-7.88,3.78-12.46,4.1
						C719.53,357.08,718.83,357.1,718.14,357.1z"/>
				</g>
				<g>
					<path class="st6" d="M741.8,321.52c0.02-2.01,0.69-3.63,2.01-4.85c1.32-1.22,3.09-1.83,5.29-1.8c2.24,0.02,4,0.65,5.28,1.9
						c1.28,1.24,1.92,2.91,1.9,5.01l-0.02,1.61c-0.02,2.01-0.68,3.62-1.99,4.83c-1.31,1.21-3.07,1.8-5.27,1.78
						c-2.19-0.02-3.95-0.65-5.27-1.87c-1.32-1.23-1.97-2.9-1.95-5.02L741.8,321.52z M746.64,323.28c-0.01,0.77,0.2,1.4,0.63,1.88
						c0.43,0.49,1.02,0.73,1.78,0.74c1.56,0.02,2.36-0.97,2.38-2.95l0.01-1.33c0.01-0.77-0.19-1.41-0.61-1.91
						c-0.41-0.5-1-0.75-1.76-0.76c-0.73-0.01-1.31,0.23-1.75,0.7c-0.44,0.48-0.66,1.13-0.67,1.96L746.64,323.28z M750.29,345.45
						l-3.49-1.8l16.14-25.28l3.49,1.8L750.29,345.45z M757.09,339.98c0.02-2.03,0.7-3.64,2.03-4.85c1.33-1.21,3.09-1.8,5.28-1.78
						c2.22,0.02,3.98,0.64,5.28,1.86c1.3,1.22,1.94,2.91,1.92,5.07l-0.01,1.56c-0.02,2.03-0.68,3.65-1.99,4.85
						c-1.31,1.21-3.07,1.8-5.29,1.78c-2.19-0.02-3.95-0.65-5.27-1.87c-1.32-1.23-1.97-2.9-1.95-5.01L757.09,339.98z M761.9,341.74
						c-0.01,0.7,0.22,1.31,0.7,1.84c0.47,0.53,1.05,0.8,1.74,0.81c1.45,0.01,2.23-0.66,2.37-2.02l0.04-2.29
						c0.01-0.78-0.2-1.42-0.63-1.9c-0.43-0.49-1.01-0.73-1.76-0.74c-0.72-0.01-1.29,0.21-1.73,0.66c-0.44,0.45-0.67,1.06-0.71,1.83
						L761.9,341.74z"/>
					<path class="st6" d="M764.41,355.7c-0.06,0-0.13,0-0.19,0c-4.67-0.04-7.81-1.82-9.71-3.44l-1.68,2.64l-16.4-8.45l6.61-10.35
						c-1.85-0.75-3.24-1.76-4.22-2.68c-1.97-1.83-4.31-5.12-4.26-10.38l0.02-1.59c0.04-4.02,1.54-7.5,4.34-10.09
						c1.87-1.73,5.19-3.74,10.27-3.72c4.76,0.05,7.9,1.85,9.79,3.52l1.42-2.22l16.39,8.46l-6.32,9.89c1.82,0.75,3.19,1.75,4.16,2.66
						c1.94,1.82,4.25,5.11,4.2,10.41l-0.02,1.56c-0.04,4.03-1.53,7.52-4.32,10.09C772.66,353.7,769.43,355.7,764.41,355.7z
						 M764.32,341.91L764.32,341.91L764.32,341.91z M764.31,341.25c0.02,0,0.03,0,0.05,0l0.01-0.68c-0.02,0-0.03,0-0.05,0
						L764.31,341.25z M764.98,340.64L764.98,340.64L764.98,340.64z M764.35,339.87L764.35,339.87L764.35,339.87z M749.02,322.77
						c0.01,0,0.02,0,0.03,0l0.01-0.68c-0.01,0-0.02,0-0.03,0L749.02,322.77z"/>
				</g>
				<g>
					<path class="st6" d="M791.47,348.15c1.53,0.78,3.55,1.21,6.1,1.53c1.72,0.25,9.89,1.28,12.03,1.47
						c-0.51,0.58-1.12,1.72-1.4,2.5l-10.96-1.39c-5.71-0.73-9.02-1.99-10.71-5.85c-0.58,2.05-1.3,3.83-2.21,5.23
						c-0.45-0.38-1.52-1.12-2.11-1.49c1.91-2.67,2.81-7.22,3.54-12.23l2.44,0.51c-0.19,1.29-0.41,2.57-0.65,3.76
						c0.33,1.79,0.86,3.11,1.66,4.15l1.25-9.87l-5.68-0.72l0.3-2.35l5.13,0.65l0.4-3.18l-4.42-0.56l0.3-2.35l4.42,0.56l0.38-2.98
						l2.5,0.32l-0.38,2.98l3.99,0.51l-0.3,2.35l-3.99-0.51l-0.4,3.18l4.7,0.6l-0.3,2.35l-4.19-0.53l-0.48,3.76l3.9,0.49l-0.3,2.32
						l-3.9-0.49L791.47,348.15z M800.93,348.45c-2.93-0.37-3.72-1.26-3.32-4.41l2.06-16.21l10.78,1.37l-1.34,10.53l-8.2-1.04
						l-0.72,5.68c-0.16,1.29,0.04,1.55,1.36,1.72l4.45,0.57c1.15,0.15,1.46-0.51,2.04-3.65c0.52,0.5,1.5,1.06,2.19,1.33
						c-0.85,3.91-1.7,5.09-4.33,4.75L800.93,348.45z M801.95,330.51l-0.74,5.85l5.65,0.72l0.74-5.85L801.95,330.51z"/>
					<path class="st6" d="M794.16,364.57l-5.23-6.75l-3.01,4.64l-6.27-5.3c-0.19-0.15-0.9-0.65-1.25-0.86l-6.58-4.07l4.5-6.29
						c0.45-0.63,0.9-1.91,1.33-3.8l-0.98-0.12l2.12-16.69l0.72,0.09l0.7-5.54l4.42,0.56l0.38-2.98l16.84,2.14l-0.15,1.2l16.83,2.14
						l-2.04,16.04l2.19,0.83l-1.11,4.78l6.96,0.6l-9.38,10.57c-0.06,0.1-0.13,0.25-0.17,0.33l-1.93,5.51l-5.78-0.78l-10.96-1.39
						c-0.45-0.06-0.95-0.12-1.49-0.2L794.16,364.57z"/>
				</g>
			</g>
		</g>
		<g>
			<g>
				<path class="st1" d="M478.3,348.35l5.57,0.67l-0.3,2.47l-5.57-0.67l-0.11,0.89c1.26,1.38,3.98,4.7,4.69,5.58l-1.8,2.08
					c-0.68-1.1-2.05-3.07-3.25-4.67l-1.38,11.49l-2.67-0.32l1.37-11.37c-1.77,2.82-3.86,5.45-5.86,7.04
					c-0.16-0.81-0.75-2.01-1.09-2.78c2.43-1.78,5.2-5.17,6.92-8.31l-5.23-0.63l0.3-2.47l5.74,0.69l0.51-4.25
					c-1.79,0.13-3.57,0.18-5.24,0.18c-0.07-0.62-0.34-1.55-0.58-2.17c4.24-0.13,9.18-0.55,12.03-1.43l1.68,2.27
					c-1.48,0.4-3.26,0.71-5.15,0.89L478.3,348.35z M487.2,360.29l-2.64-0.32l1.9-15.79l2.64,0.32L487.2,360.29z M495.53,342.19
					l-2.71,22.48c-0.2,1.69-0.7,2.42-1.76,2.73c-1.09,0.3-2.82,0.18-5.4-0.13c-0.02-0.76-0.3-2.07-0.62-2.87
					c1.92,0.32,3.72,0.54,4.3,0.61c0.52,0.03,0.77-0.11,0.84-0.66l2.71-22.48L495.53,342.19z"/>
				<path class="st1" d="M523.88,363.58l-11.53-0.33l-0.16,5.72l-2.83-0.08l0.16-5.72l-11.53-0.33l0.07-2.49l11.53,0.33l0.06-2.17
					l2.83,0.08l-0.06,2.17l11.53,0.33L523.88,363.58z M505.89,355.43c-2.17,1.1-4.49,2.24-6.4,3.09l-1.3-2.21
					c1.84-0.64,4.59-1.75,7.23-2.89L505.89,355.43z M515.56,359.15c-0.16-0.44-0.38-0.94-0.65-1.49c-7.28,0.49-8.29,0.6-8.96,0.9
					c-0.07-0.46-0.42-1.63-0.66-2.28c0.7-0.07,1.43-0.6,2.41-1.38c0.53-0.36,1.63-1.28,2.88-2.46c-2.81,0.12-3.45,0.25-3.89,0.41
					c-0.13-0.5-0.48-1.61-0.69-2.19c0.41-0.08,0.85-0.44,1.33-0.95c0.36-0.31,1.16-1.3,1.95-2.46l-10.2-0.29l0.07-2.46l11.3,0.32
					c-0.33-0.7-0.74-1.41-1.1-2.03l2.71-0.56c0.55,0.83,1.19,1.89,1.57,2.68l10.46,0.3l-0.07,2.46l-12-0.34
					c-0.78,1.05-1.62,2.12-2.49,3l3.21-0.06c0.69-0.73,1.34-1.52,1.97-2.29l2.05,1.27c-2.18,2.46-4.68,4.76-7.13,6.62l4.14-0.2
					c-0.36-0.62-0.75-1.18-1.14-1.71l1.99-0.7c1.23,1.57,2.56,3.63,3.07,5.09L515.56,359.15z M503.45,352.82
					c-0.87-1.01-2.71-2.45-4.21-3.45l1.86-1.42c1.48,0.94,3.38,2.32,4.3,3.3L503.45,352.82z M521.63,359.38
					c-1.18-1.16-3.59-2.94-5.52-4.15l1.92-1.42c1.88,1.12,4.35,2.84,5.61,4.01L521.63,359.38z M522.83,349.81
					c-1.31,1.29-2.99,2.58-4.29,3.46l-1.93-1.33c1.27-0.92,3.02-2.4,4.01-3.53L522.83,349.81z"/>
				<path class="st1" d="M538.48,361.15c-2.08,2.92-5.33,6.01-8.35,8.05c-0.57-0.56-1.62-1.35-2.28-1.79
					c2.96-1.83,6.2-4.8,7.72-7.24L538.48,361.15z M549.82,343.89l0.55,13.26l-19.88,0.83l-0.55-13.26L549.82,343.89z M533.14,355.32
					l14.24-0.6l-0.34-8.18l-14.24,0.6L533.14,355.32z M545.25,359.68c2.83,1.97,6.48,4.85,8.33,6.83l-2.45,1.69
					c-1.67-1.93-5.27-4.96-8.17-7.04L545.25,359.68z"/>
				<path class="st1" d="M562.99,344.2l-7.66,0.7l-0.21-2.33l24.68-2.25l0.21,2.33l-7.92,0.72l0.19,2.1l6.86-0.62l0.7,7.63
					l-22.23,2.03l-0.7-7.63l6.28-0.57L562.99,344.2z M576.14,358.12c-0.7,1.52-1.69,2.8-2.87,3.89c3.39,0.5,6.45,1.04,8.77,1.61
					l-2.25,2.09c-2.32-0.63-5.46-1.27-9.08-1.81c-3.12,1.82-7.31,2.99-12.74,3.92c-0.27-0.76-0.8-1.7-1.28-2.24
					c3.9-0.56,7.08-1.29,9.67-2.25c-2.08-0.25-4.19-0.43-6.36-0.61c0.67-0.96,1.4-2.1,2.11-3.33l-5.85,0.53l-0.21-2.25l7.34-0.67
					c0.52-1.01,0.97-2.06,1.3-2.99l2.76,0.33c-0.31,0.78-0.67,1.6-1.06,2.39l7.75-0.71c0.18-0.54,0.36-1.11,0.51-1.7l2.66,0.48
					c-0.09,0.3-0.18,0.63-0.26,0.95l4.67-0.43l0.21,2.25L576.14,358.12z M559.91,352.14l3.77-0.34l-0.31-3.37l-3.77,0.34
					L559.91,352.14z M565.14,359.13c-0.34,0.67-0.72,1.29-1.11,1.87c1.96,0.17,3.9,0.34,5.8,0.57c1.28-0.87,2.32-1.93,3.11-3.16
					L565.14,359.13z M569.55,343.6l-4.03,0.37l0.19,2.1l4.03-0.37L569.55,343.6z M566.22,351.57l4.03-0.37l-0.31-3.37l-4.03,0.37
					L566.22,351.57z M572.48,347.6l0.31,3.37l4.21-0.38l-0.31-3.37L572.48,347.6z"/>
				<path class="st4" d="M631.36,359.46l-35.55,4.7l-1.02-7.7l14.1-19.38c3.43-5.13,4.96-9.04,4.61-11.75
					c-0.29-2.19-0.99-3.8-2.1-4.81c-1.11-1.02-2.57-1.41-4.39-1.16c-1.8,0.24-3.15,1.19-4.07,2.87c-0.92,1.68-1.22,3.66-0.92,5.94
					l-11.83,1.56c-0.41-3.13-0.01-6.12,1.2-8.97c1.21-2.85,3.11-5.21,5.69-7.07c2.58-1.86,5.58-3.02,9.01-3.47
					c5.5-0.73,9.91-0.01,13.22,2.14c3.31,2.15,5.28,5.6,5.91,10.36c0.27,2.01,0.15,4.01-0.35,6.01c-0.49,2-1.39,4.15-2.69,6.44
					c-1.3,2.3-3.47,5.43-6.5,9.39l-5.58,8.46l20.05-2.65L631.36,359.46z"/>
				<path class="st4" d="M643.47,346.09c1.86-0.26,3.49,0.08,4.88,1.02c1.39,0.94,2.2,2.27,2.44,3.99c0.24,1.72-0.19,3.23-1.27,4.5
					c-1.09,1.28-2.56,2.04-4.42,2.3c-1.89,0.26-3.52-0.09-4.9-1.04c-1.38-0.95-2.18-2.28-2.42-3.98c-0.23-1.7,0.18-3.2,1.26-4.48
					C640.1,347.12,641.58,346.35,643.47,346.09z"/>
				<path class="st4" d="M692.28,330.31c0.84,6.89-0.06,12.39-2.7,16.51c-2.64,4.12-6.77,6.51-12.4,7.2
					c-5.68,0.69-10.3-0.66-13.86-4.04c-3.56-3.38-5.76-8.5-6.6-15.34l-1.13-9.32c-0.84-6.89,0.06-12.39,2.7-16.51
					c2.64-4.11,6.79-6.51,12.44-7.2c5.65-0.69,10.26,0.66,13.82,4.04c3.56,3.38,5.76,8.51,6.6,15.38L692.28,330.31z M679.15,320.92
					c-0.44-3.67-1.26-6.35-2.44-8.04c-1.18-1.69-2.81-2.42-4.88-2.16c-2.03,0.25-3.41,1.27-4.13,3.06c-0.72,1.79-0.9,4.4-0.56,7.82
					l1.59,13.03c0.46,3.81,1.28,6.53,2.45,8.18c1.17,1.65,2.8,2.34,4.88,2.09c2.01-0.24,3.39-1.28,4.14-3.12
					c0.75-1.83,0.91-4.58,0.49-8.25L679.15,320.92z"/>
				<path class="st4" d="M726,296.45l0.65,9.33l-0.53,0.04c-4.44,0.31-8.01,1.62-10.71,3.95c-2.7,2.32-4.25,5.4-4.65,9.22
					c2.49-2.82,5.78-4.36,9.87-4.65c4.44-0.31,8.08,1.06,10.94,4.12c2.85,3.06,4.46,7.22,4.83,12.47c0.23,3.26-0.33,6.31-1.68,9.14
					c-1.35,2.83-3.35,5.11-6,6.84c-2.65,1.73-5.65,2.71-9.01,2.94c-3.64,0.25-6.95-0.35-9.93-1.8c-2.98-1.46-5.37-3.66-7.18-6.63
					c-1.81-2.96-2.88-6.45-3.21-10.46l-0.33-4.75c-0.37-5.28,0.43-10.11,2.41-14.48c1.97-4.37,4.98-7.9,9.01-10.59
					c4.04-2.69,8.61-4.21,13.73-4.56L726,296.45z M717.14,323.7c-1.57,0.11-2.86,0.57-3.87,1.37s-1.73,1.75-2.17,2.84l0.25,3.56
					c0.45,6.48,2.92,9.56,7.4,9.25c1.81-0.13,3.26-1.04,4.36-2.74c1.1-1.7,1.56-3.78,1.39-6.22c-0.17-2.51-0.93-4.52-2.28-6.02
					C720.88,324.24,719.18,323.56,717.14,323.7z"/>
				<path class="st4" d="M741.78,321.55c0.02-2.01,0.69-3.63,2.01-4.85c1.32-1.22,3.09-1.82,5.29-1.8c2.24,0.02,4,0.65,5.28,1.9
					c1.28,1.24,1.92,2.91,1.9,5.01l-0.02,1.61c-0.02,2.01-0.68,3.62-1.99,4.83c-1.31,1.21-3.06,1.8-5.27,1.78
					c-2.19-0.02-3.95-0.65-5.27-1.87c-1.32-1.23-1.97-2.9-1.95-5.02L741.78,321.55z M746.61,323.31c-0.01,0.77,0.2,1.4,0.63,1.88
					c0.43,0.49,1.02,0.73,1.78,0.74c1.56,0.02,2.36-0.97,2.38-2.95l0.01-1.33c0.01-0.77-0.2-1.4-0.61-1.91
					c-0.41-0.5-1-0.75-1.76-0.76c-0.73-0.01-1.31,0.23-1.75,0.7c-0.44,0.48-0.66,1.13-0.67,1.96L746.61,323.31z M750.26,345.48
					l-3.49-1.8l16.14-25.28l3.49,1.8L750.26,345.48z M757.07,340.01c0.02-2.03,0.7-3.64,2.03-4.85c1.33-1.21,3.09-1.8,5.28-1.78
					c2.22,0.02,3.98,0.64,5.28,1.86c1.3,1.22,1.94,2.91,1.92,5.07l-0.02,1.56c-0.02,2.03-0.68,3.65-1.99,4.85
					c-1.31,1.21-3.07,1.8-5.29,1.78c-2.19-0.02-3.94-0.65-5.27-1.87c-1.32-1.23-1.97-2.9-1.95-5.02L757.07,340.01z M761.88,341.77
					c-0.01,0.7,0.23,1.31,0.7,1.84c0.47,0.53,1.05,0.8,1.74,0.81c1.44,0.01,2.23-0.66,2.37-2.02l0.04-2.29
					c0.01-0.79-0.2-1.42-0.63-1.9c-0.43-0.49-1.01-0.73-1.76-0.74c-0.71-0.01-1.29,0.21-1.73,0.66c-0.44,0.45-0.68,1.06-0.71,1.83
					L761.88,341.77z"/>
				<path class="st1" d="M791.74,345.79c1.53,0.78,3.55,1.21,6.1,1.53c1.72,0.25,9.89,1.28,12.02,1.47c-0.51,0.58-1.12,1.72-1.4,2.5
					l-10.96-1.39c-5.71-0.73-9.02-1.99-10.71-5.85c-0.58,2.05-1.3,3.83-2.21,5.23c-0.45-0.38-1.52-1.12-2.11-1.49
					c1.91-2.67,2.81-7.22,3.54-12.23l2.44,0.51c-0.19,1.29-0.41,2.57-0.65,3.76c0.33,1.79,0.86,3.11,1.66,4.14l1.25-9.87l-5.68-0.72
					l0.3-2.35l5.13,0.65l0.41-3.18l-4.42-0.56l0.3-2.35l4.42,0.56l0.38-2.98l2.5,0.32l-0.38,2.98l3.99,0.51l-0.3,2.35l-3.99-0.51
					l-0.4,3.18l4.7,0.6l-0.3,2.35l-4.19-0.53l-0.48,3.76l3.9,0.49l-0.3,2.32l-3.9-0.5L791.74,345.79z M801.21,346.09
					c-2.93-0.37-3.72-1.26-3.32-4.41l2.06-16.21l10.78,1.37l-1.34,10.53l-8.2-1.04l-0.72,5.68c-0.16,1.29,0.04,1.55,1.36,1.72
					l4.44,0.57c1.15,0.15,1.46-0.51,2.04-3.65c0.52,0.5,1.5,1.06,2.19,1.33c-0.85,3.91-1.7,5.09-4.34,4.75L801.21,346.09z
					 M802.23,328.15l-0.74,5.85l5.65,0.72l0.74-5.85L802.23,328.15z"/>
			</g>
		</g>
	</g>
	<g>
		<path class="st2" d="M261.2,35.16c2.09,2.04,4.7,4.79,6.01,6.65l-2.82,2.57c-0.42-0.68-1-1.47-1.67-2.27
			c-6.36,3.94-7.42,4.71-8.1,5.48c-0.46-0.95-1.48-2.51-2.26-3.22c0.56-0.49,1.12-1.26,0.83-2.4l-5.02-19.75l12.39-3.15l3.7,14.54
			l-8.8,2.24l1.47,5.8l3.63-2.11c-0.69-0.73-1.38-1.47-2.01-2.12L261.2,35.16z M252.55,24.42l0.64,2.5l5.3-1.35l-0.64-2.5
			L252.55,24.42z M259.95,31.38l-0.68-2.68l-5.3,1.35l0.68,2.68L259.95,31.38z M277.09,33.1c0.4,1.59,0.37,2.57-0.48,3.41
			c-0.8,0.8-2.15,1.17-4.03,1.65c-0.36-0.91-1.14-2.25-1.81-3.05c1.08-0.21,2.16-0.49,2.48-0.6c0.35-0.09,0.47-0.25,0.37-0.63
			l-3.46-13.63l-3.56,0.9l5.75,22.6l-3.53,0.9l-6.56-25.81l10.54-2.68L277.09,33.1z"/>
		<path class="st2" d="M304.83,9.91l4.89,25.64l-3.82,0.73l-0.36-1.88l-13.24,2.52l0.37,1.94l-3.67,0.7l-4.9-25.7L304.83,9.91z
			 M288.46,16.73l1.22,6.41l13.24-2.52l-1.22-6.41L288.46,16.73z M304.86,30.82l-1.27-6.68l-13.24,2.52l1.27,6.68L304.86,30.82z"/>
		<path class="st2" d="M327.14,28.39c1.67,0.33,3.7,0.18,6.11-0.14c2.29-0.28,10.27-1.34,12.95-1.85c-0.43,0.92-0.82,2.62-0.88,3.73
			l-11.62,1.55c-5.57,0.74-9.25,0.47-12.07-2.59c-0.03,2.09-0.24,3.92-0.68,5.48c-0.72-0.33-2.42-0.9-3.21-1.13
			c1.07-3.24,0.7-8.3,0.08-13.46l3.31-0.2c0.15,1.33,0.26,2.66,0.37,3.9c0.6,1.27,1.31,2.24,2.08,2.97l-1.21-9.06l-5.84,0.78
			l-0.42-3.13l5.08-0.68l-0.37-2.8l-4.24,0.56l-0.41-3.1l4.24-0.56l-0.39-2.92l3.37-0.45l0.39,2.92l4-0.53l0.41,3.1l-4,0.53
			l0.37,2.8l4.72-0.63l0.42,3.13l-4.06,0.54l0.43,3.25l3.82-0.51l0.41,3.1l-3.82,0.51L327.14,28.39z M336.82,26.36
			c-3.37,0.45-4.59-0.43-5.1-4.25l-2.2-16.52l11.62-1.55l1.52,11.44l-8.15,1.09l0.68,5.09c0.18,1.38,0.4,1.6,1.66,1.43l3.88-0.52
			c1.14-0.15,1.26-0.87,1.02-4.09c0.83,0.47,2.32,0.85,3.31,0.97c0.18,4.32-0.59,5.9-3.6,6.3L336.82,26.36z M333.4,8.26l0.69,5.21
			l4.72-0.63l-0.69-5.21L333.4,8.26z"/>
		<path class="st2" d="M374.57,14.26c-0.47-0.57-1.07-1.16-1.79-1.87c-15.35,1.87-17.37,2.06-18.76,2.63
			c-0.24-0.71-0.99-2.42-1.45-3.32c0.68-0.21,1.28-0.71,2.01-1.53c0.56-0.59,1.9-2.16,3.11-4.12l-6.72,0.54l-0.27-3.33l25.57-2.05
			l0.27,3.33l-14.19,1.14c-1.22,1.86-2.54,3.61-3.88,5.15l11.02-1.16c-1.04-0.8-2.08-1.6-3.04-2.22l2.72-2.17
			c2.83,1.84,6.54,4.53,8.38,6.52L374.57,14.26z M379.1,23.67l0.27,3.36l-27.38,2.2l-0.27-3.36l11.68-0.94l-0.34-4.24l-8.9,0.71
			l-0.27-3.33l8.9-0.71l-0.24-2.97l3.75-0.3l0.24,2.97l9.14-0.73l0.27,3.33l-9.14,0.73l0.34,4.24L379.1,23.67z"/>
		<path class="st2" d="M407.69,25.58l-16.92,0.52l-0.09-2.89l8.1-9.4c1.17-1.38,2-2.54,2.48-3.46c0.48-0.92,0.71-1.84,0.69-2.75
			c-0.04-1.2-0.4-2.16-1.1-2.87c-0.7-0.72-1.62-1.06-2.76-1.02c-1.36,0.04-2.4,0.49-3.12,1.34c-0.72,0.85-1.06,2-1.02,3.44
			l-4.2,0.13c-0.05-1.53,0.26-2.92,0.92-4.17s1.63-2.23,2.9-2.95c1.28-0.72,2.76-1.11,4.45-1.16c2.44-0.07,4.39,0.48,5.84,1.66
			c1.45,1.18,2.21,2.86,2.27,5.03c0.04,1.26-0.28,2.58-0.94,3.98c-0.67,1.4-1.78,3-3.34,4.8l-5.95,6.77l11.68-0.36L407.69,25.58z"/>
		<path class="st2" d="M428.59,14.99c-0.03,3.62-0.73,6.34-2.1,8.17c-1.37,1.83-3.44,2.73-6.2,2.71c-2.72-0.02-4.76-0.93-6.13-2.74
			c-1.36-1.8-2.05-4.46-2.05-7.98l0.04-4.36c0.03-3.62,0.73-6.33,2.1-8.13s3.44-2.69,6.22-2.67c2.76,0.02,4.8,0.92,6.14,2.7
			c1.34,1.77,2.01,4.42,2.02,7.94L428.59,14.99z M424.42,10.25c0.02-2.36-0.29-4.1-0.93-5.2c-0.64-1.11-1.66-1.66-3.07-1.68
			c-1.37-0.01-2.38,0.5-3.04,1.54c-0.65,1.04-1.01,2.66-1.06,4.88l-0.05,5.71c-0.02,2.35,0.3,4.11,0.94,5.26
			c0.65,1.16,1.68,1.74,3.08,1.75c1.35,0.01,2.35-0.51,3-1.58c0.65-1.06,1.01-2.73,1.06-5L424.42,10.25z"/>
		<path class="st2" d="M450.39,26.14l-16.92-0.53l0.09-2.89l8.67-8.88c1.25-1.31,2.15-2.41,2.69-3.3c0.54-0.89,0.83-1.79,0.86-2.7
			c0.04-1.2-0.27-2.18-0.92-2.94c-0.65-0.76-1.55-1.16-2.69-1.19c-1.36-0.04-2.43,0.34-3.2,1.14s-1.19,1.93-1.23,3.37l-4.2-0.13
			c0.05-1.53,0.44-2.9,1.18-4.11c0.74-1.21,1.76-2.13,3.08-2.77c1.32-0.64,2.82-0.93,4.52-0.88c2.44,0.08,4.35,0.75,5.72,2.02
			c1.37,1.27,2.03,2.99,1.96,5.16c-0.04,1.26-0.44,2.56-1.19,3.92c-0.75,1.36-1.96,2.88-3.63,4.58l-6.36,6.39l11.69,0.37
			L450.39,26.14z"/>
		<path class="st2" d="M460.55,12.18l2.55,0.16c1.29,0.07,2.33-0.2,3.13-0.81s1.23-1.53,1.31-2.78c0.08-1.2-0.18-2.14-0.76-2.85
			c-0.58-0.7-1.52-1.09-2.81-1.17c-1.13-0.07-2.07,0.2-2.84,0.8c-0.77,0.6-1.18,1.43-1.25,2.48l-4.19-0.26
			c0.08-1.29,0.5-2.44,1.25-3.46c0.75-1.02,1.76-1.78,3.02-2.3c1.26-0.52,2.65-0.72,4.17-0.63c2.51,0.16,4.44,0.91,5.79,2.26
			s1.96,3.15,1.82,5.39c-0.07,1.13-0.5,2.17-1.28,3.12c-0.78,0.95-1.76,1.64-2.93,2.08c1.35,0.56,2.35,1.37,3.01,2.43
			s0.94,2.29,0.85,3.69c-0.14,2.26-1.03,4-2.66,5.24c-1.63,1.24-3.71,1.78-6.23,1.62c-2.42-0.15-4.36-0.92-5.82-2.31
			c-1.46-1.39-2.12-3.15-1.99-5.29l4.19,0.26c-0.07,1.1,0.24,2.03,0.94,2.76c0.7,0.74,1.68,1.14,2.93,1.22
			c1.3,0.08,2.35-0.2,3.14-0.84c0.79-0.64,1.23-1.62,1.31-2.93c0.08-1.32-0.24-2.37-0.98-3.13c-0.74-0.76-1.88-1.19-3.42-1.29
			l-2.47-0.16L460.55,12.18z"/>
		<path class="st2" d="M479.11,28.68l-2.82-0.26l10.62-22.55l2.82,0.26L479.11,28.68z"/>
		<path class="st2" d="M504.78,30.86l-4.15-0.51l2.48-20.08l-6.38,1.33l0.43-3.5l10.19-2.38l0.53,0.07L504.78,30.86z"/>
		<path class="st2" d="M531.35,34.82l-16.72-2.66l0.45-2.85l9.72-7.72c1.41-1.14,2.44-2.12,3.08-2.93c0.65-0.81,1.04-1.67,1.19-2.57
			c0.19-1.18,0.01-2.19-0.54-3.03c-0.55-0.83-1.39-1.34-2.52-1.52c-1.34-0.21-2.45,0.03-3.32,0.73c-0.87,0.7-1.42,1.77-1.64,3.19
			l-4.15-0.66c0.24-1.51,0.8-2.82,1.68-3.93c0.88-1.1,2.02-1.89,3.4-2.36c1.39-0.47,2.92-0.57,4.59-0.3
			c2.41,0.38,4.22,1.29,5.42,2.73c1.2,1.43,1.63,3.22,1.29,5.36c-0.2,1.24-0.75,2.49-1.67,3.74c-0.92,1.25-2.31,2.61-4.18,4.09
			l-7.11,5.54l11.55,1.83L531.35,34.82z"/>
		<path class="st2" d="M538.63,36.78l-2.78-0.54l12.77-21.41l2.78,0.54L538.63,36.78z"/>
		<path class="st2" d="M569.33,42.74l-16.5-3.77l0.64-2.82l10.22-7.05c1.48-1.04,2.57-1.95,3.27-2.72c0.7-0.77,1.15-1.6,1.36-2.48
			c0.27-1.17,0.15-2.19-0.34-3.06c-0.49-0.87-1.3-1.43-2.41-1.69c-1.33-0.3-2.45-0.13-3.36,0.51c-0.92,0.64-1.53,1.67-1.85,3.07
			l-4.1-0.94c0.34-1.49,0.99-2.76,1.94-3.8c0.95-1.04,2.14-1.75,3.55-2.12c1.42-0.37,2.95-0.37,4.6,0.01
			c2.38,0.54,4.13,1.57,5.23,3.08c1.1,1.51,1.41,3.32,0.93,5.44c-0.28,1.22-0.92,2.43-1.92,3.62c-1,1.18-2.48,2.45-4.44,3.8
			l-7.47,5.05l11.4,2.61L569.33,42.74z"/>
		<path class="st2" d="M587.8,36.76c-1.75,1.07-3.53,1.35-5.34,0.86c-2.14-0.58-3.64-1.79-4.5-3.63c-0.86-1.84-0.96-3.98-0.3-6.42
			c0.43-1.6,1.15-2.97,2.15-4.09c1-1.13,2.19-1.89,3.58-2.29c1.39-0.4,2.86-0.39,4.43,0.04c2.45,0.66,4.14,2.1,5.08,4.32
			c0.94,2.22,1,4.85,0.16,7.91l-0.31,1.14c-1.19,4.38-3.09,7.46-5.69,9.22c-2.61,1.77-5.88,2.13-9.81,1.1l-0.48-0.13l0.91-3.36
			l0.58,0.16c2.4,0.62,4.39,0.54,5.98-0.23C585.82,40.59,587,39.05,587.8,36.76z M584.17,34.68c0.81,0.22,1.64,0.19,2.48-0.08
			s1.56-0.77,2.18-1.49l0.43-1.59c0.49-1.79,0.51-3.33,0.07-4.62c-0.44-1.29-1.24-2.09-2.41-2.41c-1.17-0.32-2.23-0.09-3.19,0.68
			c-0.96,0.77-1.63,1.9-2.03,3.36c-0.41,1.52-0.4,2.85,0.05,3.97C582.19,33.64,583,34.36,584.17,34.68z"/>
	</g>
	
		<rect x="214.63" y="28.07" transform="matrix(0.6684 -0.7438 0.7438 0.6684 38.8047 175.6864)" class="st2" width="3.61" height="32.5"/>
	
		<rect x="607.18" y="42.52" transform="matrix(0.7436 -0.6687 0.6687 0.7436 130.2408 428.2431)" class="st2" width="32.5" height="3.61"/>
</g>
</svg>
