<?xml version="1.0" encoding="UTF-8"?>
<svg xmlns="http://www.w3.org/2000/svg" version="1.1" viewBox="0 0 120 120">
  <defs>
    <style>
      .cls-1 {
        fill: #aedcff;
      }

      .cls-2 {
        fill: #ffda00;
      }

      .cls-3 {
        fill: #007aff;
      }
    </style>
  </defs>
  <!-- Generator: Adobe Illustrator 28.7.1, SVG Export Plug-In . SVG Version: 1.2.0 Build 142)  -->
  <g>
    <g id="_圖層_1" data-name="圖層_1">
      <g>
        <path class="cls-1" d="M60,16.5c-24,0-43.5,19.5-43.5,43.5s19.5,43.5,43.5,43.5,43.5-19.5,43.5-43.5-19.5-43.5-43.5-43.5ZM60,94c-18.8,0-34-15.2-34-34s15.2-34,34-34,34,15.2,34,34-15.2,34-34,34Z"/>
        <rect class="cls-3" x="59" y="11.8" width="2" height="20"/>
        <rect class="cls-3" x="59" y="88.2" width="2" height="20"/>
        <rect class="cls-3" x="88.2" y="59" width="20" height="2"/>
        <rect class="cls-3" x="11.8" y="59" width="20" height="2"/>
        <polygon class="cls-2" points="60 37.6 66.8 51.4 82.1 53.6 71 64.4 73.6 79.6 60 72.4 46.4 79.6 49 64.4 37.9 53.6 53.2 51.4 60 37.6"/>
      </g>
    </g>
  </g>
</svg>