<?xml version="1.0" encoding="UTF-8"?>
<svg xmlns="http://www.w3.org/2000/svg" version="1.1" viewBox="0 0 120 120">
  <defs>
    <style>
      .cls-1 {
        fill: #4d5681;
      }

      .cls-2 {
        fill: #f18918;
      }

      .cls-3 {
        fill: #4aa9ff;
      }

      .cls-4 {
        fill: #a9b8df;
      }

      .cls-5 {
        fill: #aedcff;
      }

      .cls-6 {
        fill: #f46300;
      }

      .cls-7 {
        fill: #ffda00;
      }

      .cls-8 {
        fill: #fde802;
      }

      .cls-9 {
        fill: #7e84a8;
      }

      .cls-10 {
        fill: #007aff;
      }

      .cls-11 {
        fill: #bbcaea;
      }
    </style>
  </defs>
  <!-- Generator: Adobe Illustrator 28.7.1, SVG Export Plug-In . SVG Version: 1.2.0 Build 142)  -->
  <g>
    <g id="_圖層_1" data-name="圖層_1">
      <g>
        <circle class="cls-5" cx="60" cy="60" r="60"/>
        <g>
          <path class="cls-1" d="M67.1,98.2l-1.8-20.5,19.2-6v.5c1.1,11.7-6.2,22.5-17.4,26.1h0Z"/>
          <path class="cls-1" d="M21.8,52.9l20.5,1.8,6-19.2h-.5c-11.7-1.1-22.5,6.2-26.1,17.4h0Z"/>
          <path class="cls-2" d="M50.6,94.3h0s0,0,0,0c0,0,0,0,0,0Z"/>
          <path class="cls-8" d="M50.6,94.3h0s0,0,0,0c0,0,0,0,0,0Z"/>
          <path class="cls-4" d="M86.5,70.4s0,0,0,0c.3-.3.6-.7.8-1,18.6-22.6,18.6-53.4,18.6-55.2h0s0,0,0,0c0,0,0,0,0,0h0c-1.8,0-32.6.1-55.1,18.8-.3.3-.7.6-1,.8,0,0,0,0,0,0-9.3,8-15.3,17.9-19.2,27.5-.3.8-.1,1.8.5,2.4l25.5,25.5c.6.6,1.6.8,2.4.5,9.6-3.9,19.6-9.9,27.5-19.2Z"/>
          <path class="cls-11" d="M81.1,65s0,0,0,0c.3-.3.6-.7.8-1,14.2-17.3,17.6-39.5,18.3-49.7-10.2.8-32.3,4.2-49.6,18.5-.3.3-.7.6-1,.8,0,0,0,0,0,0-9.3,8-15.3,17.9-19.2,27.5-.3.8-.1,1.8.5,2.4l21.2,21.2c10.1-3.9,20.6-10.1,28.9-19.8Z"/>
          <g>
            <polygon class="cls-1" points="80.2 17.9 80.2 17.9 80.2 17.9 80.2 17.9"/>
            <path class="cls-1" d="M106,14.1s0,0,0,0c0,0,0,0,0,0h0c-1.1,0-12.2,0-25.7,3.9,0,0,15.6,5.3,22,21.9h0s0,0,0,0c3.8-13.6,3.8-24.7,3.8-25.7h0Z"/>
          </g>
          <path class="cls-1" d="M42.5,78.9l-1.4-1.4c-.2-.2-.2-.4,0-.6l5.3-6.3c.2-.2.4-.4.6-.6l6.2-5.3c.2-.2.4-.1.6,0l1.4,1.4c.2.2.2.4,0,.6l-5.2,6.2c-.2.2-.4.4-.6.6l-6.3,5.4c-.2.2-.4.1-.6,0Z"/>
          <path class="cls-9" d="M62.5,57.6c-6-6-6-15.8,0-21.8,6-6,15.8-6,21.8,0,6,6,6,15.8,0,21.8-6,6-15.8,6-21.8,0ZM81.9,38.2c-4.7-4.7-12.3-4.6-16.9,0-4.7,4.7-4.6,12.3,0,16.9,4.7,4.7,12.3,4.6,16.9,0,4.7-4.7,4.6-12.3,0-16.9Z"/>
          <circle class="cls-3" cx="73.4" cy="46.7" r="9.6"/>
          <path class="cls-10" d="M77.6,40.3c-5.1-1.4-10.4,1.7-11.7,6.8-.5,2-.4,4,.2,5.8,1.2,1.5,2.9,2.6,4.9,3.1,5.1,1.4,10.4-1.7,11.7-6.8s.4-4-.2-5.8c-1.2-1.5-2.9-2.6-4.9-3.1Z"/>
          <path class="cls-7" d="M29.7,83.5c-3,3-15.7,4.7-15.7,4.7,0,0,1.7-12.7,4.7-15.7,3-3,7.9-3,10.9,0,3,3,3,7.9,0,10.9Z"/>
          <path class="cls-6" d="M29.7,79.3c-1.9,1.9-9.6,2.9-9.6,2.9,0,0,1.1-7.8,2.9-9.6,1.9-1.9,4.9-1.9,6.7,0,1.9,1.9,1.9,4.9,0,6.7Z"/>
          <g>
            <path class="cls-9" d="M39.7,51l-16.5,16.5,11.5,11.5,16.5-16.5c3.2-3.2,3.2-8.3,0-11.5-1.6-1.6-3.7-2.4-5.7-2.4-2.1,0-4.2.8-5.7,2.4Z"/>
            <rect class="cls-1" x="28.5" y="64.1" width="3.2" height="16.2" transform="translate(-42.2 42.4) rotate(-45)"/>
          </g>
          <path class="cls-7" d="M47.4,101.2c-3,3-15.7,4.7-15.7,4.7,0,0,1.7-12.7,4.7-15.7,3-3,7.9-3,10.9,0,3,3,3,7.9,0,10.9Z"/>
          <path class="cls-6" d="M47.4,97c-1.9,1.9-9.6,2.9-9.6,2.9,0,0,1.1-7.8,2.9-9.6,1.9-1.9,4.9-1.9,6.7,0,1.9,1.9,1.9,4.9,0,6.7Z"/>
          <g>
            <path class="cls-9" d="M57.5,68.8l-16.5,16.5,11.5,11.5,16.5-16.5c3.2-3.2,3.2-8.3,0-11.5-1.6-1.6-3.7-2.4-5.7-2.4-2.1,0-4.2.8-5.7,2.4Z"/>
            <rect class="cls-1" x="46.2" y="81.8" width="3.2" height="16.2" transform="translate(-49.6 60.1) rotate(-45)"/>
          </g>
        </g>
      </g>
    </g>
  </g>
</svg>