<?xml version="1.0" encoding="UTF-8"?>
<svg xmlns="http://www.w3.org/2000/svg" version="1.1" viewBox="0 0 400 21.3">
  <defs>
    <style>
      .cls-1 {
        fill: #45caff;
      }
    </style>
  </defs>
  <!-- Generator: Adobe Illustrator 28.7.1, SVG Export Plug-In . SVG Version: 1.2.0 Build 142)  -->
  <g>
    <g id="_x33_">
      <polygon class="cls-1" points="20.8 21.3 34.3 21.3 14.9 1.5 22 1.5 41.4 21.3 54.9 21.3 35.5 1.5 42.6 1.5 62 21.3 75.5 21.3 56.1 1.5 63.1 1.5 82.5 21.3 90.5 21.3 96 21.3 103.1 21.3 116.6 21.3 145.1 21.3 156.8 11.1 243.2 11.1 254.9 21.3 283.4 21.3 296.9 21.3 304 21.3 309.5 21.3 317.5 21.3 336.9 1.5 343.9 1.5 324.5 21.3 338 21.3 357.4 1.5 364.5 1.5 345.1 21.3 358.6 21.3 378 1.5 385.1 1.5 365.7 21.3 379.2 21.3 400 0 400 0 386.5 0 381.5 0 379.4 0 367 0 365.9 0 358.9 0 345.4 0 338.3 0 334.4 0 324.8 0 317.7 0 304.2 0 95.8 0 82.3 0 75.2 0 65.6 0 61.7 0 54.6 0 41.1 0 34.1 0 33.6 0 20.6 0 18.5 0 13.5 0 0 0 0 0 20.8 21.3"/>
    </g>
  </g>
</svg>