<?xml version="1.0" encoding="UTF-8"?>
<svg xmlns="http://www.w3.org/2000/svg" version="1.1" viewBox="0 0 120 120">
  <defs>
    <style>
      .cls-1 {
        fill: #aedcff;
      }

      .cls-2 {
        fill: #f46300;
      }

      .cls-3 {
        fill: #001c77;
      }

      .cls-4 {
        fill: #007aff;
      }
    </style>
  </defs>
  <!-- Generator: Adobe Illustrator 28.7.1, SVG Export Plug-In . SVG Version: 1.2.0 Build 142)  -->
  <g>
    <g id="_圖層_1" data-name="圖層_1">
      <g>
        <polygon class="cls-2" points="73.3 22.1 52.4 26.6 52.4 17.7 73.3 22.1"/>
        <path class="cls-4" d="M49.7,103.9l26.8-58.3c.3-.6,1.1-.6,1.4,0l30.6,58.3h-58.8Z"/>
        <path class="cls-1" d="M73.1,70.5l8.6-6.2,9.3,6.2-13.1-24.9c-.3-.6-1.1-.6-1.4,0l-7.7,16.8,4.4,8.1Z"/>
        <path class="cls-3" d="M52.6,37c-.3,0-.6-.3-.6-.6v-19.8c0-.3.3-.6.6-.6s.6.3.6.6v19.8c0,.3-.3.6-.6.6Z"/>
        <path class="cls-4" d="M11.6,103.9L51.9,33.1c.3-.6,1.1-.6,1.4,0l37.2,70.8H11.6Z"/>
        <path class="cls-1" d="M54.9,55.9l7.8,9.1,4.8-5-14.2-27c-.3-.6-1.1-.5-1.4,0l-13.9,24.3,7,7.6,9.9-9.1Z"/>
      </g>
    </g>
  </g>
</svg>