<?xml version="1.0" encoding="utf-8"?>
<!-- Generator: Adobe Illustrator 28.0.0, SVG Export Plug-In . SVG Version: 6.00 Build 0)  -->
<svg version="1.1" id="圖層_1" xmlns="http://www.w3.org/2000/svg" xmlns:xlink="http://www.w3.org/1999/xlink" x="0px" y="0px"
	 viewBox="0 0 203 98" style="enable-background:new 0 0 203 98;" xml:space="preserve">
<style type="text/css">
	.st0{fill:#00A988;}
	.st1{fill:#E8E5DB;}
	.st2{fill:#EEB41C;}
	.st3{fill:#F38E9E;}
</style>
<g>
	<path class="st0" d="M24.04,0C15.67,0,7.65,1.48,0.16,4.07v69.07h97.02c0,0,0,0,0,0C97.18,32.74,64.44,0,24.04,0z"/>
	<path class="st1" d="M24.04,15.06c-8.52,0-16.59,1.88-23.89,5.18v52.9h81.97c0,0,0,0,0,0C82.12,41.06,56.12,15.06,24.04,15.06z"/>
	<path class="st0" d="M24.04,24.29c-8.68,0-16.82,2.29-23.89,6.26v42.58h72.73c0,0,0,0,0,0C72.89,46.16,51.02,24.29,24.04,24.29z"/>
	<path class="st2" d="M202.84,98C202.84,98,202.84,98,202.84,98c0-40.39-32.74-73.14-73.14-73.14S56.57,57.61,56.57,98c0,0,0,0,0,0
		H202.84z"/>
	<path class="st1" d="M187.79,98C187.79,98,187.79,98,187.79,98c0-32.08-26-58.08-58.08-58.08S71.63,65.92,71.63,98c0,0,0,0,0,0
		H187.79z"/>
	<path class="st3" d="M178.55,98C178.55,98,178.55,98,178.55,98c0-26.98-21.87-48.84-48.84-48.84S80.86,71.02,80.86,98c0,0,0,0,0,0
		H178.55z"/>
	<path class="st1" d="M159.8,98C159.8,98,159.8,98,159.8,98c0-16.62-13.47-30.09-30.09-30.09c-16.62,0-30.09,13.47-30.09,30.09
		c0,0,0,0,0,0H159.8z"/>
</g>
</svg>
