<?xml version="1.0" encoding="utf-8"?>
<!-- Generator: Adobe Illustrator 28.0.0, SVG Export Plug-In . SVG Version: 6.00 Build 0)  -->
<svg version="1.1" id="圖層_1" xmlns="http://www.w3.org/2000/svg" xmlns:xlink="http://www.w3.org/1999/xlink" x="0px" y="0px"
	 viewBox="0 0 450 360" style="enable-background:new 0 0 450 360;" xml:space="preserve">
<style type="text/css">
	.st0{fill:#8DBDF2;}
	.st1{fill:#1D2344;}
	.st2{fill:#444E77;}
	.st3{filter:url(#Adobe_OpacityMaskFilter);}
	.st4{filter:url(#Adobe_OpacityMaskFilter_00000101813751557175472260000014525396392800566400_);}
	.st5{mask:url(#SVGID_1_);fill:url(#SVGID_00000148662209077114384910000007597976843652753593_);}
	.st6{opacity:0.11;fill:url(#SVGID_00000176031360600164361760000005449866953050616714_);}
	.st7{fill:#F06698;}
	.st8{fill:#8E98BA;}
	.st9{opacity:0.1;}
	.st10{fill:#FFFFFF;}
	.st11{fill:#05BD6B;}
	.st12{fill:#D4D4D4;}
	.st13{clip-path:url(#SVGID_00000059991489645776015960000016809207374050566315_);}
	.st14{clip-path:url(#SVGID_00000083077487208462895770000013246569407592785854_);fill:#399EFF;}
	.st15{clip-path:url(#SVGID_00000115475317794357666670000014108381596582908345_);fill:#399EFF;}
	.st16{opacity:0.2;}
	.st17{fill:#FFD3CA;}
	.st18{fill:#FFE1DA;}
	.st19{fill-rule:evenodd;clip-rule:evenodd;fill:#D10F27;}
	.st20{fill-rule:evenodd;clip-rule:evenodd;fill:#0D5ACC;}
	.st21{fill:#FF8685;}
	.st22{opacity:0.1;fill:#1D2344;}
	.st23{fill:#C3EAE4;}
	.st24{fill:#005BAC;}
	.st25{fill:#00A84E;}
	.st26{fill:#FFC022;}
	.st27{fill:#EA8B0F;}
	.st28{fill:#8BD1CC;}
	.st29{fill:#A8E2D8;}
	.st30{fill:#71C6BD;}
</style>
<path class="st0" d="M309.35,64.81c-0.04,0-0.07,0-0.11,0c-6.57,0.01-12.9-2.53-17.55-7.17C261.07,27.04,218.9,8,172.28,7.63
	C77.72,6.88,0.18,83.63,0,178.19c-0.18,94.53,76.4,171.22,170.89,171.22c16.15,0,31.78-2.24,46.59-6.43
	c15.1-4.27,31.12-3.69,45.92,1.54c14.4,5.09,29.86,7.85,45.95,7.85C387.03,352.37,450,288,450,208.59S387.03,64.81,309.35,64.81z"/>
<g>
	<path class="st1" d="M201.92,318H68.23c-6.63,0-12-5.37-12-12V45.6c0-6.63,5.37-12,12-12h133.68c6.63,0,12,5.37,12,12V306
		C213.92,312.63,208.54,318,201.92,318z"/>
	<path class="st2" d="M198.54,310.3H71.61c-4.42,0-8-3.58-8-8v-253c0-4.42,3.58-8,8-8h126.94c4.42,0,8,3.58,8,8v253
		C206.54,306.72,202.96,310.3,198.54,310.3z"/>
	<defs>
		<filter id="Adobe_OpacityMaskFilter" filterUnits="userSpaceOnUse" x="87.38" y="41.3" width="119.17" height="269">
			<feFlood  style="flood-color:white;flood-opacity:1" result="back"/>
			<feBlend  in="SourceGraphic" in2="back" mode="normal"/>
		</filter>
	</defs>
	<mask maskUnits="userSpaceOnUse" x="87.38" y="41.3" width="119.17" height="269" id="SVGID_1_">
		<g class="st3">
			<defs>
				
					<filter id="Adobe_OpacityMaskFilter_00000120547014940729453170000003377822161786783166_" filterUnits="userSpaceOnUse" x="87.38" y="41.3" width="119.17" height="269">
					<feFlood  style="flood-color:white;flood-opacity:1" result="back"/>
					<feBlend  in="SourceGraphic" in2="back" mode="normal"/>
				</filter>
			</defs>
			<mask maskUnits="userSpaceOnUse" x="87.38" y="41.3" width="119.17" height="269" id="SVGID_1_">
				<g style="filter:url(#Adobe_OpacityMaskFilter_00000120547014940729453170000003377822161786783166_);">
				</g>
			</mask>
			
				<linearGradient id="SVGID_00000134937081596589163120000017301350999657072543_" gradientUnits="userSpaceOnUse" x1="197.0436" y1="99.3211" x2="139.3406" y2="342.3947">
				<stop  offset="0" style="stop-color:#FFFFFF"/>
				<stop  offset="1" style="stop-color:#000000"/>
			</linearGradient>
			<polygon style="mask:url(#SVGID_1_);fill:url(#SVGID_00000134937081596589163120000017301350999657072543_);" points="
				206.54,310.3 87.38,310.3 180.52,41.3 206.54,41.3 			"/>
		</g>
	</mask>
	
		<linearGradient id="SVGID_00000074423820432502298470000002212478858932038823_" gradientUnits="userSpaceOnUse" x1="195.9507" y1="100.397" x2="138.5728" y2="342.1012">
		<stop  offset="0" style="stop-color:#FFFFFF"/>
		<stop  offset="1" style="stop-color:#FFFFFF"/>
	</linearGradient>
	<path style="opacity:0.11;fill:url(#SVGID_00000074423820432502298470000002212478858932038823_);" d="M198.54,310.3H87.38
		l93.15-269h18.02c4.42,0,8,3.58,8,8v253C206.54,306.72,202.96,310.3,198.54,310.3z"/>
	<line class="st7" x1="102.01" y1="299.62" x2="168.14" y2="299.62"/>
	<path class="st8" d="M168.14,301.04h-66.13c-0.78,0-1.42-0.63-1.42-1.42s0.63-1.42,1.42-1.42h66.13c0.78,0,1.42,0.63,1.42,1.42
		S168.92,301.04,168.14,301.04z"/>
</g>
<g>
	<g>
		<g class="st9">
			<path class="st1" d="M120.42,260.41h135.52c2.21,0,4-1.79,4-4V87.07c0-2.21-1.79-4-4-4H120.42c-2.21,0-4,1.79-4,4v169.34
				C116.42,258.62,118.21,260.41,120.42,260.41z"/>
		</g>
		<g>
			<path class="st10" d="M126.42,254.41h135.52c2.21,0,4-1.79,4-4V81.07c0-2.21-1.79-4-4-4H126.42c-2.21,0-4,1.79-4,4v169.34
				C122.42,252.62,124.21,254.41,126.42,254.41z"/>
		</g>
		<g>
			<g>
				<path class="st11" d="M151.79,183.23l-6.71-6.71c-0.96-0.96-0.96-2.53,0-3.49l0,0c0.96-0.96,2.53-0.97,3.49,0l3.92,3.92
					c0.49,0.49,1.3,0.46,1.76-0.06l9.03-10.44c0.89-1.03,2.45-1.14,3.49-0.25l0,0c1.03,0.89,1.14,2.45,0.25,3.49L155.4,183.1
					C154.46,184.18,152.8,184.24,151.79,183.23z"/>
				<g>
					<path class="st12" d="M241.47,171.54h-60.93c-1.52,0-2.75-1.01-2.75-2.25v0c0-1.24,1.23-2.25,2.75-2.25h60.93
						c1.52,0,2.75,1.01,2.75,2.25v0C244.22,170.53,242.99,171.54,241.47,171.54z"/>
					<path class="st12" d="M221.96,182.61h-41.42c-1.52,0-2.75-1.01-2.75-2.25l0,0c0-1.24,1.23-2.25,2.75-2.25h41.42
						c1.52,0,2.75,1.01,2.75,2.25l0,0C224.71,181.6,223.48,182.61,221.96,182.61z"/>
				</g>
			</g>
			<g>
				<path class="st11" d="M151.79,225.9l-6.71-6.71c-0.96-0.96-0.96-2.53,0-3.49l0,0c0.96-0.96,2.53-0.97,3.49,0l3.92,3.92
					c0.5,0.5,1.31,0.47,1.77-0.06l9.03-10.43c0.89-1.03,2.45-1.14,3.49-0.25l0,0c1.03,0.89,1.14,2.45,0.25,3.49l-11.62,13.43
					C154.46,226.86,152.8,226.92,151.79,225.9z"/>
				<g>
					<path class="st12" d="M241.47,214.21h-60.93c-1.52,0-2.75-1.01-2.75-2.25l0,0c0-1.24,1.23-2.25,2.75-2.25h60.93
						c1.52,0,2.75,1.01,2.75,2.25l0,0C244.22,213.2,242.99,214.21,241.47,214.21z"/>
					<path class="st12" d="M229.68,225.28h-49.14c-1.52,0-2.75-1.01-2.75-2.25v0c0-1.24,1.23-2.25,2.75-2.25h49.14
						c1.52,0,2.75,1.01,2.75,2.25v0C232.43,224.28,231.2,225.28,229.68,225.28z"/>
				</g>
			</g>
			<g>
				<defs>
					<circle id="SVGID_00000129176701197884547570000000210030073816994197_" cx="162.63" cy="118.8" r="24.85"/>
				</defs>
				<use xlink:href="#SVGID_00000129176701197884547570000000210030073816994197_"  style="overflow:visible;fill:#E6F1FF;"/>
				<clipPath id="SVGID_00000168089134165476687270000016128881138446305976_">
					<use xlink:href="#SVGID_00000129176701197884547570000000210030073816994197_"  style="overflow:visible;"/>
				</clipPath>
				<g style="clip-path:url(#SVGID_00000168089134165476687270000016128881138446305976_);">
					<g>
						<g>
							<defs>
								<ellipse id="SVGID_00000147207401163567832730000014274348721010353578_" cx="162.63" cy="149.6" rx="24.16" ry="25.65"/>
							</defs>
							<use xlink:href="#SVGID_00000147207401163567832730000014274348721010353578_"  style="overflow:visible;fill:#399EFF;"/>
							<clipPath id="SVGID_00000172407157971452584030000002485849427331864755_">
								<use xlink:href="#SVGID_00000147207401163567832730000014274348721010353578_"  style="overflow:visible;"/>
							</clipPath>
							<polygon style="clip-path:url(#SVGID_00000172407157971452584030000002485849427331864755_);fill:#399EFF;" points="
								141.22,123.95 138.47,124 138.47,123.95 							"/>
							<polygon style="clip-path:url(#SVGID_00000172407157971452584030000002485849427331864755_);fill:#399EFF;" points="
								170.73,123.95 138.47,124.5 138.47,124 141.22,123.95 							"/>
							<polygon style="clip-path:url(#SVGID_00000172407157971452584030000002485849427331864755_);fill:#399EFF;" points="
								186.79,124.18 138.47,125.01 138.47,124.5 170.73,123.95 186.79,123.95 							"/>
							<polygon style="clip-path:url(#SVGID_00000172407157971452584030000002485849427331864755_);fill:#399EFF;" points="
								186.79,124.69 138.47,125.52 138.47,125.01 186.79,124.18 							"/>
							<polygon style="clip-path:url(#SVGID_00000172407157971452584030000002485849427331864755_);fill:#399EFF;" points="
								186.79,125.2 138.47,126.03 138.47,125.52 186.79,124.69 							"/>
							<polygon style="clip-path:url(#SVGID_00000172407157971452584030000002485849427331864755_);fill:#399EFF;" points="
								186.79,125.7 138.47,126.53 138.47,126.03 186.79,125.2 							"/>
							<polygon style="clip-path:url(#SVGID_00000172407157971452584030000002485849427331864755_);fill:#399EFF;" points="
								186.79,126.21 138.47,127.04 138.47,126.53 186.79,125.7 							"/>
							<polygon style="clip-path:url(#SVGID_00000172407157971452584030000002485849427331864755_);fill:#399EFF;" points="
								186.79,126.72 138.47,127.55 138.47,127.04 186.79,126.21 							"/>
							<polygon style="clip-path:url(#SVGID_00000172407157971452584030000002485849427331864755_);fill:#399EFF;" points="
								186.79,127.22 138.47,128.05 138.47,127.55 186.79,126.72 							"/>
							<polygon style="clip-path:url(#SVGID_00000172407157971452584030000002485849427331864755_);fill:#399EFF;" points="
								186.79,127.73 138.47,128.56 138.47,128.05 186.79,127.22 							"/>
							<polygon style="clip-path:url(#SVGID_00000172407157971452584030000002485849427331864755_);fill:#399EFF;" points="
								186.79,128.24 138.47,129.07 138.47,128.56 186.79,127.73 							"/>
							<polygon style="clip-path:url(#SVGID_00000172407157971452584030000002485849427331864755_);fill:#399EFF;" points="
								186.79,128.74 138.47,129.57 138.47,129.07 186.79,128.24 							"/>
							<polygon style="clip-path:url(#SVGID_00000172407157971452584030000002485849427331864755_);fill:#399EFF;" points="
								186.79,129.25 138.47,130.08 138.47,129.57 186.79,128.74 							"/>
							<polygon style="clip-path:url(#SVGID_00000172407157971452584030000002485849427331864755_);fill:#399EFF;" points="
								186.79,129.76 138.47,130.59 138.47,130.08 186.79,129.25 							"/>
							<polygon style="clip-path:url(#SVGID_00000172407157971452584030000002485849427331864755_);fill:#399EFF;" points="
								186.79,130.26 138.47,131.09 138.47,130.59 186.79,129.76 							"/>
							<polygon style="clip-path:url(#SVGID_00000172407157971452584030000002485849427331864755_);fill:#399EFF;" points="
								186.79,130.77 138.47,131.6 138.47,131.09 186.79,130.26 							"/>
							<polygon style="clip-path:url(#SVGID_00000172407157971452584030000002485849427331864755_);fill:#399EFF;" points="
								186.79,131.28 138.47,132.11 138.47,131.6 186.79,130.77 							"/>
							<polygon style="clip-path:url(#SVGID_00000172407157971452584030000002485849427331864755_);fill:#399EFF;" points="
								186.79,131.78 138.47,132.61 138.47,132.11 186.79,131.28 							"/>
							<polygon style="clip-path:url(#SVGID_00000172407157971452584030000002485849427331864755_);fill:#399EFF;" points="
								186.79,132.29 138.47,133.12 138.47,132.61 186.79,131.78 							"/>
							<polygon style="clip-path:url(#SVGID_00000172407157971452584030000002485849427331864755_);fill:#399EFF;" points="
								186.79,132.8 138.47,133.63 138.47,133.12 186.79,132.29 							"/>
							<polygon style="clip-path:url(#SVGID_00000172407157971452584030000002485849427331864755_);fill:#399EFF;" points="
								186.79,133.3 138.47,134.13 138.47,133.63 186.79,132.8 							"/>
							<polygon style="clip-path:url(#SVGID_00000172407157971452584030000002485849427331864755_);fill:#399EFF;" points="
								186.79,133.81 138.47,134.64 138.47,134.13 186.79,133.3 							"/>
							<polygon style="clip-path:url(#SVGID_00000172407157971452584030000002485849427331864755_);fill:#399EFF;" points="
								186.79,134.32 138.47,135.15 138.47,134.64 186.79,133.81 							"/>
							<polygon style="clip-path:url(#SVGID_00000172407157971452584030000002485849427331864755_);fill:#399EFF;" points="
								186.79,134.82 138.47,135.65 138.47,135.15 186.79,134.32 							"/>
							<polygon style="clip-path:url(#SVGID_00000172407157971452584030000002485849427331864755_);fill:#399EFF;" points="
								186.79,135.33 138.47,136.16 138.47,135.65 186.79,134.82 							"/>
							<polygon style="clip-path:url(#SVGID_00000172407157971452584030000002485849427331864755_);fill:#399EFF;" points="
								186.79,135.84 138.47,136.67 138.47,136.16 186.79,135.33 							"/>
							<polygon style="clip-path:url(#SVGID_00000172407157971452584030000002485849427331864755_);fill:#399EFF;" points="
								186.79,136.34 138.47,137.17 138.47,136.67 186.79,135.84 							"/>
							<polygon style="clip-path:url(#SVGID_00000172407157971452584030000002485849427331864755_);fill:#399EFF;" points="
								186.79,136.85 138.47,137.68 138.47,137.17 186.79,136.34 							"/>
							<polygon style="clip-path:url(#SVGID_00000172407157971452584030000002485849427331864755_);fill:#399EFF;" points="
								186.79,137.36 138.47,138.19 138.47,137.68 186.79,136.85 							"/>
							<polygon style="clip-path:url(#SVGID_00000172407157971452584030000002485849427331864755_);fill:#399EFF;" points="
								186.79,137.86 138.47,138.69 138.47,138.19 186.79,137.36 							"/>
							<polygon style="clip-path:url(#SVGID_00000172407157971452584030000002485849427331864755_);fill:#399EFF;" points="
								186.79,138.37 138.47,139.2 138.47,138.69 186.79,137.86 							"/>
							<polygon style="clip-path:url(#SVGID_00000172407157971452584030000002485849427331864755_);fill:#399EFF;" points="
								186.79,138.88 138.47,139.71 138.47,139.2 186.79,138.37 							"/>
							<polygon style="clip-path:url(#SVGID_00000172407157971452584030000002485849427331864755_);fill:#399EFF;" points="
								186.79,139.38 138.47,140.21 138.47,139.71 186.79,138.88 							"/>
							<polygon style="clip-path:url(#SVGID_00000172407157971452584030000002485849427331864755_);fill:#399EFF;" points="
								186.79,139.89 138.47,140.72 138.47,140.21 186.79,139.38 							"/>
							<polygon style="clip-path:url(#SVGID_00000172407157971452584030000002485849427331864755_);fill:#399EFF;" points="
								186.79,140.4 138.47,141.23 138.47,140.72 186.79,139.89 							"/>
							<polygon style="clip-path:url(#SVGID_00000172407157971452584030000002485849427331864755_);fill:#399EFF;" points="
								186.79,140.9 138.47,141.73 138.47,141.23 186.79,140.4 							"/>
							<polygon style="clip-path:url(#SVGID_00000172407157971452584030000002485849427331864755_);fill:#399EFF;" points="
								186.79,141.41 138.47,142.24 138.47,141.73 186.79,140.9 							"/>
							<polygon style="clip-path:url(#SVGID_00000172407157971452584030000002485849427331864755_);fill:#399EFF;" points="
								186.79,141.92 138.47,142.75 138.47,142.24 186.79,141.41 							"/>
							<polygon style="clip-path:url(#SVGID_00000172407157971452584030000002485849427331864755_);fill:#399EFF;" points="
								186.79,142.42 138.47,143.25 138.47,142.75 186.79,141.92 							"/>
							<polygon style="clip-path:url(#SVGID_00000172407157971452584030000002485849427331864755_);fill:#399EFF;" points="
								186.79,142.93 138.47,143.76 138.47,143.25 186.79,142.42 							"/>
							<polygon style="clip-path:url(#SVGID_00000172407157971452584030000002485849427331864755_);fill:#399EFF;" points="
								186.79,143.44 138.47,144.27 138.47,143.76 186.79,142.93 							"/>
							<polygon style="clip-path:url(#SVGID_00000172407157971452584030000002485849427331864755_);fill:#399EFF;" points="
								186.79,143.94 138.47,144.77 138.47,144.27 186.79,143.44 							"/>
							<polygon style="clip-path:url(#SVGID_00000172407157971452584030000002485849427331864755_);fill:#399EFF;" points="
								186.79,144.45 138.47,145.28 138.47,144.77 186.79,143.94 							"/>
							<polygon style="clip-path:url(#SVGID_00000172407157971452584030000002485849427331864755_);fill:#399EFF;" points="
								186.79,144.96 138.47,145.79 138.47,145.28 186.79,144.45 							"/>
							<polygon style="clip-path:url(#SVGID_00000172407157971452584030000002485849427331864755_);fill:#399EFF;" points="
								186.79,145.46 138.47,146.29 138.47,145.79 186.79,144.96 							"/>
							<polygon style="clip-path:url(#SVGID_00000172407157971452584030000002485849427331864755_);fill:#399EFF;" points="
								186.79,145.97 138.47,146.8 138.47,146.29 186.79,145.46 							"/>
							<polygon style="clip-path:url(#SVGID_00000172407157971452584030000002485849427331864755_);fill:#399EFF;" points="
								186.79,146.48 138.47,147.31 138.47,146.8 186.79,145.97 							"/>
							<polygon style="clip-path:url(#SVGID_00000172407157971452584030000002485849427331864755_);fill:#399EFF;" points="
								138.47,147.31 186.79,146.48 186.79,175.25 138.47,175.25 							"/>
						</g>
					</g>
					<g>
						<g>
							<defs>
								<circle id="SVGID_00000106836547568928304510000013746410958556999602_" cx="162.34" cy="114.85" r="7.39"/>
							</defs>
							<use xlink:href="#SVGID_00000106836547568928304510000013746410958556999602_"  style="overflow:visible;fill:#399EFF;"/>
							<clipPath id="SVGID_00000097491367037706846800000017869498568439683747_">
								<use xlink:href="#SVGID_00000106836547568928304510000013746410958556999602_"  style="overflow:visible;"/>
							</clipPath>
							<polygon style="clip-path:url(#SVGID_00000097491367037706846800000017869498568439683747_);fill:#399EFF;" points="
								157.2,107.46 154.96,107.5 154.96,107.46 							"/>
							<polygon style="clip-path:url(#SVGID_00000097491367037706846800000017869498568439683747_);fill:#399EFF;" points="
								169.73,107.75 154.96,108.01 154.96,107.5 157.2,107.46 169.73,107.46 							"/>
							<polygon style="clip-path:url(#SVGID_00000097491367037706846800000017869498568439683747_);fill:#399EFF;" points="
								169.73,108.26 154.96,108.51 154.96,108.01 169.73,107.75 							"/>
							<polygon style="clip-path:url(#SVGID_00000097491367037706846800000017869498568439683747_);fill:#399EFF;" points="
								169.73,108.77 154.96,109.02 154.96,108.51 169.73,108.26 							"/>
							<polygon style="clip-path:url(#SVGID_00000097491367037706846800000017869498568439683747_);fill:#399EFF;" points="
								169.73,109.27 154.96,109.53 154.96,109.02 169.73,108.77 							"/>
							<polygon style="clip-path:url(#SVGID_00000097491367037706846800000017869498568439683747_);fill:#399EFF;" points="
								169.73,109.78 154.96,110.03 154.96,109.53 169.73,109.27 							"/>
							<polygon style="clip-path:url(#SVGID_00000097491367037706846800000017869498568439683747_);fill:#399EFF;" points="
								169.73,110.29 154.96,110.54 154.96,110.03 169.73,109.78 							"/>
							<polygon style="clip-path:url(#SVGID_00000097491367037706846800000017869498568439683747_);fill:#399EFF;" points="
								169.73,110.79 154.96,111.05 154.96,110.54 169.73,110.29 							"/>
							<polygon style="clip-path:url(#SVGID_00000097491367037706846800000017869498568439683747_);fill:#399EFF;" points="
								169.73,111.3 154.96,111.55 154.96,111.05 169.73,110.79 							"/>
							<polygon style="clip-path:url(#SVGID_00000097491367037706846800000017869498568439683747_);fill:#399EFF;" points="
								169.73,111.81 154.96,112.06 154.96,111.55 169.73,111.3 							"/>
							<polygon style="clip-path:url(#SVGID_00000097491367037706846800000017869498568439683747_);fill:#399EFF;" points="
								169.73,112.31 154.96,112.57 154.96,112.06 169.73,111.81 							"/>
							<polygon style="clip-path:url(#SVGID_00000097491367037706846800000017869498568439683747_);fill:#399EFF;" points="
								169.73,112.82 154.96,113.07 154.96,112.57 169.73,112.31 							"/>
							<polygon style="clip-path:url(#SVGID_00000097491367037706846800000017869498568439683747_);fill:#399EFF;" points="
								169.73,113.33 154.96,113.58 154.96,113.07 169.73,112.82 							"/>
							<polygon style="clip-path:url(#SVGID_00000097491367037706846800000017869498568439683747_);fill:#399EFF;" points="
								169.73,113.83 154.96,114.09 154.96,113.58 169.73,113.33 							"/>
							<polygon style="clip-path:url(#SVGID_00000097491367037706846800000017869498568439683747_);fill:#399EFF;" points="
								169.73,114.34 154.96,114.59 154.96,114.09 169.73,113.83 							"/>
							<polygon style="clip-path:url(#SVGID_00000097491367037706846800000017869498568439683747_);fill:#399EFF;" points="
								169.73,114.85 154.96,115.1 154.96,114.59 169.73,114.34 							"/>
							<polygon style="clip-path:url(#SVGID_00000097491367037706846800000017869498568439683747_);fill:#399EFF;" points="
								169.73,115.35 154.96,115.61 154.96,115.1 169.73,114.85 							"/>
							<polygon style="clip-path:url(#SVGID_00000097491367037706846800000017869498568439683747_);fill:#399EFF;" points="
								169.73,115.86 154.96,116.11 154.96,115.61 169.73,115.35 							"/>
							<polygon style="clip-path:url(#SVGID_00000097491367037706846800000017869498568439683747_);fill:#399EFF;" points="
								169.73,116.37 154.96,116.62 154.96,116.11 169.73,115.86 							"/>
							<polygon style="clip-path:url(#SVGID_00000097491367037706846800000017869498568439683747_);fill:#399EFF;" points="
								169.73,116.87 154.96,117.13 154.96,116.62 169.73,116.37 							"/>
							<polygon style="clip-path:url(#SVGID_00000097491367037706846800000017869498568439683747_);fill:#399EFF;" points="
								169.73,117.38 154.96,117.63 154.96,117.13 169.73,116.87 							"/>
							<polygon style="clip-path:url(#SVGID_00000097491367037706846800000017869498568439683747_);fill:#399EFF;" points="
								169.73,117.89 154.96,118.14 154.96,117.63 169.73,117.38 							"/>
							<polygon style="clip-path:url(#SVGID_00000097491367037706846800000017869498568439683747_);fill:#399EFF;" points="
								169.73,118.39 154.96,118.65 154.96,118.14 169.73,117.89 							"/>
							<polygon style="clip-path:url(#SVGID_00000097491367037706846800000017869498568439683747_);fill:#399EFF;" points="
								169.73,118.9 154.96,119.15 154.96,118.65 169.73,118.39 							"/>
							<polygon style="clip-path:url(#SVGID_00000097491367037706846800000017869498568439683747_);fill:#399EFF;" points="
								169.73,119.41 154.96,119.66 154.96,119.15 169.73,118.9 							"/>
							<polygon style="clip-path:url(#SVGID_00000097491367037706846800000017869498568439683747_);fill:#399EFF;" points="
								169.73,119.91 154.96,120.17 154.96,119.66 169.73,119.41 							"/>
							<polygon style="clip-path:url(#SVGID_00000097491367037706846800000017869498568439683747_);fill:#399EFF;" points="
								169.73,120.42 154.96,120.67 154.96,120.17 169.73,119.91 							"/>
							<polygon style="clip-path:url(#SVGID_00000097491367037706846800000017869498568439683747_);fill:#399EFF;" points="
								169.73,120.93 154.96,121.18 154.96,120.67 169.73,120.42 							"/>
							<polygon style="clip-path:url(#SVGID_00000097491367037706846800000017869498568439683747_);fill:#399EFF;" points="
								169.73,121.43 154.96,121.69 154.96,121.18 169.73,120.93 							"/>
							<polygon style="clip-path:url(#SVGID_00000097491367037706846800000017869498568439683747_);fill:#399EFF;" points="
								169.73,121.94 154.96,122.19 154.96,121.69 169.73,121.43 							"/>
							<polygon style="clip-path:url(#SVGID_00000097491367037706846800000017869498568439683747_);fill:#399EFF;" points="
								154.96,122.19 169.73,121.94 169.73,122.23 154.96,122.23 							"/>
						</g>
					</g>
				</g>
			</g>
		</g>
	</g>
</g>
<g>
	<g class="st9">
		<path class="st1" d="M377.24,230.36l-119.29-8.34c-2.36-0.16-4.13-2.21-3.97-4.57l4.96-71c0.16-2.36,2.21-4.13,4.57-3.97
			l119.28,8.34c2.36,0.16,4.13,2.21,3.97,4.57l-4.96,71C381.63,228.74,379.6,230.52,377.24,230.36z"/>
		<path class="st1" d="M377.23,230.49l-119.29-8.34c-2.43-0.17-4.27-2.29-4.1-4.71l4.96-71c0.17-2.43,2.29-4.27,4.71-4.1
			l119.28,8.34c2.43,0.17,4.27,2.29,4.1,4.71l-4.96,71C381.78,228.82,379.66,230.66,377.23,230.49z M263.5,142.62
			c-2.27-0.16-4.24,1.55-4.4,3.82l-4.96,71c-0.16,2.27,1.55,4.24,3.82,4.4l119.28,8.34c2.27,0.16,4.24-1.55,4.4-3.82l4.96-70.98
			c0.16-2.27-1.55-4.24-3.82-4.4l-119.28-8.34L263.5,142.62z"/>
	</g>
	<g class="st16">
		<path class="st17" d="M381.24,226.36l-119.29-8.34c-2.36-0.16-4.13-2.21-3.97-4.57l4.96-71c0.16-2.36,2.21-4.13,4.57-3.97
			l119.28,8.34c2.36,0.16,4.13,2.21,3.97,4.57l-4.96,71C385.63,224.74,383.6,226.52,381.24,226.36z"/>
		<path class="st17" d="M381.23,226.49l-119.29-8.34c-2.43-0.17-4.27-2.29-4.1-4.71l4.96-71c0.17-2.43,2.29-4.27,4.71-4.1
			l119.28,8.34c2.43,0.17,4.27,2.29,4.1,4.71l-4.96,71C385.78,224.82,383.66,226.66,381.23,226.49z M267.5,138.62
			c-2.27-0.16-4.24,1.55-4.4,3.82l-4.96,71c-0.16,2.27,1.55,4.24,3.82,4.4l119.28,8.34c2.27,0.16,4.24-1.55,4.4-3.82l4.96-70.98
			c0.16-2.27-1.55-4.24-3.82-4.4l-119.28-8.34L267.5,138.62z"/>
	</g>
	<g>
		<path class="st18" d="M377.28,221.79l-110.76-7.75c-2.36-0.16-4.13-2.21-3.97-4.57l4.37-62.48c0.16-2.34,2.21-4.12,4.56-3.95
			l110.76,7.75c2.36,0.16,4.13,2.21,3.97,4.57l-4.37,62.48C381.68,220.18,379.63,221.95,377.28,221.79z"/>
		<path class="st17" d="M377.27,221.93l-110.76-7.75c-2.43-0.17-4.27-2.29-4.1-4.71l4.37-62.48c0.17-2.43,2.29-4.27,4.71-4.1
			l110.76,7.75c2.43,0.17,4.27,2.29,4.1,4.71l-4.37,62.48C381.81,220.27,379.69,222.1,377.27,221.93z M271.47,143.19
			c-2.27-0.16-4.24,1.55-4.4,3.82l-4.37,62.48c-0.16,2.27,1.55,4.24,3.82,4.4l110.76,7.75c2.27,0.16,4.24-1.55,4.4-3.82l4.37-62.48
			c0.16-2.27-1.55-4.24-3.82-4.4C382.23,150.93,271.47,143.19,271.47,143.19z"/>
	</g>
	<g>
		<path class="st19" d="M276.82,153.49l23.42,1.64l-1.09,15.62l-23.42-1.64L276.82,153.49z"/>
		<path class="st20" d="M276.82,153.49l11.72,0.82l-0.55,7.81l-11.72-0.82L276.82,153.49z"/>
		<g>
			<path class="st10" d="M283.6,156.64l0.44-1.28l-1.03,0.9C283.24,156.34,283.44,156.47,283.6,156.64z"/>
			<path class="st10" d="M281.25,156.6l-1.28-0.44l0.9,1.03C280.95,156.96,281.09,156.76,281.25,156.6z"/>
			<path class="st10" d="M282.51,156.13c0.12,0.01,0.24,0.03,0.34,0.06l-0.25-1.33l-0.44,1.28
				C282.27,156.13,282.39,156.12,282.51,156.13z"/>
			<path class="st10" d="M284.02,157.4l1.03-0.9l-1.33,0.25C283.86,156.95,283.96,157.17,284.02,157.4z"/>
			<path class="st10" d="M285.32,157.99l-1.28-0.44c0.01,0.12,0.02,0.23,0.01,0.35c-0.01,0.12-0.03,0.24-0.06,0.34L285.32,157.99z"
				/>
			<path class="st10" d="M282.01,156.18l-0.9-1.03l0.25,1.33C281.55,156.34,281.76,156.24,282.01,156.18z"/>
			<path class="st10" d="M282.28,159.45c-0.12-0.01-0.24-0.03-0.34-0.06l0.25,1.33l0.44-1.28
				C282.52,159.45,282.4,159.46,282.28,159.45z"/>
			<path class="st10" d="M282.8,159.4l0.9,1.03l-0.25-1.33C283.25,159.24,283.03,159.35,282.8,159.4z"/>
			<path class="st10" d="M280.75,157.67c0.01-0.12,0.03-0.24,0.06-0.34l-1.33,0.25l1.28,0.44
				C280.73,157.91,280.74,157.79,280.75,157.67z"/>
			<path class="st10" d="M283.56,158.99l1.28,0.44l-0.9-1.03C283.86,158.63,283.73,158.83,283.56,158.99z"/>
			<path class="st10" d="M280.78,158.19l-1.03,0.9l1.33-0.25C280.95,158.63,280.85,158.42,280.78,158.19z"/>
			<path class="st10" d="M281.19,158.94l-0.44,1.28l1.03-0.9C281.55,159.25,281.35,159.11,281.19,158.94z"/>
		</g>
		<circle class="st10" cx="282.4" cy="157.78" r="1.24"/>
	</g>
	<path class="st17" d="M277.02,179.18l45.17,3.16c1.1,0.08,1.93,1.03,1.85,2.13l0,0c-0.08,1.1-1.03,1.93-2.13,1.85l-45.17-3.16
		c-1.1-0.08-1.93-1.03-1.85-2.13l0,0C274.97,179.93,275.92,179.1,277.02,179.18z"/>
	<path class="st17" d="M276.28,189.83l45.17,3.16c1.1,0.08,1.93,1.03,1.85,2.13l0,0c-0.08,1.1-1.03,1.93-2.13,1.85L276,193.8
		c-1.1-0.08-1.93-1.03-1.85-2.13l0,0C274.23,190.58,275.18,189.75,276.28,189.83z"/>
	<path class="st17" d="M275.53,200.48l51.12,3.57c1.1,0.08,1.93,1.03,1.85,2.13l0,0c-0.08,1.1-1.03,1.93-2.13,1.85l-51.12-3.57
		c-1.1-0.08-1.93-1.03-1.85-2.13l0,0C273.48,201.23,274.43,200.4,275.53,200.48z"/>
	<path class="st21" d="M338.12,207.43l32.66,2.28c0.47,0.03,0.83,0.44,0.79,0.91l0,0c-0.03,0.47-0.44,0.83-0.91,0.79L338,209.14
		c-0.47-0.03-0.83-0.44-0.79-0.91v0C337.24,207.75,337.65,207.4,338.12,207.43z"/>
	<path class="st21" d="M338.58,200.89l22.15,1.55c0.47,0.03,0.83,0.44,0.79,0.91v0c-0.03,0.47-0.44,0.83-0.91,0.79l-22.15-1.55
		c-0.47-0.03-0.83-0.44-0.79-0.91l0,0C337.7,201.22,338.11,200.86,338.58,200.89z"/>
	<g>
		<circle class="st21" cx="357.08" cy="168.59" r="6.22"/>
		<path class="st21" d="M371.56,191.99c-1.1-8.51-7.09-15.2-14.78-15.74c-7.68-0.54-14.55,5.26-16.82,13.53L371.56,191.99z"/>
	</g>
</g>
<g>
	<path class="st22" d="M341.46,287.37l-107.41-11.29c-2.11-0.22-3.65-2.13-3.43-4.23l6.72-63.94c0.22-2.11,2.13-3.65,4.23-3.43
		l107.38,11.29c2.11,0.22,3.65,2.13,3.43,4.23l-6.72,63.91C345.47,286.05,343.57,287.59,341.46,287.37z"/>
	<path class="st23" d="M345.46,283.37l-107.41-11.29c-2.11-0.22-3.65-2.13-3.43-4.23l6.72-63.94c0.22-2.11,2.13-3.65,4.23-3.43
		l107.38,11.29c2.11,0.22,3.65,2.13,3.43,4.23l-6.72,63.91C349.47,282.05,347.57,283.59,345.46,283.37z"/>
	<g>
		<path class="st24" d="M271.61,222.05c-0.55,5.27-5.27,9.09-10.54,8.53c-5.27-0.55-9.09-5.27-8.53-10.54
			c0.55-5.27,5.27-9.09,10.54-8.53C268.37,212.1,272.17,216.78,271.61,222.05z M262.85,213.97c-3.92-0.41-7.44,2.44-7.85,6.36
			c-0.41,3.92,2.44,7.44,6.36,7.85c3.92,0.41,7.44-2.44,7.85-6.36C269.6,217.87,266.77,214.38,262.85,213.97z"/>
		<path class="st25" d="M259.73,218.08l0.03,0l1.17,0.12l0.11-1.05c0.01-0.06,0.01-0.12,0.02-0.18c0.07-0.67-0.43-1.26-1.07-1.33
			c-0.64-0.07-1.22,0.37-1.32,1.01l0,0l-0.13,1.26l1.17,0.12C259.7,218.08,259.7,218.08,259.73,218.08z M265.01,218.72
			c0.67,0.07,1.26-0.43,1.33-1.07c0.07-0.67-0.43-1.26-1.07-1.33c-0.67-0.07-1.26,0.43-1.33,1.07
			C263.87,218.04,264.34,218.65,265.01,218.72z M265,218.87c-0.94-0.1-1.78,0.58-1.9,1.49l-1.87-0.2c0-0.03,0.01-0.06,0.01-0.06
			c0.1-0.94-0.58-1.81-1.54-1.91c-0.94-0.1-1.81,0.58-1.91,1.54c-0.01,0.06-0.01,0.12-0.02,0.2l-0.51,4.83l3.39,0.36l0.34-3.28
			l1.9,0.2l-0.36,3.39l3.39,0.36l0.51-4.86c0.01-0.06,0.01-0.12,0.02-0.2C266.64,219.81,265.93,218.97,265,218.87L265,218.87z"/>
		<g>
			<path class="st10" d="M254.4,220.39l-1.2-0.13l-0.02,0.18l0.85,0.09l-0.89,0.32l-0.02,0.18l1.2,0.13l0.02-0.18l-0.85-0.09
				l0.89-0.32L254.4,220.39z M253.24,222.37l1.17-0.44l-0.01-0.18l-1.25-0.25l0.01,0.18l0.23,0.05l0.02,0.36l-0.25,0.09
				L253.24,222.37z M254.15,221.87l-0.49,0.16l-0.03-0.24L254.15,221.87z M254.54,222.71l-0.06-0.3l-0.21,0.04l0.06,0.3l-0.97,0.19
				l0.04,0.15l0.97-0.19l0.06,0.27l0.21-0.04L254.54,222.71z M254.73,223.44l-1.13,0.38l0.04,0.15l1.13-0.38L254.73,223.44z
				 M255.01,224.15c-0.07-0.16-0.22-0.17-0.44-0.08c-0.06,0.02-0.37,0.17-0.44,0.22c-0.22,0.1-0.29,0.24-0.22,0.39
				c0.02,0.06,0.14,0.31,0.14,0.31c0.07,0.16,0.22,0.17,0.44,0.08c0.06-0.02,0.37-0.17,0.43-0.19c0.22-0.1,0.29-0.24,0.22-0.39
				C255.1,224.39,255.03,224.18,255.01,224.15z M254.27,224.4c0,0,0.22-0.1,0.28-0.12c0.13-0.08,0.24-0.06,0.29,0.03
				c0.03,0.03,0.07,0.16,0.07,0.18c0.05,0.09-0.02,0.18-0.17,0.25c-0.03,0.03-0.22,0.1-0.28,0.12c-0.13,0.08-0.24,0.06-0.29-0.03
				c-0.03-0.03-0.07-0.16-0.07-0.18C254.08,224.52,254.15,224.44,254.27,224.4L254.27,224.4z M255.42,224.99l-0.99,0.69l0.1,0.13
				l0.7-0.49l-0.47,0.84l0.1,0.13l0.99-0.69l-0.1-0.13l-0.7,0.49l0.47-0.84L255.42,224.99z M255.74,227.33l0.65-1.09l-0.13-0.13
				l-1.1,0.59l0.13,0.13l0.22-0.12l0.27,0.26l-0.14,0.22L255.74,227.33z M256.13,226.37l-0.25,0.42l-0.16-0.16L256.13,226.37z
				 M256.33,227.6l0.64-0.76l-0.14-0.1l-0.78,0.92l0.49,0.44l0.14-0.16L256.33,227.6z M258.18,228.53l-0.25,0.45l0.14,0.07
				l0.61-1.06l-0.14-0.07l-0.25,0.45l-0.36-0.22l0.25-0.45l-0.14-0.07l-0.61,1.06l0.14,0.07l0.25-0.45L258.18,228.53z
				 M258.69,229.33l0.51,0.23l0.08-0.2l-0.51-0.23l0.12-0.25l0.45,0.2l0.08-0.17l-0.45-0.2l0.12-0.25l0.48,0.23l0.08-0.2l-0.65-0.28
				l-0.47,1.1L258.69,229.33z M260.47,229.87l-0.02-1.24l-0.17-0.05l-0.65,1.09l0.17,0.05l0.11-0.22l0.34,0.1l0,0.24L260.47,229.87z
				 M260.31,228.85l0,0.53l-0.26-0.06L260.31,228.85z M261.1,229.73l0.1-0.99l-0.18-0.02l-0.13,1.2l0.64,0.07l0.02-0.2L261.1,229.73
				z M262.09,228.8l-0.3,0l0,0.24l0.3,0l-0.01,0.97l0.18-0.01l0.01-0.97l0.3,0l0-0.24L262.09,228.8z M263.56,229.4l0.07,0.48
				l0.18-0.01l-0.17-1.2l-0.18,0.01l0.07,0.48l-0.42,0.07l-0.07-0.48l-0.18,0.01l0.17,1.2l0.18-0.01l-0.07-0.48L263.56,229.4z
				 M264.47,228.43l0.35,1.16l0.15-0.04l-0.35-1.16L264.47,228.43z M264.95,228.27l0.51,1.09l0.16-0.07l-0.36-0.78l0.76,0.61
				l0.16-0.07l-0.51-1.09l-0.16,0.07l0.36,0.78l-0.73-0.61L264.95,228.27z M266.65,227.92c-0.06,0.05-0.16,0.1-0.25,0.15
				c-0.03,0.03-0.09-0.01-0.11-0.07c-0.05-0.06-0.08-0.13-0.04-0.15c0.06-0.02,0.16-0.1,0.22-0.12c0.03-0.03,0.09,0.01,0.14,0.07
				l0.13-0.1c-0.08-0.13-0.1-0.16-0.16-0.19s-0.11-0.04-0.15,0.01c-0.06,0.05-0.25,0.15-0.26,0.18c-0.16,0.1-0.17,0.22-0.07,0.38
				c0,0,0.05,0.09,0.08,0.13c0.1,0.16,0.19,0.17,0.32,0.09c0.09-0.05,0.16-0.1,0.25-0.15c0.03-0.03,0.09-0.02,0.11,0.04
				c0.05,0.09,0.1,0.19,0.07,0.21c-0.06,0.02-0.19,0.1-0.22,0.15c-0.03,0.03-0.06-0.01-0.11-0.07c0,0-0.03-0.03-0.02-0.06l-0.13,0.1
				c0.03,0.03,0.05,0.09,0.08,0.13c0.1,0.13,0.16,0.16,0.25,0.12c0.06-0.05,0.13-0.08,0.16-0.1c0.03-0.03,0.09-0.05,0.16-0.1
				c0.1-0.08,0.11-0.17,0-0.32c-0.03-0.03-0.08-0.13-0.1-0.16C266.86,227.85,266.77,227.84,266.65,227.92L266.65,227.92z
				 M266.84,227.2l0.52,0.65c0.16,0.19,0.33,0.24,0.46,0.11c0.03-0.03,0.13-0.1,0.13-0.1c0.16-0.13,0.15-0.28-0.01-0.47l-0.52-0.65
				l-0.13,0.1l0.5,0.61c0.08,0.1,0.1,0.19,0.03,0.24c-0.03,0.03-0.1,0.08-0.13,0.1c-0.06,0.05-0.15,0.04-0.23-0.08l-0.5-0.61
				L266.84,227.2z M268.74,226.57l0.24,0.2l0.1-0.14l-0.24-0.2c-0.06-0.04-0.11-0.07-0.17-0.08c-0.02-0.06-0.08-0.13-0.16-0.19
				c-0.03,0-0.11-0.07-0.11-0.1c-0.16-0.14-0.28-0.15-0.35-0.04c-0.03,0.03-0.37,0.43-0.37,0.43l0.92,0.78l0.1-0.14l-0.33-0.27
				l0.2-0.22c0.03-0.03,0.06-0.05,0.09-0.05C268.66,226.53,268.72,226.54,268.74,226.57L268.74,226.57z M268.15,226.24
				c0-0.03,0.03-0.03,0.04-0.06c0.03-0.03,0.09-0.02,0.17,0.05c0.08,0.07,0.1,0.13,0.07,0.16c-0.03,0.03-0.24,0.27-0.24,0.27
				l-0.24-0.2L268.15,226.24z M269.85,225.59l-1.2-0.39l-0.11,0.17l0.82,0.94l0.1-0.14l-0.16-0.19l0.21-0.3l0.23,0.08L269.85,225.59
				z M268.8,225.42l0.46,0.17l-0.14,0.19L268.8,225.42z M268.97,224.7l1.1,0.53l0.07-0.14l-0.79-0.38l0.98-0.02l0.07-0.14l-1.1-0.53
				l-0.07,0.14l0.79,0.38l-0.95-0.01L268.97,224.7z M269.92,222.97c-0.17-0.05-0.3,0-0.34,0.17c-0.01,0.06-0.09,0.26-0.09,0.32
				c-0.05,0.17,0.03,0.27,0.29,0.36c0.08,0.04,0.37,0.1,0.46,0.14c0.23,0.08,0.38,0.04,0.43-0.13c0.01-0.06,0.09-0.26,0.09-0.32
				c0.05-0.17-0.03-0.27-0.23-0.32c-0.06-0.01-0.08-0.04-0.14-0.04l-0.05,0.17c0.03,0,0.06,0.04,0.11,0.04
				c0.11,0.04,0.14,0.1,0.1,0.19c0,0.03-0.05,0.17-0.05,0.2c-0.04,0.08-0.13,0.1-0.27,0.06c-0.06-0.01-0.23-0.08-0.29-0.09
				c-0.14-0.04-0.22-0.11-0.19-0.2c0-0.03,0.04-0.14,0.05-0.2c0.04-0.08,0.1-0.14,0.19-0.1c0.03,0,0.03,0,0.06,0.01l0.05-0.17
				C269.98,222.97,269.98,222.97,269.92,222.97L269.92,222.97z M270.93,222.6l0.06-0.56l-0.2-0.02l-0.06,0.56l-0.29-0.03l0.05-0.5
				l-0.2-0.02l-0.05,0.5l-0.29-0.03l0.06-0.53l-0.2-0.02l-0.07,0.7l1.2,0.13L270.93,222.6z"/>
			<path class="st10" d="M269.41,217.44l-0.1-0.16l0.22-0.12l0.15,0.22l-0.19,0.1l-0.03,0
				C269.43,217.47,269.41,217.44,269.41,217.44L269.41,217.44z M268.92,216.71l-0.1-0.16l0.22-0.15l0.13,0.19l-0.19,0.13l-0.03,0
				C268.95,216.74,268.95,216.71,268.92,216.71L268.92,216.71z M268,216.2l0.13,0.19c0.05,0.06,0.08,0.1,0.14,0.1
				c0.03,0,0.09,0.01,0.12-0.02l0.44-0.28c0.03-0.03,0.03-0.03,0.04-0.06c0-0.03,0.01-0.06,0.01-0.12c0.03,0.03,0.06,0.04,0.11,0.04
				c0.03,0,0.06,0.01,0.09-0.02l0.51-0.33l-0.38-0.57l-1.49,0.97l0.12,0.22L268,216.2z M268.6,215.79l0.02,0.06
				c0.03,0.03,0.02,0.06,0.05,0.09c0,0.03,0,0.03,0,0.03l-0.41,0.25l-0.03,0l-0.03,0l-0.08-0.13L268.6,215.79z M269.18,215.41
				l0.1,0.16l-0.41,0.25l-0.03,0l-0.03-0.03l-0.08-0.1L269.18,215.41z M269.68,215.99l-0.08-0.04c-0.03,0-0.03-0.03-0.06-0.04
				c-0.03-0.03-0.03-0.03-0.05-0.06l-0.02-0.06l-0.13,0.1l0.1,0.16c0.02,0.06,0.05,0.06,0.08,0.1c0.03,0.03,0.2,0.05,0.26,0.09
				l0.38,0.6c-0.01,0.06-0.02,0.23-0.03,0.26c0.03,0.03,0.02,0.06,0.05,0.09l0.1,0.16l0.16-0.1l-0.05-0.06
				c-0.03-0.03-0.02-0.06-0.05-0.06c0-0.03-0.03-0.03-0.02-0.06l0.01-0.09l0.04-0.14l-0.51-0.79L269.68,215.99z M268.46,217.16
				l0.2,0.35l0,0l0,0c0.03,0.03,0.05,0.09,0.11,0.1c0.03,0.03,0.08,0.04,0.12,0.01l0.18-0.04l-0.11,0.22c0,0.03-0.04,0.06-0.04,0.08
				c0,0.03-0.01,0.06,0.02,0.06l0.1,0.16l0.13-0.08l-0.02-0.06l-0.03-0.03l0-0.03c0.08-0.17,0.07-0.14-0.02-0.33l0.15-0.04l0.08,0.1
				c0.02,0.06,0.08,0.1,0.11,0.1c0.03,0,0.06,0.01,0.09-0.02l0.38-0.26l-0.41-0.63l-0.48,0.3l0.1,0.16l-0.3,0.09
				c-0.03,0-0.03,0-0.06-0.01c0,0-0.03,0-0.03-0.03l-0.08-0.13l-0.02-0.06l-0.03-0.03l0-0.03c0.08-0.17,0.07-0.11,0-0.27l0.12-0.05
				l0.08,0.1c0.02,0.06,0.05,0.09,0.11,0.1c0.03,0,0.06,0.01,0.09-0.02l0.38-0.26l-0.41-0.6l-0.48,0.3l0.08,0.13l-0.28,0.09
				c-0.03,0-0.03,0-0.06-0.01c0,0-0.03,0-0.03-0.03l-0.05-0.06l-0.13,0.08l0.1,0.16c0.03,0.03,0.05,0.06,0.11,0.1
				c0.03,0,0.09,0.01,0.12,0.01l0.12-0.05l-0.07,0.14c0,0.03-0.04,0.06-0.01,0.09C268.43,217.13,268.46,217.16,268.46,217.16
				L268.46,217.16L268.46,217.16L268.46,217.16z M269.26,216.01l0.84,1.33l-0.13,0.08l-0.84-1.33L269.26,216.01z M260.43,211.91
				l-0.14,0.46c0,0.03-0.01,0.06-0.04,0.06c0,0.03-0.03,0.03-0.03,0.03l-0.09,0.02l0.01,0.21l0.18-0.01l0.08,1.19l0.27,0l-0.08-1.46
				l0.17-0.48L260.43,211.91z M261.26,211.94l0.01,0.15l0.39-0.02l0.01,0.15l-0.48,0.04l0.01,0.15l0.48-0.04l0.01,0.15l-0.39,0.02
				l0.01,0.15l0.39-0.02l0.01,0.15l-0.42,0.02l0.01,0.15l0.42-0.02l0.01,0.15l-0.48,0.04l0.01,0.15l0.48-0.04l0.02,0.09l0.3-0.03
				l-0.02-0.09l0.56-0.03l-0.01-0.15l-0.56,0.03l-0.01-0.15l0.51-0.04l-0.01-0.15l-0.51,0.04l-0.01-0.15l0.27,0
				c0.09,0.01,0.12-0.02,0.18-0.04c0.03-0.03,0.06-0.05,0.04-0.11l-0.01-0.15l0.15-0.01l-0.01-0.15l-0.15,0.01l-0.03-0.3l-0.51,0.04
				l-0.02-0.12l-0.3,0.03l0.02,0.12L261.26,211.94z M261.96,212.04l0.24,0l0.01,0.15l-0.24,0L261.96,212.04z M260.81,212.81
				L260.81,212.81l-0.01,0.12l0.06,0.01c0.03,0,0.03,0.03,0.02,0.06c0.01,0.15,0.03,0.3,0.04,0.45c0,0.03-0.01,0.06-0.01,0.06
				c0,0.03-0.03,0.03-0.06,0.02l-0.06-0.01l0.01,0.18l0.15-0.01c0.03,0,0.09-0.02,0.12-0.05c0.03-0.03,0.07-0.14,0.07-0.14
				c0.08,0.07,0.25,0.17,0.34,0.15l1.22-0.08l-0.01-0.18l-1.04,0.07c-0.12,0.02-0.54-0.2-0.53-0.26c-0.01-0.18-0.02-0.39-0.14-0.4
				c0.03,0,0.06-0.05,0.07-0.08l-0.05-0.69c0-0.03-0.02-0.06-0.08-0.07l-0.27,0l0.01,0.18l0.06,0.01c0.03,0,0.06,0.01,0.06,0.04
				l0.03,0.54C260.87,212.79,260.84,212.81,260.81,212.81L260.81,212.81z M261.98,212.37l0.24,0l0.02,0.12l0,0.03
				c0,0-0.03,0-0.06-0.01l-0.18,0.01L261.98,212.37z M257.69,213.84c0.53-0.24,1.06-0.51,1.59-0.75c0.06-0.02,0.09-0.05,0.13-0.1
				c0.03-0.03,0.01-0.09-0.02-0.12l-0.27-0.56l-2.02,0.97l0.7,1.46c0.02,0.06,0.05,0.06,0.11,0.1c0.03,0,0.09,0.01,0.15-0.04
				l0.84-0.41l-0.1-0.19l-0.72,0.34c-0.03,0-0.03,0.03-0.06,0.02c0,0-0.03,0-0.03-0.03l-0.17-0.34c0.34-0.17,0.72-0.34,1.06-0.51
				l0.56,0.3c0.05,0.06,0.17,0.05,0.24,0l0.31-0.14l-0.1-0.16l-0.19,0.13c-0.03,0-0.03,0.03-0.06,0.02c-0.03,0-0.03,0-0.03-0.03
				l-0.42-0.22c0.16-0.07,0.31-0.14,0.5-0.24l-0.07-0.18c-0.22,0.1-0.4,0.19-0.62,0.29l-0.14-0.07l-0.28,0.15l0.14,0.07
				c-0.31,0.14-0.62,0.29-0.93,0.43L257.69,213.84z M257.44,213.34l1.46-0.7l0.15,0.28l0,0.03l-0.03,0.03l-1.43,0.68L257.44,213.34z
				 M256.63,214.29l-1.52,1.56l0.13,0.13l0.66-0.67l0.22,0.2l-0.63,0.67l0.13,0.13l0.63-0.64l0.19,0.2l-0.7,0.73l0.16,0.14
				l1.62-1.63l-0.16-0.14l-0.7,0.73l-0.19-0.2l0.66-0.67l-0.13-0.13l-0.66,0.67l-0.22-0.2l0.66-0.67L256.63,214.29z M254.99,215.3
				l-0.01,0.12c0,0.03-0.01,0.06-0.01,0.06c0,0.03-0.04,0.06-0.07,0.08l-0.13,0.13l0.11,0.1l0.2-0.22c0.04-0.06,0.07-0.08,0.1-0.14
				c0.03-0.03,0.04-0.08,0.01-0.12l0.02-0.2l0.66-0.67l0.21-0.04c0.03,0,0.09-0.02,0.12-0.02c0.03,0,0.09-0.05,0.13-0.1l0.2-0.22
				l-0.11-0.1l-0.13,0.13c-0.03,0.03-0.04,0.06-0.06,0.05c-0.03,0-0.03,0.03-0.06,0.02l-0.12-0.01l-0.18-0.02l-0.96,0.96
				L254.99,215.3z M264.87,213.92l0.01,0.15c0,0.03,0.02,0.09,0.05,0.12c0.03,0.03,0.06,0.04,0.11,0.07l0.34,0.1l0.04-0.14
				l-0.23-0.05c0,0-0.03,0-0.03-0.03c0,0,0-0.03-0.03-0.03l0.01-0.06L264.87,213.92z M265.25,213.66c-0.03,0.03-0.06,0.05-0.06,0.05
				c-0.03,0-0.06,0.02-0.06-0.01l-0.23-0.08l-0.05,0.17l0.34,0.1c0.03,0,0.06,0.01,0.09,0.01c0.03,0,0.06,0.01,0.09-0.02
				c0.03,0,0.06-0.02,0.09-0.05c0.03-0.03,0.06-0.05,0.1-0.11L265.25,213.66z M263.92,213.64c-0.03,0.03-0.06,0.05-0.09,0.05
				c-0.03,0-0.06,0.02-0.09-0.01l-0.14-0.04l-0.04,0.14l0.26,0.09c0.03,0,0.06,0.01,0.09,0.01c0.03,0,0.06,0.01,0.09-0.02
				c0.03,0,0.06-0.02,0.09-0.05c0.03-0.03,0.06-0.05,0.1-0.11L263.92,213.64z M263.81,213.24l0.04,0.15
				c-0.01,0.06,0.02,0.09,0.05,0.12c0.03,0.03,0.08,0.07,0.11,0.07l0.26,0.09l0.05-0.17l-0.14-0.04c-0.03,0-0.03,0-0.06-0.04
				l-0.03-0.03l-0.02-0.06L263.81,213.24z M264.86,213.18l0.37,0.13l-0.01,0.09c0,0,0,0.03-0.03,0.03c0,0-0.03,0-0.06-0.01
				l-0.32-0.09L264.86,213.18z M264.94,212.95l0.37,0.13l-0.04,0.08l-0.37-0.13L264.94,212.95z M263.95,212.49l-0.04,0.14l0.75,0.23
				l-0.04,0.08l-0.8-0.23l-0.04,0.14l0.8,0.23l-0.04,0.11l-0.75-0.23l-0.04,0.14l0.75,0.23l-0.14,0.49c0,0,0,0.03-0.03,0.03l-0.03,0
				l-0.11-0.04l-0.04,0.14l0.17,0.05c0.08,0.04,0.15,0.02,0.2,0.02c0.06-0.02,0.09-0.05,0.1-0.11l0.15-0.55l0.43,0.13
				c0.17,0.05,0.26,0.03,0.27-0.06l0.04-0.11l0.17,0.05l0.04-0.14l-0.17-0.05l0.09-0.26l-0.66-0.19l0.04-0.08l-0.26-0.09l-0.04,0.08
				L263.95,212.49z M264.72,212.25l-0.04,0.11l-1.01-0.28l-0.42,1.46c0,0,0,0.03-0.03,0.03l-0.03,0l-0.08-0.04l-0.05,0.17l0.14,0.04
				c0.08,0.04,0.18,0.02,0.2,0.02c0.06-0.02,0.1-0.08,0.1-0.14l0.37-1.29l1.98,0.59l0.05-0.17l-0.95-0.28l0.04-0.11L264.72,212.25z
				 M267.38,215.07l-0.17,0.46c-0.01,0.06-0.01,0.09-0.02,0.15c0.03,0.03,0.05,0.09,0.08,0.13l0.16,0.14l0.14-0.16l-0.08-0.07
				l-0.03-0.03c0-0.03,0-0.03,0.01-0.06l0.12-0.31L267.38,215.07z M266.61,214.46l-0.29,0.21c-0.03,0-0.03,0.03-0.06,0.02
				c-0.03,0-0.03,0-0.03,0l-0.11-0.1l-0.13,0.13l0.19,0.17c0.06,0.04,0.08,0.07,0.14,0.07s0.09-0.02,0.12-0.05l0.38-0.26
				L266.61,214.46z M267.96,214.63l-0.73-0.61l0.24-0.27l0.79,0.64l-0.2,0.24c0,0.03-0.03,0.03-0.03,0.03
				C267.98,214.66,267.95,214.66,267.96,214.63z M267.32,213.41l-0.47,0.57l0.46,0.4l-0.14,0.16l-0.57-0.47l-0.14,0.16l0.57,0.47
				l-0.47,0.57l0.24,0.2l0.47-0.57l0.6,0.48l0.14-0.16l-0.6-0.48l0.14-0.16l0.38,0.31c0.11,0.1,0.2,0.11,0.27,0l0.37-0.43
				L267.32,213.41z M267.02,213.08l-0.34,0.17c-0.03,0-0.03,0.03-0.06,0.02c-0.03,0-0.03,0-0.06-0.01l-0.08-0.07l-0.14,0.16
				l0.14,0.1l-0.85,1.03l0.22,0.17l0.98-1.2l0.4-0.16L267.02,213.08z"/>
		</g>
	</g>
	<g>
		<path class="st26" d="M265.16,252.51l-12.58-1.32c-0.85-0.09-1.45-0.83-1.36-1.68l1.16-11c0.09-0.85,0.83-1.45,1.68-1.36
			l12.58,1.32c0.85,0.09,1.45,0.83,1.36,1.68l-1.16,11C266.75,252,266.01,252.6,265.16,252.51z"/>
		
			<rect x="252.52" y="244.59" transform="matrix(0.1045 -0.9945 0.9945 0.1045 -11.0475 477.4185)" class="st27" width="14.15" height="0.5"/>
		<g>
			
				<rect x="259.5" y="234.89" transform="matrix(0.1045 -0.9945 0.9945 0.1045 -8.8328 475.7122)" class="st27" width="0.5" height="15.74"/>
			
				<rect x="259.19" y="239" transform="matrix(0.1045 -0.9945 0.9945 0.1045 -13.1984 479.0786)" class="st27" width="0.5" height="15.74"/>
		</g>
		<g>
			<path class="st26" d="M261.45,248.93l-4.53-0.48c-0.56-0.06-0.97-0.58-0.92-1.13l0.6-5.67c0.06-0.56,0.58-0.97,1.13-0.92
				l4.53,0.48c0.56,0.06,0.97,0.58,0.92,1.13l-0.6,5.67C262.53,248.57,262.01,248.99,261.45,248.93z"/>
			<path class="st27" d="M261.42,249.19l-4.53-0.48c-0.7-0.07-1.23-0.72-1.15-1.42l0.6-5.67c0.07-0.7,0.72-1.23,1.42-1.15l4.53,0.48
				c0.7,0.07,1.23,0.72,1.15,1.42l-0.6,5.67C262.77,248.74,262.13,249.27,261.42,249.19z M257.7,240.99
				c-0.41-0.04-0.8,0.27-0.84,0.68l-0.6,5.67c-0.04,0.41,0.27,0.8,0.68,0.84l4.53,0.48c0.41,0.04,0.8-0.27,0.84-0.68l0.6-5.67
				c0.04-0.41-0.27-0.8-0.68-0.84L257.7,240.99z"/>
		</g>
	</g>
	<path class="st28" d="M279.03,240.28l26.06,2.74c1.41,0.15,2.44,1.41,2.29,2.83l0,0c-0.15,1.41-1.41,2.44-2.83,2.29l-26.06-2.74
		c-1.41-0.15-2.44-1.41-2.29-2.83v0C276.35,241.15,277.61,240.13,279.03,240.28z"/>
	<path class="st29" d="M281.73,219.5l55.23,5.8c1.7,0.18,2.93,1.7,2.75,3.39l0,0c-0.18,1.7-1.7,2.93-3.39,2.75l-55.23-5.8
		c-1.7-0.18-2.93-1.7-2.75-3.39v0C278.51,220.56,280.03,219.33,281.73,219.5z"/>
	<path class="st28" d="M276.18,255l28.64,3.01c0.7,0.07,1.21,0.7,1.14,1.41l0,0c-0.07,0.7-0.7,1.21-1.41,1.14l-28.64-3.01
		c-0.7-0.07-1.21-0.7-1.14-1.41l0,0C274.85,255.44,275.48,254.93,276.18,255z"/>
	<path class="st28" d="M275.61,260.38l19.45,2.04c0.7,0.07,1.21,0.7,1.14,1.41l0,0c-0.07,0.7-0.7,1.21-1.41,1.14l-19.45-2.04
		c-0.7-0.07-1.21-0.7-1.14-1.41l0,0C274.28,260.82,274.91,260.31,275.61,260.38z"/>
	<polygon class="st28" points="244.34,243.23 247.47,250.3 248.87,236.96 	"/>
	<g>
		<circle class="st30" cx="327.8" cy="250.01" r="5.19"/>
		<path class="st30" d="M339.2,269.94c-0.67-7.13-5.47-12.89-11.86-13.56c-6.39-0.67-12.29,3.96-14.42,10.8L339.2,269.94z"/>
	</g>
</g>
</svg>
