<?xml version="1.0" encoding="utf-8"?>
<!-- Generator: Adobe Illustrator 28.0.0, SVG Export Plug-In . SVG Version: 6.00 Build 0)  -->
<svg version="1.1" id="圖層_1" xmlns="http://www.w3.org/2000/svg" xmlns:xlink="http://www.w3.org/1999/xlink" x="0px" y="0px"
	 viewBox="0 0 128 520" style="enable-background:new 0 0 128 520;" xml:space="preserve">
<style type="text/css">
	.st0{fill:#E84D24;}
</style>
<g>
	<polygon class="st0" points="87.13,326.73 65.97,326.73 65.97,0 62.02,0 62.02,326.73 40.86,326.73 40.86,343.15 87.13,343.15 	"/>
	<path class="st0" d="M87.64,347.11H40.35C16.72,355.47,0,375.94,0,399.92c0,24.26,17.12,44.91,41.19,53.08h45.62
		c24.07-8.17,41.19-28.83,41.19-53.08C128,375.95,111.27,355.48,87.64,347.11z"/>
	<rect x="40.86" y="456.71" class="st0" width="46.27" height="16.42"/>
	<path class="st0" d="M65.24,476.25h-2.49c-3.19,0-5.78,2.59-5.78,5.78V520h14.05v-37.97C71.02,478.84,68.43,476.25,65.24,476.25z"
		/>
</g>
</svg>
