<?xml version="1.0" encoding="utf-8"?>
<!-- Generator: Adobe Illustrator 26.3.1, SVG Export Plug-In . SVG Version: 6.00 Build 0)  -->
<svg version="1.1" id="分離模式" xmlns="http://www.w3.org/2000/svg" xmlns:xlink="http://www.w3.org/1999/xlink" x="0px"
	 y="0px" viewBox="0 0 80 74" style="enable-background:new 0 0 80 74;" xml:space="preserve">
<style type="text/css">
	.st0{fill:#FFC239;}
	.st1{fill:#FEE597;}
	.st2{fill:#FFC545;}
	.st3{fill:#FFD567;}
	.st4{fill:#FFAE28;}
</style>
<g>
	<g>
		<g>
			<g>
				<g>
					<g>
						<path class="st0" d="M5.1,61.42L6.41,62c1.36-9.78,12.17-24.33,24.85-35.2C43.94,15.93,59.96,7.46,69.83,7.61l-0.47-1.38
							l0.82-3.71l8.13,9.48c6.78,7.9-7.98,26.81-24.56,41.03C37.31,67.13,16.59,78.76,9.63,71.25l-0.01,0.01L1.69,62L5.1,61.42z"/>
					</g>
					<g>
						<path class="st1" d="M45.98,43.98C62.56,29.76,77.32,10.85,70.55,2.95c-6.78-7.9-27.71,3.8-44.3,18.02
							C9.67,35.19-5.09,54.09,1.69,62C8.47,69.9,29.4,58.2,45.98,43.98z"/>
					</g>
					<g>
						<path class="st2" d="M5.03,58.39c4.28,4.99,21.5-2.76,38.47-17.31C60.46,26.53,70.75,10.69,66.48,5.7
							c-4.28-4.99-21.5,2.76-38.47,17.31C11.04,37.57,0.75,53.41,5.03,58.39z"/>
					</g>
				</g>
				<g>
					<g>
						<g>
							<path class="st3" d="M73.48,12.61c2.07,1.88,3.96,3.95,5.65,6.18c0.39,0.52-0.37,1.18-0.77,0.66
								c-1.69-2.23-3.58-4.3-5.65-6.18C72.23,12.83,73,12.17,73.48,12.61L73.48,12.61z"/>
						</g>
					</g>
					<g>
						<g>
							<path class="st3" d="M70.67,18.69c1.93,1.73,3.69,3.63,5.26,5.69c0.39,0.52-0.37,1.18-0.77,0.66
								c-1.57-2.06-3.33-3.97-5.26-5.7c-0.21-0.18-0.13-0.55,0.05-0.71C70.18,18.44,70.47,18.51,70.67,18.69L70.67,18.69z"/>
						</g>
					</g>
					<g>
						<g>
							<path class="st3" d="M67.7,24.09c1.41,1.65,2.82,3.29,4.23,4.94c0.42,0.49-0.34,1.15-0.77,0.66
								c-1.41-1.65-2.82-3.29-4.23-4.94C66.51,24.26,67.28,23.6,67.7,24.09L67.7,24.09z"/>
						</g>
					</g>
					<g>
						<g>
							<path class="st3" d="M62.02,28.97c1.79,1.87,3.57,3.73,5.36,5.6c0.45,0.47-0.32,1.13-0.77,0.66
								c-1.79-1.87-3.57-3.73-5.36-5.6C60.8,29.16,61.57,28.51,62.02,28.97L62.02,28.97z"/>
						</g>
					</g>
					<g>
						<g>
							<path class="st3" d="M57.18,35.16c1.61,1.88,3.23,3.76,4.84,5.64c0.42,0.49-0.34,1.15-0.77,0.66
								c-1.61-1.88-3.23-3.76-4.84-5.64C55.99,35.32,56.76,34.66,57.18,35.16L57.18,35.16z"/>
						</g>
					</g>
					<g>
						<g>
							<path class="st3" d="M52.94,39.61c1.36,1.83,2.71,3.67,4.07,5.5c0.38,0.52-0.38,1.18-0.77,0.66
								c-1.36-1.83-2.71-3.67-4.07-5.5C51.79,39.74,52.55,39.08,52.94,39.61L52.94,39.61z"/>
						</g>
					</g>
					<g>
						<g>
							<path class="st3" d="M48.05,44.21c1.55,1.8,3.09,3.61,4.64,5.41c0.42,0.49-0.34,1.15-0.77,0.66c-1.55-1.8-3.09-3.6-4.64-5.41
								C46.86,44.37,47.63,43.71,48.05,44.21L48.05,44.21z"/>
						</g>
					</g>
					<g>
						<g>
							<path class="st3" d="M43.5,47.71c1.61,1.88,3.23,3.76,4.84,5.64c0.42,0.49-0.34,1.15-0.77,0.66
								c-1.61-1.88-3.23-3.76-4.84-5.64C42.3,47.87,43.07,47.21,43.5,47.71L43.5,47.71z"/>
						</g>
					</g>
					<g>
						<g>
							<path class="st3" d="M38.43,51.65c1.61,1.88,3.23,3.76,4.84,5.64c0.42,0.49-0.34,1.15-0.77,0.66
								c-1.61-1.88-3.23-3.76-4.84-5.64C37.24,51.81,38,51.15,38.43,51.65L38.43,51.65z"/>
						</g>
					</g>
					<g>
						<g>
							<path class="st3" d="M32.73,55.31c1.43,1.9,2.87,3.79,4.3,5.69c0.39,0.52-0.37,1.18-0.77,0.66c-1.43-1.89-2.87-3.79-4.3-5.69
								C31.57,55.45,32.34,54.79,32.73,55.31L32.73,55.31z"/>
						</g>
					</g>
					<g>
						<g>
							<path class="st3" d="M26.71,59.24c1.41,1.65,2.82,3.29,4.23,4.94c0.42,0.49-0.34,1.15-0.77,0.66
								c-1.41-1.65-2.82-3.29-4.23-4.94C25.52,59.41,26.29,58.75,26.71,59.24L26.71,59.24z"/>
						</g>
					</g>
					<g>
						<g>
							<path class="st3" d="M21.19,63.16c1.48,1.72,2.96,3.45,4.44,5.17c0.42,0.49-0.34,1.15-0.77,0.66
								c-1.48-1.72-2.96-3.45-4.44-5.17C20,63.33,20.76,62.67,21.19,63.16L21.19,63.16z"/>
						</g>
					</g>
					<g>
						<g>
							<path class="st3" d="M14.64,64.7c1.83,1.97,3.67,3.94,5.5,5.91c0.44,0.48-0.32,1.13-0.77,0.66c-1.83-1.97-3.67-3.94-5.5-5.91
								C13.43,64.88,14.19,64.22,14.64,64.7L14.64,64.7z"/>
						</g>
					</g>
					<g>
						<g>
							<path class="st3" d="M9.58,65.5c1.83,1.97,3.67,3.94,5.5,5.91c0.44,0.48-0.32,1.13-0.77,0.66c-1.83-1.97-3.67-3.94-5.5-5.91
								C8.37,65.68,9.14,65.02,9.58,65.5L9.58,65.5z"/>
						</g>
					</g>
				</g>
			</g>
		</g>
		<g>
			<path class="st4" d="M5.03,58.39c0.25,0.29,0.53,0.53,0.86,0.73c-2.49-5.83,7.57-20.7,23.57-34.42
				c16-13.72,32.22-21.39,37.61-18.04c-0.15-0.36-0.34-0.68-0.59-0.96c-4.28-4.99-21.5,2.76-38.47,17.31
				C11.04,37.57,0.75,53.41,5.03,58.39z"/>
		</g>
	</g>
</g>
</svg>
