<?xml version="1.0" encoding="utf-8"?>
<!-- Generator: Adobe Illustrator 26.3.1, SVG Export Plug-In . SVG Version: 6.00 Build 0)  -->
<svg version="1.1" id="分離模式" xmlns="http://www.w3.org/2000/svg" xmlns:xlink="http://www.w3.org/1999/xlink" x="0px"
	 y="0px" viewBox="0 0 95 72" style="enable-background:new 0 0 95 72;" xml:space="preserve">
<style type="text/css">
	.st0{fill:#FFC239;}
	.st1{fill:#FEE597;}
	.st2{fill:#FFC545;}
	.st3{fill:#FFD567;}
	.st4{fill:#FFAE28;}
</style>
<g>
	<g>
		<g>
			<g>
				<g>
					<g>
						<path class="st0" d="M89.88,56.26l-1.31,0.87c-3.24-10.39-17.64-24.26-33.4-33.8C39.4,13.79,20.44,7.48,9.72,9.43l0.26-1.58
							L8.42,3.95L1.29,15.74c-5.94,9.83,13.53,27.72,34.15,40.19C55.88,68.3,80.52,77.19,86.74,67.76l0.01,0.01l6.96-11.51
							L89.88,56.26z"/>
					</g>
					<g>
						<path class="st1" d="M42.25,44.67C21.64,32.2,2.16,14.31,8.11,4.48S38.94,3.6,59.56,16.07
							c20.61,12.47,40.09,30.36,34.15,40.19C87.76,66.09,62.87,57.14,42.25,44.67z"/>
					</g>
					<g>
						<path class="st2" d="M89.42,52.95c-3.75,6.2-23.89,0.88-44.98-11.87C23.34,28.31,9.28,12.94,13.03,6.74
							c3.75-6.2,23.89-0.88,44.98,11.87S93.17,46.75,89.42,52.95z"/>
					</g>
				</g>
				<g>
					<g>
						<g>
							<path class="st3" d="M6.66,15.52c-1.91,2.42-3.59,5.01-5.02,7.74c-0.33,0.63,0.62,1.21,0.95,0.58
								c1.43-2.73,3.12-5.32,5.02-7.74C8.06,15.53,7.1,14.96,6.66,15.52L6.66,15.52z"/>
						</g>
					</g>
					<g>
						<g>
							<path class="st3" d="M10.82,21.63c-1.79,2.23-3.36,4.62-4.69,7.15c-0.33,0.63,0.62,1.21,0.95,0.58
								c1.33-2.53,2.9-4.92,4.69-7.15c0.19-0.24,0.04-0.62-0.19-0.77C11.3,21.26,11.01,21.4,10.82,21.63L10.82,21.63z"/>
						</g>
					</g>
					<g>
						<g>
							<path class="st3" d="M15.03,26.97c-1.24,2.05-2.47,4.09-3.71,6.14c-0.37,0.61,0.58,1.19,0.95,0.58
								c1.24-2.05,2.47-4.09,3.71-6.14C16.35,26.94,15.4,26.36,15.03,26.97L15.03,26.97z"/>
						</g>
					</g>
					<g>
						<g>
							<path class="st3" d="M22.1,31.25c-1.61,2.35-3.21,4.71-4.82,7.06c-0.4,0.59,0.55,1.17,0.95,0.58
								c1.61-2.35,3.21-4.71,4.82-7.06C23.45,31.24,22.5,30.66,22.1,31.25L22.1,31.25z"/>
						</g>
					</g>
					<g>
						<g>
							<path class="st3" d="M28.47,37.1c-1.41,2.34-2.83,4.68-4.24,7.01c-0.37,0.61,0.58,1.19,0.95,0.58
								c1.41-2.34,2.83-4.68,4.24-7.01C29.8,37.07,28.85,36.49,28.47,37.1L28.47,37.1z"/>
						</g>
					</g>
					<g>
						<g>
							<path class="st3" d="M33.89,41.18c-1.14,2.24-2.29,4.48-3.43,6.72c-0.32,0.64,0.63,1.22,0.95,0.58
								c1.14-2.24,2.29-4.48,3.43-6.72C35.17,41.12,34.22,40.54,33.89,41.18L33.89,41.18z"/>
						</g>
					</g>
					<g>
						<g>
							<path class="st3" d="M40.04,45.3c-1.36,2.24-2.71,4.48-4.07,6.72c-0.37,0.61,0.58,1.19,0.95,0.58
								c1.36-2.24,2.71-4.48,4.07-6.72C41.37,45.26,40.42,44.68,40.04,45.3L40.04,45.3z"/>
						</g>
					</g>
					<g>
						<g>
							<path class="st3" d="M45.63,48.28c-1.41,2.34-2.83,4.68-4.24,7.01c-0.37,0.61,0.58,1.19,0.95,0.58
								c1.41-2.34,2.83-4.68,4.24-7.01C46.96,48.24,46.01,47.67,45.63,48.28L45.63,48.28z"/>
						</g>
					</g>
					<g>
						<g>
							<path class="st3" d="M51.86,51.65c-1.41,2.34-2.83,4.68-4.24,7.01c-0.37,0.61,0.58,1.19,0.95,0.58
								c1.41-2.34,2.83-4.68,4.24-7.01C53.19,51.61,52.23,51.03,51.86,51.65L51.86,51.65z"/>
						</g>
					</g>
					<g>
						<g>
							<path class="st3" d="M58.72,54.6c-1.22,2.32-2.44,4.64-3.65,6.96c-0.33,0.63,0.62,1.21,0.95,0.58
								c1.22-2.32,2.44-4.64,3.65-6.96C60.01,54.55,59.06,53.97,58.72,54.6L58.72,54.6z"/>
						</g>
					</g>
					<g>
						<g>
							<path class="st3" d="M65.98,57.79c-1.24,2.05-2.47,4.09-3.71,6.14c-0.37,0.61,0.58,1.19,0.95,0.58
								c1.24-2.05,2.48-4.09,3.71-6.14C67.3,57.76,66.35,57.18,65.98,57.79L65.98,57.79z"/>
						</g>
					</g>
					<g>
						<g>
							<path class="st3" d="M72.7,61.06c-1.3,2.14-2.59,4.29-3.89,6.43c-0.37,0.61,0.58,1.19,0.95,0.58
								c1.3-2.14,2.59-4.29,3.89-6.43C74.03,61.02,73.07,60.45,72.7,61.06L72.7,61.06z"/>
						</g>
					</g>
					<g>
						<g>
							<path class="st3" d="M80.11,61.55c-1.64,2.48-3.27,4.95-4.91,7.43c-0.4,0.6,0.56,1.17,0.95,0.58
								c1.64-2.48,3.27-4.95,4.91-7.43C81.46,61.52,80.5,60.95,80.11,61.55L80.11,61.55z"/>
						</g>
					</g>
					<g>
						<g>
							<path class="st3" d="M85.75,61.5c-1.64,2.48-3.28,4.95-4.91,7.43c-0.4,0.6,0.56,1.18,0.95,0.58
								c1.64-2.48,3.27-4.95,4.91-7.43C87.1,61.48,86.15,60.9,85.75,61.5L85.75,61.5z"/>
						</g>
					</g>
				</g>
			</g>
		</g>
		<g>
			<path class="st4" d="M89.42,52.95c-0.22,0.36-0.48,0.67-0.81,0.95c1.66-6.8-11.98-21.15-31.87-33.18
				C36.85,8.69,17.82,3.28,12.57,7.9c0.1-0.41,0.25-0.8,0.47-1.15c3.75-6.2,23.89-0.88,44.98,11.87
				C79.11,31.38,93.17,46.74,89.42,52.95z"/>
		</g>
	</g>
</g>
</svg>
