<?xml version="1.0" encoding="utf-8"?>
<!-- Generator: Adobe Illustrator 26.3.1, SVG Export Plug-In . SVG Version: 6.00 Build 0)  -->
<svg version="1.1" id="分離模式" xmlns="http://www.w3.org/2000/svg" xmlns:xlink="http://www.w3.org/1999/xlink" x="0px"
	 y="0px" viewBox="0 0 162 144" style="enable-background:new 0 0 162 144;" xml:space="preserve">
<style type="text/css">
	.st0{fill:#FFC239;}
	.st1{fill:#FEE597;}
	.st2{fill:#FFC545;}
	.st3{fill:#FFD567;}
	.st4{fill:#FFAE28;}
</style>
<g>
	<g>
		<g>
			<g>
				<g>
					<g>
						<path class="st0" d="M141.42,11.95l0.68,2.77c-19.73-0.79-52.19,15.34-78.08,36.46c-25.89,21.11-48.23,49.66-51.42,69.15
							l-2.55-1.41l-7.59,0.3l15.79,19.36c13.16,16.14,55.59-6.22,89.45-33.83c33.57-27.37,63.78-64.04,51.46-80.39l0.01-0.01
							l-15.41-18.9L141.42,11.95z"/>
					</g>
					<g>
						<path class="st1" d="M92.62,86.24c-33.86,27.61-76.29,49.97-89.45,33.83c-13.16-16.14,17.28-53.2,51.14-80.81
							c33.86-27.61,76.29-49.97,89.45-33.83C156.92,21.57,126.47,58.64,92.62,86.24z"/>
					</g>
					<g>
						
							<ellipse transform="matrix(0.775 -0.632 0.632 0.775 -22.7394 59.9045)" class="st2" cx="72.76" cy="61.89" rx="80.94" ry="23.79"/>
					</g>
				</g>
				<g>
					<g>
						<g>
							<path class="st3" d="M21.14,129.26c2.97,4.74,6.38,9.19,10.17,13.3c0.88,0.95,2.45-0.32,1.57-1.28
								c-3.79-4.11-7.19-8.56-10.17-13.3C22.02,126.89,20.46,128.17,21.14,129.26L21.14,129.26z"/>
						</g>
					</g>
					<g>
						<g>
							<path class="st3" d="M34.11,125.89c2.72,4.41,5.85,8.55,9.35,12.36c0.88,0.95,2.45-0.32,1.57-1.28
								c-3.5-3.82-6.63-7.95-9.35-12.36c-0.29-0.47-1.04-0.45-1.42-0.14C33.78,124.84,33.82,125.42,34.11,125.89L34.11,125.89z"/>
						</g>
					</g>
					<g>
						<g>
							<path class="st3" d="M45.8,121.96c2.74,3.36,5.48,6.72,8.22,10.08c0.82,1.01,2.39-0.27,1.57-1.28
								c-2.74-3.36-5.48-6.72-8.22-10.08C46.54,119.67,44.97,120.95,45.8,121.96L45.8,121.96z"/>
						</g>
					</g>
					<g>
						<g>
							<path class="st3" d="M57.41,112.49c3.04,4.18,6.08,8.36,9.12,12.53c0.77,1.05,2.33-0.23,1.57-1.28
								c-3.04-4.18-6.08-8.36-9.12-12.53C58.21,110.16,56.65,111.44,57.41,112.49L57.41,112.49z"/>
						</g>
					</g>
					<g>
						<g>
							<path class="st3" d="M71.29,105.17c3.13,3.84,6.26,7.68,9.39,11.52c0.82,1.01,2.39-0.27,1.57-1.28
								c-3.13-3.84-6.26-7.68-9.39-11.52C72.04,102.88,70.47,104.16,71.29,105.17L71.29,105.17z"/>
						</g>
					</g>
					<g>
						<g>
							<path class="st3" d="M81.55,98.39c3.13,3.32,6.26,6.64,9.38,9.96c0.89,0.94,2.46-0.33,1.57-1.28
								c-3.13-3.32-6.26-6.64-9.38-9.96C82.23,96.17,80.66,97.44,81.55,98.39L81.55,98.39z"/>
						</g>
					</g>
					<g>
						<g>
							<path class="st3" d="M92.34,90.4c3,3.68,6,7.36,9,11.04c0.82,1.01,2.39-0.27,1.57-1.28c-3-3.68-6-7.36-9-11.04
								C93.08,88.11,91.52,89.39,92.34,90.4L92.34,90.4z"/>
						</g>
					</g>
					<g>
						<g>
							<path class="st3" d="M100.84,82.67c3.13,3.84,6.26,7.68,9.39,11.52c0.82,1.01,2.39-0.27,1.57-1.28
								c-3.13-3.84-6.26-7.68-9.39-11.52C101.58,80.38,100.02,81.66,100.84,82.67L100.84,82.67z"/>
						</g>
					</g>
					<g>
						<g>
							<path class="st3" d="M110.39,74.08c3.13,3.84,6.26,7.68,9.39,11.52c0.82,1.01,2.39-0.27,1.57-1.28
								c-3.13-3.84-6.26-7.68-9.39-11.52C111.13,71.8,109.56,73.07,110.39,74.08L110.39,74.08z"/>
						</g>
					</g>
					<g>
						<g>
							<path class="st3" d="M119.61,64.17c3.22,3.49,6.45,6.99,9.67,10.48c0.88,0.95,2.45-0.32,1.57-1.28
								c-3.22-3.49-6.44-6.99-9.67-10.48C120.3,61.94,118.73,63.21,119.61,64.17L119.61,64.17z"/>
						</g>
					</g>
					<g>
						<g>
							<path class="st3" d="M129.48,53.72c2.74,3.36,5.48,6.72,8.22,10.08c0.82,1.01,2.39-0.27,1.57-1.28
								c-2.74-3.36-5.48-6.72-8.22-10.08C130.23,51.43,128.66,52.71,129.48,53.72L129.48,53.72z"/>
						</g>
					</g>
					<g>
						<g>
							<path class="st3" d="M139.16,44.23c2.87,3.52,5.74,7.04,8.61,10.56c0.82,1.01,2.39-0.27,1.57-1.28
								c-2.87-3.52-5.74-7.04-8.61-10.56C139.9,41.94,138.33,43.22,139.16,44.23L139.16,44.23z"/>
						</g>
					</g>
					<g>
						<g>
							<path class="st3" d="M144.5,31.88c3.23,4.31,6.46,8.61,9.69,12.92c0.78,1.04,2.35-0.24,1.57-1.28
								c-3.23-4.31-6.46-8.61-9.69-12.92C145.28,29.56,143.72,30.84,144.5,31.88L144.5,31.88z"/>
						</g>
					</g>
					<g>
						<g>
							<path class="st3" d="M147.86,22.21c3.23,4.31,6.46,8.61,9.69,12.92c0.78,1.04,2.35-0.24,1.57-1.28
								c-3.23-4.31-6.46-8.61-9.69-12.92C148.64,19.89,147.08,21.17,147.86,22.21L147.86,22.21z"/>
						</g>
					</g>
				</g>
			</g>
		</g>
		<g>
			<path class="st4" d="M135.49,10.74c0.48,0.59,0.85,1.24,1.13,1.96c-10.6-6.97-43.41,7.57-76.08,34.21
				c-32.67,26.64-53.51,55.86-48.82,67.64c-0.65-0.42-1.21-0.92-1.69-1.5c-8.31-10.19,13.05-41.34,47.69-69.59
				C92.36,15.2,127.18,0.55,135.49,10.74z"/>
		</g>
	</g>
</g>
</svg>
