<?xml version="1.0" encoding="utf-8"?>
<!-- Generator: Adobe Illustrator 26.3.1, SVG Export Plug-In . SVG Version: 6.00 Build 0)  -->
<svg version="1.1" id="分離模式" xmlns="http://www.w3.org/2000/svg" xmlns:xlink="http://www.w3.org/1999/xlink" x="0px"
	 y="0px" viewBox="0 0 60 90" style="enable-background:new 0 0 60 90;" xml:space="preserve">
<style type="text/css">
	.st0{fill:#FFC239;}
	.st1{fill:#FEE597;}
	.st2{fill:#FFC545;}
	.st3{fill:#FFD567;}
	.st4{fill:#FFAE28;}
</style>
<g>
	<g>
		<g>
			<g>
				<g>
					<g>
						<path class="st0" d="M51.31,82.07l-1.43-0.03c2.94-9.47-0.69-27.3-7.58-42.59C35.4,24.17,24.44,9.64,15.41,5.57l1.02-1.05
							l0.84-3.72L5.83,5.95c-9.53,4.3-4.17,27.77,4.84,47.77c8.94,19.82,22.81,39.22,32.34,35.36l0,0.01l11.16-5.03L51.31,82.07z"/>
					</g>
					<g>
						<path class="st1" d="M21.59,48.79C12.58,28.8,7.22,5.32,16.75,1.03c9.53-4.3,23.57,15.27,32.58,35.26
							c9.01,19.99,14.37,43.47,4.84,47.76C44.64,88.35,30.6,68.79,21.59,48.79z"/>
					</g>
					<g>
						<path class="st2" d="M52.67,79.35c-6.01,2.71-18.37-11.68-27.59-32.13C15.86,26.76,13.26,7.98,19.27,5.27
							c6.01-2.71,18.37,11.68,27.59,32.13C56.08,57.86,58.68,76.64,52.67,79.35z"/>
					</g>
				</g>
				<g>
					<g>
						<g>
							<path class="st3" d="M9.97,8.56c-2.68,0.83-5.28,1.9-7.77,3.21c-0.58,0.3-0.16,1.23,0.42,0.93c2.49-1.31,5.08-2.38,7.77-3.21
								C11.01,9.29,10.58,8.37,9.97,8.56L9.97,8.56z"/>
						</g>
					</g>
					<g>
						<g>
							<path class="st3" d="M9.93,15.29c-2.49,0.75-4.9,1.73-7.21,2.94c-0.58,0.3-0.16,1.23,0.42,0.93c2.3-1.21,4.72-2.19,7.21-2.94
								c0.26-0.08,0.35-0.44,0.25-0.67C10.48,15.26,10.19,15.21,9.93,15.29L9.93,15.29z"/>
						</g>
					</g>
					<g>
						<g>
							<path class="st3" d="M10.32,21.46c-1.98,0.89-3.97,1.79-5.95,2.68c-0.6,0.27-0.18,1.19,0.42,0.93
								c1.98-0.89,3.97-1.79,5.95-2.68C11.33,22.12,10.92,21.19,10.32,21.46L10.32,21.46z"/>
						</g>
					</g>
					<g>
						<g>
							<path class="st3" d="M13.41,28.32c-2.42,0.93-4.84,1.87-7.26,2.8c-0.61,0.24-0.19,1.16,0.42,0.93
								c2.42-0.93,4.84-1.87,7.26-2.8C14.44,29.01,14.02,28.09,13.41,28.32L13.41,28.32z"/>
						</g>
					</g>
					<g>
						<g>
							<path class="st3" d="M15.17,36c-2.27,1.02-4.54,2.04-6.8,3.07c-0.6,0.27-0.18,1.19,0.42,0.93c2.27-1.02,4.54-2.04,6.8-3.07
								C16.18,36.66,15.77,35.73,15.17,36L15.17,36z"/>
						</g>
					</g>
					<g>
						<g>
							<path class="st3" d="M17.13,41.85c-2.01,1.09-4.03,2.18-6.04,3.26c-0.57,0.31-0.16,1.24,0.42,0.93
								c2.02-1.09,4.03-2.18,6.04-3.26C18.12,42.47,17.7,41.54,17.13,41.85L17.13,41.85z"/>
						</g>
					</g>
					<g>
						<g>
							<path class="st3" d="M19.61,48.12c-2.17,0.98-4.35,1.96-6.52,2.94c-0.6,0.27-0.18,1.19,0.42,0.93
								c2.17-0.98,4.35-1.96,6.52-2.94C20.62,48.78,20.21,47.85,19.61,48.12L19.61,48.12z"/>
						</g>
					</g>
					<g>
						<g>
							<path class="st3" d="M22.26,53.24c-2.27,1.02-4.54,2.04-6.8,3.07c-0.6,0.27-0.18,1.19,0.42,0.93
								c2.27-1.02,4.54-2.04,6.8-3.07C23.27,53.9,22.86,52.98,22.26,53.24L22.26,53.24z"/>
						</g>
					</g>
					<g>
						<g>
							<path class="st3" d="M25.19,58.98c-2.27,1.02-4.54,2.04-6.8,3.07c-0.6,0.27-0.18,1.19,0.42,0.93
								c2.27-1.02,4.54-2.04,6.8-3.07C26.2,59.64,25.78,58.72,25.19,58.98L25.19,58.98z"/>
						</g>
					</g>
					<g>
						<g>
							<path class="st3" d="M28.8,64.74c-2.11,1.11-4.22,2.22-6.34,3.33c-0.58,0.3-0.16,1.23,0.42,0.93
								c2.11-1.11,4.22-2.22,6.34-3.33C29.8,65.36,29.38,64.44,28.8,64.74L28.8,64.74z"/>
						</g>
					</g>
					<g>
						<g>
							<path class="st3" d="M32.6,70.88c-1.98,0.89-3.97,1.79-5.95,2.68c-0.6,0.27-0.18,1.19,0.42,0.93
								c1.98-0.89,3.97-1.79,5.95-2.68C33.61,71.54,33.19,70.61,32.6,70.88L32.6,70.88z"/>
						</g>
					</g>
					<g>
						<g>
							<path class="st3" d="M35.95,76.8c-2.08,0.94-4.16,1.87-6.24,2.81c-0.6,0.27-0.18,1.19,0.42,0.93
								c2.08-0.94,4.16-1.87,6.24-2.81C36.96,77.46,36.55,76.53,35.95,76.8L35.95,76.8z"/>
						</g>
					</g>
					<g>
						<g>
							<path class="st3" d="M41.25,80.99c-2.51,1.01-5.01,2.02-7.52,3.03c-0.61,0.24-0.19,1.17,0.42,0.93
								c2.51-1.01,5.01-2.02,7.52-3.03C42.27,81.67,41.85,80.75,41.25,80.99L41.25,80.99z"/>
						</g>
					</g>
					<g>
						<g>
							<path class="st3" d="M45.5,83.87c-2.51,1.01-5.01,2.02-7.52,3.03c-0.61,0.24-0.19,1.17,0.42,0.93
								c2.51-1.01,5.01-2.02,7.52-3.03C46.53,84.55,46.11,83.63,45.5,83.87L45.5,83.87z"/>
						</g>
					</g>
				</g>
			</g>
		</g>
		<g>
			<path class="st4" d="M52.67,79.35c-0.35,0.16-0.71,0.25-1.1,0.3c4.75-4.24,1.94-22.04-6.75-41.33
				c-8.7-19.29-20.17-33.18-26.5-32.43c0.29-0.26,0.6-0.47,0.95-0.62c6.02-2.71,18.37,11.68,27.59,32.13
				C56.08,57.86,58.69,76.64,52.67,79.35z"/>
		</g>
	</g>
</g>
</svg>
