<?xml version="1.0" encoding="utf-8"?>
<!-- Generator: Adobe Illustrator 26.3.1, SVG Export Plug-In . SVG Version: 6.00 Build 0)  -->
<svg version="1.1" id="Layer_2" xmlns="http://www.w3.org/2000/svg" xmlns:xlink="http://www.w3.org/1999/xlink" x="0px" y="0px"
	 viewBox="0 0 252 255" style="enable-background:new 0 0 252 255;" xml:space="preserve">
<style type="text/css">
	.st0{fill:#9FC4FF;}
	.st1{fill:#FFB27D;}
	.st2{fill:#2E78EF;}
	.st3{fill:#D7E2FF;}
	.st4{fill:#FFF0E6;}
	.st5{fill:#003487;}
	.st6{fill:#3361E2;}
	.st7{fill:#17110A;}
	.st8{fill:#FFFFFF;}
</style>
<g>
	<g>
		<g>
			<path class="st0" d="M210.72,198.82c-2.38,4.75-4.4,9.76-5.01,15.04c-0.35,3.01-0.09,6.39,2.04,8.54
				c1.42,1.43,3.5,2.08,5.51,2.05c2.01-0.02,3.98-0.66,5.81-1.5c5.38-2.48,9.74-6.73,13.54-11.27c8.3-9.92,14.41-21.66,17.77-34.15
				c1.05-3.9,1.84-7.92,1.56-11.95c-0.29-4.19-2.37-8.95-7.36-8.17c-0.1,0.02-0.19,0.03-0.29,0.05c-2.43,0.48-4.36,2.02-6.18,3.61
				c-1.93,1.68-3.74,3.49-5.46,5.39c-1.07,1.19-2.11,2.41-3.12,3.65c-6.95,8.58-13.16,17.74-18.22,27.52
				C211.12,198.03,210.92,198.43,210.72,198.82z"/>
		</g>
	</g>
	<g>
		<g>
			<path class="st0" d="M26.14,73.49c14.21,3.7,13.39,21.1,11.27,32.33c-0.84,4.41-1.53,8.81-2.09,13.21
				c-0.36,10.22-0.43,20.37,0.55,30.64c0.69,7.26,1.75,14.49,3.17,21.64c1.34,6.72,3.64,13.34,4.73,20.1
				c0.82,4.97-0.28,10.09-5.25,12.31c-4.8,2.14-10.05,0.39-14.03-2.61c-9.68-7.28-13.96-20.13-17.22-31.28
				c-3.62-12.44-5.6-25.37-5.87-38.32c-0.29-12.94,1.11-25.96,4.23-38.53C7.94,83.62,14.09,70.34,26.14,73.49z"/>
		</g>
	</g>
	<g>
		<g>
			<g>
				<g>
					<polygon class="st1" points="204.66,121.54 200.29,130.6 194.88,124.45 199.49,118.69 					"/>
				</g>
			</g>
			<g>
				<g>
					<g>
						<path class="st2" d="M197.23,123.96c0.14,0.35,0.34,0.66,0.59,0.92c0.33,0.35,0.74,0.61,1.2,0.79
							c0.84,0.34,1.89,0.6,2.68,0.22c2.06-1,2.83-3.5,4.43-5.42c1.63-1.96,3.59-3.68,4.65-6.02c0.8-1.76,1.24-4.51-0.57-5.89
							c-0.06-0.05-0.13-0.09-0.2-0.14c-0.36-0.23-0.8-0.41-1.31-0.51c-0.04-0.01-0.08-0.02-0.12-0.02
							c-4.07-0.68-6.55,3.61-7.62,6.56c-0.39,1.09-0.75,2.43-1.29,3.45C198.69,119.76,196.3,121.6,197.23,123.96z"/>
					</g>
				</g>
				<g>
					<g>
						<path class="st3" d="M201.99,123.98c-0.43,0.21-0.89,0.33-1.4,0.31c-1.18-0.04-2.6-1.07-2.19-2.38
							c0.13-0.42,0.39-0.77,0.66-1.12c0.65-0.84,1.36-1.65,1.86-2.59c0.48-0.92,0.78-1.95,1.13-2.92c0.85-2.35,2.18-5.4,4.86-5.93
							c1.41-0.28,2.82,0.52,3.1,1.96c0.26,1.36-0.35,2.41-0.99,3.58c-0.81,1.47-2.17,2.96-3.3,4.17c-1.11,1.2-1.63,2.73-2.72,3.93
							C202.65,123.34,202.42,123.76,201.99,123.98z"/>
					</g>
				</g>
			</g>
		</g>
		<g>
			<g>
				<path class="st4" d="M144.92,177.74c0,0,7.87,5.83,9.06,5.68c1.19-0.14,10.18,0.94,13.45-2.41c3.26-3.34,9.33-11.07,9.33-11.07
					l-0.94-2.53l-0.41-1.15l-0.56-1.5l-13.38-4.43c0,0-4.39,4.8-6.61,7c-0.55,0.54-0.96,0.93-1.14,1.04
					c-0.12,0.07-0.28,0.12-0.47,0.17c-0.01,0.01-0.04,0-0.05,0.01c-1.42,0.26-4.62-0.01-7.07,2.71
					C143.3,174.39,144.92,177.74,144.92,177.74z"/>
			</g>
		</g>
		<g>
			<g>
				<path class="st4" d="M109.88,158.33c0.21,0.3,0.46,0.59,0.7,0.86c8.69,9.69,59.42,7.95,59.42,7.95l-17.47,13.72l1.76,10.58
					l21.89,3.57c0,0,18.94-8.1,23.04-20.96c4.52-14.18-1.55-28.93-10.44-39.14c-8.9-10.21-24.21-21.35-24.21-21.35
					c-1.78-0.85-3.95-1.72-6.37-2.54c-2-0.68-4.18-1.34-6.45-1.91c-13.27-3.4-29.89-4.29-35.33,5.5c-2.23,4.04-4.44,8.79-6.19,13.73
					C106.31,139.4,104.64,151.4,109.88,158.33z"/>
			</g>
		</g>
		<g>
			<g>
				<path class="st5" d="M173.64,171.87l-20.39-3.33c0,0,3.33-0.63,3.78-0.67c0.44-0.03,16.35-0.75,16.35-0.75l6.84-0.28l-3.45,3.1
					L173.64,171.87z"/>
			</g>
		</g>
		<g>
			<g>
				<g>
					<path class="st5" d="M153.09,182.6c0.27,0.07,0.56-0.05,0.68-0.31c0.02-0.04,1.95-3.91,5.6-6.05c1.72-1.01,3.62-1.04,5.63-1.07
						c1.84-0.03,3.74-0.06,5.53-0.88c3.95-1.83,7.32-4.53,10.72-7.36c0.25-0.21,0.29-0.58,0.07-0.83c-0.21-0.25-0.58-0.29-0.83-0.07
						c-3.34,2.78-6.64,5.43-10.46,7.2c-1.56,0.72-3.25,0.75-5.05,0.78c-2.08,0.03-4.22,0.07-6.21,1.23
						c-3.96,2.33-5.98,6.38-6.06,6.55c-0.14,0.29-0.02,0.65,0.27,0.79C153.01,182.57,153.05,182.59,153.09,182.6z"/>
				</g>
			</g>
		</g>
		<g>
			<g>
				<path class="st5" d="M109.88,158.33c3.1,2.49,7.1,3.85,11.07,3.91c6.94,0.11,12.48-3.64,17.13-8.4c2.35-2.4,4.46-5.07,6.42-7.63
					c4.36-5.71,8.13-11.86,11.56-18.18c0.87-1.62,1.74-3.24,2.56-4.88c0.69-1.34,1.35-2.69,1.96-4.06l-2.38-8.07l-1.17-3.97
					c0,0-2.05,0.79-5.29,2.06c-9.7,3.8-30.02,11.94-37.32,16.1c-1.67,0.95-3.04,2.02-4.2,3.13
					C106.31,139.4,104.64,151.4,109.88,158.33z"/>
			</g>
		</g>
		<g>
			<g>
				<path class="st1" d="M118.29,149.75c4.1,2.15,13.62,3.44,19.79,4.09c2.35-2.4,4.46-5.07,6.42-7.63
					c4.36-5.71,8.13-11.86,11.56-18.18c0.87-1.62,1.74-3.24,2.56-4.88l-3.79-2.76l-15.23,7.63
					C139.6,128.03,111.98,146.43,118.29,149.75z"/>
			</g>
		</g>
		<g>
			<g>
				<path class="st5" d="M19.64,182.89c3.83,3.4,8.96,4.56,13.83,3.57c0.02,0.09,0.04,0.18,0.06,0.26c0.19,0.74,1.33,0.43,1.14-0.31
					c-0.02-0.08-0.03-0.15-0.05-0.23c0.55-0.15,1.09-0.32,1.63-0.53c0.7-0.27,0.4-1.42-0.31-1.14c-0.52,0.2-1.04,0.37-1.57,0.52
					c-1.31-6.37-1.21-13.83-6.28-18.52c-3.66-3.39-10.31-3.91-12.86,1.12C12.64,172.69,15.73,179.41,19.64,182.89z"/>
			</g>
		</g>
		<g>
			<g>
				<path class="st6" d="M27.67,141.01c2.77,10.86,7.96,22.95,13.05,32.93c2.53,4.96,6.38,10.57,10.67,15.26
					c1.26,1.39,2.58,2.7,3.9,3.89c1.03,0.93,2.07,1.78,3.11,2.54c0.01,0,0.01,0.01,0.02,0.02c0.35,0.25,0.69,0.49,1.02,0.73
					c0.03,0.02,0.07,0.06,0.1,0.08c17.62,12.35,15.17-2.79,17.77-2.72c1.75,0.05,3.49,0,5.23-0.23c3.12-0.4,6.22-1.41,8.66-3.47
					c3.24-2.72,5.2-7.01,6.82-10.82c1.4-3.27,2.47-6.65,3.24-10.11c0.17-0.13,0.27-0.33,0.21-0.59c-0.01-0.05-0.02-0.09-0.03-0.14
					c-0.01-0.01,0-0.04-0.01-0.05c0.17-0.85,0.34-1.69,0.49-2.54c0.13-0.75-1.02-1.06-1.14-0.31c-0.02,0.13-0.04,0.26-0.07,0.39
					c-5.03-15.22-19.79-24.87-35.55-23.72c-0.42,0.02-0.86,0.06-1.29,0.11l-0.09-0.16c-1.44-2.46-2.96-4.88-4.61-7.2
					c-4.31-6.07-9.87-12.74-17.56-14.27c-5.75-1.15-9.47,0.41-11.72,3.23C26.32,128.29,26.36,135.87,27.67,141.01z"/>
			</g>
		</g>
		<g>
			<g>
				<path class="st6" d="M62.79,177.17c-0.93,2.73-1.75,5.28-2.37,7.78c-0.93,3.78-1.37,7.43-0.99,11.42
					c0.02,0.24,0.04,0.49,0.08,0.75c0.15,1.4,0.43,2.85,0.81,4.35c3.92,15.35,15.6,27.9,34.01,32.83
					c10.71,2.87,22.01,2.13,30.89-3.82c1.19-0.8,2.36-1.7,3.46-2.69c5.59-2.13,10.82-6.09,14.62-9.78
					c7.56-7.36,12.55-17.1,14.01-27.55c0.05-0.42-0.27-0.69-0.59-0.72c-0.12-1.06-0.3-2.1-0.54-3.15c0-0.01,0-0.01-0.01-0.03
					c-0.09-0.4-0.19-0.8-0.32-1.2c-0.25-0.93-0.56-1.83-0.93-2.73c-1.84-4.65-5.04-8.72-9.58-11.13
					c-5.44-2.87-12.16-2.87-17.42,0.12c-0.36,0.21-0.73,0.42-1.07,0.66c-0.04-0.04-0.07-0.07-0.11-0.09
					c-5.47-4.61-12.44-7.48-19.1-4.42c-2.12-0.16-4.21,0.01-6.22,0.59c-0.73,0.21-1.45,0.47-2.16,0.79
					c-3.58,1.6-6.09,4.75-9.59,6.49c-7.94,3.96-16.99,2.38-25.32,0.64c0.12-0.35,0.24-0.7,0.35-1.05c0.25-0.72-0.89-1.02-1.14-0.31
					c-0.12,0.37-0.26,0.74-0.38,1.1c-0.03,0.01-0.05,0-0.07-0.01C62.36,175.87,62.06,177,62.79,177.17z"/>
			</g>
		</g>
		<g>
			<g>
				<path class="st1" d="M87.7,227.39c2.49,2,5.67,2.98,8.82,2.92c0.41,0,0.8-0.02,1.21-0.06c1.68-0.18,3.32-0.64,4.84-1.4
					c2.16-1.09-0.73-2.23-0.11-4.3c0.81-2.7,1.63-5.41,2.44-8.11c0.92-0.5,1.81-1.05,2.67-1.68c0.61-0.45,0.03-1.48-0.59-1.03
					c-0.51,0.38-1.04,0.73-1.58,1.05c0.09-0.28,0.16-0.57,0.25-0.85c0.22-0.74-0.93-1.03-1.14-0.31c-0.2,0.66-0.39,1.33-0.59,1.99
					c-0.59,0.29-1.21,0.57-1.82,0.81c-0.52,0.2-1.05,0.39-1.6,0.55c-1,0.3-2.05,0.51-3.11,0.64c-2.84,0.34-5.83-0.66-8.6-0.1
					C83.69,218.53,84.46,224.79,87.7,227.39z"/>
			</g>
		</g>
		<g>
			<g>
				<path class="st5" d="M104.25,201.96c0,0-6.34,10.95-15.66,10.29c-9.31-0.66-11.37-7.57-11.37-7.57l21.82-5.34L104.25,201.96z"/>
			</g>
		</g>
		<g>
			<g>
				<g>
					<path class="st5" d="M83.16,174.65c-0.21,0.5,0.27,0.95,0.66,0.9c0.27,1.12,1.51,1.88,2.44,2.66c2.01,1.69,4.17,3.15,6.46,4.44
						c2.6,1.46,5.29,2.74,7.84,4.29c2.12,1.29,4.26,2.78,6.79,3.11c3.68,0.48,6.65-4.13,7.87-7.12c0.79-1.93,1-4.35,0.1-6.2
						c0.47-1.51,0.65-3.08-0.18-4.54c-0.41-0.72-0.97-1.22-1.65-1.68c-1.63-1.13-2.9-1.9-4.03-3.6c-2.16-3.27-5.36-4.09-8.69-3.07
						c0.26-1.57,0.19-3.17-0.86-4.46c-1.34-1.65-3.49-1.71-5.36-0.99c-2.77,1.07-4.74,3.41-6.28,5.81
						C86.19,167.44,84.66,171.1,83.16,174.65z"/>
				</g>
			</g>
			<g>
				<g>
					<path class="st1" d="M108.8,188.43c0,0-4.65,11.92-10.39,16.93c-3.92,3.42-9.26,5.56-14.5,4.65
						c-6.01-1.03-10.72-5.91-10.94-12.05c-0.22-6.25,2.54-12.57,5.66-17.84c0.35-0.59,0.7-1.17,1.07-1.74
						c5.24-8.1,8.06-10.62,12-11.2c3.94-0.58,14.64,5.25,16.3,10.5C109.65,182.94,108.8,188.43,108.8,188.43z"/>
				</g>
			</g>
			<g>
				<g>
					<path class="st5" d="M107.7,167.23c0.16,0.07,0.31,0.08,0.45,0.07c3,5.12,5.39,10.84,4.92,16.7c-1.64,2.37-4.34,5.94-5.71,6.04
						c-2.01,0.15-2.54-4.3-1.84-8.22c0.9-5.07-0.85-5.48-6.72-9.24c-4.55-2.91-8.97-5.8-14.05-1.12c-0.47,0.43,2.57-4.07,4.85-7.83
						C95.84,162.04,101.96,164.64,107.7,167.23z"/>
				</g>
			</g>
			<g>
				<g>
					<path class="st1" d="M102.3,194.41c-0.52,0.84-1.01,1.71-1.47,2.6c-0.63,1.23-1.18,2.53-1.33,3.9s0.17,2.85,1.1,3.87
						c1.1,1.19,2.89,1.57,4.48,1.27c1.59-0.3,3.02-1.18,4.31-2.17c2.73-2.11,5.01-4.78,6.73-7.78c1.09-1.91,2.1-4,2.45-6.19
						c0.22-1.39,0.11-2.88-0.58-4.12c-2.36-4.21-7.19-1.22-9.62,1.14C106.06,189.17,103.99,191.68,102.3,194.41z"/>
				</g>
			</g>
			<g>
				<g>
					<path class="st7" d="M92.5,187.8c-0.05,0.18-0.06,0.37-0.05,0.56c0.04,0.54,0.39,1.08,0.91,1.22c0.52,0.14,1.08-0.16,1.39-0.6
						c0.27-0.39,0.38-0.9,0.26-1.36c-0.28-1.02-1.46-1.27-2.16-0.49C92.68,187.32,92.56,187.56,92.5,187.8z"/>
				</g>
			</g>
			<g>
				<g>
					<path class="st7" d="M84.94,184.54c-0.05,0.18-0.06,0.37-0.05,0.56c0.04,0.54,0.39,1.08,0.91,1.22
						c0.52,0.14,1.08-0.16,1.39-0.6c0.27-0.39,0.38-0.9,0.26-1.36c-0.28-1.02-1.46-1.27-2.16-0.49
						C85.12,184.07,85,184.3,84.94,184.54z"/>
				</g>
			</g>
			<g>
				<g>
					<path class="st5" d="M104.49,197.09c2.34-1.34,4.34-3.09,5.96-5.25c0.45-0.6,1.48-0.01,1.02,0.6c-1.1,1.47-2.36,2.74-3.77,3.87
						c0.5,0.61,0.93,1.26,1.27,1.98c0.32,0.69-0.71,1.29-1.03,0.59c-0.31-0.67-0.7-1.28-1.17-1.84c-0.54,0.39-1.1,0.75-1.69,1.09
						C104.42,198.5,103.83,197.47,104.49,197.09z"/>
				</g>
			</g>
			<g>
				<g>
					<path class="st5" d="M88.03,187.96c0.33-0.54,0.66-1.09,0.99-1.63c0.4-0.65,1.42-0.05,1.02,0.6c-0.33,0.54-0.66,1.09-0.99,1.63
						C88.66,189.21,87.64,188.62,88.03,187.96z"/>
				</g>
			</g>
			<g>
				<g>
					<path class="st8" d="M88.23,190.64c0.69,0.24,1.38,0.44,2.1,0.6c0.23,0.05,0.46,0.1,0.66,0.22c1.02,0.63-0.42,2.4-0.91,2.84
						c-1.69,1.51-4.09,1.62-4.86-0.88c-0.18-0.59-0.63-4.18,0.83-3.6C86.78,190.11,87.5,190.39,88.23,190.64z"/>
				</g>
			</g>
			<g>
				<g>
					<path class="st5" d="M94.4,182.86c0.11-0.05,0.23-0.09,0.35-0.11c1.33-0.19,2.79,0.93,3.33,2.06c0.19,0.39,0.27,0.92-0.05,1.2
						c-0.24,0.2-0.59,0.18-0.9,0.11c-1.07-0.21-2.07-0.73-2.87-1.48c-0.24-0.23-0.47-0.5-0.51-0.83
						C93.71,183.41,94.01,183.04,94.4,182.86z"/>
				</g>
			</g>
			<g>
				<g>
					<path class="st5" d="M89.99,180.99c-0.04-0.12-0.09-0.23-0.16-0.33c-0.77-1.11-2.57-1.41-3.78-1.04
						c-0.41,0.13-0.86,0.42-0.84,0.85c0.01,0.31,0.27,0.55,0.53,0.74c0.88,0.64,1.95,1.02,3.03,1.09c0.33,0.02,0.69,0.01,0.95-0.19
						C90.05,181.86,90.12,181.39,89.99,180.99z"/>
				</g>
			</g>
		</g>
		<g>
			<g>
				<path class="st6" d="M125.22,230.49c-0.07,1.19-0.01,2.38,0.17,3.54c1.07,7.07,6.54,13.48,14.1,16.9
					c2.92,1.32,6.13,2.21,9.53,2.52c13.17,1.2,27.26-0.08,39.23-6.05c15.55-7.76,37.54-28.35,21.01-45.76
					c-4.72-4.97-11.51-8.35-18.03-10.26c-3.5-1.02-7.25-1.46-10.88-1.54c-1.89-0.03-3.81,0.06-5.69,0.26
					c-0.39,0.04-1.12,0.23-1.89,0.43c-1.18,0.28-2.51,0.57-2.94,0.34c-4.25-2.21-8.88-3.66-13.67-4.27
					c-0.12-0.02-0.24-0.04-0.36-0.05c-2.14-0.25-4.3-0.34-6.48-0.25c-0.24,0.01-0.38,0.13-0.47,0.29l0.23-1.19l0.04-0.19
					c0.15-0.74-0.99-1.06-1.14-0.31c-0.04,0.2-0.08,0.4-0.12,0.59c-0.07,0.41-0.16,0.82-0.24,1.23c-0.69,3.51-1.39,7.01-2.09,10.53
					c-2.88,1.69-5.5,3.94-7.62,6.59C130.66,212.96,125.85,220.03,125.22,230.49z"/>
			</g>
		</g>
		<g>
			<g>
				<path class="st5" d="M125.35,233.05l0.04,0.98c0.75,5.01,3.73,9.68,8.09,13.21c1.79,1.45,3.81,2.7,6.02,3.7
					c6.19,1.66,12.63-1.42,17.28-5.38c4.69-3.98,8.06-9.38,10.26-15.09c1.79-4.63,2.92-9.64,3.05-14.65
					c0.06-1.57,0.02-3.14-0.13-4.68c-1.37-13.94-12.49-19-24.67-10.15c-9.57,6.94-16.36,19.76-18.93,26.06
					C125.59,228.95,125.25,230.99,125.35,233.05z"/>
			</g>
		</g>
		<g>
			<g>
				<path class="st1" d="M133.48,247.24c0.43,0.35,0.88,0.69,1.35,1.01c0.32,0.23,0.97,0.67,0.97,0.67s0.86,0.88,2.41,1.87
					c1.81,1.15,4.55,2.46,7.97,2.67c7.84,0.51,14.15-4.19,20.17-20.61c2.28-6.21,3.61-12.02,3.75-17.03
					c-4.16,1.24-8.47,1.94-12.83,2.07c-0.52,0.02-1.04,0.03-1.56,0.01c-1.01,0.01-2.01-0.01-3.02-0.07
					c-0.7-0.04-0.74,0.93-0.18,1.14c-7.22,4.38-15.11,9.37-18.34,17.58C132.8,240.03,132.52,243.83,133.48,247.24z"/>
			</g>
		</g>
		<g>
			<g>
				<path class="st1" d="M98.6,224.93c-0.98,3.71-1.24,7.7-0.4,11.46c0.72,3.2,2.89,8.61,6.81,8.74c0.28,0.01,0.54,0,0.8-0.04
					c0.41-0.07,0.81-0.19,1.18-0.38l0.01,0c2.41-1.12,4.01-4.24,5.44-6.2c0.7-0.97,1.38-1.95,2.02-2.97c0.18-0.27,0.45-1,0.73-1.17
					l14.5-9.1l18.65-2.25c0,0,3.28,0.16,6.33,0.24c2.75,0.08,5.31,0.09,5.15-0.13c0,0-10.74-15.62-26.16-19.89
					c-15.42-4.27-22.78,0.34-29.09,9.17C101.87,216.2,99.78,220.43,98.6,224.93z"/>
			</g>
		</g>
		<g>
			<g>
				<path class="st1" d="M106.96,238.4c-0.81,5.22,0.22,11.53,5.35,14.22c2.33,1.23,4.58,0.32,6.24-1.5c0.29-0.3,0.75-0.8,1.17-1.35
					c0.47-0.6,0.87-1.25,0.91-1.77c0,0-0.06,0.92,0.24,2.08c0.44,1.79,1.72,4.16,5.32,4.63c5.92,0.78,9.18-8.37,13.86-14.38
					c4.67-6,7.86-7.19,8.22-7.81l7.09-5.46l-1.24-6.46l-8.15-5.05l-16.05-2.26C129.95,213.27,107.79,233.01,106.96,238.4z"/>
			</g>
		</g>
		<g>
			<g>
				<path class="st5" d="M155.7,217.91c1.77,1.96,3.44,4.01,5,6.16c0.45,0.62,1.43-0.06,0.97-0.67c-1.39-1.91-2.85-3.74-4.4-5.5
					C156.74,217.91,156.22,217.92,155.7,217.91z"/>
			</g>
		</g>
		<g>
			<g>
				<path class="st5" d="M134.83,248.25c0.32,0.23,1.83,1.55,3.38,2.54c0.75-3.53,1.84-7.46,3.46-10.54
					c1.13-2.16,2.63-6.2,5.66-5.78c0.74,0.11,1.05-1.03,0.31-1.14c-4.17-0.59-6.25,4.11-8.13,7.05
					C137.86,242.94,136.3,245.58,134.83,248.25z"/>
			</g>
		</g>
		<g>
			<g>
				<path class="st5" d="M119.73,249.76c0.47-0.6,0.85-0.85,1.16,0.31c0.31-4.74,1.31-9.41,3.03-13.87
					c2.48-6.47,7.49-16.34,15.98-14.31c0.74,0.17,1.05-0.97,0.31-1.14c-7.63-1.82-12.7,5.07-15.67,11.09
					C121.77,237.47,120.16,243.56,119.73,249.76z"/>
			</g>
		</g>
		<g>
			<g>
				<path class="st5" d="M105.81,245.09c0.41-0.07,0.81-0.19,1.18-0.38c0.02-2.72,0.25-5.43,0.7-8.1c0.59-3.48,1.55-6.92,2.88-10.23
					c2.86-7.12,8-16.62,16.85-16.36c0.77,0.02,0.75-1.16-0.01-1.18c-8.34-0.25-13.47,7.5-16.65,14.21
					C107.46,229.94,105.81,237.47,105.81,245.09z"/>
			</g>
		</g>
		<g>
			<g>
				<path class="st5" d="M27.67,141.01c1.91,7.49,4.97,15.56,8.34,23.11c1.53,3.41,3.12,6.72,4.7,9.82
					c2.53,4.96,6.38,10.57,10.67,15.26c6.9-1.65,10.11-11.68,8.07-21.63c-0.88-4.27-2.05-8.61-3.43-12.82
					c-5.45-16.42-14.43-30.82-23.98-31.18c-0.01,0-0.01,0-0.02-0.01c-1.29-0.04-2.53,0.67-3.17,1.79
					C26.35,129.88,26.5,136.42,27.67,141.01z"/>
			</g>
		</g>
		<g>
			<g>
				<path class="st1" d="M36.01,164.12c1.53,3.41,3.12,6.72,4.7,9.82c2.53,4.96,6.38,10.57,10.67,15.26c1-0.24,1.9-0.64,2.73-1.21
					c1-0.65,1.86-1.51,2.62-2.55c0-0.01,0-0.01,0-0.01c3.04-4.18,4.11-11.04,2.71-17.87c-0.88-4.27-2.05-8.61-3.43-12.82
					c-1.39-0.45-3.01-0.84-4.72-1.02c-0.57-0.07-1.15-0.1-1.73-0.1c-2.14-0.03-4.34,0.36-6.37,1.44
					C40,156.8,37.65,160.47,36.01,164.12z"/>
			</g>
		</g>
		<g>
			<g>
				<path class="st5" d="M54.11,188c1-0.65,1.86-1.51,2.62-2.55c0-0.01,0-0.01,0-0.01c0.3-0.98,0.56-1.96,0.77-2.96
					c1.99-9.44,0.39-20.15-6.21-28.75c-0.57-0.07-1.15-0.1-1.73-0.1C57.19,163.09,58.65,176.36,54.11,188z"/>
			</g>
		</g>
		<g>
			<g>
				<path class="st1" d="M9.63,167.41c0.48,2.79,2.91,4.51,5.73,3.9c0.07-0.02,0.14-0.03,0.21-0.07c0.46-0.11,0.9-0.29,1.3-0.5
					c0,0.11-0.01,0.21-0.01,0.32c-0.17,3.35,0.62,6.38,3.82,6.81c2.17,0.29,4.16-1.02,5.77-2.53c0.35-0.31,0.67-0.64,0.98-0.96
					c0.07,0.34,0.13,0.67,0.21,1c0.87,4.17,2.3,8.18,4.96,11.62c3.49,4.5,9.19,8.01,14.83,6.21c5.3-1.69,7.22-5.24,8.54-9.65
					c0.9-2.99,1.19-7.15,0.93-10.26c-0.46-5.43-1.04-9.04-3.52-13.91c-2.23-4.39-5.55-9.57-10.51-11.3
					c-2.08-0.72-4.07-0.69-5.94-0.17c-0.01-0.01-0.01-0.01-0.02-0.03c-0.19-0.36-0.39-0.7-0.6-1.04c-2.36-3.8-6.1-6.68-10.92-6.14
					c-3.39,0.38-5.34,2.58-7.24,5.19c-2.03,2.77-3.8,5.73-5.27,8.83c-0.25,0.52-0.51,1.07-0.77,1.62
					C10.54,159.78,8.99,163.73,9.63,167.41z"/>
			</g>
		</g>
		<g>
			<g>
				<path class="st1" d="M5.24,160.32c1.22-0.25,2.64-0.51,4.15-0.8c0.46-0.08,0.93-0.18,1.42-0.3c4.84-1,10.25-2.45,13.03-5.03
					c0.44-0.41-4-3.55-4.47-3.55c0.21-1.71-0.42-3.14-1.53-4.19c-0.29-0.28-0.61-0.52-0.96-0.73c-1.41-0.88-3.22-1.26-4.99-0.97
					c-4.67,0.75-9.22,5.25-11.25,9.35C-1.17,157.77,1.01,161.16,5.24,160.32z"/>
			</g>
		</g>
		<g>
			<g>
				<path class="st5" d="M9.39,159.52c0.46-0.08,0.93-0.18,1.42-0.3c1.99-4.44,4.33-8.7,7.03-12.77c-0.29-0.28-0.61-0.52-0.96-0.73
					C13.99,150.09,11.48,154.71,9.39,159.52z"/>
			</g>
		</g>
		<g>
			<g>
				<path class="st5" d="M25.74,167.58c-0.22,2.32,0.28,5.9,0.7,7.77c0.35-0.31,0.67-0.64,0.98-0.96c0.07,0.34,0.13,0.67,0.21,1
					c-0.12-1.16-0.58-3.6-0.61-4.78c-0.11-4.32-0.04-7.65,3.16-9.94c4.36-3.13,8.39,5.04,9.77,7.62c1.82,3.43,3.54,7.07,5.36,10.5
					c0.36,0.67,1.39,0.08,1.03-0.59c-0.58-1.09-1.14-2.19-1.7-3.31c0.83-0.06,1.65-0.12,2.47-0.17c0.76-0.05,0.76-1.24,0-1.19
					l-2.94,0.21c-0.04,0-0.07,0.02-0.09,0.02c-1.9-3.81-3.8-7.69-6.12-11.18c-1.53-2.31-4.18-4.66-7.14-3.63
					C27.17,160.2,26.04,164.32,25.74,167.58z"/>
			</g>
		</g>
		<g>
			<g>
				<path class="st5" d="M15.57,171.24c0.46-0.11,0.9-0.29,1.3-0.5c0,0.11-0.01,0.21-0.01,0.32c1.4-4.99,4.3-9.59,7.66-13.43
					c3.39-3.87,7.35-8.21,12.4-9.74c-0.19-0.36-0.39-0.7-0.6-1.04c-4.97,1.6-8.81,5.66-12.27,9.55
					C20.3,160.6,17.03,165.71,15.57,171.24z"/>
			</g>
		</g>
		<g>
			<g>
				<path class="st5" d="M96.52,230.31c0.41,0,0.8-0.02,1.21-0.06c0.63-4.83,2.09-9.49,4.36-13.83c-0.52,0.2-1.05,0.39-1.6,0.55
					C98.44,221.18,97.1,225.67,96.52,230.31z"/>
			</g>
		</g>
		<g>
			<g>
				<path class="st5" d="M185.28,217.69c0.12,0.03,0.25,0.03,0.38-0.02c0.3-0.12,0.45-0.47,0.32-0.77
					c-0.26-0.64-6.55-15.71-19.58-20.16c-9.18-3.13-14.84-0.12-19.59,3.6c-0.26,0.2-0.3,0.57-0.1,0.83c0.2,0.26,0.57,0.3,0.83,0.1
					c5.18-4.07,10.3-6.21,18.47-3.41c12.52,4.28,18.8,19.33,18.86,19.49C184.96,217.52,185.11,217.64,185.28,217.69z"/>
			</g>
		</g>
		<g>
			<g>
				<path class="st5" d="M171.24,200.38c0.1,0.03,0.21,0.03,0.32,0c16.03-4.72,26.18,5.24,26.29,5.34c0.23,0.23,0.61,0.23,0.84,0
					c0.23-0.23,0.23-0.61,0-0.84c-0.11-0.11-10.73-10.57-27.46-5.64c-0.31,0.09-0.49,0.42-0.4,0.74
					C170.88,200.18,171.04,200.33,171.24,200.38z"/>
			</g>
		</g>
		<g>
			<g>
				<g>
					<path class="st5" d="M131.1,191.58c0.08,0.11,0.21,0.19,0.33,0.22c0.16,0.04,0.35,0.02,0.49-0.09c0.08-0.05,5.6-3.91,15.7-4.98
						c2.46-0.26,5.2-0.35,8.19-0.18c0.05,0,0.11,0,0.17,0.01c0.06,0,0.12,0.01,0.18,0.01c-0.09-0.4-0.19-0.8-0.32-1.2
						c-0.25-0.93-0.56-1.83-0.93-2.73c-1.34-0.02-2.63,0.03-3.86,0.12c-0.43,0.03-0.83,0.06-1.23,0.1
						c-10.6,1.01-18.31,7.67-18.6,7.88C130.97,190.94,130.91,191.31,131.1,191.58z"/>
				</g>
			</g>
		</g>
		<g>
			<g>
				<g>
					<path class="st5" d="M126.85,172.29c4.6,4.12,6.7,7.83,6.73,7.89c0.08,0.16,0.21,0.25,0.36,0.29c0.15,0.04,0.3,0.02,0.44-0.05
						c0.29-0.16,0.39-0.52,0.23-0.81c-0.13-0.23-2.17-3.88-6.69-7.98C127.56,171.84,127.19,172.05,126.85,172.29z"/>
				</g>
			</g>
		</g>
		<g>
			<g>
				<g>
					<path class="st5" d="M55.28,193.1c1.03,0.93,2.07,1.78,3.11,2.54c0.01,0,0.01,0.01,0.02,0.02c0.35,0.25,0.69,0.49,1.02,0.73
						c0.02,0.24,0.04,0.49,0.08,0.75c0-0.22,0.01-0.45,0.02-0.67c0.44-10.3,4.3-16.35,4.35-16.43c0.17-0.28,0.1-0.65-0.17-0.82
						c-0.27-0.18-0.63-0.11-0.82,0.16c-0.04,0.05-1.71,1.6-3.7,5.06C58.37,185.87,56.6,189.95,55.28,193.1z"/>
				</g>
			</g>
		</g>
		<g>
			<g>
				<path class="st5" d="M63.84,142.24c2.29,4.28,4.25,8.71,5.88,13.29c0.26,0.72,1.38,0.35,1.12-0.37
					c-1.59-4.49-3.51-8.83-5.71-13.02C64.71,142.16,64.27,142.2,63.84,142.24z"/>
			</g>
		</g>
		<g>
			<g>
				<path class="st4" d="M177.05,130.41l1.35,12.44c0,0,10.72,5.83,15.24-0.93c0.02-0.02,0.04-0.05,0.06-0.08
					c0.21-0.34,0.42-0.66,0.63-0.97c4.08-6.34,6.14-10.52,6.14-10.52s2-8.9-3.88-15.68c-5.39-6.2-9.42-4.95-11.16-1.7
					c-0.8,1.49-0.68,2.59-3.38,5.56c-0.12,0.13-0.23,0.27-0.35,0.42c-0.96,1.24-1.84,3.16-2.59,5.07c-0.16,0.4-0.3,0.79-0.44,1.17
					C177.68,127.95,177.05,130.41,177.05,130.41z"/>
			</g>
		</g>
		<g>
			<g>
				<g>
					<path class="st2" d="M101.27,138.51c0.78,2.04,1.9,3.79,3.3,5.27c1.86,2.02,4.2,3.54,6.79,4.61c4.77,1.98,10.36,2.4,15.3,1.45
						c9.57-1.83,18.04-9.17,26.49-18.56c8.44-9.39,25.27-33.29,30.02-51.03c2.86-10.69,2.14-22.35-5.83-28.58
						c-0.35-0.28-0.72-0.55-1.12-0.8c-2.04-1.37-4.52-2.41-7.47-3.02c-0.22-0.05-0.45-0.1-0.69-0.14
						c-23.2-4.16-38.51,19.94-44.82,36.75c-2.32,6.19-4.49,13.83-7.64,19.65C109.93,114.58,96.1,124.96,101.27,138.51z"/>
				</g>
			</g>
			<g>
				<g>
					<g>
						<path class="st5" d="M104.57,143.78c1.86,2.02,4.2,3.54,6.79,4.61l0.27,0.07c3.55,0.95,7.43,1.16,11.18,0.54
							c6.17-1.01,11.93-4.39,15.79-9.3c2.28-2.9,4.06-6.15,5.79-9.29c1.68-3.06,3.42-6.21,5.59-9c2.22-2.85,4.83-5.47,7.35-7.99
							c1.66-1.68,3.39-3.41,5-5.2c5.87-6.53,9.86-11.9,12.94-17.39c5.26-9.38,11.46-23.3,4.58-35.73c-0.89-1.61-2.14-3.03-3.63-4.25
							c-2.04-1.37-4.52-2.41-7.47-3.02c4.18,1.78,8.12,4.32,10.06,7.85c6.59,11.91,0.55,25.43-4.58,34.57
							c-3.03,5.41-6.97,10.71-12.78,17.18c-1.59,1.77-3.3,3.48-4.96,5.15c-2.55,2.56-5.18,5.19-7.44,8.1
							c-2.24,2.86-3.99,6.07-5.7,9.17c-1.7,3.1-3.46,6.31-5.68,9.12c-3.67,4.66-9.16,7.9-15.06,8.86
							c-5.7,0.95-11.78-0.13-16.24-2.87C105.74,144.59,105.15,144.2,104.57,143.78z"/>
					</g>
				</g>
			</g>
			<g>
				<g>
					<path class="st3" d="M126.99,143.31c-2.71,1.31-5.69,2.01-8.9,1.86c-6.12-0.29-12.09-4.1-13.94-10.1
						c-1.73-5.62,1.12-11.01,4.32-15.48c3.08-4.3,6.9-8.18,9.36-12.89c2.77-5.3,5.71-13.62,7.81-19.22
						c3.58-9.55,8.91-18.88,15.98-26.27c4.91-5.14,11.65-9.35,18.81-10.28c4.92-0.64,11.09,0.58,14.27,4.72
						c8.2,10.67,1.28,24.59-4.38,34.5c-1.95,3.42-4.58,6.64-6.87,9.84c-4.71,6.22-11.11,10.85-15.8,17.03
						c-4.96,6.53-7.74,14.68-13.38,20.77C132.15,140.08,129.71,142,126.99,143.31z"/>
				</g>
			</g>
			<g>
				<g>
					<path class="st2" d="M178.17,71.51c0.3,0.08,0.62-0.09,0.72-0.39c0.1-0.31-0.07-0.65-0.38-0.75L143.5,58.99
						c-0.3-0.11-0.65,0.07-0.75,0.38c-0.1,0.31,0.07,0.65,0.38,0.75l35.01,11.39C178.15,71.5,178.16,71.5,178.17,71.51z"/>
				</g>
			</g>
			<g>
				<g>
					<path class="st2" d="M175.22,84.4c0.3,0.08,0.62-0.09,0.72-0.39c0.1-0.31-0.07-0.65-0.38-0.75L133.6,69.62
						c-0.3-0.11-0.64,0.07-0.75,0.38c-0.1,0.31,0.07,0.65,0.38,0.75l41.95,13.64C175.2,84.39,175.21,84.4,175.22,84.4z"/>
				</g>
			</g>
			<g>
				<g>
					<path class="st2" d="M166.83,95.75c0.3,0.08,0.62-0.09,0.72-0.39c0.1-0.31-0.07-0.65-0.38-0.75l-40.24-13.09
						c-0.3-0.1-0.65,0.07-0.75,0.38c-0.1,0.31,0.07,0.65,0.38,0.75l40.24,13.09C166.81,95.75,166.82,95.75,166.83,95.75z"/>
				</g>
			</g>
			<g>
				<g>
					<path class="st2" d="M158.22,106.7c0.3,0.08,0.62-0.09,0.72-0.39c0.1-0.31-0.07-0.65-0.38-0.75l-36.07-11.73
						c-0.3-0.11-0.65,0.07-0.75,0.38c-0.1,0.31,0.07,0.65,0.38,0.75l36.07,11.73C158.2,106.69,158.21,106.7,158.22,106.7z"/>
				</g>
			</g>
			<g>
				<g>
					<path class="st2" d="M149.59,117.7c0.3,0.08,0.62-0.09,0.72-0.39c0.1-0.31-0.07-0.65-0.38-0.75l-32.98-10.72
						c-0.29-0.1-0.65,0.07-0.75,0.38c-0.1,0.31,0.07,0.65,0.38,0.75l32.98,10.72C149.57,117.7,149.58,117.7,149.59,117.7z"/>
				</g>
			</g>
			<g>
				<g>
					<path class="st2" d="M142.75,129.48c0.3,0.08,0.62-0.09,0.72-0.39c0.1-0.31-0.07-0.65-0.38-0.75l-35.01-11.39
						c-0.29-0.11-0.65,0.07-0.75,0.38c-0.1,0.31,0.07,0.65,0.38,0.75l35.01,11.39C142.73,129.47,142.74,129.48,142.75,129.48z"/>
				</g>
			</g>
			<g>
				<g>
					<path class="st2" d="M134.43,140.2c0.3,0.08,0.62-0.09,0.72-0.4c0.1-0.31-0.08-0.64-0.39-0.74l-32.21-10.1
						c-0.32-0.09-0.64,0.08-0.74,0.39c-0.1,0.31,0.08,0.64,0.39,0.74l32.21,10.1C134.42,140.2,134.42,140.2,134.43,140.2z"/>
				</g>
			</g>
		</g>
		<g>
			<g>
				<path class="st5" d="M178.68,125.18c5.76,4.84,10.96,10.23,15.12,16.5c0.02-0.02,0.32-0.5,0.53-0.81
					c-2.68-6.08-7.78-15.41-12.62-21.93c-0.96,1.24-1.84,3.16-2.59,5.07C178.96,124.41,178.82,124.8,178.68,125.18z"/>
			</g>
		</g>
		<g>
			<g>
				<g>
					<path class="st5" d="M153.25,168.54c6.82-0.14,15.35-0.63,22.58-1.13c8.44-0.59,15.08-1.16,15.23-1.17
						c0.33-0.02,0.56-0.32,0.54-0.64c-0.03-0.33-0.32-0.56-0.64-0.54c-0.15,0.02-6.98,0.61-15.54,1.2
						c-6.58,0.44-14.17,0.89-20.55,1.07c-0.55,0.54-0.96,0.93-1.14,1.04C153.61,168.44,153.45,168.5,153.25,168.54z"/>
				</g>
			</g>
		</g>
	</g>
	<g>
		<g>
			<path class="st0" d="M19.05,1.65c-0.51,0.9-0.61,1.97-0.66,3.01c-0.33,7.18,1.59,14.28,3.92,21.07c1.35,3.92,2.85,7.81,4.8,11.47
				c0.92,1.73,1.88,3.52,3.36,4.85c0.95,0.85,2.49,1.79,3.73,0.99c0.99-0.64,1.31-2.04,1.32-3.14c0.1-10.23-2.77-20.29-6.76-29.71
				c-1.09-2.58-2.28-5.14-3.94-7.4c-0.77-1.05-2.02-2.21-3.25-2.48C20.64,0.11,19.73,0.42,19.05,1.65z"/>
		</g>
	</g>
	<g>
		<g>
			<path class="st0" d="M141.98,21.77c-0.91-1.23-2.79-1.26-3.87-0.25c-0.8,0.75-1.36,1.73-1.86,2.71
				c-2.34,4.58-3.96,10.36-4.6,15.46c-0.31,2.49-0.59,5.4,0.72,7.67c0.34,0.58,0.84,1.09,1.49,1.28c0.84,0.25,1.56-0.15,2.06-0.81
				c2.31-3.08,3.55-6.88,4.6-10.53c0.83-2.88,1.45-5.82,1.84-8.8c0.21-1.55,0.33-3.12,0.25-4.68c-0.02-0.35-0.07-0.71-0.16-1.05
				C142.35,22.41,142.21,22.07,141.98,21.77z"/>
		</g>
	</g>
</g>
</svg>
