<?xml version="1.0" encoding="utf-8"?>
<!-- Generator: Adobe Illustrator 26.3.1, SVG Export Plug-In . SVG Version: 6.00 Build 0)  -->
<svg version="1.1" id="Layer_2" xmlns="http://www.w3.org/2000/svg" xmlns:xlink="http://www.w3.org/1999/xlink" x="0px" y="0px"
	 viewBox="0 0 328 309" style="enable-background:new 0 0 328 309;" xml:space="preserve">
<style type="text/css">
	.st0{fill:#9FC4FF;}
	.st1{fill:#003487;}
	.st2{fill:#FFB27D;}
	.st3{fill:#FFB53E;}
	.st4{fill:#FFFFFF;}
	.st5{fill:#F5784C;}
	.st6{fill:#CFD7E6;}
	.st7{fill:#17110A;}
	.st8{fill:#FFC545;}
	.st9{fill:#D7E2FF;}
</style>
<g>
	<g>
		<g>
			<path class="st0" d="M196.72,0.86c-0.83,0.2-1.68,0.45-2.34,0.99c-0.89,0.73-1.02,2.06,0.1,2.64c1.25,0.65,3.09,0.15,4.44,0.13
				c1.37-0.02,2.75,0.04,4.11,0.21c2.83,0.34,5.62,1.11,8.2,2.31c11.96,5.57,17.18,17.57,17.69,30.19
				c0.64,15.67-5.89,30.19,5.46,47.21c7.08,10.62,22.39,14.49,29.28,25.34c14.39,22.67-5.29,36.82-6.93,53.95
				c-0.68,7.09,0.5,14.88,5.53,20.27c4.26,4.56,10.61,6.92,16.69,5.05c0.81-0.25,0.46-1.53-0.35-1.28c-4.88,1.5-9.27,0.29-12.73-2.4
				c15.43,7,32.13-2.83,38.41-17.6c6.56-15.41,5.52-33.8-2.08-48.05c-7.57-14.18-18.84-24.08-32.26-32.59
				c-7.75-4.92-21.91-12.16-26.31-20.43c-4.25-8.01-3.14-19.47-7.83-36.51c-3.81-13.86-14.51-27.5-29.8-29.76
				C202.9,0.07,199.72,0.15,196.72,0.86z"/>
		</g>
	</g>
	<g>
		<g>
			<g>
				<path class="st1" d="M110.4,116.87c2.6-1.69,4.36-3.6,4.94-6.78c0.99-5.44-3.57-9.34-8.58-8.78c-4.33,0.48-7.82,3.45-11.21,5.93
					c-2.42,1.77-4.93,3.41-7.23,5.33c-2.31,1.92-5.07,4.44-5.27,7.65c-0.15,2.39,1.27,4.66,3.36,5.77c2.45,1.31,5.07,0.78,7.55-0.16
					c5.75-2.18,10.99-5.49,16.18-8.77C110.22,116.99,110.31,116.93,110.4,116.87z"/>
			</g>
		</g>
		<g>
			<g>
				<path class="st2" d="M88.06,118.73l17.18,6.54l1.16-2.06c0,0,0.01-0.01,0.03-0.04c0-0.01,0-0.01,0-0.03l0.08-0.11l2.9-5.16
					c1.48-2.63,1.42-5.94-0.36-8.39c-0.54-0.74-1.19-1.4-1.95-1.85c-0.21-0.13-0.44-0.25-0.66-0.36c-2.91-1.35-6.39-0.53-8.66,1.73
					L88.06,118.73z"/>
			</g>
		</g>
		<g>
			<g>
				<path class="st3" d="M60.12,153.83c0,0,2.24-0.05,5.73-0.25c0.44-0.03,0.91-0.05,1.39-0.08c7.37-0.44,19.02-1.42,27.64-3.52
					c1.76-0.42,3.39-0.9,4.83-1.43c2.14-0.78,3.86-1.67,4.98-2.69c0.78-0.71,1.48-1.46,2.12-2.22c0.01,0,0.01-0.01,0.01-0.01
					c0.9-1.1,1.67-2.24,2.28-3.41c2.34-4.45,2.57-9.28,0.46-13.21c-0.81-1.51-1.96-2.89-3.47-4.05c-0.7-0.54-1.44-1.02-2.18-1.46
					c-3.12-1.79-6.5-2.61-9.34-2.94c-0.61-0.07-1.19-0.12-1.75-0.15c-2.54-0.13-4.39,0.12-4.75,0.32
					c-0.91,0.5-5.21,4.05-13.74,14.07C65.79,142.8,60.12,153.83,60.12,153.83z"/>
			</g>
		</g>
		<g>
			<g>
				<path class="st3" d="M60.12,153.83c0,0,9.26-1.87,17.87-5.19c8.6-3.32,22.5-8.92,22.5-8.92s0.77-4.85,5.18-10.26
					c4.41-5.4,11.96-5.51,11.96-5.51l21.13,17.1c0,0,8.6,10.37-3.31,18.31c-11.91,7.94-40.48,22.83-64.08,18.31
					C47.77,173.13,60.12,153.83,60.12,153.83z"/>
			</g>
		</g>
		<g>
			<g>
				<g>
					<path class="st4" d="M66.15,158.84c1.07,1.71,3.02,2.18,4.87,2.18c1.68,0,3.28-0.38,4.1-0.58c4.59-1.1,8.85-3.11,12.41-4.92
						c4.27-2.17,8.32-4.5,12.16-6.98c2.45-1.58,4.82-3.2,7.09-4.91c0.01,0,0.01-0.01,0.01-0.01c5.04-3.75,9.71-7.82,14.06-12.27
						c0.26-0.26,0.25-0.68-0.01-0.94c-0.25-0.25-0.68-0.25-0.93,0.01c-3.4,3.48-7,6.74-10.84,9.78c-4.42,3.52-9.15,6.76-14.21,9.77
						c-2.55,1.51-5.2,2.96-7.94,4.37c-3.49,1.77-7.66,3.75-12.11,4.82c-4.05,0.97-6.51,0.64-7.54-1.02
						c-0.83-1.31-0.44-3.27-0.04-4.65c0-0.03,0.01-0.04,0.01-0.07c1.54-5.33,5.07-10.23,8.56-14.8c2.02-2.63,4.12-5.1,6.18-7.29
						c5.08-5.36,9.66-9.95,12.56-12.79c-0.61-0.07-1.19-0.12-1.75-0.15c-2.91,2.87-7.13,7.13-11.77,12.03
						c-2.12,2.22-4.22,4.71-6.27,7.39c-3.57,4.67-7.2,9.69-8.79,15.25c-0.04,0.16-0.09,0.33-0.13,0.5
						C65.44,155.15,65.13,157.23,66.15,158.84z"/>
				</g>
			</g>
		</g>
		<g>
			<g>
				<g>
					<path class="st1" d="M77.37,148.88c0.09,0.26,0.34,0.42,0.61,0.42c0.08,0,0.16-0.01,0.24-0.04c7.04-2.71,17.51-6.92,21.69-8.6
						c0.7-0.28,1.2-0.86,1.39-1.59c0.37-1.42,1.59-5.16,4.88-9.2c0.91-1.13,2.04-2.09,3.36-2.87c-0.81-1.51-1.96-2.89-3.47-4.05
						c-0.7-0.54-1.44-1.02-2.18-1.46c-3.47,5.03-4.61,13.26-4.95,14.61c-0.08,0.3-0.3,0.56-0.61,0.69
						c-4.17,1.67-13.3,7.41-20.59,11.22C77.43,148.19,77.24,148.53,77.37,148.88z"/>
				</g>
			</g>
		</g>
		<g>
			<g>
				<g>
					<g>
						<path class="st2" d="M204.51,37.24c1.18,1.15,2.13,2.5,3.44,3.51c0.74,0.56,1.71,1.02,2.65,1.03
							c0.28,0.01,0.56-0.03,0.82-0.12c0.05-0.03,0.4-0.28,0.41-0.28c0.23,0.05,0.45,0.11,0.69,0.13c1.81,0.22,5.45,1.6,5.29-1.39
							c-0.17-2.94-3.31-12.08-7.53-13.1c-0.05-0.01-0.11-0.03-0.16-0.04c-0.17-0.15-0.35-0.27-0.5-0.42
							c-0.88-0.83-2.36-1.25-3.47-0.83c-0.97,0.37-1.56,1.39-1.17,2.17c0.11,0.23,0.25,0.44,0.44,0.64
							c-0.21,0.03-0.41,0.08-0.58,0.16c-0.32,0.16-0.58,0.42-0.75,0.83c-0.28,0.71,0.12,1.36,0.53,1.91c1.02,1.32,1.31,1.4,1.97,2.5
							c0.22,0.38,0.42,0.82,0.56,1.35c0,0,0,0-0.01-0.01c-0.03-0.09-0.12-0.19-0.26-0.29c0,0,0,0-0.01-0.01
							c-0.23-0.17-0.56-0.33-0.82-0.46c-0.16-0.08-0.29-0.13-0.37-0.17c-0.48-0.23-0.98-0.38-1.51-0.37
							c-0.28,0.01-0.58,0.09-0.85,0.24C201.56,35.13,203.81,36.55,204.51,37.24z"/>
					</g>
				</g>
			</g>
			<g>
				<g>
					<g>
						<path class="st1" d="M209.13,28.6c0.2,0.69,0.65,1.24,1.06,1.75c0.58,0.73,1.56,1.93,1.34,2.83c-0.38,1.5-0.66,2.85-0.22,4.26
							c0.64,2.14,1.34,2.73,1.42,2.78c0.08,0.05,0.16,0.08,0.24,0.08c0.12,0,0.24-0.05,0.32-0.16c0.13-0.17,0.09-0.42-0.08-0.56
							c0,0-0.15-0.13-0.36-0.49c-0.21-0.36-0.5-0.94-0.78-1.88c-0.37-1.23-0.11-2.46,0.24-3.84c0.33-1.28-0.77-2.63-1.48-3.53
							c-0.36-0.44-0.77-0.94-0.93-1.47c-0.19-0.62,0.08-1.07,0.4-1.35c-0.05-0.01-0.11-0.03-0.16-0.04
							c-0.17-0.15-0.33-0.29-0.5-0.42C209.08,27.13,208.91,27.85,209.13,28.6z"/>
					</g>
				</g>
			</g>
			<g>
				<g>
					<g>
						<path class="st1" d="M204.83,28.69c0.79,0.34,1.56,0.78,2.13,1.32c1.64,1.56,2.1,3.12,2.12,3.13
							c0.07,0.15,0.21,0.23,0.34,0.23c0.07,0,0.13-0.01,0.19-0.05c0.2-0.09,0.28-0.33,0.17-0.53c-0.05-0.09-0.53-1.7-2.26-3.34
							c-0.68-0.64-1.59-1.16-2.54-1.55C205.08,28.12,205,28.61,204.83,28.69z"/>
					</g>
				</g>
			</g>
			<g>
				<g>
					<path class="st1" d="M217.66,38.93c0.49,0.62,0.93,2.64,1.11,3.32c0.66,2.48,1.16,5,1.55,7.53c0.58,3.77,0.9,7.59,0.93,11.4
						c0.11,11.91-2.11,21.17-2.11,21.17s-24.9-4.95-19.06-11.58c2.29-2.6,4.36-5.39,5.74-8.57c2-4.59,3.99-10.25,4.22-15.84
						c0.06-1.6-0.14-3.21-0.24-4.81c-0.13-2.17,1.95-4.02,3.85-4.19C215.68,37.17,216.84,37.9,217.66,38.93z"/>
				</g>
			</g>
			<g>
				<g>
					<g>
						<path class="st1" d="M206.02,34.5c0.05,0.05,0.11,0.12,0.17,0.19c2.2,2.34,4.38,3.36,4.47,3.4c0.05,0.03,0.12,0.03,0.17,0.03
							c0.15,0,0.29-0.08,0.36-0.22c0.09-0.2,0-0.44-0.2-0.53c-0.01-0.01-2.14-0.99-4.22-3.22c-0.07-0.08-0.13-0.15-0.2-0.21
							C206.8,34.31,206.29,34.63,206.02,34.5z"/>
					</g>
				</g>
			</g>
		</g>
		<g>
			<g>
				<g>
					<g>
						<path class="st1" d="M100.29,11.84c0.1,1.68,1.54,3.11,2.29,4.54c0.64,1.22,1.04,2.87,1.12,4.02c0.04,0.52,0.38,0.6,0.73,1.03
							c0.48,0.59,0.6,0.42,1.28,0.05c1.18-0.64,1.09-1.98,0.85-3.11c0-0.01,0-0.01-0.01-0.01c0.34-2.67-0.11-5.78-1.93-7.78
							C103.19,9.01,100.14,9.18,100.29,11.84z"/>
					</g>
				</g>
				<g>
					<g>
						<path class="st2" d="M103.98,37.9c0.78,4.63,6.19-4.72,6.94-6.95c0.03-0.01,0.05-0.03,0.08-0.04
							c1.15-1.15,1.69-5.64,1.69-5.64s3.08-0.71,3.97-4.08c0.38-1.48,0.28-3.04,0.17-4.55c-0.11-1.42-0.38-3.08,0.19-4.45
							c0.54-1.27,2.34-2.75,1.32-4.29c-0.44-0.66-1.23-0.81-1.81-0.82c-0.38-0.01-0.67,0.04-0.67,0.04s1.2-0.73,1.51-1.83
							c0.15-0.53,0.08-1.14-0.42-1.8c-0.77-1.01-2.65-0.45-2.65-0.45s-0.04-0.01-0.11-0.04c-0.2-0.07-0.7-0.21-1.35-0.26
							c-0.53-0.05-1.14-0.03-1.76,0.15c-2.94,0.86-4.5,4.63-5.56,7.33c-1.16,2.98-1.54,6.31-1.77,9.5
							c-0.19,2.62-0.17,5.27-0.21,7.89C103.48,31.03,103.4,34.54,103.98,37.9z"/>
					</g>
				</g>
				<g>
					<g>
						<g>
							<path class="st1" d="M112.05,13.84c0.04,0,0.08,0.01,0.12,0.01c0.24,0,0.46-0.16,0.52-0.4c0.85-3.36,2.45-5.28,3.84-6.37
								c-0.38-0.01,0.53-0.69,0.83-1.79c-1.73,0.86-4.47,2.96-5.7,7.89C111.59,13.48,111.76,13.76,112.05,13.84z"/>
						</g>
					</g>
				</g>
				<g>
					<g>
						<g>
							<path class="st1" d="M107.3,12.64c0.08,0.04,0.17,0.05,0.25,0.05c0.19,0,0.36-0.09,0.45-0.28c0.01-0.01,0.07-0.16,0.07-0.19
								c0.56-1.72,2.36-6.45,6.11-9.21c-0.2-0.07-0.7-0.21-1.35-0.26c-3.52,2.98-5.23,7.44-5.77,9.16
								C106.93,12.17,107.04,12.51,107.3,12.64z"/>
						</g>
					</g>
				</g>
			</g>
			<g>
				<g>
					<path class="st1" d="M102.65,30.08c-0.3,5.24,0.05,10.49,0.93,15.69c1.3,7.68,3.66,15.18,7.02,22.2
						c0.43,0.9,0.88,1.79,1.34,2.68c7.82,14.97,13.48,20.59,13.48,20.59l10.21-30.51c0,0-7.93-5.89-14.51-17.97
						c-4.15-7.61-5.82-13.36-6.38-15.68c-0.22-0.93-0.7-1.76-1.37-2.43c-1.25-1.23-2.9-2.23-4.57-2.75
						c-1.83-0.56-5.08-0.43-5.46,1.97C102.99,25.94,102.77,28.01,102.65,30.08z"/>
				</g>
			</g>
		</g>
		<g>
			<g>
				<path class="st5" d="M132.16,98.66c0.65,0.6,1.3,1.18,1.95,1.73c0.61,0.54,1.2,1.05,1.8,1.55c1.42,1.22,2.78,2.34,4.04,3.4
					c0.26,0.21,0.53,0.15,0.71-0.04c6.67,6.17,15.71,9.48,25.12,8.54c5.59-0.54,12.51-2.38,15.88-7.29
					c0.77-1.11,1.34-2.32,1.77-3.57c0.7-2.03,1.1-4.17,1.5-6.25c0.67-3.53,1.35-7.07,2.02-10.6c0.2,0.26,0.41,0.53,0.62,0.79
					c0.53,0.68,1.46-0.28,0.94-0.94c-0.41-0.52-0.82-1.05-1.23-1.56c0.04-0.21,0.08-0.42,0.12-0.62c0.13-0.71-0.75-1.06-1.14-0.65
					c-4.02-5.04-8.34-9.91-13.95-13.21c-2.53-1.48-6.96-3.61-10.38-3.18c-0.21,0.03-0.42,0.05-0.62,0.11
					c-0.71-0.52-1.47-1.01-2.24-1.44c-2.04-1.18-4.24-2-6.34-1.93c-0.45,0-0.91,0.05-1.35,0.16h-0.01
					c-3.4-6.15-8.8-12.12-16.44-11.51c-7.01,0.57-13.1,7.42-15.64,13.61C113.81,78.98,122.93,90.22,132.16,98.66z"/>
			</g>
		</g>
		<g>
			<g>
				<path class="st5" d="M177.7,121.63c4.45,0.08,9.21-1.5,13.83-4.01c0.12-0.07,0.23-0.12,0.34-0.19c0.09-0.05,0.17-0.09,0.26-0.15
					c1.07-0.6,2.12-1.26,3.16-1.95c0,0,0.01,0,0.01-0.01c0.11-0.05,0.21-0.12,0.32-0.2c2.32-1.55,4.54-3.3,6.62-5.14
					c3.76-3.3,7-6.91,9.3-10.2c6.97-9.94,7.77-18.64,7.77-18.64c-2.14-12.24-17.8-19.19-25.88-15.27
					c-5.52,2.67-2.62,12.52-2.62,12.52L173,96.97c0,0-0.34,1.6-0.69,4c-0.15,1.03-0.29,2.21-0.42,3.48
					C171.2,111.66,171.41,121.52,177.7,121.63z"/>
			</g>
		</g>
		<g>
			<g>
				<path class="st1" d="M191.5,117.64c0.12-0.07,0.24-0.13,0.37-0.21c0.09-0.05,0.17-0.09,0.26-0.15c1.07-0.6,2.12-1.26,3.16-1.95
					c0,0,0.01,0,0.01-0.01c0.11-0.05,0.21-0.12,0.32-0.2c2.32-1.55,4.54-3.3,6.62-5.14c2.41-3.84,4.46-8.52,5-15.11
					c0.07-0.83-4.75,1.4-4.95,2.22c-1.88,7.69-5.61,14.72-10.77,20.51C191.52,117.63,191.52,117.63,191.5,117.64z"/>
			</g>
		</g>
		<g>
			<g>
				<path class="st5" d="M162.42,62.85c0.11,0.79,0.36,1.56,0.74,2.3c0.15,0.28,0.3,0.56,0.48,0.82c0.25,0.37,0.46,0.66,0.57,0.79
					c2.45,3.23,6.8,5.85,9.22,7.84c3.48,2.86,6.96,5.72,10.46,8.56c2.03,1.64,4.09,3.35,6.88,2.92c5.17-0.78,6.67-10.38,6.67-10.38
					s-0.07-1.27-0.37-3.23c-0.82-5.17-3.4-15.17-11.32-19.43c-1.85-1.01-4.05-1.61-6.11-1.39c-1.38,0.12-2.7,0.62-3.81,1.6
					c-0.97,0.85-1.57,1.88-1.84,2.98c-4.58-1.14-10.31-0.9-11.49,4.59C162.36,61.53,162.33,62.19,162.42,62.85z"/>
			</g>
		</g>
		<g>
			<g>
				<path class="st1" d="M162.42,62.85c0.11,0.79,0.36,1.56,0.74,2.3c0.15,0.28,0.3,0.56,0.48,0.82c0.25,0.37,0.46,0.66,0.57,0.79
					c9.04,2.38,16.69,8.25,21.45,16.57c0.42,0.74,1.48,0.12,1.14-0.66C181.91,71.64,172.06,65.28,162.42,62.85z"/>
			</g>
		</g>
		<g>
			<g>
				<path class="st1" d="M182.11,60.92c9.01,8.68,9.48,15.14,9.48,15.14l5.49-2.83c0,0,0.01-0.26,0-0.74
					c-0.82-5.17-3.4-15.17-11.32-19.43c-1.26-0.68-2.67-1.18-4.09-1.36c-1.59-0.2-3.12,0.97-3.18,2.57
					C178.42,56.05,179.44,58.35,182.11,60.92z"/>
			</g>
		</g>
		<g>
			<g>
				<path class="st6" d="M203.27,72.32c0,0-5.31-4.78-11.45-0.92c-4.61,2.91-3.93,9.56-3.93,9.56l9.42-2.33L203.27,72.32z"/>
			</g>
		</g>
		<g>
			<g>
				<path class="st4" d="M207.44,62.62c1.96,0.65,3.97,1.88,4.39,3.91c0.27,1.34,0.27,3.24,0.02,4.58
					c-0.53,2.75-1.54,5.41-2.98,7.82c-0.07,0.11-0.14,0.23-0.25,0.29c-0.13,0.07-0.28,0.07-0.42,0.09
					c-0.56,0.07-1.05,0.51-1.18,1.05c0.05-0.2-9.42-3.7-10.22-4.01c-0.67-0.26-3.41,0.76-3.75,0.12c0.69-0.41,3.6-4.09,5.08-6.47
					C200.64,65.91,202.43,60.95,207.44,62.62z"/>
			</g>
		</g>
		<g>
			<g>
				<path class="st1" d="M190.53,83.36c-0.05-0.39-0.09-0.79-0.09-1.19c-0.02-1.11,0.03-2.83,0.39-3.77
					c0.75-1.96,1.91-2.27,3.58-2.74c0.64-0.18,0.96-0.14,1.46-0.62c0.39-0.38,0.51-1.06,0.89-1.49c0.43-0.5,1-0.88,1.63-1.07
					c2.34-0.71,3.5,1.33,5.42,2.1c1.11,0.45,2.33,0.28,3.47,0.61c1.82,0.52,3.45,1.99,4.04,3.81c0.26,0.81,0.32,1.68,0.19,2.53
					c-0.04,0.23-0.57,2.29-0.87,2.21c0,0-7.56-2-10.69-1.42c-1.96,0.37-2.81,1.35-4.32,2.47c-0.51,0.38-0.76,0.79-1.44,0.91
					C192.74,85.97,191.45,84.81,190.53,83.36z"/>
			</g>
		</g>
		<g>
			<g>
				<path class="st2" d="M190.7,81.91c-1.69,5.8-2.67,13.11,2.04,17.96c4.34,4.48,10.84,3.81,14.13-1.08
					c3.79-5.62,5.24-16.21,2.07-19.27c-1.84-1.78-10.2-4.23-13.25-2.43C192.64,78.9,190.7,81.91,190.7,81.91z"/>
			</g>
		</g>
		<g>
			<g>
				<path class="st1" d="M210.62,83.74c0,0-0.6-2.49-5.36-3.76c-5.18-1.38-7.25-1.76-9.2,0.98c-1.46,2.06-3.81,2.66-4.47,0.6
					c-0.66-2.06-1.16-2.34,2.37-3.99c3.53-1.65,5.63-1.81,8.99-1.13s5.85,1.95,6.67,3.17C210.45,80.82,210.62,83.74,210.62,83.74z"
					/>
			</g>
		</g>
		<g>
			<g>
				<path class="st2" d="M193.42,85.07c0.12-1.83-0.13-3.69-0.77-5.42c-1.27-3.47-5.42-5.27-8.01-1.85
					c-1.03,1.36-1.37,3.13-1.36,4.84c0.01,2.21,0.58,4.42,1.64,6.36c0.78,1.43,2.01,2.82,3.63,2.94c1.09,0.08,2.17-0.48,2.91-1.28
					c0.74-0.81,1.19-1.84,1.49-2.9C193.2,86.88,193.36,85.97,193.42,85.07z"/>
			</g>
		</g>
		<g>
			<g>
				<path class="st7" d="M203.83,88.84c0,0.15,0.03,0.3,0.08,0.45c0.15,0.41,0.53,0.77,0.97,0.76c0.43,0,0.81-0.35,0.96-0.76
					c0.13-0.36,0.11-0.79-0.08-1.12c-0.43-0.74-1.41-0.69-1.79,0.07C203.87,88.43,203.82,88.64,203.83,88.84z"/>
			</g>
		</g>
		<g>
			<g>
				<path class="st7" d="M198.41,87.48c0,0.15,0.03,0.3,0.08,0.44c0.15,0.41,0.52,0.76,0.96,0.76c0.43,0,0.8-0.35,0.95-0.75
					c0.13-0.36,0.11-0.78-0.08-1.11c-0.43-0.73-1.39-0.68-1.77,0.07C198.45,87.08,198.41,87.28,198.41,87.48z"/>
			</g>
		</g>
		<g>
			<g>
				<path class="st1" d="M203.36,88.29v1.41c0,0.85-1.32,0.85-1.32,0v-1.41C202.04,87.44,203.36,87.44,203.36,88.29z"/>
			</g>
		</g>
		<g>
			<g>
				<path class="st1" d="M204.33,84.95c1.03-0.91,2.95-0.2,3.47,0.9c0.14,0.3,0.19,0.67-0.04,0.92c-0.19,0.21-0.51,0.28-0.81,0.32
					c-0.71,0.07-1.46-0.03-2.11-0.3c-0.36-0.15-0.72-0.36-0.86-0.68c-0.14-0.32-0.05-0.68,0.17-0.96
					C204.21,85.08,204.27,85.01,204.33,84.95z"/>
			</g>
		</g>
		<g>
			<g>
				<path class="st1" d="M201.4,84.34c-0.45-1.23-2.52-1.35-3.54-0.57c-0.28,0.21-0.51,0.52-0.44,0.84
					c0.06,0.26,0.31,0.46,0.56,0.61c0.6,0.35,1.31,0.55,2.03,0.57c0.4,0.01,0.82-0.04,1.12-0.27c0.29-0.23,0.39-0.59,0.34-0.93
					C201.46,84.5,201.43,84.42,201.4,84.34z"/>
			</g>
		</g>
		<g>
			<g>
				<path class="st4" d="M201.75,90.82c-0.71-0.11-1.42-0.19-2.12-0.19c-0.42,0.13-0.37,0.94-0.39,1.3
					c-0.03,0.48-0.02,0.98,0.06,1.46c0.14,0.85,0.54,1.73,1.48,1.89c0.13,0.02,0.25,0.03,0.38,0.03c1.01-0.02,1.7-1.03,2.1-1.85
					c0.23-0.48,0.41-0.99,0.51-1.51c0.09-0.45,0.17-0.74-0.38-0.84C202.85,91,202.3,90.9,201.75,90.82z"/>
			</g>
		</g>
		<g>
			<g>
				<path class="st1" d="M188.98,82.66c0.45-0.72,1.6-0.05,1.14,0.67c-0.61,0.97-0.71,2.04-0.3,3.11c0.3,0.8-0.98,1.14-1.28,0.35
					C188.03,85.42,188.2,83.9,188.98,82.66z"/>
			</g>
		</g>
		<g>
			<g>
				<path class="st5" d="M116.14,137.85c6.78,7.58,16.99,11.61,27.12,10.64c10.01-0.94,18.65-6.56,25.74-13.34
					c0.08-0.08,0.13-0.16,0.17-0.24c1.07-0.5,2.1-1.09,3.12-1.71c0.19,0.15,0.44,0.2,0.69,0.04c2.77-1.59,5.57-3.51,8.26-5.64h0.01
					c3.89-3.06,7.57-6.56,10.61-10.18c2.32-2.75,4.27-5.59,5.68-8.32c0.6-1.13,1.09-2.24,1.47-3.32c0.3-0.85,0.34-1.54,0.2-2.09
					c-1.89-0.25-3.89-1.05-5.64-1.95c-2.79,0.09-6.38,0.65-10.15,1.23c-2.4,0.38-4.87,0.77-7.28,1.06c-1.46,0.19-2.9,0.33-4.26,0.41
					c-1.1,0.07-2.16,0.11-3.15,0.08c-1.81-0.03-3.44-0.23-4.78-0.66c-2.28-0.73-4.53-1.56-6.72-2.5c-0.5-0.2-1.01-0.42-1.51-0.65
					c-2.5-1.11-4.95-2.36-7.33-3.71c-4.38-2.47-8.51-5.2-13.58-5.97c-0.5-0.08-1.12,0.44-0.74,0.97c1.81,2.51,3.64,5.03,5.47,7.54
					c-1.52,0.11-3.03,0.32-4.54,0.64c-0.3,0.07-0.61,0.13-0.9,0.21c-0.19,0.04-0.38,0.08-0.57,0.13c-0.12,0.03-0.24,0.07-0.36,0.09
					c-4.05,1.09-9.24,2.91-9.82,7.5c0,0.01,0,0.01,0,0.01c-0.01,0.03-0.01,0.05-0.01,0.08c-0.44-0.01-0.87-0.01-1.31,0
					c-3.68,0.23-7.25,1.88-9.83,5.06C105.92,120.99,110.29,131.3,116.14,137.85z"/>
			</g>
		</g>
		<g>
			<g>
				<path class="st4" d="M157.15,118.83c0,0,8.52,9.85,19.77,9.52c1.76-0.05,2.97-0.67,4.32-0.75h0.01
					c3.89-3.06,7.57-6.56,10.61-10.18c2.32-2.75,4.27-5.59,5.68-8.32c-1.34,0.58-4.76,1.69-9.77,0.94
					c-3.67-0.56-7.83-2.41-11.19-4.91c-1.69-1.27-4.97-4.79-4.97-4.79s-1.24,1.84-2.89,4.18c-2.09,3-4.82,6.82-6.37,8.6
					C159.61,116.33,157.15,118.83,157.15,118.83z"/>
			</g>
		</g>
		<g>
			<g>
				<path class="st3" d="M132.05,161.56c0.38,0.23,0.78,0.45,1.2,0.68c0.01,0.01,0.03,0.01,0.04,0.03c3.98,2.1,9.9,4.5,18.6,6.91
					c17.29,4.8,31.87,4.22,36.38,3.88c0.74-0.05,1.22-0.11,1.38-0.13c0.04,0,0.07,0,0.07,0s3.15,5.29,4.25,12.9
					c0.05,0.38,0.12,0.78,0.19,1.18c0.08,0.54,0.19,1.11,0.28,1.68c1.1,6.33,2.58,14.33,0.37,32.85c-2.1,17.7-3.57,22.61-0.15,25.03
					c0.71,0.5,1.64,0.9,2.83,1.28c6.86,2.2,40.43-6.33,58.08-17.35c9.69-6.06,25.88-16.91,31.26-27.13c1.59-3,1.83-6.1,1.26-9.2
					c0-0.01,0-0.03,0-0.03c-0.98-5.56-4.46-11.13-7.08-16.19c-4.95-9.52-10.11-18.97-16.42-27.66
					c-8.63-11.89-19.72-23.36-34.13-27.6c-14.78-4.35-30.77-2.51-45.46,1.26c-26.26,6.74-45.89,24.7-45.89,24.7
					s-12.57,5.52-13.46,5.52C125.06,154.16,124.58,157.26,132.05,161.56z"/>
			</g>
		</g>
		<g>
			<g>
				<path class="st1" d="M132.05,161.56c0.38,0.23,0.78,0.45,1.2,0.68c0.01,0.01,0.03,0.01,0.04,0.03c1.35-0.99,2.63-2.05,3.88-3.19
					c0.64-0.57-0.38-1.43-1.01-0.86C134.86,159.4,133.48,160.53,132.05,161.56z"/>
			</g>
		</g>
		<g>
			<g>
				<path class="st1" d="M195.36,243.69c-0.55,1.72,0.37,3.59,2.09,4.14c0.01,0,0.02,0.01,0.04,0.01
					c6.86,2.2,40.43-6.33,58.08-17.35c9.69-6.06,25.88-16.91,31.26-27.13c1.59-3,1.83-6.1,1.26-9.2c0-0.01,0-0.03,0-0.03
					c-0.93-3.14-3.26-5.85-8.03-7.16c-7.61-2.08-19.81,1.95-31.59,7.65c-12.57,6.09-24.66,14.1-30.11,18.66
					c-4.87,4.08-12.86,12.34-18.25,20.81C198.03,237.32,196.34,240.6,195.36,243.69z"/>
			</g>
		</g>
		<g>
			<g>
				<path class="st2" d="M200.09,234.09l1.51,24.53l0.36,5.85c0,0,2.91,0.34,6.72,0.74c7.17,0.77,17.54,1.73,17.54,1.02
					c0-0.33,2.5-2.85,6-6.21c2.58-2.46,5.7-5.4,8.78-8.25c6.64-6.19,13.02-12.02,13.02-12.02l-3.65-29.63v-0.01l-1.91-15.49
					c-4.76,2.3-9.45,4.88-13.74,7.45c-0.01,0-0.01,0-0.01,0c-7.03,4.21-12.97,8.38-16.36,11.21
					C213.47,217.36,205.48,225.62,200.09,234.09z"/>
			</g>
		</g>
		<g>
			<g>
				<path class="st4" d="M200.09,234.09l1.51,24.53l0.36,5.85c0,0,2.91,0.34,6.72,0.74l27.03-12.55l5.28-0.89
					c6.64-6.19,13.02-12.02,13.02-12.02l-2.69-21.8l-0.25-2.06l-0.01-0.16l-0.24-1.88l-0.46-3.73v-0.01c0,0-2.89-8.63-15.64-8.03
					c-0.01,0-0.01,0-0.01,0c-7.03,4.21-12.97,8.38-16.36,11.21c-0.94,0.78-1.99,1.72-3.11,2.79c-0.46,0.42-0.93,0.89-1.42,1.36
					C209.34,221.84,204.02,227.91,200.09,234.09z"/>
			</g>
		</g>
		<g>
			<g>
				<path class="st8" d="M213.82,217.44c2.57,0.19,5.11,1.5,7.56,0.87c1.58-0.41,2.59-1.69,3.47-2.98
					c2.53-3.68,6.04-6.47,10.72-4.35c2.42,1.09,3.45,3.63,5.7,4.82c1.95,1.03,3.8-0.08,5.64-0.7c1.56-0.53,3.45,1.59,4.42,2.86
					l-0.25-2.06l-0.01-0.16c-0.89-1.14-2.32-2.51-3.97-2.26c-0.66,0.09-1.22,0.52-1.83,0.77c-2.47,1.03-3.73-0.07-5.19-1.27
					c-1.03-0.87-1.73-1.97-2.91-2.7c-2.24-1.39-5.06-1.72-7.54-0.91c-3.22,1.05-4.42,3.49-6.37,5.96c-1.93,2.45-5.29,1.03-7.95,0.77
					h-0.07C214.77,216.5,214.31,216.96,213.82,217.44z"/>
			</g>
		</g>
		<g>
			<g>
				<path class="st1" d="M202.95,298.65c0.98,3.92,3.79,6.82,7.49,8.48c3.86,1.73,8.71,2.13,13.51,0.94
					c9.44-2.3,15.88-10.24,28.3-16.04c12.41-5.8,31.92-7.44,46.65-15.38c14.73-7.94,27.1-29.08,28.35-39.27
					c0.08-0.7,0.39-3.31,0.39-3.31c0.85-13.84-6.6-23.46-17.31-23.94c-6.39-0.28-12.16,2.34-17.02,6.29
					c-1.36,1.11-2.63,2.33-3.86,3.6c-1.83,1.87-3.53,3.83-5.35,5.7c-1.46,1.52-2.98,2.98-4.65,4.29c-1.07,0.83-2.54,2.05-4.2,3.27
					c-0.46,0.34-0.95,0.69-1.44,1.02c-2.22,1.51-4.66,2.85-6.82,3.16c-0.46,0.08-0.93,0.11-1.36,0.05c-0.21,0-0.42-0.03-0.64-0.08
					c-1.15-0.25-1.99-0.93-2.69-1.8c-0.26-0.33-0.5-0.7-0.74-1.09c-1.16-1.91-2.06-4.22-3.94-5.37c-5.04-3.08-13.28,0.37-13.16,6.62
					c0.01,0.81,0.11,1.6,0.24,2.4c0.08,0.52,0.17,1.02,0.29,1.52c0.05,0.24,0.21,1.51,0.45,1.68c-0.08-0.03-0.4-0.19-0.97-0.4
					c-2.74-1.03-11.18-3.34-24.82,0.41c-16.89,4.63-18.15,15.88-18.15,15.88S198.32,280.12,202.95,298.65z"/>
			</g>
		</g>
		<g>
			<g>
				<path class="st4" d="M274.36,240.23c0.23,0.83,1.5,0.48,1.27-0.34c-0.6-2.24-0.71-4.46-0.37-6.6c-0.46,0.34-0.95,0.69-1.44,1.02
					C273.64,236.26,273.83,238.26,274.36,240.23z"/>
			</g>
		</g>
		<g>
			<g>
				<path class="st4" d="M265.63,237.51c-0.52,2.45-0.29,5.07,0.73,7.6c0.32,0.78,1.59,0.44,1.27-0.34
					c-0.99-2.49-1.19-4.99-0.64-7.31C266.53,237.54,266.07,237.57,265.63,237.51z"/>
			</g>
		</g>
		<g>
			<g>
				<path class="st9" d="M207.23,302.42c0.13,0.46,0.32,0.91,0.56,1.38c0.58,1.13,1.44,2.24,2.66,3.34
					c3.86,1.73,8.71,2.13,13.51,0.94c2-0.49,3.88-1.23,5.69-2.16c0.69-0.34,1.38-0.71,2.05-1.13c2.67-1.56,5.31-3.45,8.21-5.45
					c0.56-0.38,1.14-0.78,1.72-1.16c2.7-1.83,5.64-3.67,9.03-5.36c0.53-0.26,1.06-0.53,1.6-0.78c0.24-0.11,0.48-0.23,0.73-0.33
					c4.31-1.92,9.44-3.39,14.88-4.8c1.23-0.32,2.49-0.64,3.75-0.95c9.2-2.34,19.01-4.82,27.3-9.29c5.74-3.1,10.59-7.76,14.74-12.74
					c4.15-4.98,7.74-10.49,10.52-16.34c2.88-6.05,4.73-12.9,3.37-19.61c-0.97-4.78-4.05-8.71-9.33-8.36c-0.67,0.05-1.34,0.15-2,0.3
					c-9.83,2.18-22.71,27.13-41.24,41.92c-14.49,11.55-29.67,16.78-41.82,20.4c-1.15,0.34-2.28,0.68-3.38,0.99
					c-2.12,0.62-4.12,1.2-5.98,1.77c-2.49,0.75-5.02,1.85-7.33,3.19c-0.64,0.37-1.26,0.75-1.85,1.15c-2.45,1.65-4.55,3.57-5.93,5.65
					c-0.29,0.41-0.54,0.83-0.75,1.27C206.91,298.23,206.58,300.33,207.23,302.42z"/>
			</g>
		</g>
		<g>
			<g>
				
					<ellipse transform="matrix(0.6809 -0.7324 0.7324 0.6809 -124.8354 243.3248)" class="st4" cx="216.82" cy="264.92" rx="8.69" ry="5.49"/>
			</g>
		</g>
		<g>
			<g>
				<g>
					<path class="st7" d="M244.48,241c1.56,3.06,4.21,6.68,8.42,7.82c1.18,0.33,2.33,0.46,3.47,0.46c3.92,0,7.65-1.67,11.16-3.57
						c3.55-1.93,7.27-4.05,10.35-6.95c2.83-2.63,4.31-5.88,5.74-9c0.89-1.93,1.8-3.92,3.02-5.76c0.86-1.31,1.79-2.63,2.81-3.98
						c-1.83,1.87-3.53,3.83-5.35,5.7c-0.61,1.15-1.15,2.33-1.68,3.48c-1.44,3.15-2.81,6.13-5.44,8.6c-2.96,2.78-6.6,4.84-10.09,6.74
						c-3.98,2.17-8.66,4.35-13.63,3c-4.75-1.28-7.39-6.37-8.55-9.36c0.08,0.52,0.17,1.02,0.29,1.52
						C245.05,239.95,245.05,241.21,244.48,241z"/>
				</g>
			</g>
		</g>
		<g>
			<g>
				<path class="st1" d="M269.61,278.56c-0.5-0.02-2.03-0.08-2.56-1.27c-0.38-0.86,0.02-1.78,0.59-2.31
					c0.51-0.48,1.14-0.72,1.73-0.94c6.64-2.53,16.66-7.9,21.93-12.5c4.46-3.89,8.09-7.93,11.12-12.36c1.75-2.56,3.31-5.2,4.61-7.43
					c0.42-0.72,0.79-1.47,1.16-2.23c0.53-1.07,1.08-2.18,1.77-3.21c0.94-1.41,2.97-3.73,6.02-3.45l0,0c2.7,0.24,4.79,2.24,5.07,4.87
					c0.15,1.36-0.08,2.84-0.71,4.65c-1.41,4.04-3.38,7.8-6.02,11.5c-5.49,7.69-11.98,13.75-19.27,18
					c-7.55,4.41-15.75,6.72-23.82,6.72C270.69,278.59,270.15,278.58,269.61,278.56z M315.86,234.16c-2.39-0.21-4.03,1.71-4.8,2.87
					c-0.64,0.96-1.17,2.03-1.68,3.07c-0.39,0.78-0.77,1.55-1.2,2.3c-1.31,2.26-2.88,4.92-4.66,7.52c-3.09,4.52-6.8,8.65-11.34,12.61
					c-5.38,4.7-15.58,10.16-22.36,12.75c-0.49,0.19-0.95,0.36-1.26,0.66c-0.25,0.24-0.38,0.6-0.28,0.81
					c0.12,0.28,0.61,0.45,1.4,0.48c8.33,0.31,16.88-1.93,24.72-6.51c7.13-4.16,13.47-10.1,18.86-17.63
					c2.57-3.6,4.48-7.25,5.85-11.17c0.56-1.62,0.77-2.91,0.64-4.07C319.52,235.87,317.93,234.35,315.86,234.16L315.86,234.16z"/>
			</g>
		</g>
		<g>
			<g>
				<g>
					<g>
						<path class="st1" d="M229.78,283.2l38.08,3.69c1.23-0.32,2.49-0.64,3.75-0.95l-38.45-3.73
							C232,282.55,230.88,282.89,229.78,283.2z"/>
					</g>
				</g>
			</g>
			<g>
				<g>
					<g>
						<path class="st1" d="M214.61,289.32l36.04,3.49c0.53-0.26,1.06-0.53,1.6-0.78c0.24-0.11,0.48-0.23,0.73-0.33l-36.52-3.53
							C215.83,288.54,215.21,288.92,214.61,289.32z"/>
					</g>
				</g>
			</g>
			<g>
				<g>
					<g>
						<path class="st1" d="M207.93,296.24l31.98,3.1c0.56-0.38,1.14-0.78,1.72-1.16l-32.94-3.2
							C208.39,295.38,208.14,295.8,207.93,296.24z"/>
					</g>
				</g>
			</g>
			<g>
				<g>
					<g>
						<path class="st1" d="M207.23,302.42c0.13,0.46,0.32,0.91,0.56,1.38l21.86,2.12c0.69-0.34,1.38-0.71,2.05-1.13L207.23,302.42z"
							/>
					</g>
				</g>
			</g>
		</g>
		<g>
			<g>
				<path class="st1" d="M179.47,159.1c3.55,4.29,6.5,8.97,8.8,13.95c0.74-0.05,1.22-0.11,1.38-0.13
					c-2.34-5.2-5.37-10.07-9.07-14.53C180.04,157.73,178.93,158.45,179.47,159.1z"/>
			</g>
		</g>
		<g>
			<g>
				<path class="st4" d="M92.08,114.7c2.28-1.35,5.31-2.13,8.88-0.7c7.77,3.1,5.74,8.48,5.47,9.13c0,0.01,0,0.01,0,0.03
					c0.01-0.03,0.04-0.07,0.08-0.13l1.4-2.49l0.46-0.83l0.04-0.08l0.49-0.86l0.5-0.9c1.48-2.63,1.42-5.94-0.36-8.39
					c-0.54-0.74-1.19-1.4-1.95-1.85c-0.21-0.13-0.44-0.25-0.66-0.36c-2.91-1.35-6.39-0.53-8.66,1.73L92.08,114.7z"/>
			</g>
		</g>
		<g>
			<g>
				<g>
					<path class="st8" d="M94.95,111.83c0.65-0.29,1.6-0.57,2.17-0.57c1.11,0,2-0.13,2.51,0.36c0.36,0.32,0.71,0.66,1.23,0.82
						c0.48,0.15,0.95,0.15,1.48,0.13c2.46-0.07,3.72,0.56,3.98,1.96c0.13,0.73,0.12,1.19,0.12,1.56c-0.01,0.75,0.01,1.16,0.87,1.96
						c0.49,0.45,0.44,1.84,0.58,2.49l0.46-0.83c-0.16-0.53,0.17-1.4-0.5-2.24c-0.54-0.67-0.64-0.75-0.62-1.36
						c0-0.38,0.01-0.91-0.13-1.72c-0.5-2.71-3.72-2.63-4.78-2.61c-0.46,0.01-0.87,0.01-1.23-0.09c-0.34-0.12-0.61-0.36-0.93-0.65
						c-0.56-0.52-1.38-0.53-2.81-0.53c-0.17,0-0.87,0.11-1.26,0.16L94.95,111.83z"/>
				</g>
			</g>
		</g>
		<g>
			<g>
				<g>
					<path class="st1" d="M133.17,100.62c0.89,0.48,1.8,0.93,2.73,1.32c3.41,1.48,7.05,2.45,10.75,2.45c3.53,0,7.11-0.89,10.59-3.03
						c0.3-0.19,0.6-0.38,0.9-0.58c7.78-5.31,11.42-15.68,8.67-24.67c-1.01-3.27-2.67-6.46-4.87-9.34c-0.21,0.03-0.42,0.05-0.62,0.11
						c-0.71-0.52-1.47-1.01-2.24-1.44c2.98,3.28,5.27,7.19,6.46,11.06c2.55,8.31-0.95,18.28-8.14,23.19
						c-0.56,0.38-1.11,0.73-1.67,1.03c-6.97,3.88-14.27,2.62-20.73-0.53c-0.97-0.46-1.92-0.98-2.85-1.52
						C132.8,99.26,133.29,100.6,133.17,100.62z"/>
				</g>
			</g>
		</g>
		<g>
			<g>
				<path class="st1" d="M124.4,119.5c0.37,0.77,1.52,0.11,1.15-0.65c-1.69-3.4-2.41-6.98-2.2-10.71c-0.01,0.03-0.01,0.05-0.01,0.08
					c-0.44-0.01-0.87-0.01-1.31,0C121.82,112.14,122.63,115.94,124.4,119.5z"/>
			</g>
		</g>
	</g>
	<g>
		<g>
			<path class="st0" d="M237.92,5.9c-0.37-0.26-0.24-0.6,0.19-0.45c3.45,1.14,9.75,3.86,14.43,10.99
				c4.69,7.15,2.85,12.49-0.45,11.83c-2.23-0.45-3.05-3.97-3.55-5.79c-0.81-2.95-1.7-5.93-3.33-8.55
				C243.32,10.87,240.84,8.01,237.92,5.9z"/>
		</g>
	</g>
	<g>
		<g>
			<path class="st0" d="M10.74,124c1.73,1.41,2.25,4.74,2.18,6.64c-0.19,5.59-0.54,11.12-0.57,16.73
				c-0.03,6.36,0.65,12.74,2.84,18.74c4.97,13.68,16.35,22.3,28.39,29.57c10.82,6.54,27.19,14.43,28.96,28.61
				c0.63,5.02-1.53,10.62-6.05,12.88c-8.08,4.05-20.45-1.71-27.49-5.81c-12.16-7.09-22.14-17.99-28.51-30.51
				c-7.4-14.55-10.84-30.92-10.46-47.22c0.11-4.8,0.63-9.53,1.32-14.27c0.57-3.91,1.27-7.92,2.83-11.57c0.73-1.7,2.09-4.04,4.09-4.4
				C9.28,123.21,10.09,123.47,10.74,124z"/>
		</g>
	</g>
</g>
</svg>
