<?xml version="1.0" encoding="utf-8"?>
<!-- Generator: Adobe Illustrator 26.3.1, SVG Export Plug-In . SVG Version: 6.00 Build 0)  -->
<svg version="1.1" id="圖層_1" xmlns="http://www.w3.org/2000/svg" xmlns:xlink="http://www.w3.org/1999/xlink" x="0px" y="0px"
	 viewBox="0 0 315 325" style="enable-background:new 0 0 315 325;" xml:space="preserve">
<style type="text/css">
	.st0{fill:#78C5EF;}
	.st1{fill:#FFFFFF;}
	.st2{fill:#005AD7;}
	.st3{fill:#399EFF;}
	.st4{fill:#FFD824;}
	.st5{fill:#EF8903;}
	.st6{fill:#C90000;}
</style>
<g>
	<g>
		<g>
			<path class="st0" d="M295.58,188.08c1.33-1.64,2.01-3.78,2.01-6.38v-5.39c0-2.05-0.24-5.01-2.25-7.16
				c-0.24-0.27-0.5-0.51-0.78-0.74c0.65-1.34,0.97-2.91,0.97-4.75v-5.29c0-2.11-0.25-5.16-2.41-7.33c-0.82-0.82-1.77-1.37-2.71-1.72
				c-0.13-1.84-0.8-3.48-1.97-4.89l-0.3-0.36l-0.36-0.3c-1.04-0.87-2.85-1.9-5.6-1.9h-8.83c-2.13,0-3.92,0.54-5.49,1.66l-0.35,0.25
				l-0.31,0.31c-0.49,0.49-0.91,1.02-1.25,1.58c-0.33-0.53-0.74-1.06-1.26-1.57l-0.31-0.31l-0.35-0.25
				c-1.56-1.12-3.36-1.66-5.49-1.66h-8.73c-2.48,0-4.48,0.75-5.96,2.22c-0.82,0.82-1.42,1.75-1.82,2.77
				c-0.43-0.83-0.98-1.6-1.66-2.28c-1.16-1.16-2.61-1.95-4.21-2.34c0.95-0.26,1.82-0.64,2.61-1.13l0.14-0.08l0.13-0.09
				c2.1-1.5,3.17-3.99,3.17-7.39v-7.55c0-3.12-0.94-5.51-2.81-7.11l-0.13-0.11l-0.14-0.1c-0.47-0.35-0.97-0.65-1.5-0.9
				c-0.03-0.79-0.17-1.67-0.5-2.65l-0.07-0.21l-2.89-6.7c-0.44-0.95-0.84-1.69-1.15-2.23c1.01-1.63,1.54-3.75,1.54-6.36V75.98
				c0-3.45-0.98-6.18-2.9-8.11c-1.86-1.86-4.59-2.81-8.11-2.81h-5.15c2.81-4.37,5.04-8.91,6.68-13.56
				c5.27-14.97,5.17-30.56,2.02-36.98c-1-2.05-2.42-3.39-4.21-3.99c-0.65-0.22-1.34-0.32-2.05-0.32c-6.43,0-19.62,11.4-26.5,29.97
				c-0.94,2.54-1.75,5.03-2.44,7.43c-1.17-3.25-2.37-6.01-3.22-7.98l-0.16-0.37c-0.05-0.12-0.22-0.5-0.64-1.18
				c-0.05-0.08-0.1-0.15-0.12-0.2c-0.44-0.68-1.46-2.27-3.5-2.85c-0.32-0.09-0.65-0.16-0.99-0.22c-1.43-0.34-2.92-0.36-4.35-0.39
				l-0.65-0.01c-0.87-0.02-1.8-0.03-2.75-0.03c-1.27,0-2.43,0.02-3.47,0.06c-0.16,0.01-0.32,0.01-0.47,0.01
				c-0.4,0-0.78-0.01-1.14-0.03c-0.47-0.02-0.93-0.03-1.4-0.03c-1.18,0-2.24,0.1-3.35,0.32c-4.07,0.79-7.58,3.99-10.15,9.26
				c-2.6,5.34-4.28,13.27-1.83,18.06c0.96,1.87,2.44,3.23,4.25,3.97c-1.09,0.46-2.02,1.08-2.81,1.86c-1.77,1.77-2.74,4.23-2.88,7.27
				c-0.01,0.14-0.01,0.3-0.02,0.48c0,0.1-0.01,0.21-0.01,0.32l0,23.47c0,4.12,1.24,7.07,3.7,8.79l0.1,0.07l0.1,0.06
				c1.9,1.21,4.2,1.8,7.02,1.8h6.06l-0.2,0.5c-1.66,3.74-2.74,5.27-3.23,5.83c-0.11,0.13-0.79,0.47-2.54,0.47h-10.04l-0.24,0.02
				c-2.56,0.23-4.26,1.31-5.31,2.1l-0.3,0.22l-0.26,0.26c-0.1,0.1-0.19,0.21-0.29,0.32c-0.16-1.81-0.67-3.89-2.19-5.51
				c-1.43-1.6-3.57-2.46-6.37-2.57v-1.06c0-1.8-0.6-3.56-1.71-5.09l0.02-0.02l0.13-0.19c1.18-1.66,1.76-3.68,1.76-6.18v-5.29
				c0-0.87-0.05-1.68-0.15-2.42l1.34,0.81l0.31,0.13c1.76,0.77,3.21,1.13,4.55,1.13c1.35,0,2.62-0.37,3.68-1.08l0.19-0.13l0.18-0.14
				c1.82-1.46,2.75-3.72,2.75-6.73V75.13c0-2.05-0.24-4.99-2.24-7.14c-0.87-0.98-2.07-1.88-4.05-3.25l-0.11-0.08l-37.47-23.01
				c-2.06-1.27-3.83-1.85-5.58-1.85c-1.75,0-3.53,0.59-5.58,1.85L58.78,64.67l-0.11,0.08c-1.98,1.36-3.18,2.26-4.05,3.25
				c-2,2.15-2.24,5.09-2.24,7.14v10.39c0,3.01,0.92,5.27,2.75,6.73l0.18,0.14l0.19,0.13c1.06,0.71,2.33,1.08,3.68,1.08h0
				c1.35,0,2.79-0.36,4.55-1.13l0.31-0.13l1.34-0.81c-0.1,0.75-0.15,1.55-0.15,2.42v5.29c0,2.5,0.58,4.52,1.76,6.18l0.13,0.19
				l0.02,0.02c-1.11,1.52-1.71,3.28-1.71,5.09v1.06c-2.86,0.13-4.95,0.97-6.37,2.56c-2.02,2.15-2.25,5.1-2.25,7.16v5.39
				c0,2.54,0.68,4.65,2.01,6.29c1.12,1.44,3.29,3.06,7.43,3.06h71.38c3.68,0,5.78-1.37,6.96-2.72v0.4c0,2.48,0.85,4.58,2.51,6.25
				l0.26,0.26l0.3,0.22c1.06,0.79,2.75,1.87,5.31,2.1l0.24,0.02h13.67c8.49,0,14.57-1.45,18.59-4.45c1.94-1.4,3.68-3.22,5.21-5.43
				v0.63c0,3.12,0.87,5.47,2.59,7.01c1.56,1.44,3.83,2.15,6.95,2.15h22.79c-0.92,0.4-1.8,0.94-2.61,1.65l-0.13,0.11l-0.12,0.12
				c-1.53,1.53-2.46,3.51-2.68,5.73l-0.03,0.26v0.26c0,6.23-1.25,12.86-3.71,19.7c-2.92,8.1-5.84,10.8-7.78,11.63
				c-0.62,0.27-1.82,0.71-3.17,1.16l-5.99,1.2l4.74-10.79c0.92-1.88,1.37-3.7,1.37-5.54v-6.96c0-3.3-0.79-5.7-2.42-7.33
				c-2.05-2.05-4.83-2.31-7.03-2.31h-31.28c-1.94,0-4.76,0.24-6.83,2.32c-1.62,1.62-2.41,4.02-2.41,7.33v6.96
				c0,0.62,0.04,1.22,0.12,1.79c-0.62-0.06-1.14-0.06-1.46-0.06h-5.26l1.9-7.14c0.84-2.13,1.55-4.82,0.29-7.33
				c-1.89-3.77-6.35-3.77-7.81-3.77h-6.18c-2.5,0-4.57,0.69-6.15,2.04l-0.15,0.13l-0.14,0.14c-1.32,1.32-2.23,3.23-2.85,5.99
				l-2.59,9.93H120c-1.89,0-3.5,0.33-4.82,0.96c-0.29-0.55-0.65-1.08-1.1-1.57c-0.86-0.98-2.07-1.88-4.05-3.25l-0.11-0.08
				l-37.47-23.01c-2.06-1.27-3.83-1.85-5.58-1.85c-1.75,0-3.53,0.59-5.58,1.85l-37.47,23.01l-0.11,0.08
				c-1.98,1.36-3.18,2.26-4.05,3.25c-2,2.15-2.24,5.09-2.24,7.14v10.39c0,3.01,0.92,5.27,2.75,6.73l0.18,0.14l0.19,0.13
				c1.06,0.71,2.33,1.08,3.68,1.08c1.35,0,2.79-0.36,4.55-1.13l0.31-0.13l1.34-0.81c-0.1,0.75-0.15,1.55-0.15,2.42v5.29
				c0,2.5,0.58,4.52,1.76,6.18l0.13,0.19l0.02,0.02c-1.11,1.52-1.71,3.28-1.71,5.09v1.06c-2.86,0.13-4.95,0.97-6.37,2.56
				c-2.02,2.15-2.25,5.1-2.25,7.16v5.39c0,2.54,0.68,4.65,2.01,6.29c1.12,1.44,3.29,3.06,7.43,3.06h71.38
				c3.99,0,6.13-1.62,7.24-3.07c1.33-1.64,2.01-3.75,2.01-6.28v-5.39c0-2.06-0.24-5.01-2.26-7.16c-1.43-1.6-3.57-2.46-6.37-2.57
				v-1.06c0-1.8-0.6-3.56-1.71-5.09l0.02-0.02l0.13-0.19c1.18-1.66,1.76-3.68,1.76-6.18v-5.29c0-0.87-0.05-1.68-0.15-2.43l1.34,0.81
				l0.31,0.13c1.76,0.77,3.21,1.13,4.55,1.13c1.35,0,2.62-0.37,3.68-1.08l0.19-0.13l0.18-0.14c0.12-0.1,0.23-0.21,0.35-0.31
				c0.64,0.51,1.37,0.93,2.21,1.23l-3.95,15.05c-0.62,2.64-0.49,5.06,0.41,7.39l0.06,0.16l0.07,0.15c1.06,2.29,2.95,4.21,5.47,5.57
				c-1.35,0.43-2.83,1.14-3.97,2.42c-1.48,1.56-2.27,3.6-2.27,5.9v8.04c0,2.38,0.9,4.54,2.61,6.25l0.14,0.14l0.15,0.13
				c1.55,1.32,3.47,2.13,5.58,2.32l0.41,0.04l0.42-0.03c3.77-0.26,7.81-1.85,12.01-4.73c2.74-1.88,5.54-4.34,8.5-7.47l7.26,4.19
				c1.54,0.86,3.37,1.75,5.34,1.75c0,0,0,0,0,0c0.94,0,1.83-0.19,2.65-0.57c1.03-0.46,1.86-1.15,2.49-2.03v0.61
				c0,3.44,1.5,5.42,2.76,6.47c2.02,1.68,4.53,1.9,6.49,1.9h13.63c2.13,0,4.79-0.24,6.74-2.04c1.22-1.08,2.6-3.03,2.6-6.33v-28.22
				l17.65-2.94v-0.1c0.11-0.02,0.22-0.04,0.32-0.06c0.48-0.1,0.94-0.2,1.37-0.32v21.06c0,1.09,0,4.42,2.42,6.84l0.17,0.17l0.18,0.15
				c1.57,1.31,3.61,2,5.9,2h9.45l0.24-0.02c2.18-0.2,4.01-0.9,5.42-2.07l0.18-0.15l0.17-0.17c0.74-0.74,1.29-1.63,1.68-2.68
				c0.61,1.31,1.48,2.38,2.61,3.17l0.1,0.07l0.1,0.06c1.9,1.21,4.2,1.8,7.02,1.8h38.63c2.19,0,5.36-0.24,7.76-2.29
				c1.52-1.24,3.25-3.66,3.25-8.23v-32.45c0-2.51-0.54-4.62-1.59-6.33C295.03,188.73,295.32,188.43,295.58,188.08z M162.16,177.52
				h9.56l-1.26,2.88c-0.51,0.29-0.99,0.64-1.43,1.06c-1.29,1.14-2.07,2.77-2.36,4.92h-5.68c0.01-0.22,0.02-0.43,0.02-0.65v-6.08
				c0-0.66-0.02-1.41-0.12-2.2C161.3,177.49,161.72,177.52,162.16,177.52z M161.01,225.8c-0.02-2.39-0.3-5.35-2.14-7.49
				c-0.98-1.14-2.45-2.29-4.77-3.71l-0.02-0.01c0.2-0.9,0.36-1.8,0.5-2.71c1.01,0.3,2.12,0.45,3.36,0.45h8.6v10.29
				c-1.72,0.27-3.14,0.88-4.3,1.84C161.77,224.85,161.36,225.3,161.01,225.8z"/>
		</g>
		<g>
			<path class="st1" d="M295.58,178.28c1.33-1.64,2.01-3.78,2.01-6.38v-5.39c0-2.05-0.24-5.01-2.25-7.16
				c-0.24-0.27-0.5-0.51-0.78-0.74c0.65-1.34,0.97-2.91,0.97-4.75v-5.29c0-2.11-0.25-5.16-2.41-7.33c-0.82-0.82-1.77-1.37-2.71-1.72
				c-0.13-1.84-0.8-3.48-1.97-4.89l-0.3-0.36l-0.36-0.3c-1.04-0.87-2.85-1.9-5.6-1.9h-8.83c-2.13,0-3.92,0.54-5.49,1.66l-0.35,0.25
				l-0.31,0.31c-0.49,0.49-0.91,1.02-1.25,1.58c-0.33-0.53-0.74-1.06-1.26-1.57l-0.31-0.31l-0.35-0.25
				c-1.56-1.12-3.36-1.66-5.49-1.66h-8.73c-2.48,0-4.48,0.75-5.96,2.22c-0.82,0.82-1.42,1.75-1.82,2.77
				c-0.43-0.83-0.98-1.6-1.66-2.28c-1.16-1.16-2.61-1.95-4.21-2.34c0.95-0.26,1.82-0.64,2.61-1.13l0.14-0.08l0.13-0.09
				c2.1-1.5,3.17-3.99,3.17-7.39v-7.55c0-3.12-0.94-5.51-2.81-7.11l-0.13-0.11l-0.14-0.1c-0.47-0.35-0.97-0.65-1.5-0.9
				c-0.03-0.79-0.17-1.67-0.5-2.65l-0.07-0.21l-2.89-6.7c-0.44-0.95-0.84-1.69-1.15-2.23c1.01-1.63,1.54-3.75,1.54-6.36V66.17
				c0-3.45-0.98-6.18-2.9-8.11c-1.86-1.86-4.59-2.81-8.11-2.81h-5.15c2.81-4.37,5.04-8.91,6.68-13.56
				c5.27-14.97,5.17-30.56,2.02-36.98c-1-2.05-2.42-3.39-4.21-3.99c-0.65-0.22-1.34-0.32-2.05-0.32c-6.43,0-19.62,11.4-26.5,29.97
				c-0.94,2.54-1.75,5.03-2.44,7.43c-1.17-3.25-2.37-6.01-3.22-7.98l-0.16-0.37c-0.05-0.12-0.22-0.5-0.64-1.18
				c-0.05-0.08-0.1-0.15-0.12-0.19c-0.44-0.68-1.46-2.27-3.5-2.85c-0.32-0.09-0.65-0.16-0.99-0.22c-1.43-0.34-2.92-0.36-4.35-0.39
				l-0.65-0.01c-0.87-0.02-1.8-0.03-2.75-0.03c-1.27,0-2.43,0.02-3.47,0.06c-0.16,0.01-0.32,0.01-0.47,0.01
				c-0.4,0-0.78-0.02-1.14-0.03c-0.47-0.02-0.93-0.03-1.4-0.03c-1.18,0-2.24,0.1-3.35,0.32c-4.07,0.79-7.58,3.99-10.15,9.26
				c-2.6,5.34-4.28,13.27-1.83,18.06c0.96,1.87,2.44,3.23,4.25,3.97c-1.09,0.46-2.02,1.08-2.81,1.86c-1.77,1.77-2.74,4.23-2.88,7.27
				c-0.01,0.14-0.01,0.3-0.02,0.48c0,0.1-0.01,0.21-0.01,0.32l0,23.47c0,4.12,1.24,7.07,3.7,8.79l0.1,0.07l0.1,0.06
				c1.9,1.21,4.2,1.8,7.02,1.8h6.06l-0.2,0.5c-1.66,3.74-2.74,5.27-3.23,5.83c-0.11,0.13-0.79,0.47-2.54,0.47h-10.04l-0.24,0.02
				c-2.56,0.23-4.26,1.31-5.31,2.1l-0.3,0.22l-0.26,0.26c-0.1,0.1-0.19,0.21-0.29,0.32c-0.16-1.81-0.67-3.89-2.19-5.51
				c-1.43-1.6-3.57-2.46-6.37-2.57v-1.06c0-1.8-0.6-3.56-1.71-5.09l0.02-0.02l0.13-0.19c1.18-1.66,1.76-3.68,1.76-6.18v-5.29
				c0-0.87-0.05-1.68-0.15-2.42l1.34,0.81l0.31,0.13c1.76,0.77,3.21,1.13,4.55,1.13c1.35,0,2.62-0.37,3.68-1.08l0.19-0.13l0.18-0.14
				c1.82-1.46,2.75-3.72,2.75-6.73V65.32c0-2.05-0.24-4.99-2.24-7.14c-0.87-0.98-2.07-1.88-4.05-3.25l-0.11-0.08l-37.47-23.01
				c-2.06-1.27-3.83-1.85-5.58-1.85c-1.75,0-3.53,0.59-5.58,1.85L58.78,54.86l-0.11,0.08c-1.98,1.36-3.18,2.26-4.05,3.25
				c-2,2.15-2.24,5.09-2.24,7.14v10.39c0,3.01,0.92,5.27,2.75,6.73l0.18,0.14l0.19,0.13c1.06,0.71,2.33,1.08,3.68,1.08h0
				c1.35,0,2.79-0.36,4.55-1.13l0.31-0.13l1.34-0.81c-0.1,0.75-0.15,1.55-0.15,2.42v5.29c0,2.5,0.58,4.52,1.76,6.18l0.13,0.19
				l0.02,0.02c-1.11,1.52-1.71,3.28-1.71,5.09v1.06c-2.86,0.13-4.95,0.97-6.37,2.56c-2.02,2.15-2.25,5.1-2.25,7.16v5.39
				c0,2.54,0.68,4.65,2.01,6.29c1.12,1.44,3.29,3.06,7.43,3.06h71.38c3.68,0,5.78-1.37,6.96-2.72v0.4c0,2.48,0.85,4.58,2.51,6.25
				l0.26,0.26l0.3,0.22c1.06,0.79,2.75,1.87,5.31,2.1l0.24,0.02h13.67c8.49,0,14.57-1.45,18.59-4.45c1.94-1.4,3.68-3.22,5.21-5.43
				v0.63c0,3.12,0.87,5.47,2.59,7.01c1.56,1.44,3.83,2.15,6.95,2.15h22.79c-0.92,0.4-1.8,0.94-2.61,1.65l-0.13,0.11l-0.12,0.12
				c-1.53,1.53-2.46,3.51-2.68,5.73l-0.03,0.26v0.26c0,6.23-1.25,12.86-3.71,19.7c-2.92,8.1-5.84,10.8-7.78,11.63
				c-0.62,0.27-1.82,0.71-3.17,1.16l-5.99,1.2l4.74-10.79c0.92-1.88,1.37-3.7,1.37-5.54v-6.96c0-3.3-0.79-5.7-2.42-7.33
				c-2.05-2.05-4.83-2.31-7.03-2.31h-31.28c-1.94,0-4.76,0.24-6.83,2.32c-1.62,1.62-2.41,4.02-2.41,7.33v6.96
				c0,0.62,0.04,1.22,0.12,1.79c-0.62-0.06-1.14-0.06-1.46-0.06h-5.26l1.9-7.14c0.84-2.13,1.55-4.82,0.29-7.33
				c-1.89-3.77-6.35-3.77-7.81-3.77h-6.18c-2.5,0-4.57,0.69-6.15,2.04l-0.15,0.13l-0.14,0.14c-1.32,1.32-2.23,3.23-2.85,5.99
				l-2.59,9.93H120c-1.89,0-3.5,0.33-4.82,0.96c-0.29-0.55-0.65-1.08-1.1-1.57c-0.86-0.98-2.07-1.88-4.05-3.25l-0.11-0.08
				l-37.47-23.01c-2.06-1.27-3.83-1.85-5.58-1.85c-1.75,0-3.53,0.59-5.58,1.85l-37.47,23.01l-0.11,0.08
				c-1.98,1.36-3.18,2.26-4.05,3.25c-2,2.15-2.24,5.09-2.24,7.14v10.39c0,3.01,0.92,5.27,2.75,6.73l0.18,0.14l0.19,0.13
				c1.06,0.71,2.33,1.08,3.68,1.08c1.35,0,2.79-0.36,4.55-1.13l0.31-0.13l1.34-0.81c-0.1,0.75-0.15,1.55-0.15,2.42v5.29
				c0,2.5,0.58,4.52,1.76,6.18l0.13,0.19l0.02,0.02c-1.11,1.52-1.71,3.28-1.71,5.09v1.06c-2.86,0.13-4.95,0.97-6.37,2.56
				c-2.02,2.15-2.25,5.1-2.25,7.16v5.39c0,2.54,0.68,4.65,2.01,6.29c1.12,1.44,3.29,3.06,7.43,3.06h71.38
				c3.99,0,6.13-1.62,7.24-3.07c1.33-1.64,2.01-3.75,2.01-6.28v-5.39c0-2.06-0.24-5.01-2.26-7.16c-1.43-1.6-3.57-2.46-6.37-2.57
				v-1.06c0-1.8-0.6-3.56-1.71-5.09l0.02-0.02l0.13-0.19c1.18-1.66,1.76-3.68,1.76-6.18v-5.29c0-0.87-0.05-1.68-0.15-2.43l1.34,0.81
				l0.31,0.13c1.76,0.77,3.21,1.13,4.55,1.13c1.35,0,2.62-0.37,3.68-1.08l0.19-0.13l0.18-0.14c0.12-0.1,0.23-0.21,0.35-0.31
				c0.64,0.51,1.37,0.93,2.21,1.23l-3.95,15.05c-0.62,2.64-0.49,5.06,0.41,7.39l0.06,0.16l0.07,0.15c1.06,2.29,2.95,4.21,5.47,5.57
				c-1.35,0.43-2.83,1.14-3.97,2.42c-1.48,1.56-2.27,3.6-2.27,5.9v8.04c0,2.38,0.9,4.54,2.61,6.25l0.14,0.14l0.15,0.13
				c1.55,1.32,3.47,2.13,5.58,2.32l0.41,0.04l0.42-0.03c3.77-0.26,7.81-1.85,12.01-4.73c2.74-1.88,5.54-4.34,8.5-7.47l7.26,4.19
				c1.54,0.86,3.37,1.75,5.34,1.75c0,0,0,0,0,0c0.94,0,1.83-0.19,2.65-0.57c1.03-0.46,1.86-1.15,2.49-2.03v0.61
				c0,3.44,1.5,5.42,2.76,6.47c2.02,1.68,4.53,1.9,6.49,1.9h13.63c2.13,0,4.79-0.24,6.74-2.04c1.22-1.08,2.6-3.03,2.6-6.33v-28.22
				l17.65-2.94v-0.1c0.11-0.02,0.22-0.04,0.32-0.06c0.48-0.1,0.94-0.2,1.37-0.32v21.06c0,1.09,0,4.42,2.42,6.84l0.17,0.17l0.18,0.15
				c1.57,1.31,3.61,2,5.9,2h9.45l0.24-0.02c2.18-0.2,4.01-0.9,5.42-2.07l0.18-0.15l0.17-0.17c0.74-0.74,1.29-1.63,1.68-2.68
				c0.61,1.31,1.48,2.38,2.61,3.17l0.1,0.07l0.1,0.06c1.9,1.21,4.2,1.8,7.02,1.8h38.63c2.19,0,5.36-0.24,7.76-2.29
				c1.52-1.24,3.25-3.66,3.25-8.23v-32.45c0-2.51-0.54-4.62-1.59-6.33C295.03,178.92,295.32,178.62,295.58,178.28z M162.16,167.71
				h9.56l-1.26,2.88c-0.51,0.29-0.99,0.64-1.43,1.06c-1.29,1.14-2.07,2.77-2.36,4.92h-5.68c0.01-0.22,0.02-0.43,0.02-0.65v-6.08
				c0-0.66-0.02-1.41-0.12-2.2C161.3,167.68,161.72,167.71,162.16,167.71z M161.01,215.99c-0.02-2.39-0.3-5.35-2.14-7.49
				c-0.98-1.14-2.45-2.29-4.77-3.71l-0.02-0.01c0.2-0.9,0.36-1.8,0.5-2.71c1.01,0.3,2.12,0.45,3.36,0.45h8.6v10.29
				c-1.72,0.27-3.14,0.88-4.3,1.84C161.77,215.04,161.36,215.49,161.01,215.99z"/>
		</g>
		<g>
			<path class="st2" d="M122.74,180.04H120c-1.57,0-2.65-0.29-3.14-0.98c-0.59-0.69-0.88-1.67-0.88-3.14v-6.08
				c0-1.86,0.29-3.04,0.88-3.63c0.49-0.59,1.57-0.88,3.14-0.88h6.67l3.63-13.92c0.39-1.76,0.88-2.94,1.47-3.53
				c0.69-0.59,1.67-0.78,2.75-0.78h6.18c1.86,0,2.84,0.29,3.14,0.88c0.29,0.59,0.1,1.67-0.59,3.33l-3.73,14.02h12.06
				c1.67,0,2.75,0.29,3.33,0.88c0.59,0.59,0.88,1.77,0.88,3.63v6.08c0,1.47-0.29,2.45-0.88,3.14c-0.59,0.69-1.67,0.98-3.33,0.98
				h-1.76v16.18c0,3.92-0.69,7.65-1.86,11.08l3.43,1.96c1.76,1.08,2.94,1.96,3.53,2.65c0.59,0.69,0.88,2.06,0.88,4.31v7.26
				c0,1.86-0.29,2.84-0.98,3.14c-0.59,0.29-1.67-0.1-3.24-0.98l-10.88-6.28c-3.53,4.12-6.96,7.45-10.39,9.81
				c-3.43,2.35-6.57,3.63-9.41,3.82c-1.08-0.1-1.96-0.49-2.65-1.08c-0.69-0.69-1.08-1.47-1.08-2.55v-8.04
				c0-0.98,0.29-1.77,0.88-2.35c0.49-0.59,1.47-0.98,2.84-1.27c3.04-0.59,5.88-2.26,8.63-4.8l-8.53-4.31
				c-1.77-0.88-2.94-2.06-3.53-3.33c-0.49-1.27-0.59-2.65-0.2-4.31L122.74,180.04z M137.74,180.04h-2.06l-4.51,17.35l5.78,3.43
				c0.59-1.67,0.78-4.02,0.78-6.86V180.04z M168.73,233.08c-1.57,0-2.55-0.2-3.14-0.69c-0.59-0.49-0.88-1.27-0.88-2.45v-8.24
				c0-1.47,0.29-2.55,0.88-3.04s1.57-0.78,3.14-0.78h1.18c1.28,0,1.86-0.69,1.86-2.06v-18.53h-13.83c-1.47,0-2.55-0.29-3.14-0.98
				c-0.59-0.69-0.88-1.67-0.88-3.14v-6.86c0-1.86,0.29-3.04,0.88-3.63c0.59-0.59,1.67-0.88,3.14-0.88h13.83v-3.14
				c0-1.67,0.29-2.75,0.78-3.14c0.49-0.49,1.08-0.69,1.76-0.69l5.39-12.35h-17.55c-1.47,0-2.55-0.39-3.14-0.98
				c-0.59-0.69-0.88-1.77-0.88-3.14v-6.96c0-1.76,0.29-3.04,0.88-3.63c0.59-0.59,1.67-0.78,3.14-0.78h31.28
				c1.67,0,2.75,0.2,3.33,0.78c0.59,0.59,0.88,1.86,0.88,3.63v6.96c0,1.08-0.29,2.16-0.88,3.33l-8.82,20.1c0,0,6.32-0.73,8.94-1.39
				c2.61-0.65,10.46-2.61,10.46-2.61s1.31,5.33,1.31,7.19l-4.52,6.22c0,1.47,0,3.14,0,3.14l-17.65,2.94v32.65
				c0,1.18-0.29,1.96-0.88,2.45c-0.49,0.49-1.67,0.69-3.24,0.69H168.73z"/>
		</g>
		<g>
			<path class="st3" d="M232.26,171.7v47.65c0,1.57-0.29,2.55-0.78,3.04c-0.59,0.49-1.47,0.78-2.55,0.88h-9.22
				c-1.08,0-1.96-0.29-2.55-0.78c-0.59-0.59-0.88-1.57-0.88-3.14v-29.41c-2.4,1.59-4.47,2.49-7.63,3.55
				c-1.96,0.65-11.11,1.96-11.11,1.96s2.61-3.27,4.58-7.84s2.01-9.04,2.01-9.04s2.5-0.83,3.87-1.42c4.58-1.96,7.99-7.31,10.64-14.66
				c2.65-7.35,4.02-14.51,4.02-21.47c0.1-0.98,0.49-1.86,1.18-2.55c0.78-0.69,1.67-1.08,2.65-1.08h7.45c1.08,0,2.06,0.39,2.75,1.08
				c0.69,0.69,1.08,1.57,1.18,2.55v5.69C237.06,156.99,235.3,165.33,232.26,171.7z"/>
		</g>
		<g>
			<path class="st3" d="M246.67,223.28c-1.76,0-3.14-0.29-4.22-0.98c-0.98-0.69-1.47-2.26-1.47-4.51v-32.16
				c0-2.06,0.49-3.53,1.47-4.41c0.98-0.88,2.35-1.37,4.12-1.37h38.63c2.06,0,3.53,0.49,4.41,1.27c0.98,0.88,1.47,2.35,1.47,4.41
				v32.45c0,2.06-0.49,3.53-1.37,4.22c-0.88,0.78-2.35,1.08-4.41,1.08H246.67z"/>
		</g>
		<g>
			<rect x="258.63" y="191.51" class="st3" width="14.61" height="4.22"/>
		</g>
		<g>
			<rect x="258.63" y="207.39" class="st3" width="14.61" height="4.22"/>
		</g>
		<g>
			<path class="st3" d="M291.48,162.88c-0.49-0.59-1.67-0.88-3.33-0.88h-2.94v-4.02h0.88c1.67,0,2.75-0.29,3.33-0.98
				c0.59-0.69,0.88-1.67,0.88-3.14v-5.29c0-1.86-0.29-3.04-0.88-3.63c-0.59-0.59-1.67-0.88-3.33-0.88h-0.88v-3.82
				c0-0.98-0.29-1.67-0.78-2.26c-0.59-0.49-1.37-0.69-2.25-0.69h-8.82c-0.98,0-1.76,0.2-2.45,0.69c-0.59,0.59-0.88,1.27-0.88,2.26
				v3.82h-8.04v-3.82c0-0.98-0.39-1.67-0.98-2.26c-0.69-0.49-1.47-0.69-2.45-0.69h-8.73c-0.98,0-1.77,0.2-2.26,0.69
				c-0.59,0.59-0.88,1.27-0.88,2.26v3.82h-0.98c-1.57,0-2.65,0.29-3.24,0.88c-0.49,0.59-0.78,1.77-0.78,3.63v5.29
				c0,1.47,0.29,2.45,0.78,3.14c0.59,0.69,1.67,0.98,3.24,0.98h0.98v4.02h-3.14c-1.47,0-2.55,0.29-3.14,0.88
				c-0.59,0.59-0.88,1.76-0.88,3.63v5.39c0,1.37,0.29,2.45,0.88,3.14c0.59,0.69,1.67,0.98,3.14,0.98h44.61
				c1.67,0,2.84-0.29,3.33-0.98c0.59-0.69,0.88-1.76,0.88-3.14v-5.39C292.36,164.64,292.07,163.47,291.48,162.88z M270.01,161.99
				h-8.04v-4.02h8.04V161.99z"/>
		</g>
		<g>
			<g>
				<circle class="st4" cx="265.99" cy="201.56" r="14.93"/>
				<path class="st1" d="M265.99,219.48c-9.88,0-17.93-8.04-17.93-17.93s8.04-17.93,17.93-17.93s17.93,8.04,17.93,17.93
					S275.87,219.48,265.99,219.48z M265.99,189.63c-6.58,0-11.93,5.35-11.93,11.93s5.35,11.93,11.93,11.93s11.93-5.35,11.93-11.93
					S272.56,189.63,265.99,189.63z"/>
			</g>
			<g>
				<g>
					<path class="st5" d="M266.86,205.97c0.13-0.61,0.08-1.12-0.15-1.53c-0.23-0.41-0.69-0.85-1.37-1.32
						c-0.69-0.47-1.32-0.93-1.89-1.38c-0.57-0.45-1.05-0.94-1.42-1.45c-0.37-0.52-0.63-1.07-0.76-1.67
						c-0.13-0.6-0.11-1.29,0.05-2.07c0.28-1.3,0.94-2.28,2-2.94c1.06-0.66,2.33-0.9,3.83-0.73l0.52-2.44l1.84,0.39l-0.53,2.49
						c1.37,0.51,2.35,1.32,2.95,2.45c0.17,0.33,0.31,0.67,0.41,1.02c0.38,1.38-0.87,2.67-2.27,2.37l0,0
						c-0.83-0.18-1.4-0.88-1.52-1.72c-0.03-0.21-0.08-0.4-0.15-0.57c-0.22-0.5-0.61-0.81-1.18-0.93c-0.51-0.11-0.94-0.03-1.29,0.23
						c-0.35,0.26-0.58,0.67-0.7,1.23c-0.12,0.57-0.06,1.06,0.2,1.46c0.25,0.4,0.7,0.83,1.36,1.29c0.65,0.46,1.26,0.92,1.83,1.38
						c0.57,0.46,1.04,0.95,1.41,1.47c0.37,0.51,0.63,1.08,0.78,1.69c0.14,0.61,0.13,1.3-0.03,2.08c-0.28,1.32-0.93,2.3-1.94,2.96
						c-1.01,0.65-2.26,0.9-3.73,0.73l-0.3,1.4c-0.11,0.51-0.61,0.83-1.11,0.72l0,0c-0.51-0.11-0.83-0.61-0.72-1.11l0.3-1.42
						c-1.64-0.53-2.81-1.38-3.5-2.55c-0.25-0.42-0.43-0.87-0.54-1.34c-0.33-1.37,0.93-2.61,2.31-2.31l0,0
						c0.8,0.17,1.43,0.83,1.52,1.64c0.03,0.31,0.12,0.59,0.25,0.83c0.29,0.54,0.8,0.89,1.51,1.04c0.52,0.11,0.97,0.04,1.34-0.2
						C266.5,206.91,266.74,206.51,266.86,205.97z"/>
				</g>
			</g>
		</g>
		<g>
			<g>
				<path class="st2" d="M58.39,78.37c-0.49-0.39-0.78-1.27-0.78-2.65V65.32c0-1.86,0.29-3.04,0.88-3.63
					c0.49-0.59,1.57-1.37,3.14-2.45L98.98,36.3c1.27-0.78,2.16-1.08,2.84-1.08c0.69,0,1.57,0.29,2.84,1.08l37.36,22.94
					c1.57,1.08,2.65,1.86,3.14,2.45c0.59,0.59,0.88,1.77,0.88,3.63v10.39c0,1.37-0.29,2.26-0.78,2.65c-0.59,0.39-1.67,0.2-3.24-0.49
					l-8.82-5.29c-0.1,1.08-0.39,1.86-0.88,2.45c-0.59,0.59-1.67,0.98-3.33,0.98h-18.43v3.63h18.43c1.67,0,2.84,0.29,3.43,0.78
					c0.49,0.59,0.78,1.86,0.78,3.73v5.29c0,1.47-0.29,2.45-0.78,3.14c-0.59,0.69-1.77,0.98-3.43,0.98h-18.43v13.63h5.2v-6.28
					c0-0.88,0.39-1.76,1.18-2.55c0.78-0.78,1.77-1.18,2.94-1.18h8.92c1.27,0,2.35,0.39,3.04,1.18c0.78,0.78,1.18,1.67,1.18,2.55
					v6.28h4.61c1.57,0,2.65,0.29,3.14,0.88c0.59,0.59,0.88,1.76,0.88,3.63v5.39c0,1.37-0.29,2.35-0.88,3.04
					c-0.49,0.69-1.57,1.08-3.14,1.08H66.24c-1.67,0-2.84-0.39-3.33-1.08c-0.59-0.69-0.88-1.67-0.88-3.04v-5.39
					c0-1.86,0.29-3.04,0.88-3.63c0.49-0.59,1.67-0.88,3.33-0.88h4.41v-6.28c0-0.88,0.39-1.76,1.18-2.55
					c0.69-0.78,1.76-1.18,3.04-1.18h8.92c1.18,0,2.16,0.39,2.94,1.18c0.78,0.78,1.18,1.67,1.18,2.55v6.28h5.29V93.56H74.47
					c-1.57,0-2.65-0.29-3.24-0.98c-0.49-0.69-0.78-1.67-0.78-3.14v-5.29c0-1.86,0.29-3.14,0.78-3.73c0.59-0.49,1.67-0.78,3.24-0.78
					H93.2v-3.63H74.47c-1.57,0-2.55-0.39-3.14-0.98c-0.49-0.59-0.78-1.37-0.88-2.45l-8.82,5.29C60.06,78.56,58.98,78.76,58.39,78.37
					z M88.4,61.99h26.87l-13.43-7.94L88.4,61.99z"/>
			</g>
			<g>
				<path class="st1" d="M64.48,65.63c-0.67,0-1.33-0.34-1.71-0.95c-0.58-0.94-0.28-2.17,0.66-2.75l0.87-0.54
					c0.94-0.58,2.17-0.28,2.75,0.66c0.58,0.94,0.28,2.17-0.66,2.75l-0.87,0.54C65.2,65.53,64.84,65.63,64.48,65.63z M70.92,61.67
					c-0.67,0-1.33-0.34-1.71-0.95c-0.58-0.94-0.28-2.17,0.66-2.75l17.47-10.73c0.94-0.58,2.17-0.28,2.75,0.66
					c0.58,0.94,0.28,2.17-0.66,2.75L71.97,61.38C71.64,61.58,71.28,61.67,70.92,61.67z"/>
			</g>
		</g>
		<g>
			<g>
				<path class="st1" d="M192.42,154.22h-8.46c-1.1,0-2-0.9-2-2s0.9-2,2-2h8.46c1.1,0,2,0.9,2,2S193.53,154.22,192.42,154.22z"/>
			</g>
			<g>
				<path class="st1" d="M178.44,154.22h-1.37c-1.1,0-2-0.9-2-2s0.9-2,2-2h1.37c1.1,0,2,0.9,2,2S179.54,154.22,178.44,154.22z"/>
			</g>
			<g>
				<path class="st1" d="M125.3,192.88c-0.17,0-0.34-0.02-0.51-0.07c-1.07-0.28-1.71-1.38-1.43-2.44l0.25-0.97
					c0.28-1.07,1.37-1.71,2.44-1.43c1.07,0.28,1.71,1.38,1.43,2.44l-0.25,0.97C126.99,192.29,126.18,192.88,125.3,192.88z"/>
			</g>
			<g>
				<path class="st1" d="M131.87,210.22c-0.3,0-0.61-0.07-0.9-0.21l-8.53-4.31c-0.74-0.37-1.33-0.8-1.72-1.28
					c-0.21-0.26-0.36-0.57-0.42-0.9c-0.1-0.52-0.07-1.1,0.08-1.78l1.79-6.81c0.28-1.07,1.38-1.71,2.44-1.43
					c1.07,0.28,1.71,1.38,1.43,2.44l-1.64,6.25l8.38,4.24c0.99,0.5,1.38,1.7,0.88,2.69C133.3,209.81,132.6,210.22,131.87,210.22z
					 M124.24,202.87L124.24,202.87L124.24,202.87z"/>
			</g>
		</g>
		<g>
			<g>
				<path class="st1" d="M219.25,174.88c-0.4,0-0.8-0.12-1.15-0.37c-0.9-0.64-1.12-1.88-0.48-2.79c1.54-2.19,2.87-4.85,4.05-8.15
					c1.42-3.95,2.5-7.9,3.2-11.75c0.2-1.09,1.24-1.81,2.33-1.61c1.09,0.2,1.81,1.24,1.61,2.33c-0.74,4.06-1.88,8.23-3.37,12.38
					c-1.31,3.64-2.8,6.61-4.55,9.09C220.49,174.58,219.87,174.88,219.25,174.88z"/>
			</g>
			<g>
				<path class="st1" d="M213.73,180.27c-0.66,0-1.31-0.33-1.69-0.93c-0.59-0.93-0.32-2.17,0.61-2.76c0.32-0.2,0.63-0.42,0.94-0.65
					c0.89-0.66,2.14-0.48,2.8,0.41c0.66,0.89,0.48,2.14-0.41,2.8c-0.38,0.29-0.78,0.56-1.18,0.81
					C214.47,180.17,214.1,180.27,213.73,180.27z"/>
			</g>
		</g>
		<g>
			<g>
				<path class="st3" d="M214.71,98.33c0.49-0.59,1.37-0.88,2.65-0.78h8.33c1.18-0.1,1.96,0.1,2.35,0.49
					c0.29,0.49,0.78,1.27,1.37,2.55l2.75,6.37c0.39,1.18,0.29,1.96-0.2,2.35c-0.59,0.29-1.47,0.49-2.65,0.49h-8.33
					c-1.08,0-1.86-0.2-2.35-0.59c-0.39-0.49-0.88-1.27-1.47-2.45l-2.65-6.37C214.12,99.61,214.22,98.92,214.71,98.33z"/>
			</g>
			<g>
				<path class="st3" d="M235.99,113.04c-0.78-0.59-1.86-0.88-3.33-0.88h-20.79V95.1h11.77c1.96,0,3.43-0.29,4.41-1.08
					c0.88-0.69,1.27-2.16,1.27-4.22V66.17c0-2.06-0.49-3.53-1.37-4.41c-0.88-0.88-2.45-1.27-4.41-1.27h-47.65h-4.31h-8.33
					c-1.96,0-3.53,0.39-4.41,1.27c-0.8,0.8-1.27,2.09-1.36,3.86c-0.01,0.11-0.01,0.22-0.01,0.33c0,0.08-0.01,0.15-0.01,0.23v0.08
					c0,0.01,0,0.01,0,0.02v23.34c0,2.26,0.49,3.82,1.47,4.51c1.08,0.69,2.45,0.98,4.22,0.98h13.73l-3.04,7.75
					c-1.47,3.33-2.84,5.78-4.12,7.26c-1.37,1.57-3.53,2.26-6.47,2.26h-9.8c-1.08,0.1-1.86,0.49-2.65,1.08
					c-0.69,0.69-0.98,1.47-0.98,2.45v8.24c0,1.08,0.29,1.86,0.98,2.55c0.78,0.59,1.57,0.98,2.65,1.08h13.43
					c7.16,0,12.35-1.08,15.49-3.43c3.14-2.26,5.69-6.08,7.55-11.47l5.78-17.75h0.2v28.63c0,1.57,0.29,2.65,0.88,3.14
					c0.49,0.49,1.67,0.78,3.43,0.78h32.45c1.47,0,2.55-0.29,3.33-0.78c0.69-0.49,0.98-1.57,0.98-3.14v-7.55
					C236.97,114.71,236.67,113.63,235.99,113.04z M183.04,80.88h-7.16V74.7h9.41L183.04,80.88z M210.79,80.88h-10.29l2.16-6.18h8.14
					V80.88z"/>
			</g>
			<g>
				<path class="st1" d="M162.68,85.49c-1.1,0-2-0.9-2-2V76.5c0-1.1,0.9-2,2-2s2,0.9,2,2v6.99
					C164.68,84.6,163.78,85.49,162.68,85.49z"/>
			</g>
			<g>
				<path class="st1" d="M162.68,92.22c-1.1,0-2-0.9-2-2v-1.35c0-1.1,0.9-2,2-2s2,0.9,2,2v1.35
					C164.68,91.32,163.78,92.22,162.68,92.22z"/>
			</g>
			<g>
				<g>
					<path class="st3" d="M170.59,47.22c-4.88,3.57-10.35,6.35-12.25,2.63c-2.29-4.47,1.94-18.57,8.32-19.8
						c2.18-0.42,3.48-0.09,5.56-0.17c1.9-0.07,4.07-0.06,5.93-0.03c1.88,0.04,3.67-0.01,4.71,0.54c0.49,0.26,1,1.5,1,1.5
						c-1.01-2.01-1.89-1.48-3.96,2.91C177.68,39.5,173.68,44.8,170.59,47.22z"/>
				</g>
				<g>
					<path class="st3" d="M187.88,42.28c-1.38-4.3-2.95-7.9-4.19-10.75c-0.09-0.21-0.69-1.2-0.9-1.26
						c-2.51-0.72-6.01,2.12-7.15,3.11c2.19,0.89,6.27,2.9,4.95,5.97c-1.86,4.33-5.09,7.99-8.33,10.31
						c-0.39,0.29-0.81,0.55-1.23,0.81c0.1,0.23,0.17,0.39,0.2,0.46c4.19,10.22,8.59,14.05,11.44,15.47l0.01,0
						c0.62-0.98,7.81-5.52,8.23-5.48C190.93,60.9,192.05,55.22,187.88,42.28z"/>
				</g>
			</g>
			<g>
				<path class="st3" d="M221.22,5.7c-2.63-0.88-15.28,8.37-22,26.5c-5.74,15.5-6.18,29.17-6.18,29.17c0.59,0.13,1.18,0.3,1.75,0.51
					c0.37,0.14,1.04,0.48,1.02,0.47l2.95,2.38c0.77,0.86,1.64,2.04,1.65,3.26c1.25-1.01,13.92-11.55,19.72-28.02
					C226.23,22.64,224.02,6.63,221.22,5.7z"/>
			</g>
			<g>
				<path class="st1" d="M215.19,40.23c-0.22,0-0.44-0.04-0.66-0.11c-1.04-0.37-1.59-1.51-1.22-2.55
					c2.45-6.97,3.22-13.13,3.43-17.08c0.06-1.1,1.02-1.95,2.1-1.89c1.1,0.06,1.95,1,1.89,2.1c-0.22,4.21-1.04,10.78-3.65,18.2
					C216.79,39.72,216.02,40.23,215.19,40.23z"/>
			</g>
			<g>
				<path class="st1" d="M218.73,17.02c-1.05,0-1.93-0.82-1.99-1.88c-0.02-0.3-0.04-0.59-0.06-0.88c-0.09-1.1,0.72-2.07,1.82-2.16
					c1.1-0.09,2.07,0.72,2.16,1.82c0.03,0.31,0.05,0.64,0.07,0.98c0.07,1.1-0.77,2.05-1.88,2.12
					C218.81,17.02,218.77,17.02,218.73,17.02z"/>
			</g>
		</g>
		<g>
			<g>
				<path class="st2" d="M23.42,179.68c-0.49-0.39-0.78-1.27-0.78-2.65v-10.39c0-1.86,0.29-3.04,0.88-3.63
					c0.49-0.59,1.57-1.37,3.14-2.45l37.36-22.94c1.27-0.78,2.16-1.08,2.84-1.08c0.69,0,1.57,0.29,2.84,1.08l37.36,22.94
					c1.57,1.08,2.65,1.86,3.14,2.45c0.59,0.59,0.88,1.77,0.88,3.63v10.39c0,1.37-0.29,2.26-0.78,2.65c-0.59,0.39-1.67,0.2-3.24-0.49
					l-8.82-5.29c-0.1,1.08-0.39,1.86-0.88,2.45c-0.59,0.59-1.67,0.98-3.33,0.98H75.59v3.63h18.43c1.67,0,2.84,0.29,3.43,0.78
					c0.49,0.59,0.78,1.86,0.78,3.73v5.29c0,1.47-0.29,2.45-0.78,3.14c-0.59,0.69-1.77,0.98-3.43,0.98H75.59v13.63h5.2v-6.28
					c0-0.88,0.39-1.76,1.18-2.55c0.78-0.78,1.77-1.18,2.94-1.18h8.92c1.27,0,2.35,0.39,3.04,1.18c0.78,0.78,1.18,1.67,1.18,2.55
					v6.28h4.61c1.57,0,2.65,0.29,3.14,0.88c0.59,0.59,0.88,1.76,0.88,3.63v5.39c0,1.37-0.29,2.35-0.88,3.04
					c-0.49,0.69-1.57,1.08-3.14,1.08H31.27c-1.67,0-2.84-0.39-3.33-1.08c-0.59-0.69-0.88-1.67-0.88-3.04v-5.39
					c0-1.86,0.29-3.04,0.88-3.63c0.49-0.59,1.67-0.88,3.33-0.88h4.41v-6.28c0-0.88,0.39-1.76,1.18-2.55
					c0.69-0.78,1.76-1.18,3.04-1.18h8.92c1.18,0,2.16,0.39,2.94,1.18c0.78,0.78,1.18,1.67,1.18,2.55v6.28h5.29v-13.63H39.5
					c-1.57,0-2.65-0.29-3.24-0.98c-0.49-0.69-0.78-1.67-0.78-3.14v-5.29c0-1.86,0.29-3.14,0.78-3.73c0.59-0.49,1.67-0.78,3.24-0.78
					h18.73v-3.63H39.5c-1.57,0-2.55-0.39-3.14-0.98c-0.49-0.59-0.78-1.37-0.88-2.45l-8.82,5.29
					C25.09,179.87,24.01,180.07,23.42,179.68z M53.43,163.3h26.87l-13.43-7.94L53.43,163.3z"/>
			</g>
			<g>
				<path class="st1" d="M29.51,166.94c-0.67,0-1.33-0.34-1.71-0.96c-0.58-0.94-0.28-2.17,0.66-2.75l0.87-0.53
					c0.94-0.58,2.17-0.28,2.75,0.66c0.58,0.94,0.28,2.17-0.66,2.75l-0.87,0.54C30.23,166.85,29.87,166.94,29.51,166.94z
					 M35.95,162.99c-0.67,0-1.33-0.34-1.71-0.95c-0.58-0.94-0.28-2.17,0.66-2.75l17.47-10.73c0.94-0.58,2.17-0.28,2.75,0.66
					c0.58,0.94,0.28,2.17-0.66,2.75L37,162.69C36.67,162.89,36.31,162.99,35.95,162.99z"/>
			</g>
		</g>
	</g>
	<g>
		<g>
			<path class="st6" d="M312.17,324.59C210.94,274.9,101.23,353.68,0,303.99c10.59-2.17,21.27-5.62,32.02-10.1
				c-9.8-9.79-19.54-20.61-29.19-32.72c101.23,49.69,210.94-29.09,312.17,20.6c-10.59,2.17-21.27,5.62-32.02,10.1
				C292.78,301.66,302.52,312.48,312.17,324.59z"/>
		</g>
		<path class="st6" d="M227.51,282.43c-0.34-4.81-1.93-8.78-4.75-11.8c-0.44-0.47-0.9-0.9-1.37-1.3L220.32,254l-7.15,0.5
			c-4.37,0.3-8.35,1.64-11.85,3.96c-2.78,1.85-5.02,4.19-6.7,6.96c-0.79-1.25-1.69-2.39-2.72-3.37c-2.52-2.39-6.97-5.07-13.86-4.24
			c-6.88,0.84-10.55,4.49-12.42,7.4c-2.49,3.87-3.38,8.82-2.67,14.71l0.74,6.07c0.04,0.3,0.09,0.58,0.14,0.88
			c-1.16-0.23-2.37-0.27-3.62-0.09c-2.09,0.29-3.93,1.1-5.43,2.36l-2.96,0.39c0.21-0.33,0.4-0.65,0.57-0.96
			c1.11-1.96,1.9-3.88,2.35-5.7c0.5-2.03,0.62-4.09,0.35-6.14c-0.81-6.11-3.99-9.35-6.53-10.99c-3.38-2.19-7.64-2.97-12.66-2.31
			c-3.22,0.42-6.11,1.55-8.59,3.34c-2.57,1.85-4.5,4.25-5.72,7.12c-1.21,2.85-1.62,5.87-1.21,8.97l0.78,5.95l9.41-1.24l-7.51,10.32
			l1.76,13.34l35.04-4.63l-0.03-0.23c0.48,0.07,0.97,0.1,1.47,0.1c0.52,0,1.05-0.04,1.58-0.11c2.68-0.37,4.97-1.6,6.63-3.56
			c0.58-0.69,1.05-1.44,1.41-2.23c2.25,1.77,5.58,3.42,10.21,3.42c0.8,0,1.65-0.05,2.53-0.16c6.86-0.83,10.53-4.49,12.4-7.4
			c0.16-0.26,0.3-0.53,0.45-0.79c1.43,1.55,3.11,2.8,5.02,3.74c2.48,1.21,5.18,1.82,8.06,1.82c0.48,0,0.97-0.02,1.46-0.05
			c3.21-0.22,6.14-1.19,8.73-2.88c2.66-1.73,4.69-4.05,6.04-6.9C227.17,288.6,227.73,285.59,227.51,282.43z"/>
		<g>
			<g>
				<g>
					<path class="st1" d="M53.48,294.2l3.63,0.44l-0.19,1.61l-3.63-0.44l-0.07,0.58c0.82,0.9,2.59,3.06,3.05,3.63l-1.17,1.36
						c-0.44-0.72-1.33-2-2.12-3.04l-0.9,7.48l-1.74-0.21l0.89-7.4c-1.15,1.83-2.51,3.55-3.81,4.58c-0.11-0.53-0.49-1.31-0.71-1.81
						c1.58-1.16,3.38-3.37,4.5-5.41l-3.4-0.41l0.19-1.61l3.74,0.45l0.33-2.77c-1.17,0.09-2.33,0.12-3.41,0.12
						c-0.05-0.4-0.22-1.01-0.38-1.41c2.76-0.08,5.98-0.36,7.83-0.93l1.09,1.48c-0.96,0.26-2.12,0.46-3.35,0.58L53.48,294.2z
						 M59.27,301.97l-1.72-0.21l1.24-10.28l1.72,0.21L59.27,301.97z M64.7,290.19l-1.76,14.64c-0.13,1.1-0.46,1.58-1.14,1.78
						c-0.71,0.2-1.84,0.12-3.52-0.08c-0.02-0.5-0.2-1.35-0.4-1.87c1.25,0.21,2.42,0.35,2.8,0.39c0.34,0.02,0.5-0.07,0.54-0.43
						l1.76-14.64L64.7,290.19z"/>
				</g>
				<g>
					<path class="st1" d="M83.14,304.12l-7.51-0.22l-0.11,3.73l-1.84-0.05l0.11-3.73l-7.51-0.22l0.05-1.62l7.51,0.22l0.04-1.41
						l1.84,0.05l-0.04,1.41l7.51,0.22L83.14,304.12z M71.43,298.81c-1.41,0.71-2.92,1.46-4.16,2.01l-0.84-1.44
						c1.2-0.42,2.99-1.14,4.7-1.88L71.43,298.81z M77.72,301.23c-0.1-0.29-0.25-0.61-0.42-0.97c-4.74,0.32-5.4,0.39-5.83,0.59
						c-0.05-0.3-0.27-1.06-0.43-1.48c0.45-0.04,0.93-0.39,1.57-0.9c0.35-0.23,1.06-0.84,1.87-1.6c-1.83,0.08-2.25,0.16-2.53,0.27
						c-0.08-0.32-0.31-1.04-0.45-1.43c0.26-0.05,0.55-0.29,0.86-0.62c0.23-0.2,0.76-0.84,1.27-1.6l-6.64-0.19l0.05-1.6l7.36,0.21
						c-0.21-0.46-0.48-0.92-0.71-1.32l1.76-0.36c0.36,0.54,0.77,1.23,1.02,1.74l6.81,0.2l-0.05,1.6l-7.81-0.23
						c-0.51,0.68-1.06,1.38-1.62,1.95l2.09-0.03c0.45-0.48,0.88-0.99,1.28-1.49l1.33,0.83c-1.42,1.6-3.05,3.09-4.64,4.31l2.7-0.13
						c-0.23-0.4-0.49-0.77-0.74-1.11l1.29-0.45c0.8,1.02,1.66,2.36,1.99,3.32L77.72,301.23z M69.84,297.11
						c-0.56-0.66-1.76-1.59-2.74-2.24l1.21-0.93c0.96,0.61,2.2,1.51,2.8,2.15L69.84,297.11z M81.67,301.38
						c-0.77-0.76-2.34-1.91-3.59-2.7l1.25-0.92c1.22,0.73,2.83,1.85,3.65,2.61L81.67,301.38z M82.45,295.15
						c-0.85,0.84-1.95,1.68-2.8,2.25l-1.26-0.86c0.83-0.6,1.97-1.56,2.61-2.3L82.45,295.15z"/>
				</g>
				<g>
					<path class="st1" d="M92.64,302.53c-1.35,1.9-3.47,3.91-5.43,5.24c-0.37-0.36-1.05-0.88-1.48-1.16
						c1.93-1.19,4.03-3.13,5.02-4.71L92.64,302.53z M100.03,291.29l0.36,8.63l-12.94,0.54l-0.36-8.63L100.03,291.29z M89.17,298.74
						l9.28-0.39l-0.22-5.32l-9.27,0.39L89.17,298.74z M97.05,301.57c1.84,1.28,4.22,3.16,5.42,4.45l-1.59,1.1
						c-1.09-1.25-3.43-3.23-5.32-4.58L97.05,301.57z"/>
				</g>
				<g>
					<path class="st1" d="M108.58,291.5l-4.99,0.46l-0.14-1.52l16.06-1.47l0.14,1.52l-5.15,0.47l0.12,1.37l4.46-0.41l0.45,4.97
						l-14.47,1.32l-0.45-4.97l4.09-0.37L108.58,291.5z M117.14,300.57c-0.46,0.99-1.1,1.82-1.87,2.53c2.2,0.33,4.2,0.67,5.71,1.05
						l-1.46,1.36c-1.51-0.41-3.55-0.83-5.91-1.18c-2.03,1.19-4.75,1.95-8.29,2.55c-0.18-0.49-0.52-1.11-0.83-1.46
						c2.54-0.36,4.61-0.84,6.29-1.46c-1.36-0.16-2.73-0.28-4.14-0.4c0.43-0.63,0.91-1.37,1.37-2.17l-3.8,0.35l-0.13-1.46l4.78-0.44
						c0.34-0.65,0.63-1.34,0.84-1.95l1.8,0.21c-0.2,0.51-0.43,1.04-0.69,1.56l5.04-0.46c0.12-0.35,0.24-0.72,0.33-1.11l1.73,0.31
						c-0.06,0.19-0.11,0.41-0.17,0.62l3.04-0.28l0.13,1.46L117.14,300.57z M106.58,296.67l2.45-0.22l-0.2-2.19l-2.46,0.22
						L106.58,296.67z M109.98,301.22c-0.22,0.44-0.47,0.84-0.72,1.22c1.28,0.11,2.53,0.22,3.78,0.37c0.84-0.57,1.51-1.25,2.02-2.06
						L109.98,301.22z M112.85,291.11l-2.62,0.24l0.13,1.37l2.62-0.24L112.85,291.11z M110.68,296.3l2.62-0.24l-0.2-2.19l-2.62,0.24
						L110.68,296.3z M114.75,293.71l0.2,2.19l2.74-0.25l-0.2-2.19L114.75,293.71z"/>
				</g>
				<g>
					<path class="st4" d="M153.09,301.44l-23.15,3.06l-0.66-5.01l9.18-12.62c2.23-3.34,3.23-5.89,3-7.65
						c-0.19-1.43-0.64-2.47-1.36-3.13c-0.72-0.66-1.67-0.91-2.86-0.76c-1.17,0.16-2.05,0.78-2.65,1.87c-0.6,1.09-0.8,2.38-0.6,3.87
						l-7.7,1.02c-0.27-2.03-0.01-3.98,0.78-5.84c0.79-1.86,2.02-3.39,3.7-4.6c1.68-1.21,3.64-1.96,5.87-2.26
						c3.58-0.47,6.45-0.01,8.61,1.39c2.16,1.4,3.44,3.65,3.85,6.75c0.17,1.31,0.1,2.61-0.22,3.91c-0.32,1.3-0.91,2.7-1.75,4.19
						c-0.85,1.49-2.26,3.53-4.23,6.11l-3.63,5.51l13.05-1.72L153.09,301.44z"/>
				</g>
				<g>
					<path class="st4" d="M160.98,292.73c1.21-0.17,2.27,0.05,3.18,0.67c0.9,0.61,1.43,1.48,1.59,2.6c0.15,1.12-0.12,2.1-0.83,2.93
						c-0.71,0.83-1.66,1.33-2.88,1.5c-1.23,0.17-2.29-0.06-3.19-0.68c-0.9-0.62-1.42-1.48-1.57-2.59c-0.15-1.11,0.12-2.08,0.82-2.92
						C158.79,293.4,159.75,292.9,160.98,292.73z"/>
				</g>
				<g>
					<path class="st4" d="M192.75,282.46c0.55,4.49-0.04,8.07-1.76,10.75c-1.72,2.68-4.41,4.24-8.08,4.69
						c-3.69,0.45-6.7-0.43-9.02-2.63c-2.32-2.2-3.75-5.53-4.29-9.99l-0.74-6.07c-0.55-4.49,0.04-8.07,1.76-10.75
						c1.72-2.68,4.42-4.24,8.1-4.69c3.68-0.45,6.68,0.43,9,2.63c2.32,2.2,3.75,5.54,4.3,10.01L192.75,282.46z M184.21,276.34
						c-0.29-2.39-0.82-4.13-1.59-5.24c-0.77-1.1-1.83-1.57-3.18-1.41c-1.32,0.16-2.22,0.83-2.69,1.99
						c-0.47,1.17-0.59,2.86-0.36,5.09l1.03,8.49c0.3,2.48,0.83,4.25,1.6,5.33c0.76,1.07,1.82,1.53,3.17,1.36
						c1.31-0.16,2.21-0.84,2.69-2.03c0.49-1.19,0.59-2.98,0.32-5.37L184.21,276.34z"/>
				</g>
				<g>
					<path class="st4" d="M214.73,260.41l0.42,6.07l-0.34,0.02c-2.89,0.2-5.21,1.06-6.97,2.57c-1.76,1.51-2.77,3.51-3.03,6
						c1.62-1.83,3.76-2.84,6.42-3.03c2.89-0.2,5.26,0.69,7.12,2.68c1.86,1.99,2.91,4.7,3.15,8.12c0.15,2.12-0.22,4.11-1.09,5.95
						c-0.88,1.84-2.18,3.33-3.9,4.45c-1.73,1.13-3.68,1.76-5.87,1.92c-2.37,0.17-4.52-0.23-6.46-1.17c-1.94-0.95-3.5-2.39-4.68-4.32
						c-1.18-1.93-1.87-4.2-2.09-6.81l-0.22-3.09c-0.24-3.44,0.28-6.58,1.57-9.43c1.28-2.85,3.24-5.14,5.87-6.89
						c2.63-1.75,5.61-2.74,8.94-2.97L214.73,260.41z M208.96,278.15c-1.02,0.07-1.86,0.37-2.52,0.89c-0.65,0.52-1.13,1.14-1.41,1.85
						l0.16,2.32c0.29,4.22,1.9,6.23,4.82,6.02c1.18-0.08,2.12-0.68,2.84-1.79s1.02-2.46,0.91-4.05c-0.11-1.64-0.61-2.94-1.48-3.92
						C211.39,278.5,210.29,278.06,208.96,278.15z"/>
				</g>
				<g>
					<path class="st4" d="M225,276.75c0.01-1.31,0.45-2.36,1.31-3.16c0.86-0.8,2.01-1.19,3.45-1.17c1.45,0.01,2.6,0.43,3.44,1.23
						c0.84,0.81,1.25,1.9,1.23,3.26l-0.01,1.05c-0.01,1.31-0.44,2.36-1.3,3.15c-0.85,0.79-2,1.17-3.43,1.16
						c-1.43-0.01-2.57-0.42-3.43-1.22c-0.86-0.8-1.28-1.89-1.27-3.26L225,276.75z M228.15,277.9c0,0.5,0.13,0.91,0.41,1.23
						c0.28,0.32,0.67,0.48,1.16,0.48c1.02,0.01,1.53-0.63,1.55-1.92l0.01-0.87c0.01-0.5-0.13-0.91-0.4-1.24
						c-0.27-0.33-0.65-0.49-1.15-0.5c-0.48,0-0.86,0.15-1.14,0.46c-0.28,0.31-0.43,0.74-0.43,1.28L228.15,277.9z M230.53,292.33
						l-2.27-1.17l10.51-16.46l2.27,1.17L230.53,292.33z M234.96,288.76c0.01-1.32,0.45-2.37,1.32-3.16
						c0.87-0.79,2.01-1.17,3.44-1.16c1.45,0.01,2.59,0.42,3.44,1.21c0.85,0.79,1.26,1.89,1.25,3.3l-0.01,1.02
						c-0.01,1.32-0.44,2.37-1.3,3.16c-0.85,0.79-2,1.17-3.45,1.16c-1.43-0.01-2.57-0.42-3.43-1.22c-0.86-0.8-1.28-1.89-1.27-3.26
						L234.96,288.76z M238.09,289.91c0,0.45,0.15,0.85,0.45,1.2c0.31,0.35,0.68,0.52,1.13,0.52c0.94,0.01,1.45-0.43,1.54-1.31
						l0.03-1.49c0.01-0.51-0.13-0.92-0.41-1.24c-0.28-0.32-0.66-0.48-1.15-0.48c-0.47,0-0.84,0.14-1.12,0.43
						c-0.28,0.29-0.44,0.69-0.46,1.19L238.09,289.91z"/>
				</g>
				<g>
					<path class="st1" d="M257.53,292.53c1,0.51,2.31,0.79,3.97,1c1.12,0.16,6.44,0.84,7.83,0.96c-0.33,0.38-0.73,1.12-0.91,1.63
						l-7.13-0.91c-3.72-0.47-5.87-1.3-6.97-3.81c-0.38,1.34-0.85,2.49-1.44,3.4c-0.29-0.25-0.99-0.73-1.37-0.97
						c1.24-1.74,1.83-4.7,2.3-7.96l1.59,0.34c-0.13,0.84-0.27,1.67-0.42,2.45c0.21,1.17,0.56,2.03,1.08,2.7l0.82-6.42l-3.7-0.47
						l0.19-1.53l3.34,0.43l0.26-2.07l-2.88-0.37l0.19-1.53l2.88,0.37l0.25-1.94l1.63,0.21l-0.25,1.94l2.6,0.33l-0.19,1.53l-2.6-0.33
						l-0.26,2.07l3.06,0.39l-0.19,1.53l-2.73-0.35l-0.31,2.45l2.54,0.32l-0.19,1.51l-2.54-0.32L257.53,292.53z M263.7,292.72
						c-1.91-0.24-2.42-0.82-2.16-2.87l1.34-10.55l7.02,0.89l-0.87,6.85l-5.34-0.68l-0.47,3.7c-0.11,0.84,0.02,1.01,0.88,1.12
						l2.89,0.37c0.75,0.1,0.95-0.33,1.33-2.37c0.34,0.33,0.97,0.69,1.43,0.86c-0.55,2.55-1.1,3.31-2.82,3.1L263.7,292.72z
						 M264.36,281.04l-0.48,3.81l3.68,0.47l0.48-3.81L264.36,281.04z"/>
				</g>
			</g>
		</g>
	</g>
</g>
</svg>
