<?xml version="1.0" encoding="utf-8"?>
<!-- Generator: Adobe Illustrator 26.3.1, SVG Export Plug-In . SVG Version: 6.00 Build 0)  -->
<svg version="1.1" id="鋋嶱1" xmlns="http://www.w3.org/2000/svg" xmlns:xlink="http://www.w3.org/1999/xlink" x="0px" y="0px"
	 viewBox="0 0 96 100" style="enable-background:new 0 0 96 100;" xml:space="preserve">
<style type="text/css">
	.st0{fill:#FFC41D;}
	.st1{fill:#FFF073;}
	.st2{fill:#FFB600;}
	.st3{fill:#FFCC4D;}
	.st4{fill:#F4A800;}
	.st5{fill:#EA0011;}
	.st6{fill:#B70012;}
	.st7{opacity:0.6;fill:#B21323;}
	.st8{fill:#AA0019;}
	.st9{fill:#DB0015;}
</style>
<g>
	<path class="st0" d="M0.17,24.47c0.52,4.38,0.77,6.56,1.29,10.94c1.37,0.41,2.05,0.62,3.41,1.04c0.12,1.06,0.17,1.58,0.29,2.64
		C6.32,49.7,7.48,71.73,8.64,82.34C22.22,87.29,35.28,93.13,48,100c6.36-3.43,13.22-43.49,1.81-59.72
		C38.4,24.05,8.71,21.04,0.17,24.47z"/>
	<path class="st1" d="M48,6.7c-15.4,6.91-30.16,8.66-44.45,17.65C18.81,29.05,33.57,35.59,48,42.44
		c14.43-6.85,29.18-13.39,44.45-18.09C78.16,15.36,63.4,13.61,48,6.7z"/>
	<path class="st2" d="M48,55.59c0,11.26,0,33.14,0,44.41c12.72-6.87,25.78-12.71,39.36-17.66c1.22-11.11,2.43-33.25,3.65-44.6
		C91.49,33.24,48,51.21,48,55.59z"/>
	<path class="st3" d="M48,4.77c0,0-32.51,9.86-47.83,19.7C16.63,29.35,32.5,36.22,48,43.6c15.5-7.37,31.37-14.25,47.83-19.13
		C80.51,14.62,48,4.77,48,4.77z"/>
	<path class="st2" d="M77.74,17.54c-0.19,0.45-0.41,0.9-0.66,1.32c-1.99,2.79-5.58,3.59-8.37,3.99c-14.76,2.39-28.71,3.19-43.47,0
		c-2.76-0.35-4.93-2.49-5.98-5.39c-1.25,0.49-3.07,1.54-2.78,3.59c0.01,0.04,0.5,2.53,5.14,4.49c6.21,2.62,15.61,2.32,23.09,0.72
		c0.11-0.02,0.74-0.19,1.3-0.32c0.02,0.01,0.03,0.02,0.04,0.02l1.81-0.41c0.36-0.08,0.73-0.08,1.09,0l1.81,0.41
		c0.01,0,0.02-0.01,0.04-0.02c0.56,0.13,1.19,0.29,1.3,0.32c7.47,1.59,16.26,2.03,23.09-0.72c5.41-2.18,5.14-4.46,5.14-4.49
		C80.6,19.1,78.97,18.07,77.74,17.54z"/>
	<path class="st2" d="M48,43.6c0,4.42,0,6.63,0,11.04c15.07-7.38,30.5-14.28,46.54-19.23c0.52-4.38,0.77-6.56,1.29-10.94
		C79.37,29.35,63.5,36.22,48,43.6z"/>
	<path class="st2" d="M4.87,36.45c0.12,1.06,0.17,1.58,0.29,2.64C19.89,43.88,34.1,50.45,48,57.3c0-1.07,0-1.6,0-2.66
		C34,47.79,19.7,41.23,4.87,36.45z"/>
	<path class="st4" d="M91.13,36.45c-0.12,1.06-0.17,1.58-0.29,2.64C76.11,43.88,61.9,50.45,48,57.3c0-1.07,0-1.6,0-2.66
		C62,47.79,76.3,41.23,91.13,36.45z"/>
	<path class="st2" d="M76.36,32.42c-5.13-2.94-10.32-5.74-15.57-8.4c-4.45-0.38-9.02-0.82-13.23-0.03
		c-2.83-0.38-5.67-0.59-8.45-1.01c-6.22,3.07-12.35,6.32-18.41,9.78c3.59,1.32,5.37,2.01,8.89,3.44c6.17-3.33,12.42-6.44,18.75-9.36
		c6.41,2.67,12.73,5.59,18.98,8.98C70.9,34.41,72.71,33.73,76.36,32.42z"/>
	<path class="st5" d="M76.36,31.63c-5.13-2.94-10.32-5.74-15.57-8.4c-4.45-0.38-9.02-0.82-13.23-0.03
		c-2.83-0.38-5.67-0.59-8.45-1.01c-6.22,3.07-12.35,6.32-18.41,9.78c3.59,1.32,5.37,2.01,8.89,3.44c6.17-3.33,12.42-6.44,18.75-9.36
		c6.41,2.67,12.73,5.59,18.98,8.98C70.9,33.61,72.71,32.93,76.36,31.63z"/>
	<path class="st2" d="M21.49,32.37c1.04,15.24,2.15,40.37,3.19,55.61c3.18,1.32,4.69,2.8,7.8,4.21
		c-0.71-15.24-1.42-41.15-2.13-56.39C26.84,34.38,25.07,33.69,21.49,32.37z"/>
	<path class="st6" d="M20.69,31.97c1.04,15.24,2.08,41.29,3.12,56.53c3.18,1.32,4.75,2.01,7.87,3.42
		c-0.71-15.24-1.42-41.28-2.13-56.52C26.05,33.98,24.27,33.29,20.69,31.97z"/>
	<path class="st7" d="M75.56,32.01c-1.08,15.21-2.16,41.22-3.23,56.43c-2.99,1.26-4.57,1.2-7.22,3.04l-0.82,0.37
		c0.74-15.25,1.48-41.17,2.22-56.42C70.1,34,71.91,33.32,75.56,32.01z"/>
	<path class="st6" d="M76.36,31.61c-1.08,15.21-2.16,41.22-3.23,56.43c-3.25,1.37-4.86,2.08-8.05,3.54
		c0.74-15.25,1.48-41.3,2.23-56.55C70.9,33.6,72.71,32.92,76.36,31.61z"/>
	<path class="st8" d="M69.03,9.31c-10.08,3.85-19.9,8.14-29.52,12.88c4.42,0.66,8.99,0.8,13.44,1.94c8.2-3.65,16.54-6.97,25.05-9.98
		C74.45,12.16,72.66,11.19,69.03,9.31z"/>
	<path class="st8" d="M61.19,23.23c-4.16-2.11-8.35-4.13-12.58-6.07c-6.52-2.98-13.13-5.76-19.86-8.35c-3.6,1.87-5.38,4.42-8.9,6.39
		c7.94,2.84,15.73,5.6,23.4,8.61c0.36,0.14,0.73,0.29,1.09,0.44C49.46,22.13,55.43,22.74,61.19,23.23z"/>
	<path class="st5" d="M80.09,12.54c-0.23-4.28-2.54-8.44-6.55-10.65c-9.86-5.45-22.74,1.74-24.94,11.02
		c-0.07,0.3-0.14,0.59-0.2,0.87c-0.06-0.28-0.13-0.57-0.2-0.87C46,3.63,33.12-3.57,23.26,1.89c-4,2.21-6.32,6.38-6.55,10.65
		c-0.13,2.38,1.01,4.6,2.23,6.73c0.19,0.33,1.23,0.99,3.64,1.5c1.82-2.37,7.14-5.18,7.12-5.28c6.2-0.84,11.66-0.03,15.23,5.09
		c-0.21,0.02,0.31,2.06,0.41,3.46c0.37,0.04,0.65,0.35,0.71,0.34c0.77-0.17,1.7-0.38,2.35-0.53c0.65,0.15,1.58,0.36,2.35,0.53
		c0.05,0.01,0.34-0.3,0.71-0.34c0.1-1.4,0.61-3.45,0.41-3.46c3.58-5.12,9.03-5.93,15.23-5.09c-0.03,0.1,5.3,2.91,7.12,5.28
		c2.41-0.51,3.45-1.17,3.64-1.5C79.09,17.13,80.22,14.92,80.09,12.54z"/>
	<path class="st6" d="M60.79,23.23c-4.45-0.38-9.02-0.82-13.23-0.03c-2.83-0.38-5.67-0.59-8.45-1.01c-3.34,1.65-6.66,3.35-9.95,5.11
		c6.74,1.14,18.71-2.64,18.71-2.64c0.3-0.07,0.6-0.07,0.9,0c0,0,12.12,3.92,19.7,2.59C65.92,25.87,63.36,24.53,60.79,23.23z"/>
	<path class="st6" d="M44.94,20.58c-3.23,0.27-13.54,0.98-15.23-5.09c-5.28,0.55-11.21,2.83-10.8,3.53
		c0.77,1.32,1.64,2.77,2.99,3.79c6.79,5.12,15.31,3.14,22.78,1.55c0.13-0.03,0.59-0.16,1.2-0.3C45.91,22.32,44.82,20.3,44.94,20.58z
		"/>
	<path class="st6" d="M51.87,20.58c3.23,0.27,13.54,0.98,15.23-5.09c5.28,0.55,11.21,2.83,10.8,3.53c-0.77,1.32-1.64,2.77-2.99,3.79
		c-6.79,5.12-15.31,3.14-22.78,1.55c-0.13-0.03-0.59-0.16-1.2-0.3C50.9,22.32,52,20.3,51.87,20.58z"/>
	<path class="st9" d="M80.1,12.75c-0.18,0.63-0.26,1.12-0.46,1.63c-0.42,1.08-1.63,1.61-2.74,1.26c-8.81-2.83-20.77-4.12-25.45,4.36
		c-0.29,0.52-1.05,0.5-1.29-0.04c-1.03-2.27-1.59-5.09-1.38-7.69c-0.06,0.21-0.13,0.43-0.18,0.64c-0.07,0.3-0.33,0.3-0.4,0
		c-0.05-0.22-0.11-0.43-0.18-0.64c0.21,2.61-0.35,5.43-1.38,7.69c-0.25,0.54-1.01,0.56-1.29,0.04c-4.68-8.48-16.64-7.19-25.45-4.36
		c-1.1,0.35-2.32-0.18-2.74-1.26c-0.2-0.52-0.28-1.01-0.46-1.63c-0.09,2.31,0.43,4.65,1.62,6.72c0.02,0.03,0.05,0.07,0.1,0.1
		c0.01,0.02,0.02,0.04,0.02,0.05c0.77,1.32,1.81,2.53,3.16,3.54c6.79,5.12,15.61,3.11,23.09,1.52c0.11-0.02,0.74-0.19,1.3-0.32
		c2.23-0.61,2.22-0.61,4.79,0c0.56,0.13,1.19,0.29,1.3,0.32c7.47,1.59,16.3,3.6,23.09-1.52c1.35-1.02,2.39-2.22,3.16-3.54
		c0.01-0.01,0.02-0.03,0.02-0.05c0.05-0.03,0.08-0.07,0.1-0.1C79.67,17.39,80.19,15.06,80.1,12.75z M20.58,19.59
		c-0.21-0.6,0.05-1.26,0.62-1.55c2.02-1.03,5.49-2.24,8.51-2.56c5.53-0.67,11.66-0.03,15.23,5.09c-0.11-0.24,0.75,1.55,0.94,3.16
		C31.85,27.73,22.2,24.16,20.58,19.59z M76.23,19.59c-1.62,4.56-11.27,8.14-25.3,4.14c0.19-1.61,1.04-3.4,0.94-3.16
		c3.58-5.12,9.7-5.77,15.23-5.09c3.02,0.32,6.49,1.53,8.51,2.56C76.18,18.33,76.45,18.99,76.23,19.59z"/>
</g>
</svg>
