<?xml version="1.0" encoding="utf-8"?>
<!-- Generator: Adobe Illustrator 28.1.0, SVG Export Plug-In . SVG Version: 6.00 Build 0)  -->
<svg version="1.1" id="分離模式" xmlns="http://www.w3.org/2000/svg" xmlns:xlink="http://www.w3.org/1999/xlink" x="0px"
	 y="0px" viewBox="0 0 34 35" style="enable-background:new 0 0 34 35;" xml:space="preserve">
<style type="text/css">
	.st0{fill:#FBCD4A;}
	.st1{fill:#142784;}
</style>
<g>
	<g>
		<g>
			<g>
				<polygon class="st0" points="16.83,0.87 20.11,14.6 33.25,17.12 20.28,20.66 16.49,34.13 12.71,20.32 0.75,17.96 13.38,14.85 
									"/>
			</g>
		</g>
	</g>
	<g>
		<g>
			<g>
				<path class="st1" d="M16.5,34.88C16.49,34.88,16.49,34.88,16.5,34.88c-0.34,0-0.64-0.23-0.73-0.55L12.1,20.97L0.61,18.7
					c-0.35-0.07-0.6-0.37-0.61-0.72c-0.01-0.35,0.23-0.66,0.57-0.75l12.19-3.01L16.1,0.69c0.08-0.34,0.39-0.57,0.73-0.57
					c0,0,0,0,0,0c0.35,0,0.65,0.24,0.73,0.58l3.17,13.25l12.65,2.43c0.34,0.07,0.6,0.36,0.61,0.71c0.01,0.35-0.22,0.66-0.55,0.76
					l-12.55,3.42l-3.67,13.06C17.13,34.65,16.83,34.88,16.5,34.88z M4.23,17.88l8.62,1.7c0.28,0.06,0.51,0.26,0.58,0.54l3.07,11.19
					l3.05-10.86c0.07-0.25,0.27-0.45,0.53-0.52l9.83-2.68l-9.95-1.91c-0.29-0.06-0.52-0.28-0.59-0.56L16.82,4.06l-2.71,10.97
					c-0.07,0.27-0.28,0.48-0.55,0.55L4.23,17.88z"/>
			</g>
		</g>
	</g>
</g>
</svg>
