<?xml version="1.0" encoding="utf-8"?>
<!-- Generator: Adobe Illustrator 28.1.0, SVG Export Plug-In . SVG Version: 6.00 Build 0)  -->
<svg version="1.1" id="栝鍣_1" xmlns="http://www.w3.org/2000/svg" xmlns:xlink="http://www.w3.org/1999/xlink" x="0px" y="0px"
	 viewBox="0 0 655 554" style="enable-background:new 0 0 655 554;" xml:space="preserve">
<style type="text/css">
	.st0{fill:#3B9CFF;}
	.st1{fill:#EB6CB0;}
	.st2{fill:#142784;}
	.st3{fill:#FFFFFF;}
	.st4{fill:#FBCD4A;}
	.st5{fill:#68A8FD;}
	.st6{fill:#C9E0FC;}
</style>
<g>
	<g>
		<g>
			<g>
				<path class="st0" d="M71.93,406.68c2.02,2.63,4.08,5.25,6.18,7.85c10.77,13.31,22.61,26.15,35.51,38.39
					c4.97,4.72,10.02,9.27,15.14,13.66c16.3,13.97,33.34,26.31,50.84,36.98c35.25,21.5,72.38,36.24,109.14,44
					c0.75,0.16,1.5,0.32,2.26,0.47c7.7,1.57,15.38,2.83,23.02,3.78c2.77,0.35,5.54,0.65,8.31,0.92
					c58.74,5.62,114.7-7.19,158.33-39.35c0.85-0.63,1.7-1.26,2.54-1.91c5.56-4.24,10.92-8.81,16.04-13.7c0,0,0,0,0.01,0
					c2.31-2.19,4.57-4.46,6.78-6.79c13.4-14.12,24.29-29.87,32.75-46.84c5.07-10.18,9.27-20.79,12.6-31.75
					c1.81-5.97,3.37-12.05,4.68-18.22c19.81-93.62-18.88-207.97-108.55-293.06c-15.08-14.31-30.92-27.14-47.26-38.46
					c-2.5-1.73-5.01-3.43-7.53-5.09h0c-5.86-3.85-11.77-7.52-17.73-10.99c-10.33-6.02-20.8-11.46-31.37-16.33h-0.01
					C324.64,21.5,305.4,14.65,286.2,9.69c-3.29-0.85-6.58-1.64-9.86-2.38C191.98-11.65,109.17,6.05,55.09,63.04
					C-25.69,148.17-15.57,292.71,71.93,406.68z"/>
			</g>
		</g>
	</g>
	<g>
		<g>
			<g>
				<g>
					<g>
						
							<ellipse transform="matrix(0.7071 -0.7071 0.7071 0.7071 -105.354 269.7708)" class="st1" cx="272.97" cy="262.06" rx="155.47" ry="155.47"/>
					</g>
				</g>
				<g>
					<g>
						<path class="st2" d="M272.97,418.71c-41.84,0-81.18-16.29-110.77-45.88c-29.59-29.59-45.88-68.93-45.88-110.77
							c0-41.84,16.29-81.18,45.88-110.77c29.59-29.59,68.93-45.88,110.77-45.88c41.84,0,81.18,16.29,110.77,45.88
							c29.59,29.59,45.88,68.93,45.88,110.77c0,41.84-16.29,81.18-45.88,110.77C354.15,402.42,314.81,418.71,272.97,418.71z
							 M272.97,107.77c-85.07,0-154.29,69.21-154.29,154.29c0,85.07,69.21,154.29,154.29,154.29c85.07,0,154.29-69.21,154.29-154.29
							C427.25,176.98,358.04,107.77,272.97,107.77z"/>
					</g>
				</g>
			</g>
			<g>
				<g>
					<g>
						<circle class="st3" cx="272.97" cy="262.06" r="114.94"/>
					</g>
				</g>
				<g>
					<g>
						<path class="st2" d="M272.97,378.18c-64.03,0-116.12-52.09-116.12-116.12c0-64.03,52.09-116.12,116.12-116.12
							c64.03,0,116.12,52.09,116.12,116.12C389.08,326.09,336.99,378.18,272.97,378.18z M272.97,148.3
							c-62.73,0-113.76,51.03-113.76,113.76c0,62.73,51.03,113.76,113.76,113.76c62.73,0,113.76-51.03,113.76-113.76
							C386.72,199.33,335.69,148.3,272.97,148.3z"/>
					</g>
				</g>
			</g>
			<g>
				<g>
					<g>
						<circle class="st1" cx="272.97" cy="262.06" r="82.27"/>
					</g>
				</g>
				<g>
					<g>
						<path class="st2" d="M272.97,345.51c-46.02,0-83.45-37.44-83.45-83.45c0-46.02,37.44-83.45,83.45-83.45
							c46.02,0,83.45,37.44,83.45,83.45C356.42,308.08,318.98,345.51,272.97,345.51z M272.97,180.97
							c-44.71,0-81.09,36.38-81.09,81.09c0,44.71,36.38,81.09,81.09,81.09c44.71,0,81.09-36.38,81.09-81.09
							C354.06,217.35,317.68,180.97,272.97,180.97z"/>
					</g>
				</g>
			</g>
			<g>
				<g>
					<g>
						<circle class="st3" cx="272.97" cy="262.06" r="51.27"/>
					</g>
				</g>
				<g>
					<g>
						<path class="st2" d="M272.97,314.51c-28.92,0-52.45-23.53-52.45-52.45c0-28.92,23.53-52.45,52.45-52.45
							c28.92,0,52.45,23.53,52.45,52.45C325.42,290.98,301.89,314.51,272.97,314.51z M272.97,211.97
							c-27.62,0-50.09,22.47-50.09,50.09c0,27.62,22.47,50.09,50.09,50.09c27.62,0,50.09-22.47,50.09-50.09
							C323.05,234.44,300.58,211.97,272.97,211.97z"/>
					</g>
				</g>
			</g>
			<g>
				<g>
					<g>
						
							<ellipse transform="matrix(0.3827 -0.9239 0.9239 0.3827 -73.605 413.9602)" class="st1" cx="272.97" cy="262.06" rx="25.56" ry="25.56"/>
					</g>
				</g>
				<g>
					<g>
						<path class="st2" d="M272.97,288.8c-14.74,0-26.74-12-26.74-26.74c0-14.74,12-26.74,26.74-26.74c14.74,0,26.74,12,26.74,26.74
							C299.71,276.8,287.71,288.8,272.97,288.8z M272.97,237.68c-13.44,0-24.38,10.94-24.38,24.38c0,13.44,10.94,24.38,24.38,24.38
							c13.44,0,24.38-10.94,24.38-24.38C297.34,248.62,286.41,237.68,272.97,237.68z"/>
					</g>
				</g>
			</g>
		</g>
		<g>
			<g>
				<g>
					<g>
						<g>
							<polygon class="st4" points="146.29,138.43 146.88,110.98 110.67,74.2 114.18,113.9 							"/>
						</g>
					</g>
				</g>
				<g>
					<g>
						<g>
							<path class="st2" d="M146.29,139.61c-0.25,0-0.51-0.08-0.72-0.24l-32.11-24.52c-0.26-0.2-0.43-0.5-0.46-0.84l-3.5-39.71
								c-0.04-0.5,0.23-0.97,0.68-1.18c0.45-0.21,0.99-0.11,1.34,0.24l36.2,36.79c0.22,0.23,0.35,0.54,0.34,0.85l-0.58,27.44
								c-0.01,0.44-0.27,0.85-0.67,1.04C146.64,139.57,146.47,139.61,146.29,139.61z M115.31,113.28l29.85,22.8l0.52-24.62
								l-33.54-34.09L115.31,113.28z"/>
						</g>
					</g>
				</g>
			</g>
			<g>
				<g>
					<g>
						<g>
							<polygon class="st4" points="146.49,138.05 119.88,144.79 75.89,117.79 115.37,112.28 							"/>
						</g>
					</g>
				</g>
				<g>
					<g>
						<g>
							<path class="st2" d="M119.88,145.98c-0.22,0-0.43-0.06-0.62-0.17l-43.99-27c-0.43-0.26-0.64-0.76-0.54-1.25
								c0.1-0.49,0.5-0.86,0.99-0.93l39.48-5.52c0.33-0.04,0.66,0.05,0.92,0.26l31.12,25.78c0.34,0.28,0.5,0.74,0.4,1.17
								c-0.1,0.43-0.43,0.78-0.86,0.89l-26.61,6.74C120.08,145.96,119.98,145.98,119.88,145.98z M79.32,118.51l40.76,25.02
								l23.87-6.05l-28.93-23.96L79.32,118.51z"/>
						</g>
					</g>
				</g>
			</g>
			<g>
				<g>
					<g>
						<path class="st2" d="M264.82,255.7c-0.87,0-1.74-0.32-2.43-0.95L112.71,116.72c-1.46-1.34-1.55-3.61-0.21-5.07
							c1.34-1.45,3.61-1.54,5.07-0.21l149.68,138.03c1.46,1.34,1.55,3.61,0.21,5.07C266.75,255.31,265.79,255.7,264.82,255.7z"/>
					</g>
				</g>
			</g>
			<g>
				<g>
					<g>
						<g>
							<polygon class="st4" points="280.51,263.45 261.47,216.22 256.14,242.89 231.76,254.31 							"/>
						</g>
					</g>
				</g>
				<g>
					<g>
						<g>
							<path class="st2" d="M280.51,264.63c-0.07,0-0.15-0.01-0.22-0.02l-48.75-9.14c-0.5-0.09-0.89-0.5-0.95-1.01
								c-0.06-0.51,0.21-1,0.67-1.22l23.84-11.17l5.22-26.08c0.1-0.51,0.53-0.9,1.05-0.94c0.52-0.05,1.01,0.25,1.21,0.73
								l19.04,47.23c0.16,0.4,0.09,0.86-0.18,1.19C281.2,264.48,280.86,264.63,280.51,264.63z M235.58,253.83l43.03,8.07
								l-16.76-41.56l-4.56,22.78c-0.07,0.37-0.32,0.68-0.66,0.84L235.58,253.83z"/>
						</g>
					</g>
				</g>
			</g>
		</g>
	</g>
	<g>
		<g>
			<g>
				<g>
					<g>
						<polygon class="st5" points="111.46,336.78 213.88,336.78 310.65,520.09 208.24,520.09 						"/>
					</g>
				</g>
			</g>
			<g>
				<g>
					<g>
						<path class="st2" d="M207.19,520.64l-96.77-183.31c-0.19-0.37-0.18-0.81,0.03-1.16c0.21-0.35,0.6-0.57,1.01-0.57h102.41
							c0.44,0,0.84,0.24,1.04,0.63l96.77,183.31c0.19,0.37,0.18,0.81-0.03,1.16c-0.21,0.35-0.6,0.57-1.01,0.57H208.24
							C207.8,521.27,207.4,521.03,207.19,520.64z M213.16,337.96h-99.74l95.53,180.94h99.74L213.16,337.96z"/>
					</g>
				</g>
			</g>
		</g>
		<g>
			<g>
				<g>
					<g>
						<polygon class="st6" points="214.31,336.78 111.9,336.78 15.13,520.09 117.54,520.09 						"/>
					</g>
				</g>
			</g>
			<g>
				<g>
					<g>
						<path class="st2" d="M13.93,520.09c0-0.26,0.08-0.49,0.22-0.69l96.7-183.17c0.2-0.39,0.61-0.63,1.04-0.63h102.41
							c0.41,0,0.8,0.22,1.01,0.57c0.21,0.35,0.23,0.8,0.03,1.16l-96.77,183.31c-0.2,0.39-0.61,0.63-1.04,0.63H15.13
							c0,0-0.01,0-0.01,0C14.46,521.27,13.93,520.74,13.93,520.09z M212.35,337.96h-99.74L17.09,518.91h99.74L212.35,337.96z"/>
					</g>
				</g>
			</g>
		</g>
		<g>
			<g>
				<g>
					<g>
						<polygon class="st5" points="305.44,287.61 407.86,287.61 504.63,520.09 402.21,520.09 						"/>
					</g>
				</g>
			</g>
			<g>
				<g>
					<g>
						<path class="st2" d="M401.12,520.54l-96.77-232.48c-0.15-0.36-0.11-0.78,0.11-1.11c0.22-0.33,0.59-0.53,0.98-0.53h102.41
							c0.48,0,0.91,0.29,1.09,0.73l96.77,232.48c0.15,0.36,0.11,0.78-0.11,1.11c-0.22,0.33-0.59,0.53-0.98,0.53H402.21
							C401.74,521.27,401.31,520.98,401.12,520.54z M407.07,288.79h-99.85L403,518.91h99.85L407.07,288.79z"/>
					</g>
				</g>
			</g>
		</g>
		<g>
			<g>
				<g>
					<g>
						<polygon class="st6" points="408.29,287.61 305.88,287.61 209.1,520.09 311.52,520.09 						"/>
					</g>
				</g>
			</g>
			<g>
				<g>
					<g>
						<path class="st2" d="M207.91,520.09c0-0.22,0.06-0.42,0.16-0.6l96.71-232.33c0.18-0.44,0.61-0.73,1.09-0.73h102.41
							c0.4,0,0.76,0.2,0.98,0.53c0.22,0.33,0.26,0.74,0.11,1.11l-96.77,232.48c-0.18,0.44-0.61,0.73-1.09,0.73H209.1
							c0,0-0.01,0-0.01,0C208.44,521.27,207.91,520.74,207.91,520.09z M406.52,288.79h-99.85l-95.79,230.12h99.85L406.52,288.79z"/>
					</g>
				</g>
			</g>
		</g>
		<g>
			<g>
				<g>
					<g>
						<polygon class="st6" points="653.82,238.08 626.58,184.26 627,183.25 625.98,183.25 599.14,129.88 468.09,222.78 
							511.02,220.46 403.08,519.83 505.5,519.83 611.15,226.75 						"/>
					</g>
				</g>
			</g>
			<g>
				<g>
					<g>
						<path class="st2" d="M402.11,520.81c-0.22-0.32-0.28-1.23-0.14-1.59l107.34-297.71l-41.16,2.22
							c-0.53,0.03-1.01-0.29-1.18-0.79c-0.17-0.5,0-1.04,0.43-1.35l131.05-93.13c0.28-0.2,0.63-0.25,0.97-0.17
							c0.33,0.08,0.62,0.34,0.77,0.65l26.51,52.32h0.3c0.37,0,0.72,0.11,0.94,0.41c0.22,0.3,0.29,0.62,0.19,0.98l-0.3,1.05
							l27.04,53.9c0.21,0.42,0.15,0.95-0.14,1.31c-0.29,0.36-0.77,0.58-1.22,0.46l-41.62-11.03L506.61,520.53
							c-0.17,0.47-0.61,1.3-1.11,1.3H403.08C402.7,521.83,402.34,521.12,402.11,520.81z M610.04,226.44
							c0.21-0.58,0.83-1.1,1.42-0.94l40.12,10.76l-26.06-51.94c-0.13-0.27-0.16-0.57-0.08-0.86l0.03-0.09
							c-0.23-0.11-0.42-0.29-0.54-0.53l-26.22-51.67l-126.61,90l38.87-2.07c0.39-0.02,0.78,0.21,1.01,0.52
							c0.24,0.32,0.3,0.83,0.16,1.2l-107.37,298h99.9L610.04,226.44z"/>
					</g>
				</g>
			</g>
		</g>
	</g>
</g>
</svg>
