<?xml version="1.0" encoding="utf-8"?>
<!-- Generator: Adobe Illustrator 28.1.0, SVG Export Plug-In . SVG Version: 6.00 Build 0)  -->
<svg version="1.1" id="圖層_1" xmlns="http://www.w3.org/2000/svg" xmlns:xlink="http://www.w3.org/1999/xlink" x="0px" y="0px"
	 viewBox="0 0 450 445" style="enable-background:new 0 0 450 445;" xml:space="preserve">
<style type="text/css">
	.st0{fill:#3B9CFF;}
	.st1{fill:#F0EAFF;}
	.st2{fill:#142784;}
	.st3{fill:#FFFFFF;}
	.st4{fill:#C9E0FC;}
	.st5{fill:#33CC99;}
	.st6{fill:#FFC0BB;}
	.st7{fill:#EB6CB0;}
</style>
<g>
	<g>
		<g>
			<g>
				<path class="st0" d="M38.57,298.17c5.75,9.52,12.12,18.87,19.11,27.97c1.62,2.11,3.27,4.21,4.96,6.29
					c8.63,10.67,18.13,20.97,28.48,30.79c3.98,3.78,8.03,7.43,12.14,10.95c3.8,3.26,7.66,6.41,11.56,9.45
					c9.5,7.41,19.27,14.14,29.22,20.21c28.27,17.24,58.05,29.06,87.53,35.29c0.6,0.13,1.21,0.25,1.81,0.38
					c6.18,1.26,12.33,2.27,18.46,3.03c2.22,0.28,4.45,0.52,6.66,0.73c47.11,4.51,91.99-5.76,126.98-31.56
					c0.68-0.5,1.36-1.01,2.04-1.53c4.46-3.4,8.76-7.06,12.87-10.99c0,0,0,0,0.01,0c1.85-1.76,3.67-3.58,5.44-5.45
					c10.74-11.32,19.48-23.95,26.26-37.56c4.07-8.16,7.43-16.67,10.1-25.47c1.45-4.79,2.7-9.67,3.75-14.61
					c15.89-75.08-15.14-166.78-87.06-235.03c-9.03-8.57-18.39-16.47-28.01-23.7c-3.27-2.46-6.57-4.84-9.89-7.15
					c-2-1.39-4.02-2.75-6.04-4.08h0c-4.69-3.09-9.44-6.03-14.22-8.81c-8.28-4.83-16.68-9.19-25.16-13.09h-0.01
					c-10-4.6-20.1-8.55-30.23-11.85c-5.26-1.72-10.53-3.25-15.8-4.62c-2.64-0.68-5.27-1.32-7.91-1.91
					C153.96-9.34,87.55,4.85,44.19,50.55C-14.15,112.03-13.38,212.12,38.57,298.17z"/>
			</g>
		</g>
	</g>
	<g>
		<g>
			<g>
				<g>
					<polygon class="st1" points="361.61,338.8 366.35,358.59 385.28,362.23 366.59,367.33 361.13,386.75 355.67,366.84 
						338.43,363.44 356.64,358.95 					"/>
				</g>
			</g>
		</g>
		<g>
			<g>
				<g>
					<path class="st2" d="M361.13,387.5C361.13,387.5,361.13,387.5,361.13,387.5c-0.31,0-0.57-0.24-0.66-0.54l-5.35-19.52
						l-16.82-3.33c-0.31-0.06-0.54-0.34-0.55-0.66c-0.01-0.32,0.21-0.6,0.52-0.68l17.81-4.39l4.88-19.76
						c0.07-0.3,0.35-0.52,0.66-0.52c0,0,0,0,0,0c0.31,0,0.59,0.22,0.66,0.53l4.63,19.36l18.5,3.56c0.31,0.06,0.54,0.33,0.55,0.64
						c0.01,0.32-0.2,0.6-0.5,0.68l-18.32,5l-5.36,19.09C361.7,387.26,361.43,387.5,361.13,387.5z M341.57,363.37l14.23,2.81
						c0.25,0.05,0.46,0.24,0.52,0.49l4.81,17.55l4.8-17.07c0.06-0.23,0.24-0.41,0.48-0.47l15.87-4.33l-16.06-3.09
						c-0.26-0.05-0.47-0.25-0.53-0.51l-4.08-17.07l-4.31,17.44c-0.06,0.24-0.25,0.44-0.5,0.5L341.57,363.37z"/>
				</g>
			</g>
		</g>
	</g>
	<g>
		<g>
			<g>
				<g>
					<polygon class="st1" points="42.53,203.5 47.26,223.29 66.2,226.93 47.51,232.03 42.04,251.45 36.58,231.54 19.35,228.14 
						37.55,223.65 					"/>
				</g>
			</g>
		</g>
		<g>
			<g>
				<g>
					<path class="st2" d="M42.04,252.2C42.04,252.2,42.04,252.2,42.04,252.2c-0.31,0-0.57-0.24-0.66-0.54l-5.35-19.52l-16.82-3.33
						c-0.31-0.06-0.54-0.34-0.55-0.66c-0.01-0.32,0.21-0.6,0.52-0.68l17.81-4.39l4.88-19.76c0.07-0.3,0.35-0.52,0.66-0.52
						c0,0,0,0,0,0c0.31,0,0.59,0.22,0.66,0.53l4.63,19.36l18.5,3.56c0.31,0.06,0.54,0.33,0.55,0.64c0.01,0.32-0.2,0.6-0.5,0.68
						l-18.32,5l-5.36,19.09C42.62,251.96,42.35,252.2,42.04,252.2z M22.48,228.07l14.23,2.81c0.25,0.05,0.46,0.24,0.52,0.49
						l4.81,17.55l4.8-17.07c0.06-0.23,0.24-0.41,0.48-0.47l15.87-4.33l-16.06-3.09c-0.26-0.05-0.47-0.25-0.53-0.51l-4.08-17.07
						l-4.31,17.44c-0.06,0.24-0.25,0.44-0.5,0.5L22.48,228.07z"/>
				</g>
			</g>
		</g>
	</g>
	<g>
		<g>
			<g>
				<g>
					<polygon class="st1" points="307.09,76.21 310.2,89.2 322.63,91.59 310.36,94.93 306.78,107.68 303.19,94.61 291.88,92.38 
						303.83,89.44 					"/>
				</g>
			</g>
		</g>
		<g>
			<g>
				<g>
					<path class="st2" d="M306.78,108.13C306.78,108.13,306.77,108.13,306.78,108.13c-0.31,0-0.57-0.09-0.66-0.38l-3.47-12.6
						l-10.9-2.12c-0.31-0.06-0.54-0.32-0.55-0.64c-0.01-0.32,0.21-0.59,0.52-0.67l11.55-2.85l3.17-12.89
						c0.07-0.3,0.35-0.58,0.66-0.58c0,0,0,0,0,0c0.31,0,0.59,0.28,0.66,0.59l3.01,12.59l12,2.32c0.31,0.06,0.54,0.33,0.55,0.65
						c0.01,0.32-0.2,0.6-0.5,0.69l-11.9,3.25l-3.48,12.26C307.35,108.04,307.08,108.13,306.78,108.13z M295.01,92.31l8.31,1.64
						c0.25,0.05,0.46,0.24,0.52,0.49l2.94,10.71l2.92-10.39c0.06-0.23,0.24-0.41,0.48-0.47l9.45-2.58l-9.56-1.84
						c-0.26-0.05-0.47-0.25-0.53-0.51l-2.46-10.27l-2.6,10.51c-0.06,0.24-0.25,0.44-0.5,0.5L295.01,92.31z"/>
				</g>
			</g>
		</g>
	</g>
	<g>
		<g>
			<g>
				<g>
					<path class="st3" d="M251.66,46.73l45.8,325.91c0.99,7.03-3.91,13.53-10.94,14.52l-157.25,22.1
						c-7.03,0.99-13.53-3.91-14.52-10.94L68.96,72.41c-0.99-7.03,3.91-13.53,10.94-14.52l157.25-22.1
						C244.18,34.8,250.68,39.7,251.66,46.73z"/>
				</g>
			</g>
			<path class="st2" d="M129.4,410.13c-7.5,1.05-14.45-4.19-15.5-11.69L68.1,72.53c-1.05-7.5,4.19-14.45,11.68-15.51l157.25-22.1
				c7.5-1.05,14.45,4.19,15.51,11.68l45.8,325.91c1.05,7.5-4.19,14.45-11.69,15.51L129.4,410.13z M80.02,58.76
				c-6.54,0.92-11.11,6.99-10.19,13.53l45.8,325.91c0.92,6.54,6.99,11.12,13.53,10.2l157.25-22.1c6.54-0.92,11.12-6.99,10.2-13.53
				L250.8,46.85c-0.92-6.54-6.99-11.12-13.53-10.2L80.02,58.76z"/>
		</g>
		<g>
			<g>
				<path class="st4" d="M220.68,72.06l-115.24,16.2c-9.87,1.39-16.75,10.51-15.36,20.38l0,0c1.39,9.87,10.51,16.75,20.38,15.36
					l115.24-16.2c9.87-1.39,16.75-10.51,15.36-20.38l0,0C239.67,77.55,230.55,70.68,220.68,72.06z"/>
			</g>
		</g>
		<g>
			<g>
				<path class="st4" d="M255.82,322.1l-115.24,16.2c-9.87,1.39-16.75,10.51-15.36,20.38l0,0c1.39,9.87,10.51,16.75,20.38,15.36
					l115.24-16.2c9.87-1.39,16.75-10.51,15.36-20.38v0C274.81,327.59,265.69,320.71,255.82,322.1z"/>
			</g>
		</g>
		<g>
			<g>
				
					<ellipse transform="matrix(0.9903 -0.1392 0.1392 0.9903 -13.5172 16.1448)" class="st3" cx="108.68" cy="104.72" rx="11.6" ry="11.6"/>
			</g>
		</g>
		<g>
			<g>
				<path class="st3" d="M219.19,82.66l-92.27,12.97c-0.39,0.05-0.75-0.22-0.81-0.61c-0.05-0.39,0.22-0.75,0.61-0.81l92.27-12.97
					c0.39-0.05,0.75,0.22,0.81,0.61C219.86,82.25,219.58,82.61,219.19,82.66z"/>
			</g>
		</g>
		<g>
			<g>
				<path class="st3" d="M221.19,96.88l-92.27,12.97c-0.39,0.05-0.75-0.22-0.81-0.61c-0.05-0.39,0.22-0.75,0.61-0.81l92.27-12.97
					c0.39-0.05,0.75,0.22,0.81,0.61C221.85,96.47,221.58,96.83,221.19,96.88z"/>
			</g>
		</g>
		<g>
			<g>
				<path class="st3" d="M158.86,98.39l-30.93,4.35c-0.39,0.05-0.75-0.22-0.81-0.61c-0.05-0.39,0.22-0.75,0.61-0.81l30.93-4.35
					c0.39-0.05,0.75,0.22,0.81,0.61C159.52,97.98,159.25,98.34,158.86,98.39z"/>
			</g>
		</g>
		<g>
			<g>
				<path class="st3" d="M195.33,93.27l-30.93,4.35c-0.39,0.05-0.75-0.22-0.81-0.61c-0.05-0.39,0.22-0.75,0.61-0.81l30.93-4.35
					c0.39-0.05,0.75,0.22,0.81,0.61C195.99,92.85,195.72,93.21,195.33,93.27z"/>
			</g>
		</g>
		<g>
			<g>
				<g>
					<g>
						<g>
							<g>
								<g>
									<path class="st4" d="M249.14,190.58c-0.32,0.05-0.62-0.18-0.66-0.5l-9.7-69.03c-0.05-0.32,0.18-0.62,0.5-0.66
										c0.32-0.05,0.62,0.18,0.66,0.5l9.7,69.03C249.69,190.24,249.46,190.54,249.14,190.58z"/>
								</g>
							</g>
						</g>
					</g>
				</g>
				<g>
					<g>
						<g>
							<g>
								<g>
									<path class="st4" d="M233.46,192.79c-0.32,0.05-0.62-0.18-0.66-0.5l-9.7-69.03c-0.05-0.32,0.18-0.62,0.5-0.66
										c0.32-0.05,0.62,0.18,0.66,0.5l9.7,69.03C234.01,192.44,233.78,192.74,233.46,192.79z"/>
								</g>
							</g>
						</g>
					</g>
				</g>
				<g>
					<g>
						<g>
							<g>
								<g>
									<path class="st4" d="M218.46,194.89c-0.32,0.05-0.62-0.18-0.66-0.5l-9.7-69.03c-0.05-0.32,0.18-0.62,0.5-0.66
										c0.32-0.05,0.62,0.18,0.66,0.5l9.7,69.03C219.01,194.55,218.78,194.85,218.46,194.89z"/>
								</g>
							</g>
						</g>
					</g>
				</g>
				<g>
					<g>
						<g>
							<g>
								<g>
									<path class="st4" d="M202.78,197.1c-0.32,0.05-0.62-0.18-0.66-0.5l-9.7-69.03c-0.05-0.32,0.18-0.62,0.5-0.66
										s0.62,0.18,0.66,0.5l9.7,69.03C203.33,196.76,203.1,197.05,202.78,197.1z"/>
								</g>
							</g>
						</g>
					</g>
				</g>
				<g>
					<g>
						<g>
							<g>
								<g>
									<path class="st4" d="M188.13,199.16c-0.32,0.05-0.62-0.18-0.66-0.5l-9.7-69.03c-0.05-0.32,0.18-0.62,0.5-0.66
										c0.32-0.05,0.62,0.18,0.66,0.5l9.7,69.03C188.67,198.82,188.45,199.11,188.13,199.16z"/>
								</g>
							</g>
						</g>
					</g>
				</g>
				<g>
					<g>
						<g>
							<g>
								<g>
									<path class="st4" d="M172.44,201.36c-0.32,0.05-0.62-0.18-0.66-0.5l-9.7-69.03c-0.05-0.32,0.18-0.62,0.5-0.66
										c0.32-0.05,0.62,0.18,0.66,0.5l9.7,69.03C172.99,201.02,172.77,201.32,172.44,201.36z"/>
								</g>
							</g>
						</g>
					</g>
				</g>
				<g>
					<g>
						<g>
							<g>
								<g>
									<path class="st4" d="M157.45,203.47c-0.32,0.05-0.62-0.18-0.66-0.5l-9.7-69.03c-0.05-0.32,0.18-0.62,0.5-0.66
										c0.32-0.05,0.62,0.18,0.66,0.5l9.7,69.03C157.99,203.13,157.77,203.43,157.45,203.47z"/>
								</g>
							</g>
						</g>
					</g>
				</g>
				<g>
					<g>
						<g>
							<g>
								<g>
									<path class="st4" d="M141.77,205.67c-0.32,0.05-0.62-0.18-0.66-0.5l-9.7-69.03c-0.05-0.32,0.18-0.62,0.5-0.66
										c0.32-0.05,0.62,0.18,0.66,0.5l9.7,69.03C142.31,205.33,142.09,205.63,141.77,205.67z"/>
								</g>
							</g>
						</g>
					</g>
				</g>
				<g>
					<g>
						<g>
							<g>
								<g>
									<path class="st4" d="M126.77,207.78c-0.32,0.05-0.62-0.18-0.66-0.5l-9.7-69.03c-0.05-0.32,0.18-0.62,0.5-0.66
										c0.32-0.05,0.62,0.18,0.66,0.5l9.7,69.03C127.31,207.44,127.09,207.74,126.77,207.78z"/>
								</g>
							</g>
						</g>
					</g>
				</g>
				<g>
					<g>
						<g>
							<g>
								<g>
									<path class="st4" d="M110.23,210.11c-0.32,0.05-0.62-0.18-0.66-0.5l-9.7-69.03c-0.05-0.32,0.18-0.62,0.5-0.66
										c0.32-0.05,0.62,0.18,0.66,0.5l9.7,69.03C110.78,209.76,110.56,210.06,110.23,210.11z"/>
								</g>
							</g>
						</g>
					</g>
				</g>
				<g>
					<g>
						<g>
							<g>
								<g>
									<path class="st4" d="M246.62,131.23L96.81,152.29c-0.32,0.05-0.62-0.18-0.66-0.5c-0.05-0.32,0.18-0.62,0.5-0.66
										l149.82-21.06c0.32-0.05,0.62,0.18,0.66,0.5S246.95,131.19,246.62,131.23z"/>
								</g>
							</g>
						</g>
					</g>
				</g>
				<g>
					<g>
						<g>
							<g>
								<g>
									<path class="st4" d="M248.49,144.53L98.68,165.58c-0.32,0.05-0.62-0.18-0.66-0.5c-0.05-0.32,0.18-0.62,0.5-0.66
										l149.82-21.06c0.32-0.05,0.62,0.18,0.66,0.5S248.81,144.48,248.49,144.53z"/>
								</g>
							</g>
						</g>
					</g>
				</g>
				<g>
					<g>
						<g>
							<g>
								<g>
									<path class="st4" d="M250.33,157.57l-149.82,21.06c-0.32,0.05-0.62-0.18-0.66-0.5c-0.05-0.32,0.18-0.62,0.5-0.66
										l149.82-21.06c0.32-0.05,0.62,0.18,0.66,0.5C250.87,157.23,250.65,157.52,250.33,157.57z"/>
								</g>
							</g>
						</g>
					</g>
				</g>
				<g>
					<g>
						<g>
							<g>
								<g>
									<path class="st4" d="M252.19,170.86l-149.82,21.06c-0.32,0.05-0.62-0.18-0.66-0.5s0.18-0.62,0.5-0.66l149.82-21.06
										c0.32-0.05,0.62,0.18,0.66,0.5C252.74,170.52,252.51,170.82,252.19,170.86z"/>
								</g>
							</g>
						</g>
					</g>
				</g>
				<g>
					<g>
						<g>
							<g>
								<g>
									<path class="st4" d="M253.95,183.39l-149.82,21.06c-0.32,0.05-0.62-0.18-0.66-0.5c-0.05-0.32,0.18-0.62,0.5-0.66
										l149.82-21.06c0.32-0.05,0.62,0.18,0.66,0.5C254.5,183.05,254.28,183.34,253.95,183.39z"/>
								</g>
							</g>
						</g>
					</g>
				</g>
			</g>
		</g>
		<path class="st2" d="M135.71,61.23L135.71,61.23c-0.13-0.91,0.51-1.76,1.42-1.89l45.3-6.37c0.91-0.13,1.76,0.51,1.89,1.42v0
			c0.13,0.91-0.51,1.76-1.42,1.89l-45.3,6.37C136.68,62.78,135.84,62.14,135.71,61.23z"/>
	</g>
	<g>
		<g>
			<g>
				<path class="st3" d="M381.64,156.36v132.18c0,4.14-3.35,7.48-7.48,7.48H152.19c-4.14,0-7.48-3.35-7.48-7.48V156.36
					c0-4.13,3.35-7.48,7.48-7.48h221.98C378.29,148.88,381.64,152.23,381.64,156.36z"/>
				<path class="st2" d="M152.19,296.41c-4.34,0-7.88-3.53-7.88-7.88V156.36c0-4.34,3.53-7.87,7.88-7.87h221.98
					c4.34,0,7.88,3.53,7.88,7.87v132.18c0,4.34-3.53,7.88-7.88,7.88H152.19z M152.19,149.27c-3.91,0-7.09,3.18-7.09,7.08v132.18
					c0,3.91,3.18,7.09,7.09,7.09h221.98c3.91,0,7.09-3.18,7.09-7.09V156.36c0-3.91-3.18-7.08-7.09-7.08H152.19z"/>
			</g>
		</g>
		<g>
			<rect x="155.98" y="184.95" class="st4" width="90.59" height="90.59"/>
			<path class="st2" d="M155.98,275.93c-0.22,0-0.39-0.18-0.39-0.39v-90.59c0-0.22,0.18-0.39,0.39-0.39h90.59
				c0.22,0,0.39,0.18,0.39,0.39v90.59c0,0.22-0.18,0.39-0.39,0.39H155.98z M157.35,185.34c-0.54,0-0.97,0.44-0.97,0.97v87.85
				c0,0.54,0.44,0.97,0.97,0.97h87.86c0.54,0,0.97-0.44,0.97-0.97v-87.85c0-0.54-0.44-0.97-0.97-0.97H157.35z"/>
		</g>
		<g>
			<g>
				<path class="st0" d="M381.64,156.36v16.32H144.7v-16.32c0-4.13,3.35-7.48,7.48-7.48h221.98
					C378.29,148.88,381.64,152.23,381.64,156.36z"/>
			</g>
			<path class="st2" d="M144.31,173.07v-16.71c0-4.34,3.53-7.87,7.88-7.87h221.98c4.34,0,7.88,3.53,7.88,7.87v16.71H144.31z
				 M152.19,149.27c-3.91,0-7.09,3.18-7.09,7.08v14.95c0,0.54,0.44,0.97,0.97,0.97h234.21c0.54,0,0.97-0.44,0.97-0.97v-14.95
				c0-3.91-3.18-7.08-7.09-7.08H152.19z"/>
		</g>
		<g>
			<path class="st2" d="M262.92,192.5h-1.72l-0.5-1.26h-2.49l-0.47,1.26h-1.69l2.7-6.43h1.51L262.92,192.5z M260.27,189.99
				l-0.8-2.21l-0.82,2.21H260.27z"/>
			<path class="st2" d="M268.1,187.97c0.09,0.39,0.14,0.83,0.14,1.3c0,0.47-0.05,0.91-0.14,1.31c-0.09,0.4-0.24,0.76-0.43,1.08
				c-0.19,0.32-0.45,0.57-0.78,0.75c-0.33,0.18-0.72,0.27-1.16,0.27c-0.58,0-1.07-0.16-1.46-0.48c-0.39-0.32-0.67-0.73-0.83-1.22
				c-0.16-0.49-0.24-1.06-0.24-1.7c0-0.47,0.05-0.9,0.14-1.3c0.09-0.39,0.24-0.75,0.43-1.06c0.19-0.31,0.46-0.56,0.79-0.74
				c0.33-0.18,0.72-0.27,1.16-0.27s0.83,0.09,1.16,0.27c0.33,0.18,0.59,0.43,0.78,0.74C267.86,187.22,268,187.57,268.1,187.97z
				 M266.68,189.27c0-0.24-0.01-0.46-0.04-0.68c-0.02-0.21-0.07-0.43-0.13-0.66c-0.06-0.22-0.16-0.4-0.3-0.54
				c-0.13-0.14-0.29-0.2-0.48-0.2c-0.19,0-0.35,0.07-0.49,0.2c-0.14,0.14-0.24,0.32-0.3,0.54c-0.06,0.22-0.11,0.44-0.14,0.66
				c-0.03,0.21-0.04,0.44-0.04,0.68c0,0.24,0.01,0.46,0.04,0.68c0.03,0.22,0.07,0.44,0.14,0.67c0.06,0.23,0.16,0.41,0.29,0.54
				c0.13,0.14,0.3,0.2,0.49,0.2c0.19,0,0.35-0.07,0.48-0.2c0.13-0.14,0.23-0.32,0.3-0.54c0.06-0.23,0.11-0.45,0.13-0.66
				C266.66,189.74,266.68,189.51,266.68,189.27z"/>
			<path class="st2" d="M273.96,187.97c0.09,0.39,0.14,0.83,0.14,1.3c0,0.47-0.05,0.91-0.14,1.31c-0.09,0.4-0.24,0.76-0.43,1.08
				c-0.19,0.32-0.45,0.57-0.78,0.75c-0.33,0.18-0.72,0.27-1.16,0.27c-0.58,0-1.07-0.16-1.46-0.48c-0.39-0.32-0.67-0.73-0.83-1.22
				c-0.16-0.49-0.24-1.06-0.24-1.7c0-0.47,0.05-0.9,0.14-1.3c0.09-0.39,0.24-0.75,0.43-1.06c0.19-0.31,0.46-0.56,0.79-0.74
				c0.33-0.18,0.72-0.27,1.16-0.27s0.83,0.09,1.16,0.27c0.33,0.18,0.59,0.43,0.78,0.74C273.72,187.22,273.86,187.57,273.96,187.97z
				 M272.54,189.27c0-0.24-0.01-0.46-0.04-0.68c-0.02-0.21-0.07-0.43-0.13-0.66c-0.06-0.22-0.16-0.4-0.29-0.54
				c-0.13-0.14-0.29-0.2-0.48-0.2c-0.19,0-0.35,0.07-0.49,0.2c-0.14,0.14-0.24,0.32-0.3,0.54c-0.06,0.22-0.11,0.44-0.14,0.66
				c-0.03,0.21-0.04,0.44-0.04,0.68c0,0.24,0.01,0.46,0.04,0.68c0.03,0.22,0.07,0.44,0.14,0.67c0.06,0.23,0.16,0.41,0.3,0.54
				c0.13,0.14,0.3,0.2,0.49,0.2c0.19,0,0.35-0.07,0.48-0.2c0.13-0.14,0.23-0.32,0.29-0.54c0.06-0.23,0.11-0.45,0.13-0.66
				C272.53,189.74,272.54,189.51,272.54,189.27z"/>
			<path class="st2" d="M279.82,187.97c0.09,0.39,0.14,0.83,0.14,1.3c0,0.47-0.05,0.91-0.14,1.31c-0.09,0.4-0.24,0.76-0.43,1.08
				c-0.19,0.32-0.45,0.57-0.78,0.75c-0.33,0.18-0.72,0.27-1.16,0.27c-0.58,0-1.07-0.16-1.46-0.48c-0.39-0.32-0.67-0.73-0.83-1.22
				c-0.16-0.49-0.24-1.06-0.24-1.7c0-0.47,0.05-0.9,0.14-1.3c0.09-0.39,0.24-0.75,0.43-1.06c0.19-0.31,0.46-0.56,0.79-0.74
				c0.33-0.18,0.72-0.27,1.16-0.27s0.83,0.09,1.16,0.27c0.33,0.18,0.59,0.43,0.78,0.74C279.59,187.22,279.73,187.57,279.82,187.97z
				 M278.4,189.27c0-0.24-0.01-0.46-0.04-0.68c-0.02-0.21-0.07-0.43-0.13-0.66c-0.06-0.22-0.16-0.4-0.3-0.54
				c-0.13-0.14-0.29-0.2-0.48-0.2c-0.19,0-0.35,0.07-0.49,0.2c-0.14,0.14-0.24,0.32-0.3,0.54c-0.06,0.22-0.11,0.44-0.14,0.66
				c-0.03,0.21-0.04,0.44-0.04,0.68c0,0.24,0.01,0.46,0.04,0.68c0.03,0.22,0.07,0.44,0.14,0.67c0.06,0.23,0.16,0.41,0.3,0.54
				c0.13,0.14,0.3,0.2,0.49,0.2c0.19,0,0.35-0.07,0.48-0.2c0.13-0.14,0.23-0.32,0.3-0.54c0.06-0.23,0.11-0.45,0.13-0.66
				C278.39,189.74,278.4,189.51,278.4,189.27z"/>
			<path class="st2" d="M287.95,187.97c0.09,0.39,0.14,0.83,0.14,1.3c0,0.47-0.05,0.91-0.14,1.31c-0.09,0.4-0.24,0.76-0.43,1.08
				c-0.19,0.32-0.45,0.57-0.78,0.75c-0.33,0.18-0.72,0.27-1.16,0.27c-0.58,0-1.07-0.16-1.46-0.48c-0.39-0.32-0.67-0.73-0.83-1.22
				c-0.16-0.49-0.24-1.06-0.24-1.7c0-0.47,0.05-0.9,0.14-1.3c0.09-0.39,0.24-0.75,0.43-1.06c0.19-0.31,0.46-0.56,0.79-0.74
				c0.33-0.18,0.72-0.27,1.16-0.27s0.83,0.09,1.16,0.27c0.33,0.18,0.59,0.43,0.78,0.74C287.72,187.22,287.86,187.57,287.95,187.97z
				 M286.53,189.27c0-0.24-0.01-0.46-0.04-0.68c-0.02-0.21-0.07-0.43-0.13-0.66c-0.06-0.22-0.16-0.4-0.3-0.54
				c-0.13-0.14-0.29-0.2-0.48-0.2c-0.19,0-0.35,0.07-0.49,0.2c-0.14,0.14-0.24,0.32-0.3,0.54c-0.06,0.22-0.11,0.44-0.14,0.66
				c-0.03,0.21-0.04,0.44-0.04,0.68c0,0.24,0.01,0.46,0.04,0.68c0.03,0.22,0.07,0.44,0.14,0.67c0.06,0.23,0.16,0.41,0.3,0.54
				c0.13,0.14,0.3,0.2,0.49,0.2c0.19,0,0.35-0.07,0.48-0.2c0.13-0.14,0.23-0.32,0.3-0.54c0.06-0.23,0.11-0.45,0.13-0.66
				C286.52,189.74,286.53,189.51,286.53,189.27z"/>
			<path class="st2" d="M293.82,187.97c0.09,0.39,0.14,0.83,0.14,1.3c0,0.47-0.05,0.91-0.14,1.31c-0.09,0.4-0.24,0.76-0.43,1.08
				c-0.19,0.32-0.45,0.57-0.78,0.75c-0.33,0.18-0.72,0.27-1.16,0.27c-0.58,0-1.07-0.16-1.46-0.48c-0.39-0.32-0.67-0.73-0.83-1.22
				c-0.16-0.49-0.24-1.06-0.24-1.7c0-0.47,0.05-0.9,0.14-1.3c0.09-0.39,0.24-0.75,0.43-1.06c0.19-0.31,0.46-0.56,0.79-0.74
				c0.33-0.18,0.72-0.27,1.16-0.27s0.83,0.09,1.16,0.27c0.33,0.18,0.59,0.43,0.78,0.74C293.58,187.22,293.72,187.57,293.82,187.97z
				 M292.4,189.27c0-0.24-0.01-0.46-0.04-0.68c-0.02-0.21-0.07-0.43-0.13-0.66c-0.06-0.22-0.16-0.4-0.3-0.54
				c-0.13-0.14-0.29-0.2-0.48-0.2c-0.19,0-0.35,0.07-0.49,0.2c-0.14,0.14-0.24,0.32-0.3,0.54c-0.06,0.22-0.11,0.44-0.14,0.66
				c-0.03,0.21-0.04,0.44-0.04,0.68c0,0.24,0.01,0.46,0.04,0.68c0.03,0.22,0.07,0.44,0.14,0.67c0.06,0.23,0.16,0.41,0.3,0.54
				c0.13,0.14,0.3,0.2,0.49,0.2c0.19,0,0.35-0.07,0.48-0.2c0.13-0.14,0.23-0.32,0.3-0.54c0.06-0.23,0.11-0.45,0.13-0.66
				C292.38,189.74,292.4,189.51,292.4,189.27z"/>
			<path class="st2" d="M299.68,187.97c0.09,0.39,0.14,0.83,0.14,1.3c0,0.47-0.05,0.91-0.14,1.31c-0.09,0.4-0.24,0.76-0.43,1.08
				c-0.19,0.32-0.45,0.57-0.78,0.75c-0.33,0.18-0.72,0.27-1.16,0.27c-0.58,0-1.07-0.16-1.46-0.48c-0.39-0.32-0.67-0.73-0.83-1.22
				c-0.16-0.49-0.24-1.06-0.24-1.7c0-0.47,0.05-0.9,0.14-1.3c0.09-0.39,0.24-0.75,0.43-1.06c0.19-0.31,0.46-0.56,0.79-0.74
				c0.33-0.18,0.72-0.27,1.16-0.27s0.83,0.09,1.16,0.27c0.33,0.18,0.59,0.43,0.78,0.74C299.44,187.22,299.58,187.57,299.68,187.97z
				 M298.26,189.27c0-0.24-0.01-0.46-0.04-0.68c-0.02-0.21-0.07-0.43-0.13-0.66c-0.06-0.22-0.16-0.4-0.3-0.54
				c-0.13-0.14-0.29-0.2-0.48-0.2c-0.19,0-0.35,0.07-0.49,0.2c-0.14,0.14-0.24,0.32-0.3,0.54c-0.06,0.22-0.11,0.44-0.14,0.66
				c-0.03,0.21-0.04,0.44-0.04,0.68c0,0.24,0.01,0.46,0.04,0.68c0.03,0.22,0.07,0.44,0.14,0.67c0.06,0.23,0.16,0.41,0.29,0.54
				c0.13,0.14,0.3,0.2,0.49,0.2c0.19,0,0.35-0.07,0.48-0.2c0.13-0.14,0.23-0.32,0.3-0.54c0.06-0.23,0.11-0.45,0.13-0.66
				C298.25,189.74,298.26,189.51,298.26,189.27z"/>
			<path class="st2" d="M307.81,187.97c0.09,0.39,0.14,0.83,0.14,1.3c0,0.47-0.05,0.91-0.14,1.31c-0.09,0.4-0.24,0.76-0.43,1.08
				c-0.19,0.32-0.45,0.57-0.78,0.75c-0.33,0.18-0.72,0.27-1.16,0.27c-0.58,0-1.07-0.16-1.46-0.48c-0.39-0.32-0.67-0.73-0.83-1.22
				c-0.16-0.49-0.24-1.06-0.24-1.7c0-0.47,0.05-0.9,0.14-1.3c0.09-0.39,0.24-0.75,0.43-1.06c0.19-0.31,0.46-0.56,0.79-0.74
				c0.33-0.18,0.72-0.27,1.16-0.27s0.83,0.09,1.16,0.27c0.33,0.18,0.59,0.43,0.78,0.74C307.57,187.22,307.72,187.57,307.81,187.97z
				 M306.39,189.27c0-0.24-0.01-0.46-0.04-0.68c-0.02-0.21-0.07-0.43-0.13-0.66c-0.06-0.22-0.16-0.4-0.3-0.54
				c-0.13-0.14-0.29-0.2-0.48-0.2c-0.19,0-0.35,0.07-0.49,0.2c-0.14,0.14-0.24,0.32-0.3,0.54c-0.06,0.22-0.11,0.44-0.14,0.66
				c-0.03,0.21-0.04,0.44-0.04,0.68c0,0.24,0.01,0.46,0.04,0.68c0.03,0.22,0.07,0.44,0.14,0.67c0.06,0.23,0.16,0.41,0.29,0.54
				c0.13,0.14,0.3,0.2,0.49,0.2c0.19,0,0.35-0.07,0.48-0.2c0.13-0.14,0.23-0.32,0.3-0.54c0.06-0.23,0.11-0.45,0.13-0.66
				C306.38,189.74,306.39,189.51,306.39,189.27z"/>
			<path class="st2" d="M313.67,187.97c0.09,0.39,0.14,0.83,0.14,1.3c0,0.47-0.05,0.91-0.14,1.31c-0.09,0.4-0.24,0.76-0.43,1.08
				c-0.19,0.32-0.45,0.57-0.78,0.75c-0.33,0.18-0.72,0.27-1.16,0.27c-0.58,0-1.07-0.16-1.46-0.48c-0.39-0.32-0.67-0.73-0.83-1.22
				c-0.16-0.49-0.24-1.06-0.24-1.7c0-0.47,0.05-0.9,0.14-1.3c0.09-0.39,0.24-0.75,0.43-1.06c0.19-0.31,0.46-0.56,0.79-0.74
				c0.33-0.18,0.72-0.27,1.16-0.27s0.83,0.09,1.16,0.27c0.33,0.18,0.59,0.43,0.78,0.74C313.44,187.22,313.58,187.57,313.67,187.97z
				 M312.25,189.27c0-0.24-0.01-0.46-0.04-0.68c-0.02-0.21-0.07-0.43-0.13-0.66c-0.06-0.22-0.16-0.4-0.3-0.54
				c-0.13-0.14-0.29-0.2-0.48-0.2c-0.19,0-0.35,0.07-0.49,0.2c-0.14,0.14-0.24,0.32-0.3,0.54c-0.06,0.22-0.11,0.44-0.14,0.66
				c-0.03,0.21-0.04,0.44-0.04,0.68c0,0.24,0.01,0.46,0.04,0.68c0.03,0.22,0.07,0.44,0.14,0.67c0.06,0.23,0.16,0.41,0.3,0.54
				c0.13,0.14,0.3,0.2,0.49,0.2c0.19,0,0.35-0.07,0.48-0.2c0.13-0.14,0.23-0.32,0.3-0.54c0.06-0.23,0.11-0.45,0.13-0.66
				C312.24,189.74,312.25,189.51,312.25,189.27z"/>
			<path class="st2" d="M319.54,187.97c0.09,0.39,0.14,0.83,0.14,1.3c0,0.47-0.05,0.91-0.14,1.31c-0.09,0.4-0.24,0.76-0.43,1.08
				c-0.19,0.32-0.45,0.57-0.78,0.75c-0.33,0.18-0.72,0.27-1.16,0.27c-0.58,0-1.07-0.16-1.46-0.48c-0.39-0.32-0.67-0.73-0.83-1.22
				c-0.16-0.49-0.24-1.06-0.24-1.7c0-0.47,0.05-0.9,0.14-1.3c0.09-0.39,0.24-0.75,0.43-1.06c0.19-0.31,0.46-0.56,0.79-0.74
				c0.33-0.18,0.72-0.27,1.16-0.27s0.83,0.09,1.16,0.27c0.33,0.18,0.59,0.43,0.78,0.74C319.3,187.22,319.44,187.57,319.54,187.97z
				 M318.12,189.27c0-0.24-0.01-0.46-0.04-0.68c-0.02-0.21-0.07-0.43-0.13-0.66c-0.06-0.22-0.16-0.4-0.3-0.54
				c-0.13-0.14-0.29-0.2-0.48-0.2c-0.19,0-0.35,0.07-0.49,0.2c-0.14,0.14-0.24,0.32-0.3,0.54c-0.06,0.22-0.11,0.44-0.14,0.66
				c-0.03,0.21-0.04,0.44-0.04,0.68c0,0.24,0.01,0.46,0.04,0.68c0.03,0.22,0.07,0.44,0.14,0.67c0.06,0.23,0.16,0.41,0.3,0.54
				c0.13,0.14,0.3,0.2,0.49,0.2c0.19,0,0.35-0.07,0.48-0.2c0.13-0.14,0.23-0.32,0.3-0.54c0.06-0.23,0.11-0.45,0.13-0.66
				C318.1,189.74,318.12,189.51,318.12,189.27z"/>
		</g>
		<g>
			<path class="st2" d="M263.98,273.14h-2.24l-0.65-1.64h-3.23l-0.61,1.64h-2.2l3.51-8.36h1.96L263.98,273.14z M260.53,269.89
				l-1.04-2.87l-1.06,2.87H260.53z"/>
			<path class="st2" d="M270.71,267.25c0.12,0.51,0.18,1.07,0.18,1.69s-0.06,1.18-0.18,1.7c-0.12,0.52-0.31,0.99-0.55,1.4
				c-0.25,0.41-0.59,0.74-1.02,0.97c-0.43,0.24-0.93,0.35-1.5,0.35c-0.76,0-1.39-0.21-1.89-0.63c-0.51-0.42-0.87-0.95-1.07-1.59
				c-0.21-0.64-0.31-1.38-0.31-2.21c0-0.61,0.06-1.18,0.18-1.69c0.12-0.51,0.31-0.97,0.56-1.38c0.25-0.41,0.59-0.73,1.03-0.96
				c0.43-0.23,0.94-0.35,1.51-0.35c0.57,0,1.08,0.12,1.5,0.35c0.43,0.23,0.77,0.55,1.02,0.96
				C270.4,266.28,270.59,266.74,270.71,267.25z M268.86,268.94c0-0.31-0.02-0.6-0.05-0.88c-0.03-0.28-0.09-0.56-0.17-0.86
				c-0.08-0.29-0.21-0.53-0.38-0.7s-0.38-0.27-0.63-0.27c-0.24,0-0.45,0.09-0.63,0.27c-0.18,0.18-0.31,0.41-0.39,0.7
				c-0.08,0.29-0.14,0.58-0.18,0.86c-0.04,0.28-0.05,0.57-0.05,0.88c0,0.31,0.02,0.6,0.05,0.89c0.04,0.28,0.09,0.57,0.18,0.87
				c0.08,0.3,0.21,0.53,0.38,0.71c0.17,0.18,0.39,0.27,0.64,0.27c0.24,0,0.45-0.09,0.63-0.27c0.17-0.18,0.3-0.41,0.38-0.71
				c0.08-0.3,0.14-0.58,0.17-0.86C268.85,269.55,268.86,269.26,268.86,268.94z"/>
			<path class="st2" d="M276.76,273.14h-1.98v-6.14l-1.56,1.2l-1.03-1.4l2.75-2.02h1.82V273.14z"/>
			<path class="st2" d="M285.91,273.14h-6.04v-1.65l3.26-2.95c0.46-0.43,0.68-0.86,0.68-1.29c0-0.3-0.09-0.54-0.28-0.73
				c-0.19-0.18-0.44-0.28-0.76-0.28c-0.32,0-0.59,0.12-0.8,0.35c-0.21,0.23-0.34,0.54-0.38,0.91l-1.9-0.26
				c0.09-0.83,0.44-1.48,1.04-1.97c0.6-0.48,1.31-0.73,2.15-0.73s1.55,0.22,2.14,0.66c0.59,0.44,0.89,1.07,0.89,1.9
				c0,0.54-0.12,0.99-0.37,1.37c-0.25,0.38-0.61,0.78-1.09,1.2l-1.94,1.72h3.41V273.14z"/>
			<path class="st2" d="M293.57,270.71c0,0.58-0.16,1.08-0.48,1.49s-0.71,0.71-1.17,0.89c-0.46,0.18-0.96,0.27-1.5,0.27
				c-0.81,0-1.52-0.19-2.12-0.55c-0.61-0.37-1.02-0.92-1.23-1.66l1.84-0.48c0.08,0.29,0.24,0.54,0.5,0.74
				c0.25,0.2,0.56,0.3,0.92,0.3c0.32,0,0.61-0.09,0.85-0.26c0.24-0.17,0.37-0.44,0.37-0.8c0-0.39-0.16-0.67-0.49-0.84
				c-0.33-0.17-0.73-0.25-1.21-0.25h-0.53v-1.45h0.58c0.98,0,1.46-0.33,1.46-0.99c0-0.28-0.1-0.51-0.31-0.67
				c-0.2-0.17-0.45-0.25-0.74-0.25c-0.28,0-0.53,0.08-0.74,0.25c-0.21,0.17-0.34,0.4-0.41,0.68l-1.84-0.42
				c0.2-0.68,0.58-1.2,1.16-1.57c0.57-0.37,1.23-0.55,1.96-0.55c0.8,0,1.49,0.2,2.07,0.61c0.58,0.41,0.87,0.99,0.87,1.75
				c0,0.45-0.13,0.84-0.39,1.16c-0.26,0.33-0.6,0.55-1.02,0.66v0.04c0.47,0.11,0.86,0.34,1.16,0.7
				C293.42,269.84,293.57,270.25,293.57,270.71z"/>
			<path class="st2" d="M301.54,271.51h-1.15v1.63h-1.85v-1.63h-3.93v-1.66l3.4-5.06h2.37v5.12h1.16V271.51z M298.55,269.91v-3.09
				h-0.04l-1.98,3.09H298.55z"/>
			<path class="st2" d="M308.81,270.38c0,0.96-0.31,1.7-0.94,2.21c-0.63,0.52-1.39,0.77-2.28,0.77c-0.77,0-1.44-0.19-2.02-0.57
				c-0.57-0.38-0.96-0.9-1.16-1.55l1.81-0.55c0.09,0.3,0.25,0.54,0.5,0.73c0.25,0.18,0.53,0.28,0.84,0.28
				c0.35,0,0.65-0.11,0.89-0.32c0.24-0.21,0.36-0.51,0.36-0.9c0-0.46-0.17-0.78-0.5-0.98c-0.33-0.2-0.74-0.3-1.22-0.3
				c-0.68,0-1.37,0.12-2.04,0.37l0.2-4.78h5.12v1.7h-3.36l-0.07,1.32c0.23-0.06,0.51-0.08,0.84-0.08c0.88,0,1.61,0.23,2.17,0.69
				C308.52,268.88,308.81,269.53,308.81,270.38z"/>
			<path class="st2" d="M316.66,270.33c0,0.92-0.31,1.66-0.94,2.21c-0.63,0.55-1.41,0.83-2.35,0.83c-0.94,0-1.72-0.27-2.35-0.82
				c-0.63-0.55-0.94-1.27-0.94-2.17c0-0.79,0.31-1.66,0.93-2.58l2.02-3.01h2.4l-2.05,2.86l-0.04,0.06c0.16-0.06,0.36-0.09,0.59-0.09
				c0.76,0,1.4,0.26,1.94,0.77C316.39,268.89,316.66,269.54,316.66,270.33z M314.67,270.38c0-0.38-0.12-0.69-0.36-0.94
				c-0.24-0.25-0.55-0.37-0.94-0.37s-0.7,0.12-0.95,0.37c-0.25,0.25-0.37,0.56-0.37,0.95c0,0.37,0.12,0.68,0.37,0.94
				c0.24,0.26,0.56,0.38,0.94,0.38c0.39,0,0.7-0.12,0.94-0.37C314.55,271.09,314.67,270.77,314.67,270.38z"/>
			<path class="st2" d="M324,266.37l-3.2,6.78h-2.3l3.39-6.66h-3.95v-1.7H324V266.37z"/>
			<path class="st2" d="M331.76,270.76c0,0.83-0.3,1.48-0.91,1.93c-0.61,0.45-1.35,0.68-2.23,0.68c-0.89,0-1.63-0.22-2.24-0.67
				c-0.6-0.45-0.9-1.09-0.9-1.92c0-0.49,0.14-0.91,0.42-1.26c0.28-0.35,0.64-0.6,1.07-0.73v-0.02c-0.38-0.14-0.68-0.37-0.92-0.68
				c-0.24-0.31-0.35-0.69-0.35-1.13c0-0.74,0.28-1.32,0.84-1.75c0.56-0.42,1.25-0.64,2.07-0.64c0.82,0,1.51,0.21,2.07,0.62
				c0.56,0.41,0.84,0.99,0.84,1.73c0,0.45-0.12,0.83-0.35,1.16c-0.23,0.32-0.54,0.55-0.93,0.67v0.04c0.43,0.12,0.79,0.36,1.07,0.72
				C331.62,269.86,331.76,270.28,331.76,270.76z M329.78,270.69c0-0.32-0.11-0.59-0.33-0.81c-0.22-0.22-0.5-0.32-0.83-0.32
				c-0.34,0-0.62,0.11-0.84,0.32c-0.22,0.22-0.33,0.49-0.33,0.81c0,0.33,0.11,0.6,0.32,0.8c0.22,0.2,0.5,0.31,0.84,0.31
				c0.35,0,0.63-0.1,0.84-0.3C329.68,271.3,329.78,271.03,329.78,270.69z M329.34,267.75c0.19-0.2,0.29-0.43,0.29-0.7
				c0-0.27-0.1-0.49-0.3-0.68c-0.2-0.18-0.43-0.28-0.71-0.28c-0.29,0-0.53,0.09-0.71,0.27c-0.19,0.18-0.28,0.41-0.28,0.68
				c0,0.28,0.09,0.51,0.27,0.7c0.18,0.19,0.42,0.29,0.72,0.29C328.91,268.04,329.15,267.95,329.34,267.75z"/>
			<path class="st2" d="M339.54,267.55c0,0.79-0.31,1.66-0.93,2.58l-2.02,3.01h-2.4l2.08-2.88l0.02-0.04
				c-0.17,0.06-0.37,0.09-0.59,0.09c-0.76,0-1.4-0.26-1.94-0.77c-0.54-0.51-0.81-1.16-0.81-1.96c0-0.92,0.31-1.66,0.94-2.21
				c0.63-0.55,1.41-0.83,2.35-0.83s1.72,0.27,2.35,0.82C339.23,265.93,339.54,266.65,339.54,267.55z M337.56,267.52
				c0-0.37-0.12-0.68-0.36-0.94c-0.24-0.26-0.55-0.39-0.94-0.39c-0.39,0-0.71,0.13-0.96,0.38c-0.24,0.25-0.37,0.57-0.37,0.97
				c0,0.38,0.12,0.69,0.36,0.94c0.24,0.25,0.55,0.37,0.94,0.37c0.39,0,0.71-0.12,0.96-0.37
				C337.44,268.24,337.56,267.92,337.56,267.52z"/>
		</g>
		<g>
			<rect x="348.88" y="179.15" class="st2" width="26.21" height="5.06"/>
		</g>
		<g>
			<rect x="348.88" y="186.27" class="st2" width="26.21" height="2.3"/>
		</g>
		<g>
			<rect x="348.88" y="193.48" class="st2" width="26.21" height="2.3"/>
		</g>
		<g>
			<rect x="348.88" y="190.38" class="st2" width="26.21" height="1.44"/>
		</g>
		<g>
			<rect x="348.88" y="197.39" class="st2" width="26.21" height="5.06"/>
		</g>
		<g>
			<rect x="348.88" y="204.51" class="st2" width="26.21" height="2.3"/>
		</g>
		<g>
			<rect x="348.88" y="211.72" class="st2" width="26.21" height="2.3"/>
		</g>
		<g>
			<rect x="348.88" y="208.62" class="st2" width="26.21" height="1.44"/>
		</g>
		<g>
			<rect x="348.88" y="215.93" class="st2" width="26.21" height="5.06"/>
		</g>
		<g>
			<rect x="348.88" y="223.06" class="st2" width="26.21" height="2.3"/>
		</g>
		<g>
			<rect x="348.88" y="230.26" class="st2" width="26.21" height="2.3"/>
		</g>
		<g>
			<rect x="348.88" y="227.17" class="st2" width="26.21" height="1.44"/>
		</g>
		<g>
			<path class="st5" d="M246.57,271.75v3.79h-90.59v-3.43c3.18-12.62,17.15-14.22,29.25-15.02l17.49,4.73l13.72-4.52
				C236.6,256.87,243.91,265.53,246.57,271.75z"/>
			<path class="st2" d="M155.59,275.93v-3.87l0.01-0.05c3.42-13.59,19.81-14.67,29.61-15.32l0.07,0l17.16,4.64
				c0.08,0.02,0.17,0.03,0.25,0.03c0.1,0,0.21-0.02,0.3-0.05l13.39-4.41l0.06,0c0.49-0.01,0.98-0.02,1.46-0.02
				c18.8,0,26.17,8,29.03,14.71l0.03,0.07v4.26H155.59z M185.03,257.5c-12.78,0.85-25.52,2.68-28.62,14.54
				c-0.02,0.08-0.03,0.16-0.03,0.25v1.89c0,0.54,0.44,0.97,0.97,0.97h87.86c0.54,0,0.97-0.44,0.97-0.97v-2.14
				c0-0.14-0.03-0.27-0.08-0.39c-2.83-6.37-10.02-13.96-28.21-13.96c-0.4,0-0.81,0-1.22,0.01c-0.1,0-0.19,0.02-0.29,0.05
				l-13.64,4.49l-17.39-4.7c-0.08-0.02-0.17-0.03-0.25-0.03C185.07,257.49,185.05,257.5,185.03,257.5z"/>
		</g>
		<g>
			<rect x="348.88" y="234.17" class="st2" width="26.21" height="5.06"/>
		</g>
		<g>
			<rect x="348.88" y="241.3" class="st2" width="26.21" height="2.3"/>
		</g>
		<g>
			<rect x="348.88" y="248.5" class="st2" width="26.21" height="2.3"/>
		</g>
		<g>
			<rect x="348.88" y="245.41" class="st2" width="26.21" height="1.44"/>
		</g>
		<g>
			<rect x="348.88" y="252.72" class="st2" width="26.21" height="5.06"/>
		</g>
		<g>
			<rect x="348.88" y="259.84" class="st2" width="26.21" height="2.3"/>
		</g>
		<g>
			<rect x="348.88" y="267.05" class="st2" width="26.21" height="2.3"/>
		</g>
		<g>
			<rect x="348.88" y="263.95" class="st2" width="26.21" height="1.44"/>
		</g>
		<g>
			<rect x="348.88" y="270.96" class="st2" width="26.21" height="5.06"/>
		</g>
		<g>
			<rect x="348.88" y="278.08" class="st2" width="26.21" height="2.3"/>
		</g>
		<g>
			<rect x="348.88" y="285.29" class="st2" width="26.21" height="2.3"/>
		</g>
		<g>
			<rect x="348.88" y="282.19" class="st2" width="26.21" height="1.44"/>
		</g>
		<g>
			<path class="st2" d="M191.78,248.06c-8.4-3.45-12.68-7.92-14.78-13.23c-2.09-5.31-1.77-23.3-1.77-23.3l52.32-0.98
				c0,0,2.4,14.18-0.6,18.49C223.95,233.37,191.78,248.06,191.78,248.06z"/>
		</g>
		<g>
			<g>
				<g>
					<g>
						<path class="st6" d="M221.04,228c0,0,4.02-5.24,8.06-4.26c1.29,0.31,2.33,1.39,3.01,2.78c1.42,2.91,1.26,7.19-1.42,8.59
							c-3.96,2.08-9.32-0.64-9.32-0.64L221.04,228z"/>
					</g>
					<path class="st2" d="M227.23,236.29c-3.11,0-5.92-1.41-6.03-1.47c-0.13-0.06-0.21-0.19-0.22-0.33l-0.33-6.48
						c0-0.09,0.02-0.19,0.08-0.26c0.04-0.05,0.95-1.23,2.35-2.37c1.21-0.99,3.05-2.16,4.99-2.16c0.39,0,0.77,0.05,1.14,0.14
						c1.32,0.31,2.48,1.38,3.27,2.99c1.92,3.94,0.72,7.9-1.59,9.12C229.82,236.02,228.6,236.29,227.23,236.29z M228.08,224.02
						c-2.96,0-5.84,3.17-6.38,3.8c-0.16,0.19-0.25,0.43-0.23,0.68l0.26,5.11c0.02,0.38,0.26,0.71,0.61,0.85
						c0.97,0.39,2.89,1.04,4.9,1.04c1.24,0,2.35-0.25,3.28-0.74c2.43-1.28,2.61-5.28,1.25-8.07c-0.67-1.38-1.67-2.31-2.74-2.57
						C228.71,224.05,228.4,224.02,228.08,224.02z"/>
				</g>
			</g>
			<g>
				<path class="st6" d="M225.46,220.58c-0.04-0.3-0.08-0.6-0.11-0.9c-0.04-0.34-0.09-0.67-0.13-0.99
					c-2.69-16.4-21.55-16.49-21.55-16.49c-17.99,2.81-17.72,20.41-18.68,25.69c0.04,0.26,0.09,0.51,0.13,0.77
					c-0.78-0.52-1.8-1.39-2.85-2.81c-1.44-0.57-2.96-0.83-4.43-0.26c-2.64,1.01-3.75,4.97-3.12,8.27c0.39,2.07,1.47,3.89,3.27,4.57
					c0.54,0.2,1.09,0.33,1.64,0.4c1.33,0.17,2.66,0,3.87-0.32c0.78-0.2,1.5-0.47,2.14-0.74c0.4-0.17,0.77-0.35,1.09-0.51
					c0.07,0.13,0.14,0.27,0.16,0.42c0.57,3.14,2.35,7.3,5.42,10.2c0,0-0.18,8.01-0.19,8.12c-0.04,0.41-6.9,1.07-6.9,1.07
					c0.85,2.3,7.71,16.67,21.74,14.55c13.17-1.99,10.18-14.16,10.18-14.16l-6.28-0.32c0,0,0.13-5.84,0.62-5.88
					c0,0,3.12-0.23,6.64-1.75c0.3-0.13,0.61-0.27,0.91-0.42c4.51-2.2,9.29-6.6,8.88-15.3c0-0.02,0-0.05-0.01-0.07
					C227.78,231.56,225.75,222.9,225.46,220.58z"/>
				<path class="st2" d="M204.19,272.24c-11.29,0-17.78-10.84-19.33-15.02c-0.04-0.11-0.03-0.24,0.04-0.35
					c0.06-0.1,0.18-0.17,0.3-0.18c2.25-0.22,4.62-0.51,5.77-0.72c0.45-0.08,0.79-0.47,0.8-0.93c0.03-1.42,0.1-4.28,0.15-6.56
					c0.01-0.26-0.1-0.52-0.28-0.7c-3.16-3.22-4.45-7.25-4.86-8.84c-0.07-0.27-0.25-0.5-0.5-0.62c-0.13-0.07-0.29-0.1-0.44-0.1
					c-0.13,0-0.25,0.02-0.36,0.07c-0.63,0.25-1.25,0.46-1.86,0.62c-1,0.26-1.98,0.4-2.9,0.4c-0.39,0-0.77-0.02-1.13-0.07
					c-0.6-0.08-1.18-0.22-1.72-0.42c-1.78-0.67-3.06-2.44-3.52-4.86c-0.83-4.33,1.06-7.84,3.36-8.72c0.59-0.23,1.22-0.35,1.87-0.35
					c0.87,0,1.82,0.2,2.85,0.61c0.07,0.03,0.13,0.07,0.17,0.13c0.19,0.25,0.39,0.5,0.59,0.74c0.18,0.22,0.45,0.34,0.74,0.34
					c0.09,0,0.19-0.01,0.28-0.04c0.37-0.11,0.64-0.43,0.69-0.81l0.05-0.38c0.83-6.86,2.54-21.15,18.69-23.66c0.02,0,0.04,0,0.07,0
					c0.19,0,19.23,0.35,21.93,16.82l0.02,0.17c0.04,0.27,0.08,0.55,0.11,0.84l0.11,0.9c0.12,1,0.58,3.22,1.07,5.56
					c0.65,3.13,1.31,6.35,1.39,7.6l0.01,0.09c0.43,9.06-4.71,13.52-9.1,15.67c-0.3,0.15-0.61,0.29-0.93,0.43
					c-2.48,1.07-4.77,1.51-5.91,1.68c-0.43,0.06-0.77,0.41-0.82,0.83c-0.1,0.74-0.19,2.02-0.25,3.42c-0.02,0.53,0.39,0.98,0.92,1.01
					l4.94,0.25c0.17,0.01,0.32,0.13,0.36,0.3c0.05,0.22,1.29,5.4-1.56,9.66c-1.8,2.68-4.8,4.36-8.94,4.99
					C206.07,272.17,205.12,272.24,204.19,272.24z M186.73,236.88c0.14,0,0.28,0.08,0.35,0.2c0.07,0.14,0.17,0.32,0.21,0.54
					c0.53,2.91,2.2,7.06,5.3,9.99c0.08,0.08,0.13,0.18,0.12,0.29c-0.12,5.35-0.18,8.02-0.19,8.15c-0.04,0.47-0.68,0.64-3.81,1.04
					c-0.53,0.07-1.07,0.13-1.56,0.18c-0.32,0.04-0.6,0.22-0.75,0.51c-0.15,0.28-0.15,0.62-0.01,0.9
					c1.96,3.84,7.62,12.77,17.79,12.77c0.89,0,1.8-0.07,2.72-0.21c3.91-0.59,6.74-2.15,8.4-4.65c1.9-2.85,1.84-6.19,1.63-7.93
					c-0.06-0.47-0.44-0.83-0.92-0.86l-5.18-0.26c-0.21-0.01-0.38-0.19-0.37-0.4c0.14-6.19,0.61-6.23,0.98-6.26
					c0.13-0.01,3.16-0.27,6.52-1.72c0.31-0.13,0.61-0.27,0.9-0.41c6.07-2.97,8.99-7.99,8.66-14.93c-0.08-1.25-0.77-4.57-1.37-7.51
					l-0.01-0.05c-0.49-2.37-0.95-4.6-1.08-5.63l-0.11-0.91c-0.03-0.23-0.06-0.46-0.09-0.69l-0.04-0.28
					c-1.05-6.38-4.82-11.17-10.91-13.86c-4.68-2.07-9.26-2.27-10.13-2.29c0,0,0,0-0.01,0c-0.07,0-0.12,0-0.17,0.01
					c-15.44,2.48-17.05,15.8-17.91,22.96c-0.1,0.84-0.19,1.57-0.29,2.17c-0.02,0.11-0.02,0.21,0,0.32l0.09,0.55
					c0.03,0.15-0.04,0.31-0.18,0.39c-0.06,0.04-0.14,0.06-0.21,0.06c-0.08,0-0.15-0.02-0.22-0.07c-0.96-0.64-1.88-1.52-2.71-2.59
					c-0.11-0.15-0.27-0.26-0.45-0.32c-0.79-0.28-1.5-0.41-2.16-0.41c-0.57,0-1.09,0.1-1.6,0.3c-2.21,0.84-3.52,4.43-2.87,7.83
					c0.41,2.14,1.51,3.7,3.02,4.27c0.49,0.18,1.01,0.31,1.55,0.38c0.33,0.04,0.68,0.07,1.04,0.07c0.84,0,1.75-0.12,2.69-0.37
					c0.68-0.18,1.38-0.42,2.08-0.72c0.35-0.15,0.71-0.32,1.07-0.5C186.61,236.9,186.67,236.88,186.73,236.88z"/>
			</g>
			<g>
				<g>
					<path class="st7" d="M196.45,231.34c-1.24-0.18-2.69-0.42-3.93-0.18c-1.5,0.28-2.79,1.63-2.29,3.24
						c0.87,2.77,5.11,3.39,7.55,3.3c0.84-0.03,1.75-0.16,2.37-0.74c0.8-0.75,1.02-2.21,0.62-3.21
						C200.16,232.21,198.25,231.61,196.45,231.34z"/>
				</g>
				<g>
					<path class="st7" d="M220.47,230.23c1.25-0.07,2.72-0.17,3.93,0.18c1.47,0.42,2.63,1.88,1.98,3.43
						c-1.12,2.68-5.4,2.91-7.83,2.6c-0.84-0.11-1.73-0.32-2.29-0.95c-0.73-0.82-0.82-2.3-0.33-3.25
						C216.69,230.76,218.65,230.33,220.47,230.23z"/>
				</g>
				<g>
					<path class="st3" d="M194.55,229.74c1.47,0.41,2.97,0.62,4.47,0.65c1.18,0.02,3.12,0.27,3.85-1.06
						c1.25-2.29-1.66-4.01-3.11-4.41c-1.98-0.54-5.02-1-6.82,0.22c-0.72,0.49-1.24,1.5-1.02,2.49c0.27,1.24,1.41,1.74,2.33,2.01
						C194.35,229.68,194.45,229.71,194.55,229.74z"/>
					<path class="st3" d="M222.28,228.21c-1.42,0.55-2.9,0.92-4.38,1.1c-1.17,0.14-3.08,0.59-3.93-0.67
						c-1.47-2.16,1.25-4.16,2.65-4.7c1.92-0.74,4.9-1.5,6.8-0.47c0.77,0.41,1.39,1.37,1.27,2.38c-0.15,1.26-1.22,1.88-2.11,2.24
						C222.48,228.13,222.38,228.17,222.28,228.21z"/>
				</g>
				<path class="st2" d="M209.44,239.34c-1.55,0-2.9-0.34-4.01-1c-0.15-0.09-0.32-0.14-0.5-0.14c-0.33,0-0.64,0.17-0.82,0.45
					l-0.08,0.13c-0.07,0.11-0.2,0.18-0.33,0.18c-0.07,0-0.15-0.02-0.21-0.06c-0.09-0.06-0.15-0.14-0.17-0.25
					c-0.02-0.1,0-0.21,0.05-0.3l1.78-2.78c0.07-0.11,0.2-0.18,0.33-0.18c0.07,0,0.15,0.02,0.21,0.06c0.09,0.06,0.15,0.14,0.17,0.25
					c0.02,0.1,0,0.21-0.05,0.3l-0.22,0.35c-0.14,0.22-0.19,0.5-0.12,0.76c0.06,0.26,0.23,0.48,0.46,0.61
					c0.97,0.55,2.15,0.83,3.51,0.83c2.27,0,4.29-0.78,4.31-0.79c0.05-0.02,0.1-0.03,0.14-0.03c0.16,0,0.31,0.1,0.37,0.25
					c0.08,0.2-0.02,0.43-0.22,0.51C213.95,238.51,211.87,239.34,209.44,239.34z"/>
				<path class="st2" d="M213.33,218.89c-0.54,0-0.85-0.17-0.94-0.25c0.07-0.12,0.48-0.46,1.22-0.57c0.13-0.02,0.26-0.03,0.39-0.03
					c0.54,0,0.85,0.17,0.94,0.25c-0.07,0.12-0.48,0.46-1.22,0.57C213.59,218.88,213.46,218.89,213.33,218.89z"/>
				<path class="st2" d="M198.69,221.02c-0.54,0-0.85-0.17-0.94-0.25c0.07-0.12,0.48-0.46,1.22-0.57c0.13-0.02,0.27-0.03,0.39-0.03
					c0.54,0,0.85,0.17,0.94,0.25c-0.07,0.12-0.48,0.46-1.22,0.57C198.95,221.01,198.82,221.02,198.69,221.02z"/>
				<path class="st2" d="M199.91,230.81c-0.16,0-0.33-0.01-0.48-0.01c-0.16-0.01-0.29-0.01-0.42-0.01
					c-1.54-0.03-3.07-0.25-4.57-0.67l-0.32-0.09c-1.5-0.44-2.35-1.2-2.59-2.3c-0.24-1.07,0.25-2.27,1.18-2.91
					c0.82-0.56,1.93-0.84,3.31-0.84c1.44,0,2.88,0.31,3.83,0.56c1.07,0.29,2.88,1.24,3.5,2.68c0.32,0.76,0.28,1.53-0.14,2.3
					c-0.63,1.16-2.01,1.3-3,1.3L199.91,230.81z M195.82,224.77c-1.12,0.03-2.02,0.26-2.66,0.7c-0.57,0.39-1.05,1.23-0.86,2.08
					c0.18,0.81,0.83,1.36,2.05,1.72l0.29,0.08c1.44,0.4,2.91,0.61,4.38,0.64c0.14,0,0.28,0.01,0.43,0.01
					c0.24,0.01,0.49,0.02,0.74,0.02c0.86,0,1.89-0.1,2.32-0.89c0.3-0.55,0.34-1.08,0.11-1.61c-0.49-1.13-2.01-1.9-2.74-2.15
					c-0.1-0.03-0.21-0.05-0.31-0.05c-0.24,0-0.48,0.09-0.66,0.25c-0.26,0.24-0.37,0.6-0.29,0.94c0.02,0.1,0.03,0.2,0.03,0.29
					c-0.02,0.58-0.48,1.03-1.06,1.03l-0.04,0c-0.28-0.01-0.54-0.13-0.74-0.33c-0.2-0.21-0.3-0.48-0.29-0.76
					c0.01-0.18,0.06-0.35,0.15-0.51c0.18-0.3,0.18-0.68,0-0.99c-0.17-0.3-0.49-0.48-0.84-0.48
					C195.84,224.77,195.82,224.77,195.82,224.77z"/>
				<path class="st2" d="M192.09,235.07c-0.07,0-0.14-0.02-0.21-0.06c-0.09-0.06-0.15-0.14-0.18-0.25c-0.02-0.1-0.01-0.21,0.05-0.3
					l1.34-2.15c0.07-0.12,0.2-0.19,0.34-0.19c0.07,0,0.14,0.02,0.21,0.06c0.09,0.06,0.15,0.14,0.18,0.25
					c0.02,0.1,0.01,0.21-0.05,0.3l-1.34,2.16C192.36,235,192.23,235.07,192.09,235.07z"/>
				<path class="st2" d="M195.77,235.44c-0.02,0-0.05,0-0.07-0.01c-0.1-0.02-0.19-0.08-0.25-0.17c-0.06-0.09-0.08-0.19-0.06-0.3
					l0.34-1.78c0.04-0.19,0.2-0.32,0.38-0.32c0.03,0,0.05,0,0.08,0.01c0.21,0.04,0.35,0.25,0.31,0.46l-0.34,1.78
					C196.12,235.31,195.95,235.44,195.77,235.44z"/>
				<path class="st2" d="M209.92,233.85c-0.08,0-0.15-0.02-0.22-0.07c-0.09-0.06-0.15-0.15-0.17-0.25c-0.02-0.1,0-0.21,0.06-0.3
					c0.84-1.24,0.2-2.47-0.32-2.99c-0.15-0.16-0.15-0.41,0.01-0.56c0.07-0.07,0.17-0.11,0.27-0.11c0.11,0,0.21,0.04,0.28,0.12
					c0.63,0.65,1.52,2.32,0.4,3.98C210.17,233.78,210.05,233.85,209.92,233.85z"/>
				<path class="st2" d="M216.01,229.9c-1.12,0-1.89-0.34-2.36-1.03c-0.49-0.72-0.62-1.49-0.37-2.27c0.47-1.49,2.17-2.62,3.21-3.02
					c1.19-0.46,2.96-1,4.66-1c0.97,0,1.81,0.18,2.48,0.55c0.99,0.54,1.6,1.68,1.47,2.77c-0.13,1.13-0.9,1.97-2.35,2.56l-0.31,0.12
					c-1.44,0.56-2.94,0.94-4.47,1.12c-0.13,0.02-0.26,0.03-0.4,0.05C217.1,229.82,216.54,229.9,216.01,229.9z M216.58,224.5
					c-0.16,0-0.33,0.04-0.47,0.12c-0.4,0.23-1.73,1.06-2.09,2.21c-0.17,0.55-0.08,1.07,0.27,1.59c0.32,0.47,0.87,0.69,1.71,0.69
					c0.48,0,0.98-0.07,1.42-0.13c0.15-0.02,0.29-0.04,0.43-0.06c1.46-0.18,2.9-0.54,4.29-1.08l0.28-0.11
					c1.2-0.49,1.78-1.08,1.88-1.92c0.1-0.87-0.46-1.66-1.07-1.99c-0.55-0.3-1.26-0.45-2.1-0.45c-0.24,0-0.5,0.02-0.81,0.05
					c-0.32,0.03-0.61,0.22-0.76,0.51c-0.15,0.29-0.15,0.63,0,0.92c0.06,0.12,0.1,0.24,0.12,0.37c0.08,0.58-0.34,1.12-0.92,1.19
					c-0.05,0.01-0.09,0.01-0.14,0.01c-0.53,0-0.98-0.4-1.05-0.93c0,0,0-0.05,0-0.05c-0.02-0.34-0.21-0.65-0.51-0.8
					C216.92,224.55,216.75,224.5,216.58,224.5z"/>
				<path class="st2" d="M225.23,233.27c-0.12,0-0.24-0.06-0.31-0.15l-1.55-2.01c-0.06-0.08-0.09-0.19-0.08-0.29
					c0.01-0.1,0.07-0.2,0.15-0.26c0.07-0.06,0.15-0.08,0.24-0.08c0.12,0,0.24,0.06,0.31,0.15l1.56,2.01
					c0.06,0.08,0.09,0.19,0.08,0.29c-0.01,0.1-0.07,0.2-0.15,0.26C225.4,233.25,225.32,233.27,225.23,233.27z"/>
				<path class="st2" d="M221.62,234.01c-0.17,0-0.33-0.12-0.38-0.28l-0.52-1.74c-0.03-0.1-0.02-0.21,0.03-0.3
					c0.05-0.09,0.13-0.16,0.23-0.19c0.04-0.01,0.08-0.02,0.11-0.02c0.17,0,0.33,0.12,0.38,0.28l0.52,1.74
					c0.03,0.1,0.02,0.21-0.03,0.3c-0.05,0.09-0.13,0.16-0.23,0.19C221.69,234.01,221.66,234.01,221.62,234.01z"/>
			</g>
			<g>
				<path class="st2" d="M211.49,251.27c0,0-7.77,1.44-15.02-1.98c0,0,3.4,7.38,14.12,5.83l0.4-2.92L211.49,251.27z"/>
				<path class="st2" d="M207.72,255.74c-8.63,0-11.49-6.02-11.61-6.27c-0.07-0.15-0.04-0.33,0.08-0.44
					c0.07-0.07,0.17-0.11,0.28-0.11c0.06,0,0.11,0.01,0.17,0.04c3.93,1.85,8.03,2.24,10.77,2.24c2.38,0,4-0.29,4.02-0.29
					c0.02,0,0.04-0.01,0.07-0.01c0.13,0,0.24,0.06,0.32,0.16c0.09,0.12,0.1,0.29,0.03,0.42l-0.38,0.72
					c-0.05,0.1-0.09,0.21-0.11,0.33l-0.37,2.68c-0.02,0.17-0.16,0.31-0.33,0.34C209.64,255.66,208.66,255.74,207.72,255.74
					L207.72,255.74z M201.19,251.33c-0.4,0-0.76,0.24-0.9,0.61c-0.18,0.44-0.01,0.94,0.4,1.19c2,1.2,4.36,1.82,7.03,1.82
					c0.57,0,1.15-0.03,1.75-0.08c0.45-0.04,0.81-0.39,0.87-0.83l0.14-1.03c0.04-0.29-0.05-0.58-0.25-0.8
					c-0.18-0.2-0.44-0.31-0.71-0.31c-0.02,0-0.05,0-0.07,0c-0.67,0.05-1.35,0.07-2.04,0.07c-2.06,0-4.09-0.21-6.01-0.62
					C201.33,251.34,201.26,251.33,201.19,251.33z"/>
			</g>
			<path class="st2" d="M184.16,234.39c-0.16,0-0.31-0.1-0.37-0.25c-0.26-0.67-0.53-1.27-0.83-1.78c-0.14-0.24-0.37-0.41-0.63-0.47
				c-0.07-0.02-0.14-0.02-0.21-0.02c-0.2,0-0.39,0.06-0.56,0.18L180.2,233c-0.07,0.05-0.14,0.07-0.23,0.07
				c-0.13,0-0.25-0.06-0.32-0.17c-0.06-0.09-0.08-0.19-0.07-0.29c0.02-0.1,0.08-0.19,0.16-0.25l0.81-0.57
				c0.33-0.23,0.49-0.66,0.38-1.05c-0.11-0.39-0.46-0.68-0.86-0.71c-0.06,0-0.13-0.01-0.19-0.01c-1.31,0-2.34,1-2.39,1.05
				c-0.07,0.07-0.17,0.11-0.28,0.11c-0.11,0-0.21-0.04-0.28-0.12c-0.15-0.15-0.15-0.4,0-0.55c0.47-0.47,1.63-1.27,2.96-1.27
				c0.23,0,0.45,0.02,0.67,0.07c1.6,0.34,2.94,1.88,3.96,4.56c0.08,0.2-0.02,0.43-0.23,0.51
				C184.25,234.38,184.2,234.39,184.16,234.39z"/>
		</g>
		<g>
			<path class="st2" d="M173.82,214.41c-2.22-0.03-3.03,3.37-1.57,5.05c1.45,1.68,3.92,1.98,6.14,2.07
				c5.86,0.23,11.89-0.23,17.24-2.63s9.95-7.03,11.14-12.78c0.14,1.33,1.39,2.24,2.55,2.9c5.07,2.91,10.77,4.73,16.59,5.32
				c1.58,0.16,3.22,0.22,4.7-0.35s2.76-1.93,2.78-3.51c0.03-1.58-1.59-3.12-3.1-2.64c1.63-0.65,2.7-2.47,2.49-4.21
				c-0.35-2.95-3.6-4.49-6.39-5.49c-5.53-1.99-11.11-3.99-16.94-4.73c-1.84-0.23-3.74-0.3-5.58,0c-2.1,0.35-3.24,1.44-5.02,2.31
				c-1.65,0.81-3.96-1.05-5.49-1.99c-3.11-1.91-10.5-6.33-12.87-0.86c-0.51,1.2,4.43,2.1,5.26,1.77
				c-5.86,2.34-10.95,6.56-14.33,11.89c-0.99,1.56-1.86,3.36-1.57,5.18C170.15,213.53,172.12,215.14,173.82,214.41z"/>
		</g>
		<g>
			<path class="st2" d="M198.37,197.9c-0.54,0-1.05-0.32-1.27-0.85c-2.14-5.31,2.66-10.15,2.87-10.35c0.54-0.53,1.4-0.52,1.93,0.01
				c0.53,0.54,0.52,1.4-0.01,1.93l0,0c-0.04,0.04-3.72,3.77-2.26,7.39c0.28,0.7-0.06,1.49-0.75,1.78
				C198.71,197.87,198.54,197.9,198.37,197.9z"/>
		</g>
		<g>
			<path class="st3" d="M183.6,202.25c-0.24,0.46-0.41,0.98-0.3,1.49c0.17,0.8,0.96,1.31,1.72,1.59c0.77,0.28,1.6,0.44,2.25,0.94
				c0.77,0.6,1.12,1.59,1.51,2.49c0.65,1.53,1.52,3.01,2.84,4.01c1.32,1,3.16,1.43,4.68,0.77c1.41-0.62,2.35-2.17,2.23-3.7
				c-0.02-0.33-0.09-0.66-0.28-0.93c-0.29-0.41-0.79-0.61-1.26-0.78c-1.37-0.5-2.75-1-4.12-1.5c-0.66-0.24-1.36-0.51-1.76-1.09
				c-0.3-0.43-0.38-0.97-0.46-1.49c-0.25-1.66-0.79-3.62-2.4-4.11c-0.47-0.14-0.97-0.13-1.46-0.04
				C185.45,200.16,184.24,201.05,183.6,202.25z"/>
		</g>
		<g>
			<path class="st3" d="M197.74,163.8c0-0.41-0.14-0.72-0.43-0.95c-0.29-0.23-0.79-0.46-1.51-0.7c-0.72-0.24-1.31-0.48-1.77-0.7
				c-1.49-0.73-2.24-1.74-2.24-3.02c0-0.64,0.19-1.2,0.56-1.69c0.37-0.49,0.9-0.87,1.58-1.14c0.68-0.27,1.44-0.41,2.29-0.41
				c0.83,0,1.57,0.15,2.23,0.44c0.66,0.3,1.17,0.72,1.53,1.26c0.36,0.55,0.55,1.17,0.55,1.87h-2.77c0-0.47-0.14-0.83-0.43-1.09
				c-0.29-0.26-0.68-0.39-1.17-0.39c-0.5,0-0.89,0.11-1.17,0.33c-0.29,0.22-0.43,0.5-0.43,0.83c0,0.3,0.16,0.56,0.47,0.8
				c0.32,0.24,0.87,0.49,1.67,0.74c0.8,0.26,1.45,0.53,1.96,0.83c1.24,0.72,1.87,1.7,1.87,2.96c0,1.01-0.38,1.8-1.14,2.37
				c-0.76,0.57-1.8,0.86-3.12,0.86c-0.93,0-1.78-0.17-2.53-0.5c-0.76-0.33-1.33-0.79-1.71-1.38c-0.38-0.58-0.57-1.25-0.57-2.01h2.78
				c0,0.62,0.16,1.07,0.48,1.36c0.32,0.29,0.84,0.44,1.55,0.44c0.46,0,0.82-0.1,1.09-0.3C197.61,164.43,197.74,164.15,197.74,163.8z
				"/>
			<path class="st3" d="M211.3,157.49h-3.45v9.37h-2.77v-9.37h-3.39v-2.14h9.62V157.49z"/>
			<path class="st3" d="M221.82,155.35v7.53c0,0.85-0.18,1.59-0.55,2.22s-0.89,1.1-1.57,1.43c-0.68,0.33-1.48,0.49-2.41,0.49
				c-1.4,0-2.51-0.36-3.31-1.09s-1.22-1.72-1.23-2.99v-7.59h2.79v7.64c0.03,1.26,0.62,1.89,1.75,1.89c0.57,0,1.01-0.16,1.3-0.47
				c0.3-0.32,0.44-0.83,0.44-1.54v-7.52H221.82z"/>
			<path class="st3" d="M223.88,166.85v-11.51h3.71c1.02,0,1.93,0.23,2.74,0.69c0.81,0.46,1.45,1.11,1.9,1.95
				c0.46,0.84,0.69,1.78,0.69,2.83v0.53c0,1.05-0.22,2-0.67,2.83c-0.45,0.84-1.07,1.49-1.88,1.96c-0.81,0.47-1.71,0.71-2.71,0.72
				H223.88z M226.65,157.49v7.23h0.96c0.8,0,1.41-0.28,1.83-0.85c0.43-0.57,0.64-1.41,0.64-2.53v-0.5c0-1.11-0.21-1.95-0.64-2.51
				c-0.43-0.56-1.05-0.85-1.87-0.85H226.65z"/>
			<path class="st3" d="M241.8,161.97h-4.36v2.75h5.15v2.13h-7.93v-11.51h7.94v2.14h-5.17v2.43h4.36V161.97z"/>
			<path class="st3" d="M253.66,166.85h-2.76l-4.08-7.16v7.16h-2.77v-11.51h2.77l4.07,7.16v-7.16h2.77V166.85z"/>
			<path class="st3" d="M264.55,157.49h-3.45v9.37h-2.77v-9.37h-3.39v-2.14h9.62V157.49z"/>
			<path class="st3" d="M272.7,164.72h4.83v2.13h-7.6v-11.51h2.77V164.72z"/>
			<path class="st3" d="M281.98,166.85h-2.77v-11.51h2.77V166.85z"/>
			<path class="st3" d="M293.54,162.96c-0.04,0.8-0.25,1.51-0.65,2.12c-0.4,0.61-0.95,1.09-1.66,1.43
				c-0.71,0.34-1.53,0.51-2.45,0.51c-1.51,0-2.7-0.49-3.57-1.48c-0.87-0.99-1.3-2.38-1.3-4.17v-0.57c0-1.13,0.2-2.11,0.59-2.96
				c0.39-0.85,0.96-1.5,1.7-1.96c0.74-0.46,1.59-0.69,2.56-0.69c1.4,0,2.52,0.37,3.37,1.1c0.85,0.74,1.33,1.75,1.45,3.04h-2.77
				c-0.02-0.7-0.2-1.2-0.53-1.51c-0.33-0.31-0.84-0.46-1.52-0.46c-0.69,0-1.2,0.26-1.52,0.77c-0.32,0.52-0.49,1.34-0.51,2.47v0.81
				c0,1.23,0.15,2.11,0.46,2.63c0.31,0.53,0.84,0.79,1.59,0.79c0.64,0,1.13-0.15,1.46-0.45c0.34-0.3,0.52-0.78,0.54-1.43H293.54z"/>
			<path class="st3" d="M302.31,161.97h-4.36v2.75h5.15v2.13h-7.93v-11.51h7.94v2.14h-5.17v2.43h4.36V161.97z"/>
			<path class="st3" d="M314.17,166.85h-2.76l-4.08-7.16v7.16h-2.77v-11.51h2.77l4.07,7.16v-7.16h2.77V166.85z"/>
			<path class="st3" d="M322.19,163.8c0-0.41-0.14-0.72-0.43-0.95c-0.29-0.23-0.79-0.46-1.51-0.7c-0.72-0.24-1.31-0.48-1.77-0.7
				c-1.49-0.73-2.24-1.74-2.24-3.02c0-0.64,0.19-1.2,0.56-1.69c0.37-0.49,0.9-0.87,1.58-1.14c0.68-0.27,1.44-0.41,2.29-0.41
				c0.83,0,1.57,0.15,2.23,0.44c0.66,0.3,1.17,0.72,1.53,1.26c0.36,0.55,0.55,1.17,0.55,1.87h-2.77c0-0.47-0.14-0.83-0.43-1.09
				c-0.29-0.26-0.68-0.39-1.17-0.39c-0.5,0-0.89,0.11-1.17,0.33c-0.29,0.22-0.43,0.5-0.43,0.83c0,0.3,0.16,0.56,0.47,0.8
				c0.32,0.24,0.87,0.49,1.67,0.74c0.8,0.26,1.45,0.53,1.96,0.83c1.24,0.72,1.87,1.7,1.87,2.96c0,1.01-0.38,1.8-1.14,2.37
				c-0.76,0.57-1.8,0.86-3.12,0.86c-0.93,0-1.78-0.17-2.53-0.5c-0.76-0.33-1.33-0.79-1.71-1.38c-0.38-0.58-0.57-1.25-0.57-2.01h2.78
				c0,0.62,0.16,1.07,0.48,1.36c0.32,0.29,0.84,0.44,1.55,0.44c0.46,0,0.82-0.1,1.09-0.3C322.05,164.43,322.19,164.15,322.19,163.8z
				"/>
			<path class="st3" d="M333.85,161.97h-4.36v2.75h5.15v2.13h-7.93v-11.51h7.94v2.14h-5.17v2.43h4.36V161.97z"/>
		</g>
		<path class="st2" d="M257.61,202.96c-0.4,0-0.72-0.32-0.72-0.72c0-0.4,0.32-0.72,0.72-0.72h83c0.4,0,0.72,0.32,0.72,0.72
			c0,0.4-0.32,0.72-0.72,0.72H257.61z"/>
		<path class="st2" d="M257.61,224.38c-0.4,0-0.72-0.32-0.72-0.72c0-0.4,0.32-0.72,0.72-0.72h83c0.4,0,0.72,0.32,0.72,0.72
			c0,0.4-0.32,0.72-0.72,0.72H257.61z"/>
		<path class="st2" d="M257.61,214c-0.4,0-0.72-0.32-0.72-0.72s0.32-0.72,0.72-0.72h23.76c0.4,0,0.72,0.32,0.72,0.72
			s-0.32,0.72-0.72,0.72H257.61z"/>
		<path class="st2" d="M293.76,214c-0.4,0-0.72-0.32-0.72-0.72s0.32-0.72,0.72-0.72h42.17c0.4,0,0.72,0.32,0.72,0.72
			s-0.32,0.72-0.72,0.72H293.76z"/>
		<path class="st2" d="M257.61,246.13c-0.4,0-0.72-0.32-0.72-0.72s0.32-0.72,0.72-0.72h83c0.4,0,0.72,0.32,0.72,0.72
			s-0.32,0.72-0.72,0.72H257.61z"/>
		<path class="st2" d="M257.61,235.76c-0.4,0-0.72-0.32-0.72-0.72s0.32-0.72,0.72-0.72h23.76c0.4,0,0.72,0.32,0.72,0.72
			s-0.32,0.72-0.72,0.72H257.61z"/>
		<path class="st2" d="M293.76,235.76c-0.4,0-0.72-0.32-0.72-0.72s0.32-0.72,0.72-0.72h42.17c0.4,0,0.72,0.32,0.72,0.72
			s-0.32,0.72-0.72,0.72H293.76z"/>
	</g>
</g>
</svg>
