<?xml version="1.0" encoding="utf-8"?>
<!-- Generator: Adobe Illustrator 28.1.0, SVG Export Plug-In . SVG Version: 6.00 Build 0)  -->
<svg version="1.1" id="栝鍣_1" xmlns="http://www.w3.org/2000/svg" xmlns:xlink="http://www.w3.org/1999/xlink" x="0px" y="0px"
	 viewBox="0 0 847 830" style="enable-background:new 0 0 847 830;" xml:space="preserve">
<style type="text/css">
	.st0{fill:#3B9CFF;}
	.st1{fill:#F0EAFF;}
	.st2{fill:#142784;}
	.st3{fill:#FFFFFF;}
	.st4{fill:#FFC0BB;}
	.st5{fill:#C9E0FC;}
	.st6{fill:#EB6CB0;}
	.st7{fill:#A1B2E2;}
	.st8{fill:#68A8FD;}
	.st9{fill:#FFC533;}
	.st10{fill:#33CC99;}
	.st11{fill:#31C2AA;}
</style>
<g>
	<g>
		<g>
			<g>
				<g>
					<path class="st0" d="M824.2,470.22c-9.29,27.67-21.42,55.18-36.3,82.05c-12.61,22.74-27.18,45.01-43.7,66.52
						c-2.88,3.75-5.81,7.48-8.82,11.19c-15.35,18.97-32.23,37.27-50.63,54.73c-7.08,6.73-14.28,13.21-21.58,19.48
						c-12.29,10.54-24.89,20.42-37.72,29.65c-8.41,6.04-16.91,11.81-25.51,17.29c-3.07,1.96-6.16,3.88-9.26,5.77
						c-14.08,8.59-28.37,16.42-42.81,23.49h-0.01c-9.81,4.81-19.69,9.26-29.6,13.36c-27.56,11.39-55.44,20.03-83.18,25.88
						c-1.07,0.23-2.14,0.45-3.21,0.67c-10.98,2.24-21.93,4.03-32.82,5.39c-3.96,0.5-7.9,0.93-11.84,1.31
						c-4.35,0.42-8.7,0.76-13.03,1.04c-6.18,0.39-12.34,0.64-18.47,0.74c-20.26,0.33-40.19-0.93-59.56-3.8
						c-4.7-0.69-9.37-1.49-14.01-2.37c-20.34-3.9-40.01-9.63-58.76-17.22c-2.9-1.18-5.79-2.4-8.65-3.67
						c-18.82-8.33-36.66-18.59-53.24-30.81c-1.21-0.89-2.42-1.8-3.62-2.72c-7.93-6.04-15.57-12.56-22.87-19.54c0,0-0.01,0-0.01-0.01
						c-3.29-3.12-6.52-6.36-9.67-9.68c-2.68-2.83-5.3-5.71-7.83-8.62c0-0.01,0-0.01-0.01-0.01c-3.3-3.76-6.45-7.59-9.49-11.5
						c-11.41-14.62-21.18-30.23-29.36-46.64c-7.23-14.5-13.21-29.63-17.96-45.26c-2.58-8.51-4.81-17.19-6.67-25.98
						C25.77,467.46,80.93,304.45,208.77,183.12c21.5-20.4,44.08-38.7,67.38-54.83c3.56-2.48,7.14-4.89,10.74-7.26h0.01
						c8.34-5.49,16.77-10.71,25.28-15.66c14.73-8.59,29.65-16.34,44.72-23.28h0.02c27.01-12.42,54.44-22.2,81.82-29.27
						c4.69-1.21,9.37-2.34,14.06-3.39c75.68-17,150.49-13.32,214.76,12c10.8,4.25,21.3,9.11,31.45,14.59
						c1.27,0.68,2.53,1.37,3.79,2.08c9.56,5.34,18.8,11.24,27.7,17.7c11.85,8.6,23.07,18.2,33.57,28.8l0.01,0.01
						c1.4,1.4,2.78,2.83,4.14,4.26c4.64,4.89,9.08,9.92,13.29,15.08c4.31,5.26,8.4,10.65,12.26,16.16l0.01,0.01
						C853.09,244.72,861.63,358.77,824.2,470.22z"/>
				</g>
			</g>
		</g>
		<g>
			<g>
				<g>
					<g>
						<polygon class="st1" points="621.81,221.6 629.54,253.92 660.48,259.87 629.94,268.2 621.02,299.93 612.09,267.41 
							583.93,261.86 613.68,254.52 						"/>
					</g>
				</g>
			</g>
			<g>
				<g>
					<g>
						<path class="st2" d="M621.02,300.72C621.01,300.72,621.01,300.72,621.02,300.72c-0.53,0-1-0.16-1.14-0.67l-8.73-31.72
							l-27.44-5.36c-0.54-0.11-0.94-0.55-0.95-1.11c-0.01-0.55,0.36-1.03,0.9-1.16l29.05-7.16l7.96-32.22
							c0.13-0.53,0.62-0.87,1.15-0.9c0.54,0,1.02,0.38,1.15,0.91l7.56,31.58l30.19,5.81c0.54,0.1,0.94,0.57,0.96,1.12
							c0.02,0.55-0.34,1.04-0.87,1.19l-29.89,8.15l-8.74,30.89C622.01,300.57,621.54,300.72,621.02,300.72z M589.39,261.73
							l22.93,4.52c0.44,0.09,0.79,0.41,0.91,0.85l7.8,28.42l7.77-27.63c0.11-0.4,0.43-0.71,0.83-0.82l25.63-6.99l-25.94-4.99
							c-0.46-0.09-0.82-0.43-0.93-0.89l-6.6-27.6l-6.97,28.2c-0.1,0.43-0.44,0.76-0.86,0.86L589.39,261.73z"/>
					</g>
				</g>
			</g>
		</g>
		<g>
			<g>
				<g>
					<g>
						<polygon class="st1" points="299.48,381.58 304.78,403.7 325.95,407.77 305.05,413.47 298.94,435.19 292.83,412.93 
							273.56,409.13 293.92,404.11 						"/>
					</g>
				</g>
			</g>
			<g>
				<g>
					<g>
						<path class="st2" d="M298.94,435.59C298.94,435.59,298.94,435.59,298.94,435.59c-0.53,0-1,0.03-1.14-0.48l-5.91-21.36
							l-18.56-3.56c-0.54-0.11-0.94-0.53-0.95-1.08c-0.01-0.55,0.36-1.02,0.9-1.15l19.67-4.84l5.39-22.21
							c0.13-0.53,0.6-1.27,1.15-1.27c0,0,0,0,0,0c0.55,0,1.02,0.75,1.15,1.28l5.12,21.57l20.42,4.02c0.54,0.1,0.94,0.61,0.96,1.16
							c0.02,0.55-0.34,1.06-0.87,1.21l-20.26,5.54l-5.93,20.69C299.94,435.62,299.47,435.59,298.94,435.59z M279.02,409l14.05,2.77
							c0.44,0.09,0.79,0.41,0.91,0.85l4.98,18.16l4.96-17.62c0.11-0.4,0.43-0.71,0.83-0.82l15.99-4.36l-16.17-3.11
							c-0.46-0.09-0.82-0.43-0.93-0.89l-4.16-17.4l-4.4,17.81c-0.11,0.43-0.44,0.76-0.86,0.86L279.02,409z"/>
					</g>
				</g>
			</g>
		</g>
		<g>
			<g>
				<g>
					<g>
						<g>
							<path class="st3" d="M661.04,448.36l-0.78,128.02c0,0-47.21,71.08-48.51,80.8c-0.63,4.77-6.25,49.55-11.81,93.95
								c-3.07,1.96-6.16,3.88-9.26,5.77c-14.08,8.59-28.37,16.42-42.81,23.49h-0.01c-9.81,4.81-19.69,9.26-29.6,13.36
								c-27.56,11.39-55.44,20.03-83.18,25.88c-1.07,0.23-2.14,0.45-3.21,0.67c-10.98,2.24-21.93,4.03-32.82,5.39
								c-3.96,0.5-7.9,0.93-11.84,1.31c-4.35,0.42-8.7,0.76-13.03,1.04c-6.18,0.39-12.34,0.64-18.47,0.74
								c-20.26,0.33-40.19-0.93-59.56-3.8L285.9,665.45l-23.51-0.97l-24.23-1l-16.1-0.66l-19.09-0.78c0,0-10.87-8.61-4.46-46.27
								c2.74-16.06,11.28-37.58,23.48-58.01c0-0.01,0-0.01,0.01-0.01c-0.01-0.01-0.01-0.01,0-0.01c4.45-7.46,9.39-14.77,14.72-21.61
								c14.3-18.36,31.38-33.36,49.21-38.79c8.02-2.45,16.55-4.11,25.11-5.2c20.14-2.58,40.48-1.99,54.83-0.92
								c4.96,0.37,9.21,0.8,12.49,1.18c4.66,0.53,7.35,0.95,7.35,0.95l118.02-2.6l9.02-2.43c0,0,0.01,0,0.01-0.01l8.86-2.39
								l57.2-15.42L661.04,448.36z"/>
						</g>
					</g>
					<g>
						<g>
							<path class="st2" d="M349.41,830c-18.14,0-36.11-1.3-53.42-3.87c-0.55-0.08-0.97-0.54-1.01-1.09l-10.2-158.45l-81.86-3.36
								c-0.25-0.01-0.49-0.1-0.69-0.25c-0.47-0.37-11.34-9.48-4.89-47.39c2.82-16.5,11.63-38.29,23.58-58.32
								c0.02-0.05,0.05-0.09,0.07-0.14c4.62-7.73,9.59-15.04,14.79-21.72c11.2-14.37,28.93-32.84,49.8-39.2
								c7.52-2.29,16.04-4.06,25.31-5.24c9.54-1.22,19.99-1.84,31.03-1.84c7.82,0,15.9,0.31,24.03,0.92
								c4.34,0.32,8.56,0.72,12.54,1.18c4.12,0.47,6.74,0.86,7.29,0.94l117.77-2.6l8.81-2.37c0.02-0.01,0.05-0.02,0.08-0.02
								l148.27-39.96c0.36-0.1,0.74-0.02,1.03,0.21c0.29,0.23,0.46,0.57,0.46,0.94l-0.78,128.02c0,0.23-0.07,0.45-0.2,0.65
								c-16.28,24.51-47.32,72.83-48.33,80.3c-0.76,5.69-8.51,67.59-11.8,93.93c-0.04,0.35-0.24,0.66-0.54,0.85
								c-3.13,1.99-6.25,3.94-9.28,5.78c-14.02,8.55-28.45,16.47-42.9,23.54c-0.02,0.01-0.05,0.02-0.07,0.03
								c-9.79,4.79-19.75,9.29-29.6,13.36c-27.4,11.32-55.46,20.05-83.39,25.94c-1.07,0.23-2.15,0.45-3.22,0.67
								c-10.92,2.23-21.99,4.05-32.91,5.4c-3.86,0.48-7.86,0.93-11.87,1.31c-4.28,0.41-8.67,0.76-13.07,1.04
								c-6.22,0.39-12.45,0.64-18.52,0.74C353.64,829.98,351.51,830,349.41,830z M297.29,823.93c18.9,2.75,38.59,3.98,58.43,3.65
								c6.04-0.1,12.23-0.34,18.41-0.73c4.37-0.28,8.74-0.63,12.99-1.04c3.99-0.39,7.97-0.83,11.81-1.31
								c10.86-1.35,21.87-3.16,32.73-5.37c1.07-0.22,2.14-0.44,3.2-0.67c27.79-5.86,55.71-14.55,82.98-25.82
								c9.83-4.06,19.77-8.54,29.53-13.33c0.02-0.01,0.05-0.02,0.07-0.03c14.36-7.03,28.71-14.91,42.65-23.41
								c2.86-1.74,5.81-3.58,8.77-5.46c3.34-26.65,10.99-87.75,11.74-93.4c1.3-9.65,44.75-75.34,48.5-81l0.77-126.12l-146.72,39.54
								c-0.02,0.01-0.04,0.01-0.07,0.02l0,0l-9.02,2.43c-0.09,0.02-0.19,0.04-0.28,0.04l-118.02,2.6c-0.07,0-0.14,0-0.21-0.01
								c-0.03,0-2.73-0.43-7.3-0.95c-3.96-0.46-8.14-0.85-12.45-1.17c-8.07-0.6-16.1-0.91-23.86-0.91
								c-10.95,0-21.29,0.61-30.73,1.82c-9.14,1.17-17.52,2.9-24.92,5.16c-20.28,6.17-37.64,24.28-48.63,38.39
								c-5.12,6.58-10.02,13.77-14.58,21.4c0,0.01-0.01,0.02-0.01,0.02c-0.02,0.03-0.03,0.06-0.05,0.09
								c-11.84,19.82-20.56,41.35-23.33,57.6c-5.62,33,2.26,43.27,3.79,44.9l82.48,3.39c0.6,0.02,1.09,0.5,1.13,1.11L297.29,823.93z
								"/>
						</g>
					</g>
				</g>
				<g>
					<g>
						<g>
							<g>
								<path class="st4" d="M110.32,448.28c0.11,0.01,0.21,0.01,0.32,0.02c-0.87-14.27-4.66-82.27,1.21-101.11
									c4.4-14.11,51.94-14.63,82.86-13.43c-0.65-18.86-1.14-41.08-0.57-56.07l1.12-29.79c0.31-8.25,7.25-14.69,15.5-14.38
									c8.3,0.27,14.69,7.25,14.38,15.5l-1.12,29.79c-0.61,16.34,0.13,42.72,0.9,62.58c2.86,4.77,6.95,11.96,10.84,20.09
									c8.31-15.12,16.69-28.65,22.71-34.2c6.07-5.59,15.53-5.21,21.13,0.86c5.6,6.07,5.21,15.53-0.86,21.13
									c-5.23,4.82-18.71,29.3-31.72,55.52c-0.85,23.53-13.29,41.97-22.2,52.26c-0.62,10.37-5.27,157.53-2.8,203.08
									c33.97,4.02,63.89,5.28,63.89,5.28l-0.35,65.35c-0.45,1.2-0.99,2.4-1.47,3.58c-21,51.66-87.57,100.79-139.53,47.17
									c-19.73-20.35-39.18-40.54-37.57-217.85C107.38,520.64,108.89,479.19,110.32,448.28z"/>
							</g>
						</g>
					</g>
					<g>
						<g>
							<g>
								<path class="st2" d="M194.77,805.93c-18.72,0-35.9-7.94-51.07-23.59c-9.77-10.08-19.88-20.5-27.09-50.62
									c-8-33.4-11.54-88.38-10.81-168.07c0.41-44.71,2.04-87.45,3.34-115.44c0.01-0.26,0.11-0.5,0.27-0.7
									c-0.93-15.4-4.52-81.97,1.31-100.68c3.04-9.74,24.37-14.68,63.41-14.68c6.11,0,12.62,0.13,19.35,0.37
									c-0.81-24.11-0.99-42.57-0.53-54.89l1.12-29.79c0.34-8.91,7.73-15.85,16.72-15.51c4.29,0.14,8.27,1.94,11.19,5.08
									c2.95,3.17,4.49,7.3,4.32,11.64l-1.12,29.79c-0.61,16.32,0.14,42.76,0.89,62.18c2.54,4.25,6.17,10.6,9.74,17.87
									c9.33-16.8,16.67-27.73,21.84-32.5c2.99-2.75,6.87-4.27,10.93-4.27c4.49,0,8.82,1.89,11.87,5.19
									c6.03,6.54,5.61,16.76-0.92,22.8c-4.57,4.21-16.86,25.76-31.35,54.95c-0.91,22.99-12.51,41.14-22.22,52.43
									c-0.64,12.34-5.15,155.5-2.83,201.56c33.13,3.88,62.51,5.14,62.81,5.15c0.64,0.03,1.14,0.55,1.13,1.19l-0.35,65.35
									c0,0.14-0.03,0.28-0.08,0.41c-0.29,0.78-0.62,1.55-0.94,2.31c-0.18,0.44-0.37,0.87-0.54,1.3
									c-7.41,18.24-20.57,36.14-36.09,49.09C231.81,798.31,213.03,805.93,194.77,805.93z M111.47,449.15
									c-1.29,27.97-2.9,70.29-3.3,114.53c-0.73,79.49,2.79,134.28,10.75,167.5c7.06,29.48,16.5,39.22,26.49,49.52
									c14.71,15.18,31.32,22.87,49.37,22.87c38.91,0,74.49-35.89,88.21-69.67c0.18-0.44,0.37-0.89,0.56-1.33
									c0.28-0.67,0.57-1.35,0.83-2.02l0.34-64c-5.8-0.28-32.9-1.69-62.84-5.23c-0.57-0.07-1.01-0.54-1.04-1.11
									c-2.48-45.59,2.25-193.95,2.8-203.22c0.02-0.26,0.12-0.51,0.29-0.7c9.55-11.02,21.1-28.9,21.92-51.53
									c0.01-0.17,0.05-0.33,0.12-0.48c11.66-23.51,26.18-50.53,31.98-55.87c5.58-5.15,5.93-13.88,0.79-19.46
									c-2.6-2.82-6.29-4.43-10.13-4.43c-3.47,0-6.78,1.29-9.33,3.64c-5.18,4.78-12.74,16.19-22.47,33.9
									c-0.21,0.39-0.63,0.63-1.07,0.61c-0.44-0.01-0.84-0.27-1.03-0.67c-3.92-8.2-8.03-15.4-10.79-19.99
									c-0.1-0.17-0.16-0.36-0.17-0.56c-0.75-19.49-1.52-46.18-0.9-62.67l1.12-29.79c0.14-3.71-1.17-7.24-3.69-9.94
									c-2.49-2.67-5.88-4.21-9.54-4.33c-0.18-0.01-0.36-0.01-0.53-0.01c-7.43,0-13.47,5.82-13.75,13.25l-1.12,29.78
									c-0.46,12.3-0.26,31.65,0.57,55.98c0.01,0.33-0.11,0.65-0.35,0.88c-0.23,0.23-0.55,0.35-0.88,0.34
									c-7.16-0.28-14.07-0.42-20.53-0.42c-36.82,0-58.53,4.62-61.15,13.02c-5.82,18.68-1.98,87.15-1.16,100.68
									c0.02,0.34-0.1,0.67-0.34,0.91C111.48,449.14,111.47,449.14,111.47,449.15z"/>
							</g>
						</g>
					</g>
				</g>
				<g>
					<g>
						<g>
							<path class="st2" d="M221.79,695.34c0,0-0.01,0-0.01,0c-0.65,0-1.18-0.64-1.17-1.29l0.3-34.49c0.01-0.65,0.53-1.19,1.18-1.19
								c0,0,0.01,0,0.01,0c0.65,0,1.18,0.5,1.17,1.16l-0.3,34.55C222.96,694.74,222.44,695.34,221.79,695.34z"/>
						</g>
					</g>
				</g>
				<g>
					<g>
						<g>
							<path class="st2" d="M158.22,428.36c-0.04,0-0.07,0-0.11-0.01c-0.65-0.06-1.13-0.63-1.07-1.28
								c2.66-29.25,17.85-43.24,30.13-49.83c13.28-7.12,25.75-7.32,26.27-7.33c0.65-0.03,1.19,0.52,1.19,1.17
								c0.01,0.65-0.52,1.19-1.17,1.19c-0.12,0-12.49,0.21-25.26,7.09c-17.06,9.19-26.76,25.31-28.81,47.91
								C159.34,427.9,158.83,428.36,158.22,428.36z"/>
						</g>
					</g>
				</g>
				<g>
					<g>
						<g>
							<g>
								<g>
									<path class="st4" d="M176.93,309.8c-6.47,0.46-11.82,4.15-14.39,9.08c-3.16-4.09-8.59-6.61-14.69-6.17
										c-6.87,0.49-12.6,4.57-14.95,9.98c-0.33,0.77-0.55,1.59-0.74,2.41c-2.72-4.09-7.86-6.68-13.67-6.26
										c-6.16,0.44-11.3,4.09-13.4,8.94c-0.74,1.7-1.11,3.55-1.01,5.46l2.03,41.28c0.36,7.36,7.41,12.85,15.73,12.25
										c5.85-0.42,10.72-3.75,13-8.24c2.2,6.25,8.94,10.52,16.75,9.96c6.46-0.46,11.84-4.11,14.42-9.04
										c3.16,4.06,8.58,6.56,14.66,6.13c7.04-0.51,12.63-4.85,14.86-10.46c2.09-19.61,0.51-34.37-1.17-60.34
										C191.28,312.64,181.23,309.49,176.93,309.8z"/>
								</g>
							</g>
							<g>
								<g>
									<path class="st2" d="M150.21,389.72c-6.72,0-12.69-3.4-15.55-8.66c-2.84,3.94-7.54,6.52-12.75,6.89
										c-0.44,0.03-0.88,0.05-1.32,0.05c-8.41,0-15.3-5.89-15.67-13.42l-2.03-41.28c-0.1-2.05,0.27-4.07,1.11-5.99
										c2.35-5.4,8-9.19,14.4-9.65c0.44-0.03,0.88-0.05,1.31-0.05c4.7,0,9.02,1.82,11.96,4.97c0.05-0.12,0.1-0.24,0.15-0.36
										c2.6-5.98,8.86-10.18,15.95-10.69c5.59-0.4,11.01,1.61,14.59,5.33c3.1-4.71,8.51-7.82,14.49-8.25
										c4.54-0.33,14.93,2.93,18.18,5.19c0.29,0.21,0.48,0.53,0.5,0.89c0.24,3.71,0.48,7.19,0.7,10.49
										c1.36,19.95,2.26,33.14,0.46,50.05c-0.01,0.11-0.04,0.21-0.08,0.31c-2.5,6.29-8.74,10.68-15.88,11.2
										c-0.48,0.03-0.97,0.05-1.45,0.05h0c-5.06,0-9.84-1.97-13.1-5.35c-3.1,4.68-8.51,7.78-14.52,8.21
										C151.18,389.71,150.69,389.72,150.21,389.72z M134.82,377.35c0.03,0,0.05,0,0.08,0c0.47,0.03,0.88,0.34,1.04,0.79
										c1.94,5.52,7.68,9.22,14.27,9.22c0.43,0,0.86-0.02,1.29-0.05c5.8-0.42,10.96-3.64,13.46-8.41
										c0.19-0.36,0.54-0.59,0.94-0.63c0.4-0.04,0.79,0.13,1.04,0.45c2.79,3.58,7.41,5.72,12.36,5.72h0
										c0.42,0,0.86-0.02,1.28-0.05c6.19-0.44,11.58-4.19,13.79-9.57c1.76-16.63,0.86-29.71-0.49-49.47
										c-0.21-3.12-0.44-6.41-0.67-9.9c-3.32-1.97-12.39-4.74-16.19-4.48c-5.78,0.41-10.92,3.65-13.43,8.45
										c-0.19,0.36-0.54,0.59-0.94,0.63c-0.4,0.04-0.79-0.14-1.04-0.45c-3.02-3.91-8.24-6.1-13.67-5.71
										c-6.23,0.45-11.7,4.09-13.95,9.27c-0.31,0.71-0.51,1.48-0.68,2.21c-0.11,0.46-0.48,0.81-0.94,0.9
										c-0.46,0.08-0.93-0.12-1.19-0.51c-2.41-3.62-6.7-5.78-11.47-5.78c-0.38,0-0.76,0.01-1.14,0.04
										c-5.54,0.4-10.41,3.63-12.4,8.24c-0.69,1.59-1,3.25-0.92,4.94l2.03,41.28c0.31,6.26,6.16,11.17,13.31,11.17
										c0.38,0,0.77-0.01,1.15-0.04c5.23-0.37,9.84-3.29,12.04-7.6C133.97,377.6,134.38,377.35,134.82,377.35z"/>
								</g>
							</g>
						</g>
					</g>
					<g>
						<g>
							<g>
								<path class="st2" d="M166,380.65c-0.65,0-1.18-0.53-1.18-1.18l-0.45-45.65c-0.01-0.65,0.52-1.13,1.17-1.13
									c0,0,0.01,0,0.01,0c0.65,0,1.18,0.45,1.18,1.1l0.45,45.68c0.01,0.65-0.52,1.17-1.17,1.17
									C166.01,380.65,166,380.65,166,380.65z"/>
							</g>
						</g>
					</g>
					<g>
						<g>
							<g>
								<path class="st2" d="M134.82,379.65c-0.64,0-1.17-0.48-1.18-1.12l-0.84-41.07c-0.01-0.65,0.5-1.18,1.16-1.2
									c0.65-0.02,1.19,0.51,1.21,1.16l0.84,41.06c0.01,0.65-0.5,1.17-1.16,1.17C134.84,379.65,134.83,379.65,134.82,379.65z"/>
							</g>
						</g>
					</g>
				</g>
				<g>
					<g>
						<g>
							<g>
								<path class="st4" d="M796.63,204.22c-0.65-14.28-4.12-82.3-11.97-100.4c-5.88-13.57-53.2-9.01-83.82-4.53
									c-1.36-18.82-3.24-40.97-5.4-55.81l-4.28-29.5c-1.19-8.17-8.77-13.83-16.94-12.65c-8.23,1.15-13.83,8.77-12.65,16.94
									l4.29,29.5c2.35,16.18,4.41,42.49,5.77,62.32c-2.34,5.05-5.64,12.63-8.64,21.13c-9.87-14.15-19.64-26.71-26.22-31.59
									c-6.63-4.91-15.99-3.53-20.92,3.1c-4.92,6.63-3.53,15.99,3.1,20.92c5.71,4.23,21.73,27.14,37.45,51.83
									c3.35,23.31,17.68,40.32,27.64,49.6c0.57,3.42,3.22,21.98,6.58,46.86c38.73,0.59,77.32,0.3,115.97-0.88
									c-3.34-24.93-6.73-47.93-9.65-66.9C796.84,204.19,796.73,204.21,796.63,204.22z"/>
							</g>
						</g>
					</g>
					<g>
						<g>
							<g>
								<path class="st2" d="M729.37,273.42c-12.85,0-25.9-0.1-38.77-0.3c-0.58-0.01-1.08-0.44-1.15-1.02
									c-3.32-24.6-5.85-42.3-6.51-46.43c-10.85-10.19-24.32-27.01-27.68-49.77c-17.51-27.48-32.03-47.6-37.02-51.3
									c-7.14-5.3-8.64-15.43-3.35-22.57c3.03-4.08,7.88-6.52,12.97-6.52c3.48,0,6.8,1.1,9.6,3.17
									c5.65,4.19,14.11,14.28,25.18,29.99c2.78-7.61,5.71-14.31,7.78-18.8c-1.32-19.39-3.39-45.76-5.74-61.93l-4.29-29.5
									c-0.62-4.3,0.46-8.58,3.06-12.04c2.57-3.43,6.34-5.65,10.59-6.24c0.77-0.11,1.55-0.17,2.33-0.17
									c7.94,0,14.8,5.94,15.94,13.81l4.28,29.5c1.77,12.19,3.56,30.56,5.32,54.63c14-2.02,33.64-4.34,50.13-4.34
									c19.82,0,30.84,3.19,33.68,9.74c7.79,17.98,11.31,84.56,12.02,99.97c0.18,0.18,0.3,0.41,0.34,0.67
									c3.49,22.64,6.74,45.15,9.66,66.92c0.04,0.33-0.05,0.67-0.27,0.92c-0.22,0.26-0.53,0.41-0.87,0.42
									C780.97,273.03,754.98,273.42,729.37,273.42z M691.65,270.78c12.53,0.19,25.22,0.28,37.72,0.28
									c25.15,0,50.67-0.38,75.88-1.13c-2.83-21.09-5.98-42.87-9.35-64.77c-0.01,0-0.01-0.01-0.02-0.01
									c-0.26-0.21-0.42-0.53-0.44-0.86c-0.62-13.55-4.09-82.03-11.87-99.99c-1.64-3.8-8.45-8.32-31.51-8.32
									c-16.85,0-37.06,2.44-51.05,4.49c-0.32,0.05-0.66-0.04-0.91-0.25c-0.26-0.21-0.42-0.51-0.44-0.84
									c-1.76-24.28-3.62-43.55-5.39-55.73l-4.28-29.5c-0.98-6.72-6.83-11.79-13.6-11.79c-0.66,0-1.34,0.05-2,0.15
									c-3.63,0.51-6.84,2.4-9.03,5.32c-2.22,2.95-3.14,6.61-2.61,10.28l4.29,29.5c2.37,16.33,4.45,42.95,5.78,62.41
									c0.01,0.2-0.02,0.4-0.11,0.58c-2.25,4.86-5.57,12.45-8.6,21.03c-0.15,0.42-0.52,0.72-0.96,0.78
									c-0.44,0.06-0.87-0.13-1.13-0.5c-11.56-16.58-20.29-27.11-25.96-31.31c-2.39-1.77-5.22-2.71-8.19-2.71
									c-4.41,0-8.45,2.03-11.07,5.57c-4.52,6.09-3.24,14.74,2.86,19.26c6.33,4.69,23.65,30.01,37.74,52.14
									c0.09,0.14,0.15,0.3,0.17,0.47c3.23,22.41,16.61,38.97,27.28,48.91c0.19,0.18,0.32,0.41,0.36,0.67
									C685.75,228.12,688.28,245.81,691.65,270.78z"/>
							</g>
						</g>
					</g>
				</g>
				<g>
					<g>
						<g>
							<path class="st2" d="M747.07,189.47c-0.55,0-1.05-0.39-1.16-0.95c-4.46-22.29-15.84-37.3-33.84-44.61
								c-13.43-5.45-25.66-4.34-25.78-4.32c-0.65,0.06-1.23-0.41-1.29-1.06c-0.06-0.65,0.41-1.23,1.06-1.29
								c0.52-0.05,12.94-1.18,26.9,4.49c12.91,5.24,29.51,17.53,35.27,46.33c0.13,0.64-0.29,1.26-0.93,1.39
								C747.23,189.46,747.15,189.47,747.07,189.47z"/>
						</g>
					</g>
				</g>
				<g>
					<g>
						<g>
							<g>
								<g>
									<path class="st4" d="M715.97,73.57c6.48-0.23,12.19,2.87,15.28,7.5c2.71-4.4,7.84-7.48,13.94-7.7
										c6.89-0.24,13.02,3.2,15.93,8.33c0.42,0.73,0.72,1.52,0.99,2.32c2.27-4.36,7.1-7.48,12.93-7.68
										c6.17-0.22,11.67,2.87,14.28,7.47c0.92,1.61,1.48,3.41,1.59,5.33l2.38,41.26c0.42,7.36-6,13.56-14.33,13.85
										c-5.86,0.21-11.06-2.59-13.81-6.81c-1.52,6.45-7.77,11.41-15.6,11.69c-6.47,0.23-12.21-2.83-15.3-7.46
										c-2.71,4.38-7.83,7.44-13.92,7.65c-7.05,0.25-13.08-3.47-15.89-8.81c-4.16-19.28-4.16-34.12-5.26-60.12
										C702,77.93,711.66,73.72,715.97,73.57z"/>
								</g>
							</g>
							<g>
								<g>
									<path class="st2" d="M719.67,150.51c-6.96,0-13.2-3.62-16.28-9.46c-0.05-0.1-0.09-0.2-0.11-0.3
										c-3.59-16.63-4.1-29.83-4.87-49.82c-0.13-3.3-0.26-6.79-0.42-10.5c-0.02-0.36,0.13-0.71,0.41-0.94
										c3.07-2.67,13-6.94,17.52-7.1c5.99-0.21,11.71,2.34,15.28,6.66c3.18-4.12,8.27-6.65,13.94-6.85
										c7.21-0.25,13.76,3.22,17,8.93c0.06,0.11,0.13,0.23,0.19,0.35c2.84-3.77,7.5-6.13,12.67-6.31
										c6.51-0.23,12.42,2.91,15.35,8.06c1.04,1.82,1.62,3.79,1.74,5.84l2.38,41.26c0.2,3.57-1.07,7.06-3.58,9.82
										c-2.91,3.2-7.25,5.12-11.89,5.29c-5.22,0.18-10.17-1.91-13.41-5.5c-2.46,5.96-8.71,10.12-15.99,10.38
										c-6.01,0.22-11.74-2.32-15.31-6.62c-3.18,4.1-8.26,6.62-13.91,6.82C720.14,150.5,719.91,150.51,719.67,150.51z
										 M705.56,140.09c2.78,5.14,8.44,8.26,14.73,8.04c5.48-0.19,10.32-2.84,12.96-7.09c0.21-0.34,0.58-0.55,0.98-0.56
										c0.39-0.02,0.78,0.19,1,0.52c2.97,4.44,8.47,7.14,14.28,6.93c7.09-0.25,13.05-4.68,14.49-10.78
										c0.11-0.46,0.48-0.81,0.95-0.89c0.47-0.08,0.94,0.12,1.19,0.52c2.62,4.02,7.56,6.45,12.78,6.27
										c4.01-0.14,7.74-1.79,10.23-4.52c2.08-2.28,3.14-5.16,2.97-8.09l-2.38-41.26c-0.1-1.69-0.58-3.3-1.44-4.81
										c-2.46-4.33-7.66-7.06-13.21-6.87c-5.18,0.18-9.75,2.88-11.92,7.05c-0.22,0.42-0.66,0.67-1.13,0.63
										c-0.47-0.03-0.88-0.34-1.03-0.79c-0.24-0.7-0.52-1.45-0.91-2.12c-2.76-4.87-8.63-7.95-14.86-7.73
										c-5.5,0.19-10.35,2.86-12.98,7.14c-0.21,0.34-0.58,0.56-0.98,0.56c-0.41,0-0.78-0.19-1.01-0.53
										c-2.98-4.47-8.48-7.18-14.26-6.97c-3.75,0.13-12.46,3.79-15.62,6.17c0.15,3.49,0.27,6.79,0.39,9.92
										C701.54,110.64,702.05,123.74,705.56,140.09z"/>
								</g>
							</g>
						</g>
					</g>
					<g>
						<g>
							<g>
								<path class="st2" d="M734.25,142.84c-0.6,0-1.12-0.46-1.17-1.07l-4.42-45.5c-0.06-0.65,0.41-1.23,1.06-1.29
									c0.65-0.06,1.23,0.41,1.29,1.06l4.42,45.5c0.06,0.65-0.41,1.23-1.06,1.29C734.33,142.84,734.29,142.84,734.25,142.84z"/>
							</g>
						</g>
					</g>
					<g>
						<g>
							<g>
								<path class="st2" d="M765.15,138.61c-0.61,0-1.12-0.46-1.18-1.08l-3.54-40.94c-0.06-0.65,0.43-1.22,1.08-1.28
									c0.64-0.05,1.22,0.43,1.28,1.08l3.54,40.94c0.06,0.65-0.43,1.22-1.08,1.28C765.22,138.61,765.19,138.61,765.15,138.61z"/>
							</g>
						</g>
					</g>
				</g>
				<g>
					<g>
						<g>
							<g>
								<path class="st5" d="M824.2,470.22c-1.2,33.18-5.21,55.88-11.67,64.82c-3.41,4.73-12.4,10.66-24.63,17.23
									c-48.83,26.2-149.38,62.44-153.57,71.88c-2.53,5.7-5.98,57.58-8.87,109.69c-8.41,6.04-16.91,11.81-25.51,17.29
									c-3.07,1.96-6.16,3.88-9.26,5.77c-14.08,8.59-28.37,16.42-42.81,23.49h-0.01c-9.81,4.81-19.69,9.26-29.6,13.36l3.36-307.81
									l0.01-0.68l170.34-48.48l-15.72-193.92c3.39,1.54,7.04,2.81,10.9,3.83c39.14,10.42,99.2-3.9,114.94-8.02
									c2.5-0.66,3.88-1.06,3.88-1.06C820.62,333.58,826.17,415.92,824.2,470.22z"/>
							</g>
						</g>
					</g>
					<g>
						<g>
							<g>
								<path class="st2" d="M518.28,794.93c-0.23,0-0.46-0.07-0.66-0.2c-0.33-0.22-0.52-0.59-0.52-0.99l3.36-307.81l0.01-0.68
									c0-0.52,0.35-0.98,0.86-1.13l169.4-48.22l-15.65-192.96c-0.03-0.42,0.16-0.82,0.5-1.06c0.34-0.24,0.79-0.28,1.17-0.11
									c3.23,1.47,6.84,2.74,10.71,3.77c9.18,2.44,20.27,3.68,32.96,3.68c34.02,0,70.89-8.96,81.38-11.7
									c2.45-0.65,3.84-1.04,3.85-1.05c0.33-0.09,0.68-0.04,0.96,0.14c0.29,0.18,0.48,0.48,0.53,0.82
									c13.7,89.79,20.35,174.66,18.24,232.84c-1.22,33.75-5.34,56.39-11.9,65.47c-3.29,4.55-11.47,10.3-25.03,17.58
									c-22.41,12.02-55.92,26.26-85.49,38.82c-32.19,13.67-65.47,27.81-67.56,32.5c-1.42,3.19-4.09,24.74-8.77,109.27
									c-0.02,0.36-0.2,0.69-0.49,0.89c-8.38,6.02-16.98,11.85-25.57,17.33c-3.13,2-6.26,3.94-9.28,5.78
									c-14.02,8.55-28.45,16.47-42.9,23.54c-0.02,0.01-0.05,0.02-0.07,0.03c-9.79,4.79-19.75,9.29-29.6,13.36
									C518.58,794.9,518.43,794.93,518.28,794.93z M522.81,486.14l-3.34,305.82c9.29-3.88,18.66-8.12,27.88-12.64
									c0.02-0.01,0.05-0.02,0.07-0.03c14.37-7.03,28.71-14.91,42.65-23.41c3.01-1.84,6.12-3.77,9.24-5.76
									c8.39-5.35,16.8-11.05,25-16.93c3.76-67.8,6.77-104.65,8.94-109.54c2.34-5.27,27.67-16.25,68.79-33.71
									c29.52-12.54,62.98-26.75,85.3-38.72c13.05-7,21.2-12.68,24.23-16.88c6.29-8.7,10.24-30.89,11.45-64.17
									c2.09-57.76-4.47-141.91-18.01-231.08c-0.65,0.18-1.53,0.42-2.61,0.7c-13.54,3.54-48.62,11.78-81.98,11.78
									c-12.89,0-24.18-1.27-33.57-3.76c-3.29-0.88-6.4-1.92-9.26-3.11l15.57,191.96c0.05,0.56-0.31,1.08-0.85,1.23L522.81,486.14z
									"/>
							</g>
						</g>
					</g>
				</g>
				<g>
					<g>
						<g>
							<g>
								<path class="st5" d="M374.2,828.03c-6.18,0.39-12.34,0.64-18.47,0.74c-20.26,0.33-40.19-0.93-59.56-3.8
									c-4.7-0.69-9.37-1.49-14.01-2.37l-1.9-67.13c0,0-20.3,35.52-56.86,49.91c-13.76,5.42-29.82,7.84-47.97,4.26
									c-51.87-10.24-62.68-42.87-67.43-90.81c-1.33-13.42-2.19-28.05-3.33-43.72c-5.24-71.63-3.49-195.69-3.49-195.69
									s2.86,0.53,7.79,1.33c20.89,3.39,78.97,11.65,114.83,5.19c4.33-0.78,8.34-1.78,11.91-3.02l0.88,40.19
									c0,0,27.08-22.72,42.81-29.7c5.42-2.41,17.4-3.47,30.76-3.82h0.01c25.36-0.67,55.72,1.2,55.72,1.2l0.01,0.46L374.2,828.03z"
									/>
							</g>
						</g>
					</g>
					<g>
						<g>
							<g>
								<path class="st2" d="M349.41,830c-18.14,0-36.11-1.3-53.42-3.87c-4.69-0.69-9.42-1.49-14.06-2.38
									c-0.54-0.1-0.94-0.57-0.96-1.13l-1.79-63.25c-6.12,9.25-25.43,35.32-55.35,47.09c-10.17,4-20.73,6.03-31.39,6.03
									c-5.67,0-11.47-0.58-17.24-1.72c-24.96-4.92-41.53-15.03-52.16-31.79c-10.7-16.89-14.12-38.85-16.22-60.06
									c-0.96-9.64-1.67-19.87-2.42-30.7c-0.29-4.26-0.6-8.61-0.92-13.05c-5.19-70.86-3.51-194.55-3.49-195.79
									c0-0.35,0.16-0.68,0.43-0.9c0.27-0.22,0.62-0.31,0.97-0.25c0.03,0.01,2.9,0.54,7.76,1.32c14.01,2.28,50.09,7.57,82.3,7.57
									c12.54,0,23.35-0.8,32.12-2.38c4.39-0.79,8.34-1.79,11.73-2.97c0.36-0.12,0.75-0.07,1.06,0.15c0.31,0.22,0.5,0.57,0.51,0.94
									l0.82,37.74c6.46-5.3,27.72-22.33,41.2-28.31c4.91-2.18,15.41-3.5,31.21-3.92c3.66-0.1,7.63-0.15,11.81-0.15
									c21.89,0,43.8,1.34,44.01,1.35c0.61,0.04,1.09,0.54,1.11,1.15l0.01,0.46L375.38,828c0.02,0.63-0.47,1.17-1.11,1.21
									c-6.22,0.39-12.45,0.64-18.52,0.74C353.64,829.98,351.51,830,349.41,830z M283.31,821.6c4.31,0.81,8.69,1.55,13.03,2.19
									c19.18,2.85,39.18,4.12,59.37,3.79c5.67-0.09,11.47-0.31,17.28-0.66l-8.27-335.04c-4.67-0.27-23.74-1.28-42.79-1.28
									c-4.16,0-8.11,0.05-11.74,0.14c-15.49,0.41-25.69,1.66-30.32,3.72c-15.4,6.84-42.26,29.3-42.53,29.53
									c-0.35,0.29-0.83,0.36-1.25,0.17c-0.41-0.19-0.68-0.6-0.69-1.05l-0.84-38.58c-3.15,1-6.69,1.86-10.56,2.56
									c-8.91,1.61-19.86,2.42-32.54,2.42c-32.39,0-68.61-5.32-82.68-7.6c-2.92-0.47-5.12-0.85-6.44-1.08
									c-0.17,13.88-1.37,127.5,3.51,194.19c0.32,4.44,0.63,8.79,0.92,13.06c0.75,10.81,1.45,21.02,2.41,30.63
									c5.02,50.7,17.1,80.02,66.48,89.77c5.62,1.11,11.26,1.67,16.78,1.67c10.36,0,20.63-1.97,30.52-5.87
									c35.74-14.06,56.06-49.04,56.26-49.39c0.26-0.46,0.8-0.69,1.31-0.56c0.51,0.13,0.88,0.58,0.89,1.11L283.31,821.6z"/>
							</g>
						</g>
					</g>
				</g>
				<g>
					<g>
						<g>
							<path class="st2" d="M238.33,678.9c-0.65,0-1.17-0.52-1.18-1.17L235.4,523.1c-0.01-0.65,0.52-1.19,1.17-1.2
								c0,0,0.01,0,0.01,0c0.65,0,1.17,0.52,1.18,1.17l1.75,154.62c0.01,0.65-0.52,1.19-1.17,1.2
								C238.33,678.9,238.33,678.9,238.33,678.9z"/>
						</g>
					</g>
				</g>
				<g>
					<g>
						<g>
							<path class="st2" d="M547.89,781.57c-0.07,0-0.14-0.01-0.21-0.02c-0.64-0.12-1.07-0.73-0.95-1.37l11-61.37l-21.78-90.61
								c-0.05-0.19-0.04-0.39,0.01-0.58l41.94-158.11c0.17-0.63,0.81-1.01,1.44-0.84c0.63,0.17,1.01,0.81,0.84,1.44l-0.19,0.71
								l-41.67,157.12l21.77,90.56c0.04,0.16,0.04,0.32,0.01,0.48l-11.04,61.62C548.94,781.17,548.45,781.57,547.89,781.57z"/>
						</g>
					</g>
				</g>
				<g>
					<g>
						<g>
							<path class="st2" d="M355.73,829.95c-0.56,0-1.05-0.4-1.16-0.96l-21.31-112.62c-0.03-0.15-0.03-0.3,0-0.45l20.03-99.27
								l-44.21-126.59c-0.02-0.04-0.03-0.07-0.04-0.11l-0.19-0.54c-0.21-0.62,0.12-1.29,0.73-1.5c0.62-0.21,1.29,0.12,1.5,0.73
								l0.15,0.44c0.02,0.03,0.03,0.07,0.04,0.1l0.9,2.58l43.46,124.42c0.07,0.2,0.08,0.42,0.04,0.62l-20.04,99.36l21.27,112.39
								c0.12,0.64-0.3,1.26-0.94,1.38C355.88,829.94,355.8,829.95,355.73,829.95z"/>
						</g>
					</g>
				</g>
				<g>
					<g>
						<g>
							<path class="st2" d="M280.26,756.64c-0.65,0-1.18-0.53-1.18-1.18v-29.29c-2.43-3.06-19.22-24.98-19.22-45.84
								c0-21.77,10.43-54.2,10.54-54.53c0.2-0.62,0.87-0.96,1.49-0.76c0.62,0.2,0.96,0.87,0.76,1.49
								c-0.1,0.32-10.43,32.4-10.43,53.8c0,21.17,18.76,44.45,18.95,44.68c0.17,0.21,0.27,0.47,0.27,0.75v29.7
								C281.44,756.11,280.91,756.64,280.26,756.64z"/>
						</g>
					</g>
				</g>
			</g>
			<g>
				<g>
					<g>
						<g>
							<g>
								<path class="st2" d="M467.07,232.27c40.38,0,101.57,20.19,106.46,85.66c4.89,65.47,20.8,137.05,20.8,137.05
									s-21.41,9.18-44.66,9.79l-7.34-15.91l-0.61,15.91c0,0-85.66,3.06-145.01,1.84c-59.35-1.22-67.3-11.01-67.3-11.01
									s20.19-42.83,22.03-69.14c1.84-26.31-15.3-73.42,9.18-112.58C385.09,234.72,467.07,232.27,467.07,232.27z"/>
							</g>
						</g>
					</g>
					<g>
						<g>
							<g>
								<path class="st2" d="M428.06,468.07c-11.51,0-22.07-0.1-31.37-0.29c-59.21-1.22-67.86-11.03-68.2-11.45
									c-0.29-0.35-0.35-0.84-0.15-1.25c0.2-0.43,20.12-42.93,21.92-68.72c0.52-7.52-0.51-16.64-1.7-27.2
									c-2.91-25.73-6.54-57.76,11.06-85.92c12.86-20.57,41.43-30.94,63.14-36.01c23.4-5.47,44.08-6.14,44.29-6.15
									c24.14,0,48.62,6.73,67.2,18.46c24.28,15.33,38.28,38.95,40.47,68.29c4.83,64.63,20.62,136.17,20.78,136.88
									c0.12,0.55-0.17,1.12-0.69,1.34c-0.22,0.09-21.89,9.27-45.1,9.88c-0.49,0.01-0.91-0.26-1.1-0.69l-5.28-11.43l-0.42,10.98
									c-0.02,0.62-0.52,1.11-1.14,1.14C541.16,465.97,481.63,468.07,428.06,468.07z M330.86,455.28
									c2.58,1.86,15.77,9.11,65.88,10.14c9.29,0.19,19.83,0.29,31.33,0.29c49.52,0,104.14-1.8,112.52-2.09l0.57-14.81
									c0.02-0.55,0.41-1.01,0.95-1.11c0.54-0.11,1.08,0.17,1.3,0.66l7.01,15.2c19.8-0.69,38.32-7.62,42.55-9.3
									c-1.91-8.82-16.08-75.56-20.61-136.25c-4.99-66.75-68.53-84.56-105.28-84.56c-0.17,0.01-20.65,0.67-43.82,6.1
									c-21.26,4.97-49.21,15.08-61.64,34.95c-17.16,27.46-13.59,59.03-10.71,84.4c1.21,10.68,2.25,19.9,1.71,27.63
									C350.9,411.08,333.73,449.07,330.86,455.28z"/>
							</g>
						</g>
					</g>
				</g>
				<g>
					<g>
						<g>
							<g>
								<path class="st4" d="M384.55,363.56c0,0-17.24-19.45-32.83-14.43c-4.99,1.57-8.75,6.11-11.01,11.76
									c-4.74,11.83-2.9,28.55,7.99,33.32c16.11,7.05,36.37-5.14,36.37-5.14L384.55,363.56z"/>
							</g>
						</g>
					</g>
					<g>
						<g>
							<g>
								<path class="st2" d="M359.9,397.59C359.9,397.59,359.9,397.59,359.9,397.59c-4.26,0-8.19-0.77-11.67-2.29
									c-11.49-5.03-13.73-22.08-8.62-34.84c2.58-6.45,6.76-10.87,11.75-12.44c1.82-0.58,3.75-0.88,5.73-0.88
									c14.29,0,27.77,15.01,28.33,15.65c0.19,0.21,0.29,0.48,0.3,0.76l0.52,25.51c0.01,0.42-0.21,0.82-0.57,1.04
									C385.18,390.39,373.06,397.59,359.9,397.59z M357.1,349.49c-1.74,0-3.43,0.26-5.02,0.77c-4.32,1.36-7.96,5.29-10.28,11.07
									c-4.6,11.5-2.71,27.39,7.37,31.8c3.18,1.39,6.78,2.09,10.72,2.09c10.94,0,21.43-5.41,23.98-6.83l-0.5-24.36
									C381.37,361.89,369.24,349.49,357.1,349.49z"/>
							</g>
						</g>
					</g>
				</g>
				<g>
					<g>
						<g>
							
								<ellipse transform="matrix(0.7071 -0.7071 0.7071 0.7071 -176.779 369.2869)" class="st3" cx="357.38" cy="398.03" rx="9.85" ry="9.85"/>
						</g>
					</g>
					<g>
						<g>
							<path class="st2" d="M357.38,409.07c-6.09,0-11.04-4.95-11.04-11.04c0-6.09,4.95-11.04,11.04-11.04
								c6.09,0,11.04,4.95,11.04,11.04C368.42,404.12,363.46,409.07,357.38,409.07z M357.38,389.36c-4.78,0-8.67,3.89-8.67,8.67
								s3.89,8.67,8.67,8.67s8.67-3.89,8.67-8.67S362.16,389.36,357.38,389.36z"/>
						</g>
					</g>
				</g>
				<g>
					<g>
						<g>
							<g>
								<path class="st4" d="M424.12,567.42c57.16,3.22,88.88-62.46,90.22-79.15c-0.55,0-14.03,0.6-19,0.82
									c-1.13,0.05-2.11-0.73-2.32-1.84c-1.48-7.8-2-31.17,1.2-56.61c1.33-10.61,4.44-20.9,8.68-30.72
									c0.52-1.22,1.02-2.46,1.53-3.71c2.8,1.45,9.78,4.76,18.07,6.31c4.9,0.92,10.26,1.22,15.5,0.15c2.17-0.44,4.32-1.1,6.41-2.06
									c18.17-8.37,14.5-45.85-3.05-51.15c-6-1.88-11.97-0.39-17.56,2.29c-7.84,12.35-15.97,15.27-15.97,15.27
									c3.9-30.44-75.95-41.45-83.29-90.55c0,0-60.11,27.53-63.49,65.34c-0.1,1.15-0.16,2.36-0.21,3.58
									c-0.05,1.09-0.12,2.16-0.17,3.24c-0.44,8.46-0.86,16.63-0.99,24.46c-0.15,8.2,0.01,16.01,0.75,23.32
									c2.61,25.92,12.52,45.74,42.2,55.26l1.25,0.27l9.94,2.22c0.62,6.28,1.19,12.54,0.77,19.49c-0.08,1.22-1.08,17.6-1.58,18.54
									l-34.38-0.45C374.46,500.45,382.25,565.06,424.12,567.42z"/>
							</g>
						</g>
					</g>
					<g>
						<g>
							<g>
								<path class="st2" d="M428.18,568.72C428.18,568.72,428.17,568.72,428.18,568.72c-1.37,0-2.76-0.04-4.12-0.12
									c-14.28-0.8-26.4-8.97-35.05-23.6c-11.66-19.73-14.48-47.43-11.44-53.77c0.2-0.42,0.63-0.66,1.08-0.67l33.41,0.44
									c0.2-1.44,0.6-5.49,1.32-16.81l0.04-0.62c0.41-6.74-0.14-12.93-0.68-18.44l-10.35-2.3c-0.04-0.01-0.07-0.02-0.11-0.03
									c-14.4-4.62-24.83-11.79-31.86-21.93c-6.14-8.85-9.69-19.76-11.15-34.34c-0.68-6.7-0.92-14.37-0.75-23.46
									c0.13-7.61,0.51-15.27,0.99-24.5c0.03-0.5,0.05-1,0.08-1.51c0.03-0.57,0.06-1.15,0.09-1.73l0.01-0.16
									c0.05-1.15,0.11-2.34,0.21-3.46c1.41-15.8,12.99-32.29,33.48-47.69c15.37-11.55,30.55-18.55,30.7-18.62
									c0.34-0.15,0.73-0.14,1.06,0.04c0.33,0.18,0.55,0.5,0.61,0.86c3.87,25.88,28.35,40.98,49.94,54.31
									c18,11.11,33.67,20.78,33.5,34.45c2.72-1.54,8.27-5.46,13.65-13.94c0.12-0.19,0.29-0.34,0.49-0.43
									c4.56-2.18,8.65-3.25,12.51-3.25c2.03,0,4.02,0.3,5.91,0.9c9.86,2.98,15.02,15.07,15.76,25.73
									c0.89,12.85-4.04,23.69-12.58,27.62c-2.07,0.95-4.32,1.67-6.67,2.14c-4.78,0.98-10.18,0.93-15.95-0.15
									c-7.3-1.37-13.58-4.04-17.24-5.84c-0.33,0.81-0.69,1.68-1.06,2.54c-4.48,10.39-7.37,20.62-8.6,30.4
									c-3.24,25.7-2.64,48.75-1.22,56.25c0.1,0.51,0.54,0.88,1.06,0.88c5.59-0.25,18.53-0.83,19.11-0.83
									c0.33,0,0.64,0.14,0.87,0.38c0.22,0.24,0.34,0.57,0.31,0.9c-0.66,8.23-8.35,28.06-23.36,46.4
									C479.48,550.25,458.09,568.72,428.18,568.72z M379.45,492.93c-1.81,6.1,0.01,31.26,11.6,50.86
									c8.35,14.13,19.5,21.68,33.15,22.45c1.32,0.07,2.66,0.11,3.98,0.11c0,0,0.01,0,0.01,0c28.99,0,49.8-17.99,62.15-33.09
									c13.76-16.81,21.38-35.32,22.68-43.77c-3.02,0.12-10.57,0.46-17.61,0.77c-1.71,0.08-3.22-1.12-3.54-2.8
									c-1.45-7.64-2.08-31.03,1.19-56.98c1.25-10.01,4.2-20.45,8.77-31.04c0.54-1.27,1.07-2.58,1.52-3.68
									c0.12-0.31,0.37-0.55,0.68-0.67c0.31-0.12,0.66-0.1,0.95,0.06c3.26,1.69,9.9,4.73,17.74,6.2
									c5.47,1.02,10.56,1.07,15.05,0.16c2.18-0.44,4.25-1.1,6.15-1.98c9.27-4.27,11.83-16.3,11.2-25.31
									c-0.68-9.85-5.31-20.98-14.1-23.63c-4.88-1.53-10.14-0.86-16.4,2.08c-7.91,12.31-16.04,15.34-16.38,15.46
									c-0.39,0.14-0.82,0.07-1.14-0.19c-0.32-0.26-0.48-0.66-0.43-1.07c1.7-13.3-14.03-23.01-32.25-34.26
									c-21.6-13.33-46.03-28.4-50.78-54.4c-9.01,4.43-58.41,30.2-61.41,63.7c-0.1,1.07-0.15,2.18-0.2,3.36l-0.01,0.17
									c-0.03,0.59-0.06,1.17-0.09,1.75c-0.03,0.5-0.06,1-0.08,1.5c-0.48,9.21-0.86,16.85-0.99,24.42
									c-0.17,9,0.07,16.58,0.74,23.18c2.99,29.66,15.35,45.89,41.34,54.24l1.19,0.26l9.95,2.22c0.5,0.11,0.87,0.53,0.92,1.04
									c0.57,5.81,1.22,12.4,0.77,19.68l-0.04,0.62c-1.09,17.32-1.46,18-1.68,18.41c-0.21,0.39-0.61,0.63-1.06,0.63L379.45,492.93z
									"/>
							</g>
						</g>
					</g>
				</g>
				<g>
					<g>
						<g>
							<path class="st2" d="M517.08,387.28c-0.13,0-0.26-0.02-0.39-0.07c-0.62-0.22-0.94-0.89-0.72-1.51
								c3.24-9.16,8.02-15.08,14.21-17.61c7.66-3.13,14.56,0.16,14.85,0.3c0.59,0.29,0.83,0.99,0.54,1.58
								c-0.29,0.59-0.99,0.83-1.58,0.54l0,0c-0.06-0.03-6.29-2.97-12.96-0.23c-5.52,2.27-9.85,7.72-12.85,16.2
								C518.02,386.98,517.57,387.28,517.08,387.28z"/>
						</g>
					</g>
				</g>
				<g>
					<g>
						<g>
							<path class="st2" d="M534.54,383.08c-0.37,0-0.73-0.17-0.96-0.49l-6.83-9.43c-0.38-0.53-0.26-1.27,0.26-1.65
								c0.53-0.38,1.27-0.26,1.65,0.26l6.83,9.43c0.38,0.53,0.26,1.27-0.26,1.65C535.03,383,534.78,383.08,534.54,383.08z"/>
						</g>
					</g>
				</g>
				<g>
					<g>
						<g>
							<g>
								<g>
									
										<ellipse transform="matrix(0.9572 -0.2894 0.2894 0.9572 -91.2379 152.3209)" class="st6" cx="469.38" cy="384.64" rx="15.91" ry="7.74"/>
								</g>
							</g>
						</g>
						<g>
							<g>
								<g>
									<path class="st6" d="M398.02,386.81c1.24-4.09-4.58-9.47-12.99-12.01c-8.41-2.54-16.23-1.29-17.47,2.8
										c-1.24,4.09,4.58,9.47,12.99,12.01C388.97,392.15,396.79,390.9,398.02,386.81z"/>
								</g>
							</g>
						</g>
						<g>
							<g>
								<g>
									<path class="st2" d="M391.24,331.48c0.1-2.9,4.07-5.12,8.88-4.96c4.8,0.17,8.61,2.66,8.51,5.56s-4.07,5.12-8.88,4.96
										C394.95,336.88,391.14,334.39,391.24,331.48z"/>
								</g>
							</g>
						</g>
						<g>
							<g>
								<g>
									<path class="st2" d="M447.93,333.44c0.1-2.9,4.07-5.12,8.88-4.96c4.8,0.17,8.61,2.66,8.51,5.56
										c-0.1,2.9-4.07,5.12-8.88,4.96C451.64,338.84,447.83,336.35,447.93,333.44z"/>
								</g>
							</g>
						</g>
						<g>
							<g>
								<g>
									<path class="st3" d="M476.54,367.68c-5.43,1.77-11.05,2.94-16.72,3.52c-4.46,0.46-11.77,1.88-15.11-2.1
										c-5.76-6.84,4.55-13.23,9.89-14.94c7.31-2.34,18.68-4.8,26.05-1.54c2.96,1.31,5.39,4.34,5,7.55
										c-0.49,3.99-4.58,5.97-7.97,7.13C477.29,367.43,476.91,367.56,476.54,367.68z"/>
								</g>
							</g>
							<g>
								<g>
									<path class="st2" d="M452.52,373.01c-4.09,0-6.95-1.03-8.72-3.14c-1.79-2.12-2.38-4.48-1.7-6.83
										c1.42-4.94,8.04-8.69,12.14-10c4.51-1.45,11.23-3.17,17.64-3.17c3.62,0,6.73,0.56,9.24,1.68c3.09,1.37,6.19,4.7,5.69,8.77
										c-0.66,5.33-6.75,7.42-8.76,8.1c-0.38,0.13-0.77,0.26-1.15,0.38c-5.46,1.78-11.17,2.98-16.97,3.57
										c-0.5,0.05-1.03,0.11-1.59,0.18C456.56,372.77,454.54,373.01,452.52,373.01z M471.87,352.23c-6.11,0-12.57,1.66-16.92,3.06
										c-3.74,1.2-9.49,4.6-10.59,8.41c-0.46,1.59-0.05,3.11,1.24,4.65c1.3,1.55,3.57,2.3,6.92,2.3c1.88,0,3.83-0.23,5.54-0.43
										c0.57-0.07,1.12-0.13,1.63-0.18c5.63-0.58,11.17-1.74,16.48-3.47c0.37-0.12,0.74-0.25,1.11-0.37
										c4.57-1.56,6.85-3.52,7.18-6.15c0.34-2.75-1.91-5.26-4.3-6.32C477.95,352.73,475.16,352.23,471.87,352.23z"/>
								</g>
							</g>
						</g>
						<g>
							<g>
								<g>
									<path class="st2" d="M462.57,361.16c0.13-3.79-2.83-6.96-6.62-7.09c-3.79-0.13-6.96,2.83-7.09,6.62
										c-0.13,3.79,2.83,6.96,6.62,7.09C459.26,367.91,462.44,364.95,462.57,361.16z"/>
								</g>
							</g>
						</g>
						<g>
							<g>
								<g>
									<path class="st3" d="M376.94,364.24c5.29,2.14,10.82,3.7,16.44,4.67c4.42,0.76,11.61,2.69,15.22-1.05
										c6.22-6.43-3.62-13.51-8.84-15.59c-7.13-2.84-18.31-6.08-25.88-3.33c-3.04,1.1-5.68,3.96-5.51,7.19
										c0.22,4.02,4.16,6.27,7.45,7.66C376.2,363.94,376.57,364.09,376.94,364.24z"/>
								</g>
							</g>
							<g>
								<g>
									<path class="st2" d="M402.05,371.27L402.05,371.27c-2.51,0-5.17-0.5-7.3-0.91c-0.55-0.1-1.08-0.2-1.58-0.29
										c-5.74-0.99-11.36-2.59-16.68-4.74c-0.37-0.15-0.75-0.3-1.12-0.46c-1.95-0.82-7.89-3.32-8.18-8.69
										c-0.22-4.09,3.1-7.2,6.28-8.36c2.04-0.74,4.43-1.12,7.12-1.12c7.32,0,15.42,2.79,19.6,4.46c4,1.59,10.34,5.79,11.42,10.82
										c0.51,2.38-0.24,4.7-2.17,6.69C407.77,370.42,405.35,371.27,402.05,371.27z M380.6,349.08c-2.41,0-4.53,0.33-6.31,0.97
										c-2.46,0.9-4.88,3.25-4.73,6.01c0.14,2.65,2.28,4.76,6.73,6.64c0.36,0.15,0.72,0.3,1.09,0.45
										c5.17,2.09,10.62,3.63,16.2,4.6c0.5,0.09,1.04,0.19,1.61,0.3c2.14,0.4,4.57,0.86,6.86,0.86h0c2.62,0,4.48-0.61,5.7-1.87
										c1.4-1.44,1.91-2.93,1.56-4.55c-0.83-3.88-6.34-7.67-9.98-9.12C395.31,351.76,387.53,349.08,380.6,349.08z"/>
								</g>
							</g>
						</g>
						<g>
							<g>
								<g>
									<path class="st2" d="M373.94,353.96c0.13-3.79,3.31-6.75,7.09-6.62c3.79,0.13,6.75,3.31,6.62,7.09
										c-0.13,3.79-3.31,6.75-7.09,6.62C376.77,360.92,373.81,357.74,373.94,353.96z"/>
								</g>
							</g>
						</g>
						<g>
							<g>
								<g>
									<path class="st2" d="M420.55,388.54c-0.34,0-0.67-0.14-0.9-0.42c-4.84-5.71-2.21-12.26-0.14-14.93
										c0.4-0.52,1.14-0.61,1.66-0.21c0.52,0.4,0.61,1.14,0.21,1.66l0,0c-0.2,0.26-4.72,6.31,0.07,11.96
										c0.42,0.5,0.36,1.24-0.14,1.67C421.09,388.45,420.82,388.54,420.55,388.54z"/>
								</g>
							</g>
						</g>
						<g>
							<g>
								<g>
									<path class="st2" d="M487.2,380.17c-0.37,0-0.73-0.17-0.96-0.49l-5.04-6.95c-0.38-0.53-0.27-1.27,0.26-1.65
										c0.53-0.38,1.27-0.27,1.65,0.26l5.04,6.95c0.38,0.53,0.27,1.27-0.26,1.65C487.68,380.09,487.44,380.17,487.2,380.17z"/>
								</g>
							</g>
						</g>
						<g>
							<g>
								<g>
									<path class="st2" d="M476.25,382.6c-0.47,0-0.92-0.28-1.1-0.75l-2.61-6.61c-0.24-0.61,0.06-1.29,0.67-1.53
										c0.61-0.24,1.29,0.06,1.53,0.67l2.61,6.61c0.24,0.61-0.06,1.29-0.67,1.53C476.54,382.57,476.39,382.6,476.25,382.6z"/>
								</g>
							</g>
						</g>
						<g>
							<g>
								<g>
									<path class="st2" d="M367.24,376.86c-0.19,0-0.39-0.05-0.56-0.14c-0.57-0.31-0.78-1.03-0.47-1.6l4.17-7.65
										c0.31-0.57,1.03-0.78,1.6-0.47c0.57,0.31,0.78,1.03,0.47,1.6l-4.17,7.65C368.06,376.64,367.66,376.86,367.24,376.86z"/>
								</g>
							</g>
						</g>
						<g>
							<g>
								<g>
									<path class="st2" d="M378.71,380.69c-0.14,0-0.29-0.03-0.43-0.08c-0.61-0.24-0.9-0.93-0.66-1.53l2.96-7.48
										c0.24-0.61,0.93-0.91,1.53-0.66c0.61,0.24,0.9,0.93,0.66,1.53l-2.96,7.48C379.63,380.41,379.18,380.69,378.71,380.69z"/>
								</g>
							</g>
						</g>
					</g>
					<g>
						<g>
							<g>
								<path class="st2" d="M423.55,410.08c-8.27,0-15.05-2.12-15.58-2.29c-0.62-0.2-0.96-0.86-0.76-1.49
									c0.2-0.62,0.87-0.96,1.49-0.77c0.23,0.07,23.42,7.3,35.85-5.42c0.46-0.47,1.2-0.48,1.67-0.02c0.47,0.46,0.48,1.2,0.02,1.67
									C439.83,408.33,431.07,410.08,423.55,410.08z"/>
							</g>
						</g>
					</g>
					<g>
						<g>
							<g>
								<path class="st2" d="M450.09,406.72c-0.36,0-0.72-0.16-0.95-0.48l-8.08-10.85c-0.39-0.52-0.28-1.26,0.24-1.65
									s1.26-0.28,1.65,0.24l8.08,10.85c0.39,0.52,0.28,1.26-0.24,1.65C450.58,406.64,450.33,406.72,450.09,406.72z"/>
							</g>
						</g>
					</g>
				</g>
				<g>
					<g>
						<g>
							<path class="st2" d="M413.82,454.16c0,0,32.43,3.32,53.56-11.54c0,0-15.65,27.9-52.68,35.21l0.26-21.12L413.82,454.16z"/>
						</g>
					</g>
					<g>
						<g>
							<path class="st2" d="M414.7,479c-0.27,0-0.54-0.1-0.76-0.27c-0.27-0.23-0.43-0.57-0.43-0.92l0.26-20.86l-1.03-2.3
								c-0.17-0.39-0.13-0.83,0.12-1.18c0.25-0.34,0.65-0.53,1.08-0.48c0.03,0,3.1,0.31,7.88,0.31c10.58,0,30.48-1.51,44.88-11.64
								c0.45-0.32,1.06-0.28,1.47,0.09c0.41,0.37,0.51,0.97,0.24,1.45c-0.16,0.28-16.34,28.46-53.48,35.79
								C414.85,479,414.78,479,414.7,479z M415.71,455.49l0.33,0.73c0.07,0.16,0.11,0.33,0.1,0.5l-0.24,19.65
								c26.16-5.63,41.29-21.82,47.34-29.79c-14.26,7.82-31.69,9.08-41.42,9.08C419.21,455.66,417.12,455.57,415.71,455.49z"/>
						</g>
					</g>
				</g>
				<g>
					<g>
						<g>
							
								<ellipse transform="matrix(0.7071 -0.7071 0.7071 0.7071 -131.9051 493.5074)" class="st3" cx="529.76" cy="405.98" rx="9.85" ry="9.85"/>
						</g>
					</g>
					<g>
						<g>
							<path class="st2" d="M529.76,417.01c-6.09,0-11.04-4.95-11.04-11.04c0-6.09,4.95-11.04,11.04-11.04
								c6.09,0,11.04,4.95,11.04,11.04C540.8,412.06,535.85,417.01,529.76,417.01z M529.76,397.3c-4.78,0-8.67,3.89-8.67,8.67
								s3.89,8.67,8.67,8.67s8.67-3.89,8.67-8.67S534.55,397.3,529.76,397.3z"/>
						</g>
					</g>
				</g>
				<g>
					<g>
						<g>
							<path class="st2" d="M424.55,277.66c-0.18,0-0.37-0.04-0.55-0.13c-0.58-0.3-0.8-1.02-0.5-1.59
								c13.96-26.7,54.85-41.19,65.18-42.91c0.64-0.11,1.25,0.33,1.36,0.97c0.11,0.64-0.33,1.25-0.97,1.36
								c-10.07,1.68-49.92,15.77-63.47,41.68C425.39,277.43,424.97,277.66,424.55,277.66z"/>
						</g>
					</g>
				</g>
				<g>
					<g>
						<g>
							<path class="st7" d="M532.8,284.51c1.39-1.4,2.25-3.26,2.69-5.18c2.07-8.95-4.73-17.92-12.97-22
								c-5.36-2.65-12.8-3.39-16.49,1.31c-2,2.55-2.36,6.11-4.43,8.6c-3.13,3.78-8.9,3.78-13.73,2.9c-4.83-0.88-10-2.29-14.49-0.29
								c-5.56,2.48-7.83,9.62-6.44,15.55c1.39,5.92,5.6,10.77,10.09,14.87c3.75,3.43,8.09,6.65,13.14,7.23
								c5.05,0.58,10.82-2.43,11.63-7.45c0.37-2.3-0.31-4.71,0.24-6.98c0.9-3.71,4.87-5.93,8.66-6.35c3.79-0.42,7.59,0.49,11.4,0.76
								C525.91,287.74,530.1,287.21,532.8,284.51z"/>
						</g>
					</g>
				</g>
				<g>
					<g>
						<g>
							<path class="st2" d="M426.03,421.94c-0.35,0-0.7-0.15-0.93-0.45l-5.95-7.55c-0.4-0.51-0.32-1.26,0.2-1.66
								c0.51-0.4,1.26-0.32,1.66,0.2l5.95,7.55c0.4,0.51,0.32,1.26-0.2,1.66C426.54,421.86,426.29,421.94,426.03,421.94z"/>
						</g>
					</g>
				</g>
			</g>
		</g>
		<g>
			<g>
				<g>
					<g>
						<g>
							<path class="st6" d="M615.02,633.16c22.95,50.18,82.25,72.26,132.43,49.31c50.18-22.95,72.21-82.22,49.26-132.4
								c-5.93-12.97-14.32-24.09-24.35-33.02l-65.44,71.8l-99.65,18.54C608.6,616.1,611.18,624.77,615.02,633.16z"/>
						</g>
					</g>
					<g>
						<g>
							<path class="st2" d="M705.96,692.73C705.96,692.73,705.96,692.73,705.96,692.73c-39.48,0-75.6-23.19-92.01-59.07
								c-3.84-8.4-6.49-17.18-7.85-26.08c-0.1-0.63,0.32-1.22,0.95-1.34l99.26-18.47l65.18-71.51c0.44-0.48,1.18-0.52,1.66-0.09
								c10.48,9.32,18.77,20.56,24.64,33.41c23.19,50.7,0.83,110.8-49.84,133.97C734.62,689.64,720.49,692.73,705.96,692.73z
								 M608.61,608.35c1.38,8.3,3.89,16.47,7.49,24.32c16.03,35.05,51.3,57.69,89.86,57.69c14.19,0,27.99-3.02,41-8.97
								c49.48-22.63,71.32-81.32,48.68-130.84c-5.57-12.18-13.37-22.89-23.19-31.84l-64.65,70.93c-0.17,0.19-0.4,0.32-0.66,0.37
								L608.61,608.35z"/>
						</g>
					</g>
				</g>
			</g>
			<g>
				<g>
					<g>
						<g>
							<path class="st8" d="M583.25,594.35l99.64-18.53l-40.65-88.88c-0.02-0.05-1.26,0.52-1.9,0.81
								C598.56,506.85,576.27,551.1,583.25,594.35z"/>
						</g>
					</g>
					<g>
						<g>
							<path class="st2" d="M583.25,595.53c-0.24,0-0.48-0.07-0.68-0.22c-0.26-0.18-0.44-0.46-0.49-0.78
								c-7.21-44.66,16.54-89.02,57.76-107.87c1.96-0.89,2.08-0.92,2.39-0.92c0.46,0,0.89,0.27,1.08,0.69l40.65,88.88
								c0.15,0.33,0.14,0.71-0.03,1.04c-0.17,0.32-0.47,0.55-0.83,0.62l-99.64,18.53C583.4,595.52,583.32,595.53,583.25,595.53z
								 M641.64,488.45c-0.3,0.14-0.61,0.28-0.79,0.36c-39.91,18.25-63.05,60.95-56.62,104.15l96.95-18.04L641.64,488.45z"/>
						</g>
					</g>
				</g>
			</g>
			<g>
				<g>
					<g>
						<g>
							<path class="st9" d="M666.26,499.97l40.65,88.88l65.44-71.8C744.16,491.92,702.97,484.09,666.26,499.97z"/>
						</g>
					</g>
					<g>
						<g>
							<path class="st2" d="M706.91,590.04c-0.06,0-0.12,0-0.18-0.01c-0.39-0.06-0.73-0.32-0.89-0.68l-40.65-88.88
								c-0.13-0.29-0.14-0.62-0.03-0.92c0.11-0.3,0.34-0.53,0.63-0.66c12.78-5.53,26.27-8.34,40.09-8.34
								c24.84,0,48.72,9.1,67.26,25.62c0.24,0.21,0.38,0.51,0.39,0.82c0.02,0.32-0.09,0.62-0.31,0.86l-65.44,71.8
								C707.56,589.9,707.24,590.04,706.91,590.04z M667.84,500.59l39.4,86.15l63.43-69.59c-17.97-15.64-40.93-24.23-64.79-24.23
								C692.79,492.92,679.99,495.5,667.84,500.59z"/>
						</g>
					</g>
				</g>
			</g>
		</g>
		<g>
			<g>
				<g>
					<g>
						<g>
							<path class="st10" d="M586.55,368.74l41.38,52.8c0,0,20.28-26.14,46.6-34.82c26.32-8.68,51.8-7.59,90.74-47.84l-44.96-57.37
								c0,0-38.07,33.78-65.22,38.15C627.95,324.04,595.99,350.45,586.55,368.74z"/>
						</g>
					</g>
				</g>
				<g>
					<g>
						<g>
							<path class="st2" d="M627.93,422.72c-0.36,0-0.71-0.17-0.93-0.45l-41.38-52.8c-0.29-0.36-0.33-0.86-0.12-1.27
								c10.02-19.43,42.53-45.37,69.41-49.7c26.5-4.27,64.24-37.54,64.62-37.87c0.24-0.22,0.57-0.33,0.89-0.29
								c0.32,0.03,0.62,0.19,0.82,0.45l44.96,57.37c0.36,0.46,0.33,1.13-0.08,1.55c-31.34,32.39-53.73,38.14-75.39,43.7
								c-5.44,1.4-10.57,2.71-15.83,4.45c-25.68,8.46-45.83,34.16-46.04,34.42C628.64,422.55,628.3,422.72,627.93,422.72
								C627.93,422.72,627.93,422.72,627.93,422.72z M587.95,368.62l39.99,51.03c4.34-5.22,23.05-26.41,46.21-34.05
								c5.33-1.76,10.51-3.09,15.98-4.49c21.18-5.43,43.07-11.05,73.57-42.31l-43.55-55.58c-6.17,5.34-39.75,33.56-64.87,37.61
								c-12.29,1.98-26.63,8.76-40.39,19.1C602.78,349.03,592.77,359.69,587.95,368.62z"/>
						</g>
					</g>
				</g>
			</g>
			<g>
				<g>
					<g>
						<path class="st3" d="M719.25,287.58c-0.52-0.04-1.05,0.12-1.47,0.47c-0.36,0.3-36.26,29.98-60.18,34.04
							c-24.72,4.19-55.91,27.72-66.25,45.16c-0.42,0.71-0.37,1.59,0.12,2.21l0.01,0.01l35.65,44.87c0.37,0.46,0.93,0.72,1.53,0.71
							c0.6-0.01,1.17-0.3,1.55-0.77c0.18-0.23,18.63-23,42.04-30.7c5.02-1.65,10-2.9,15.26-4.23c19.46-4.9,41.53-10.45,71.63-39.29
							c0.75-0.72,0.85-1.87,0.23-2.66l0-0.01l-38.79-49.11C720.24,287.88,719.77,287.62,719.25,287.58z M686.67,375.51
							c-5.34,1.34-10.38,2.61-15.54,4.31c-16.27,5.35-29.94,17.25-37.54,24.96c-1.93-1.64-5.48-3.59-9.94-1.27l-24.85-31.28
							c3.66-4,2.5-8.14,1.31-10.47c12.91-15.15,38.08-32.41,58-35.79c18.92-3.21,43.94-20.87,55.62-29.8
							c1.73,1.59,5.13,3.76,9.48,1.94l27.14,34.36c-3.18,4.3-1.24,8.6-0.07,10.48C724.2,366.07,705.14,370.86,686.67,375.51z"/>
					</g>
				</g>
				<g>
					<g>
						<path class="st2" d="M628.61,416.22c-0.95,0-1.83-0.42-2.41-1.16l-35.65-44.87c-0.81-1.03-0.89-2.42-0.22-3.56
							c10.47-17.66,42.05-41.48,67.07-45.72c23.71-4.02,59.26-33.48,59.62-33.78c0.65-0.54,1.49-0.81,2.32-0.74
							c0.84,0.07,1.63,0.49,2.15,1.15l38.79,49.11c1,1.28,0.86,3.1-0.34,4.25c-30.33,29.05-52.55,34.64-72.15,39.58
							c-5.25,1.32-10.2,2.57-15.18,4.21c-23.04,7.58-41.3,30.09-41.48,30.32c-0.6,0.75-1.49,1.2-2.45,1.22
							C628.67,416.22,628.62,416.22,628.61,416.22z M719.08,288.75c-0.2,0-0.39,0.07-0.54,0.2c-0.36,0.3-36.4,30.17-60.74,34.29
							c-24.41,4.14-55.22,27.37-65.43,44.6c-0.17,0.29-0.16,0.64,0.03,0.88l35.65,44.87c0.13,0.17,0.34,0.26,0.56,0.26v1.18
							l0.02-1.18c0.25,0,0.49-0.13,0.65-0.33c0.19-0.23,18.85-23.28,42.59-31.09c5.06-1.67,10.06-2.92,15.34-4.25
							c19.33-4.86,41.23-10.37,71.1-38.99c0.31-0.29,0.36-0.77,0.12-1.07l-38.79-49.11c-0.12-0.15-0.3-0.24-0.49-0.26L719.08,288.75
							z M633.6,405.96c-0.27,0-0.54-0.09-0.77-0.28c-1.1-0.94-2.88-2.06-5.08-2.06c-1.17,0-2.36,0.32-3.55,0.94
							c-0.5,0.26-1.12,0.13-1.47-0.31l-24.85-31.28c-0.36-0.45-0.34-1.1,0.05-1.53c3.07-3.36,2.31-6.82,1.13-9.14
							c-0.22-0.43-0.16-0.94,0.15-1.3c12.85-15.08,38.32-32.73,58.7-36.19c19.02-3.23,44.87-21.76,55.1-29.57
							c0.46-0.35,1.09-0.32,1.52,0.07c1.16,1.06,3.03,2.32,5.38,2.32c0.93,0,1.89-0.2,2.84-0.6c0.49-0.21,1.06-0.06,1.39,0.36
							l27.14,34.36c0.33,0.42,0.34,1.01,0.02,1.44c-2.7,3.65-1.17,7.3-0.02,9.15c0.3,0.49,0.21,1.13-0.22,1.51
							c-26.3,23.31-45.52,28.15-64.1,32.83c-5.34,1.34-10.35,2.6-15.46,4.28c-16.41,5.4-30.26,17.77-37.06,24.66
							C634.21,405.84,633.9,405.96,633.6,405.96z M627.75,401.26c2.38,0,4.34,0.95,5.74,1.94c8.52-8.51,21.69-19.38,37.27-24.51
							c5.19-1.71,10.24-2.98,15.59-4.32c18.17-4.57,36.93-9.29,62.43-31.68c-1.12-2.16-2.41-6.12,0.11-10.18l-26.07-33
							c-0.97,0.31-1.94,0.47-2.9,0.47c-2.62,0-4.74-1.14-6.22-2.3c-13.06,9.91-36.91,26.31-55.39,29.45
							c-19.59,3.32-44.08,20.19-56.8,34.82c1.05,2.43,1.87,6.39-1.18,10.3L624,402.04C625.24,401.52,626.5,401.26,627.75,401.26z"/>
					</g>
				</g>
			</g>
			<g>
				<g>
					<g>
						<g>
							<path class="st11" d="M649.44,358.78c-5.4-8.62-3.49-24.78,12.73-28.46c16.22-3.69,23.69-11.22,35.47,2.59
								c11.78,13.81-3.78,33.38-14.03,38.18S657.07,370.95,649.44,358.78z"/>
						</g>
					</g>
				</g>
				<g>
					<g>
						<g>
							<path class="st2" d="M674.84,374.08c-10.29,0-20.9-5.9-26.4-14.68c-3.3-5.26-3.82-12.52-1.34-18.49
								c2.48-5.97,7.74-10.14,14.81-11.75c3.62-0.82,6.86-1.86,9.72-2.77c4.43-1.42,8.26-2.64,12-2.64c5.36,0,9.96,2.59,14.91,8.39
								c3.97,4.65,5.35,10.43,3.99,16.71c-2.19,10.1-11.26,19.96-18.41,23.31C681.38,373.44,678.26,374.08,674.84,374.08z
								 M683.63,326.11c-3.37,0-7.04,1.17-11.28,2.53c-2.9,0.93-6.2,1.98-9.91,2.83c-8.08,1.84-11.61,6.64-13.15,10.35
								c-2.2,5.29-1.74,11.7,1.16,16.33c5.09,8.11,14.89,13.57,24.4,13.57c3.07,0,5.86-0.57,8.27-1.7
								c6.64-3.11,15.07-12.28,17.11-21.67c1.22-5.61,0.05-10.54-3.48-14.67C692.22,328.37,688.3,326.11,683.63,326.11z"/>
						</g>
					</g>
				</g>
			</g>
			<g>
				<g>
					<g>
						<g>
							<path class="st11" d="M724.86,333.64c3.68-2.94,4.38-8.22,1.58-11.8c-2.8-3.57-8.05-4.09-11.73-1.15
								c-3.68,2.94-4.38,8.22-1.58,11.8C715.93,336.07,721.18,336.58,724.86,333.64z"/>
						</g>
					</g>
				</g>
				<g>
					<g>
						<g>
							<path class="st2" d="M719.48,336.73L719.48,336.73c-2.88,0-5.53-1.28-7.28-3.51c-3.19-4.08-2.4-10.11,1.77-13.45
								c1.75-1.4,3.92-2.17,6.12-2.17c2.88,0,5.53,1.28,7.28,3.51c3.19,4.08,2.4,10.11-1.77,13.45
								C723.85,335.96,721.68,336.73,719.48,336.73z M720.09,319.96c-1.66,0-3.31,0.59-4.64,1.65c-3.17,2.53-3.79,7.09-1.39,10.15
								c1.3,1.65,3.27,2.6,5.42,2.6h0c1.66,0,3.31-0.59,4.64-1.65c3.17-2.53,3.79-7.09,1.39-10.15
								C724.21,320.91,722.24,319.96,720.09,319.96z"/>
						</g>
					</g>
				</g>
			</g>
			<g>
				<g>
					<g>
						<g>
							<path class="st11" d="M629.78,380.82c3.68-2.94,4.38-8.22,1.58-11.8c-2.8-3.57-8.05-4.09-11.73-1.15
								c-3.68,2.94-4.38,8.22-1.58,11.8C620.85,383.25,626.1,383.76,629.78,380.82z"/>
						</g>
					</g>
				</g>
				<g>
					<g>
						<g>
							<path class="st2" d="M624.4,383.91L624.4,383.91c-2.88,0-5.53-1.28-7.28-3.51c-3.2-4.08-2.4-10.11,1.77-13.45
								c1.75-1.4,3.92-2.17,6.12-2.17c2.88,0,5.53,1.28,7.28,3.51c3.2,4.08,2.4,10.11-1.77,13.45
								C628.77,383.14,626.59,383.91,624.4,383.91z M625.01,367.15c-1.66,0-3.31,0.59-4.64,1.65c-3.17,2.53-3.79,7.09-1.39,10.15
								c1.3,1.65,3.27,2.6,5.42,2.6h0c1.66,0,3.31-0.59,4.64-1.65c3.17-2.53,3.79-7.09,1.39-10.15
								C629.13,368.1,627.15,367.15,625.01,367.15z"/>
						</g>
					</g>
				</g>
			</g>
		</g>
		<g>
			<g>
				<g>
					<g>
						<g>
							<path class="st10" d="M22.06,522.99L1.44,595.41c0,0,37.12,1.15,62.37,19.32s41.09,42.02,103.34,50.8l22.41-78.69
								c0,0-55.8-12.27-77.69-34.03C89.98,531.07,44.9,519.48,22.06,522.99z"/>
						</g>
					</g>
				</g>
				<g>
					<g>
						<g>
							<path class="st2" d="M167.15,666.72c-0.05,0-0.11,0-0.17-0.01c-50.06-7.06-70.04-23.59-89.37-39.57
								c-4.86-4.02-9.44-7.81-14.49-11.44C38.46,597.95,1.77,596.6,1.4,596.59c-0.36-0.01-0.7-0.19-0.92-0.48
								c-0.21-0.29-0.28-0.67-0.18-1.02l20.62-72.42c0.13-0.44,0.5-0.77,0.96-0.84c2.73-0.42,5.81-0.63,9.16-0.63
								c24.91,0,62.26,11.52,81.66,30.8c21.4,21.27,76.56,33.59,77.11,33.71c0.32,0.07,0.59,0.27,0.76,0.55
								c0.17,0.28,0.21,0.62,0.12,0.93l-22.41,78.69C168.14,666.38,167.67,666.72,167.15,666.72z M2.98,594.31
								c7.26,0.46,39.15,3.37,61.52,19.47c5.11,3.68,9.73,7.5,14.62,11.54c18.94,15.67,38.53,31.86,87.18,38.91l21.78-76.5
								c-8.52-1.98-56.7-13.85-77.04-34.06c-18.97-18.85-55.57-30.11-80-30.11c-2.92,0-5.62,0.17-8.05,0.5L2.98,594.31z"/>
						</g>
					</g>
				</g>
			</g>
			<g>
				<g>
					<g>
						<path class="st3" d="M183.35,589.89c-0.31-0.51-0.81-0.87-1.39-1.02c-0.51-0.13-51.16-13.13-70.63-32.17
							c-20.12-19.67-62.07-32.46-84.73-30.34c-0.92,0.09-1.69,0.71-1.93,1.57l0,0.01l-17.2,61.98c-0.18,0.64-0.04,1.32,0.36,1.85
							c0.41,0.54,1.04,0.87,1.72,0.9c0.33,0.02,33.18,1.73,55.62,17.9c4.82,3.47,9.24,7.16,13.91,11.07
							c17.3,14.44,36.88,30.8,82.94,39.09c1.15,0.21,2.18-0.49,2.55-1.55l0-0.01l18.99-67.63
							C183.72,590.99,183.65,590.39,183.35,589.89z M82.01,618.36c-4.74-3.96-9.22-7.7-14.17-11.27
							c-15.6-11.24-35.42-15.79-47.44-17.6c0.22-2.84-0.36-7.35-5.42-9.86l11.99-43.21c6.04,0.68,9.04-3.11,10.37-5.72
							c22.28,1.72,54.56,13.18,70.78,29.03c15.4,15.06,47.95,26.11,63.77,30.83c-0.3,2.62-0.03,7.14,4.5,9.88l-13.28,47.32
							c-6-0.05-8.63,4.55-9.56,6.85C115.36,646.2,98.42,632.06,82.01,618.36z"/>
					</g>
				</g>
				<g>
					<g>
						<path class="st2" d="M162.42,661.94L162.42,661.94c-0.2,0-0.41-0.02-0.61-0.05c-46.35-8.35-66.07-24.81-83.47-39.34
							c-4.67-3.9-9.08-7.58-13.86-11.02c-22.15-15.96-54.66-17.66-54.99-17.68c-1.04-0.05-1.99-0.54-2.61-1.36
							c-0.63-0.83-0.84-1.88-0.56-2.88l17.2-61.98c0.39-1.36,1.55-2.31,2.96-2.44c1.67-0.16,3.46-0.24,5.34-0.24
							c23.53,0,61.42,12.42,80.33,30.91c19.04,18.62,69.58,31.74,70.09,31.87c0.89,0.23,1.64,0.78,2.11,1.56
							c0.47,0.78,0.59,1.7,0.34,2.59l-18.99,67.63c-0.01,0.03-0.02,0.06-0.03,0.09C165.19,660.99,163.88,661.94,162.42,661.94z
							 M31.83,527.31c-1.81,0-3.53,0.08-5.12,0.22c-0.44,0.04-0.79,0.32-0.91,0.71L8.6,590.24c-0.08,0.28-0.02,0.58,0.17,0.82
							c0.19,0.26,0.51,0.42,0.84,0.43c0.33,0.02,33.51,1.73,56.26,18.12c4.85,3.5,9.29,7.2,13.98,11.12
							c17.19,14.35,36.66,30.6,82.39,38.84c0.53,0.09,1.02-0.22,1.22-0.75l18.98-67.59c0.07-0.26,0.04-0.51-0.09-0.73
							c-0.14-0.24-0.39-0.42-0.67-0.49c-0.51-0.13-51.36-13.1-71.16-32.47C92.01,539.46,54.89,527.31,31.83,527.31z M153.56,655.79
							c-0.08,0-0.17-0.01-0.25-0.03c-38.49-8.48-55.56-22.72-72.06-36.5c-4.73-3.95-9.19-7.67-14.1-11.21
							c-15.76-11.35-36.16-15.77-46.92-17.39c-0.61-0.09-1.05-0.64-1-1.26c0.21-2.79-0.44-6.57-4.76-8.71
							c-0.51-0.25-0.76-0.83-0.61-1.37l11.99-43.21c0.16-0.56,0.7-0.92,1.27-0.86c0.43,0.05,0.85,0.07,1.26,0.07
							c4.38,0,6.73-2.8,7.93-5.16c0.22-0.42,0.67-0.68,1.14-0.64c22.14,1.71,54.95,13.17,71.52,29.37
							c14.95,14.62,46.07,25.41,63.28,30.54c0.55,0.16,0.9,0.7,0.84,1.27c-0.31,2.71,0.12,6.43,3.94,8.74
							c0.45,0.28,0.67,0.82,0.53,1.33l-13.28,47.32c-0.14,0.51-0.6,0.87-1.15,0.86l-0.09,0c-5.12,0-7.45,3.83-8.38,6.12
							C154.47,655.51,154.03,655.79,153.56,655.79z M21.62,588.48c13.34,2.11,31.95,6.88,46.91,17.65
							c4.98,3.59,9.47,7.34,14.22,11.31c16.16,13.49,32.86,27.43,70.13,35.81c1.19-2.42,3.93-6.29,9.34-6.65l12.81-45.65
							c-3.89-2.78-4.5-6.81-4.38-9.54c-17.59-5.3-48.29-16.13-63.34-30.84c-15.99-15.64-47.58-26.76-69.29-28.64
							c-1.41,2.41-4.32,5.74-9.65,5.74c-0.17,0-0.34,0-0.52-0.01l-11.48,41.37C20.74,581.63,21.61,585.68,21.62,588.48z"/>
					</g>
				</g>
			</g>
			<g>
				<g>
					<g>
						<g>
							<path class="st11" d="M72.62,573.52c4.26-10.6,20.19-19.53,34.24-7.24c14.05,12.29,25.82,14.11,21.06,33.91
								C123.16,620,95.13,618.8,84,612.66C72.88,606.52,66.61,588.48,72.62,573.52z"/>
						</g>
					</g>
				</g>
				<g>
					<g>
						<g>
							<path class="st2" d="M101.97,617.82c-6.82,0-13.93-1.58-18.54-4.13c-12.31-6.8-17.87-25.78-11.91-40.62
								c2.78-6.92,10.79-13.92,20.71-13.92c5.41,0,10.74,2.16,15.4,6.24c3.14,2.75,6.22,5.01,8.94,7
								c9.5,6.96,16.36,11.99,12.49,28.08C126.46,611.34,116.33,617.82,101.97,617.82z M92.24,561.52
								c-8.87,0-16.03,6.26-18.52,12.44c-5.97,14.84,0.81,32.12,10.86,37.67c4.28,2.36,10.95,3.83,17.39,3.83
								c6.34,0,21.44-1.51,24.81-15.54c3.5-14.56-2.18-18.72-11.59-25.62c-2.76-2.02-5.88-4.31-9.1-7.13
								C101.8,563.42,97.14,561.52,92.24,561.52z"/>
						</g>
					</g>
				</g>
			</g>
			<g>
				<g>
					<g>
						<g>
							<path class="st11" d="M145.23,625.39c5.1,1.4,10.36-1.45,11.76-6.35c1.4-4.9-1.6-10.01-6.7-11.4
								c-5.1-1.39-10.36,1.45-11.76,6.35C137.14,618.89,140.14,623.99,145.23,625.39z"/>
						</g>
					</g>
				</g>
				<g>
					<g>
						<g>
							<path class="st2" d="M147.86,626.92L147.86,626.92c-0.99,0-1.98-0.13-2.94-0.4c-2.83-0.78-5.17-2.58-6.59-5.09
								c-1.35-2.4-1.68-5.16-0.94-7.78c1.27-4.45,5.49-7.57,10.27-7.57c0.99,0,1.98,0.13,2.94,0.4c2.83,0.78,5.17,2.58,6.59,5.09
								c1.35,2.4,1.68,5.16,0.94,7.78C156.86,623.81,152.63,626.92,147.86,626.92z M147.66,608.46c-3.73,0-7.01,2.41-7.99,5.85
								c-0.57,2.01-0.31,4.13,0.72,5.97c1.1,1.95,2.93,3.36,5.15,3.97c0.76,0.21,1.54,0.31,2.31,0.31c3.73,0,7.01-2.41,7.99-5.85
								c0.57-2.01,0.31-4.13-0.72-5.97c-1.1-1.95-2.93-3.36-5.15-3.97C149.22,608.56,148.44,608.46,147.66,608.46z"/>
						</g>
					</g>
				</g>
			</g>
			<g>
				<g>
					<g>
						<g>
							<path class="st11" d="M39.63,570.21c5.1,1.39,10.36-1.45,11.76-6.35c1.4-4.9-1.6-10.01-6.7-11.4
								c-5.1-1.39-10.36,1.45-11.76,6.35C31.53,563.71,34.53,568.81,39.63,570.21z"/>
						</g>
					</g>
				</g>
				<g>
					<g>
						<g>
							<path class="st2" d="M42.25,571.75L42.25,571.75c-0.99,0-1.98-0.13-2.94-0.4c-2.83-0.78-5.17-2.58-6.59-5.09
								c-1.35-2.4-1.68-5.16-0.94-7.78c1.27-4.45,5.49-7.57,10.27-7.57c0.99,0,1.98,0.13,2.94,0.4c2.83,0.78,5.17,2.58,6.59,5.09
								c1.35,2.4,1.68,5.16,0.94,7.78C51.25,568.63,47.03,571.75,42.25,571.75z M42.06,553.28c-3.73,0-7.01,2.41-7.99,5.85
								c-0.57,2.01-0.31,4.13,0.72,5.97c1.1,1.95,2.93,3.36,5.15,3.97c0.76,0.21,1.54,0.31,2.31,0.31c3.73,0,7.01-2.41,7.99-5.85
								c0.57-2.01,0.31-4.13-0.72-5.97c-1.1-1.95-2.93-3.36-5.15-3.97C43.61,553.38,42.84,553.28,42.06,553.28z"/>
						</g>
					</g>
				</g>
			</g>
		</g>
	</g>
	<g>
		<g>
			<g>
				<g>
					<rect x="464.83" y="78.32" class="st9" width="29.87" height="104.25"/>
				</g>
			</g>
			<g>
				<g>
					<path class="st2" d="M494.69,183.75h-29.87c-0.65,0-1.18-0.53-1.18-1.18V78.32c0-0.65,0.53-1.18,1.18-1.18h29.87
						c0.65,0,1.18,0.53,1.18,1.18v104.25C495.87,183.22,495.34,183.75,494.69,183.75z M466.01,181.39h27.5V79.5h-27.5V181.39z"/>
				</g>
			</g>
		</g>
		<g>
			<g>
				<g>
					<rect x="380.86" y="78.32" class="st9" width="29.87" height="104.25"/>
				</g>
			</g>
			<g>
				<g>
					<path class="st2" d="M410.73,183.75h-29.87c-0.65,0-1.18-0.53-1.18-1.18V78.32c0-0.65,0.53-1.18,1.18-1.18h29.87
						c0.65,0,1.18,0.53,1.18,1.18v104.25C411.91,183.22,411.38,183.75,410.73,183.75z M382.04,181.39h27.5V79.5h-27.5V181.39z"/>
				</g>
			</g>
		</g>
		<g>
			<g>
				<g>
					<rect x="336.35" y="98.6" class="st9" width="29.87" height="83.96"/>
				</g>
			</g>
			<g>
				<g>
					<path class="st2" d="M366.21,183.75h-29.87c-0.65,0-1.18-0.53-1.18-1.18V98.6c0-0.65,0.53-1.18,1.18-1.18h29.87
						c0.65,0,1.18,0.53,1.18,1.18v83.96C367.39,183.22,366.86,183.75,366.21,183.75z M337.53,181.39h27.5v-81.6h-27.5V181.39z"/>
				</g>
			</g>
		</g>
		<g>
			<g>
				<g>
					<g>
						<rect x="423.69" y="117.76" class="st9" width="29.87" height="65.37"/>
					</g>
				</g>
			</g>
			<g>
				<g>
					<g>
						<path class="st2" d="M453.56,184.31h-29.87c-0.65,0-1.18-0.53-1.18-1.18v-65.37c0-0.65,0.53-1.18,1.18-1.18h29.87
							c0.65,0,1.18,0.53,1.18,1.18v65.37C454.74,183.78,454.21,184.31,453.56,184.31z M424.87,181.95h27.5v-63h-27.5V181.95z"/>
					</g>
				</g>
			</g>
		</g>
		<g>
			<g>
				<g>
					<g>
						<rect x="294.08" y="117.76" class="st9" width="29.87" height="65.37"/>
					</g>
				</g>
			</g>
			<g>
				<g>
					<g>
						<path class="st2" d="M323.95,184.31h-29.87c-0.65,0-1.18-0.53-1.18-1.18v-65.37c0-0.65,0.53-1.18,1.18-1.18h29.87
							c0.65,0,1.18,0.53,1.18,1.18v65.37C325.13,183.78,324.6,184.31,323.95,184.31z M295.26,181.95h27.5v-63h-27.5V181.95z"/>
					</g>
				</g>
			</g>
		</g>
		<g>
			<g>
				<g>
					<path class="st2" d="M285.21,108.1c-0.45,0-0.87-0.25-1.07-0.69c-0.27-0.59-0.02-1.29,0.58-1.57l109.46-50.72
						c0.41-0.19,0.89-0.13,1.24,0.15l41.95,33.65l42.37-33.23c0.51-0.4,1.26-0.31,1.66,0.2c0.4,0.51,0.31,1.26-0.2,1.66
						l-43.11,33.81c-0.43,0.34-1.04,0.34-1.47-0.01L394.5,57.58l-108.8,50.41C285.54,108.06,285.37,108.1,285.21,108.1z"/>
				</g>
			</g>
		</g>
		<g>
			<g>
				<g>
					<circle class="st3" cx="481.94" cy="55.36" r="7.82"/>
				</g>
			</g>
			<g>
				<g>
					<path class="st2" d="M481.94,64.36c-4.96,0-9-4.04-9-9c0-4.96,4.04-9,9-9s9,4.04,9,9C490.94,60.32,486.9,64.36,481.94,64.36z
						 M481.94,48.72c-3.66,0-6.64,2.98-6.64,6.64s2.98,6.64,6.64,6.64c3.66,0,6.64-2.98,6.64-6.64S485.6,48.72,481.94,48.72z"/>
				</g>
			</g>
		</g>
		<g>
			<g>
				<g>
					
						<ellipse transform="matrix(0.3827 -0.9239 0.9239 0.3827 188.5853 460.1469)" class="st3" cx="438.62" cy="88.95" rx="7.82" ry="7.82"/>
				</g>
			</g>
			<g>
				<g>
					<path class="st2" d="M438.62,97.95c-4.96,0-9-4.04-9-9c0-4.96,4.04-9,9-9c4.96,0,9,4.04,9,9
						C447.62,93.92,443.58,97.95,438.62,97.95z M438.62,82.32c-3.66,0-6.64,2.98-6.64,6.64c0,3.66,2.98,6.64,6.64,6.64
						c3.66,0,6.64-2.98,6.64-6.64C445.26,85.29,442.28,82.32,438.62,82.32z"/>
				</g>
			</g>
		</g>
		<g>
			<g>
				<g>
					
						<ellipse transform="matrix(0.9732 -0.2298 0.2298 0.9732 -2.36 92.1316)" class="st3" cx="394.46" cy="56.2" rx="7.82" ry="7.82"/>
				</g>
			</g>
			<g>
				<g>
					<path class="st2" d="M394.46,65.2c-4.96,0-9-4.04-9-9c0-4.96,4.04-9,9-9c4.96,0,9,4.04,9,9
						C403.46,61.16,399.42,65.2,394.46,65.2z M394.46,49.56c-3.66,0-6.64,2.98-6.64,6.64s2.98,6.64,6.64,6.64s6.64-2.98,6.64-6.64
						S398.12,49.56,394.46,49.56z"/>
				</g>
			</g>
		</g>
		<g>
			<g>
				<g>
					
						<ellipse transform="matrix(0.9732 -0.2298 0.2298 0.9732 -16.5757 68.9363)" class="st3" cx="287.74" cy="105.65" rx="7.82" ry="7.82"/>
				</g>
			</g>
			<g>
				<g>
					<path class="st2" d="M287.74,114.65c-4.96,0-9-4.04-9-9c0-4.96,4.04-9,9-9s9,4.04,9,9
						C296.74,110.61,292.71,114.65,287.74,114.65z M287.74,99.01c-3.66,0-6.64,2.98-6.64,6.64c0,3.66,2.98,6.64,6.64,6.64
						c3.66,0,6.64-2.98,6.64-6.64C294.38,101.99,291.4,99.01,287.74,99.01z"/>
				</g>
			</g>
		</g>
	</g>
</g>
</svg>
