<?xml version="1.0" encoding="utf-8"?>
<!-- Generator: Adobe Illustrator 28.1.0, SVG Export Plug-In . SVG Version: 6.00 Build 0)  -->
<svg version="1.1" id="圖層_1" xmlns="http://www.w3.org/2000/svg" xmlns:xlink="http://www.w3.org/1999/xlink" x="0px" y="0px"
	 viewBox="0 0 385 127" style="enable-background:new 0 0 385 127;" xml:space="preserve">
<style type="text/css">
	.st0{fill:#C4193D;}
	.st1{fill:#FFFFFF;}
	.st2{fill:#142784;}
</style>
<g>
	<path class="st0" d="M376,21.73c-4.16,0-7.57,3.17-7.96,7.22L29.63,10.15C27.26,4.99,22.05,1.39,16,1.39c-8.28,0-15,6.72-15,15v90
		c0,8.28,6.72,15,15,15c6.05,0,11.26-3.59,13.63-8.76l146.22-8.12l0.08,2.83c0.23,8.16,5.64,15.19,13.46,17.5
		c1.9,0.56,3.87,0.81,5.86,0.76l105.97-5.88c10.36-0.3,18.55-8.97,18.26-19.33l-0.11-3.85l48.63-2.7c0.06,4.37,3.61,7.89,7.99,7.89
		c4.42,0,8-3.58,8-8v-64C384,25.31,380.42,21.73,376,21.73z M306.95,100.75c0.1,3.45-2.63,6.34-6.09,6.44l-105.97,5.88
		c-0.67,0.02-1.32-0.06-1.96-0.25c-2.61-0.77-4.41-3.11-4.49-5.84l-0.09-3.17l118.49-6.58L306.95,100.75z"/>
	<g>
		<path class="st1" d="M38.66,77.65c-0.23-0.4-0.35-1.04-0.35-1.86c0-0.47,0-0.7,0-1.17c0-1.11,0.14-1.82,0.35-2.17
			c0.2-0.33,0.63-0.54,1.26-0.55c6.25-0.11,9.37-0.17,15.62-0.28c1.02-0.59,1.53-0.88,2.55-1.46c-4.69,0.07-7.04,0.11-11.74,0.18
			c-0.63,0.01-1.02-0.16-1.26-0.56c-0.24-0.4-0.35-1.03-0.35-1.84c-1.93,0.02-2.9,0.03-4.83,0.06c-0.47,0.01-0.79-0.17-0.98-0.51
			c-0.2-0.35-0.27-0.93-0.27-1.86c0-2.73,0-4.1,0-6.83c0-0.99,0.07-1.66,0.27-1.98c0.18-0.29,0.51-0.46,0.98-0.46
			c0.16,0,0.24,0,0.39,0c0-7.7,0-11.56,0-19.26c0-0.7,0.1-1.16,0.31-1.44c0.2-0.26,0.67-0.38,1.33-0.35
			c2.14,0.09,3.2,0.13,5.34,0.22c0.63,0.03,1.08,0.16,1.3,0.45c0.2,0.27,0.31,0.76,0.31,1.45c0,0.57,0,0.86,0,1.43
			c0,0.92-0.12,1.49-0.31,1.77c-0.24,0.34-0.67,0.44-1.3,0.42c-0.24-0.01-0.35-0.01-0.59-0.02c-0.51-0.02-0.78,0.38-0.78,1.24
			c0,0.12,0,0.17,0,0.29c0.5,0.01,0.75,0.02,1.26,0.04c0.67,0.02,1.16,0.15,1.37,0.5c0.2,0.33,0.31,1.1,0.31,2.13
			c0,0.18,0,0.28,0,0.46c0,0.86-0.11,1.46-0.31,1.83c-0.21,0.39-0.71,0.56-1.37,0.55c-0.5-0.01-0.75-0.02-1.26-0.03
			c0,0.6,0,0.9,0,1.5c0.5,0.01,0.75,0.01,1.26,0.02c0.67,0.01,1.18,0.2,1.37,0.48c0.21,0.3,0.31,1.1,0.31,2.19c0,0.16,0,0.24,0,0.4
			c0,0.86-0.11,1.46-0.31,1.83c-0.21,0.39-0.71,0.57-1.37,0.56c-0.5,0-0.75-0.01-1.26-0.01c0,0.55,0,0.83,0,1.38
			c8.07,0.06,12.11,0.08,20.18,0.14c0-0.54,0-0.8,0-1.34c-0.5,0-0.75-0.01-1.26-0.01c-0.67-0.01-1.16-0.18-1.37-0.57
			c-0.2-0.37-0.31-0.96-0.31-1.8c0-0.16,0-0.24,0-0.39c0-1.07,0.11-1.84,0.31-2.12c0.19-0.27,0.71-0.44,1.37-0.42
			c0.5,0.01,0.75,0.01,1.26,0.02c0-0.58,0-0.87,0-1.45c-0.5-0.01-0.75-0.02-1.26-0.03c-0.67-0.01-1.16-0.2-1.37-0.59
			c-0.2-0.37-0.31-0.96-0.31-1.8c0-0.18,0-0.27,0-0.45c0-1.01,0.11-1.76,0.31-2.06c0.21-0.33,0.71-0.43,1.37-0.41
			c0.5,0.01,0.75,0.02,1.26,0.04c0-0.11,0-0.17,0-0.28c0-0.84-0.27-1.24-0.78-1.25c-0.24-0.01-0.35-0.01-0.59-0.02
			c-0.63-0.02-1.06-0.15-1.3-0.49c-0.2-0.29-0.31-0.85-0.31-1.75c0-0.56,0-0.84,0-1.4c0-0.67,0.12-1.14,0.31-1.39
			c0.21-0.27,0.67-0.37,1.3-0.34c2.14,0.09,3.2,0.13,5.34,0.22c0.67,0.03,1.14,0.18,1.33,0.44c0.21,0.28,0.31,0.73,0.31,1.39
			c0,7.32,0,10.98,0,18.29c0.16,0,0.24,0,0.39,0c0.47,0,0.8,0.18,0.98,0.45c0.2,0.31,0.28,0.94,0.28,1.88c0,2.58,0,3.87,0,6.45
			c0,0.88-0.08,1.43-0.28,1.77c-0.2,0.33-0.51,0.5-0.98,0.51c-1.93,0.02-2.9,0.03-4.83,0.06c0,0.22,0,0.33,0,0.56
			c0,0.78-0.2,1.34-0.63,1.57c-1.04,0.66-1.55,1-2.59,1.66c3.19-0.06,4.78-0.09,7.97-0.14c0.67-0.01,1.13,0.17,1.33,0.47
			c0.21,0.32,0.35,0.98,0.35,2.03c0,0.44,0,0.66,0,1.1c0,0.77-0.12,1.38-0.35,1.77c-0.2,0.33-0.67,0.57-1.33,0.59
			c-4.96,0.14-7.44,0.21-12.4,0.35c0,2.39,0,3.59,0,5.98c0,0.68-0.14,1.14-0.35,1.42c-0.2,0.27-0.63,0.42-1.3,0.45
			c-3.12,0.13-4.69,0.19-7.81,0.32c-0.63,0.03-1.08-0.07-1.3-0.35c-0.2-0.26-0.31-0.73-0.31-1.42c0-0.94,0-1.41,0-2.36
			c0-0.86,0.11-1.52,0.31-1.79c0.21-0.29,0.67-0.48,1.3-0.5c0.61-0.02,0.92-0.03,1.53-0.05c0.51-0.02,0.75-0.36,0.75-0.99
			c0-0.21,0-0.31,0-0.51c-5.01,0.14-7.51,0.21-12.52,0.35C39.29,78.22,38.86,77.99,38.66,77.65z M65.67,62.57
			c-7.72,0.02-11.59,0.04-19.31,0.06c-0.55,0-0.86,0.52-0.86,1.56c8.42-0.05,12.62-0.07,21.04-0.12
			C66.53,63.07,66.22,62.57,65.67,62.57z M56.09,38.67c1.18-0.59,1.77-0.89,2.94-1.47c0.86-0.42,1.58-0.47,2.12-0.09
			c0.52,0.36,0.78,0.7,0.78,1.1c0,0.56,0,0.84,0,1.4c0,0.51-0.13,0.86-0.43,1c-0.25,0.11-0.63,0.26-1.02,0.47
			c0.39,0.29,0.75,0.58,1.02,0.76c0.27,0.19,0.43,0.52,0.43,0.91c0,0.79,0,1.18,0,1.97c0,0.45-0.2,0.79-0.55,0.94
			c-0.38,0.16-1.14-0.03-2.24-0.45c-1.22-0.73-1.84-1.1-3.06-1.84c-1.24,0.67-1.86,1-3.1,1.68c-1.1,0.37-1.89,0.51-2.28,0.34
			c-0.42-0.19-0.63-0.53-0.63-0.99c0-0.8,0-1.2,0-2c0-0.4,0.17-0.74,0.43-0.9c0.31-0.2,0.67-0.44,1.1-0.71
			c-0.43-0.24-0.83-0.41-1.1-0.55c-0.26-0.14-0.43-0.53-0.43-1.05c0-0.57,0-0.86,0-1.43c0-0.4,0.32-0.72,0.86-1.05
			c0.54-0.33,1.26-0.24,2.08,0.25C54.25,37.65,54.86,37.99,56.09,38.67z M56.09,48.54c1.18-0.59,1.77-0.88,2.94-1.47
			c0.86-0.38,1.57-0.41,2.12-0.12c0.55,0.29,0.78,0.64,0.78,0.97c0,0.56,0,0.84,0,1.4c0,0.51-0.13,0.84-0.43,1
			c-0.27,0.15-0.63,0.33-1.02,0.55c0.39,0.29,0.76,0.52,1.02,0.69c0.31,0.21,0.43,0.51,0.43,0.96c0,0.76,0,1.15,0,1.91
			c0,0.51-0.2,0.85-0.55,0.95c-0.39,0.11-1.14-0.01-2.24-0.41c-1.22-0.67-1.84-1-3.06-1.67c-1.24,0.64-1.86,0.97-3.1,1.62
			c-1.1,0.39-1.89,0.49-2.28,0.38c-0.43-0.12-0.63-0.46-0.63-0.98c0-0.78,0-1.17,0-1.95c0-0.46,0.17-0.79,0.43-0.97
			c0.27-0.18,0.67-0.39,1.1-0.67c-0.43-0.24-0.8-0.41-1.1-0.59c-0.27-0.16-0.43-0.52-0.43-1.04c0-0.57,0-0.86,0-1.43
			c0-0.34,0.29-0.68,0.86-0.95c0.55-0.26,1.26-0.2,2.08,0.22C54.25,47.58,54.86,47.9,56.09,48.54z"/>
		<path class="st1" d="M77.84,84.03c-0.24-0.37-0.35-0.97-0.35-1.74c0-2.21,0-3.32,0-5.53c0-1.09,0.12-1.75,0.35-2.09
			c0.24-0.33,0.63-0.51,1.26-0.52c4.84-0.11,7.25-0.17,12.09-0.28c0-1.97,0-2.95,0-4.92c-4.04,0.06-6.05,0.09-10.09,0.15
			c-0.63,0.01-1.1-0.16-1.3-0.53c-0.21-0.39-0.31-0.98-0.31-1.8c0-2.2,0-3.31,0-5.51c0-0.16,0-0.33,0-0.49c-0.17,0-0.26,0-0.43,0
			c-0.43-0.05-0.74-0.24-1.02-0.6c-0.29-0.38-0.43-0.88-0.43-1.42c0-2.54,0-3.81,0-6.35c0-0.6,0.12-1.04,0.43-1.42
			c0.27-0.32,0.59-0.54,1.02-0.53c0.11,0,0.16,0,0.27,0c0.43-0.05,0.87-0.32,1.22-0.74c0.36-0.44,0.55-1.24,0.55-2.38
			c0-3.35,0-5.03,0-8.38c0-0.6,0.11-1.11,0.39-1.51c0.29-0.42,0.63-0.63,1.02-0.61c1.99,0.08,2.99,0.12,4.99,0.2
			c0.39,0.02,0.75,0.25,1.02,0.69c0.28,0.44,0.43,0.93,0.43,1.52c0,1.72,0,2.58,0,4.29c0.9,0.03,1.34,0.04,2.24,0.07
			c0-1.77,0-2.66,0-4.44c0.04-0.53,0.22-1.01,0.51-1.42c0.28-0.39,0.67-0.61,1.18-0.59c1.98,0.08,2.97,0.12,4.95,0.2
			c0.47,0.02,0.86,0.25,1.14,0.68c0.28,0.43,0.39,0.91,0.39,1.44c0,1.75,0,2.62,0,4.37c4.44,0.13,6.67,0.2,11.11,0.33
			c0.67,0.02,1.12,0.19,1.33,0.45c0.24,0.29,0.35,0.99,0.35,2.02c0,2.08,0,3.12,0,5.2c0,0.72-0.14,1.29-0.35,1.64
			c-0.24,0.39-0.67,0.56-1.33,0.55c-4.44-0.05-6.67-0.08-11.11-0.13c0,1.94,0,2.91,0,4.85c4,0.01,6.01,0.02,10.01,0.03
			c0.67,0,1.16,0.16,1.37,0.47c0.2,0.29,0.31,0.93,0.31,1.96c0,2.08,0,3.13,0,5.21c0,0.77-0.11,1.33-0.31,1.71
			c-0.2,0.35-0.71,0.53-1.37,0.54c-4,0.06-6.01,0.09-10.01,0.14c0,1.94,0,2.91,0,4.85c4.8-0.11,7.21-0.17,12.01-0.28
			c0.67-0.02,1.1,0.13,1.33,0.43c0.24,0.3,0.35,0.92,0.35,1.95c0,2.08,0,3.12,0,5.19c0,0.72-0.12,1.29-0.35,1.66
			c-0.24,0.37-0.67,0.59-1.33,0.62c-10.76,0.44-21.51,0.88-32.27,1.32C78.47,84.61,78.08,84.4,77.84,84.03z M85.02,58.73
			c2.47,0.01,3.7,0.01,6.16,0.02c0-1.97,0-2.95,0-4.92c-1.3-0.02-1.95-0.02-3.26-0.04c-0.35,1.29-0.86,2.36-1.53,3.27
			C85.97,57.71,85.53,58.25,85.02,58.73z"/>
		<path class="st1" d="M117.22,38.78c0.24-0.3,0.63-0.43,1.1-0.41c4.54,0.18,6.81,0.28,11.34,0.46c0.47,0.02,0.86,0.18,1.1,0.49
			c0.27,0.36,0.39,0.86,0.39,1.51c0,1.23,0,1.85,0,3.08c-0.04,0.74-0.12,1.34-0.24,1.73c-0.94,3.24-1.41,4.86-2.36,8.13
			c0.44,0.01,0.66,0.01,1.1,0.01c0.47,0.01,0.86,0.21,1.1,0.51c0.27,0.35,0.39,0.8,0.39,1.45c0,6.8,0,10.21,0,17.01
			c0,0.65-0.13,1.15-0.31,1.45c-0.2,0.34-0.59,0.51-1.18,0.53c-2.61,0.07-3.91,0.1-6.52,0.17c0,2.36,0,3.54,0,5.91
			c0,0.66-0.11,1.21-0.35,1.53c-0.23,0.31-0.63,0.53-1.14,0.55c-1.33,0.05-2,0.08-3.34,0.14c-0.47,0.02-0.86-0.17-1.1-0.46
			c-0.27-0.35-0.39-0.85-0.39-1.52c0-13.58,0-27.17,0-40.75C116.83,39.64,116.94,39.13,117.22,38.78z M123.15,46.64
			c0,1.92,0,2.88,0,4.8c0.57-1.91,0.85-2.86,1.41-4.76C123.99,46.66,123.71,46.66,123.15,46.64z M123.15,66.83
			c0.36,0,0.54-0.01,0.9-0.01c0.51-0.01,0.79-0.31,0.79-0.96c0-1.63,0-2.45,0-4.08c-0.68,0-1.01,0-1.69,0
			C123.15,63.81,123.15,64.82,123.15,66.83z M132.45,39.34c0.24-0.29,0.67-0.42,1.26-0.4c6.3,0.26,9.44,0.39,15.74,0.64
			c0.67,0.03,1.1,0.19,1.33,0.49c0.24,0.3,0.35,0.92,0.35,1.78c0,7.95,0,11.92,0,19.87c0,0.72-0.12,1.2-0.35,1.53
			c-0.24,0.34-0.67,0.48-1.33,0.49c-2.1,0.01-3.16,0.02-5.26,0.03c0,1.01,0,1.51,0,2.52c-0.04,3.35,0.27,5.53,0.9,6.43
			c0.53-1.23,0.8-1.85,1.33-3.07c0.31-0.83,0.59-1.38,0.82-1.65c0.21-0.24,0.59-0.39,1.1-0.4c1.05-0.01,1.58-0.02,2.63-0.04
			c0.63-0.01,0.99,0.13,1.1,0.37c0.12,0.27,0,0.81-0.35,1.63c-0.77,1.87-1.15,2.81-1.92,4.69c0.41-0.01,0.61-0.02,1.02-0.03
			c0.39,0.04,0.74,0.22,1.02,0.5c0.27,0.28,0.43,0.7,0.43,1.18c0,1.53,0,2.29,0,3.82c0,0.52-0.12,0.92-0.43,1.26
			c-0.27,0.3-0.63,0.5-1.02,0.57c-1.66,0.07-2.5,0.1-4.16,0.17c-2.79,0.02-4.75-0.88-5.93-2.64c-0.2-0.29-0.39-0.67-0.55-1.11
			c0,1,0,1.5,0,2.49c0,0.59-0.12,0.98-0.35,1.24c-0.24,0.25-0.67,0.42-1.26,0.44c-1.93,0.08-2.9,0.12-4.83,0.2
			c-0.63,0.03-1.1-0.12-1.3-0.34c-0.21-0.24-0.35-0.63-0.35-1.23c0-13.21,0-26.41,0-39.62C132.1,40.27,132.22,39.63,132.45,39.34z
			 M137.79,47.95c3.06,0.07,4.59,0.11,7.65,0.18c0-0.72,0-1.07,0-1.79c-3.06-0.08-4.59-0.13-7.65-0.21
			C137.79,46.86,137.79,47.23,137.79,47.95z M137.79,56.85c3.06,0.02,4.59,0.03,7.65,0.06c0-0.72,0-1.07,0-1.79
			c-3.06-0.03-4.59-0.05-7.65-0.08C137.79,55.75,137.79,56.12,137.79,56.85z M138.57,74.55c0.39-0.01,0.71,0.03,0.94,0.12
			c-0.59-2.29-0.9-4.98-0.9-8.12c0-1.1,0-1.65,0-2.75c-0.33,0-0.49,0-0.82,0c0,3.89,0,5.83,0,9.72
			C137.79,74.23,138.06,74.57,138.57,74.55z"/>
		<path class="st1" d="M160.49,63.07c0.27-0.38,0.63-0.57,1.02-0.57c2.1-0.01,3.16-0.01,5.26-0.02c0.43,0,0.77,0.18,1.06,0.55
			c0.28,0.35,0.39,0.79,0.39,1.25c0,1.7,0,2.55,0,4.26c0.28,0.97,0.75,1.74,1.49,2.28c0-4.12,0-6.17,0-10.29c-3.11,0-4.66,0-7.77,0
			c-0.71,0-1.26-0.15-1.69-0.52c-0.39-0.33-0.59-1.04-0.59-2.17c0-0.73,0-1.1,0-1.84c-0.79-0.01-1.18-0.01-1.96-0.02
			c-0.47,0-0.8-0.15-0.98-0.39c-0.2-0.27-0.27-0.81-0.27-1.57c0-3.51,0-5.26,0-8.76c0-0.81,0.08-1.35,0.27-1.6
			c0.18-0.23,0.51-0.36,0.98-0.35c4.76,0.16,7.14,0.24,11.89,0.41c0-0.7,0-1.05,0-1.75c0-0.46,0.16-0.87,0.47-1.23
			c0.27-0.31,0.71-0.48,1.22-0.46c2.04,0.08,3.06,0.13,5.1,0.21c0.47,0.02,0.88,0.22,1.18,0.55c0.32,0.35,0.47,0.79,0.47,1.24
			c0,0.69,0,1.03,0,1.72c4.74,0.16,7.11,0.24,11.86,0.4c0.47,0.02,0.8,0.16,0.98,0.39c0.2,0.25,0.28,0.76,0.28,1.51
			c0,3.27,0,4.9,0,8.17c0,0.71-0.08,1.21-0.28,1.45c-0.18,0.22-0.51,0.35-0.98,0.34c-0.77-0.01-1.15-0.01-1.92-0.02
			c0,0.73,0,1.09,0,1.82c0,0.98-0.16,1.62-0.51,1.96c-0.33,0.31-0.94,0.49-1.77,0.49c-3.12,0-4.69,0-7.81,0c0,0.89,0,1.33,0,2.22
			c3.06-0.01,4.59-0.02,7.66-0.03c0.67,0,1.1,0.13,1.33,0.4c0.24,0.27,0.35,0.8,0.35,1.6c0,1.37,0,2.06,0,3.43
			c0,0.62-0.12,1.07-0.35,1.39c-0.24,0.32-0.67,0.46-1.33,0.47c-3.06,0.06-4.59,0.09-7.66,0.15c0,0.85,0,1.28,0,2.13
			c4.84-0.12,7.25-0.17,12.09-0.29c0.43,0.03,0.75,0.2,1.02,0.46c0.27,0.26,0.43,0.65,0.43,1.09c0,1.94,0,2.91,0,4.85
			c0,0.48-0.12,0.85-0.43,1.16c-0.27,0.28-0.59,0.46-1.02,0.53c-4.43,0.18-6.64,0.27-11.07,0.45c-4.51,0-8.68-0.69-12.48-2.14
			c-0.24-0.13-0.47-0.22-0.71-0.25c-1.73,2.01-4.55,3.3-7.93,3.25c-0.41-0.01-0.83-0.2-1.1-0.48c-0.28-0.28-0.39-0.7-0.39-1.22
			c0-2.07,0-3.1,0-5.17c0-0.47,0.12-0.9,0.39-1.19c0.31-0.34,0.63-0.49,1.06-0.55c0.22-0.01,0.33-0.01,0.55-0.01
			c0.55-0.01,1.01-0.16,1.3-0.36c0.31-0.22,0.47-0.86,0.47-1.85c0-2.5,0-3.75,0-6.26C160.05,63.88,160.21,63.45,160.49,63.07z
			 M181.92,51.09c-6.5-0.13-9.75-0.19-16.25-0.32c-0.55-0.01-0.86,0.31-0.86,0.91c0,0.54,0,0.81,0,1.35
			c7.19,0.11,10.79,0.16,17.98,0.27c0-0.52,0-0.78,0-1.3C182.78,51.42,182.47,51.1,181.92,51.09z"/>
		<path class="st1" d="M209.09,44.19c0-0.15,0-0.23,0-0.38c0.04-0.47,0.22-0.84,0.51-1.17c0.28-0.31,0.67-0.48,1.18-0.46
			c1.84,0.07,2.76,0.11,4.59,0.19c0.43,0.02,0.82,0.22,1.14,0.55c0.33,0.35,0.51,0.73,0.51,1.19c0,0.15,0,0.23,0,0.38
			c4.46,0.16,6.69,0.24,11.15,0.4c0.67,0.02,1.1,0.22,1.33,0.49c0.22,0.25,0.35,0.7,0.35,1.27c0,0.08,0,0.12,0,0.2
			c0,0.77-0.12,1.25-0.35,1.49c-0.24,0.24-0.67,0.35-1.33,0.33c-4.46-0.12-6.69-0.18-11.15-0.31c0,0.4,0,0.6,0,1
			c4.05,0.1,6.08,0.15,10.13,0.26c0.82,0.02,1.41,0.18,1.77,0.49c0.33,0.29,0.55,0.91,0.55,1.76c0,3.04,0,4.55,0,7.59
			c0,0.85-0.2,1.44-0.55,1.79c-0.37,0.37-0.94,0.53-1.77,0.53c1.22,1.78,1.84,2.66,3.06,4.41c0.04,0.24-0.08,0.45-0.39,0.61
			c-0.31,0.17-0.71,0.25-1.18,0.26c-1.7,0.02-2.54,0.04-4.24,0.06c0,0.34,0,0.52,0,0.86c1.77-0.03,2.66-0.04,4.44-0.07
			c0.67-0.01,1.14,0.1,1.37,0.34c0.2,0.2,0.31,0.72,0.31,1.49c0,0.11,0,0.17,0,0.28c0,0.61-0.11,1.03-0.31,1.3
			c-0.21,0.29-0.71,0.42-1.37,0.44c-1.77,0.05-2.66,0.07-4.44,0.11c0,2.2,0,3.3,0,5.5c0,0.49-0.12,0.84-0.31,1.04
			c-0.22,0.22-0.67,0.32-1.34,0.34c-3.2,0.13-4.8,0.2-8.01,0.33c-0.63,0.03-1.02-0.04-1.26-0.24c-0.23-0.2-0.35-0.53-0.35-1.04
			c0-0.35,0-0.53,0-0.88c0-0.67,0.14-1.1,0.35-1.32c0.24-0.24,0.63-0.36,1.26-0.38c0.31-0.01,0.47-0.02,0.79-0.03
			c0.51-0.02,0.75-0.32,0.75-0.94c0-0.87,0-1.3,0-2.17c-2.47,0.06-3.7,0.09-6.16,0.16c0.36,1.11,0.54,1.66,0.9,2.77
			c0.2,0.67,0.12,1.15-0.16,1.36c-0.3,0.23-0.75,0.32-1.37,0.3c-1.92,0.07-2.87,0.1-4.79,0.17c-0.63,0.02-1.02-0.1-1.18-0.3
			c-0.16-0.21-0.39-0.72-0.67-1.4c-0.33-1.07-0.49-1.61-0.82-2.69c-1.93,0.05-2.9,0.07-4.83,0.12c-0.63,0.02-1.08-0.11-1.3-0.4
			c-0.2-0.28-0.31-0.74-0.31-1.39c0-0.12,0-0.18,0-0.31c0-0.83,0.12-1.4,0.31-1.62c0.24-0.27,0.67-0.4,1.3-0.42
			c7.63-0.13,11.45-0.19,19.08-0.32c0-0.6,0-0.9,0-1.5c-2.75,0.41-5.61,0.67-8.64,0.71c-4.11,0.06-6.17,0.09-10.28,0.15
			c-0.43,0.01-0.79-0.14-1.06-0.38c-0.25-0.22-0.39-0.69-0.39-1.44c0-0.16,0-0.24,0-0.39c0-0.7,0.14-1.18,0.39-1.4
			c0.27-0.24,0.63-0.4,1.06-0.4c4.7-0.03,7.04-0.04,11.74-0.07c0-0.63,0-0.94,0-1.57c-4.05,0.01-6.08,0.02-10.13,0.03
			c-0.75,0-1.3-0.17-1.69-0.56c-0.39-0.39-0.59-1.05-0.59-1.96c0-3.21,0-4.82,0-8.03c0-1,0.21-1.69,0.63-1.99
			c0.39-0.28,0.94-0.41,1.69-0.39c4.04,0.1,6.05,0.15,10.09,0.25c0-0.41,0-0.61,0-1.02c-4.49-0.12-6.74-0.18-11.23-0.31
			c-0.59-0.02-1.02-0.16-1.26-0.43c-0.23-0.27-0.35-0.8-0.35-1.63c0-0.09,0-0.13,0-0.22c0-0.61,0.14-1.09,0.35-1.34
			c0.24-0.28,0.67-0.46,1.26-0.43C202.36,43.95,204.6,44.03,209.09,44.19z M204.54,53.64c1.82,0.03,2.73,0.04,4.55,0.07
			c0-0.39,0-0.59,0-0.98c-1.82-0.03-2.73-0.05-4.55-0.08C204.54,53.05,204.54,53.24,204.54,53.64z M209.09,58.25
			c0-0.39,0-0.59,0-0.98c-1.82-0.01-2.73-0.02-4.55-0.03c0,0.39,0,0.59,0,0.99C206.36,58.24,207.27,58.24,209.09,58.25z
			 M217.02,52.87c0,0.38,0,0.58,0,0.96c1.82,0.03,2.73,0.04,4.55,0.07c0-0.38,0-0.57,0-0.95C219.75,52.92,218.84,52.9,217.02,52.87z
			 M221.58,57.37c-1.82-0.01-2.73-0.02-4.55-0.03c0,0.38,0,0.58,0,0.96c1.82,0.01,2.73,0.01,4.55,0.02
			C221.58,57.94,221.58,57.75,221.58,57.37z M219.42,61.8c-0.96,0-1.44,0-2.39,0.01c0,0.33,0,0.5,0,0.83
			c1.1-0.21,1.96-0.42,2.59-0.63C219.53,61.92,219.49,61.88,219.42,61.8z"/>
		<path class="st1" d="M240.86,73.48c-1.42,3.02-3.11,4.72-4.79,4.7c-0.37,0-0.75-0.17-1.02-0.4c-0.31-0.26-0.43-0.59-0.43-1.03
			c0-1.81,0-2.72,0-4.53c0-0.4,0.12-0.74,0.31-0.97c0.21-0.24,0.53-0.91,0.9-1.9c0.36-0.98,0.65-2.14,0.82-3.45
			c0.17-1.26,0.23-3.15,0.2-5.67c0-6.05,0-9.07,0-15.12c0-0.76,0.12-1.23,0.35-1.46c0.24-0.23,0.67-0.33,1.26-0.31
			c9.96,0.4,19.92,0.81,29.87,1.21c0.67,0.03,1.14,0.18,1.33,0.39c0.22,0.23,0.35,0.68,0.35,1.38c0,1.13,0,1.7,0,2.83
			c0,0.37-0.16,0.7-0.43,0.98c-0.28,0.29-0.63,0.46-1.02,0.45c-3.5-0.09-5.25-0.13-8.75-0.22c0,2.69,0,4.03,0,6.72
			c3.23,0.03,4.85,0.04,8.09,0.07c0.55,0,0.95,0.1,1.18,0.27c0.22,0.15,0.39,0.45,0.39,0.92c0,1.34,0,2.01,0,3.35
			c0,0.37-0.16,0.63-0.39,0.81c-0.24,0.19-0.63,0.3-1.18,0.3c-6.74,0.04-10.1,0.05-16.84,0.09c0,0.23,0,0.35,0,0.58
			c6.7-0.05,10.06-0.07,16.76-0.11c0.59,0,1.03,0.09,1.26,0.21c0.21,0.12,0.39,0.37,0.39,0.77c0,4.6,0,6.9,0,11.5
			c0,0.41-0.16,0.67-0.39,0.83c-0.24,0.16-0.67,0.21-1.26,0.24c-2.72,0.11-4.07,0.17-6.79,0.28c-0.59,0.02-1.01,0.01-1.3-0.14
			c-0.23-0.12-0.35-0.4-0.35-0.74c-0.16-0.03-0.35-0.18-0.55-0.39c-0.03-0.03-0.05-0.04-0.08-0.07c-0.08,0-0.27,0.05-0.67,0.1
			c-1.96,0.49-4.2,0.77-6.63,0.9c-2.37,0.09-3.56,0.14-5.93,0.23c-0.35,0.01-0.65-0.05-0.79-0.13c-0.15-0.09-0.24-0.3-0.24-0.58
			c0-0.52,0-0.78,0-1.29c0-0.27,0.1-0.47,0.24-0.6c0.16-0.14,0.43-0.25,0.79-0.26c2.42-0.08,3.63-0.12,6.05-0.2
			c0-0.38,0-0.58,0-0.96c-1.98,0.06-2.97,0.09-4.95,0.15c-0.35,0.01-0.72-0.09-0.98-0.21c-0.28-0.12-0.47-0.38-0.47-0.77
			c0-0.86,0-1.29,0-2.15c-0.11,0-0.17,0-0.28,0.01c-0.39,0.01-0.71-0.09-0.98-0.25c-0.25-0.16-0.43-0.38-0.43-0.7
			c0-0.57,0-0.85,0-1.41c0-0.27,0.18-0.51,0.43-0.67c0.27-0.18,0.61-0.3,0.98-0.33c0.19-0.01,0.4-0.1,0.67-0.24
			c0.23-0.12,0.31-0.55,0.28-1.18c0-0.95,0-1.43,0-2.38c-0.08,0-0.12,0-0.2,0c-0.63,0-1.04-0.11-1.3-0.31
			c-0.23-0.18-0.35-0.47-0.35-0.86c0-1.43,0-2.14,0-3.57c0-0.51,0.12-0.82,0.35-0.98c0.27-0.19,0.67-0.27,1.3-0.26
			c3.09,0.03,4.64,0.04,7.73,0.07c0-2.73,0-4.1,0-6.83c-4.13-0.1-6.19-0.16-10.32-0.26c0,5.6,0,8.4,0,14
			C243.06,67.28,242.29,70.44,240.86,73.48z M243.06,47.07c8.32,0.27,12.48,0.4,20.81,0.67c0-0.25,0-0.38,0-0.64
			c-8.32-0.28-12.48-0.42-20.81-0.7C243.06,46.67,243.06,46.8,243.06,47.07z M250.95,50.84c0.51,0.01,0.88,0.1,1.06,0.26
			c0.2,0.18,0.28,0.51,0.28,1.01c0,0.05,0,0.07,0,0.12c0,0.38-0.08,0.67-0.28,0.84c-0.18,0.15-0.55,0.26-1.06,0.25
			c-2.12-0.04-3.18-0.06-5.3-0.09c-0.55-0.01-0.92-0.13-1.1-0.29c-0.19-0.18-0.27-0.48-0.27-0.87c0-0.05,0-0.07,0-0.12
			c0-0.51,0.08-0.84,0.27-1.01c0.18-0.15,0.55-0.22,1.1-0.21C247.77,50.76,248.83,50.79,250.95,50.84z M250.95,53.92
			c0.51,0.01,0.86,0.09,1.06,0.25c0.2,0.16,0.28,0.47,0.28,0.97c0,0.03,0,0.05,0,0.08c0,0.42-0.08,0.71-0.28,0.88
			c-0.18,0.15-0.55,0.26-1.06,0.26c-2.12-0.02-3.18-0.03-5.3-0.06c-0.55-0.01-0.92-0.13-1.1-0.29c-0.19-0.18-0.27-0.47-0.27-0.9
			c0-0.03,0-0.05,0-0.08c0-0.51,0.08-0.82,0.27-0.98c0.2-0.15,0.55-0.23,1.1-0.22C247.77,53.87,248.83,53.89,250.95,53.92z
			 M249.49,60.25c0.53,0,0.8,0,1.34,0c0-0.22,0-0.32,0-0.54c-0.53,0-0.8,0-1.34,0C249.49,59.92,249.49,60.03,249.49,60.25z
			 M251.57,70.31c0-0.22,0-0.32,0-0.54c-0.63,0.01-0.94,0.02-1.57,0.03c0,0.22,0,0.32,0,0.54
			C250.63,70.33,250.95,70.32,251.57,70.31z M250.59,67.01c0.39-0.01,0.59-0.01,0.98-0.01c0-0.2,0-0.3,0-0.5
			c-0.3,0-0.45,0.01-0.75,0.01C250.71,66.66,250.63,66.85,250.59,67.01z M256.09,59.72c0,0.21,0,0.32,0,0.53c0.5,0,0.75,0,1.26,0
			c0-0.21,0-0.32,0-0.53C256.84,59.73,256.59,59.72,256.09,59.72z M262.02,73.29c0.14,0.24,0.21,0.35,0.35,0.59
			c0.61-0.02,0.92-0.03,1.53-0.05c0-3,0-4.51,0-7.51c-2.97,0.04-4.45,0.06-7.42,0.1c0,0.2,0,0.3,0,0.49
			c1.93-0.03,2.9-0.04,4.83-0.07c0.59-0.01,1,0.06,1.18,0.21c0.19,0.16,0.31,0.44,0.31,0.78c0,1.59,0,2.38,0,3.97
			c0,0.34-0.15,0.59-0.35,0.72c-0.19,0.12-0.55,0.24-0.98,0.25c0.02,0,0.02,0,0.04,0C261.66,72.93,261.82,73.08,262.02,73.29z
			 M258.09,69.63c-0.64,0.01-0.97,0.02-1.61,0.04c0,0.21,0,0.32,0,0.53c0.64-0.01,0.97-0.02,1.61-0.04
			C258.09,69.94,258.09,69.84,258.09,69.63z M256.48,73.62c0.28-0.05,0.55-0.06,0.82-0.1c-0.16-0.15-0.16-0.3,0-0.49
			c0-0.04,0.04-0.08,0.08-0.12c-0.36,0.01-0.54,0.02-0.9,0.03C256.48,73.21,256.48,73.35,256.48,73.62z M268.53,51.48
			c0.16,0.15,0.27,0.49,0.27,0.97c0,0.04,0,0.07,0,0.11c0,0.37-0.12,0.66-0.27,0.81c-0.16,0.15-0.59,0.25-1.1,0.24
			c-2.12-0.04-3.18-0.06-5.3-0.09c-0.55-0.01-0.9-0.13-1.06-0.28c-0.2-0.19-0.28-0.46-0.28-0.83c0-0.05,0-0.07,0-0.11
			c0-0.49,0.08-0.79,0.28-0.97c0.16-0.15,0.51-0.21,1.06-0.2c2.12,0.05,3.18,0.08,5.3,0.13C267.94,51.24,268.37,51.32,268.53,51.48z
			 M268.53,54.43c0.16,0.13,0.27,0.45,0.27,0.93c0,0.03,0,0.04,0,0.07c0,0.41-0.12,0.7-0.27,0.85c-0.16,0.15-0.59,0.25-1.1,0.25
			c-2.12-0.02-3.18-0.03-5.3-0.06c-0.55-0.01-0.9-0.12-1.06-0.27c-0.2-0.19-0.28-0.45-0.28-0.87c0-0.03,0-0.05,0-0.08
			c0-0.49,0.1-0.79,0.28-0.94c0.16-0.13,0.51-0.22,1.06-0.21c2.12,0.03,3.18,0.05,5.3,0.09C267.94,54.2,268.35,54.28,268.53,54.43z
			 M263.94,59.74c-0.47,0-0.71,0-1.18,0c0,0.21,0,0.31,0,0.52c0.47,0,0.71,0,1.18,0C263.94,60.06,263.94,59.95,263.94,59.74z"/>
		<path class="st1" d="M282.59,57.22c0,7.04,0,10.56,0,17.61c0,0.53-0.08,0.93-0.31,1.12c-0.24,0.19-0.59,0.31-1.06,0.36
			c-0.61,0.02-0.92,0.04-1.53,0.06c-0.51,0.02-0.86-0.08-1.14-0.28c-0.23-0.17-0.35-0.56-0.35-1.1c0-4.83,0-7.25,0-12.08
			c-0.82,0.83-1.81,1.35-2.91,1.58c-0.59,0.04-1.04-0.06-1.29-0.28c-0.27-0.23-0.39-0.73-0.39-1.42c0-0.86,0-1.29,0-2.15
			c0-0.58,0.14-1.06,0.39-1.42c0.24-0.34,0.7-0.71,1.22-0.83c1.27-0.3,2.66-1.89,3.65-4.91c1-3.03,1.57-5.46,1.61-7.21
			c0.01-0.35,0.18-0.67,0.47-0.95c0.27-0.26,0.63-0.37,1.06-0.35c0.42,0.02,0.64,0.03,1.06,0.04c0.51,0.02,0.9,0.16,1.18,0.44
			c0.29,0.3,0.47,0.62,0.47,0.98c0,0.48,0,0.72,0,1.21C284.44,51.13,283.73,54.34,282.59,57.22z M303.99,71.21
			c0.9,0.21,1.85,0.28,2.86,0.25c0.51-0.02,0.9,0.11,1.18,0.33c0.31,0.26,0.47,0.58,0.47,0.95c0,0.37,0,0.56,0,0.93
			c0,0.63-0.16,1.04-0.43,1.28c-0.24,0.21-0.69,0.3-1.22,0.32c-2.45,0.06-4.95-0.06-7.26-0.76c-2.16,0.86-4.68,1.2-7.18,1.35
			c-0.53,0.03-0.96-0.03-1.22-0.23c-0.27-0.21-0.43-0.65-0.43-1.31c0-0.39,0-0.59,0-0.98c0.04-0.39,0.2-0.76,0.47-1.03
			c0.26-0.25,0.63-0.4,1.18-0.42c0.59-0.02,1.45-0.11,2.51-0.32c-0.47-0.57-0.82-1.32-1.06-2.25c-1.15,0.03-1.72,0.04-2.87,0.07
			c-0.08,2.93-0.75,4.78-1.96,5.51c-1.24,0.75-2.45,1.1-3.53,1.12c-0.66,0.02-1.1-0.06-1.3-0.27c-0.2-0.2-0.35-0.56-0.35-1.09
			c0-0.45,0-0.68,0-1.14c0-0.39,0.12-0.75,0.39-1.04c0.28-0.29,0.67-0.48,1.26-0.5c0.82-0.02,1.37-0.24,1.57-0.61
			c0.21-0.39,0.31-1.52,0.31-3.46c0-0.53,0.1-0.88,0.31-1.06c0.2-0.16,0.55-0.29,1.06-0.3c5.81-0.09,8.71-0.14,14.52-0.23
			c0.75-0.01,1.26,0.08,1.53,0.31c0.27,0.23,0.45,0.58,0.43,1C305.17,69.42,304.69,70.68,303.99,71.21z M307.67,46.19
			c0.12,0.11,0.2,0.34,0.2,0.61c0,0.4,0,0.6,0,1c0,0.3-0.08,0.5-0.2,0.59c-0.16,0.13-0.39,0.19-0.71,0.18
			c-3.06-0.1-4.59-0.16-7.65-0.26c0,0.19,0,0.29,0,0.48c2.58,0.08,3.86,0.13,6.44,0.21c0.35,0.01,0.59,0.12,0.75,0.22
			c0.16,0.11,0.27,0.34,0.27,0.64c0,2.92,0,4.39,0,7.31c0.42,0,0.64,0.01,1.06,0.01c0.63,0.01,1.1,0.11,1.34,0.31
			c0.27,0.23,0.39,0.63,0.39,1.23c0,0.7,0,1.05,0,1.76c0,0.43-0.12,0.73-0.39,0.99c-0.24,0.23-0.71,0.37-1.34,0.37
			c-0.39,0-0.59,0-0.98,0c-0.59,0-1-0.13-1.22-0.36c-0.24-0.25-0.35-0.57-0.35-1.01c0-0.32,0-0.48,0-0.8
			c-3.93-0.01-5.89-0.02-9.81-0.03c0,1.25,0,1.88,0,3.13c0,0.24,0.12,0.38,0.35,0.38c2.43-0.02,3.65-0.02,6.08-0.04
			c0.28,0,0.39-0.14,0.39-0.37c0-0.38,0-0.57,0-0.95c0-0.44,0.16-0.8,0.39-1.01c0.22-0.2,0.59-0.3,1.1-0.3
			c0.55,0,0.96,0.13,1.18,0.34c0.23,0.22,0.35,0.6,0.35,1.04c0,0.95,0,1.43,0,2.38c0,0.6-0.12,1.03-0.35,1.25
			c-0.22,0.21-0.71,0.31-1.37,0.32c-4.11,0.06-6.17,0.09-10.28,0.15c-0.63,0.01-1.06-0.09-1.29-0.29c-0.24-0.21-0.35-0.62-0.35-1.28
			c0-1.89,0-2.84,0-4.73c-1.44,0-2.17-0.01-3.61-0.01c0,0.34,0,0.51,0,0.84c0,0.46-0.12,0.77-0.35,1.05
			c-0.2,0.24-0.63,0.39-1.22,0.39c-0.39,0-0.59,0-0.98,0c-0.59,0-1.04-0.14-1.26-0.39c-0.24-0.27-0.35-0.6-0.35-1.06
			c0-0.75,0-1.13,0-1.88c0-0.64,0.12-1.08,0.35-1.31c0.22-0.21,0.67-0.31,1.26-0.31c0.44,0,0.66,0.01,1.1,0.01c0-3.09,0-4.63,0-7.72
			c0-0.32,0.08-0.56,0.2-0.66c0.16-0.14,0.39-0.2,0.71-0.19c2.54,0.08,3.82,0.12,6.36,0.21c0-0.19,0-0.29,0-0.48
			c-2.95-0.1-4.43-0.15-7.38-0.25c-0.31-0.01-0.55-0.11-0.75-0.24c-0.18-0.12-0.28-0.33-0.28-0.65c0-0.42,0-0.64,0-1.06
			c0-0.28,0.08-0.49,0.28-0.63c0.2-0.13,0.43-0.16,0.75-0.15c8.2,0.34,12.29,0.5,20.49,0.84C307.28,46,307.55,46.08,307.67,46.19z
			 M289.97,65.08c-0.88,0.61-1.92,0.94-3.14,0.88c-0.49,0.01-0.73,0.01-1.22,0.02c-0.51,0.04-0.92-0.02-1.22-0.2
			c-0.27-0.16-0.39-0.53-0.39-1.1c0-0.35,0-0.53,0-0.89c0-0.57,0.12-0.98,0.39-1.17c0.26-0.18,0.67-0.29,1.22-0.29
			c1.22-0.01,2-0.04,2.32-0.08c0.31-0.04,0.53-0.26,0.59-0.63c0.05-0.3,0.12-0.65,0.31-0.91c0.18-0.24,0.55-0.39,1.06-0.38
			c0.47,0,0.82,0.14,1.02,0.38c0.2,0.24,0.31,0.53,0.31,0.84C291.27,63.22,290.87,64.46,289.97,65.08z M301.39,51.56
			c0-0.19,0-0.28,0-0.47c-3.78-0.1-5.68-0.15-9.46-0.25c0,0.19,0,0.29,0,0.49C295.72,51.42,297.61,51.46,301.39,51.56z
			 M301.39,54.34c0-0.2,0-0.31,0-0.51c-3.78-0.07-5.68-0.11-9.46-0.18c0,0.21,0,0.31,0,0.52C295.72,54.24,297.61,54.27,301.39,54.34
			z M301.39,57.12c0-0.22,0-0.33,0-0.54c-3.78-0.04-5.68-0.06-9.46-0.11c0,0.22,0,0.33,0,0.56
			C295.72,57.06,297.61,57.08,301.39,57.12z M298.29,60.85c0.2,0.22,0.31,0.55,0.31,0.96c0,0.44-0.12,0.75-0.35,0.96
			c-0.2,0.17-0.59,0.24-1.1,0.25c-0.51,0-0.88-0.06-1.06-0.23c-0.2-0.19-0.31-0.51-0.31-0.96c0-0.41,0.12-0.74,0.31-0.96
			c0.18-0.21,0.55-0.31,1.06-0.31C297.7,60.54,298.11,60.64,298.29,60.85z M301,69.16c-1.26,0.03-1.88,0.04-3.14,0.07
			c0.35,0.44,0.94,0.8,1.73,1.08C300.22,69.99,300.69,69.61,301,69.16z M301.71,60.85c0.22,0.2,0.35,0.51,0.35,0.95
			c0,0.44-0.12,0.76-0.35,0.95c-0.22,0.17-0.59,0.24-1.14,0.24c-0.51,0-0.88-0.06-1.1-0.23c-0.23-0.18-0.35-0.51-0.35-0.95
			s0.12-0.75,0.35-0.95c0.24-0.2,0.59-0.31,1.1-0.31C301.12,60.54,301.51,60.66,301.71,60.85z"/>
		<path class="st1" d="M322.01,73.98c-0.9,0.6-2.32,0.96-4.16,1.03c-1.15,0.05-1.72,0.07-2.86,0.12c-0.55,0.02-0.94-0.03-1.22-0.15
			s-0.39-0.44-0.39-0.97c0-0.72,0-1.08,0-1.8c0-0.56,0.12-0.92,0.35-1.09c0.27-0.2,0.67-0.28,1.26-0.3
			c0.57-0.02,0.85-0.02,1.41-0.04c0.59-0.02,0.98-0.14,1.18-0.33c0.18-0.17,0.31-0.49,0.39-0.95c0-0.66,0-0.99,0-1.65
			c0-0.39,0.14-0.71,0.43-0.98c0.27-0.25,0.71-0.4,1.3-0.38c0.8-0.01,1.2-0.02,2-0.03c0.55-0.04,1,0.08,1.26,0.3
			c0.27,0.23,0.43,0.57,0.43,0.98c0,1.17,0,1.76,0,2.93C323.38,72.27,322.94,73.36,322.01,73.98z M326.88,48.45
			c0-0.11,0-0.17,0-0.28c0.04-0.34,0.22-0.62,0.51-0.86c0.27-0.22,0.67-0.35,1.18-0.33c1.84,0.07,2.76,0.11,4.59,0.19
			c0.43,0.02,0.83,0.17,1.14,0.42c0.34,0.26,0.51,0.54,0.51,0.88c0,0.11,0,0.17,0,0.28c4.46,0.16,6.69,0.24,11.15,0.4
			c0.67,0.02,1.1,0.17,1.33,0.37c0.22,0.19,0.35,0.52,0.35,0.93c0,0.06,0,0.09,0,0.15c0,0.56-0.12,0.91-0.35,1.08
			c-0.24,0.17-0.67,0.25-1.33,0.23c-4.46-0.12-6.69-0.18-11.15-0.31c0,0.3,0,0.44,0,0.74c4.05,0.1,6.08,0.15,10.13,0.26
			c0.82,0.02,1.42,0.14,1.77,0.37c0.34,0.22,0.55,0.67,0.55,1.29c0,2.22,0,3.32,0,5.54c0,0.62-0.2,1.05-0.55,1.3
			c-0.38,0.27-0.94,0.39-1.77,0.39c1.22,1.3,1.84,1.94,3.06,3.21c0.04,0.18-0.08,0.33-0.39,0.45c-0.31,0.12-0.71,0.19-1.18,0.19
			c-1.62,0.02-2.43,0.04-4.04,0.06c-0.63,0.01-1.11-0.04-1.34-0.13c-0.25-0.1-0.51-0.23-0.78-0.47c-0.19-0.23-0.28-0.34-0.47-0.57
			c-0.55,0.13-1.14,0.23-1.77,0.29c-3.89,0.62-8.05,1-12.6,1.1c-4.11,0.06-6.17,0.09-10.28,0.15c-0.43,0.01-0.79-0.11-1.06-0.28
			c-0.26-0.16-0.39-0.52-0.39-1.08c0-0.12,0-0.18,0-0.29c0-0.52,0.14-0.88,0.39-1.05c0.27-0.18,0.63-0.3,1.06-0.3
			c4.69-0.03,7.04-0.04,11.74-0.07c0-0.47,0-0.7,0-1.17c-4.05,0.01-6.08,0.02-10.13,0.03c-0.75,0-1.29-0.13-1.69-0.42
			c-0.39-0.29-0.59-0.78-0.59-1.47c0-2.4,0-3.61,0-6.01c0-0.75,0.21-1.27,0.63-1.49c0.39-0.21,0.94-0.3,1.69-0.28
			c4.04,0.1,6.05,0.15,10.09,0.25c0-0.3,0-0.45,0-0.76c-4.49-0.12-6.74-0.18-11.23-0.31c-0.59-0.02-1.02-0.13-1.26-0.33
			c-0.24-0.2-0.35-0.6-0.35-1.22c0-0.07,0-0.1,0-0.16c0-0.46,0.13-0.81,0.35-1c0.23-0.2,0.67-0.34,1.26-0.31
			C320.14,48.2,322.39,48.28,326.88,48.45z M322.32,55.44c1.82,0.03,2.73,0.04,4.55,0.07c0-0.29,0-0.44,0-0.73
			c-1.82-0.03-2.73-0.05-4.55-0.08C322.32,55,322.32,55.14,322.32,55.44z M326.88,58.88c0-0.29,0-0.44,0-0.73
			c-1.82-0.01-2.73-0.02-4.55-0.03c0,0.29,0,0.44,0,0.73C324.14,58.86,325.06,58.87,326.88,58.88z M330.02,69.98
			c0,0.37,0.2,0.52,0.59,0.51c4.71-0.14,7.07-0.21,11.78-0.35c0.39-0.01,0.63-0.17,0.63-0.53c0-0.17,0-0.25,0-0.42
			c0-0.42,0.12-0.74,0.35-0.94c0.22-0.19,0.59-0.28,1.1-0.3c0.96-0.02,1.44-0.03,2.39-0.05c0.51-0.01,0.94,0.09,1.14,0.27
			c0.19,0.17,0.31,0.52,0.31,0.94c0,1.3,0,1.95,0,3.25c0,0.53-0.12,0.91-0.31,1.08c-0.22,0.19-0.71,0.3-1.37,0.32
			c-8.16,0.34-12.25,0.5-20.41,0.84c-0.63,0.03-1.06-0.04-1.26-0.2c-0.22-0.18-0.35-0.59-0.35-1.16c0-2.21,0-3.31,0-5.52
			c0-0.48,0.12-0.86,0.31-1.05c0.2-0.2,0.63-0.3,1.22-0.27c0.91-0.02,1.37-0.02,2.28-0.04c0.67-0.04,1.1,0.06,1.3,0.26
			c0.21,0.21,0.31,0.53,0.31,0.99C330.02,68.56,330.02,69.03,330.02,69.98z M335.67,69.52c-0.34,0.26-0.71,0.39-1.14,0.4
			c-0.66,0.02-0.99,0.03-1.65,0.05c-0.59,0.02-1-0.09-1.29-0.34c-0.27-0.22-0.47-0.52-0.47-0.83c0-0.51,0-0.77,0-1.28
			c0-0.31,0.2-0.63,0.47-0.85c0.28-0.23,0.71-0.35,1.22-0.36c0.64-0.01,0.97-0.02,1.61-0.03c0.51-0.01,0.94,0.1,1.26,0.32
			c0.31,0.21,0.47,0.51,0.47,0.82c0,0.5,0,0.75,0,1.26C336.14,68.98,335.98,69.28,335.67,69.52z M334.81,54.92c0,0.28,0,0.42,0,0.71
			c1.82,0.03,2.73,0.04,4.55,0.07c0-0.28,0-0.42,0-0.7C337.54,54.97,336.63,54.95,334.81,54.92z M339.36,58.25
			c-1.82-0.01-2.73-0.02-4.55-0.03c0,0.28,0,0.42,0,0.71c1.82,0.01,2.73,0.01,4.55,0.02C339.36,58.67,339.36,58.53,339.36,58.25z
			 M337.2,61.5c-0.96,0-1.44,0-2.39,0.01c0,0.25,0,0.37,0,0.62c1.1-0.16,1.96-0.31,2.59-0.47C337.32,61.59,337.28,61.56,337.2,61.5z
			 M341.64,69.36c-0.31,0.25-0.71,0.38-1.14,0.39c-0.66,0.02-0.99,0.03-1.65,0.05c-0.55,0.02-1-0.09-1.29-0.33
			c-0.27-0.22-0.43-0.51-0.47-0.81c0-0.5,0-0.75,0-1.25c0.04-0.31,0.2-0.62,0.47-0.83c0.28-0.22,0.71-0.35,1.22-0.36
			c0.64-0.01,0.97-0.02,1.61-0.03c0.51-0.01,0.96,0.1,1.26,0.31c0.31,0.22,0.47,0.5,0.47,0.8c0,0.49,0,0.74,0,1.23
			C342.11,68.83,341.95,69.11,341.64,69.36z"/>
	</g>
	<path class="st2" d="M194.74,126.61c-1.94,0-3.82-0.27-5.64-0.81c-8.24-2.43-13.94-9.84-14.18-18.43l-0.05-1.8L30.27,113.6
		c-2.71,5.36-8.25,8.79-14.27,8.79c-8.82,0-16-7.18-16-16v-90c0-8.82,7.18-16,16-16c6.02,0,11.56,3.43,14.27,8.79L367.19,27.9
		c0.85-4.15,4.48-7.18,8.81-7.18c4.96,0,9,4.04,9,9v64c0,4.96-4.04,9-9,9c-4.54,0-8.34-3.43-8.92-7.84l-46.68,2.59l0.08,2.88
		c0.31,10.91-8.32,20.04-19.23,20.35l-105.94,5.88C195.12,126.6,194.93,126.61,194.74,126.61z M176.82,103.46l0.11,3.85
		c0.22,7.72,5.34,14.38,12.75,16.57c1.79,0.53,3.66,0.78,5.55,0.72l105.94-5.88c9.84-0.28,17.59-8.49,17.31-18.3l-0.14-4.83
		l50.65-2.81l0.01,1.04c0.05,3.81,3.19,6.9,6.99,6.9c3.86,0,7-3.14,7-7v-64c0-3.86-3.14-7-7-7c-3.62,0-6.62,2.72-6.97,6.32
		L368.94,30L28.97,11.12l-0.25-0.55C26.44,5.6,21.45,2.39,16,2.39c-7.72,0-14,6.28-14,14v90c0,7.72,6.28,14,14,14
		c5.45,0,10.44-3.21,12.72-8.17l0.25-0.55l0.6-0.03L176.82,103.46z M194.73,114.07c-0.72,0-1.41-0.1-2.07-0.29
		c-3.02-0.89-5.11-3.61-5.2-6.77l-0.12-4.14l120.49-6.69l0.13,4.54c0.05,1.94-0.65,3.78-1.98,5.2c-1.33,1.41-3.14,2.22-5.08,2.28
		l-105.94,5.88C194.88,114.07,194.8,114.07,194.73,114.07z M189.39,104.76l0.06,2.2c0.06,2.29,1.58,4.26,3.77,4.91
		c0.53,0.15,1.07,0.23,1.64,0.21l105.94-5.88c1.43-0.04,2.74-0.63,3.71-1.65s1.48-2.36,1.44-3.76l-0.07-2.49L189.39,104.76z"/>
</g>
</svg>
