<?xml version="1.0" encoding="utf-8"?>
<!-- Generator: Adobe Illustrator 28.1.0, SVG Export Plug-In . SVG Version: 6.00 Build 0)  -->
<svg version="1.1" id="圖層_1" xmlns="http://www.w3.org/2000/svg" xmlns:xlink="http://www.w3.org/1999/xlink" x="0px" y="0px"
	 viewBox="0 0 545 100" style="enable-background:new 0 0 545 100;" xml:space="preserve">
<style type="text/css">
	.st0{fill:#142784;}
	.st1{fill:#FFC533;}
	.st2{fill:#C9E0FC;}
	.st3{fill:#FFFFFF;}
</style>
<g>
	<g>
		<g>
			<path class="st0" d="M21.28,37.79v13.23c0,2.35-0.13,4.13-0.42,5.49l-4.14-2.45l4.23-16.26H21.28z M36.74,65.81l-2.82-1.61
				c1.13-3.55,1.7-7.2,1.7-10.86V37.79h0.8c1.29,0,3.13-0.14,4.17-1.35c0.78-0.91,1.14-2.14,1.14-3.86v-6.22
				c0-2.2-0.38-3.6-1.2-4.42c-0.82-0.82-2.12-1.2-4.12-1.2H25.39l3.46-13.01c0.83-2.03,0.99-3.28,0.55-4.18
				c-0.65-1.29-2.53-1.46-4.1-1.46h-6.32c-1.51,0-2.64,0.34-3.52,1.09c-0.75,0.75-1.33,2.09-1.77,4.07l-3.51,13.49H4.14
				c-1.97,0-3.27,0.41-3.92,1.2c-0.82,0.82-1.2,2.22-1.2,4.42v6.22c0,1.72,0.36,2.95,1.09,3.79c0.68,0.96,2,1.42,4.02,1.42h1.51
				L0.36,57.91c-0.43,1.83-0.35,3.46,0.27,5.06c0.73,1.57,2.13,2.92,4.07,3.88l7.4,3.74c-2.42,2.01-4.8,3.23-7.26,3.71
				C3.07,74.68,2,75.19,1.43,75.88c-0.79,0.79-1.2,1.84-1.2,3.11v8.22c0,1.29,0.46,2.38,1.45,3.37c0.9,0.77,2,1.22,3.27,1.34
				l0.08,0.01l0.08,0c3.08-0.21,6.48-1.59,10.12-4.08c3.23-2.22,6.6-5.35,10.28-9.57l10.42,6.01c1.78,1,3.18,1.56,4.19,1.05
				c1.42-0.61,1.61-2.43,1.61-4.13v-7.42c0-2.58-0.35-4.14-1.14-5.06C39.91,67.93,38.66,66.98,36.74,65.81z"/>
			<path class="st0" d="M85.84,37.59H75.15l8.38-19.1c0.68-1.36,1.01-2.62,1.01-3.86V7.52c0-2.14-0.4-3.62-1.2-4.42
				c-0.96-0.96-2.55-1.1-4.12-1.1H47.25c-1.31,0-2.95,0.12-3.92,1.09c-0.79,0.79-1.2,2.28-1.2,4.42v7.12c0,1.68,0.38,2.98,1.2,3.92
				c0.84,0.84,2.23,1.3,3.92,1.3h16.41L59,30.53c-0.7,0.12-1.3,0.42-1.8,0.91c-0.75,0.64-1.13,1.97-1.13,3.95v2.21H42.94
				c-1.8,0-3.12,0.4-3.92,1.2c-0.82,0.82-1.2,2.22-1.2,4.42v7.02c0,1.72,0.36,2.95,1.14,3.86c0.78,0.91,2.08,1.35,3.97,1.35h13.13
				v17.94c0,1.05-0.34,1.1-0.9,1.1h-1.2c-1.76,0-3.02,0.34-3.85,1.03c-0.84,0.7-1.26,2-1.26,3.88v8.42c0,1.5,0.41,2.57,1.26,3.28
				c0.79,0.66,1.94,0.93,3.85,0.93H69.9c2.06,0,3.34-0.32,3.95-0.93c0.85-0.71,1.26-1.78,1.26-3.28V55.44h10.73
				c2.16,0,3.54-0.47,4.17-1.35c0.78-0.91,1.14-2.14,1.14-3.86v-7.02c0-2.2-0.38-3.6-1.14-4.35C89.31,38.01,87.95,37.59,85.84,37.59
				z"/>
			<path class="st0" d="M143.19,60.49l24.37-47.91c2.29-4.17,1.41-6.29,0.27-7.34c-1.51-1.4-3.94-2.06-7.65-2.06l-9.55,0
				c-3.22,0.11-5.44,0.82-6.8,2.18c-1.3,1.3-2.66,3.42-4.05,6.29l-10.6,20.94L118.6,11.67c-1.45-3-2.82-5.08-4.12-6.27
				c-1.29-1.4-3.46-2.1-6.86-2.21h-9.42c-3.77,0-6.28,0.68-7.65,2.06c-1.12,1.03-1.99,3.14,0.16,7.32l24.48,48.03l0,20.34
				c0.1,2.77,0.85,4.81,2.27,6.23c1.34,1.34,3.41,2,6.28,2c0.21,0,0.43,0,0.65-0.01l10.02,0c3.28-0.11,5.51-0.79,6.77-2.06
				c1.46-1.35,2.12-3.39,2.02-6.2V60.49z"/>
			<path class="st0" d="M220.2,28.68l-0.01-0.01c-5.7-4.62-13.7-7.01-23.81-7.1h-3.31c-10.16,0.09-18.2,2.48-23.91,7.11
				c-5.63,4.74-8.37,12.73-8.37,24.42v4.43c0,11.69,2.74,19.68,8.38,24.43c5.7,4.62,13.74,7.01,23.9,7.1h3.31
				c10.03-0.09,18.01-2.48,23.71-7.11c5.76-4.77,8.56-12.76,8.56-24.42v-4.43C228.66,41.62,225.81,33.4,220.2,28.68z"/>
			<path class="st0" d="M299.76,23.34c-1.51-1.4-3.84-2.06-6.92-1.96l-9.06,0c-3.17,0.11-5.39,0.78-6.77,2.06
				c-1.46,1.35-2.12,3.39-2.02,6.2l0,28.47c-0.17,2.11-0.75,3.84-1.69,5.05c-0.81,1.1-2.38,1.66-4.66,1.66h-0.94
				c-2.26,0-3.85-0.64-4.88-1.99c-1.04-1.28-1.57-3.6-1.57-6.91l0-26.25c0.11-2.85-0.56-4.89-2.02-6.24
				c-1.41-1.3-3.56-1.95-6.81-2.06l-9.01,0c-3.13-0.1-5.44,0.57-6.84,1.96c-1.55,1.44-2.3,3.5-2.3,6.29v27.89
				c0,11.69,2.74,19.68,8.38,24.43c5.7,4.62,13.74,7.01,23.9,7.1h3.3c2.49,0,4.51-0.12,6.31-0.38c0.96-0.09,1.84-0.25,2.6-0.42
				c1.41,0.66,3.22,1,5.38,1c0.26,0,0.52,0,0.79-0.01l8.32,0c3.17-0.1,5.39-0.78,6.8-2.08c1.32-1.32,1.99-3.62,1.99-6.83l0-50.73
				C301.96,26.83,301.21,24.79,299.76,23.34z"/>
			<path class="st0" d="M367.19,28.68l-0.01-0.01c-5.7-4.62-13.71-7.01-23.81-7.1h-3.3c-2.56,0-4.61,0.12-6.41,0.38
				c-0.87,0.09-1.73,0.25-2.57,0.42c-1.5-0.74-3.63-1.08-6.18-0.99l-8.32,0c-3.22,0.11-5.41,0.79-6.68,2.06
				c-1.42,1.31-2.11,3.56-2.11,6.86l0,50.73c0.1,2.77,0.85,4.81,2.3,6.26c1.41,1.31,3.54,1.98,6.3,1.97c0.2,0,0.4,0,0.6-0.01l9.08,0
				c3.21-0.1,5.36-0.76,6.77-2.06c1.46-1.35,2.12-3.39,2.02-6.2l0-28.47c0.17-2.1,0.75-3.84,1.67-5.01c0.93-1.16,2.41-1.7,4.68-1.7
				h0.94c2.26,0,3.85,0.64,4.88,1.98c1.04,1.28,1.57,3.6,1.57,6.91l0,26.25c-0.11,2.85,0.55,4.89,2.02,6.24
				c1.38,1.28,3.6,1.95,6.8,2.06l9.01,0c3.07,0.1,5.42-0.56,6.96-1.99c1.43-1.43,2.17-3.46,2.27-6.27V53.09
				C375.65,41.62,372.81,33.4,367.19,28.68z"/>
			<path class="st0" d="M422.08,46.87v0.94c0,2.43-0.49,4.11-1.47,5.01c-1.03,0.95-2.7,1.43-4.97,1.43h-0.94
				c-2.27,0-3.95-0.48-4.97-1.43c-0.97-0.9-1.47-2.58-1.47-5.01v-0.94c0-2.43,0.49-4.11,1.47-5.01c1.03-0.95,2.7-1.43,4.97-1.43
				h0.94c2.3,0,4.05,0.49,5.04,1.4C421.6,42.75,422.08,44.5,422.08,46.87z M446.85,23.34c-1.51-1.4-3.85-2.06-6.92-1.96l-9.08,0
				c-1.91,0.09-3.47,0.27-4.81,0.82c-3.26-0.42-6.27-0.63-9.18-0.63h-3.31c-10.08,0.09-18.08,1.89-23.8,5.34
				c-5.62,3.55-8.48,9.86-8.48,18.75v3.39c0,8.89,2.85,15.2,8.49,18.76c5.75,3.47,13.76,5.23,23.79,5.23h3.3
				c1.48,0,2.95-0.05,4.33-0.15c-0.17,0.41-0.38,0.8-0.63,1.2c-1.02,1.22-2.68,1.84-4.93,1.84l-25.95,0
				c-2.97,0.11-5.14,0.88-6.45,2.3c-1.32,1.43-1.96,3.69-1.96,6.9v1.04c0,3.19,0.68,5.43,2.11,6.86c1.41,1.3,3.54,1.96,6.33,1.96
				h27.15c10.4-0.2,18.18-2.55,23.8-7.2c5.62-4.63,8.47-12.85,8.47-24.42l0-33.77C449.05,26.83,448.3,24.79,446.85,23.34z"/>
			<path class="st0" d="M544.68,21.75l-0.11-0.09c-0.79-0.59-1.81-1.2-3.31-1.2h-6.52c-4.23,0-7.55-0.53-9.64-1.5h14.55
				c2.03,0,3.39-0.44,4.17-1.35c0.78-0.91,1.14-2.14,1.14-3.86v-2.31c0-2.2-0.38-3.6-1.2-4.42c-0.79-0.79-2.18-1.2-4.12-1.2h-1v-1.4
				c0-0.99-0.52-2.04-1.5-3.01C536.22,0.46,535,0,533.44,0h-4.11c-1.65,0-2.86,0.44-3.86,1.44c-0.81,0.93-1.31,1.9-1.44,2.82
				l-0.01,1.55h-2.61v-0.7c0-1.45-0.44-2.56-1.35-3.47c-0.91-1.04-1.98-1.54-3.26-1.54h-9.22c-1.31,0-2.48,0.53-3.36,1.54
				c-0.91,1.04-1.35,2.17-1.35,3.47v0.7h-3.41c-1.81,0-3.12,0.4-3.92,1.2c-0.82,0.82-1.2,2.22-1.2,4.42v2.31
				c0,1.72,0.36,2.95,1.14,3.86c0.78,0.91,2.08,1.35,3.97,1.35h5.19c1.37,3.96,3.65,7.06,7.01,9.47c4.99,3.16,11.23,4.86,18.58,5.07
				l11.12,0c1.36-0.12,2.34-0.53,3.27-1.34c0.88-0.76,1.35-1.89,1.35-3.27v-3.81C545.97,23.69,545.56,22.63,544.68,21.75z"/>
			<path class="st0" d="M481.31,45.51v-0.4h37.79v0.4H481.31z M481.31,57.24v-0.4h37.79v0.4H481.31z M534.74,33.68h-49.47
				c0.95-0.18,1.79-0.62,2.66-1.4c0.99-0.99,1.5-2.14,1.5-3.42V14.6c3.13-2.72,4.71-5.51,4.71-8.28v-1.2c0-1.29-0.44-2.43-1.35-3.47
				c-0.88-1.01-2.05-1.54-3.36-1.54H477.4c-1.23,0-2.39,0.55-3.26,1.54c-0.91,1.04-1.35,2.17-1.35,3.47v0.8
				c0,1.39-1.9,2.5-3.51,3.19c-3,1.33-5.74,2.37-8.41,3.17c-3.27,1.01-4.9,1.72-5.69,2.52c-0.69,0.82-1.03,1.88-1.03,3.15v5.41
				c0,1.43,0.46,2.5,1.45,3.37c0.99,0.85,2.03,1.24,3.26,1.24c2.36,0,5.86-0.92,10.43-2.72v3.62l0,0.1
				c0.12,1.21,0.61,2.31,1.49,3.32c0.75,0.75,1.63,1.21,2.68,1.4h-7.78c-1.24,0-2.31,0.39-3.08,1.16c-0.65,0.79-0.93,1.7-0.93,3.05
				v38.5c0,1.38,0.35,2.37,1.03,2.95c0.47,0.45,1.08,0.77,1.8,0.93l-1.57,4.4l-0.05,0.17c-0.23,1.39,0.16,2.72,1.18,3.88
				c1.03,1.03,2.34,1.52,3.72,1.4l7.97,0c2.51,0.12,4.02-0.17,4.97-0.99c0.57-0.57,1.4-1.68,2.14-3.77l1.86-4.96h30.89l1.85,4.94
				c0.74,2.1,1.57,3.22,2.2,3.84c0.77,0.66,2,0.97,3.87,0.97c0.31,0,0.64-0.01,0.99-0.03l7.94,0c1.45,0.13,2.77-0.36,3.85-1.44
				c0.98-1.12,1.37-2.44,1.14-3.83l-1.61-4.55c0.76-0.16,1.41-0.48,1.89-0.95c0.69-0.58,1.03-1.57,1.03-2.95v-38.5
				c0-1.35-0.28-2.26-0.99-3.11C537.05,34.07,535.98,33.68,534.74,33.68z M519.11,68.67v0.3h-37.79v-0.3H519.11z"/>
		</g>
		<g>
			<path class="st0" d="M21.28,38.8v13.23c0,2.35-0.13,4.13-0.42,5.49l-4.14-2.45l4.23-16.26H21.28z M36.74,66.81l-2.82-1.61
				c1.13-3.55,1.7-7.2,1.7-10.86V38.8h0.8c1.29,0,3.13-0.14,4.17-1.35c0.78-0.91,1.14-2.14,1.14-3.86v-6.22c0-2.2-0.38-3.6-1.2-4.42
				c-0.82-0.82-2.12-1.2-4.12-1.2H25.39l3.46-13.01c0.83-2.03,0.99-3.28,0.55-4.18c-0.65-1.29-2.53-1.46-4.1-1.46h-6.32
				c-1.51,0-2.64,0.34-3.52,1.09c-0.75,0.75-1.33,2.09-1.77,4.07l-3.51,13.49H4.14c-1.97,0-3.27,0.41-3.92,1.2
				c-0.82,0.82-1.2,2.22-1.2,4.42v6.22c0,1.72,0.36,2.95,1.09,3.79c0.68,0.96,2,1.42,4.02,1.42h1.51L0.36,58.92
				c-0.43,1.83-0.35,3.46,0.27,5.06c0.73,1.57,2.13,2.92,4.07,3.88l7.4,3.74c-2.42,2.01-4.8,3.2-7.26,3.71
				C3.06,75.67,2,76.19,1.43,76.88c-0.79,0.79-1.2,1.84-1.2,3.11v8.22c0,1.29,0.46,2.38,1.45,3.37c0.9,0.77,2,1.22,3.27,1.34
				l0.08,0.01l0.08,0c3.08-0.21,6.48-1.59,10.12-4.08c3.23-2.22,6.6-5.35,10.28-9.57l10.42,6.01c1.78,1,3.18,1.56,4.19,1.05
				c1.42-0.61,1.61-2.43,1.61-4.13v-7.42c0-2.58-0.35-4.14-1.14-5.06C39.91,68.93,38.66,67.98,36.74,66.81z"/>
			<path class="st0" d="M85.84,38.6H75.15l8.38-19.1c0.68-1.36,1.01-2.62,1.01-3.86V8.52c0-2.14-0.4-3.62-1.2-4.42
				c-0.96-0.96-2.55-1.1-4.12-1.1H47.25c-1.31,0-2.95,0.12-3.92,1.09c-0.79,0.79-1.2,2.28-1.2,4.42v7.12c0,1.68,0.38,2.98,1.2,3.92
				c0.84,0.84,2.23,1.3,3.92,1.3h16.41L59,31.53c-0.7,0.12-1.3,0.42-1.8,0.91c-0.75,0.64-1.13,1.97-1.13,3.95v2.21H42.94
				c-1.8,0-3.12,0.4-3.92,1.2c-0.82,0.82-1.2,2.22-1.2,4.42v7.02c0,1.72,0.36,2.95,1.14,3.86c0.78,0.91,2.08,1.35,3.97,1.35h13.13
				v17.94c0,1.05-0.34,1.1-0.9,1.1h-1.2c-1.76,0-3.02,0.34-3.85,1.03c-0.84,0.7-1.26,2-1.26,3.88v8.42c0,1.5,0.41,2.57,1.26,3.28
				c0.79,0.66,1.94,0.93,3.85,0.93H69.9c2.06,0,3.34-0.32,3.95-0.93c0.85-0.71,1.26-1.78,1.26-3.28V56.44h10.73
				c2.16,0,3.54-0.47,4.17-1.35c0.78-0.91,1.14-2.14,1.14-3.86v-7.02c0-2.2-0.38-3.6-1.14-4.35C89.31,39.01,87.95,38.6,85.84,38.6z"
				/>
			<path class="st0" d="M143.19,61.5l24.37-47.91c2.29-4.17,1.41-6.29,0.27-7.34c-1.51-1.4-3.94-2.06-7.65-2.06l-9.55,0
				c-3.22,0.11-5.44,0.82-6.8,2.18c-1.3,1.3-2.66,3.42-4.05,6.29l-10.6,20.94L118.6,12.67c-1.45-3-2.82-5.08-4.12-6.27
				c-1.29-1.4-3.46-2.1-6.86-2.21h-9.42c-3.77,0-6.28,0.68-7.65,2.06c-1.12,1.03-1.99,3.14,0.16,7.32l24.48,48.03l0,20.34
				c0.1,2.77,0.85,4.81,2.27,6.23c1.34,1.34,3.41,2,6.28,2c0.21,0,0.43,0,0.65-0.01l10.02,0c3.28-0.11,5.51-0.79,6.77-2.06
				c1.46-1.35,2.12-3.39,2.02-6.2V61.5z"/>
			<path class="st0" d="M220.2,29.68l-0.01-0.01c-5.7-4.62-13.7-7.01-23.81-7.1h-3.31c-10.16,0.09-18.24,2.43-23.91,7.11
				c-5.67,4.69-8.37,12.73-8.37,24.42v4.43c0,11.69,2.69,19.73,8.38,24.43c5.65,4.67,13.74,7.01,23.9,7.1h3.31
				c10.03-0.09,18.03-2.45,23.71-7.11c5.79-4.74,8.56-12.76,8.56-24.42V54.1C228.66,42.62,225.81,34.41,220.2,29.68z"/>
			<path class="st0" d="M299.76,24.34c-1.51-1.4-3.84-2.06-6.92-1.96l-9.06,0c-3.17,0.11-5.39,0.78-6.77,2.06
				c-1.46,1.35-2.12,3.39-2.02,6.2l0,28.47c-0.17,2.11-0.75,3.84-1.69,5.05c-0.81,1.1-2.38,1.66-4.66,1.66h-0.94
				c-2.26,0-3.83-0.66-4.88-1.99c-1.02-1.29-1.57-3.6-1.57-6.91l0-26.25c0.11-2.85-0.56-4.89-2.02-6.24
				c-1.41-1.3-3.56-1.95-6.81-2.06l-9.01,0c-3.13-0.1-5.44,0.57-6.84,1.96c-1.55,1.44-2.3,3.5-2.3,6.29v27.89
				c0,11.69,2.69,19.73,8.38,24.43c5.65,4.67,13.74,7.01,23.9,7.1h3.3c2.49,0,4.51-0.12,6.31-0.38c0.96-0.09,1.84-0.25,2.6-0.42
				c1.41,0.66,3.22,1,5.38,1c0.26,0,0.52,0,0.79-0.01l8.32,0c3.17-0.1,5.39-0.78,6.8-2.08c1.32-1.32,1.99-3.62,1.99-6.83l0-50.73
				C301.96,27.83,301.21,25.79,299.76,24.34z"/>
			<path class="st0" d="M367.19,29.68l-0.01-0.01c-5.7-4.62-13.71-7.01-23.81-7.1h-3.3c-2.56,0-4.61,0.12-6.41,0.38
				c-0.87,0.09-1.73,0.25-2.57,0.42c-1.5-0.74-3.63-1.08-6.18-0.99l-8.32,0c-3.22,0.11-5.41,0.79-6.68,2.06
				c-1.42,1.31-2.11,3.56-2.11,6.86l0,50.73c0.1,2.77,0.85,4.81,2.3,6.26c1.41,1.31,3.54,1.98,6.3,1.97c0.2,0,0.4,0,0.6-0.01l9.08,0
				c3.21-0.1,5.36-0.76,6.77-2.06c1.46-1.35,2.12-3.39,2.02-6.2l0-28.47c0.17-2.1,0.74-3.84,1.67-5.01c0.92-1.16,2.41-1.7,4.68-1.7
				h0.94c2.26,0,3.83,0.66,4.88,1.98c1.02,1.29,1.57,3.6,1.57,6.91l0,26.25c-0.11,2.85,0.55,4.89,2.02,6.24
				c1.38,1.28,3.6,1.95,6.8,2.06l9.01,0c3.07,0.1,5.42-0.56,6.96-1.99c1.43-1.43,2.17-3.46,2.27-6.27V54.1
				C375.65,42.62,372.81,34.41,367.19,29.68z"/>
			<path class="st0" d="M422.08,47.88v0.94c0,2.43-0.49,4.11-1.47,5.01c-1.03,0.95-2.7,1.43-4.97,1.43h-0.94
				c-2.27,0-3.95-0.48-4.97-1.43c-0.97-0.9-1.47-2.58-1.47-5.01v-0.94c0-2.43,0.49-4.11,1.47-5.01c1.03-0.95,2.7-1.43,4.97-1.43
				h0.94c2.3,0,4.05,0.49,5.04,1.4C421.6,43.76,422.08,45.5,422.08,47.88z M446.85,24.34c-1.51-1.4-3.85-2.06-6.92-1.96l-9.08,0
				c-1.91,0.09-3.47,0.27-4.81,0.82c-3.26-0.42-6.27-0.63-9.18-0.63h-3.31c-10.08,0.09-18.12,1.83-23.8,5.34
				c-5.66,3.49-8.48,9.86-8.48,18.75v3.39c0,8.89,2.82,15.25,8.49,18.76c5.72,3.53,13.76,5.23,23.79,5.23h3.3
				c1.48,0,2.95-0.05,4.33-0.15c-0.17,0.41-0.38,0.8-0.63,1.2c-1.02,1.22-2.68,1.84-4.93,1.84l-25.95,0
				c-2.97,0.11-5.14,0.88-6.45,2.3c-1.32,1.43-1.96,3.69-1.96,6.9v1.04c0,3.19,0.68,5.43,2.11,6.86c1.41,1.3,3.54,1.96,6.33,1.96
				h27.15c10.4-0.2,18.18-2.55,23.8-7.2c5.62-4.63,8.47-12.85,8.47-24.42l0-33.77C449.05,27.83,448.3,25.79,446.85,24.34z"/>
			<path class="st0" d="M544.68,22.75l-0.11-0.09c-0.79-0.59-1.81-1.2-3.31-1.2h-6.52c-4.23,0-7.55-0.53-9.64-1.5h14.55
				c2.03,0,3.39-0.44,4.17-1.35c0.78-0.91,1.14-2.14,1.14-3.86v-2.31c0-2.2-0.38-3.6-1.2-4.42c-0.79-0.79-2.18-1.2-4.12-1.2h-1v-1.4
				c0-0.99-0.52-2.04-1.5-3.01C536.22,1.46,535,1,533.44,1h-4.11c-1.65,0-2.86,0.44-3.86,1.44c-0.81,0.93-1.31,1.9-1.44,2.82
				l-0.01,1.55h-2.61v-0.7c0-1.45-0.44-2.56-1.35-3.47c-0.91-1.04-1.98-1.54-3.26-1.54h-9.22c-1.31,0-2.48,0.53-3.36,1.54
				c-0.91,1.04-1.35,2.17-1.35,3.47v0.7h-3.41c-1.81,0-3.12,0.4-3.92,1.2c-0.82,0.82-1.2,2.22-1.2,4.42v2.31
				c0,1.72,0.36,2.95,1.14,3.86c0.78,0.91,2.08,1.35,3.97,1.35h5.19c1.37,3.96,3.65,7.06,7.01,9.47c4.99,3.16,11.23,4.86,18.58,5.07
				l11.12,0c1.36-0.12,2.33-0.53,3.27-1.34c0.88-0.76,1.35-1.89,1.35-3.27v-3.81C545.97,24.69,545.56,23.63,544.68,22.75z"/>
			<path class="st0" d="M481.31,46.52v-0.4h37.79v0.4H481.31z M481.31,58.24v-0.4h37.79v0.4H481.31z M534.74,34.69h-49.47
				c0.95-0.18,1.79-0.62,2.66-1.4c0.99-0.99,1.5-2.14,1.5-3.42V15.6c3.13-2.72,4.71-5.51,4.71-8.28v-1.2c0-1.29-0.44-2.43-1.35-3.47
				c-0.88-1.01-2.05-1.54-3.36-1.54H477.4c-1.23,0-2.39,0.55-3.26,1.54c-0.91,1.04-1.35,2.17-1.35,3.47v0.8
				c0,1.39-1.91,2.49-3.51,3.19c-3,1.31-5.75,2.35-8.41,3.17c-3.27,1-4.9,1.72-5.69,2.52c-0.69,0.82-1.03,1.88-1.03,3.15v5.41
				c0,1.43,0.45,2.5,1.45,3.37c0.99,0.85,2.03,1.24,3.26,1.24c2.36,0,5.86-0.92,10.43-2.72v3.62l0,0.1
				c0.12,1.21,0.61,2.31,1.49,3.32c0.75,0.75,1.63,1.21,2.68,1.4h-7.78c-1.24,0-2.31,0.39-3.08,1.16c-0.65,0.79-0.93,1.7-0.93,3.05
				v38.5c0,1.38,0.35,2.37,1.03,2.95c0.47,0.45,1.08,0.77,1.8,0.93l-1.57,4.4l-0.05,0.17c-0.23,1.39,0.16,2.72,1.18,3.88
				c1.03,1.03,2.34,1.52,3.72,1.4l7.97,0c2.51,0.12,4.02-0.17,4.97-0.99c0.57-0.57,1.4-1.68,2.14-3.77l1.86-4.96h30.89l1.85,4.94
				c0.74,2.1,1.57,3.22,2.2,3.84c0.77,0.66,2,0.97,3.87,0.97c0.31,0,0.64-0.01,0.99-0.03l7.94,0c1.45,0.13,2.77-0.36,3.85-1.44
				c0.98-1.12,1.37-2.44,1.14-3.83l-1.61-4.55c0.76-0.16,1.41-0.48,1.89-0.95c0.69-0.58,1.03-1.57,1.03-2.95V38.9
				c0-1.35-0.28-2.26-0.99-3.11C537.05,35.08,535.98,34.69,534.74,34.69z M519.11,69.67v0.3h-37.79v-0.3H519.11z"/>
		</g>
		<g>
			<path class="st0" d="M21.28,39.8v13.23c0,2.35-0.13,4.13-0.42,5.49l-4.14-2.45l4.23-16.26H21.28z M36.74,67.82l-2.82-1.61
				c1.13-3.55,1.7-7.2,1.7-10.86V39.8h0.8c1.29,0,3.13-0.14,4.17-1.35c0.78-0.91,1.14-2.14,1.14-3.86v-6.22c0-2.2-0.38-3.6-1.2-4.42
				c-0.82-0.82-2.12-1.2-4.12-1.2H25.39l3.46-13.01c0.83-2.03,0.99-3.28,0.55-4.18c-0.65-1.29-2.53-1.46-4.1-1.46h-6.32
				c-1.51,0-2.64,0.34-3.52,1.09c-0.75,0.75-1.33,2.09-1.77,4.07l-3.51,13.49H4.14c-1.97,0-3.27,0.41-3.92,1.2
				c-0.82,0.82-1.2,2.22-1.2,4.42v6.22c0,1.72,0.36,2.95,1.09,3.79c0.68,0.96,2,1.42,4.02,1.42h1.51L0.36,59.92
				c-0.43,1.83-0.35,3.46,0.27,5.06c0.73,1.57,2.13,2.92,4.07,3.88l7.4,3.74c-2.42,2.01-4.8,3.2-7.26,3.71
				C3.06,76.67,2,77.2,1.43,77.89c-0.79,0.79-1.2,1.84-1.2,3.11v8.22c0,1.29,0.46,2.38,1.45,3.37c0.9,0.77,2,1.22,3.27,1.34
				l0.08,0.01l0.08,0c3.08-0.21,6.48-1.59,10.12-4.08c3.23-2.22,6.6-5.35,10.28-9.57l10.42,6.01c1.78,1,3.18,1.56,4.19,1.05
				c1.42-0.61,1.61-2.43,1.61-4.13v-7.42c0-2.58-0.35-4.14-1.14-5.06C39.91,69.94,38.66,68.98,36.74,67.82z"/>
			<path class="st0" d="M85.84,39.6H75.15l8.38-19.1c0.68-1.36,1.01-2.62,1.01-3.86V9.52c0-2.14-0.4-3.62-1.2-4.42
				c-0.96-0.96-2.55-1.1-4.12-1.1H47.25c-1.31,0-2.95,0.12-3.92,1.09c-0.79,0.79-1.2,2.28-1.2,4.42v7.12c0,1.68,0.38,2.98,1.2,3.92
				c0.84,0.84,2.23,1.3,3.92,1.3h16.41L59,32.54c-0.7,0.12-1.3,0.42-1.8,0.91c-0.75,0.64-1.13,1.97-1.13,3.95v2.21H42.94
				c-1.8,0-3.12,0.4-3.92,1.2c-0.82,0.82-1.2,2.22-1.2,4.42v7.02c0,1.72,0.36,2.95,1.14,3.86c0.78,0.91,2.08,1.35,3.97,1.35h13.13
				v17.94c0,1.05-0.34,1.1-0.9,1.1h-1.2c-1.76,0-3.02,0.34-3.85,1.03c-0.84,0.7-1.26,2-1.26,3.88v8.42c0,1.5,0.41,2.57,1.26,3.28
				c0.79,0.66,1.94,0.93,3.85,0.93H69.9c2.06,0,3.34-0.32,3.95-0.93c0.85-0.71,1.26-1.78,1.26-3.28V57.44h10.73
				c2.16,0,3.54-0.47,4.17-1.35c0.78-0.91,1.14-2.14,1.14-3.86v-7.02c0-2.2-0.38-3.6-1.14-4.35C89.31,40.01,87.95,39.6,85.84,39.6z"
				/>
			<path class="st0" d="M143.19,62.5l24.37-47.91c2.29-4.17,1.41-6.29,0.27-7.34c-1.51-1.4-3.94-2.06-7.65-2.06l-9.55,0
				c-3.22,0.11-5.44,0.82-6.8,2.18c-1.3,1.3-2.66,3.42-4.05,6.29l-10.6,20.94L118.6,13.67c-1.45-3-2.82-5.08-4.12-6.27
				c-1.29-1.4-3.46-2.1-6.86-2.21h-9.42c-3.77,0-6.28,0.68-7.65,2.06c-1.12,1.03-1.99,3.14,0.16,7.32l24.48,48.03l0,20.34
				c0.1,2.77,0.85,4.81,2.27,6.23c1.34,1.34,3.41,2,6.28,2c0.21,0,0.43,0,0.65-0.01l10.02,0c3.28-0.11,5.51-0.79,6.77-2.06
				c1.46-1.35,2.12-3.39,2.02-6.2V62.5z"/>
			<path class="st0" d="M220.2,30.68l-0.01-0.01c-5.7-4.62-13.7-7.01-23.81-7.1h-3.31c-10.16,0.09-18.24,2.43-23.91,7.11
				c-5.67,4.69-8.37,12.73-8.37,24.42v4.43c0,11.69,2.69,19.73,8.38,24.43c5.65,4.67,13.74,7.01,23.9,7.1h3.31
				c10.03-0.09,18.03-2.45,23.71-7.11c5.79-4.74,8.56-12.76,8.56-24.42V55.1C228.66,43.62,225.81,35.41,220.2,30.68z"/>
			<path class="st0" d="M299.76,25.34c-1.51-1.4-3.84-2.06-6.92-1.96l-9.06,0c-3.17,0.11-5.39,0.78-6.77,2.06
				c-1.46,1.35-2.12,3.39-2.02,6.2l0,28.47c-0.17,2.11-0.75,3.84-1.69,5.05c-0.81,1.1-2.38,1.66-4.66,1.66h-0.94
				c-2.26,0-3.83-0.66-4.88-1.99c-1.02-1.29-1.57-3.6-1.57-6.91l0-26.25c0.11-2.85-0.56-4.89-2.02-6.24
				c-1.41-1.3-3.56-1.95-6.81-2.06l-9.01,0c-3.13-0.1-5.44,0.57-6.84,1.96c-1.55,1.44-2.3,3.5-2.3,6.29v27.89
				c0,11.69,2.69,19.73,8.38,24.43c5.65,4.67,13.74,7.01,23.9,7.1h3.3c2.49,0,4.51-0.12,6.31-0.38c0.96-0.09,1.84-0.25,2.6-0.42
				c1.41,0.66,3.22,1,5.38,1c0.26,0,0.52,0,0.79-0.01l8.32,0c3.17-0.1,5.39-0.78,6.8-2.08c1.32-1.32,1.99-3.62,1.99-6.83l0-50.73
				C301.96,28.83,301.21,26.8,299.76,25.34z"/>
			<path class="st0" d="M367.19,30.68l-0.01-0.01c-5.7-4.62-13.71-7.01-23.81-7.1h-3.3c-2.56,0-4.61,0.12-6.41,0.38
				c-0.87,0.09-1.73,0.25-2.57,0.42c-1.5-0.74-3.63-1.08-6.18-0.99l-8.32,0c-3.22,0.11-5.41,0.79-6.68,2.06
				c-1.42,1.31-2.11,3.56-2.11,6.86l0,50.73c0.1,2.77,0.85,4.81,2.3,6.26c1.41,1.31,3.54,1.98,6.3,1.97c0.2,0,0.4,0,0.6-0.01l9.08,0
				c3.21-0.1,5.36-0.76,6.77-2.06c1.46-1.35,2.12-3.39,2.02-6.2l0-28.47c0.17-2.1,0.74-3.84,1.67-5.01c0.92-1.16,2.41-1.7,4.68-1.7
				h0.94c2.26,0,3.83,0.66,4.88,1.98c1.02,1.29,1.57,3.6,1.57,6.91l0,26.25c-0.11,2.85,0.55,4.89,2.02,6.24
				c1.38,1.28,3.6,1.95,6.8,2.06l9.01,0c3.07,0.1,5.42-0.56,6.96-1.99c1.43-1.43,2.17-3.46,2.27-6.27V55.1
				C375.65,43.62,372.81,35.41,367.19,30.68z"/>
			<path class="st0" d="M422.08,48.88v0.94c0,2.43-0.49,4.11-1.47,5.01c-1.03,0.95-2.7,1.43-4.97,1.43h-0.94
				c-2.27,0-3.95-0.48-4.97-1.43c-0.97-0.9-1.47-2.58-1.47-5.01v-0.94c0-2.43,0.49-4.11,1.47-5.01c1.03-0.95,2.7-1.43,4.97-1.43
				h0.94c2.3,0,4.05,0.49,5.04,1.4C421.6,44.76,422.08,46.5,422.08,48.88z M446.85,25.34c-1.51-1.4-3.85-2.06-6.92-1.96l-9.08,0
				c-1.91,0.09-3.47,0.27-4.81,0.82c-3.26-0.42-6.27-0.63-9.18-0.63h-3.31c-10.08,0.09-18.12,1.83-23.8,5.34
				c-5.66,3.49-8.48,9.86-8.48,18.75v3.39c0,8.89,2.82,15.25,8.49,18.76c5.72,3.53,13.76,5.23,23.79,5.23h3.3
				c1.48,0,2.95-0.05,4.33-0.15c-0.17,0.41-0.38,0.8-0.63,1.2c-1.02,1.22-2.68,1.84-4.93,1.84l-25.95,0
				c-2.97,0.11-5.14,0.88-6.45,2.3c-1.32,1.43-1.96,3.69-1.96,6.9v1.04c0,3.19,0.68,5.43,2.11,6.86c1.41,1.3,3.54,1.96,6.33,1.96
				h27.15c10.4-0.2,18.18-2.55,23.8-7.2c5.62-4.63,8.47-12.85,8.47-24.42l0-33.77C449.05,28.83,448.3,26.8,446.85,25.34z"/>
			<path class="st0" d="M544.68,23.75l-0.11-0.09c-0.79-0.59-1.81-1.2-3.31-1.2h-6.52c-4.23,0-7.55-0.53-9.64-1.5h14.55
				c2.03,0,3.39-0.44,4.17-1.35c0.78-0.91,1.14-2.14,1.14-3.86v-2.31c0-2.2-0.38-3.6-1.2-4.42c-0.79-0.79-2.18-1.2-4.12-1.2h-1v-1.4
				c0-0.99-0.52-2.04-1.5-3.01c-0.94-0.94-2.15-1.4-3.72-1.4h-4.11c-1.65,0-2.86,0.44-3.86,1.44c-0.81,0.93-1.31,1.9-1.44,2.82
				l-0.01,1.55h-2.61v-0.7c0-1.45-0.44-2.56-1.35-3.47c-0.91-1.04-1.98-1.54-3.26-1.54h-9.22c-1.31,0-2.48,0.53-3.36,1.54
				c-0.91,1.04-1.35,2.17-1.35,3.47v0.7h-3.41c-1.81,0-3.12,0.4-3.92,1.2c-0.82,0.82-1.2,2.22-1.2,4.42v2.31
				c0,1.72,0.36,2.95,1.14,3.86c0.78,0.91,2.08,1.35,3.97,1.35h5.19c1.37,3.96,3.65,7.06,7.01,9.47c4.99,3.16,11.23,4.86,18.58,5.07
				l11.12,0c1.36-0.12,2.33-0.53,3.27-1.34c0.88-0.76,1.35-1.89,1.35-3.27v-3.81C545.97,25.69,545.56,24.64,544.68,23.75z"/>
			<path class="st0" d="M481.31,47.52v-0.4h37.79v0.4H481.31z M481.31,59.25v-0.4h37.79v0.4H481.31z M534.74,35.69h-49.47
				c0.95-0.18,1.79-0.62,2.66-1.4c0.99-0.99,1.5-2.14,1.5-3.42V16.6c3.13-2.72,4.71-5.51,4.71-8.28v-1.2c0-1.29-0.44-2.43-1.35-3.47
				c-0.88-1.01-2.05-1.54-3.36-1.54H477.4c-1.23,0-2.39,0.55-3.26,1.54c-0.91,1.04-1.35,2.17-1.35,3.47v0.8
				c0,1.39-1.91,2.49-3.51,3.19c-3,1.31-5.75,2.35-8.41,3.17c-3.27,1-4.9,1.72-5.69,2.52c-0.69,0.82-1.03,1.88-1.03,3.15v5.41
				c0,1.43,0.45,2.5,1.45,3.37c0.99,0.85,2.03,1.24,3.26,1.24c2.36,0,5.86-0.92,10.43-2.72v3.62l0,0.1
				c0.12,1.21,0.61,2.31,1.49,3.32c0.75,0.75,1.63,1.21,2.68,1.4h-7.78c-1.24,0-2.31,0.39-3.08,1.16c-0.65,0.79-0.93,1.7-0.93,3.05
				v38.5c0,1.38,0.35,2.37,1.03,2.95c0.47,0.45,1.08,0.77,1.8,0.93l-1.57,4.4l-0.05,0.17c-0.23,1.39,0.16,2.72,1.18,3.88
				c1.03,1.03,2.34,1.52,3.72,1.4l7.97,0c2.51,0.12,4.02-0.17,4.97-0.99c0.57-0.57,1.4-1.68,2.14-3.77l1.86-4.96h30.89l1.85,4.94
				c0.74,2.1,1.57,3.22,2.2,3.84c0.77,0.66,2,0.97,3.87,0.97c0.31,0,0.64-0.01,0.99-0.03l7.94,0c1.45,0.13,2.77-0.36,3.85-1.44
				c0.98-1.12,1.37-2.44,1.14-3.83l-1.61-4.55c0.76-0.16,1.41-0.48,1.89-0.95c0.69-0.58,1.03-1.57,1.03-2.95V39.9
				c0-1.35-0.28-2.26-0.99-3.11C537.05,36.08,535.98,35.69,534.74,35.69z M519.11,70.68v0.3h-37.79v-0.3H519.11z"/>
		</g>
		<g>
			<path class="st0" d="M21.28,40.8v13.23c0,2.35-0.13,4.13-0.42,5.49l-4.14-2.45l4.23-16.26H21.28z M36.74,68.82l-2.82-1.61
				c1.13-3.55,1.7-7.2,1.7-10.86V40.8h0.8c1.29,0,3.13-0.14,4.17-1.35c0.78-0.91,1.14-2.14,1.14-3.86v-6.22c0-2.2-0.38-3.6-1.2-4.42
				c-0.82-0.82-2.12-1.2-4.12-1.2H25.39l3.46-13.01c0.83-2.03,0.99-3.28,0.55-4.18c-0.65-1.29-2.53-1.46-4.1-1.46h-6.32
				c-1.51,0-2.64,0.34-3.52,1.09c-0.75,0.75-1.33,2.09-1.77,4.07l-3.51,13.49H4.14c-1.97,0-3.27,0.41-3.92,1.2
				c-0.82,0.82-1.2,2.22-1.2,4.42v6.22c0,1.72,0.36,2.95,1.09,3.79c0.68,0.96,2,1.42,4.02,1.42h1.51L0.36,60.92
				c-0.43,1.83-0.35,3.46,0.27,5.06c0.73,1.57,2.13,2.92,4.07,3.88l7.4,3.74c-2.42,2.01-4.8,3.2-7.26,3.71
				C3.06,77.67,2,78.2,1.43,78.89c-0.79,0.79-1.2,1.84-1.2,3.11v8.22c0,1.29,0.46,2.38,1.45,3.37c0.9,0.77,2,1.22,3.27,1.34
				l0.08,0.01l0.08,0c3.08-0.21,6.48-1.59,10.12-4.08c3.23-2.22,6.6-5.35,10.28-9.57l10.42,6.01c1.78,1,3.18,1.56,4.19,1.05
				c1.42-0.61,1.61-2.43,1.61-4.13v-7.42c0-2.58-0.35-4.14-1.14-5.06C39.91,70.94,38.66,69.99,36.74,68.82z"/>
			<path class="st0" d="M85.84,40.6H75.15l8.38-19.1c0.68-1.36,1.01-2.62,1.01-3.86v-7.12c0-2.14-0.4-3.62-1.2-4.42
				c-0.96-0.96-2.55-1.1-4.12-1.1H47.25c-1.31,0-2.95,0.12-3.92,1.09c-0.79,0.79-1.2,2.28-1.2,4.42v7.12c0,1.68,0.38,2.98,1.2,3.92
				c0.84,0.84,2.23,1.3,3.92,1.3h16.41L59,33.54c-0.7,0.12-1.3,0.42-1.8,0.91c-0.75,0.64-1.13,1.97-1.13,3.95v2.21H42.94
				c-1.8,0-3.12,0.4-3.92,1.2c-0.82,0.82-1.2,2.22-1.2,4.42v7.02c0,1.72,0.36,2.95,1.14,3.86c0.78,0.91,2.08,1.35,3.97,1.35h13.13
				v17.94c0,1.05-0.34,1.1-0.9,1.1h-1.2c-1.76,0-3.02,0.34-3.85,1.03c-0.84,0.7-1.26,2-1.26,3.88v8.42c0,1.5,0.41,2.57,1.26,3.28
				c0.79,0.66,1.94,0.93,3.85,0.93H69.9c2.06,0,3.34-0.32,3.95-0.93c0.85-0.71,1.26-1.78,1.26-3.28V58.44h10.73
				c2.16,0,3.54-0.47,4.17-1.35c0.78-0.91,1.14-2.14,1.14-3.86v-7.02c0-2.2-0.38-3.6-1.14-4.35C89.31,41.01,87.95,40.6,85.84,40.6z"
				/>
			<path class="st0" d="M143.19,63.5l24.37-47.91c2.29-4.17,1.41-6.29,0.27-7.34c-1.51-1.4-3.94-2.06-7.65-2.06l-9.55,0
				c-3.22,0.11-5.44,0.82-6.8,2.18c-1.3,1.3-2.66,3.42-4.05,6.29l-10.6,20.94L118.6,14.68c-1.45-3-2.82-5.08-4.12-6.27
				c-1.29-1.4-3.46-2.1-6.86-2.21h-9.42c-3.77,0-6.28,0.68-7.65,2.06c-1.12,1.03-1.99,3.14,0.16,7.32l24.48,48.03l0,20.34
				c0.1,2.77,0.85,4.81,2.27,6.23c1.34,1.34,3.41,2,6.28,2c0.21,0,0.43,0,0.65-0.01l10.02,0c3.28-0.11,5.51-0.79,6.77-2.06
				c1.46-1.35,2.12-3.39,2.02-6.2V63.5z"/>
			<path class="st0" d="M220.2,31.68l-0.01-0.01c-5.7-4.62-13.7-7.01-23.81-7.1h-3.31c-10.16,0.09-18.24,2.43-23.91,7.11
				c-5.67,4.69-8.37,12.73-8.37,24.42v4.43c0,11.69,2.69,19.73,8.38,24.43c5.65,4.67,13.74,7.01,23.9,7.1h3.31
				c10.03-0.09,18.03-2.45,23.71-7.11c5.79-4.74,8.56-12.76,8.56-24.42V56.1C228.66,44.63,225.81,36.41,220.2,31.68z"/>
			<path class="st0" d="M299.76,26.35c-1.51-1.4-3.84-2.06-6.92-1.96l-9.06,0c-3.17,0.11-5.39,0.78-6.77,2.06
				c-1.46,1.35-2.12,3.39-2.02,6.2l0,28.47c-0.17,2.11-0.75,3.84-1.69,5.05c-0.81,1.1-2.38,1.66-4.66,1.66h-0.94
				c-2.26,0-3.83-0.66-4.88-1.99c-1.02-1.29-1.57-3.6-1.57-6.91l0-26.25c0.11-2.85-0.56-4.89-2.02-6.24
				c-1.41-1.3-3.56-1.95-6.81-2.06l-9.01,0c-3.13-0.1-5.44,0.57-6.84,1.96c-1.55,1.44-2.3,3.5-2.3,6.29v27.89
				c0,11.69,2.69,19.73,8.38,24.43c5.65,4.67,13.74,7.01,23.9,7.1h3.3c2.49,0,4.51-0.12,6.31-0.38c0.96-0.09,1.84-0.25,2.6-0.42
				c1.41,0.66,3.22,1,5.38,1c0.26,0,0.52,0,0.79-0.01l8.32,0c3.17-0.1,5.39-0.78,6.8-2.08c1.32-1.32,1.99-3.62,1.99-6.83l0-50.73
				C301.96,29.84,301.21,27.8,299.76,26.35z"/>
			<path class="st0" d="M367.19,31.68l-0.01-0.01c-5.7-4.62-13.71-7.01-23.81-7.1h-3.3c-2.56,0-4.61,0.12-6.41,0.38
				c-0.87,0.09-1.73,0.25-2.57,0.42c-1.5-0.74-3.63-1.08-6.18-0.99l-8.32,0c-3.22,0.11-5.41,0.79-6.68,2.06
				c-1.42,1.31-2.11,3.56-2.11,6.86l0,50.73c0.1,2.77,0.85,4.81,2.3,6.26c1.41,1.31,3.54,1.98,6.3,1.97c0.2,0,0.4,0,0.6-0.01l9.08,0
				c3.21-0.1,5.36-0.76,6.77-2.06c1.46-1.35,2.12-3.39,2.02-6.2l0-28.47c0.17-2.1,0.74-3.84,1.67-5.01c0.92-1.16,2.41-1.7,4.68-1.7
				h0.94c2.26,0,3.83,0.66,4.88,1.98c1.02,1.29,1.57,3.6,1.57,6.91l0,26.25c-0.11,2.85,0.55,4.89,2.02,6.24
				c1.38,1.28,3.6,1.95,6.8,2.06l9.01,0c3.07,0.1,5.42-0.56,6.96-1.99c1.43-1.43,2.17-3.46,2.27-6.27V56.1
				C375.65,44.63,372.81,36.41,367.19,31.68z"/>
			<path class="st0" d="M422.08,49.88v0.94c0,2.43-0.49,4.11-1.47,5.01c-1.03,0.95-2.7,1.43-4.97,1.43h-0.94
				c-2.27,0-3.95-0.48-4.97-1.43c-0.97-0.9-1.47-2.58-1.47-5.01v-0.94c0-2.43,0.49-4.11,1.47-5.01c1.03-0.95,2.7-1.43,4.97-1.43
				h0.94c2.3,0,4.05,0.49,5.04,1.4C421.6,45.76,422.08,47.5,422.08,49.88z M446.85,26.35c-1.51-1.4-3.85-2.06-6.92-1.96l-9.08,0
				c-1.91,0.09-3.47,0.27-4.81,0.82c-3.26-0.42-6.27-0.63-9.18-0.63h-3.31c-10.08,0.09-18.12,1.83-23.8,5.34
				c-5.66,3.49-8.48,9.86-8.48,18.75v3.39c0,8.89,2.82,15.25,8.49,18.76c5.72,3.53,13.76,5.23,23.79,5.23h3.3
				c1.48,0,2.95-0.05,4.33-0.15c-0.17,0.41-0.38,0.8-0.63,1.2c-1.02,1.22-2.68,1.84-4.93,1.84l-25.95,0
				c-2.97,0.11-5.14,0.88-6.45,2.3c-1.32,1.43-1.96,3.69-1.96,6.9v1.04c0,3.19,0.68,5.43,2.11,6.86c1.41,1.3,3.54,1.96,6.33,1.96
				h27.15c10.4-0.2,18.18-2.55,23.8-7.2c5.62-4.63,8.47-12.85,8.47-24.42l0-33.77C449.05,29.84,448.3,27.8,446.85,26.35z"/>
			<path class="st0" d="M544.68,24.75l-0.11-0.09c-0.79-0.59-1.81-1.2-3.31-1.2h-6.52c-4.23,0-7.55-0.53-9.64-1.5h14.55
				c2.03,0,3.39-0.44,4.17-1.35c0.78-0.91,1.14-2.14,1.14-3.86v-2.31c0-2.2-0.38-3.6-1.2-4.42c-0.79-0.79-2.18-1.2-4.12-1.2h-1v-1.4
				c0-0.99-0.52-2.04-1.5-3.01c-0.94-0.94-2.15-1.4-3.72-1.4h-4.11c-1.65,0-2.86,0.44-3.86,1.44c-0.81,0.93-1.31,1.9-1.44,2.82
				l-0.01,1.55h-2.61v-0.7c0-1.45-0.44-2.56-1.35-3.47c-0.91-1.04-1.98-1.54-3.26-1.54h-9.22c-1.31,0-2.48,0.53-3.36,1.54
				c-0.91,1.04-1.35,2.17-1.35,3.47v0.7h-3.41c-1.81,0-3.12,0.4-3.92,1.2c-0.82,0.82-1.2,2.22-1.2,4.42v2.31
				c0,1.72,0.36,2.95,1.14,3.86c0.78,0.91,2.08,1.35,3.97,1.35h5.19c1.37,3.96,3.65,7.06,7.01,9.47c4.99,3.16,11.23,4.86,18.58,5.07
				l11.12,0c1.36-0.12,2.33-0.53,3.27-1.34c0.88-0.76,1.35-1.89,1.35-3.27v-3.81C545.97,26.69,545.56,25.64,544.68,24.75z"/>
			<path class="st0" d="M481.31,48.52v-0.4h37.79v0.4H481.31z M481.31,60.25v-0.4h37.79v0.4H481.31z M534.74,36.69h-49.47
				c0.95-0.18,1.79-0.62,2.66-1.4c0.99-0.99,1.5-2.14,1.5-3.42V17.6c3.13-2.72,4.71-5.51,4.71-8.28v-1.2c0-1.29-0.44-2.43-1.35-3.47
				c-0.88-1.01-2.05-1.54-3.36-1.54H477.4c-1.23,0-2.39,0.55-3.26,1.54c-0.91,1.04-1.35,2.17-1.35,3.47v0.8
				c0,1.39-1.91,2.49-3.51,3.19c-3,1.31-5.75,2.35-8.41,3.17c-3.27,1-4.9,1.72-5.69,2.52c-0.69,0.82-1.03,1.88-1.03,3.15v5.41
				c0,1.43,0.45,2.5,1.45,3.37c0.99,0.85,2.03,1.24,3.26,1.24c2.36,0,5.86-0.92,10.43-2.72v3.62l0,0.1
				c0.12,1.21,0.61,2.31,1.49,3.32c0.75,0.75,1.63,1.21,2.68,1.4h-7.78c-1.24,0-2.31,0.39-3.08,1.16c-0.65,0.79-0.93,1.7-0.93,3.05
				v38.5c0,1.38,0.35,2.37,1.03,2.95c0.47,0.45,1.08,0.77,1.8,0.93l-1.57,4.4l-0.05,0.17c-0.23,1.39,0.16,2.72,1.18,3.88
				c1.03,1.03,2.34,1.52,3.72,1.4l7.97,0c2.51,0.12,4.02-0.17,4.97-0.99c0.57-0.57,1.4-1.68,2.14-3.77l1.86-4.96h30.89l1.85,4.94
				c0.74,2.1,1.57,3.22,2.2,3.84c0.77,0.66,2,0.97,3.87,0.97c0.31,0,0.64-0.01,0.99-0.03l7.94,0c1.45,0.13,2.77-0.36,3.85-1.44
				c0.98-1.12,1.37-2.44,1.14-3.83l-1.61-4.55c0.76-0.16,1.41-0.48,1.89-0.95c0.69-0.58,1.03-1.57,1.03-2.95V40.9
				c0-1.35-0.28-2.26-0.99-3.11C537.05,37.08,535.98,36.69,534.74,36.69z M519.11,71.68v0.3h-37.79v-0.3H519.11z"/>
		</g>
		<g>
			<path class="st0" d="M21.28,41.8v13.23c0,2.35-0.13,4.13-0.42,5.49l-4.14-2.45l4.23-16.26H21.28z M36.74,69.82l-2.82-1.61
				c1.13-3.55,1.7-7.2,1.7-10.86V41.8h0.8c1.29,0,3.13-0.14,4.17-1.35c0.78-0.91,1.14-2.14,1.14-3.86v-6.22c0-2.2-0.38-3.6-1.2-4.42
				c-0.82-0.82-2.12-1.2-4.12-1.2H25.39l3.46-13.01c0.83-2.03,0.99-3.28,0.55-4.18c-0.65-1.29-2.53-1.46-4.1-1.46h-6.32
				c-1.51,0-2.64,0.34-3.52,1.09c-0.75,0.75-1.33,2.09-1.77,4.07l-3.51,13.49H4.14c-1.97,0-3.27,0.41-3.92,1.2
				c-0.82,0.82-1.2,2.22-1.2,4.42v6.22c0,1.72,0.36,2.95,1.09,3.79c0.68,0.96,2,1.42,4.02,1.42h1.51L0.36,61.92
				c-0.43,1.83-0.35,3.46,0.27,5.06c0.73,1.57,2.13,2.92,4.07,3.88l7.4,3.74c-2.42,2.01-4.8,3.2-7.26,3.71
				C3.06,78.68,2,79.2,1.43,79.89c-0.79,0.79-1.2,1.84-1.2,3.11v8.22c0,1.29,0.46,2.38,1.45,3.37c0.9,0.77,2,1.22,3.27,1.34
				l0.08,0.01l0.08,0c3.08-0.21,6.48-1.59,10.12-4.08c3.23-2.22,6.6-5.35,10.28-9.57l10.42,6.01c1.78,1,3.18,1.56,4.19,1.05
				c1.42-0.61,1.61-2.43,1.61-4.13v-7.42c0-2.58-0.35-4.14-1.14-5.06C39.91,71.94,38.66,70.99,36.74,69.82z"/>
			<path class="st0" d="M85.84,41.6H75.15l8.38-19.1c0.68-1.36,1.01-2.62,1.01-3.86v-7.12c0-2.14-0.4-3.62-1.2-4.42
				c-0.96-0.96-2.55-1.1-4.12-1.1H47.25c-1.31,0-2.95,0.12-3.92,1.09c-0.79,0.79-1.2,2.28-1.2,4.42v7.12c0,1.68,0.38,2.98,1.2,3.92
				c0.84,0.84,2.23,1.3,3.92,1.3h16.41L59,34.54c-0.7,0.12-1.3,0.42-1.8,0.91c-0.75,0.64-1.13,1.97-1.13,3.95v2.21H42.94
				c-1.8,0-3.12,0.4-3.92,1.2c-0.82,0.82-1.2,2.22-1.2,4.42v7.02c0,1.72,0.36,2.95,1.14,3.86c0.78,0.91,2.08,1.35,3.97,1.35h13.13
				v17.94c0,1.05-0.34,1.1-0.9,1.1h-1.2c-1.76,0-3.02,0.34-3.85,1.03c-0.84,0.7-1.26,2-1.26,3.88v8.42c0,1.5,0.41,2.57,1.26,3.28
				c0.79,0.66,1.94,0.93,3.85,0.93H69.9c2.06,0,3.34-0.32,3.95-0.93c0.85-0.71,1.26-1.78,1.26-3.28V59.45h10.73
				c2.16,0,3.54-0.47,4.17-1.35c0.78-0.91,1.14-2.14,1.14-3.86v-7.02c0-2.2-0.38-3.6-1.14-4.35C89.31,42.02,87.95,41.6,85.84,41.6z"
				/>
			<path class="st0" d="M143.19,64.5l24.37-47.91c2.29-4.17,1.41-6.29,0.27-7.34c-1.51-1.4-3.94-2.06-7.65-2.06l-9.55,0
				c-3.22,0.11-5.44,0.82-6.8,2.18c-1.3,1.3-2.66,3.42-4.05,6.29l-10.6,20.94L118.6,15.68c-1.45-3-2.82-5.08-4.12-6.27
				c-1.29-1.4-3.46-2.1-6.86-2.21h-9.42c-3.77,0-6.28,0.68-7.65,2.06c-1.12,1.03-1.99,3.14,0.16,7.32l24.48,48.03l0,20.34
				c0.1,2.77,0.85,4.81,2.27,6.23c1.34,1.34,3.41,2,6.28,2c0.21,0,0.43,0,0.65-0.01l10.02,0c3.28-0.11,5.51-0.79,6.77-2.06
				c1.46-1.35,2.12-3.39,2.02-6.2V64.5z"/>
			<path class="st0" d="M220.2,32.69l-0.01-0.01c-5.7-4.62-13.7-7.01-23.81-7.1h-3.31c-10.16,0.09-18.24,2.43-23.91,7.11
				c-5.67,4.69-8.37,12.73-8.37,24.42v4.43c0,11.69,2.69,19.73,8.38,24.43c5.65,4.67,13.74,7.01,23.9,7.1h3.31
				c10.03-0.09,18.03-2.45,23.71-7.11c5.79-4.74,8.56-12.76,8.56-24.42V57.1C228.66,45.63,225.81,37.41,220.2,32.69z"/>
			<path class="st0" d="M299.76,27.35c-1.51-1.4-3.84-2.06-6.92-1.96l-9.06,0c-3.17,0.11-5.39,0.78-6.77,2.06
				c-1.46,1.35-2.12,3.39-2.02,6.2l0,28.47c-0.17,2.11-0.75,3.84-1.69,5.05c-0.81,1.1-2.38,1.66-4.66,1.66h-0.94
				c-2.26,0-3.83-0.66-4.88-1.99c-1.02-1.29-1.57-3.6-1.57-6.91l0-26.25c0.11-2.85-0.56-4.89-2.02-6.24
				c-1.41-1.3-3.56-1.95-6.81-2.06l-9.01,0c-3.13-0.1-5.44,0.57-6.84,1.96c-1.55,1.44-2.3,3.5-2.3,6.29v27.89
				c0,11.69,2.69,19.73,8.38,24.43c5.65,4.67,13.74,7.01,23.9,7.1h3.3c2.49,0,4.51-0.12,6.31-0.38c0.96-0.09,1.84-0.25,2.6-0.42
				c1.41,0.66,3.22,1,5.38,1c0.26,0,0.52,0,0.79-0.01l8.32,0c3.17-0.1,5.39-0.78,6.8-2.08c1.32-1.32,1.99-3.62,1.99-6.83l0-50.73
				C301.96,30.84,301.21,28.8,299.76,27.35z"/>
			<path class="st0" d="M367.19,32.69l-0.01-0.01c-5.7-4.62-13.71-7.01-23.81-7.1h-3.3c-2.56,0-4.61,0.12-6.41,0.38
				c-0.87,0.09-1.73,0.25-2.57,0.42c-1.5-0.74-3.63-1.08-6.18-0.99l-8.32,0c-3.22,0.11-5.41,0.79-6.68,2.06
				c-1.42,1.31-2.11,3.56-2.11,6.86l0,50.73c0.1,2.77,0.85,4.81,2.3,6.26c1.41,1.31,3.54,1.98,6.3,1.97c0.2,0,0.4,0,0.6-0.01l9.08,0
				c3.21-0.1,5.36-0.76,6.77-2.06c1.46-1.35,2.12-3.39,2.02-6.2l0-28.47c0.17-2.1,0.74-3.84,1.67-5.01c0.92-1.16,2.41-1.7,4.68-1.7
				h0.94c2.26,0,3.83,0.66,4.88,1.98c1.02,1.29,1.57,3.6,1.57,6.91l0,26.25c-0.11,2.85,0.55,4.89,2.02,6.24
				c1.38,1.28,3.6,1.95,6.8,2.06l9.01,0c3.07,0.1,5.42-0.56,6.96-1.99c1.43-1.43,2.17-3.46,2.27-6.27V57.1
				C375.65,45.63,372.81,37.41,367.19,32.69z"/>
			<path class="st0" d="M422.08,50.88v0.94c0,2.43-0.49,4.11-1.47,5.01c-1.03,0.95-2.7,1.43-4.97,1.43h-0.94
				c-2.27,0-3.95-0.48-4.97-1.43c-0.97-0.9-1.47-2.58-1.47-5.01v-0.94c0-2.43,0.49-4.11,1.47-5.01c1.03-0.95,2.7-1.43,4.97-1.43
				h0.94c2.3,0,4.05,0.49,5.04,1.4C421.6,46.76,422.08,48.5,422.08,50.88z M446.85,27.35c-1.51-1.4-3.85-2.06-6.92-1.96l-9.08,0
				c-1.91,0.09-3.47,0.27-4.81,0.82c-3.26-0.42-6.27-0.63-9.18-0.63h-3.31c-10.08,0.09-18.12,1.83-23.8,5.34
				c-5.66,3.49-8.48,9.86-8.48,18.75v3.39c0,8.89,2.82,15.25,8.49,18.76c5.72,3.53,13.76,5.23,23.79,5.23h3.3
				c1.48,0,2.95-0.05,4.33-0.15c-0.17,0.41-0.38,0.8-0.63,1.2c-1.02,1.22-2.68,1.84-4.93,1.84l-25.95,0
				c-2.97,0.11-5.14,0.88-6.45,2.3c-1.32,1.43-1.96,3.69-1.96,6.9v1.04c0,3.19,0.68,5.43,2.11,6.86c1.41,1.3,3.54,1.96,6.33,1.96
				h27.15c10.4-0.2,18.18-2.55,23.8-7.2c5.62-4.63,8.47-12.85,8.47-24.42l0-33.77C449.05,30.84,448.3,28.8,446.85,27.35z"/>
			<path class="st0" d="M544.68,25.76l-0.11-0.09c-0.79-0.59-1.81-1.2-3.31-1.2h-6.52c-4.23,0-7.55-0.53-9.64-1.5h14.55
				c2.03,0,3.39-0.44,4.17-1.35c0.78-0.91,1.14-2.14,1.14-3.86v-2.31c0-2.2-0.38-3.6-1.2-4.42c-0.79-0.79-2.18-1.2-4.12-1.2h-1v-1.4
				c0-0.99-0.52-2.04-1.5-3.01c-0.94-0.94-2.15-1.4-3.72-1.4h-4.11c-1.65,0-2.86,0.44-3.86,1.44c-0.81,0.93-1.31,1.9-1.44,2.82
				l-0.01,1.55h-2.61v-0.7c0-1.45-0.44-2.56-1.35-3.47c-0.91-1.04-1.98-1.54-3.26-1.54h-9.22c-1.31,0-2.48,0.53-3.36,1.54
				c-0.91,1.04-1.35,2.17-1.35,3.47v0.7h-3.41c-1.81,0-3.12,0.4-3.92,1.2c-0.82,0.82-1.2,2.22-1.2,4.42v2.31
				c0,1.72,0.36,2.95,1.14,3.86c0.78,0.91,2.08,1.35,3.97,1.35h5.19c1.37,3.96,3.65,7.06,7.01,9.47c4.99,3.16,11.23,4.86,18.58,5.07
				l11.12,0c1.36-0.12,2.33-0.53,3.27-1.34c0.88-0.76,1.35-1.89,1.35-3.27v-3.81C545.97,27.7,545.56,26.64,544.68,25.76z"/>
			<path class="st0" d="M481.31,49.52v-0.4h37.79v0.4H481.31z M481.31,61.25v-0.4h37.79v0.4H481.31z M534.74,37.69h-49.47
				c0.95-0.18,1.79-0.62,2.66-1.4c0.99-0.99,1.5-2.14,1.5-3.42V18.61c3.13-2.72,4.71-5.51,4.71-8.28v-1.2
				c0-1.29-0.44-2.43-1.35-3.47c-0.88-1.01-2.05-1.54-3.36-1.54H477.4c-1.23,0-2.39,0.55-3.26,1.54c-0.91,1.04-1.35,2.17-1.35,3.47
				v0.8c0,1.39-1.91,2.49-3.51,3.19c-3,1.31-5.75,2.35-8.41,3.17c-3.27,1-4.9,1.72-5.69,2.52c-0.69,0.82-1.03,1.88-1.03,3.15v5.41
				c0,1.43,0.45,2.5,1.45,3.37c0.99,0.85,2.03,1.24,3.26,1.24c2.36,0,5.86-0.92,10.43-2.72v3.62l0,0.1
				c0.12,1.21,0.61,2.31,1.49,3.32c0.75,0.75,1.63,1.21,2.68,1.4h-7.78c-1.24,0-2.31,0.39-3.08,1.16c-0.65,0.79-0.93,1.7-0.93,3.05
				v38.5c0,1.38,0.35,2.37,1.03,2.95c0.47,0.45,1.08,0.77,1.8,0.93l-1.57,4.4l-0.05,0.17c-0.23,1.39,0.16,2.72,1.18,3.88
				c1.03,1.03,2.34,1.52,3.72,1.4l7.97,0c2.51,0.12,4.02-0.17,4.97-0.99c0.57-0.57,1.4-1.68,2.14-3.77l1.86-4.96h30.89l1.85,4.94
				c0.74,2.1,1.57,3.22,2.2,3.84c0.77,0.66,2,0.97,3.87,0.97c0.31,0,0.64-0.01,0.99-0.03l7.94,0c1.45,0.13,2.77-0.36,3.85-1.44
				c0.98-1.12,1.37-2.44,1.14-3.83l-1.61-4.55c0.76-0.16,1.41-0.48,1.89-0.95c0.69-0.58,1.03-1.57,1.03-2.95V41.9
				c0-1.35-0.28-2.26-0.99-3.11C537.05,38.08,535.98,37.69,534.74,37.69z M519.11,72.68v0.3h-37.79v-0.3H519.11z"/>
		</g>
		<g>
			<path class="st0" d="M21.28,42.81v13.23c0,2.35-0.13,4.13-0.42,5.49l-4.14-2.45l4.23-16.26H21.28z M36.74,70.82l-2.82-1.61
				c1.13-3.55,1.7-7.2,1.7-10.86V42.81h0.8c1.29,0,3.13-0.14,4.17-1.35c0.78-0.91,1.14-2.14,1.14-3.86v-6.22
				c0-2.2-0.38-3.6-1.2-4.42c-0.82-0.82-2.12-1.2-4.12-1.2H25.39l3.46-13.01c0.83-2.03,0.99-3.28,0.55-4.18
				c-0.65-1.29-2.53-1.46-4.1-1.46h-6.32c-1.51,0-2.64,0.34-3.52,1.09c-0.75,0.75-1.33,2.09-1.77,4.07l-3.51,13.49H4.14
				c-1.97,0-3.27,0.41-3.92,1.2c-0.82,0.82-1.2,2.22-1.2,4.42v6.22c0,1.72,0.36,2.95,1.09,3.79c0.68,0.96,2,1.42,4.02,1.42h1.51
				L0.36,62.93c-0.43,1.83-0.35,3.46,0.27,5.06c0.73,1.57,2.13,2.92,4.07,3.88l7.4,3.74c-2.42,2.01-4.8,3.23-7.26,3.71
				C3.07,79.7,2,80.2,1.43,80.89c-0.79,0.79-1.2,1.84-1.2,3.11v8.22c0,1.29,0.46,2.38,1.45,3.37c0.9,0.77,2,1.22,3.27,1.34
				l0.08,0.01l0.08,0c3.08-0.21,6.48-1.59,10.12-4.08c3.23-2.22,6.6-5.35,10.28-9.57l10.42,6.01c1.78,1,3.18,1.56,4.19,1.05
				c1.42-0.61,1.61-2.43,1.61-4.13V78.8c0-2.58-0.35-4.14-1.14-5.06C39.91,72.94,38.66,71.99,36.74,70.82z"/>
			<path class="st0" d="M85.84,42.61H75.15l8.38-19.1c0.68-1.36,1.01-2.62,1.01-3.86v-7.12c0-2.14-0.4-3.62-1.2-4.42
				c-0.96-0.96-2.55-1.1-4.12-1.1H47.25c-1.31,0-2.95,0.12-3.92,1.09c-0.79,0.79-1.2,2.28-1.2,4.42v7.12c0,1.68,0.38,2.98,1.2,3.92
				c0.84,0.84,2.23,1.3,3.92,1.3h16.41L59,35.54c-0.7,0.12-1.3,0.42-1.8,0.91c-0.75,0.64-1.13,1.97-1.13,3.95v2.21H42.94
				c-1.8,0-3.12,0.4-3.92,1.2c-0.82,0.82-1.2,2.22-1.2,4.42v7.02c0,1.72,0.36,2.95,1.14,3.86c0.78,0.91,2.08,1.35,3.97,1.35h13.13
				v17.94c0,1.05-0.34,1.1-0.9,1.1h-1.2c-1.76,0-3.02,0.34-3.85,1.03c-0.84,0.7-1.26,2-1.26,3.88v8.42c0,1.5,0.41,2.57,1.26,3.28
				c0.79,0.66,1.94,0.93,3.85,0.93H69.9c2.06,0,3.34-0.32,3.95-0.93c0.85-0.71,1.26-1.78,1.26-3.28V60.45h10.73
				c2.16,0,3.54-0.47,4.17-1.35c0.78-0.91,1.14-2.14,1.14-3.86v-7.02c0-2.2-0.38-3.6-1.14-4.35C89.31,43.02,87.95,42.61,85.84,42.61
				z"/>
			<path class="st0" d="M143.19,65.51l24.37-47.91c2.29-4.17,1.41-6.29,0.27-7.34c-1.51-1.4-3.94-2.06-7.65-2.06l-9.55,0
				c-3.22,0.11-5.44,0.82-6.8,2.18c-1.3,1.3-2.66,3.42-4.05,6.29l-10.6,20.94L118.6,16.68c-1.45-3-2.82-5.08-4.12-6.27
				c-1.29-1.4-3.46-2.1-6.86-2.21h-9.42c-3.77,0-6.28,0.68-7.65,2.06c-1.12,1.03-1.99,3.14,0.16,7.32l24.48,48.03l0,20.34
				c0.1,2.77,0.85,4.81,2.27,6.23c1.34,1.34,3.41,2,6.28,2c0.21,0,0.43,0,0.65-0.01l10.02,0c3.28-0.11,5.51-0.79,6.77-2.06
				c1.46-1.35,2.12-3.39,2.02-6.2V65.51z"/>
			<path class="st0" d="M220.2,33.69l-0.01-0.01c-5.7-4.62-13.7-7.01-23.81-7.1h-3.31c-10.16,0.09-18.2,2.48-23.91,7.11
				c-5.63,4.74-8.37,12.73-8.37,24.42v4.43c0,11.69,2.74,19.68,8.38,24.43c5.7,4.62,13.74,7.01,23.9,7.1h3.31
				c10.03-0.09,18.01-2.48,23.71-7.11c5.76-4.77,8.56-12.76,8.56-24.42v-4.43C228.66,46.63,225.81,38.42,220.2,33.69z"/>
			<path class="st0" d="M299.76,28.35c-1.51-1.4-3.84-2.06-6.92-1.96l-9.06,0c-3.17,0.11-5.39,0.78-6.77,2.06
				c-1.46,1.35-2.12,3.39-2.02,6.2l0,28.47c-0.17,2.11-0.75,3.84-1.69,5.05c-0.81,1.1-2.38,1.66-4.66,1.66h-0.94
				c-2.26,0-3.85-0.64-4.88-1.99c-1.04-1.28-1.57-3.6-1.57-6.91l0-26.25c0.11-2.85-0.56-4.89-2.02-6.24
				c-1.41-1.3-3.56-1.95-6.81-2.06l-9.01,0c-3.13-0.1-5.44,0.57-6.84,1.96c-1.55,1.44-2.3,3.5-2.3,6.29v27.89
				c0,11.69,2.74,19.68,8.38,24.43c5.7,4.62,13.74,7.01,23.9,7.1h3.3c2.49,0,4.51-0.12,6.31-0.38c0.96-0.09,1.84-0.25,2.6-0.42
				c1.41,0.66,3.22,1,5.38,1c0.26,0,0.52,0,0.79-0.01l8.32,0c3.17-0.1,5.39-0.78,6.8-2.08c1.32-1.32,1.99-3.62,1.99-6.83l0-50.73
				C301.96,31.84,301.21,29.8,299.76,28.35z"/>
			<path class="st0" d="M367.19,33.69l-0.01-0.01c-5.7-4.62-13.71-7.01-23.81-7.1h-3.3c-2.56,0-4.61,0.12-6.41,0.38
				c-0.87,0.09-1.73,0.25-2.57,0.42c-1.5-0.74-3.63-1.08-6.18-0.99l-8.32,0c-3.22,0.11-5.41,0.79-6.68,2.06
				c-1.42,1.31-2.11,3.56-2.11,6.86l0,50.73c0.1,2.77,0.85,4.81,2.3,6.26c1.41,1.31,3.54,1.98,6.3,1.97c0.2,0,0.4,0,0.6-0.01l9.08,0
				c3.21-0.1,5.36-0.76,6.77-2.06c1.46-1.35,2.12-3.39,2.02-6.2l0-28.47c0.17-2.1,0.75-3.84,1.67-5.01c0.93-1.16,2.41-1.7,4.68-1.7
				h0.94c2.26,0,3.85,0.64,4.88,1.98c1.04,1.28,1.57,3.6,1.57,6.91l0,26.25c-0.11,2.85,0.55,4.89,2.02,6.24
				c1.38,1.28,3.6,1.95,6.8,2.06l9.01,0c3.07,0.1,5.42-0.56,6.96-1.99c1.43-1.43,2.17-3.46,2.27-6.27V58.11
				C375.65,46.63,372.81,38.42,367.19,33.69z"/>
			<path class="st0" d="M422.08,51.89v0.94c0,2.43-0.49,4.11-1.47,5.01c-1.03,0.95-2.7,1.43-4.97,1.43h-0.94
				c-2.27,0-3.95-0.48-4.97-1.43c-0.97-0.9-1.47-2.58-1.47-5.01v-0.94c0-2.43,0.49-4.11,1.47-5.01c1.03-0.95,2.7-1.43,4.97-1.43
				h0.94c2.3,0,4.05,0.49,5.04,1.4C421.6,47.77,422.08,49.51,422.08,51.89z M446.85,28.35c-1.51-1.4-3.85-2.06-6.92-1.96l-9.08,0
				c-1.91,0.09-3.47,0.27-4.81,0.82c-3.26-0.42-6.27-0.63-9.18-0.63h-3.31c-10.08,0.09-18.08,1.89-23.8,5.34
				c-5.62,3.55-8.48,9.86-8.48,18.75v3.39c0,8.89,2.85,15.2,8.49,18.76c5.75,3.47,13.76,5.23,23.79,5.23h3.3
				c1.48,0,2.95-0.05,4.33-0.15c-0.17,0.41-0.38,0.8-0.63,1.2c-1.02,1.22-2.68,1.84-4.93,1.84l-25.95,0
				c-2.97,0.11-5.14,0.88-6.45,2.3c-1.32,1.43-1.96,3.69-1.96,6.9v1.04c0,3.19,0.68,5.43,2.11,6.86c1.41,1.3,3.54,1.96,6.33,1.96
				h27.15c10.4-0.2,18.18-2.55,23.8-7.2c5.62-4.63,8.47-12.85,8.47-24.42l0-33.77C449.05,31.84,448.3,29.8,446.85,28.35z"/>
			<path class="st0" d="M544.68,26.76l-0.11-0.09c-0.79-0.59-1.81-1.2-3.31-1.2h-6.52c-4.23,0-7.55-0.53-9.64-1.5h14.55
				c2.03,0,3.39-0.44,4.17-1.35c0.78-0.91,1.14-2.14,1.14-3.86v-2.31c0-2.2-0.38-3.6-1.2-4.42c-0.79-0.79-2.18-1.2-4.12-1.2h-1v-1.4
				c0-0.99-0.52-2.04-1.5-3.01c-0.94-0.94-2.15-1.4-3.72-1.4h-4.11c-1.65,0-2.86,0.44-3.86,1.44c-0.81,0.93-1.31,1.9-1.44,2.82
				l-0.01,1.55h-2.61v-0.7c0-1.45-0.44-2.56-1.35-3.47c-0.91-1.04-1.98-1.54-3.26-1.54h-9.22c-1.31,0-2.48,0.53-3.36,1.54
				c-0.91,1.04-1.35,2.17-1.35,3.47v0.7h-3.41c-1.81,0-3.12,0.4-3.92,1.2c-0.82,0.82-1.2,2.22-1.2,4.42v2.31
				c0,1.72,0.36,2.95,1.14,3.86c0.78,0.91,2.08,1.35,3.97,1.35h5.19c1.37,3.96,3.65,7.06,7.01,9.47c4.99,3.16,11.23,4.86,18.58,5.07
				l11.12,0c1.36-0.12,2.34-0.53,3.27-1.34c0.88-0.76,1.35-1.89,1.35-3.27v-3.81C545.97,28.7,545.56,27.64,544.68,26.76z"/>
			<path class="st0" d="M481.31,50.53v-0.4h37.79v0.4H481.31z M481.31,62.25v-0.4h37.79v0.4H481.31z M534.74,38.7h-49.47
				c0.95-0.18,1.79-0.62,2.66-1.4c0.99-0.99,1.5-2.14,1.5-3.42V19.61c3.13-2.72,4.71-5.51,4.71-8.28v-1.2
				c0-1.29-0.44-2.43-1.35-3.47c-0.88-1.01-2.05-1.54-3.36-1.54H477.4c-1.23,0-2.39,0.55-3.26,1.54c-0.91,1.04-1.35,2.17-1.35,3.47
				v0.8c0,1.39-1.9,2.5-3.51,3.19c-3,1.33-5.74,2.37-8.41,3.17c-3.27,1.01-4.9,1.72-5.69,2.52c-0.69,0.82-1.03,1.88-1.03,3.15v5.41
				c0,1.43,0.46,2.5,1.45,3.37c0.99,0.85,2.03,1.24,3.26,1.24c2.36,0,5.86-0.92,10.43-2.72v3.62l0,0.1
				c0.12,1.21,0.61,2.31,1.49,3.32c0.75,0.75,1.63,1.21,2.68,1.4h-7.78c-1.24,0-2.31,0.39-3.08,1.16c-0.65,0.79-0.93,1.7-0.93,3.05
				v38.5c0,1.38,0.35,2.37,1.03,2.95c0.47,0.45,1.08,0.77,1.8,0.93l-1.57,4.4l-0.05,0.17c-0.23,1.39,0.16,2.72,1.18,3.88
				c1.03,1.03,2.34,1.52,3.72,1.4l7.97,0c2.51,0.12,4.02-0.17,4.97-0.99c0.57-0.57,1.4-1.68,2.14-3.77l1.86-4.96h30.89l1.85,4.94
				c0.74,2.1,1.57,3.22,2.2,3.84c0.77,0.66,2,0.97,3.87,0.97c0.31,0,0.64-0.01,0.99-0.03l7.94,0c1.45,0.13,2.77-0.36,3.85-1.44
				c0.98-1.12,1.37-2.44,1.14-3.83l-1.61-4.55c0.76-0.16,1.41-0.48,1.89-0.95c0.69-0.58,1.03-1.57,1.03-2.95v-38.5
				c0-1.35-0.28-2.26-0.99-3.11C537.05,39.09,535.98,38.7,534.74,38.7z M519.11,73.68v0.3h-37.79v-0.3H519.11z"/>
		</g>
	</g>
	<path class="st1" d="M6.95,36.79H4.14c-1.6,0-2.71-0.3-3.21-1c-0.6-0.7-0.9-1.7-0.9-3.21v-6.22c0-1.9,0.3-3.11,0.9-3.71
		c0.5-0.6,1.6-0.9,3.21-0.9h6.82l3.71-14.24c0.4-1.8,0.9-3.01,1.5-3.61c0.7-0.6,1.7-0.8,2.81-0.8h6.32c1.91,0,2.91,0.3,3.21,0.9
		c0.3,0.6,0.1,1.7-0.6,3.41l-3.81,14.34h12.33c1.7,0,2.81,0.3,3.41,0.9c0.6,0.6,0.9,1.8,0.9,3.71v6.22c0,1.5-0.3,2.51-0.9,3.21
		c-0.6,0.7-1.7,1-3.41,1h-1.8v16.54c0,4.01-0.7,7.82-1.91,11.33l3.51,2c1.8,1.1,3.01,2,3.61,2.71c0.6,0.7,0.9,2.11,0.9,4.41v7.42
		c0,1.9-0.3,2.91-1,3.21c-0.6,0.3-1.7-0.1-3.31-1l-11.13-6.42c-3.61,4.21-7.12,7.62-10.63,10.02c-3.51,2.41-6.72,3.71-9.62,3.91
		c-1.1-0.1-2-0.5-2.71-1.1c-0.7-0.7-1.1-1.5-1.1-2.61V79c0-1,0.3-1.8,0.9-2.41c0.5-0.6,1.5-1,2.91-1.3c3.11-0.6,6.01-2.31,8.82-4.91
		l-8.72-4.41c-1.8-0.9-3.01-2.11-3.61-3.41c-0.5-1.3-0.6-2.71-0.2-4.41L6.95,36.79z M22.29,36.79h-2.11l-4.61,17.74l5.91,3.51
		c0.6-1.7,0.8-4.11,0.8-7.02V36.79z M53.96,91.03c-1.6,0-2.61-0.2-3.21-0.7c-0.6-0.5-0.9-1.3-0.9-2.51V79.4c0-1.5,0.3-2.61,0.9-3.11
		c0.6-0.5,1.6-0.8,3.21-0.8h1.2c1.3,0,1.9-0.7,1.9-2.11V54.44H42.94c-1.5,0-2.61-0.3-3.21-1c-0.6-0.7-0.9-1.7-0.9-3.21v-7.02
		c0-1.9,0.3-3.11,0.9-3.71c0.6-0.6,1.7-0.9,3.21-0.9h14.14v-3.21c0-1.7,0.3-2.81,0.8-3.21c0.5-0.5,1.1-0.7,1.8-0.7l5.51-12.63H47.25
		c-1.5,0-2.61-0.4-3.21-1c-0.6-0.7-0.9-1.8-0.9-3.21V7.52c0-1.8,0.3-3.11,0.9-3.71c0.6-0.6,1.7-0.8,3.21-0.8h31.98
		c1.7,0,2.81,0.2,3.41,0.8c0.6,0.6,0.9,1.91,0.9,3.71v7.12c0,1.1-0.3,2.21-0.9,3.41L73.61,38.6h12.23c1.7,0,2.91,0.3,3.41,0.9
		c0.6,0.6,0.9,1.8,0.9,3.71v7.02c0,1.5-0.3,2.51-0.9,3.21c-0.5,0.7-1.7,1-3.41,1H74.11v33.38c0,1.2-0.3,2-0.9,2.51
		c-0.5,0.5-1.7,0.7-3.31,0.7H53.96z"/>
	<path class="st2" d="M91.22,5.98c1.22-1.23,3.58-1.79,6.97-1.79h9.42c2.92,0.09,4.99,0.66,6.12,1.88c1.22,1.13,2.54,3.11,3.96,6.03
		l11.5,22.71l11.49-22.71c1.41-2.92,2.73-4.9,3.86-6.03c1.22-1.22,3.3-1.79,6.12-1.88h9.52c3.39,0,5.65,0.57,6.97,1.79
		c1.22,1.13,1.13,3.2-0.47,6.12l-24.5,48.15v20.63c0.09,2.54-0.47,4.33-1.7,5.46c-1.13,1.13-3.2,1.7-6.12,1.79h-9.99
		c-2.92,0.09-4.99-0.47-6.22-1.7c-1.23-1.22-1.88-3.02-1.98-5.56V60.35L91.6,12.11C90.09,9.19,89.99,7.11,91.22,5.98z"/>
	<path class="st2" d="M219.46,81.17c-5.47,4.43-13.19,6.78-23.08,6.88h-3.3c-10.08-0.09-17.81-2.45-23.27-6.88
		c-5.37-4.52-8.01-12.34-8.01-23.65v-4.43c0-11.31,2.64-19.13,8.01-23.65c5.47-4.43,13.19-6.78,23.27-6.88h3.3
		c9.99,0.09,17.71,2.45,23.18,6.88c5.37,4.52,8.1,12.34,8.1,23.65v4.43C227.66,68.83,224.92,76.65,219.46,81.17z"/>
	<path class="st2" d="M277.69,24.17c1.23-1.13,3.3-1.7,6.13-1.79h9.05c2.83-0.09,4.9,0.47,6.22,1.7c1.22,1.22,1.88,3.02,1.98,5.56
		v50.69c0,2.92-0.56,4.99-1.7,6.12c-1.22,1.13-3.3,1.7-6.12,1.79h-8.29c-2.64,0.09-4.62-0.28-6.03-1.04
		c-0.85,0.19-1.79,0.38-2.83,0.47c-1.98,0.28-4.05,0.38-6.22,0.38h-3.3c-10.08-0.09-17.81-2.45-23.27-6.88
		c-5.37-4.52-8.01-12.34-8.01-23.65V29.63c0-2.54,0.66-4.33,1.98-5.56c1.22-1.23,3.3-1.79,6.12-1.7h9.05
		c2.92,0.09,4.9,0.66,6.13,1.79c1.22,1.13,1.79,2.92,1.7,5.46v26.29c0,3.49,0.57,6.03,1.79,7.54c1.22,1.6,3.11,2.36,5.65,2.36h0.94
		c2.54,0,4.43-0.66,5.47-2.07c1.04-1.32,1.7-3.2,1.88-5.56V29.63C275.9,27.09,276.47,25.3,277.69,24.17z"/>
	<path class="st2" d="M332.15,86.45c-1.22,1.13-3.2,1.7-6.12,1.79h-9.05c-2.83,0.09-4.9-0.47-6.22-1.7
		c-1.23-1.22-1.88-3.02-1.98-5.56V30.29c0-2.92,0.57-4.99,1.79-6.12c1.13-1.13,3.2-1.7,6.03-1.79h8.29
		c2.64-0.09,4.71,0.28,6.03,1.04c0.94-0.19,1.88-0.38,2.83-0.47c1.98-0.28,4.05-0.38,6.31-0.38h3.3c9.99,0.09,17.71,2.45,23.18,6.88
		c5.37,4.52,8.1,12.34,8.1,23.65v27.89c-0.09,2.54-0.75,4.33-1.98,5.56c-1.32,1.23-3.39,1.79-6.22,1.7h-9.05
		c-2.83-0.09-4.9-0.66-6.12-1.79c-1.22-1.13-1.79-2.92-1.7-5.46V54.7c0-3.49-0.57-6.03-1.79-7.54c-1.22-1.6-3.11-2.36-5.65-2.36
		h-0.94c-2.54,0-4.33,0.66-5.46,2.07c-1.04,1.32-1.7,3.2-1.88,5.56v28.55C333.95,83.53,333.38,85.32,332.15,86.45z"/>
	<path class="st2" d="M440.04,87.01c-5.47,4.52-13.19,6.78-23.18,6.97h-27.14c-2.54,0-4.43-0.56-5.65-1.7
		c-1.22-1.23-1.79-3.3-1.79-6.12v-1.04c0-2.92,0.57-4.99,1.7-6.22c1.13-1.22,3.11-1.88,5.75-1.98h25.91c2.54,0,4.52-0.75,5.75-2.26
		c0.47-0.75,0.94-1.7,1.22-2.92c-1.79,0.19-3.77,0.28-5.75,0.28h-3.3c-10.08,0-17.81-1.79-23.27-5.09
		c-5.37-3.39-8.01-9.33-8.01-17.9v-3.39c0-8.57,2.64-14.51,8.01-17.9c5.46-3.3,13.19-5.09,23.27-5.18h3.3c3.39,0,6.5,0.28,9.33,0.66
		c1.22-0.57,2.73-0.75,4.71-0.85h9.05c2.83-0.09,4.9,0.47,6.22,1.7c1.22,1.22,1.88,3.02,1.98,5.56v33.73
		C448.15,74.67,445.41,82.58,440.04,87.01z M409.04,53.56c1.22,1.13,3.11,1.7,5.65,1.7h0.94c2.54,0,4.43-0.57,5.65-1.7
		c1.22-1.13,1.79-3.11,1.79-5.75v-0.94c0-2.64-0.56-4.62-1.7-5.75c-1.22-1.13-3.2-1.7-5.75-1.7h-0.94c-2.54,0-4.43,0.57-5.65,1.7
		c-1.22,1.13-1.79,3.11-1.79,5.75v0.94C407.25,50.46,407.82,52.43,409.04,53.56z"/>
	<path class="st1" d="M489.43,1.1c1,0,1.9,0.4,2.61,1.2c0.7,0.8,1.1,1.7,1.1,2.81v1.2c0,2.61-1.6,5.21-4.71,7.82v14.74
		c0,1-0.4,1.9-1.2,2.71c-0.9,0.8-1.81,1.2-3.01,1.2h-9.62c-1.3,0-2.31-0.4-3.11-1.2c-0.7-0.8-1.1-1.7-1.2-2.71v-5.11
		c-5.31,2.21-9.12,3.21-11.43,3.21c-1.1,0-1.91-0.4-2.61-1c-0.8-0.7-1.1-1.5-1.1-2.61v-5.41c0-1.1,0.3-1.9,0.8-2.51
		c0.6-0.6,2.31-1.3,5.21-2.21c3.01-0.9,5.81-2,8.52-3.21c2.81-1.2,4.11-2.61,4.11-4.11v-0.8c0-1.1,0.4-2,1.1-2.81
		c0.7-0.8,1.6-1.2,2.51-1.2H489.43z M465.87,79.4h-0.2c-1,0-1.8-0.3-2.31-0.8c-0.5-0.4-0.7-1.2-0.7-2.21v-38.5
		c0-1.1,0.2-1.8,0.7-2.41c0.5-0.5,1.3-0.8,2.31-0.8h69.07c1,0,1.81,0.3,2.31,0.8c0.5,0.6,0.7,1.3,0.7,2.41v38.5
		c0,1-0.2,1.81-0.7,2.21c-0.5,0.5-1.3,0.8-2.31,0.8h-0.3l2,5.61c0.2,1.2-0.2,2.21-0.9,3.01c-0.8,0.8-1.81,1.2-3.01,1.1h-8.02
		c-2.11,0.1-3.51-0.1-4.21-0.7c-0.6-0.6-1.3-1.7-1.91-3.41l-2.1-5.61h-32.28l-2.11,5.61c-0.6,1.7-1.3,2.81-1.9,3.41
		c-0.7,0.6-2.1,0.8-4.21,0.7h-8.02c-1.2,0.1-2.21-0.3-3.01-1.1c-0.7-0.8-1.1-1.81-0.9-3.01L465.87,79.4z M520.11,46.52v-2.41h-39.8
		v2.41H520.11z M520.11,58.24v-2.41h-39.8v2.41H520.11z M520.11,69.97v-2.31h-39.8v2.31H520.11z M496.25,16.94
		c-0.6-0.7-0.9-1.7-0.9-3.21v-2.31c0-1.9,0.3-3.11,0.9-3.71c0.6-0.6,1.7-0.9,3.21-0.9h4.41v-1.7c0-1.1,0.4-2,1.1-2.81
		c0.7-0.8,1.6-1.2,2.61-1.2h9.22c1,0,1.8,0.4,2.51,1.2c0.8,0.8,1.1,1.7,1.1,2.81v1.7h4.61V4.41c0.1-0.7,0.5-1.5,1.2-2.31
		c0.8-0.8,1.8-1.1,3.11-1.1h4.11c1.2,0,2.21,0.3,3.01,1.1c0.8,0.8,1.2,1.6,1.2,2.31v2.41h2c1.6,0,2.81,0.3,3.41,0.9
		s0.9,1.8,0.9,3.71v2.31c0,1.5-0.3,2.51-0.9,3.21c-0.6,0.7-1.8,1-3.41,1h-17.24c0.4,0.6,0.9,1.1,1.5,1.5
		c2.21,1.3,5.81,2.01,10.83,2.01h6.52c1.1,0,1.9,0.4,2.71,1c0.7,0.7,1,1.5,1,2.61v3.81c0,1-0.3,1.9-1,2.51c-0.8,0.7-1.6,1-2.71,1.1
		h-11.03c-7.12-0.2-13.13-1.8-18.04-4.91c-3.21-2.31-5.51-5.41-6.82-9.62h-5.91C497.95,17.94,496.85,17.64,496.25,16.94z"/>
	<g>
		<path class="st1" d="M207.45,68.56c-1.35,1.29-2.91,2.38-4.63,3.23c-4.4,2.16-9.38,2.48-14.02,0.89
			c-4.64-1.58-8.38-4.88-10.54-9.28c-2.16-4.4-2.48-9.38-0.89-14.02c1.59-4.64,4.88-8.38,9.28-10.54c4.4-2.16,9.38-2.48,14.02-0.89
			l0,0c9.58,3.27,14.71,13.72,11.43,23.3C211.13,64.06,209.54,66.55,207.45,68.56z"/>
		<g>
			<path class="st0" d="M198.34,63.09c-1.69,1.71-4.41,2.23-7.02,1.28c-2.75-1-4.43-3.32-4.29-5.93l3.51,0.2
				c-0.07,1.24,0.97,2.06,1.97,2.43c1.14,0.41,2.73,0.39,3.52-0.68c0.7-0.94,0.22-1.94-0.4-2.51c-0.54-0.49-1.24-0.86-2.05-1.27
				c-0.15-0.08-0.3-0.15-0.45-0.21c-0.62-0.29-1.4-0.65-2.05-1.33c-2.07-2.18-2.03-5.81,0.08-7.93c0,0,0.01-0.01,0.01-0.01
				c2.04-2.04,5.58-2.23,7.89-0.42c1.78,1.39,2.53,3.55,3.07,5.12l-3.32,1.15c-0.54-1.56-1.02-2.8-1.91-3.5
				c-0.91-0.71-2.46-0.65-3.24,0.14c0,0,0,0,0,0c-0.76,0.77-0.77,2.23-0.02,3.03c0.19,0.2,0.57,0.37,0.97,0.56
				c0.19,0.09,0.39,0.18,0.57,0.27c1,0.51,1.96,1.03,2.82,1.81c2.15,1.95,2.5,4.98,0.85,7.21C198.7,62.7,198.53,62.9,198.34,63.09z"
				/>
		</g>
		<g>
			
				<rect x="183.34" y="54.99" transform="matrix(0.3162 -0.9487 0.9487 0.3162 80.5347 222.8745)" class="st0" width="23.07" height="1.17"/>
		</g>
		<path class="st0" d="M194.75,74.67c-2.11,0-4.22-0.35-6.27-1.05c-4.89-1.67-8.84-5.15-11.12-9.79c-2.28-4.64-2.61-9.89-0.94-14.78
			c1.67-4.89,5.15-8.84,9.79-11.12c4.64-2.28,9.89-2.61,14.78-0.94c10.1,3.45,15.51,14.47,12.06,24.57c-1,2.93-2.7,5.6-4.91,7.71
			l0,0c-1.43,1.37-3.08,2.52-4.88,3.41C200.56,74.01,197.66,74.67,194.75,74.67z M194.71,37.95c-2.61,0-5.21,0.6-7.63,1.78
			c-4.16,2.04-7.28,5.58-8.77,9.97c-1.5,4.38-1.2,9.09,0.84,13.25c2.04,4.16,5.58,7.28,9.97,8.77c4.39,1.5,9.09,1.2,13.25-0.84
			c1.62-0.8,3.1-1.82,4.38-3.05l0,0c2.01-1.92,3.49-4.25,4.4-6.91c3.09-9.05-1.76-18.93-10.81-22.03
			C198.5,38.26,196.6,37.95,194.71,37.95z"/>
	</g>
	<g>
		<path class="st3" d="M37.34,67.38c0.25,0.79,0.38,1.9,0.38,3.4v7.42c0,1.9-0.3,2.91-1,3.21c-0.6,0.3-1.7-0.1-3.31-1l-11.13-6.42
			c-3.61,4.21-7.12,7.62-10.63,10.02c-3.51,2.41-6.72,3.71-9.62,3.91c-0.26-0.02-0.51-0.07-0.75-0.12c0.12,0.81,0.48,1.46,1.05,2.03
			c0.7,0.6,1.6,1,2.71,1.1c2.91-0.2,6.12-1.5,9.62-3.91c3.51-2.41,7.02-5.81,10.63-10.02l11.13,6.42c1.6,0.9,2.71,1.3,3.31,1
			c0.7-0.3,1-1.3,1-3.21v-7.42c0-2.31-0.3-3.71-0.9-4.41C39.36,68.83,38.53,68.16,37.34,67.38z"/>
		<path class="st3" d="M89.25,39.5c-0.37-0.45-1.13-0.73-2.19-0.84c0.06,0.45,0.09,0.96,0.09,1.54v7.02c0,1.5-0.3,2.51-0.9,3.21
			c-0.5,0.7-1.7,1-3.41,1H71.11v33.38c0,1.2-0.3,2-0.9,2.51c-0.5,0.5-1.7,0.7-3.31,0.7H50.96c-0.4,0-0.76-0.01-1.09-0.04
			c0.03,1.11,0.32,1.87,0.89,2.34c0.6,0.5,1.6,0.7,3.21,0.7H69.9c1.6,0,2.81-0.2,3.31-0.7c0.6-0.5,0.9-1.3,0.9-2.51V54.44h11.73
			c1.7,0,2.91-0.3,3.41-1c0.6-0.7,0.9-1.7,0.9-3.21v-7.02C90.15,41.3,89.85,40.1,89.25,39.5z"/>
		<g>
			<path class="st3" d="M166.69,12.11c1.6-2.92,1.7-4.99,0.47-6.12c-0.56-0.52-1.29-0.91-2.19-1.2c0.08,1.12-0.32,2.56-1.29,4.31
				l-24.5,48.15v20.63c0.09,2.54-0.47,4.33-1.7,5.46c-1.13,1.13-3.2,1.7-6.12,1.79h-9.99c-1.82,0.06-3.3-0.14-4.47-0.59
				c0.32,0.74,0.73,1.38,1.25,1.9c1.22,1.23,3.3,1.79,6.22,1.7h9.99c2.92-0.09,4.99-0.66,6.12-1.79c1.22-1.13,1.79-2.92,1.7-5.46
				V60.25L166.69,12.11z"/>
		</g>
		<g>
			<path class="st3" d="M219.55,29.44c-0.13-0.11-0.29-0.2-0.42-0.31c3.66,4.69,5.52,11.63,5.52,20.95v4.43
				c0,11.31-2.73,19.13-8.2,23.65c-5.47,4.43-13.19,6.78-23.08,6.88h-3.3c-9.82-0.09-17.39-2.35-22.83-6.56
				c0.77,1,1.63,1.9,2.57,2.69c5.47,4.43,13.19,6.78,23.27,6.88h3.3c9.89-0.09,17.62-2.45,23.08-6.88c5.46-4.52,8.2-12.34,8.2-23.65
				v-4.43C227.66,41.79,224.92,33.97,219.55,29.44z"/>
		</g>
		<path class="st3" d="M299.08,24.07c-0.48-0.45-1.06-0.8-1.74-1.07c0.42,0.99,0.66,2.18,0.71,3.62v50.69c0,2.92-0.56,4.99-1.7,6.12
			c-1.22,1.13-3.3,1.7-6.12,1.79h-8.29c-2.64,0.09-4.62-0.28-6.03-1.04c-0.85,0.19-1.79,0.38-2.83,0.47
			c-1.98,0.28-4.05,0.38-6.22,0.38h-3.3c-9.82-0.09-17.39-2.35-22.83-6.56c0.77,1,1.63,1.9,2.57,2.69
			c5.47,4.43,13.19,6.78,23.27,6.88h3.3c2.17,0,4.24-0.09,6.22-0.38c1.04-0.09,1.98-0.28,2.83-0.47c1.41,0.75,3.39,1.13,6.03,1.04
			h8.29c2.83-0.09,4.9-0.66,6.12-1.79c1.13-1.13,1.7-3.2,1.7-6.12V29.63C300.96,27.09,300.3,25.3,299.08,24.07z"/>
		<g>
			<path class="st3" d="M344.79,44.15c-1.22-1.6-3.11-2.36-5.65-2.36h-0.94c-2.54,0-4.33,0.66-5.46,2.07
				c-1.04,1.32-1.7,3.2-1.88,5.56v28.55c0.09,2.54-0.47,4.33-1.7,5.46c-1.22,1.13-3.2,1.7-6.12,1.79h-9.05
				c-1.8,0.06-3.29-0.15-4.48-0.62c0.32,0.76,0.74,1.4,1.27,1.94c1.32,1.23,3.39,1.79,6.22,1.7h9.05c2.92-0.09,4.9-0.66,6.12-1.79
				c1.22-1.13,1.79-2.92,1.7-5.46V52.43c0.19-2.36,0.85-4.24,1.88-5.56c1.13-1.41,2.92-2.07,5.46-2.07h0.94
				c1.32,0,2.45,0.21,3.42,0.62C345.34,44.94,345.08,44.51,344.79,44.15z"/>
			<path class="st3" d="M366.55,29.44c-0.13-0.11-0.29-0.2-0.42-0.31c3.66,4.69,5.52,11.63,5.52,20.95v27.89
				c-0.09,2.54-0.75,4.33-1.98,5.56c-1.32,1.23-3.39,1.79-6.22,1.7h-9.05c-1.75-0.06-3.22-0.3-4.37-0.74
				c0.28,0.79,0.7,1.45,1.25,1.96c1.22,1.13,3.3,1.7,6.12,1.79h9.05c2.83,0.09,4.9-0.47,6.22-1.7c1.22-1.22,1.88-3.02,1.98-5.56
				V53.09C374.65,41.79,371.92,33.97,366.55,29.44z"/>
		</g>
		<path class="st3" d="M446.17,24.07c-0.48-0.45-1.06-0.8-1.74-1.07c0.42,0.99,0.66,2.18,0.71,3.62v33.73
			c0,11.31-2.73,19.22-8.1,23.65c-5.47,4.52-13.19,6.78-23.18,6.97h-27.14c-1.5,0-2.77-0.2-3.81-0.6c0.29,0.77,0.67,1.41,1.17,1.91
			c1.22,1.13,3.11,1.7,5.65,1.7h27.14c9.99-0.19,17.71-2.45,23.18-6.97c5.37-4.43,8.1-12.34,8.1-23.65V29.63
			C448.05,27.09,447.39,25.3,446.17,24.07z"/>
		<path class="st3" d="M492.04,2.31c-0.56-0.64-1.26-1.01-2.02-1.14c0.07,0.3,0.12,0.61,0.12,0.94v1.2c0,2.61-1.6,5.21-4.71,7.82
			v14.74c0,1-0.4,1.9-1.2,2.71c-0.9,0.8-1.81,1.2-3.01,1.2h-9.62c-0.42,0-0.8-0.06-1.16-0.14c0.19,0.7,0.54,1.35,1.06,1.95
			c0.8,0.8,1.8,1.2,3.11,1.2h9.62c1.2,0,2.1-0.4,3.01-1.2c0.8-0.8,1.2-1.7,1.2-2.71V14.13c3.11-2.61,4.71-5.21,4.71-7.82v-1.2
			C493.14,4.01,492.74,3.11,492.04,2.31z"/>
		<g>
			<path class="st3" d="M462.67,76.39c0,0.17,0.01,0.33,0.03,0.49l0.17-0.49H462.67z"/>
			<path class="st3" d="M513.29,76.39h-32.28L478.91,82c-0.6,1.7-1.3,2.81-1.9,3.41c-0.7,0.6-2.1,0.8-4.21,0.7h-8.02
				c-0.32,0.03-0.62,0.01-0.9-0.03c0.1,0.73,0.42,1.38,0.9,1.93c0.8,0.8,1.8,1.2,3.01,1.1h8.02c2.11,0.1,3.51-0.1,4.21-0.7
				c0.6-0.6,1.3-1.7,1.9-3.41l2.11-5.61h30.4L513.29,76.39z"/>
			<path class="st3" d="M537.05,35.49c-0.5-0.5-1.3-0.8-2.31-0.8h-0.01c0,0.07,0.01,0.13,0.01,0.2v38.5c0,1-0.2,1.81-0.7,2.21
				c-0.5,0.5-1.3,0.8-2.31,0.8h-0.3l2,5.61c0.2,1.2-0.2,2.21-0.9,3.01c-0.8,0.8-1.81,1.2-3.01,1.1h-8.02
				c-1.09,0.05-1.99,0.02-2.71-0.1c0.5,1.14,1.03,1.94,1.51,2.41c0.7,0.6,2.1,0.8,4.21,0.7h8.02c1.2,0.1,2.21-0.3,3.01-1.1
				c0.7-0.8,1.1-1.81,0.9-3.01l-2-5.61h0.3c1,0,1.81-0.3,2.31-0.8c0.5-0.4,0.7-1.2,0.7-2.21v-38.5
				C537.75,36.79,537.55,36.09,537.05,35.49z"/>
		</g>
		<g>
			<path class="st3" d="M540.96,8.42v2.31c0,1.5-0.3,2.51-0.9,3.21c-0.6,0.7-1.8,1-3.41,1h-17.24c0.4,0.6,0.9,1.1,1.5,1.5
				c1.12,0.66,2.6,1.17,4.44,1.5h14.31c1.6,0,2.81-0.3,3.41-1c0.6-0.7,0.9-1.7,0.9-3.21v-2.31c0-1.9-0.3-3.11-0.9-3.71
				c-0.44-0.44-1.2-0.71-2.19-0.83C540.93,7.34,540.96,7.84,540.96,8.42z"/>
			<path class="st3" d="M543.97,22.46c-0.63-0.47-1.27-0.81-2.05-0.94c0.02,0.18,0.04,0.35,0.04,0.54v3.81c0,1-0.3,1.9-1,2.51
				c-0.8,0.7-1.6,1-2.71,1.1h-11.03c-7.12-0.2-13.13-1.8-18.04-4.91c-0.23-0.17-0.45-0.35-0.67-0.52c1.05,1.34,2.27,2.52,3.68,3.53
				c4.91,3.11,10.93,4.71,18.04,4.91h11.03c1.1-0.1,1.9-0.4,2.71-1.1c0.7-0.6,1-1.5,1-2.51v-3.81
				C544.97,23.96,544.67,23.16,543.97,22.46z"/>
		</g>
	</g>
	<g>
		<path class="st0" d="M5.03,91.93l-0.08-0.01c-1.26-0.11-2.36-0.56-3.27-1.34c-1-0.99-1.45-2.08-1.45-3.37V79
			c0-1.27,0.4-2.32,1.2-3.11c0.57-0.69,1.64-1.2,3.41-1.58c2.46-0.48,4.84-1.69,7.26-3.71l-7.4-3.74c-1.93-0.97-3.34-2.31-4.07-3.88
			c-0.62-1.6-0.7-3.24-0.27-5.06l5.29-20.12H4.14c-2.02,0-3.34-0.46-4.02-1.42c-0.73-0.84-1.09-2.07-1.09-3.79v-6.22
			c0-2.2,0.38-3.6,1.2-4.42c0.65-0.78,1.95-1.2,3.92-1.2h6.04L13.7,7.27c0.44-1.98,1.02-3.32,1.77-4.07
			c0.88-0.75,2.01-1.09,3.52-1.09h6.32c1.57,0,3.46,0.17,4.1,1.46c0.45,0.89,0.28,2.14-0.55,4.18l-3.46,13.01h11.03
			c1.99,0,3.3,0.38,4.12,1.2c0.82,0.82,1.2,2.22,1.2,4.42v6.22c0,1.72-0.36,2.95-1.14,3.86c-1.04,1.21-2.88,1.35-4.17,1.35h-0.8
			v15.54c0,3.67-0.57,7.32-1.7,10.86l2.82,1.61c1.91,1.17,3.17,2.12,3.85,2.91c0.79,0.92,1.14,2.48,1.14,5.06v7.42
			c0,1.7-0.19,3.52-1.61,4.13c-1.01,0.51-2.41-0.05-4.19-1.05l-10.42-6.01c-3.68,4.22-7.04,7.35-10.28,9.57
			c-3.64,2.5-7.05,3.87-10.12,4.08L5.03,91.93z M4.14,22.76c-1.46,0-2.22,0.28-2.44,0.54c-0.29,0.29-0.67,0.99-0.67,3.07v6.22
			c0,1.22,0.21,2.03,0.66,2.56c0.18,0.24,0.66,0.65,2.45,0.65h4.11L2.3,58.4c-0.33,1.42-0.28,2.63,0.17,3.8
			c0.51,1.1,1.6,2.11,3.12,2.87l10.01,5.06l-1.06,0.98c-3.08,2.85-6.12,4.54-9.31,5.16c-1.53,0.33-2.11,0.7-2.33,0.96
			C2.43,77.71,2.24,78.27,2.24,79v8.22c0,0.76,0.24,1.33,0.81,1.9c0.51,0.43,1.2,0.72,2.01,0.8c2.69-0.21,5.74-1.46,9.04-3.73
			c3.24-2.23,6.66-5.45,10.43-9.85l0.54-0.63l11.85,6.83c1.82,1.02,2.31,0.98,2.39,0.96c0.03-0.02,0.42-0.24,0.42-2.3v-7.42
			c0-2.47-0.36-3.41-0.66-3.76c-0.36-0.43-1.24-1.2-3.36-2.5l-4.22-2.41l0.27-0.78c1.23-3.58,1.85-7.28,1.85-11V35.79h2.81
			c1.39,0,2.28-0.22,2.65-0.65c0.45-0.53,0.66-1.34,0.66-2.56v-6.22c0-2.08-0.38-2.77-0.61-3c-0.28-0.28-0.97-0.61-2.7-0.61H22.79
			l4.19-15.72c0.86-2.08,0.64-2.56,0.63-2.58l0,0c0,0-0.33-0.35-2.31-0.35h-6.32c-1,0-1.72,0.19-2.15,0.56
			c-0.2,0.21-0.71,0.96-1.18,3.07l-3.91,15.02H4.14z M22.02,59.53l-7.61-4.52l5-19.22h3.88v15.24c0,3.35-0.27,5.69-0.86,7.35
			L22.02,59.53z M16.73,54.06l4.14,2.46c0.28-1.35,0.42-3.14,0.42-5.49V37.79h-0.33L16.73,54.06z"/>
		<path class="st0" d="M69.9,92.03H53.96c-1.91,0-3.06-0.28-3.85-0.93c-0.85-0.71-1.26-1.78-1.26-3.28V79.4
			c0-1.87,0.42-3.18,1.26-3.88c0.84-0.7,2.09-1.03,3.85-1.03h1.2c0.56,0,0.9-0.05,0.9-1.1V55.44H42.94c-1.89,0-3.19-0.44-3.97-1.35
			c-0.78-0.91-1.14-2.14-1.14-3.86v-7.02c0-2.2,0.38-3.6,1.2-4.42c0.79-0.79,2.11-1.2,3.92-1.2h13.13v-2.21
			c0-1.98,0.38-3.31,1.13-3.95c0.5-0.49,1.1-0.79,1.8-0.91l4.66-10.68H47.25c-1.69,0-3.08-0.46-3.92-1.3
			c-0.81-0.94-1.2-2.24-1.2-3.92V7.52c0-2.14,0.4-3.62,1.2-4.42C44.3,2.13,45.93,2,47.25,2h31.98c1.57,0,3.16,0.13,4.12,1.1
			c0.79,0.79,1.2,2.28,1.2,4.42v7.12c0,1.24-0.33,2.5-1.01,3.86l-8.38,19.1h10.69c2.1,0,3.47,0.41,4.18,1.26
			c0.75,0.75,1.14,2.15,1.14,4.35v7.02c0,1.72-0.36,2.95-1.14,3.86c-0.63,0.89-2.01,1.35-4.17,1.35H75.12v32.38
			c0,1.5-0.41,2.57-1.26,3.28C73.24,91.71,71.96,92.03,69.9,92.03z M53.96,76.49c-1.56,0-2.25,0.31-2.57,0.57
			c-0.26,0.22-0.54,0.95-0.54,2.34v8.42c0,1.28,0.41,1.62,0.54,1.74c0.38,0.32,1.22,0.47,2.57,0.47H69.9c2.17,0,2.58-0.39,2.6-0.41
			c0.2-0.17,0.61-0.51,0.61-1.8V53.43h12.73c2.02,0,2.5-0.45,2.59-0.58c0.51-0.6,0.72-1.41,0.72-2.63v-7.02c0-2.08-0.38-2.77-0.61-3
			c-0.11-0.12-0.57-0.61-2.7-0.61H72.08l9.64-21.96c0.56-1.13,0.82-2.07,0.82-3.01V7.52c0-1.76-0.31-2.71-0.61-3
			c-0.34-0.34-1.22-0.51-2.7-0.51H47.25c-1.32,0-2.16,0.17-2.5,0.51c-0.3,0.29-0.61,1.24-0.61,3v7.12c0,1.17,0.23,2.05,0.66,2.56
			c0.39,0.39,1.33,0.65,2.45,0.65h19.48l-6.39,14.64h-0.66c-0.48,0-0.81,0.12-1.1,0.41l-0.08,0.07c0,0-0.43,0.44-0.43,2.43v4.21
			H42.94c-1.2,0-2.11,0.22-2.5,0.61c-0.23,0.23-0.61,0.92-0.61,3v7.02c0,1.22,0.21,2.03,0.66,2.56c0.37,0.43,1.21,0.65,2.45,0.65
			h15.14v19.95c0,1.98-1.06,3.11-2.91,3.11H53.96z"/>
		<path class="st0" d="M123.74,89.16c-2.87,0-4.94-0.66-6.28-2c-1.43-1.42-2.17-3.46-2.27-6.23l0-20.34L90.7,12.56
			c-2.16-4.18-1.28-6.29-0.16-7.32c1.37-1.37,3.89-2.06,7.65-2.06h9.42c3.4,0.11,5.57,0.81,6.86,2.21c1.3,1.2,2.67,3.27,4.12,6.27
			l10.59,20.92l10.6-20.94c1.39-2.87,2.75-4.99,4.05-6.29c1.36-1.36,3.58-2.07,6.8-2.18l9.55,0c3.71,0,6.14,0.65,7.65,2.06
			c1.14,1.05,2.01,3.17-0.27,7.34L143.19,60.5v20.39c0.11,2.81-0.55,4.85-2.02,6.2c-1.27,1.27-3.49,1.95-6.77,2.06l-10.02,0
			C124.16,89.15,123.95,89.16,123.74,89.16z M107.58,5.19l-9.39,0c-3.16,0-5.27,0.5-6.26,1.5c-1.18,1.09-0.16,3.57,0.56,4.96
			l24.7,48.46v20.78c0.08,2.2,0.63,3.8,1.69,4.85c1.01,1.02,2.86,1.48,5.48,1.4l10.02,0c2.68-0.09,4.51-0.59,5.42-1.5
			c1.04-0.96,1.49-2.49,1.4-4.72l0-20.91l0.11-0.21l24.5-48.15c0.77-1.4,1.85-3.86,0.69-4.93c-1.11-1.03-3.16-1.52-6.29-1.52h-9.52
			c-2.65,0.09-4.43,0.61-5.42,1.59c-0.78,0.78-2.05,2.41-3.67,5.76l-12.4,24.49L116.8,12.56c-1.33-2.75-2.59-4.68-3.74-5.75
			C112.11,5.79,110.34,5.28,107.58,5.19z"/>
		<path class="st0" d="M193.08,89.05c-10.17-0.09-18.21-2.48-23.9-7.1c-5.64-4.75-8.38-12.74-8.38-24.43v-4.43
			c0-11.69,2.74-19.68,8.37-24.42c5.71-4.63,13.75-7.02,23.91-7.11h3.31c10.11,0.09,18.11,2.48,23.81,7.1l0.01,0.01
			c5.61,4.73,8.46,12.94,8.46,24.42v4.43c0,11.67-2.8,19.65-8.56,24.42c-5.71,4.62-13.68,7.01-23.71,7.11H193.08z M196.36,23.57
			h-3.29c-9.68,0.09-17.3,2.33-22.64,6.65c-5.13,4.32-7.64,11.81-7.64,22.87v4.43c0,11.06,2.5,18.55,7.65,22.88
			c5.32,4.31,12.94,6.55,22.64,6.64h3.29c9.56-0.09,17.12-2.33,22.45-6.65c5.26-4.36,7.83-11.84,7.83-22.87v-4.43
			c0-10.85-2.6-18.55-7.74-22.88C213.58,25.89,205.99,23.66,196.36,23.57z"/>
		<path class="st0" d="M284.16,89.26c-2.15,0-3.96-0.33-5.38-1c-0.76,0.16-1.64,0.33-2.6,0.42c-1.8,0.26-3.82,0.38-6.31,0.38h-3.3
			c-10.17-0.09-18.21-2.48-23.9-7.1c-5.64-4.75-8.38-12.74-8.38-24.43V29.63c0-2.8,0.75-4.86,2.3-6.29c1.4-1.4,3.71-2.07,6.84-1.96
			l9.01,0c3.25,0.1,5.4,0.76,6.81,2.06c1.46,1.35,2.12,3.39,2.02,6.24l0,26.25c0,3.3,0.53,5.63,1.57,6.91
			c1.03,1.34,2.62,1.99,4.88,1.99h0.94c2.28,0,3.85-0.56,4.66-1.66c0.95-1.21,1.52-2.94,1.69-5.05l0-28.47
			c-0.1-2.81,0.56-4.85,2.02-6.2c1.39-1.28,3.6-1.95,6.77-2.06l9.06,0c3.08-0.1,5.41,0.56,6.92,1.96c1.45,1.45,2.2,3.49,2.3,6.26
			l0,50.73c0,3.21-0.67,5.51-1.99,6.83c-1.41,1.31-3.63,1.98-6.8,2.08l-8.32,0C284.68,89.25,284.42,89.26,284.16,89.26z
			 M279.06,86.14l0.33,0.18c1.3,0.69,3.15,1,5.52,0.92l8.33,0c2.6-0.09,4.44-0.6,5.44-1.52c0.89-0.89,1.37-2.76,1.37-5.39V29.63
			c-0.08-2.2-0.63-3.8-1.68-4.85c-1.08-1.01-2.94-1.49-5.48-1.4l-0.03,0h-9.05c-2.6,0.09-4.44,0.6-5.45,1.52
			c-1.01,0.93-1.46,2.46-1.37,4.69l0,28.59c-0.21,2.62-0.91,4.67-2.1,6.18c-1.19,1.62-3.3,2.46-6.25,2.46h-0.94
			c-2.88,0-5.05-0.93-6.45-2.75c-1.34-1.65-2-4.32-2-8.15V29.63c0.08-2.26-0.37-3.8-1.37-4.73c-1.02-0.94-2.81-1.44-5.48-1.53
			l-9.01,0c-2.59-0.08-4.4,0.39-5.42,1.4c-1.16,1.08-1.68,2.61-1.68,4.85v27.89c0,11.06,2.5,18.55,7.65,22.88
			c5.32,4.31,12.94,6.55,22.64,6.64h3.29c2.39,0,4.33-0.12,6.08-0.37c1.05-0.1,1.98-0.29,2.75-0.46L279.06,86.14z"/>
		<path class="st0" d="M316.38,89.25c-2.76,0-4.88-0.66-6.3-1.97c-1.45-1.45-2.2-3.49-2.3-6.26l0-50.73c0-3.3,0.69-5.55,2.11-6.86
			c1.27-1.27,3.46-1.95,6.68-2.06l8.32,0c2.55-0.09,4.68,0.25,6.18,0.99c0.84-0.17,1.7-0.33,2.57-0.42c1.8-0.26,3.86-0.38,6.41-0.38
			h3.3c10.1,0.09,18.11,2.48,23.81,7.1l0.01,0.01c5.61,4.73,8.46,12.94,8.46,24.42v27.89c-0.1,2.8-0.85,4.84-2.27,6.27
			c-1.54,1.43-3.89,2.09-6.96,1.99l-9.01,0c-3.21-0.11-5.42-0.78-6.8-2.06c-1.46-1.35-2.12-3.39-2.02-6.24l0-26.25
			c0-3.3-0.53-5.63-1.57-6.91c-1.03-1.34-2.62-1.98-4.88-1.98h-0.94c-2.27,0-3.76,0.54-4.68,1.7c-0.92,1.17-1.5,2.91-1.67,5.01
			l0,28.47c0.1,2.81-0.56,4.85-2.02,6.2c-1.41,1.3-3.56,1.95-6.77,2.06l-9.08,0C316.78,89.25,316.58,89.25,316.38,89.25z
			 M325.67,23.37c-0.24,0-0.48,0-0.73,0.01l-8.33,0c-2.58,0.09-4.43,0.6-5.32,1.5c-1,0.93-1.5,2.74-1.5,5.42v50.69
			c0.08,2.2,0.63,3.8,1.69,4.85c1.08,1.01,2.92,1.48,5.48,1.4l9.08,0c2.63-0.09,4.43-0.58,5.44-1.52c1.01-0.93,1.46-2.46,1.38-4.69
			l0-28.59c0.2-2.58,0.93-4.69,2.1-6.18c1.32-1.65,3.37-2.46,6.25-2.46h0.94c2.88,0,5.06,0.92,6.45,2.75c1.34,1.65,2,4.32,2,8.15
			v26.29c-0.08,2.26,0.37,3.8,1.37,4.73c1,0.92,2.84,1.44,5.48,1.53l9.01,0c2.59,0.09,4.43-0.4,5.54-1.43
			c1.02-1.03,1.58-2.62,1.66-4.86l0-27.85c0-10.85-2.6-18.55-7.74-22.88c-5.34-4.32-12.92-6.56-22.55-6.65h-3.29
			c-2.46,0-4.42,0.12-6.17,0.37c-0.94,0.09-1.87,0.28-2.77,0.46l-0.37,0.07l-0.33-0.19C329.39,23.69,327.71,23.37,325.67,23.37z"/>
		<path class="st0" d="M389.73,94.99c-2.79,0-4.92-0.66-6.33-1.96c-1.43-1.43-2.11-3.67-2.11-6.86v-1.04c0-3.21,0.64-5.47,1.96-6.9
			c1.31-1.42,3.48-2.19,6.45-2.3l25.95,0c2.25,0,3.91-0.62,4.93-1.84c0.25-0.4,0.45-0.8,0.63-1.2c-1.38,0.1-2.85,0.15-4.33,0.15
			h-3.3c-10.03,0-18.04-1.76-23.79-5.23c-5.64-3.56-8.49-9.87-8.49-18.76v-3.39c0-8.89,2.85-15.2,8.48-18.75
			c5.72-3.45,13.72-5.24,23.8-5.34h3.31c2.91,0,5.92,0.21,9.18,0.63c1.34-0.55,2.9-0.73,4.81-0.82l9.08,0
			c3.07-0.1,5.41,0.56,6.92,1.96c1.45,1.45,2.2,3.49,2.3,6.26l0,33.77c0,11.57-2.85,19.79-8.47,24.42c-5.62,4.65-13.4,7.01-23.8,7.2
			H389.73z M389.73,77.93c-2.34,0.08-4.09,0.66-5.01,1.66c-0.95,1.03-1.43,2.89-1.43,5.54v1.04c0,2.6,0.5,4.42,1.5,5.42
			c1,0.92,2.67,1.4,4.94,1.4h27.14c9.9-0.19,17.28-2.39,22.54-6.74c5.14-4.23,7.74-11.93,7.74-22.88V29.63
			c-0.08-2.2-0.63-3.8-1.68-4.85c-1.09-1.01-2.94-1.49-5.48-1.4l-0.03,0h-9.05c-1.76,0.09-3.19,0.25-4.29,0.76l-0.26,0.12
			l-0.29-0.04c-3.28-0.44-6.29-0.65-9.2-0.65h-3.3c-9.71,0.09-17.36,1.79-22.75,5.04c-5.06,3.19-7.53,8.77-7.53,17.04v3.39
			c0,8.27,2.47,13.85,7.54,17.05c5.42,3.27,13.07,4.93,22.74,4.93h3.3c1.97,0,3.92-0.1,5.64-0.28l1.4-0.15l-0.32,1.37
			c-0.26,1.14-0.7,2.19-1.35,3.23l-0.07,0.1c-1.4,1.72-3.66,2.63-6.53,2.63H389.73z M415.64,56.26h-0.94
			c-2.79,0-4.92-0.66-6.33-1.96c-1.4-1.29-2.11-3.48-2.11-6.48v-0.94c0-3.01,0.71-5.19,2.11-6.48c1.41-1.3,3.54-1.96,6.33-1.96h0.94
			c2.85,0,5.02,0.66,6.43,1.96c1.35,1.35,2.02,3.52,2.02,6.48v0.94c0,3.01-0.71,5.19-2.11,6.48
			C420.56,55.6,418.43,56.26,415.64,56.26z M414.7,40.43c-2.27,0-3.95,0.48-4.97,1.43c-0.97,0.9-1.47,2.58-1.47,5.01v0.94
			c0,2.43,0.49,4.11,1.47,5.01c1.03,0.95,2.7,1.43,4.97,1.43h0.94c2.27,0,3.95-0.48,4.97-1.43c0.97-0.9,1.47-2.58,1.47-5.01v-0.94
			c0-2.38-0.48-4.12-1.4-5.04c-0.98-0.91-2.74-1.4-5.04-1.4H414.7z"/>
		<path class="st0" d="M484.22,33.78h-9.62c-1.56,0-2.81-0.49-3.82-1.5c-0.88-1.01-1.37-2.11-1.49-3.32l0-0.1v-3.62
			c-4.57,1.81-8.07,2.72-10.43,2.72c-1.23,0-2.27-0.39-3.26-1.24c-0.99-0.87-1.45-1.94-1.45-3.37v-5.41c0-1.27,0.35-2.32,1.03-3.15
			c0.79-0.8,2.42-1.51,5.69-2.52c2.67-0.8,5.42-1.84,8.41-3.17c1.61-0.69,3.51-1.8,3.51-3.19v-0.8c0-1.29,0.44-2.43,1.35-3.47
			c0.87-1,2.03-1.54,3.26-1.54h12.03c1.31,0,2.48,0.53,3.36,1.54c0.91,1.04,1.35,2.17,1.35,3.47v1.2c0,2.77-1.58,5.56-4.71,8.28
			v14.27c0,1.27-0.5,2.42-1.5,3.42C486.76,33.33,485.63,33.78,484.22,33.78z M471.29,28.82c0.09,0.78,0.4,1.46,0.96,2.1
			c0.57,0.57,1.34,0.86,2.35,0.86h9.62c0.9,0,1.58-0.28,2.34-0.95c0.57-0.57,0.87-1.23,0.87-1.96v-15.2l0.36-0.3
			c2.89-2.42,4.35-4.8,4.35-7.05v-1.2c0-0.8-0.27-1.48-0.86-2.15c-0.5-0.57-1.12-0.86-1.85-0.86H477.4c-0.64,0-1.27,0.31-1.75,0.86
			c-0.58,0.67-0.85,1.35-0.85,2.15v0.8c0,2-1.59,3.69-4.72,5.03c-3.06,1.36-5.89,2.42-8.63,3.25c-3.4,1.05-4.48,1.65-4.79,1.95
			c-0.32,0.39-0.51,1-0.51,1.8v5.41c0,0.86,0.21,1.37,0.76,1.85c0.61,0.53,1.2,0.75,1.95,0.75c1.6,0,4.81-0.54,11.04-3.13l1.39-0.58
			V28.82z"/>
		<path class="st0" d="M530.23,33.48c-7.35-0.21-13.59-1.91-18.58-5.07c-3.36-2.41-5.64-5.51-7.01-9.47h-5.19
			c-1.89,0-3.19-0.44-3.97-1.35c-0.78-0.91-1.14-2.14-1.14-3.86v-2.31c0-2.2,0.38-3.6,1.2-4.42c0.79-0.79,2.11-1.2,3.92-1.2h3.41
			v-0.7c0-1.29,0.44-2.43,1.35-3.47c0.88-1.01,2.05-1.54,3.36-1.54h9.22c1.28,0,2.35,0.51,3.26,1.54c0.91,0.9,1.35,2.02,1.35,3.47
			v0.7h2.61l0.01-1.55c0.13-0.92,0.63-1.9,1.44-2.82c1-1,2.21-1.44,3.86-1.44h4.11c1.56,0,2.78,0.46,3.72,1.4
			c0.98,0.98,1.5,2.02,1.5,3.01v1.4h1c1.94,0,3.32,0.4,4.12,1.2c0.82,0.82,1.2,2.22,1.2,4.42v2.31c0,1.72-0.36,2.95-1.14,3.86
			c-0.78,0.91-2.14,1.35-4.17,1.35h-14.55c2.09,0.98,5.41,1.5,9.64,1.5h6.52c1.5,0,2.51,0.61,3.31,1.2l0.11,0.09
			c0.88,0.88,1.3,1.94,1.3,3.32v3.81c0,1.38-0.47,2.51-1.35,3.27c-0.93,0.81-1.91,1.22-3.27,1.34L530.23,33.48z M499.46,7.82
			c-1.2,0-2.11,0.22-2.5,0.61c-0.23,0.23-0.61,0.92-0.61,3v2.31c0,1.22,0.21,2.03,0.66,2.56c0.37,0.43,1.21,0.65,2.45,0.65h6.65
			l0.22,0.71c1.2,3.87,3.31,6.85,6.45,9.11c4.63,2.93,10.53,4.53,17.49,4.72l11,0c0.84-0.08,1.44-0.32,2.05-0.86
			c0.55-0.47,0.66-1.21,0.66-1.75v-3.81c0-0.82-0.19-1.36-0.66-1.85c-0.74-0.54-1.32-0.76-2.05-0.76h-6.52
			c-5.11,0-8.93-0.72-11.34-2.14c-0.75-0.5-1.35-1.1-1.83-1.81l-1.04-1.56h19.12c1.82,0,2.44-0.41,2.65-0.65
			c0.45-0.53,0.66-1.34,0.66-2.56v-2.31c0-2.08-0.38-2.77-0.61-3c-0.14-0.14-0.76-0.61-2.7-0.61h-3.01V4.41
			c0-0.44-0.33-1.02-0.91-1.6c-0.56-0.56-1.27-0.81-2.3-0.81h-4.11c-1.11,0-1.83,0.24-2.4,0.81c-0.48,0.55-0.82,1.16-0.91,1.68v3.33
			h-6.62V5.11c0-0.9-0.24-1.53-0.81-2.1c-0.57-0.64-1.11-0.91-1.8-0.91h-9.22c-0.73,0-1.35,0.29-1.85,0.86
			c-0.58,0.67-0.86,1.35-0.86,2.15v2.71H499.46z"/>
		<path class="st0" d="M523.53,90.15c-1.88,0-3.1-0.31-3.87-0.97c-0.62-0.62-1.46-1.74-2.2-3.84l-1.85-4.94h-30.89l-1.86,4.96
			c-0.73,2.08-1.57,3.2-2.14,3.77c-0.95,0.82-2.46,1.11-4.97,0.99l-7.97,0c-1.38,0.12-2.69-0.37-3.72-1.4
			c-1.02-1.16-1.41-2.49-1.18-3.88l0.05-0.17l1.57-4.4c-0.71-0.16-1.33-0.48-1.8-0.93c-0.69-0.58-1.03-1.57-1.03-2.95v-38.5
			c0-1.35,0.28-2.26,0.93-3.05c0.77-0.77,1.84-1.16,3.08-1.16h69.07c1.24,0,2.31,0.39,3.02,1.1c0.72,0.85,0.99,1.76,0.99,3.11v38.5
			c0,1.38-0.35,2.37-1.03,2.95c-0.49,0.47-1.14,0.79-1.89,0.95l1.61,4.55c0.23,1.39-0.16,2.72-1.14,3.83
			c-1.08,1.08-2.39,1.57-3.85,1.44l-7.94,0C524.17,90.14,523.84,90.15,523.53,90.15z M483.32,78.4h33.67l2.35,6.26
			c0.68,1.92,1.4,2.77,1.67,3.05c0.2,0.17,1.01,0.53,3.45,0.41l8.07,0c0.95,0.08,1.68-0.19,2.3-0.81c0.52-0.6,0.74-1.28,0.63-2.05
			l-2.45-6.86h1.72c0.69,0,1.27-0.19,1.6-0.51l0.08-0.07c0.15-0.12,0.32-0.56,0.32-1.42v-38.5c0-1-0.19-1.43-0.47-1.76
			c-0.26-0.26-0.84-0.44-1.54-0.44h-69.07c-0.69,0-1.27,0.19-1.6,0.51c-0.22,0.27-0.41,0.7-0.41,1.7v38.5c0,0.86,0.18,1.3,0.33,1.42
			l0.08,0.07c0.32,0.32,0.91,0.51,1.6,0.51h1.62l-2.45,6.86c-0.11,0.77,0.12,1.46,0.68,2.1c0.57,0.57,1.29,0.83,2.17,0.76l8.1,0
			c2.5,0.11,3.3-0.24,3.56-0.46c0.22-0.23,0.94-1.08,1.61-2.98L483.32,78.4z M521.11,70.98h-41.8v-4.31h41.8V70.98z M481.31,68.97
			h37.79v-0.3h-37.79V68.97z M521.11,59.25h-41.8v-4.41h41.8V59.25z M481.31,57.24h37.79v-0.4h-37.79V57.24z M521.11,47.52h-41.8
			v-4.41h41.8V47.52z M481.31,45.51h37.79v-0.4h-37.79V45.51z"/>
	</g>
</g>
</svg>
