<?xml version="1.0" encoding="utf-8"?>
<!-- Generator: Adobe Illustrator 28.1.0, SVG Export Plug-In . SVG Version: 6.00 Build 0)  -->
<svg version="1.1" id="栝鍣_1" xmlns="http://www.w3.org/2000/svg" xmlns:xlink="http://www.w3.org/1999/xlink" x="0px" y="0px"
	 viewBox="0 0 1630 1558" style="enable-background:new 0 0 1630 1558;" xml:space="preserve">
<style type="text/css">
	.st0{fill:#3B9CFF;}
	.st1{fill:#33CC99;}
	.st2{fill:#142784;}
	.st3{fill:#FFC0BB;}
	.st4{fill:#A1B2E2;}
	.st5{fill:#EB6CB0;}
	.st6{fill:#FFFFFF;}
	.st7{fill:#31C2AA;}
	.st8{fill:#363636;}
	.st9{fill:#68A8FD;}
	.st10{fill:#C9E0FC;}
	.st11{fill:#FAD1C4;}
	.st12{fill:#333333;}
	.st13{fill:#F0EAFF;}
	.st14{fill:#FBCD4A;}
	.st15{fill:#FFC533;}
</style>
<g>
	<g>
		<g>
			<g>
				<path class="st0" d="M1414.7,1150.67c-5.54,7.22-11.2,14.41-16.98,21.55c-29.58,36.55-62.11,71.84-97.56,105.47
					c-13.65,12.96-27.53,25.46-41.59,37.53c-44.78,38.38-91.59,72.28-139.68,101.59c-96.84,59.07-198.85,99.57-299.83,120.88
					c-2.07,0.44-4.13,0.87-6.2,1.29c-21.15,4.31-42.25,7.77-63.24,10.38c-7.62,0.96-15.23,1.79-22.82,2.52
					c-161.38,15.44-315.1-19.75-434.97-108.11c-2.34-1.72-4.67-3.46-6.99-5.24c-15.29-11.64-30-24.19-44.08-37.65
					c0,0-0.01,0-0.02-0.01c-6.34-6.02-12.55-12.25-18.63-18.65c-36.8-38.79-66.74-82.05-89.97-128.67
					c-13.94-27.95-25.46-57.1-34.61-87.23c-4.98-16.41-9.27-33.11-12.85-50.06c-54.43-257.21,51.86-571.34,298.23-805.13
					c41.44-39.32,84.94-74.57,129.84-105.67c6.87-4.76,13.76-9.42,20.68-13.98h0.01c16.09-10.58,32.33-20.65,48.71-30.19
					c28.38-16.54,57.14-31.49,86.18-44.85h0.04c52.04-23.94,104.89-42.77,157.66-56.41c9.04-2.33,18.07-4.51,27.1-6.53
					c231.75-52.08,459.24-3.46,607.81,153.1C1682.88,440.46,1655.09,837.55,1414.7,1150.67z"/>
			</g>
		</g>
	</g>
	<g>
		<g>
			<g>
				<g>
					<g>
						<path class="st1" d="M1377.6,1261.94c-38.55,40.52-80.38,53.71-119.03,53.28c-77.38-0.85-142.02-56.24-142.02-56.24
							l2.34,157.83c-96.84,59.07-198.85,99.57-299.83,120.88l-3.86,3.27l-2.34-1.98c-21.15,4.31-42.25,7.77-63.24,10.38
							c-7.62,0.96-15.23,1.79-22.82,2.52c-161.38,15.44-315.1-19.75-434.97-108.11l-0.07-5.47c0,0-2.36,0.32-6.91,0.23
							c-17.37-0.39-66.7-6.94-138.37-60.9c-63.13-47.54-61.5-141.6-48.94-211.32c7.18-39.75,17.91-71.59,22.22-82.36
							c11.34-28.31,44.29-262.01,122.05-394.15c0.01,0,0.01-0.01,0.01-0.01c3.71-6.29,7.52-12.37,11.44-18.19
							c53.28-78.99,170.23-119.32,251.55-138.56c28.77-6.81,53.08-10.97,68.54-13.29h0.01c0.23-0.04,0.45-0.07,0.68-0.11
							c0.48-0.07,0.93-0.13,1.39-0.2c0.35-0.05,0.68-0.1,1-0.16c0.17-0.02,0.33-0.05,0.5-0.07c0.16-0.01,0.31-0.04,0.47-0.06
							c0.32-0.05,0.63-0.1,0.94-0.13v-0.01c0.16-0.02,0.31-0.05,0.45-0.06c0.24-0.02,0.47-0.06,0.68-0.1
							c0.23-0.02,0.44-0.06,0.66-0.1c0.29-0.04,0.57-0.08,0.85-0.12c0.56-0.07,1.09-0.14,1.6-0.21c0.16-0.02,0.3-0.05,0.44-0.06
							c0.16-0.02,0.29-0.04,0.43-0.06c0.21-0.02,0.42-0.05,0.61-0.07v-0.01c0.08,0,0.16-0.01,0.23-0.02
							c0.54-0.07,1.05-0.13,1.53-0.19c0.13-0.01,0.26-0.04,0.38-0.05c0.36-0.05,0.69-0.1,1-0.13c0.16-0.02,0.31-0.04,0.47-0.06h0.06
							v-0.01c0.13-0.01,0.25-0.02,0.37-0.04c0.31-0.04,0.6-0.07,0.86-0.11c0.04,0,0.06,0,0.08-0.01c0.02-0.01,0.05-0.01,0.06-0.01
							c0.06,0,0.13,0,0.19-0.01c0.2-0.02,0.38-0.05,0.55-0.06v-0.01c0.01,0,0.02,0,0.02,0c0.01-0.01,0.01,0,0.01,0
							c0.11-0.01,0.19-0.02,0.29-0.04c0.79-0.08,1.21-0.13,1.21-0.13l0.01-0.01l48.43-45.47l3.32,2.44l0.01,0.01l113.34,82.59v-0.01
							l31.87-72.41l0.76-1.73l51.41,35.59c0,0,0.05,0.01,0.16,0.02c0.11,0.01,0.26,0.04,0.48,0.06c0.17,0.02,0.37,0.06,0.6,0.08
							c0.12,0.02,0.24,0.04,0.37,0.06h0.01c0.16,0.02,0.31,0.04,0.48,0.06c0.02,0.01,0.06,0.01,0.08,0.01
							c0.02,0.01,0.06,0.01,0.08,0.01c0.05,0.01,0.11,0.02,0.16,0.02c0.04,0,0.06,0.01,0.08,0.01c0.04,0.01,0.08,0.01,0.13,0.02
							h0.01c0.07,0.01,0.16,0.02,0.24,0.04c0.11,0.01,0.23,0.02,0.33,0.05c0.12,0.01,0.24,0.02,0.36,0.05
							c0.13,0.01,0.26,0.04,0.41,0.06c0.06,0,0.13,0.01,0.2,0.02c0.2,0.04,0.42,0.06,0.64,0.1c0.12,0.02,0.25,0.04,0.38,0.06
							c0.22,0.02,0.44,0.06,0.67,0.1c0.73,0.11,1.53,0.23,2.39,0.35c0.14,0.01,0.29,0.04,0.43,0.06c0.21,0.04,0.44,0.07,0.67,0.11
							c0.07,0.01,0.16,0.02,0.23,0.04c0.08,0.01,0.16,0.01,0.23,0.02c0.23,0.04,0.47,0.07,0.72,0.11c0.27,0.05,0.56,0.08,0.85,0.13
							c0.37,0.06,0.75,0.11,1.13,0.17c1.03,0.16,2.13,0.32,3.27,0.5c0.57,0.08,1.16,0.18,1.76,0.26c1.8,0.27,3.71,0.57,5.74,0.9
							c11.88,1.86,27.52,4.45,45.04,7.68c11.44,2.11,23.67,4.49,36.18,7.12c28.53,5.99,58.48,13.28,83.61,21.58
							c0.01,0,0.01,0,0.02,0.01h0.01c7.19,2.38,13.98,4.82,20.22,7.36h0.01l0.01,0.01c1.17,0.48,2.33,0.94,3.45,1.43h0.01
							c0.63,0.26,1.23,0.53,1.84,0.79c8.37,3.64,17.32,9.29,26.65,16.51c0.01,0,0.01,0,0.01,0c15.73,12.17,32.55,28.8,49.51,47.8
							c1.31,1.47,2.63,2.94,3.94,4.43c3.81,4.33,7.61,8.78,11.4,13.31c4.08,4.85,8.14,9.8,12.17,14.83
							c20.17,25.05,39.8,51.89,57.31,76.87c3.02,4.32,5.98,8.59,8.88,12.78v0.01c18.1,26.28,33.36,49.68,43.71,65.61
							c3.32,5.1,7.73,11.68,12.94,19.55c40.41,60.88,129.37,198.13,133.92,311.19C1416.41,1192.88,1406.35,1231.72,1377.6,1261.94z"
							/>
					</g>
				</g>
			</g>
			<g>
				<g>
					<g>
						<path class="st2" d="M653.89,1557.73c-138.28,0-263.95-38.75-363.43-112.08c-0.59-0.43-0.94-1.11-0.95-1.84l-0.04-2.99
							c-1.17,0.05-2.73,0.09-4.67,0.05c-18.05-0.41-67.79-7.21-139.72-61.37c-64.27-48.4-62.57-142.86-49.83-213.59
							c7.01-38.85,17.69-71.16,22.35-82.81c2.73-6.81,6.87-26.43,12.6-53.58c17.78-84.25,50.87-241.06,109.61-340.89
							c0.02-0.04,0.05-0.08,0.08-0.12c3.8-6.44,7.65-12.56,11.45-18.2c52.86-78.36,166.73-119.13,252.94-139.52
							c28.86-6.83,53.31-11.02,68.74-13.33c0.02,0,0.05-0.01,0.07-0.01l1.99-0.3c0.35-0.05,0.65-0.09,0.94-0.14l0.59-0.09
							c0.05-0.01,0.1-0.01,0.15-0.02c0.1-0.01,0.19-0.02,0.29-0.04l0.14-0.02c0.22-0.03,0.43-0.06,0.64-0.09
							c0.05-0.01,0.11-0.02,0.16-0.03c0.21-0.03,0.42-0.06,0.61-0.08c0.15-0.02,0.32-0.04,0.49-0.07c0.05-0.01,0.09-0.01,0.14-0.02
							c0.18-0.02,0.34-0.05,0.51-0.08l0.94-0.13c0.56-0.07,1.08-0.14,1.58-0.21c0.19-0.03,0.35-0.05,0.5-0.07l0.31-0.04
							c0.04-0.01,0.08-0.01,0.12-0.02l0.36-0.04c0.13-0.03,0.26-0.05,0.39-0.05c0.44-0.06,0.79-0.1,1.12-0.14l1.1-0.14
							c0.27-0.04,0.52-0.07,0.77-0.1l0.35-0.04c0.08-0.01,0.15-0.03,0.23-0.03l0.35-0.03c0.24-0.03,0.49-0.06,0.73-0.09
							c0.15-0.03,0.3-0.05,0.46-0.05l0.09-0.01c0.09-0.01,0.17-0.02,0.25-0.03c0.04-0.01,0.08-0.01,0.12-0.02
							c0.08-0.01,0.16-0.02,0.24-0.03l0.02,0c0.02,0,0.13-0.02,0.15-0.02l0.43-0.05l47.88-44.95c0.82-0.77,2.06-0.84,2.97-0.18
							l3.32,2.44c0.03,0.02,0.05,0.04,0.08,0.06l110.92,80.83l31.48-71.51c0.28-0.63,0.83-1.11,1.5-1.3
							c0.67-0.19,1.39-0.07,1.96,0.33l50.97,35.27l0.25,0.04c0.1,0.02,0.21,0.03,0.33,0.05c0.07,0.01,0.14,0.02,0.21,0.03l0.19,0.03
							c0.03,0,0.06,0.01,0.09,0.01l0.46,0.06c0.02,0,0.03,0,0.05,0.01c0.02,0,0.05,0.01,0.07,0.01c0.05,0.01,0.1,0.01,0.16,0.02
							c0.04,0,0.09,0.01,0.13,0.02c0.04,0.01,0.09,0.01,0.13,0.02c0.02,0,0.05,0.01,0.07,0.01l0.19,0.03
							c0.09,0.01,0.22,0.02,0.34,0.05c0.12,0.01,0.24,0.03,0.35,0.05c0.12,0.01,0.24,0.03,0.36,0.05c0.09,0.01,0.19,0.02,0.29,0.04
							l0.95,0.14c0.24,0.03,0.49,0.07,0.74,0.11l0.33,0.05c0.61,0.09,1.27,0.19,1.96,0.28c0.18,0.02,0.37,0.05,0.55,0.08l0.89,0.14
							c0.02-0.01,0.12,0.01,0.22,0.02l2.68,0.4c1.02,0.15,2.12,0.32,3.27,0.5l0.72,0.11c0.33,0.05,0.66,0.1,1,0.15
							c1.84,0.28,3.75,0.58,5.79,0.9c10.24,1.61,26.38,4.24,45.1,7.69c12.64,2.33,24.83,4.73,36.24,7.13
							c33.41,7.02,61.63,14.3,83.87,21.65v0c0.01,0,0.02,0.01,0.04,0.01c7.52,2.49,14.34,4.97,20.28,7.38
							c0.08,0.03,0.15,0.06,0.23,0.09l0.45,0.18c0.95,0.39,1.89,0.77,2.81,1.17c0.03,0.01,0.07,0.02,0.1,0.04
							c0.49,0.2,0.95,0.4,1.42,0.61l0.45,0.2c8.19,3.56,17.28,9.18,27.02,16.7c0.05,0.03,0.1,0.07,0.15,0.11
							c14.79,11.44,31.55,27.63,49.82,48.09c1.32,1.47,2.63,2.94,3.95,4.44c3.71,4.22,7.45,8.59,11.44,13.36
							c3.96,4.7,8.07,9.71,12.2,14.87c17.65,21.93,36.97,47.83,57.4,76.99c3.03,4.33,5.99,8.59,8.89,12.79
							c0.03,0.05,0.07,0.1,0.1,0.16c17.07,24.79,31.64,47.03,43.65,65.52c2.29,3.51,5.09,7.73,8.32,12.59l4.61,6.94
							c35.44,53.39,129.59,195.23,134.31,312.39c1.89,46.65-10.81,84.66-37.74,112.97c-34.1,35.84-74.1,54.02-118.9,54.02
							c-0.62,0-1.23,0-1.84-0.01c-66.55-0.73-124.35-41.85-139.59-53.67l2.27,152.89c0.01,0.82-0.41,1.59-1.12,2.02
							c-95.85,58.47-196.77,99.19-299.98,121.05l-3.41,2.89c-0.87,0.74-2.14,0.74-3.01,0l-1.48-1.25
							c-20.76,4.2-41.72,7.63-62.31,10.18c-7.47,0.94-15.17,1.79-22.88,2.53C702.53,1556.54,677.92,1557.73,653.89,1557.73z
							 M294.15,1442.58c98.53,72.3,222.89,110.49,359.74,110.49c23.89,0,48.35-1.18,72.7-3.51c7.67-0.74,15.32-1.58,22.75-2.51
							c20.84-2.58,42.06-6.07,63.07-10.35c0.7-0.14,1.42,0.04,1.97,0.5l0.84,0.71l2.35-2c0.29-0.25,0.65-0.42,1.02-0.5
							c102.48-21.63,202.72-61.97,297.96-119.9l-2.32-156.5c-0.01-0.92,0.51-1.75,1.34-2.14c0.83-0.39,1.81-0.26,2.5,0.34
							c0.64,0.55,64.92,54.86,140.53,55.68c0.6,0.01,1.19,0.01,1.79,0.01c43.47,0,82.34-17.69,115.53-52.57
							c26.03-27.36,38.3-64.22,36.46-109.57c-4.66-115.85-98.29-256.9-133.54-310l-4.61-6.93c-3.24-4.88-6.05-9.11-8.35-12.63
							c-12.01-18.5-26.59-40.76-43.67-65.56c-0.03-0.05-0.06-0.1-0.09-0.15c-2.87-4.14-5.8-8.36-8.78-12.63
							c-20.37-29.07-39.62-54.89-57.21-76.74c-4.11-5.14-8.19-10.11-12.14-14.79c-3.97-4.75-7.69-9.09-11.37-13.28
							c-1.31-1.49-2.62-2.95-3.93-4.41c-18.02-20.2-34.53-36.14-49.06-47.41c-0.05-0.03-0.1-0.07-0.15-0.1
							c-9.49-7.34-18.29-12.8-26.16-16.22l-0.45-0.2c-0.41-0.18-0.81-0.35-1.23-0.53c-0.06-0.02-0.11-0.04-0.17-0.07
							c-0.92-0.4-1.87-0.79-2.83-1.18l-0.57-0.23c-0.03-0.01-0.06-0.02-0.08-0.04c-5.83-2.37-12.54-4.81-19.94-7.26
							c-0.05-0.01-0.1-0.03-0.15-0.05c-22.07-7.28-50.1-14.51-83.31-21.49c-11.37-2.39-23.53-4.78-36.13-7.11
							c-18.66-3.43-34.76-6.07-44.98-7.67c-2.03-0.32-3.94-0.62-5.73-0.89c-0.33-0.05-0.68-0.1-1.03-0.15l-0.71-0.11
							c-1.17-0.18-2.26-0.35-3.28-0.5l-0.51-0.07c-0.22-0.03-0.43-0.06-0.64-0.1l-0.37-0.06c-0.17-0.03-0.34-0.05-0.5-0.08
							l-0.68-0.1c-0.02,0-0.1-0.01-0.19-0.02c-0.01,0-0.13-0.02-0.14-0.02l-0.81-0.13c-0.08-0.01-0.16-0.03-0.24-0.04
							c-0.04,0-0.09-0.01-0.13-0.01c-0.73-0.1-1.42-0.2-2.05-0.3l-0.35-0.05c-0.21-0.03-0.41-0.06-0.59-0.08
							c-0.05-0.01-0.1-0.01-0.16-0.02c-0.2-0.03-0.32-0.05-0.43-0.07l-0.14-0.02c-0.14-0.02-0.28-0.04-0.42-0.06
							c-0.07-0.01-0.14-0.01-0.21-0.03c-0.12-0.02-0.18-0.03-0.23-0.04c-0.08-0.01-0.17-0.02-0.24-0.04l-0.13-0.01
							c-0.09-0.01-0.19-0.02-0.28-0.04c-0.03,0-0.13-0.01-0.16-0.02L842.9,521c-0.05-0.01-0.09-0.01-0.14-0.02
							c-0.03,0-0.06-0.01-0.09-0.01c-0.08-0.01-0.16-0.02-0.25-0.04c-0.07-0.01-0.14-0.02-0.2-0.03l-0.09-0.01
							c-0.09-0.01-0.17-0.02-0.26-0.03c-0.06-0.01-0.11-0.01-0.16-0.02c-0.12-0.02-0.21-0.03-0.28-0.04
							c-0.17-0.02-0.32-0.04-0.46-0.06l-0.42-0.06c-0.42-0.05-0.56-0.09-0.56-0.09c-0.24-0.07-0.57-0.21-0.77-0.35l-49.09-33.98
							l-31.48,71.51c-0.21,0.51-0.59,0.94-1.1,1.19c-0.78,0.4-1.72,0.33-2.43-0.19l-113.34-82.59c-0.03-0.02-0.06-0.05-0.09-0.07
							l-1.68-1.24l-47.02,44.15c-0.37,0.34-0.84,0.57-1.34,0.63l-1.31,0.14c-0.1,0.02-0.21,0.04-0.32,0.04
							c-0.09,0.01-0.19,0.02-0.3,0.03l-0.12,0.01c-0.06,0.01-0.12,0.01-0.17,0.02c-0.09,0.02-0.18,0.02-0.25,0.03
							c-0.25,0.03-0.51,0.07-0.79,0.1l-0.18,0.02c-0.11,0.02-0.22,0.04-0.34,0.04c-0.05,0.01-0.1,0.01-0.15,0.02l-0.15,0.02
							c-0.3,0.04-0.52,0.07-0.76,0.1l-0.29,0.04l-0.26-1.24c-0.02,0.05-0.04,0.09-0.06,0.14l0.16,1.12
							c-0.1,0.01-0.21,0.03-0.32,0.04l-0.4,0.05c-0.33,0.04-0.67,0.08-1.03,0.13c-0.03,0-0.06,0.01-0.1,0.01
							c-0.05,0.01-0.1,0.02-0.15,0.02l-0.58,0.07c-0.08,0.01-0.17,0.02-0.25,0.03l-0.14,0.02c-0.05,0.01-0.11,0.01-0.16,0.02
							c-0.07,0.01-0.14,0.02-0.21,0.03c-0.62,0.09-1.16,0.16-1.73,0.23l-0.33,0.05c-0.17,0.03-0.35,0.05-0.52,0.07
							c-0.16,0.03-0.38,0.06-0.63,0.09c-0.24,0.04-0.5,0.08-0.77,0.11c-0.04,0-0.08,0.01-0.11,0.01c-0.1,0.03-0.2,0.04-0.3,0.06
							c-0.24,0.03-0.49,0.06-0.74,0.1l-0.13,0.02c-0.17,0.03-0.35,0.05-0.54,0.07l-0.44,0.06c-0.27,0.05-0.64,0.1-1.02,0.16
							c-0.23,0.04-0.5,0.07-0.77,0.11l-1.25,0.19c-0.04,0.01-0.07,0.01-0.11,0.01c-15.34,2.3-39.62,6.46-68.28,13.24
							c-85.41,20.2-198.13,60.48-250.15,137.59c-3.77,5.59-7.59,11.67-11.36,18.07l0,0c-0.02,0.04-0.04,0.07-0.07,0.1
							c-58.32,99.17-91.3,255.43-109.01,339.39c-5.78,27.38-9.95,47.17-12.83,54.35c-4.6,11.5-15.14,43.42-22.09,81.91
							c-12.51,69.44-14.33,162.07,48.05,209.04c70.84,53.35,119.42,60.03,137.02,60.43c4.23,0.09,6.53-0.2,6.55-0.21
							c0.66-0.09,1.33,0.11,1.83,0.55c0.5,0.44,0.8,1.06,0.81,1.73L294.15,1442.58z"/>
					</g>
				</g>
			</g>
		</g>
		<g>
			<g>
				<g>
					<path class="st2" d="M1116.55,1261.3c-1.26,0-2.29-1-2.32-2.26l-3.1-112.8c-0.04-1.28,0.98-2.35,2.26-2.39
						c1.33-0.03,2.36,0.98,2.39,2.26l3.1,112.8c0.04,1.28-0.98,2.35-2.26,2.39C1116.59,1261.3,1116.57,1261.3,1116.55,1261.3z"/>
				</g>
			</g>
		</g>
		<g>
			<g>
				<g>
					<g>
						<path class="st2" d="M531.21,230.07C527.41,118.1,609.27,48.22,718.1,44.53s201.63,40.2,205.44,152.17
							s-79.57,225.73-188.39,229.43C626.32,429.82,535.01,342.05,531.21,230.07z"/>
					</g>
				</g>
			</g>
			<g>
				<g>
					<g>
						<g>
							<path class="st3" d="M890.77,288.9c0,0,12-19.42,26.95-14.79c14.95,4.63,42.91,77.61-32.95,79.92S890.77,288.9,890.77,288.9z
								"/>
						</g>
					</g>
				</g>
				<g>
					<g>
						<g>
							<path class="st2" d="M881.07,356.42c-17.33,0-27.16-3.91-30.04-11.94c-6.83-19.04,32.17-52.32,37.98-57.13
								c1.57-2.42,11.14-16.27,24.05-16.27c1.8,0,3.6,0.28,5.36,0.82c9.16,2.84,21.74,26.46,18.81,48.03
								c-1.77,13.07-10.94,35.18-52.38,36.44C883.54,356.4,882.28,356.42,881.07,356.42z M913.06,275.73
								c-11.28,0-20.22,14.25-20.31,14.4c-0.13,0.22-0.3,0.41-0.5,0.57c-11.93,9.83-41.81,38.38-36.84,52.21
								c2.63,7.32,15.41,8.86,25.66,8.86c1.17,0,2.38-0.02,3.63-0.06c36.11-1.1,45.98-18.24,47.91-32.42
								c2.67-19.65-8.81-40.86-15.57-42.95C915.73,275.93,914.39,275.73,913.06,275.73z"/>
						</g>
					</g>
				</g>
			</g>
			<g>
				<g>
					<g>
						<g>
							<path class="st3" d="M789.13,496.24l35.59,21.09c0,0,0.75,66.28-78.06,64.37c-78.8-1.9-151.33-56.46-151.33-56.46l48.12-32.3
								l-1.63-104.59c-5.6-6.96-10.75-14.72-15.39-23.4c0,0-34.1,21.1-69.45-15.32c-26.54-27.39-26.97-79.51,13.99-83.55
								c40.96-4.04,45.47,24.53,58.76,25.4c13.28,0.87,0.15-71.89,5.83-99.92c5.67-28.03,67.38-80.43,109.67-83.55
								c29.49-2.18,55.49,0.39,76.31,4.38c35.15,6.73,63.02,33.83,70.45,68.86c15.24,71.84,21.11,190.2-33.13,240.53
								c-12.36,11.46-29.56,19.31-48.74,22.37c0,0-6.85,1.02-24.3,1.34L789.13,496.24z"/>
						</g>
					</g>
				</g>
				<g>
					<g>
						<g>
							<path class="st2" d="M749.97,584.08c-1.1,0-2.22-0.01-3.35-0.04c-78.64-1.9-151.95-56.38-152.68-56.93
								c-0.6-0.45-0.95-1.17-0.93-1.92c0.02-0.75,0.4-1.45,1.03-1.87l47.07-31.59l-1.6-102.53c-5.13-6.45-9.83-13.53-14.01-21.09
								c-3.79,1.86-12.26,5.26-23.45,5.26c-16.77,0-32.49-7.44-46.73-22.11c-16.73-17.26-23.63-44.1-16.4-63.81
								c5.04-13.74,16.34-22.16,31.84-23.68c2.71-0.27,5.36-0.4,7.87-0.4c22.39,0,32.75,10.51,40.31,18.18
								c4.06,4.12,7.26,7.37,10.96,7.62c0.25,0.01,0.48-0.03,0.81-0.37c4.03-4.23,2.95-26.79,2-46.69c-0.92-19.13-1.86-38.9,0.59-51
								c6.02-29.76,69.44-82.29,111.78-85.41c7.2-0.53,14.52-0.8,21.74-0.8c18.55,0,37.11,1.75,55.18,5.22
								c36.28,6.94,64.66,34.68,72.29,70.66c9.05,42.65,12.52,89.66,9.53,128.99c-3.99,52.47-18.57,90.73-43.36,113.73
								c-12.61,11.68-30.35,19.84-49.96,22.96c-0.29,0.04-6.57,0.95-22.19,1.32l3.06,47.1l34.54,20.47c0.7,0.41,1.13,1.16,1.14,1.98
								c0.01,1.09,0.08,26.81-19.1,46.2C794.46,577.16,774.95,584.08,749.97,584.08z M599.42,525.31
								c13.78,9.66,78.57,52.41,147.31,54.07c1.1,0.03,2.18,0.04,3.24,0.04c23.69,0,42.09-6.46,54.68-19.19
								c15.49-15.67,17.47-36.3,17.71-41.59l-34.42-20.4c-0.66-0.39-1.09-1.08-1.14-1.85l-3.3-50.76c-0.04-0.63,0.18-1.26,0.61-1.73
								c0.43-0.47,1.03-0.74,1.67-0.75c17.03-0.32,23.93-1.31,24-1.32c18.68-2.98,35.56-10.71,47.5-21.77
								c23.9-22.17,37.99-59.41,41.88-110.67c2.96-38.91-0.49-85.44-9.44-127.67c-7.25-34.15-34.18-60.47-68.62-67.06
								c-17.78-3.41-36.05-5.13-54.3-5.13c-7.11,0-14.31,0.27-21.4,0.79c-39.89,2.94-101.94,53.91-107.56,81.69
								c-2.34,11.53-1.41,31.02-0.5,49.86c1.32,27.56,1.87,44.73-3.28,50.13c-1.22,1.28-2.76,1.91-4.48,1.8
								c-5.47-0.36-9.41-4.36-13.97-8.99c-7.37-7.48-16.55-16.8-36.99-16.8c-2.37,0-4.86,0.13-7.42,0.38
								c-17.45,1.72-24.82,12.18-27.92,20.65c-6.64,18.12-0.18,42.92,15.38,58.96c13.33,13.73,27.92,20.7,43.39,20.7
								c13.75,0,23.08-5.67,23.17-5.73c0.55-0.34,1.21-0.43,1.83-0.27c0.62,0.17,1.14,0.58,1.45,1.15
								c4.45,8.32,9.55,16.07,15.15,23.04c0.32,0.4,0.51,0.9,0.51,1.42l1.63,104.59c0.01,0.79-0.38,1.53-1.03,1.97L599.42,525.31z"
								/>
						</g>
					</g>
				</g>
			</g>
			<g>
				<g>
					<g>
						<path class="st2" d="M622.71,333.83c-0.76,0-1.5-0.37-1.95-1.05c-14.9-22.62-28.76-34.13-40.12-33.29
							c-10.42,0.78-15.7,11.92-15.75,12.03c-0.54,1.17-1.92,1.67-3.09,1.14c-1.17-0.54-1.68-1.91-1.14-3.08
							c0.26-0.56,6.43-13.72,19.6-14.73c13.32-1.01,28.26,10.88,44.4,35.36c0.71,1.07,0.41,2.52-0.66,3.22
							C623.59,333.7,623.15,333.83,622.71,333.83z"/>
					</g>
				</g>
			</g>
			<g>
				<g>
					<g>
						<path class="st2" d="M586.33,329.76c-0.49,0-0.98-0.15-1.4-0.47c-1.03-0.77-1.23-2.23-0.46-3.26l14.38-19.05
							c0.77-1.03,2.23-1.23,3.26-0.46c1.03,0.77,1.23,2.23,0.46,3.26l-14.38,19.05C587.73,329.44,587.03,329.76,586.33,329.76z"/>
					</g>
				</g>
			</g>
			<g>
				<g>
					<g>
						<path class="st2" d="M582.56,397.53c-0.27,0-0.54-0.01-0.81-0.02c-8.97-0.39-14.86-6.6-16.17-17.03
							c-3.54-28.26,31.19-34.21,31.54-34.27c1.27-0.2,2.46,0.66,2.67,1.92c0.21,1.27-0.65,2.46-1.92,2.67
							c-1.25,0.21-30.65,5.3-27.67,29.1c1.03,8.19,5.09,12.67,11.75,12.96c9.04,0.39,21.41-7.71,23.78-18.73
							c0.27-1.26,1.51-2.06,2.76-1.79c1.26,0.27,2.06,1.51,1.79,2.76C607.47,388.18,593.55,397.53,582.56,397.53z"/>
					</g>
				</g>
			</g>
			<g>
				<g>
					<g>
						<g>
							<path class="st2" d="M534.93,226.88c-16.16-5.82-25.99-23.31-26.99-40.45c-1-17.14,5.35-33.89,13.35-49.09
								c26.32-50.02,72.33-89.33,125.85-107.52c18.03-6.13,38.74-9.71,55.48-0.64c3.95,2.14,7.6,4.95,11.93,6.15
								c5.67,1.58,11.69,0.18,17.45-1.06c23.51-5.04,48.01-7.3,71.56-2.46c34.24,7.05,64.17,28.81,86.54,55.68
								c22.37,26.87,37.9,58.71,51.58,90.89c5.93,13.96,10.4,32.85-1.66,42.05c-7.83,5.97-19.51,4.2-27.56-1.47
								c-8.05-5.67-13.31-14.4-18.34-22.87c5.29,13.4-8.26,30.06-22.46,27.6c-8.79-1.52-15.5-8.47-21.36-15.2
								c-15.25-17.48-29.29-36.01-42-55.42c-6.84-10.45-18.22-22.73-29.4-17.17c-7.39,3.68-9.27,13.1-11.29,21.11
								c-4.04,16-12.1,30.97-23.23,43.14c-2.8,3.06-5.96,6.05-9.95,7.18c-7.55,2.14-15.49-3.28-19.34-10.12
								c-3.85-6.84-4.79-14.87-6.66-22.5c-7.28,14.02-14.69,28.23-25.5,39.75c-10.81,11.52-25.64,20.19-41.44,20.07
								c-15.79-0.12-31.91-10.87-34.87-26.39c-6,14.9-25,18.64-40.98,20.23C555.35,229.4,544.66,230.38,534.93,226.88z"/>
						</g>
					</g>
				</g>
				<g>
					<g>
						<g>
							<path class="st2" d="M641.83,236.86l-0.35,0c-15.66-0.12-30.15-9.72-35.47-22.71c-8.27,11.81-25.48,15.08-40.12,16.54
								c-4.32,0.43-9.71,0.97-14.9,0.97c-6.49,0-12-0.85-16.84-2.59c-18.38-6.62-27.57-26.12-28.52-42.51
								c-0.87-15.02,3.45-31.01,13.61-50.31c26.64-50.63,72.99-90.23,127.16-108.64c12.37-4.21,23.09-6.25,32.76-6.25
								c9.25,0,17.52,1.94,24.58,5.77c1.22,0.66,2.41,1.38,3.56,2.08c2.65,1.61,5.15,3.12,7.89,3.88c1.5,0.42,3.09,0.62,4.89,0.62
								c3.52,0,7.24-0.8,10.84-1.58l0.61-0.13c16.28-3.49,30.82-5.19,44.43-5.19c9.83,0,19.28,0.92,28.09,2.73
								c31.78,6.54,62.98,26.6,87.85,56.47c23.52,28.26,39.45,62.09,51.93,91.47c8.9,20.94,8.05,36.85-2.39,44.81
								c-3.6,2.74-8.13,4.19-13.11,4.19c-5.87,0-12.14-2.04-17.2-5.61c-5.72-4.03-10.08-9.5-13.79-15.13
								c-0.54,3.35-1.88,6.69-3.96,9.75c-4.52,6.65-11.75,10.78-18.87,10.78c-1.08,0-2.17-0.09-3.23-0.28
								c-9.57-1.66-16.74-9.11-22.72-15.96c-15.27-17.51-29.47-36.24-42.19-55.67c-7.29-11.12-15.19-17.5-21.68-17.5
								c-1.62,0-3.21,0.38-4.73,1.14c-5.93,2.95-7.83,10.58-9.66,17.95l-0.41,1.64c-4.14,16.4-12.36,31.66-23.77,44.14
								c-3.03,3.31-6.46,6.55-11.03,7.85c-1.32,0.37-2.68,0.56-4.06,0.56c-7.81,0-14.64-5.92-17.94-11.78
								c-2.98-5.29-4.3-11.17-5.52-16.9c-6.39,12.16-13.3,24.36-22.91,34.6C672.22,229.27,656.62,236.86,641.83,236.86z
								 M606.62,205.81c0.08,0,0.15,0,0.23,0.01c1.03,0.1,1.87,0.87,2.06,1.88c2.59,13.61,16.91,24.37,32.6,24.5l0.31,0
								c13.51,0,27.88-7.05,39.41-19.33c10.67-11.36,18.02-25.53,25.13-39.23c0.45-0.86,1.38-1.36,2.34-1.24
								c0.96,0.12,1.75,0.82,1.98,1.76c0.46,1.88,0.86,3.79,1.26,5.64c1.24,5.86,2.42,11.39,5.17,16.27
								c3.17,5.63,8.75,9.41,13.89,9.41c0.95,0,1.89-0.13,2.79-0.39c3.45-0.98,6.3-3.71,8.86-6.51
								c10.89-11.92,18.74-26.49,22.7-42.14l0.41-1.63c1.99-8.01,4.24-17.08,12.1-20.99c2.17-1.08,4.46-1.63,6.8-1.63
								c11.08,0,20.78,12.29,25.58,19.61c12.61,19.25,26.68,37.81,41.81,55.16c5.7,6.54,11.94,13.04,20.01,14.43
								c6.3,1.09,13.25-2.35,17.46-8.53c3.46-5.08,4.37-11.03,2.44-15.92c-0.45-1.13,0.05-2.41,1.14-2.94
								c1.09-0.53,2.41-0.14,3.03,0.9c4.64,7.82,9.89,16.67,17.67,22.16c4.29,3.03,9.59,4.76,14.52,4.76
								c3.95,0,7.51-1.12,10.29-3.24c11.58-8.83,5.55-28.4,0.92-39.29c-12.35-29.06-28.09-62.52-51.22-90.31
								c-24.2-29.07-54.46-48.57-85.22-54.89c-8.5-1.75-17.64-2.64-27.15-2.64c-13.28,0-27.5,1.66-43.46,5.09l-0.61,0.13
								c-3.84,0.83-7.8,1.68-11.82,1.68c-2.22,0-4.22-0.26-6.13-0.79c-3.35-0.93-6.25-2.69-9.05-4.38c-1.15-0.7-2.24-1.36-3.36-1.96
								c-6.38-3.46-13.9-5.21-22.37-5.21c-9.15,0-19.38,1.96-31.26,6c-53.05,18.04-98.44,56.82-124.54,106.4
								c-9.75,18.52-13.91,33.73-13.08,47.87c0.86,14.86,9.07,32.5,25.45,38.4c4.32,1.56,9.32,2.31,15.26,2.31
								c4.96,0,10.21-0.53,14.43-0.95c15.27-1.53,33.52-5.04,39.05-18.79C604.82,206.38,605.68,205.81,606.62,205.81z"/>
						</g>
					</g>
				</g>
			</g>
			<g>
				<g>
					<g>
						<path class="st2" d="M721.72,44.66c-0.79,0-1.55-0.41-1.98-1.1c-6.3-10.16-10.51-21.79-12.17-33.63
							c-0.18-1.27,0.71-2.45,1.98-2.63c1.28-0.18,2.45,0.71,2.63,1.98c1.28,9.15,4.17,18.17,8.44,26.41
							c3.51-14.07,12.29-26.85,24.28-35.01c1.06-0.72,2.51-0.45,3.23,0.61c0.72,1.06,0.45,2.51-0.62,3.23
							c-12.7,8.64-21.48,22.89-23.5,38.11c-0.13,0.97-0.86,1.76-1.82,1.97C722.04,44.64,721.88,44.66,721.72,44.66z"/>
					</g>
				</g>
			</g>
			<g>
				<g>
					<g>
						<path class="st4" d="M679.18,117.33c3.9,0.78,8.02,2.41,9.92,5.91c1.43,2.63,1.32,5.82,0.84,8.77
							c-2.34,14.62-13.2,27.56-27.19,32.41c-6.66,2.31-15.01,2.46-19.76-2.74c-1.89-2.07-2.99-4.77-4.99-6.74
							c-5.95-5.87-15.8-2.54-23.68,0.25c-10.44,3.69-21.45,5.76-32.51,6.11c-4.16,0.13-8.75-0.14-11.76-3
							c-1.67-1.58-2.62-3.76-3.38-5.93c-5.65-16.14-2.06-35.17,9.09-48.15c7.5-8.73,18.53-14.77,30.04-14.74
							c11.51,0.03,23.13,6.81,27.46,17.48c1.47,3.62,2.47,8.01,5.99,9.71c1.36,0.66,2.91,0.78,4.42,0.84
							C655.52,117.96,667.54,115.02,679.18,117.33z"/>
					</g>
				</g>
			</g>
			<g>
				<g>
					<g>
						<path class="st5" d="M707.63,303.77c3.98,1.61,7.81,3.67,10.82,6.71c21.77,22.01-25.44,23.63-37.09,22.05
							c-8.92-1.21-43.97-15.07-30.86-27.78c2.32-2.24,5.44-3.44,8.54-4.33c15.09-4.35,31.52-2.91,46.27,2.46
							C706.08,303.16,706.86,303.46,707.63,303.77z"/>
					</g>
				</g>
			</g>
			<g>
				<g>
					<g>
						<path class="st5" d="M839.4,305.45c-3.82,1.28-7.53,3.01-10.56,5.78c-21.96,20.12,21.57,25.66,32.48,25.05
							c8.35-0.47,41.92-11.37,30.85-25.12c-1.96-2.43-4.75-3.87-7.54-5.02c-13.6-5.59-28.91-5.52-43-1.39
							C840.89,304.97,840.14,305.2,839.4,305.45z"/>
					</g>
				</g>
			</g>
			<g>
				<g>
					<g>
						<g>
							<g>
								<path class="st2" d="M846.24,230.4c-0.02-5.46-7.34-9.86-16.36-9.84c-9.02,0.03-16.32,4.47-16.31,9.93
									c0.02,5.46,7.34,9.86,16.36,9.84C838.96,240.3,846.26,235.86,846.24,230.4z"/>
							</g>
						</g>
					</g>
					<g>
						<g>
							<g>
								<path class="st2" d="M741.23,230.76c-0.02-5.46-7.34-9.86-16.36-9.84c-9.02,0.03-16.32,4.47-16.31,9.93
									c0.02,5.46,7.34,9.86,16.36,9.84C733.95,240.67,741.25,236.22,741.23,230.76z"/>
							</g>
						</g>
					</g>
					<g>
						<g>
							<g>
								<path class="st6" d="M684.39,284.32c10.08,3.64,20.55,6.18,31.17,7.61c8.35,1.12,21.97,4.23,28.49-3.03
									c11.22-12.5-7.75-25.1-17.68-28.64c-13.59-4.84-34.78-10.13-48.79-4.43c-5.62,2.29-10.38,7.82-9.83,13.87
									c0.69,7.53,8.25,11.48,14.53,13.85C682.99,283.8,683.69,284.06,684.39,284.32z"/>
							</g>
						</g>
						<g>
							<g>
								<path class="st2" d="M730.57,295.88C730.57,295.88,730.57,295.88,730.57,295.88c-4.27,0-8.55-0.65-12.33-1.21
									c-1.05-0.16-2.04-0.31-2.97-0.43c-10.85-1.46-21.5-4.06-31.65-7.72c-0.71-0.26-1.42-0.52-2.13-0.79
									c-3.74-1.41-15.1-5.71-16.02-15.82c-0.7-7.72,5.35-13.83,11.27-16.24c4.31-1.75,9.52-2.64,15.48-2.64
									c12.56,0,25.95,3.83,34.97,7.04c7.64,2.72,19.87,10.18,22.25,19.58c1.14,4.47-0.12,8.9-3.63,12.81
									C742.51,294.1,737.53,295.88,730.57,295.88z M692.19,255.68c-5.35,0-9.97,0.77-13.72,2.3c-4.52,1.84-8.85,6.38-8.39,11.5
									c0.45,4.92,4.59,8.7,13.03,11.89c0.69,0.26,1.38,0.51,2.07,0.76c9.84,3.55,20.17,6.07,30.7,7.49
									c0.95,0.13,1.97,0.28,3.05,0.44c3.62,0.54,7.72,1.16,11.64,1.16c5.57,0,9.41-1.27,11.76-3.89c2.49-2.78,3.34-5.57,2.58-8.55
									c-1.82-7.18-12.39-13.87-19.3-16.34C718.5,259.92,704.72,255.68,692.19,255.68z"/>
							</g>
						</g>
					</g>
					<g>
						<g>
							<g>
								
									<ellipse transform="matrix(0.7071 -0.7071 0.7071 0.7071 14.0902 595.094)" class="st2" cx="725.39" cy="280.54" rx="12.88" ry="12.88"/>
							</g>
						</g>
					</g>
					<g>
						<g>
							<g>
								<path class="st2" d="M660,317.45c-0.53,0-1.06-0.18-1.5-0.55c-0.98-0.83-1.11-2.3-0.28-3.28l11.77-13.99
									c0.83-0.98,2.3-1.11,3.28-0.28c0.98,0.83,1.11,2.3,0.28,3.28l-11.77,13.99C661.32,317.17,660.66,317.45,660,317.45z"/>
							</g>
						</g>
					</g>
					<g>
						<g>
							<g>
								<path class="st2" d="M685.78,323.82c-0.25,0-0.51-0.04-0.76-0.13c-1.21-0.42-1.86-1.74-1.44-2.96l4.26-12.36
									c0.42-1.22,1.74-1.86,2.96-1.44c1.21,0.42,1.86,1.74,1.44,2.96l-4.26,12.36C687.65,323.21,686.75,323.82,685.78,323.82z"/>
							</g>
						</g>
					</g>
					<g>
						<g>
							<g>
								<path class="st6" d="M871.52,283.79c-10.06,3.69-20.52,6.29-31.13,7.78c-8.34,1.17-21.95,4.35-28.51-2.87
									c-11.29-12.44,7.61-25.15,17.52-28.74c13.56-4.91,34.72-10.32,48.76-4.71c5.64,2.25,10.42,7.76,9.9,13.81
									c-0.65,7.53-8.18,11.53-14.45,13.93C872.92,283.27,872.22,283.53,871.52,283.79z"/>
							</g>
						</g>
						<g>
							<g>
								<path class="st2" d="M825.18,295.61c-6.84,0-11.76-1.75-15.03-5.35c-3.53-3.89-4.81-8.31-3.7-12.79
									c2.33-9.41,14.52-16.94,22.14-19.7c9.11-3.3,22.62-7.24,35.27-7.24c5.81,0,10.91,0.86,15.15,2.55
									c5.93,2.37,12.02,8.45,11.36,16.17c-0.87,10.12-12.21,14.48-15.93,15.91c-0.71,0.27-1.42,0.54-2.13,0.8
									c-10.13,3.72-20.76,6.38-31.61,7.9c-0.93,0.13-1.93,0.29-2.97,0.45C833.89,294.93,829.53,295.61,825.18,295.61z
									 M863.87,255.19c-12.6,0-26.51,4.36-33.68,6.96c-6.9,2.5-17.43,9.26-19.21,16.44c-0.74,2.98,0.12,5.78,2.63,8.54
									c2.34,2.57,6.12,3.82,11.58,3.82c3.98,0,8.16-0.65,11.84-1.23c1.07-0.17,2.09-0.33,3.04-0.46
									c10.52-1.48,20.83-4.06,30.65-7.66c0.69-0.25,1.38-0.51,2.06-0.78c8.42-3.24,12.54-7.04,12.97-11.96
									c0.44-5.13-3.92-9.64-8.45-11.45C873.61,255.94,869.1,255.19,863.87,255.19z"/>
							</g>
						</g>
					</g>
					<g>
						<g>
							<g>
								
									<ellipse transform="matrix(0.7602 -0.6497 0.6497 0.7602 22.5402 619.274)" class="st2" cx="850.09" cy="279.11" rx="12.88" ry="12.88"/>
							</g>
						</g>
					</g>
					<g>
						<g>
							<g>
								<path class="st2" d="M786.63,316.18c-0.56,0-1.11-0.2-1.56-0.6c-0.95-0.86-1.03-2.33-0.17-3.29
									c9.28-10.26,1.19-21.82,0.84-22.31c-0.75-1.04-0.51-2.5,0.53-3.25c1.04-0.75,2.49-0.52,3.24,0.52
									c3.74,5.16,8.3,17.69-1.16,28.16C787.9,315.92,787.27,316.18,786.63,316.18z"/>
							</g>
						</g>
					</g>
				</g>
			</g>
			<g>
				<g>
					<g>
						<path class="st2" d="M785.84,445.49c0,0-45.48-1.32-83.71-19.77c0,0,25.71,47.46,85.69,49.44L785.84,445.49z"/>
					</g>
				</g>
			</g>
			<g>
				<g>
					<g>
						<path class="st2" d="M790.93,354.13c-10.85,0-24.08-2.48-37.93-10.8c-1.1-0.66-1.46-2.09-0.8-3.19
							c0.66-1.1,2.09-1.46,3.19-0.8c31.51,18.91,60.12,5.32,60.4,5.18c1.16-0.56,2.55-0.09,3.11,1.07c0.56,1.15,0.09,2.55-1.07,3.11
							C817.1,349.07,806.44,354.13,790.93,354.13z"/>
					</g>
				</g>
			</g>
			<g>
				<g>
					<g>
						<path class="st2" d="M750.24,350.92c-0.31,0-0.62-0.06-0.93-0.19c-1.18-0.51-1.72-1.88-1.21-3.06l6.59-15.16
							c0.51-1.18,1.88-1.72,3.06-1.21c1.18,0.51,1.72,1.88,1.21,3.06l-6.59,15.16C752,350.39,751.14,350.92,750.24,350.92z"/>
					</g>
				</g>
			</g>
			<g>
				<g>
					<g>
						<path class="st2" d="M787.81,375.97c-0.45,0-0.91-0.13-1.32-0.41c-1.06-0.73-1.33-2.18-0.6-3.24l7.25-10.55
							c0.73-1.06,2.18-1.33,3.24-0.6c1.06,0.73,1.33,2.18,0.6,3.24l-7.25,10.55C789.28,375.61,788.55,375.97,787.81,375.97z"/>
					</g>
				</g>
			</g>
		</g>
		<g>
			<g>
				<g>
					<g>
						<path class="st7" d="M504.82,533.05l271.4,477.73L945.06,536.6c-12.51-2.63-24.75-5.01-36.18-7.12
							c-17.52-3.23-33.16-5.82-45.05-7.68c-10.81-1.69-18.49-2.8-21.67-3.25h-0.01c-1.05-0.15-1.6-0.23-1.6-0.23l-51.42-35.59
							l-0.77,1.73l-31.86,72.42l-113.34-82.6l-3.33-2.43l-48.44,45.48c0,0-6.6,0.7-18.02,2.41
							C557.9,522.07,533.59,526.24,504.82,533.05z"/>
					</g>
				</g>
			</g>
			<g>
				<g>
					<g>
						<path class="st2" d="M776.22,1013.11c-0.83,0-1.61-0.45-2.02-1.18L502.8,534.2c-0.36-0.64-0.4-1.41-0.11-2.08
							c0.29-0.67,0.88-1.17,1.6-1.34c28.79-6.82,53.27-11.01,68.74-13.33c9.13-1.37,15.26-2.1,17.34-2.34l47.88-44.95
							c0.82-0.77,2.06-0.84,2.97-0.18l3.33,2.43l111.01,80.89l31.47-71.52c0.28-0.63,0.83-1.11,1.5-1.3
							c0.67-0.19,1.38-0.07,1.95,0.33l50.96,35.28l0.99,0.14c0.02,0,0.05,0.01,0.07,0.01c2.1,0.29,9.89,1.4,21.71,3.25
							c10.25,1.61,26.39,4.25,45.11,7.69c12.72,2.35,24.91,4.75,36.24,7.13c0.66,0.14,1.22,0.55,1.55,1.14
							c0.33,0.59,0.39,1.29,0.16,1.92l-168.84,474.18c-0.31,0.86-1.08,1.46-1.99,1.54C776.35,1013.1,776.28,1013.11,776.22,1013.11z
							 M508.38,534.6l267.35,470.61l166.24-466.88c-10.54-2.19-21.8-4.4-33.51-6.56c-18.67-3.44-34.77-6.07-44.99-7.67
							c-11.67-1.83-19.38-2.93-21.57-3.23c-0.03,0-0.06-0.01-0.08-0.01l-1.59-0.22c-0.36-0.05-0.71-0.18-1.01-0.39l-49.1-33.99
							l-31.49,71.58c-0.28,0.64-0.84,1.13-1.52,1.31c-0.68,0.18-1.41,0.05-1.98-0.37l-115.12-83.89l-47.04,44.16
							c-0.37,0.35-0.84,0.56-1.35,0.62c-0.07,0.01-6.69,0.72-17.92,2.4C558.87,524.28,535.7,528.24,508.38,534.6z"/>
					</g>
				</g>
			</g>
		</g>
		<g>
			<g>
				<g>
					<path class="st6" d="M573.37,519.75l197.42,316.44l93.04-314.39c-14.41-2.26-23.29-3.47-23.29-3.47l-51.41-35.59l-32.63,74.16
						l-116.67-85.03l-48.45,45.48C591.38,517.34,584.79,518.04,573.37,519.75z"/>
				</g>
			</g>
			<g>
				<g>
					<path class="st2" d="M770.79,838.52c-0.8,0-1.55-0.41-1.97-1.1L571.39,520.98c-0.42-0.67-0.47-1.49-0.14-2.21
						c0.33-0.71,0.99-1.21,1.77-1.33c9.13-1.37,15.25-2.1,17.33-2.34l47.88-44.95c0.82-0.77,2.06-0.84,2.96-0.18l114.34,83.33
						L787,481.79c0.28-0.64,0.83-1.11,1.5-1.3c0.67-0.19,1.39-0.07,1.96,0.33l50.96,35.28c2.16,0.3,10.52,1.47,22.78,3.4
						c0.66,0.1,1.25,0.49,1.61,1.06c0.36,0.57,0.45,1.26,0.26,1.9l-93.04,314.39c-0.26,0.88-1.01,1.52-1.92,1.65
						C771,838.51,770.89,838.52,770.79,838.52z M577.22,521.53l192.8,309.03l90.82-306.88c-12.68-1.97-20.53-3.04-20.61-3.05
						c-0.36-0.05-0.71-0.18-1.01-0.39l-49.1-33.99l-31.49,71.57c-0.28,0.64-0.84,1.13-1.52,1.31c-0.68,0.18-1.41,0.05-1.98-0.37
						l-115.11-83.9l-47.04,44.16c-0.37,0.35-0.84,0.56-1.35,0.62C591.57,519.66,586.31,520.22,577.22,521.53z"/>
				</g>
			</g>
		</g>
		<g>
			<g>
				<g>
					<path class="st2" d="M712.01,631.39c-0.58,0-1.15-0.22-1.58-0.62L589.8,519.04c-0.94-0.87-1-2.35-0.13-3.29
						c0.87-0.94,2.35-1,3.29-0.13l118.55,109.8l43.01-69.77c0.39-0.63,1.05-1.04,1.79-1.1c0.74-0.06,1.46,0.23,1.95,0.79
						l49.69,57.19l30.38-94.94c0.39-1.22,1.7-1.9,2.93-1.51c1.22,0.39,1.9,1.7,1.51,2.93l-31.64,98.87c-0.26,0.8-0.92,1.4-1.75,1.57
						c-0.83,0.17-1.67-0.12-2.23-0.75l-50.33-57.92l-42.83,69.48c-0.37,0.59-0.98,0.99-1.67,1.08
						C712.22,631.39,712.11,631.39,712.01,631.39z"/>
				</g>
			</g>
		</g>
		<g>
			<g>
				<g>
					<path class="st2" d="M399.56,1067.43c-1.24,0-2.27-0.98-2.32-2.23c-5.08-126.08-47.6-221.06-82.37-278.54
						c-37.69-62.31-74.67-95.21-75.04-95.53c-0.96-0.85-1.06-2.32-0.21-3.28c0.85-0.96,2.32-1.06,3.28-0.21
						c0.37,0.33,37.79,33.59,75.85,96.45c22.34,36.89,40.55,76.64,54.14,118.14c16.98,51.87,26.74,106.64,29,162.79
						c0.05,1.28-0.95,2.37-2.23,2.42C399.63,1067.43,399.6,1067.43,399.56,1067.43z"/>
				</g>
			</g>
		</g>
		<g>
			<g>
				<g>
					<path class="st2" d="M154.36,1087.21c-0.92,0-1.79-0.55-2.16-1.45c-0.48-1.19,0.09-2.55,1.28-3.03
						c0.29-0.12,29.87-12.04,70.19-18.92c35.61-6.08,86.85-9.32,132.76,8.38c-8.65-10.85-38.61-35.54-137.16-50.25
						c-1.27-0.19-2.15-1.37-1.96-2.65c0.19-1.27,1.37-2.15,2.65-1.96c132.49,19.77,143.87,57.46,144.29,59.06
						c0.23,0.86-0.06,1.78-0.74,2.36c-0.68,0.58-1.63,0.72-2.44,0.37c-89.04-38.71-204.68,7.46-205.83,7.93
						C154.95,1087.15,154.65,1087.21,154.36,1087.21z"/>
				</g>
			</g>
		</g>
		<g>
			<g>
				<g>
					<path class="st6" d="M350.13,1094.77c-31.64-15.82-92.94-15.82-152.27,21.75c-59.32,37.57-98.87,174.02-27.68,245.21
						c71.19,71.19,187.86,45.48,231.37-9.89C445.05,1296.47,350.13,1094.77,350.13,1094.77z"/>
				</g>
			</g>
			<g>
				<g>
					<path class="st8" d="M278.37,1407.49C278.37,1407.49,278.38,1407.49,278.37,1407.49c-29.99,0-73.38-7.65-109.84-44.11
						c-29.84-29.84-43.2-73.89-37.64-124.06c5.93-53.48,32.34-103.62,65.73-124.76c32.7-20.71,69.74-32.11,104.31-32.11
						c19.19,0,37.03,3.64,50.25,10.25c0.47,0.23,0.84,0.62,1.06,1.09c0.24,0.51,24,51.22,42.13,108.06
						c24.52,76.89,27.55,127.84,9.01,151.45C377.5,1386.21,328.43,1407.49,278.37,1407.49z M300.92,1087.09
						c-33.69,0-69.85,11.15-101.82,31.39c-31.75,20.11-57.9,70.01-63.59,121.34c-5.4,48.73,7.49,91.44,36.31,120.25
						c35.33,35.33,77.45,42.75,106.55,42.75c48.69,0,96.31-20.58,121.34-52.43c40.83-51.97-45.16-240.53-51.35-253.91
						C335.85,1090.43,319.05,1087.09,300.92,1087.09z"/>
				</g>
			</g>
		</g>
		<g>
			<g>
				<g>
					<g>
						<g>
							<path class="st3" d="M1217.79,875.71c-5.17-9.74-41.74-109.81-41.74-109.81c7.16-48.18-54.13-154.31-73.52-175.82
								c-18.08-20.05-97.28,15.42-147.62,41.02c-13.33-31.76-29.49-68.99-41.87-93.4l-24.6-48.53c-6.82-13.45-23.23-18.82-36.67-12
								c-13.56,6.78-18.82,23.23-12,36.67l24.6,48.53c8.46,16.7,19.06,40.35,29.2,63.94c10.48,24.35,15.28,50.71,14.56,77.21
								c-0.04,1.61-0.08,3.24-0.1,4.89c-25.32-18.73-49.56-34.76-63.78-39.37c-14.34-4.63-29.72,3.22-34.37,17.56
								c-4.64,14.34,3.22,29.72,17.56,34.37c12.35,3.99,53.41,34.3,94.99,67.84c19.38,38.35,54.05,59.44,76.69,69.69
								c0.7,1.25,25.5,58.7,26.19,59.96C1095.01,900.95,1158.98,918.08,1217.79,875.71z"/>
						</g>
					</g>
				</g>
				<g>
					<g>
						<g>
							<path class="st2" d="M1025.31,920.77c-0.83,0-1.61-0.44-2.03-1.19c-0.35-0.62-3.59-8.07-13.17-30.12
								c-5.31-12.24-11.27-25.95-12.74-29.21c-24.69-11.3-57.71-32.53-76.8-69.95c-46.28-37.31-83.1-63.65-93.86-67.13
								c-15.53-5.04-24.08-21.78-19.05-37.3c3.98-12.26,15.3-20.5,28.18-20.5c3.09,0,6.16,0.49,9.12,1.44
								c12.19,3.95,32.64,16.41,60.83,37.05c0-0.14,0.01-0.28,0.01-0.42c0.72-26.73-4.11-52.38-14.37-76.22
								c-11.93-27.73-21.74-49.2-29.14-63.81l-24.6-48.53c-3.61-7.12-4.22-15.19-1.73-22.74c2.47-7.48,7.71-13.54,14.77-17.07
								c4.19-2.12,8.68-3.2,13.36-3.2c11.23,0,21.36,6.22,26.43,16.23l24.6,48.53c10.15,20.02,23.93,50.71,40.97,91.25
								c42.06-21.27,97.62-46.03,128.35-46.03c9.17,0,15.84,2.24,19.83,6.66c20.77,23.03,80.73,128.85,74.18,177.13
								c2.93,8,36.56,99.85,41.41,108.97c0.55,1.03,0.25,2.3-0.7,2.98c-37.96,27.34-77.75,30.23-119.88,33.29
								c-23.72,1.72-48.25,3.5-73.39,9.82C1025.69,920.75,1025.5,920.77,1025.31,920.77z M835.84,670.02
								c-10.85,0-20.4,6.94-23.76,17.28c-4.24,13.09,2.97,27.19,16.06,31.44c13.7,4.43,58.43,38.16,95.73,68.25
								c0.26,0.21,0.47,0.47,0.62,0.76c18.64,36.89,51.39,57.68,75.58,68.62c0.45,0.21,0.83,0.55,1.07,0.98
								c0.35,0.62,3.61,8.1,13.23,30.26c4.87,11.21,10.28,23.67,12.25,28.12c24.88-6.04,48.98-7.79,72.31-9.48
								c40.86-2.97,79.49-5.77,115.91-31.3c-7.43-16.48-39.55-104.35-40.98-108.25c-0.13-0.36-0.17-0.76-0.12-1.14
								c2.99-20.14-6.46-54.43-26.6-96.56c-16.54-34.59-36.55-66.49-46.35-77.35c-3.07-3.4-8.57-5.12-16.37-5.12
								c-30.35,0-86.61,25.37-128.47,46.66c-0.58,0.29-1.25,0.33-1.86,0.11c-0.61-0.22-1.09-0.69-1.34-1.28
								c-17.44-41.58-31.51-72.95-41.8-93.25l-24.6-48.53c-4.28-8.44-12.82-13.68-22.28-13.68c-3.94,0-7.73,0.91-11.26,2.7
								c-5.95,2.98-10.37,8.08-12.44,14.37c-2.1,6.36-1.58,13.17,1.47,19.17l24.6,48.53c7.45,14.7,17.3,36.25,29.27,64.07
								c10.53,24.47,15.49,50.78,14.75,78.19c-0.04,1.6-0.08,3.22-0.1,4.86c-0.01,0.87-0.51,1.67-1.29,2.05
								c-0.78,0.39-1.71,0.31-2.42-0.21c-29.66-21.94-50.89-35.07-63.11-39.03C841.03,670.43,838.44,670.02,835.84,670.02z"/>
						</g>
					</g>
				</g>
			</g>
			<g>
				<g>
					<g>
						<path class="st2" d="M1084.31,756.88c-0.76,0-1.51-0.37-1.95-1.06c-23.46-35.99-53.55-56.17-87.01-58.34
							c-25.23-1.64-43.63,7.46-43.81,7.55c-1.15,0.58-2.55,0.12-3.12-1.03c-0.58-1.15-0.12-2.55,1.03-3.13
							c0.79-0.4,19.73-9.76,46.21-8.04c24.4,1.59,59.92,13.36,90.61,60.45c0.7,1.08,0.4,2.52-0.68,3.22
							C1085.18,756.76,1084.74,756.88,1084.31,756.88z"/>
					</g>
				</g>
			</g>
			<g>
				<g>
					<g>
						<g>
							<g>
								<path class="st3" d="M966.08,577.79c11.07-4.17,22.76-2.14,30.8,4.07c2.12-9.19,9.2-17.51,19.64-21.44
									c11.77-4.43,24.38-2.06,32.41,5.12c1.15,1.03,2.13,2.21,3.07,3.43c1.39-8.86,7.93-17.08,17.89-20.83
									c10.55-3.97,21.86-1.84,29.05,4.59c2.52,2.26,4.55,5.04,5.85,8.29l28.15,69.98c5.02,12.49-2.47,26.95-16.72,32.32
									c-10.02,3.77-20.63,1.96-27.85-3.73c1.12,12.05-6.79,24.27-20.17,29.31c-11.06,4.16-22.77,2.22-30.82-3.98
									c-2.14,9.15-9.21,17.44-19.62,21.35c-12.05,4.54-24.64,1.61-32.63-5.98c-18.44-30.92-27.09-56.6-44.13-100.93
									C944.46,593.46,958.72,580.55,966.08,577.79z"/>
							</g>
						</g>
					</g>
					<g>
						<g>
							<g>
								<path class="st2" d="M1006.07,710.75c-8.46,0-16.67-3.2-22.54-8.78c-0.15-0.15-0.29-0.31-0.39-0.49
									c-15.91-26.68-24.48-49.23-37.47-83.37c-2.14-5.64-4.41-11.59-6.84-17.92c-0.25-0.66-0.19-1.4,0.16-2.01
									c3.76-6.42,18.5-19.65,26.26-22.56c4.12-1.55,8.4-2.34,12.72-2.34c6.3,0,12.42,1.7,17.56,4.84
									c3.15-8.94,10.48-16.24,20.15-19.88c4.21-1.58,8.58-2.39,13-2.39c8.31,0,16.04,2.82,21.78,7.95
									c0.11,0.1,0.23,0.21,0.34,0.31c2.79-8.11,9.46-14.85,18.25-18.15c3.8-1.43,7.75-2.15,11.74-2.15
									c7.51,0,14.5,2.55,19.69,7.19c2.87,2.57,5.05,5.65,6.46,9.15l28.16,69.99c2.45,6.11,2.28,12.92-0.48,19.2
									c-3.2,7.27-9.61,13.16-17.58,16.16c-3.76,1.41-7.66,2.13-11.6,2.13c-5.25,0-10.33-1.29-14.71-3.7
									c-0.89,11.71-9.29,22.47-21.7,27.15c-4.16,1.57-8.48,2.36-12.84,2.36c-6.28,0-12.37-1.68-17.47-4.79
									c-3.17,8.91-10.49,16.17-20.13,19.8C1014.53,709.97,1010.32,710.75,1006.07,710.75z M986.98,698.81
									c4.99,4.63,11.93,7.28,19.1,7.28c3.68,0,7.34-0.67,10.88-2.01c9.31-3.5,16.11-10.87,18.17-19.7
									c0.18-0.77,0.74-1.4,1.49-1.66c0.74-0.27,1.57-0.13,2.2,0.35c4.77,3.68,10.95,5.7,17.38,5.7c3.8,0,7.57-0.69,11.2-2.06
									c12.05-4.53,19.72-15.6,18.67-26.91c-0.09-0.93,0.39-1.82,1.21-2.26c0.82-0.44,1.82-0.36,2.55,0.22
									c4.26,3.36,9.81,5.21,15.63,5.21c3.38,0,6.73-0.62,9.97-1.83c6.81-2.56,12.26-7.55,14.96-13.68
									c2.25-5.12,2.4-10.66,0.42-15.59l-28.15-69.98c-1.14-2.83-2.91-5.33-5.24-7.42c-4.33-3.87-10.22-6.01-16.58-6.01
									c-3.43,0-6.83,0.62-10.1,1.86c-8.8,3.31-15.09,10.6-16.41,19.01c-0.14,0.92-0.82,1.66-1.72,1.89
									c-0.9,0.23-1.85-0.09-2.42-0.83c-0.83-1.07-1.74-2.18-2.78-3.12c-4.88-4.36-11.51-6.77-18.68-6.77
									c-3.86,0-7.68,0.7-11.36,2.09c-9.35,3.52-16.15,10.91-18.19,19.79c-0.18,0.77-0.74,1.4-1.48,1.67
									c-0.75,0.27-1.58,0.14-2.21-0.35c-4.82-3.72-11.03-5.77-17.48-5.77c-3.76,0-7.49,0.69-11.08,2.04
									c-6.36,2.39-19.18,13.68-23.29,19.65c2.28,5.93,4.4,11.52,6.43,16.84C962.88,650.24,971.38,672.6,986.98,698.81z"/>
							</g>
						</g>
					</g>
				</g>
				<g>
					<g>
						<g>
							<path class="st2" d="M1037.39,687.24c-0.92,0-1.79-0.55-2.16-1.45l-30.78-75.59c-0.48-1.19,0.09-2.55,1.28-3.03
								c1.19-0.48,2.55,0.09,3.03,1.28l30.78,75.59c0.48,1.19-0.09,2.55-1.28,3.03C1037.98,687.19,1037.68,687.24,1037.39,687.24z"
								/>
						</g>
					</g>
				</g>
				<g>
					<g>
						<g>
							<path class="st2" d="M1088.38,661.91c-0.9,0-1.76-0.52-2.14-1.4l-29.38-67.66c-0.51-1.18,0.03-2.55,1.21-3.06
								c1.18-0.51,2.55,0.03,3.06,1.21l29.38,67.66c0.51,1.18-0.03,2.55-1.21,3.06C1089,661.85,1088.69,661.91,1088.38,661.91z"/>
						</g>
					</g>
				</g>
			</g>
		</g>
		<g>
			<g>
				<g>
					<g>
						<g>
							<path class="st7" d="M829.08,1431.56l0.3,0.25l-0.3,0.37v85.74c0,7.16-3.16,13.98-8.65,18.62l-1.37,1.16l-3.86,3.27
								l-2.34-1.98c-21.15,4.31-42.25,7.77-63.24,10.38c-7.62,0.96-15.23,1.79-22.82,2.52l12.9-10.91l37.76-31.94l2.84-2.41v-52.43
								l-2.85-2.41l-37.76-31.94l-5.23-4.43c-5.47-4.62-8.62-11.44-8.62-18.6v-86.59h0.19l-0.5-0.61l14.17-11.99l37.76-31.94
								l2.84-2.41v-52.96l-2.85-2.41l-37.76-31.94l-5.23-4.43c-5.47-4.63-8.62-11.45-8.62-18.62v-86.59h0.19l-0.5-0.61l14.16-11.98
								l37.77-31.96l2.84-2.41v-75.27h48.78v86.59c0,7.16-3.16,13.98-8.65,18.62l-5.22,4.42l-37.77,31.96l-2.84,2.41v53.51
								l2.85,2.41l37.75,31.93l8.53,7.21l5.65,4.78l-0.3,0.37v86.29c0,7.16-3.16,13.98-8.65,18.6l-5.23,4.43l-37.76,31.94
								l-2.84,2.41v53.51l2.85,2.41l37.75,31.94l13.61,11.51h0.26V1431.56z"/>
						</g>
					</g>
				</g>
				<g>
					<g>
						<g>
							<path class="st2" d="M726.8,1554.2c-0.93,0-1.78-0.55-2.14-1.42c-0.4-0.94-0.14-2.02,0.64-2.68l52.67-44.57v-50.28
								l-45.02-38.09c-6-5.07-9.44-12.5-9.44-20.38v-86.03c-0.55-0.96-0.36-2.2,0.51-2.94l53.95-45.64v-50.8l-45.02-38.09
								c-6-5.09-9.44-12.52-9.44-20.39v-86.03c-0.55-0.96-0.36-2.2,0.51-2.94l53.95-45.65v-74.19c0-1.29,1.04-2.33,2.33-2.33h48.78
								c1.29,0,2.33,1.04,2.33,2.33v86.59c0,7.87-3.45,15.31-9.47,20.39l-45.01,38.09v51.35l53.95,45.64
								c0.86,0.73,1.06,1.96,0.53,2.92v85.52c0,7.88-3.45,15.31-9.47,20.38l-45,38.08v51.35l52.88,44.74
								c0.61,0.2,1.11,0.65,1.38,1.23c0.6,0.74,0.69,1.77,0.22,2.6v84.97c0,7.87-3.45,15.31-9.47,20.39l-5.23,4.43
								c-0.87,0.74-2.14,0.74-3.01,0l-1.48-1.25c-20.76,4.2-41.72,7.63-62.31,10.18c-7.47,0.94-15.17,1.79-22.88,2.53
								C726.95,1554.2,726.88,1554.2,726.8,1554.2z M728.16,1311.12v85.66c0,6.51,2.84,12.64,7.8,16.83l45.84,38.79
								c0.52,0.44,0.82,1.09,0.82,1.78v52.43c0,0.68-0.3,1.33-0.82,1.77l-2.84,2.41l-44.94,38.02c5.16-0.54,10.29-1.13,15.31-1.76
								c20.84-2.58,42.06-6.07,63.07-10.35c0.7-0.14,1.42,0.04,1.97,0.5l0.84,0.71l3.73-3.16c4.97-4.2,7.82-10.34,7.82-16.84v-85.29
								l-53.65-45.39c-0.52-0.44-0.82-1.09-0.82-1.78v-53.51c0-0.68,0.3-1.33,0.82-1.77l2.84-2.41l42.99-36.38
								c4.97-4.19,7.82-10.33,7.82-16.83v-85.83l-53.65-45.38c-0.52-0.44-0.82-1.09-0.82-1.78v-53.51c0-0.68,0.3-1.33,0.82-1.77
								l2.84-2.41l42.99-36.38c4.97-4.2,7.82-10.34,7.82-16.84V946.4h-44.13v72.94c0,0.68-0.3,1.33-0.82,1.77l-2.84,2.41
								l-50.61,42.81c-0.01,0.3-0.07,0.59-0.19,0.88v85.66c0,6.5,2.84,12.64,7.8,16.84l45.84,38.78c0.52,0.44,0.82,1.09,0.82,1.78
								v52.96c0,0.68-0.3,1.33-0.82,1.77l-2.84,2.41l-50.61,42.81C728.35,1310.54,728.28,1310.84,728.16,1311.12z"/>
						</g>
					</g>
				</g>
			</g>
			<g>
				<g>
					<g>
						<path class="st6" d="M749.62,1549.36c20.99-2.6,42.09-6.07,63.24-10.38l2.34,1.98L749.62,1549.36z"/>
					</g>
				</g>
				<g>
					<g>
						<path class="st2" d="M749.62,1551.68c-1.16,0-2.16-0.86-2.31-2.04c-0.16-1.28,0.75-2.44,2.02-2.6
							c20.84-2.58,42.06-6.07,63.06-10.35c0.7-0.14,1.42,0.04,1.97,0.5l2.34,1.98c0.98,0.83,1.1,2.3,0.27,3.28
							c-0.83,0.98-2.3,1.1-3.28,0.27l-1.48-1.25c-20.76,4.2-41.72,7.63-62.31,10.18C749.81,1551.68,749.72,1551.68,749.62,1551.68z"
							/>
					</g>
				</g>
			</g>
			<g>
				<g>
					<g>
						<g>
							<path class="st7" d="M829.38,1309.59l-0.51,0.61h0.21v86.59c0,7.16-3.16,13.98-8.65,18.6l-5.23,4.43l-37.76,31.94l-2.84,2.41
								v52.43l2.85,2.41l35.41,29.96c-21.15,4.31-42.25,7.77-63.24,10.38l-9.92-8.39l-5.24-4.43c-5.47-4.63-8.62-11.45-8.62-18.62
								v-85.74l-0.31-0.37l0.31-0.25v-0.23h0.25l13.6-11.51l37.77-31.94l2.84-2.41v-53.51l-2.85-2.41l-37.75-31.94l-5.24-4.43
								c-5.47-4.62-8.62-11.44-8.62-18.6v-86.29l-0.31-0.37l14.16-11.98l37.77-31.94l2.84-2.41v-53.51l-2.85-2.41l-37.76-31.94
								l-5.23-4.43c-5.47-4.63-8.62-11.45-8.62-18.62v-86.59h48.77v75.27l2.85,2.41l37.76,31.94l14.16,11.99l-0.51,0.61h0.21v86.59
								c0,7.16-3.16,13.98-8.65,18.62l-5.23,4.42l-37.76,31.96l-2.84,2.41v52.96l2.85,2.41l37.75,31.94L829.38,1309.59z"/>
						</g>
					</g>
				</g>
				<g>
					<g>
						<g>
							<path class="st2" d="M749.62,1551.68c-0.55,0-1.08-0.19-1.5-0.55l-15.17-12.82c-6-5.09-9.45-12.52-9.45-20.39v-84.95
								c-0.24-0.42-0.35-0.9-0.3-1.39c0.05-0.47,0.23-0.91,0.53-1.27c0.27-0.55,0.76-0.98,1.35-1.18l52.88-44.74v-51.35
								l-45.02-38.09c-6-5.07-9.45-12.5-9.45-20.38v-85.5c-0.55-0.96-0.36-2.2,0.51-2.94l53.95-45.63v-51.35l-45.02-38.09
								c-6-5.09-9.44-12.52-9.44-20.39v-86.59c0-1.29,1.04-2.33,2.33-2.33h48.77c1.29,0,2.33,1.04,2.33,2.33v74.19l53.95,45.65
								c0.87,0.73,1.06,1.96,0.52,2.92v86.06c0,7.87-3.45,15.31-9.47,20.39l-45.01,38.09v50.8l53.95,45.65
								c0.87,0.73,1.06,1.96,0.53,2.92v86.06c0,7.88-3.45,15.31-9.47,20.38l-45,38.08v50.28l37.44,31.68
								c0.68,0.58,0.97,1.49,0.75,2.35c-0.22,0.86-0.92,1.53-1.79,1.7c-21.12,4.31-42.46,7.81-63.42,10.41
								C749.81,1551.68,749.72,1551.68,749.62,1551.68z M728.16,1432.62v85.3c0,6.5,2.84,12.64,7.8,16.84l14.39,12.17
								c18.96-2.38,38.22-5.49,57.34-9.27l-34.58-29.26c-0.52-0.44-0.82-1.09-0.82-1.78v-52.43c0-0.68,0.3-1.33,0.82-1.77l2.84-2.41
								l42.99-36.38c4.97-4.19,7.82-10.33,7.82-16.83v-85.61c-0.14-0.3-0.21-0.62-0.21-0.94l-53.44-45.21
								c-0.52-0.44-0.82-1.09-0.82-1.78v-52.96c0-0.68,0.3-1.33,0.82-1.77l2.84-2.41l42.99-36.38c4.97-4.2,7.82-10.34,7.82-16.84
								v-85.61c-0.14-0.3-0.21-0.62-0.21-0.94l-53.44-45.21c-0.52-0.44-0.82-1.09-0.82-1.78V946.4h-44.11v84.26
								c0,6.5,2.84,12.64,7.8,16.84l45.84,38.78c0.52,0.44,0.82,1.09,0.82,1.78v53.51c0,0.68-0.3,1.33-0.82,1.77l-2.84,2.41
								l-50.8,42.96v85.84c0,6.51,2.84,12.64,7.8,16.83l45.84,38.79c0.52,0.44,0.82,1.09,0.82,1.78v53.51c0,0.68-0.3,1.33-0.82,1.77
								l-2.84,2.41L728.16,1432.62z"/>
						</g>
					</g>
				</g>
			</g>
		</g>
		<g>
			<g>
				<g>
					<g>
						<g>
							<g>
								<g>
									<path class="st9" d="M832.54,1214.22c3.31,2,7.21,3.15,11.42,3.15h342.29c10.57,0,19.67-7.45,21.76-17.81l105.72-523.14
										c0.59-2.96,0.58-5.86,0.04-8.61c-1.95-10.07-10.79-17.99-21.8-17.99H949.68c-10.57,0-19.67,7.45-21.76,17.81L822.2,1190.77
										C820.25,1200.38,824.82,1209.57,832.54,1214.22z"/>
								</g>
							</g>
						</g>
						<g>
							<g>
								<g>
									<path class="st2" d="M1186.24,1219.7H843.96c-4.47,0-8.84-1.21-12.62-3.49c-8.89-5.35-13.48-15.76-11.42-25.9
										l105.72-523.14c2.31-11.4,12.42-19.67,24.04-19.67h342.28c11.73,0,21.86,8.36,24.09,19.87c0.61,3.1,0.6,6.31-0.04,9.51
										l-105.72,523.14C1207.98,1211.42,1197.87,1219.7,1186.24,1219.7z M949.68,652.16c-9.42,0-17.61,6.7-19.48,15.94
										l-105.72,523.14c-1.67,8.22,2.06,16.65,9.26,20.99c3.06,1.85,6.59,2.82,10.22,2.82h342.29c9.42,0,17.61-6.7,19.48-15.94
										l105.72-523.14c0.52-2.6,0.53-5.19,0.04-7.7c-1.81-9.34-10.02-16.11-19.52-16.11H949.68z"/>
								</g>
							</g>
						</g>
					</g>
					<g>
						<g>
							<g>
								<g>
									<path class="st10" d="M832.54,1214.22c3.31,2,7.21,3.15,11.42,3.15h342.29c10.57,0,19.67-7.45,21.76-17.81l105.72-523.14
										c0.59-2.96,0.58-5.86,0.04-8.61c-3.31-2-7.21-3.15-11.42-3.15H960.06c-10.57,0-19.67,7.45-21.76,17.81l-105.72,523.13
										C831.99,1208.55,831.99,1211.47,832.54,1214.22z"/>
								</g>
							</g>
						</g>
						<g>
							<g>
								<g>
									<path class="st2" d="M1186.24,1219.7H843.96c-4.47,0-8.84-1.21-12.62-3.49c-0.56-0.34-0.95-0.9-1.08-1.54
										c-0.62-3.12-0.6-6.32,0.04-9.53l105.72-523.13c2.31-11.4,12.42-19.67,24.04-19.67h342.29c4.47,0,8.84,1.21,12.62,3.49
										c0.56,0.34,0.95,0.9,1.08,1.54c0.62,3.11,0.6,6.32-0.04,9.52l-105.72,523.14
										C1207.98,1211.42,1197.87,1219.7,1186.24,1219.7z M834.65,1212.74c2.84,1.51,6.04,2.31,9.31,2.31h342.29
										c9.42,0,17.61-6.7,19.48-15.94l105.72-523.14c0.45-2.24,0.52-4.48,0.21-6.67c-2.84-1.51-6.04-2.31-9.31-2.31H960.06
										c-9.42,0-17.61,6.7-19.48,15.94l-105.72,523.13C834.41,1208.3,834.34,1210.55,834.65,1212.74z"/>
								</g>
							</g>
						</g>
					</g>
				</g>
				<g>
					<g>
						<g>
							<path class="st2" d="M1236.87,685.42h43.33c7.45,0,13,6.89,11.41,14.17l-10.05,45.86c-1.17,5.36-5.92,9.18-11.41,9.18h-43.33
								c-7.45,0-13-6.89-11.41-14.17l10.05-45.86C1226.64,689.24,1231.39,685.42,1236.87,685.42z"/>
						</g>
					</g>
				</g>
			</g>
			<g>
				<g>
					<g>
						<g>
							<path class="st3" d="M324.42,1092.79l375.72-152.27c0,0,55.37-59.32,94.92-67.23c39.55-7.91,87.67,4.61,87.67,4.61
								l-10.55,68.55c0,0,22.74,10.88,31.64,11.86c8.9,0.99,125.57-16.81,144.36-2.97c18.79,13.84,7.91,32.63,7.91,32.63
								s18.79-1.98,26.7,16.81c7.91,18.79-25.71,28.67-25.71,28.67s20.76,8.9,9.89,21.75c-10.88,12.85-30.16,13.84-30.16,13.84
								s6.43,9.89-11.37,21.75c-17.8,11.86-84.1,21.23-131.56,21.23s-83.54-10.38-117.16-10.38
								c-33.62,0-385.59,258.05-385.59,258.05s-167.58,45.97-197.25-51.91C164.22,1209.92,196.91,1152.14,324.42,1092.79z"/>
						</g>
					</g>
				</g>
				<g>
					<g>
						<g>
							<path class="st2" d="M307.89,1372.82c-63.29,0-103.48-22.25-116.24-64.35c-15.49-51.11-13.41-90.46,6.56-123.83
								c20.19-33.75,59.98-63.61,125.22-93.97c0.04-0.02,0.07-0.03,0.11-0.05L698.8,938.56c5.23-5.55,57.2-59.83,95.81-67.55
								c8.84-1.77,18.81-2.66,29.63-2.66c30.65,0,58.8,7.24,59.08,7.31c1.16,0.3,1.9,1.43,1.71,2.61l-10.28,66.83
								c5.24,2.43,22.23,10.13,29.33,10.92c0.18,0.02,0.42,0.03,0.71,0.03c3.26,0,12.3-0.95,23.75-2.16
								c23.24-2.45,58.36-6.14,84.96-6.14c19.01,0,30.81,1.88,36.05,5.75c15.24,11.23,12.44,25.66,10.07,32.19
								c6.07,0.44,18.97,3.2,25.3,18.22c1.91,4.53,1.85,8.99-0.16,13.23c-4.08,8.59-15.38,14.16-22.02,16.8
								c3.63,2.34,8.19,6.19,9.39,11.26c0.92,3.9-0.22,7.78-3.4,11.53c-8.84,10.45-22.61,13.48-28.73,14.34
								c0.94,4.39,0.24,12.68-13.28,21.69c-18.56,12.37-85.45,21.62-132.85,21.62c-25.93,0-48.81-3.12-68.99-5.88
								c-16.95-2.31-32.97-4.5-48.17-4.5c-25.99,0-262.69,168.5-384.22,257.6c-0.23,0.17-0.49,0.29-0.76,0.37
								C391.35,1362.06,351.62,1372.82,307.89,1372.82z M325.35,1094.92c-64.33,29.95-103.46,59.22-123.14,92.12
								c-19.24,32.16-21.18,70.32-6.1,120.09c15.29,50.45,69.23,61.04,111.78,61.04c40.72,0,77.93-9.47,82.21-10.6
								c6.2-4.54,91.65-67.06,179.88-128.8c122.75-85.89,192.31-129.45,206.74-129.45c15.52,0,31.69,2.21,48.8,4.54
								c20.04,2.74,42.75,5.84,68.36,5.84c45.79,0,112.67-9.1,130.27-20.84c15.46-10.31,10.89-18.24,10.69-18.58
								c-0.42-0.7-0.46-1.59-0.08-2.31c0.38-0.72,1.11-1.21,1.93-1.25c0.18-0.01,18.42-1.11,28.5-13.02c2.2-2.6,2.99-5.04,2.42-7.45
								c-1.23-5.22-8.68-9.47-11.45-10.66c-0.9-0.39-1.46-1.3-1.4-2.28c0.06-0.98,0.72-1.82,1.66-2.09
								c0.19-0.06,19.25-5.78,24.15-16.11c1.44-3.04,1.46-6.12,0.07-9.43c-5.87-13.94-18.04-15.44-23-15.44
								c-0.78,0-1.26,0.04-1.31,0.05c-0.87,0.09-1.72-0.32-2.19-1.05c-0.47-0.73-0.5-1.67-0.06-2.43
								c0.39-0.69,9.55-17.19-7.28-29.59c-3-2.21-11.2-4.84-33.29-4.84c-26.35,0-61.33,3.68-84.48,6.12
								c-12.04,1.27-20.74,2.18-24.24,2.18c-0.51,0-0.92-0.02-1.22-0.05c-9.19-1.02-31.44-11.63-32.39-12.08
								c-0.93-0.44-1.45-1.44-1.3-2.45l10.22-66.44c-6.93-1.62-30.54-6.66-55.87-6.66c-10.51,0-20.17,0.87-28.72,2.57
								c-38.36,7.67-93.13,65.95-93.67,66.54c-0.23,0.25-0.51,0.44-0.83,0.57L325.35,1094.92z"/>
						</g>
					</g>
				</g>
			</g>
			<g>
				<g>
					<g>
						<path class="st11" d="M1056.09,987.98c0,0-66.25,12.85-88.99,16.81c-22.74,3.96-34.61,3.96-34.61,3.96L1056.09,987.98z"/>
					</g>
				</g>
				<g>
					<g>
						<path class="st12" d="M932.5,1011.07c-1.28,0-2.33-1.04-2.33-2.33c0-1.28,1.04-2.33,2.33-2.33c0.12,0,11.98-0.06,34.21-3.92
							c22.46-3.91,88.28-16.67,88.94-16.8c1.27-0.24,2.48,0.58,2.73,1.84c0.24,1.26-0.58,2.48-1.84,2.73
							c-0.66,0.13-66.53,12.9-89.03,16.82C944.83,1011.03,932.99,1011.07,932.5,1011.07z"/>
					</g>
				</g>
			</g>
			<g>
				<g>
					<g>
						<path class="st11" d="M1057.08,1033.46c0,0-81.08,18.79-114.69,14.83L1057.08,1033.46z"/>
					</g>
				</g>
				<g>
					<g>
						<path class="st12" d="M953.25,1051.17c-4.07,0-7.82-0.18-11.13-0.57c-1.28-0.15-2.19-1.31-2.04-2.58
							c0.15-1.28,1.3-2.19,2.58-2.04c32.84,3.87,113.09-14.6,113.9-14.79c1.25-0.29,2.5,0.49,2.79,1.74
							c0.29,1.25-0.49,2.5-1.74,2.79C1054.61,1036.43,990.49,1051.17,953.25,1051.17z"/>
					</g>
				</g>
			</g>
			<g>
				<g>
					<g>
						<path class="st11" d="M1036.81,1069.06c0,0-61.8,14.83-103.32,10.88L1036.81,1069.06z"/>
					</g>
				</g>
				<g>
					<g>
						<path class="st12" d="M948.67,1082.92c-5.33,0-10.51-0.21-15.4-0.67c-1.28-0.12-2.22-1.26-2.1-2.54
							c0.12-1.28,1.26-2.22,2.54-2.1c40.66,3.87,101.95-10.68,102.56-10.82c1.25-0.3,2.51,0.47,2.81,1.72
							c0.3,1.25-0.47,2.51-1.72,2.81C1036.81,1071.45,988.5,1082.92,948.67,1082.92z"/>
					</g>
				</g>
			</g>
			<g>
				<g>
					<g>
						<path class="st2" d="M872.19,948.78c-0.34,0-0.68-0.07-1-0.23l-22.74-10.88c-1.16-0.55-1.65-1.94-1.1-3.1
							c0.55-1.16,1.94-1.65,3.1-1.1l22.74,10.88c1.16,0.55,1.65,1.94,1.1,3.1C873.89,948.29,873.05,948.78,872.19,948.78z"/>
					</g>
				</g>
			</g>
		</g>
		<g>
			<g>
				<g>
					
						<ellipse transform="matrix(0.925 -0.3799 0.3799 0.925 -173.0716 334.5837)" class="st2" cx="761.07" cy="605.74" rx="11.83" ry="11.83"/>
				</g>
			</g>
		</g>
		<g>
			<g>
				<g>
					<circle class="st2" cx="763.91" cy="693.75" r="11.83"/>
				</g>
			</g>
		</g>
	</g>
	<g>
		<g>
			<g>
				<g>
					<g>
						<path class="st13" d="M1403.86,112.71h-300.69c-39.49,0-71.5,32.01-71.5,71.5v173.3c0,39.49,32.01,71.5,71.5,71.5h54.34
							l92.9,74.54l87.84-74.54h65.61c39.49,0,71.5-32.01,71.5-71.5v-173.3C1475.36,144.72,1443.35,112.71,1403.86,112.71z"/>
					</g>
				</g>
				<g>
					<g>
						<path class="st2" d="M1250.4,505.87c-0.52,0-1.03-0.17-1.46-0.51l-92.26-74.03h-53.52c-40.71,0-73.83-33.12-73.83-73.83
							v-173.3c0-40.71,33.12-73.83,73.83-73.83h300.69c40.71,0,73.83,33.12,73.83,73.83v173.3c0,40.71-33.12,73.83-73.83,73.83
							h-64.76l-87.19,73.99C1251.48,505.69,1250.94,505.87,1250.4,505.87z M1103.17,115.03c-38.14,0-69.18,31.03-69.18,69.18v173.3
							c0,38.14,31.03,69.18,69.18,69.18h54.34c0.53,0,1.04,0.18,1.46,0.51l91.4,73.34l86.38-73.3c0.42-0.36,0.95-0.55,1.51-0.55
							h65.61c38.14,0,69.18-31.03,69.18-69.18v-173.3c0-38.14-31.03-69.18-69.18-69.18H1103.17z"/>
					</g>
				</g>
			</g>
		</g>
		<g>
			<g>
				<g>
					
						<ellipse transform="matrix(0.4346 -0.9006 0.9006 0.4346 478.0329 1089.3041)" class="st2" cx="1106.58" cy="163.93" rx="31.18" ry="31.18"/>
				</g>
			</g>
		</g>
		<g>
			<g>
				<g>
					<g>
						<path class="st6" d="M1123.18,179.96h-34.55c0,0,5.27-17.7,17.49-17.7C1118.33,162.27,1123.18,179.96,1123.18,179.96z"/>
					</g>
				</g>
			</g>
			<g>
				<g>
					<g>
						
							<ellipse transform="matrix(0.9702 -0.2422 0.2422 0.9702 -3.4681 272.3719)" class="st6" cx="1106.15" cy="150.29" rx="9.37" ry="9.37"/>
					</g>
				</g>
			</g>
		</g>
		<g>
			<g>
				<g>
					<path class="st0" d="M1237.61,171.64h-81.72c-4.42,0-7.99-3.58-7.99-7.99s3.58-7.99,7.99-7.99h81.72
						c4.42,0,7.99,3.58,7.99,7.99S1242.02,171.64,1237.61,171.64z"/>
				</g>
			</g>
		</g>
		<g>
			<g>
				<g>
					<g>
						<g>
							<g>
								<g>
									<path class="st3" d="M1087.5,370.54c0,0-3.13-24.79,4.57-20.07c19.05,11.68,40-0.49,42.17-4.83
										c13.18-26.36,7.11-102.11,42.67-102.11c35.56,0,19.31,69.09,38.61,84.33c19.31,15.24,45.72-54.87,74.17-54.87
										c28.45,0,35.56,52.84,59.95,52.84s32.51-24.39,57.92-28.45v73.34L1087.5,370.54z"/>
								</g>
							</g>
						</g>
						<g>
							<g>
								<g>
									<path class="st2" d="M1407.56,373.05C1407.56,373.05,1407.56,373.05,1407.56,373.05l-320.06-0.19
										c-1.17,0-2.16-0.87-2.31-2.04c-0.51-4.04-1.89-17.56,1.8-21.74c1.56-1.78,3.93-2.05,6.3-0.6
										c4.97,3.05,10.45,4.59,16.31,4.59c11.82,0,21.5-6.36,22.56-8.47c4.26-8.51,6.48-22.73,8.84-37.77
										c4.82-30.76,10.28-65.63,35.91-65.63c22.98,0,26.21,25.9,29.06,48.75c1.86,14.94,3.79,30.4,10.99,36.08
										c1.42,1.12,2.87,1.67,4.44,1.67c7.45,0,17.36-12.32,26.95-24.24c12.97-16.12,26.38-32.8,41.35-32.8
										c16.05,0,25.4,14.76,34.43,29.03c7.75,12.24,15.07,23.81,25.52,23.81c11.93,0,19.85-6.36,28.25-13.09
										c8.15-6.54,16.57-13.29,29.3-15.33c0.67-0.11,1.36,0.08,1.88,0.53c0.52,0.44,0.82,1.09,0.82,1.77v73.34
										c0,0.62-0.25,1.21-0.68,1.65C1408.77,372.81,1408.18,373.05,1407.56,373.05z M1089.58,368.22l315.65,0.18v-68.19
										c-10.09,2.33-17.37,8.17-24.43,13.84c-8.65,6.94-17.59,14.11-31.16,14.11c-13,0-21.36-13.2-29.45-25.97
										c-8.36-13.21-17.01-26.86-30.5-26.86c-12.74,0-26.01,16.5-37.72,31.06c-11.21,13.94-20.89,25.97-30.57,25.97
										c-2.61,0-5.08-0.9-7.32-2.67c-8.7-6.86-10.65-22.55-12.72-39.16c-2.74-21.96-5.57-44.68-24.44-44.68
										c-21.65,0-26.78,32.78-31.32,61.69c-2.42,15.41-4.7,29.97-9.28,39.13c-1.87,3.75-13,11.05-26.72,11.05
										c-6.73,0-13.04-1.78-18.75-5.28c-0.2-0.13-0.35-0.19-0.44-0.22C1089.2,353.6,1088.84,360.77,1089.58,368.22z"/>
								</g>
							</g>
						</g>
					</g>
					<g>
						<g>
							<g>
								<path class="st2" d="M1407.12,374.99c-0.96,0-2-0.78-2-1.75V230.12c0-0.96,1.04-1.75,2-1.75s2,0.78,2,1.75v143.13
									C1409.12,374.21,1408.08,374.99,1407.12,374.99z"/>
							</g>
						</g>
					</g>
					<g>
						<g>
							<g>
								<path class="st2" d="M1286.14,374.99c-0.96,0-2-0.78-2-1.75V230.12c0-0.96,1.04-1.75,2-1.75s2,0.78,2,1.75v143.13
									C1288.14,374.21,1287.1,374.99,1286.14,374.99z"/>
							</g>
						</g>
					</g>
					<g>
						<g>
							<g>
								<path class="st2" d="M1178.66,374.99c-0.96,0-1.5-0.78-1.5-1.75V230.12c0-0.96,0.54-1.75,1.5-1.75s1.5,0.78,1.5,1.75v143.13
									C1180.16,374.21,1179.62,374.99,1178.66,374.99z"/>
							</g>
						</g>
					</g>
					<g>
						<g>
							<g>
								<g>
									<circle class="st6" cx="1407.18" cy="296.24" r="7.71"/>
								</g>
							</g>
						</g>
						<g>
							<g>
								<g>
									<path class="st2" d="M1407.18,306.09c-5.43,0-9.85-4.42-9.85-9.85c0-5.44,4.42-9.86,9.85-9.86c5.44,0,9.86,4.42,9.86,9.86
										C1417.04,301.67,1412.62,306.09,1407.18,306.09z M1407.18,290.67c-3.06,0-5.56,2.5-5.56,5.58c0,3.06,2.5,5.56,5.56,5.56
										c3.08,0,5.58-2.5,5.58-5.56C1412.76,293.16,1410.26,290.67,1407.18,290.67z"/>
								</g>
							</g>
						</g>
					</g>
					<g>
						<g>
							<g>
								<g>
									
										<ellipse transform="matrix(0.5836 -0.812 0.812 0.5836 315.5362 1158.5327)" class="st6" cx="1287.48" cy="271.58" rx="7.71" ry="7.71"/>
								</g>
							</g>
						</g>
						<g>
							<g>
								<g>
									<path class="st2" d="M1287.48,281.43c-5.43,0-9.85-4.42-9.85-9.85c0-5.44,4.42-9.86,9.85-9.86c5.44,0,9.86,4.42,9.86,9.86
										C1297.34,277.01,1292.92,281.43,1287.48,281.43z M1287.48,266.01c-3.06,0-5.56,2.5-5.56,5.58c0,3.06,2.5,5.56,5.56,5.56
										c3.08,0,5.58-2.5,5.58-5.56C1293.06,268.5,1290.56,266.01,1287.48,266.01z"/>
								</g>
							</g>
						</g>
					</g>
					<g>
						<g>
							<g>
								<g>
									<circle class="st6" cx="1177.8" cy="243.59" r="7.71"/>
								</g>
							</g>
						</g>
						<g>
							<g>
								<g>
									<path class="st2" d="M1177.8,253.45c-5.43,0-9.85-4.42-9.85-9.85c0-5.44,4.42-9.86,9.85-9.86c5.44,0,9.86,4.42,9.86,9.86
										C1187.67,249.02,1183.24,253.45,1177.8,253.45z M1177.8,238.02c-3.06,0-5.56,2.5-5.56,5.58c0,3.06,2.5,5.56,5.56,5.56
										c3.08,0,5.58-2.5,5.58-5.56C1183.38,240.52,1180.88,238.02,1177.8,238.02z"/>
								</g>
							</g>
						</g>
					</g>
					<g>
						<g>
							<g>
								<path class="st2" d="M1436.61,374.81h-375.39c-1.29,0-2.33-1.04-2.33-2.33c0-1.29,1.04-2.33,2.33-2.33h375.39
									c1.29,0,2.33,1.04,2.33,2.33C1438.93,373.77,1437.89,374.81,1436.61,374.81z"/>
							</g>
						</g>
					</g>
					<g>
						<g>
							<g>
								<path class="st2" d="M1087.06,393.17c-1.29,0-2.33-1.04-2.33-2.33V225.59c0-1.29,1.04-2.33,2.33-2.33
									c1.29,0,2.33,1.04,2.33,2.33v165.25C1089.39,392.13,1088.35,393.17,1087.06,393.17z"/>
							</g>
						</g>
					</g>
					<g>
						<g>
							<g>
								<path class="st2" d="M1072.22,243.32c-0.52,0-1.05-0.18-1.48-0.54c-0.99-0.82-1.13-2.29-0.31-3.28l14.79-17.85
									c0.88-1.07,2.7-1.07,3.58,0l14.79,17.85c0.82,0.99,0.68,2.46-0.31,3.28c-0.99,0.82-2.46,0.68-3.28-0.31l-13-15.69l-13,15.69
									C1073.55,243.03,1072.89,243.32,1072.22,243.32z"/>
							</g>
						</g>
					</g>
					<g>
						<g>
							<g>
								<path class="st2" d="M1421.68,389.73c-0.67,0-1.33-0.29-1.79-0.84c-0.82-0.99-0.68-2.46,0.31-3.28l15.69-13l-15.69-13
									c-0.99-0.82-1.13-2.29-0.31-3.28c0.82-0.99,2.29-1.13,3.28-0.31l17.85,14.79c0.53,0.44,0.84,1.1,0.84,1.79
									c0,0.69-0.31,1.35-0.84,1.79l-17.85,14.79C1422.73,389.55,1422.2,389.73,1421.68,389.73z"/>
							</g>
						</g>
					</g>
				</g>
			</g>
			<g>
				<g>
					<g>
						<path class="st2" d="M1342.19,262.93c-0.46,0-0.91-0.18-1.23-0.51l-12.94-12.94c-0.68-0.68-0.68-1.79,0-2.47
							c0.68-0.68,1.79-0.68,2.47,0l11.58,11.58l19.48-23.54c0.61-0.74,1.71-0.85,2.46-0.23c0.74,0.61,0.85,1.71,0.23,2.46
							l-20.7,25.02c-0.31,0.38-0.77,0.61-1.26,0.63C1342.25,262.93,1342.22,262.93,1342.19,262.93z"/>
					</g>
				</g>
			</g>
			<g>
				<g>
					<g>
						<path class="st2" d="M1229.99,234.37c-0.46,0-0.91-0.18-1.23-0.51l-12.94-12.94c-0.68-0.68-0.68-1.79,0-2.47
							c0.68-0.68,1.79-0.68,2.47,0l11.58,11.58l19.48-23.54c0.61-0.74,1.71-0.85,2.46-0.23c0.74,0.61,0.85,1.71,0.23,2.46
							l-20.7,25.02c-0.31,0.38-0.77,0.61-1.26,0.63C1230.04,234.37,1230.01,234.37,1229.99,234.37z"/>
					</g>
				</g>
			</g>
		</g>
	</g>
	<g>
		<g>
			<g>
				<g>
					<g>
						<path class="st14" d="M1484.99,610.34c-14.88,3.98-31.21,10.12-47.78,18.31c-16.57,8.19-31.37,17.43-43.56,26.84l-48.86,24.15
							l14.83,30c9.36,18.93,59.26,13.35,111.47-12.46c50.1-24.76,84.08-59.15,78.48-78.61l0.21-0.15l-15.94-32.24L1484.99,610.34z"
							/>
					</g>
				</g>
			</g>
			<g>
				<g>
					<g>
						<path class="st2" d="M1387.88,723.2C1387.88,723.2,1387.89,723.2,1387.88,723.2c-15.8,0-26.3-4.33-30.35-12.52l-14.83-30
							c-0.57-1.15-0.1-2.55,1.06-3.12l48.65-24.05c12.62-9.71,27.75-19.02,43.77-26.94c16.02-7.92,32.61-14.28,47.99-18.41
							l48.65-24.05c0.55-0.27,1.19-0.32,1.78-0.12c0.58,0.2,1.07,0.62,1.34,1.17l15.94,32.24c0.24,0.49,0.3,1.02,0.19,1.52
							c4.71,21.03-29.28,55.31-79.94,80.35C1441.37,714.48,1410.66,723.2,1387.88,723.2z M1347.91,680.7l13.8,27.92
							c3.16,6.4,12.46,9.93,26.17,9.93c21.76,0,52.48-8.76,82.18-23.44c47.84-23.65,82.51-57.69,77.28-75.88
							c-0.06-0.22-0.09-0.45-0.09-0.68l-14.45-29.24l-46.77,23.12c-0.14,0.07-0.28,0.12-0.43,0.16
							c-15.15,4.05-31.52,10.33-47.35,18.15c-15.83,7.82-30.76,17.02-43.17,26.6c-0.12,0.09-0.25,0.18-0.39,0.24L1347.91,680.7z"/>
					</g>
				</g>
			</g>
		</g>
		<g>
			<g>
				<g>
					<g>
						
							<ellipse transform="matrix(0.8965 -0.4431 0.4431 0.8965 -131.8768 703.7079)" class="st15" cx="1439.88" cy="634.05" rx="105.44" ry="38.23"/>
					</g>
				</g>
			</g>
			<g>
				<g>
					<g>
						<path class="st2" d="M1373.61,694.32C1373.61,694.32,1373.61,694.32,1373.61,694.32c-15.8,0-26.3-4.33-30.35-12.52
							c-4.99-10.1,0.73-24.5,16.11-40.56c14.84-15.49,37.04-30.96,62.53-43.55c30.75-15.2,61.46-23.92,84.24-23.92
							c15.8,0,26.3,4.33,30.34,12.52c10.08,20.39-24.47,57.33-78.64,84.11C1427.1,685.6,1396.39,694.32,1373.61,694.32z
							 M1506.15,578.43c-21.76,0-52.48,8.76-82.18,23.44c-25.01,12.36-46.76,27.49-61.23,42.6c-13.72,14.33-19.3,27.18-15.3,35.28
							c3.16,6.4,12.46,9.93,26.17,9.93c21.76,0,52.48-8.76,82.18-23.44c50.11-24.77,85.16-60.43,76.53-77.88
							C1529.16,581.95,1519.86,578.43,1506.15,578.43z"/>
					</g>
				</g>
			</g>
		</g>
		<g>
			<g>
				<g>
					<path class="st2" d="M1541.4,643.69c-0.86,0-1.68-0.48-2.09-1.3l-13.45-27.21c-0.57-1.15-0.1-2.55,1.06-3.12
						c1.15-0.57,2.55-0.1,3.12,1.06l13.45,27.21c0.57,1.15,0.1,2.55-1.06,3.12C1542.1,643.61,1541.75,643.69,1541.4,643.69z"/>
				</g>
			</g>
		</g>
		<g>
			<g>
				<g>
					<path class="st2" d="M1532.76,656.64c-0.86,0-1.68-0.48-2.09-1.3l-14.27-28.86c-0.57-1.15-0.1-2.55,1.06-3.12
						c1.15-0.57,2.55-0.1,3.12,1.06l14.27,28.86c0.57,1.15,0.1,2.55-1.06,3.12C1533.46,656.56,1533.11,656.64,1532.76,656.64z"/>
				</g>
			</g>
		</g>
		<g>
			<g>
				<g>
					<path class="st2" d="M1487.4,689.35c-0.86,0-1.68-0.48-2.09-1.3l-13.43-27.18c-0.57-1.15-0.1-2.55,1.06-3.12
						c1.15-0.57,2.55-0.1,3.12,1.06l13.43,27.18c0.57,1.15,0.1,2.55-1.06,3.12C1488.1,689.27,1487.75,689.35,1487.4,689.35z"/>
				</g>
			</g>
		</g>
		<g>
			<g>
				<g>
					<path class="st2" d="M1461.7,703.75c-0.86,0-1.68-0.48-2.09-1.3l-14.11-28.55c-0.57-1.15-0.1-2.55,1.06-3.12
						c1.15-0.57,2.55-0.1,3.12,1.05l14.11,28.55c0.57,1.15,0.1,2.55-1.06,3.12C1462.4,703.68,1462.05,703.75,1461.7,703.75z"/>
				</g>
			</g>
		</g>
		<g>
			<g>
				<g>
					<path class="st2" d="M1377.29,721.16c-0.86,0-1.68-0.48-2.09-1.3l-13.62-27.55c-0.57-1.15-0.1-2.55,1.06-3.12
						c1.15-0.57,2.55-0.1,3.12,1.06l13.62,27.55c0.57,1.15,0.1,2.55-1.06,3.12C1377.99,721.08,1377.64,721.16,1377.29,721.16z"/>
				</g>
			</g>
		</g>
		<g>
			<g>
				<g>
					<path class="st2" d="M1391.44,722.04c-0.86,0-1.68-0.48-2.09-1.3l-13.75-27.81c-0.57-1.15-0.1-2.55,1.06-3.12
						c1.15-0.57,2.55-0.1,3.12,1.06l13.75,27.81c0.57,1.15,0.1,2.55-1.06,3.12C1392.14,721.96,1391.79,722.04,1391.44,722.04z"/>
				</g>
			</g>
		</g>
		<g>
			<g>
				<g>
					<path class="st2" d="M1436.12,712.51c-0.86,0-1.68-0.48-2.09-1.3l-13.39-27.09c-0.57-1.15-0.1-2.55,1.06-3.12
						c1.15-0.57,2.55-0.1,3.12,1.05l13.39,27.09c0.57,1.15,0.1,2.55-1.06,3.12C1436.82,712.43,1436.47,712.51,1436.12,712.51z"/>
				</g>
			</g>
		</g>
	</g>
	<g>
		<g>
			<g>
				<g>
					<g>
						<path class="st14" d="M1558.09,915.12c-16.3-15.36-36.4-30.86-59.2-45.09c-22.8-14.23-45.56-25.46-66.52-33.36l-67.25-41.96
							l-25.77,41.3c-16.25,26.05,28.82,83.51,100.68,128.35c68.95,43.03,137.48,58.76,157.27,36.95l0.35,0.15l27.69-44.38
							L1558.09,915.12z"/>
					</g>
				</g>
			</g>
			<g>
				<g>
					<g>
						<path class="st2" d="M1567.23,1013.41c-32.69,0-81.9-18.04-128.43-47.07c-34.98-21.82-64.8-47.31-83.98-71.76
							c-19.67-25.07-25.86-46.31-17.44-59.8l25.77-41.3c0.68-1.09,2.12-1.42,3.21-0.74l67.05,41.84
							c21.63,8.16,44.69,19.73,66.72,33.48c22.03,13.74,42.56,29.38,59.4,45.22l67.05,41.84c1.09,0.68,1.42,2.12,0.74,3.21
							l-27.69,44.38c-0.33,0.52-0.83,0.88-1.4,1.02C1591.8,1010.15,1581.38,1013.41,1567.23,1013.41z M1365.86,797.92l-24.54,39.32
							c-7.2,11.54-0.95,31.39,17.15,54.46c18.85,24.03,48.25,49.14,82.78,70.68c45.84,28.6,94.1,46.37,125.97,46.37
							c13.2,0,23-3.12,28.35-9.01c0.21-0.23,0.46-0.42,0.73-0.54l25.82-41.38l-65.27-40.73c-0.13-0.08-0.25-0.18-0.36-0.28
							c-16.65-15.69-36.99-31.18-58.84-44.81c-21.84-13.63-44.71-25.09-66.11-33.15c-0.14-0.05-0.28-0.12-0.41-0.2L1365.86,797.92z"
							/>
					</g>
				</g>
			</g>
		</g>
		<g>
			<g>
				<g>
					<g>
						
							<ellipse transform="matrix(0.5294 -0.8484 0.8484 0.5294 -41.1874 1680.6726)" class="st15" cx="1494.25" cy="877.46" rx="55.6" ry="153.36"/>
					</g>
				</g>
			</g>
			<g>
				<g>
					<g>
						<path class="st2" d="M1592.07,973.69C1592.07,973.69,1592.07,973.69,1592.07,973.69c-32.7,0-81.93-18.05-128.48-47.09
							c-34.98-21.82-64.8-47.31-83.98-71.76c-19.67-25.07-25.86-46.31-17.44-59.8c5.64-9.04,17.49-13.82,34.27-13.82
							c32.7,0,81.93,18.04,128.48,47.09c34.98,21.82,64.8,47.31,83.98,71.76c19.67,25.07,25.86,46.31,17.44,59.8
							C1620.69,968.91,1608.85,973.69,1592.07,973.69z M1396.44,785.88c-15.09,0-25.57,4.02-30.32,11.63
							c-7.2,11.54-0.95,31.39,17.15,54.46c18.85,24.03,48.25,49.14,82.78,70.68c45.85,28.61,94.14,46.38,126.01,46.39c0,0,0,0,0,0
							c15.09,0,25.57-4.02,30.31-11.63c7.2-11.54,0.95-31.39-17.15-54.46c-18.85-24.03-48.25-49.14-82.78-70.68
							C1476.6,803.66,1428.31,785.88,1396.44,785.88z"/>
					</g>
				</g>
			</g>
		</g>
		<g>
			<g>
				<g>
					<path class="st2" d="M1562.87,1010.96c-0.42,0-0.85-0.11-1.23-0.35c-1.09-0.68-1.42-2.12-0.74-3.21l23.37-37.45
						c0.68-1.09,2.12-1.42,3.21-0.74c1.09,0.68,1.42,2.12,0.74,3.21l-23.37,37.45C1564.4,1010.57,1563.65,1010.96,1562.87,1010.96z"
						/>
				</g>
			</g>
		</g>
		<g>
			<g>
				<g>
					<path class="st2" d="M1540.23,1010.18c-0.42,0-0.85-0.11-1.23-0.35c-1.09-0.68-1.42-2.12-0.74-3.21l24.79-39.72
						c0.68-1.09,2.12-1.42,3.21-0.74c1.09,0.68,1.42,2.12,0.74,3.21l-24.79,39.72C1541.76,1009.79,1541.01,1010.18,1540.23,1010.18z
						"/>
				</g>
			</g>
		</g>
		<g>
			<g>
				<g>
					<path class="st2" d="M1465.08,979.09c-0.42,0-0.85-0.11-1.23-0.35c-1.09-0.68-1.42-2.12-0.74-3.21l23.34-37.41
						c0.68-1.09,2.12-1.42,3.21-0.74c1.09,0.68,1.42,2.12,0.74,3.21l-23.34,37.41C1466.61,978.7,1465.86,979.09,1465.08,979.09z"/>
				</g>
			</g>
		</g>
		<g>
			<g>
				<g>
					<path class="st2" d="M1427.6,958.31c-0.42,0-0.85-0.11-1.23-0.35c-1.09-0.68-1.42-2.12-0.74-3.21l24.52-39.29
						c0.68-1.09,2.12-1.42,3.21-0.74c1.09,0.68,1.42,2.12,0.74,3.21l-24.52,39.29C1429.13,957.93,1428.37,958.31,1427.6,958.31z"/>
				</g>
			</g>
		</g>
		<g>
			<g>
				<g>
					<path class="st2" d="M1341.5,867.22c-0.42,0-0.85-0.11-1.23-0.35c-1.09-0.68-1.42-2.12-0.74-3.21l23.66-37.92
						c0.68-1.09,2.12-1.42,3.21-0.74c1.09,0.68,1.42,2.12,0.74,3.21l-23.66,37.92C1343.03,866.84,1342.27,867.22,1341.5,867.22z"/>
				</g>
			</g>
		</g>
		<g>
			<g>
				<g>
					<path class="st2" d="M1351.23,885.4c-0.42,0-0.85-0.11-1.23-0.35c-1.09-0.68-1.42-2.12-0.74-3.21l23.89-38.28
						c0.68-1.09,2.12-1.42,3.21-0.74c1.09,0.68,1.42,2.12,0.74,3.21l-23.89,38.28C1352.76,885.01,1352,885.4,1351.23,885.4z"/>
				</g>
			</g>
		</g>
		<g>
			<g>
				<g>
					<path class="st2" d="M1397.2,933.37c-0.42,0-0.85-0.11-1.23-0.35c-1.09-0.68-1.42-2.12-0.74-3.21l23.26-37.28
						c0.68-1.09,2.12-1.42,3.21-0.74c1.09,0.68,1.42,2.12,0.74,3.21l-23.26,37.28C1398.73,932.98,1397.97,933.37,1397.2,933.37z"/>
				</g>
			</g>
		</g>
	</g>
	<g>
		<g>
			<g>
				<g>
					<g>
						<path class="st14" d="M196.96,870.45c-19.6,0.26-41.66,2.75-64.65,7.68c-22.99,4.93-44.13,11.72-62.11,19.51l-67.8,14.54
							l8.93,41.64c5.63,26.26,68.93,34.96,141.38,19.42c69.52-14.91,122.18-46.72,121.34-72.47l0.31-0.12l-9.6-44.74L196.96,870.45z
							"/>
					</g>
				</g>
			</g>
			<g>
				<g>
					<g>
						<path class="st2" d="M84.59,983.27C84.59,983.27,84.59,983.27,84.59,983.27c-43.41,0-71.65-10.83-75.54-28.97l-8.93-41.64
							c-0.13-0.6-0.01-1.23,0.32-1.75c0.34-0.52,0.86-0.88,1.47-1.01l67.58-14.49c18.57-8.03,40.12-14.8,62.34-19.56
							c22.22-4.77,44.64-7.44,64.88-7.73l67.58-14.49c1.25-0.27,2.49,0.53,2.76,1.79l9.6,44.74c0.12,0.58,0.02,1.16-0.25,1.64
							c-0.54,27.16-53.03,58.67-123.18,73.72C129.52,980.59,105.8,983.27,84.59,983.27z M5.16,913.97l8.44,39.36
							c3.35,15.6,30.55,25.29,70.99,25.29c20.89,0,44.28-2.65,67.63-7.66c33.28-7.14,63.94-18.46,86.35-31.89
							c21.44-12.85,33.53-26.79,33.15-38.23c-0.01-0.28,0.03-0.56,0.12-0.82l-8.87-41.35l-65.53,14.06
							c-0.15,0.03-0.3,0.05-0.46,0.05c-19.99,0.27-42.19,2.91-64.19,7.63c-22.01,4.72-43.33,11.42-61.67,19.37
							c-0.14,0.06-0.29,0.11-0.44,0.14L5.16,913.97z"/>
					</g>
				</g>
			</g>
		</g>
		<g>
			<g>
				<g>
					<g>
						
							<ellipse transform="matrix(0.9778 -0.2097 0.2097 0.9778 -182.7624 47.7825)" class="st15" cx="133.91" cy="885.61" rx="134.17" ry="48.64"/>
					</g>
				</g>
			</g>
			<g>
				<g>
					<g>
						<path class="st2" d="M75.99,943.21C75.99,943.21,75.99,943.21,75.99,943.21c-43.41,0-71.65-10.83-75.54-28.97
							c-2.95-13.73,8.51-29.48,32.25-44.33c23.07-14.44,55.22-26.56,90.52-34.13c23.67-5.08,47.4-7.76,68.61-7.76
							c43.41,0,71.65,10.83,75.54,28.97c2.95,13.73-8.51,29.48-32.25,44.33c-23.07,14.44-55.22,26.56-90.52,34.13
							C120.93,940.52,97.2,943.21,75.99,943.21z M191.83,832.67c-20.89,0-44.28,2.65-67.63,7.66c-34.78,7.46-66.4,19.37-89.03,33.52
							c-21.64,13.54-32.64,27.9-30.17,39.41c3.35,15.6,30.55,25.29,70.99,25.29c20.89,0,44.28-2.65,67.63-7.66
							c34.78-7.46,66.4-19.37,89.03-33.52c21.64-13.54,32.64-27.9,30.17-39.41C259.47,842.36,232.27,832.67,191.83,832.67z"/>
					</g>
				</g>
			</g>
		</g>
		<g>
			<g>
				<g>
					<path class="st2" d="M256.86,928.64c-1.07,0-2.04-0.75-2.27-1.84l-8.1-37.76c-0.27-1.26,0.53-2.49,1.79-2.76
						c1.25-0.27,2.49,0.53,2.76,1.79l8.1,37.76c0.27,1.26-0.53,2.49-1.79,2.76C257.19,928.62,257.02,928.64,256.86,928.64z"/>
				</g>
			</g>
		</g>
		<g>
			<g>
				<g>
					<path class="st2" d="M242.15,941.92c-1.07,0-2.04-0.75-2.27-1.84l-8.59-40.05c-0.27-1.26,0.53-2.49,1.79-2.76
						c1.26-0.27,2.49,0.53,2.76,1.79l8.59,40.05c0.27,1.26-0.53,2.49-1.79,2.76C242.48,941.91,242.32,941.92,242.15,941.92z"/>
				</g>
			</g>
		</g>
		<g>
			<g>
				<g>
					<path class="st2" d="M176,968.11c-1.07,0-2.04-0.75-2.27-1.84l-8.09-37.72c-0.27-1.26,0.53-2.49,1.79-2.76
						c1.26-0.27,2.49,0.53,2.76,1.79l8.09,37.72c0.27,1.26-0.53,2.49-1.79,2.76C176.32,968.09,176.16,968.11,176,968.11z"/>
				</g>
			</g>
		</g>
		<g>
			<g>
				<g>
					<path class="st2" d="M139.8,977.86c-1.07,0-2.04-0.75-2.27-1.84l-8.5-39.61c-0.27-1.26,0.53-2.49,1.79-2.76
						c1.26-0.27,2.49,0.53,2.76,1.79l8.5,39.61c0.27,1.26-0.53,2.49-1.79,2.76C140.12,977.84,139.96,977.86,139.8,977.86z"/>
				</g>
			</g>
		</g>
		<g>
			<g>
				<g>
					<path class="st2" d="M30.25,972.99c-1.07,0-2.04-0.75-2.27-1.84l-8.2-38.23c-0.27-1.26,0.53-2.49,1.79-2.76
						c1.26-0.27,2.49,0.53,2.76,1.79l8.2,38.23c0.27,1.26-0.53,2.49-1.79,2.76C30.57,972.98,30.41,972.99,30.25,972.99z"/>
				</g>
			</g>
		</g>
		<g>
			<g>
				<g>
					<path class="st2" d="M47.42,978.5c-1.07,0-2.04-0.75-2.27-1.84l-8.28-38.6c-0.27-1.26,0.53-2.49,1.79-2.76
						c1.26-0.27,2.49,0.53,2.76,1.79l8.28,38.6c0.27,1.26-0.53,2.49-1.79,2.76C47.75,978.48,47.59,978.5,47.42,978.5z"/>
				</g>
			</g>
		</g>
		<g>
			<g>
				<g>
					<path class="st2" d="M105.51,980.68c-1.07,0-2.04-0.75-2.27-1.84l-8.06-37.59c-0.27-1.26,0.53-2.49,1.79-2.76
						c1.26-0.27,2.49,0.53,2.76,1.79l8.06,37.59c0.27,1.26-0.53,2.49-1.79,2.76C105.84,980.66,105.67,980.68,105.51,980.68z"/>
				</g>
			</g>
		</g>
	</g>
	<g>
		<g>
			<g>
				<g>
					<g>
						<path class="st14" d="M167.9,654.12c-10.46-6.42-22.96-12.5-36.77-17.59c-13.81-5.09-27.27-8.58-39.39-10.48l-40.74-15.01
							l-9.22,25.02c-5.81,15.78,24.76,41.58,68.29,57.62c41.77,15.39,80.28,16.19,88.46,2.29l0.2,0.04l9.91-26.88L167.9,654.12z"/>
					</g>
				</g>
			</g>
			<g>
				<g>
					<g>
						<path class="st2" d="M169.37,708.17c-17.23,0-38.57-4.37-60.11-12.3c-45.42-16.74-76.03-43.36-69.67-60.6l9.22-25.02
							c0.44-1.21,1.78-1.82,2.99-1.38l40.52,14.93c12.55,1.98,26.24,5.63,39.61,10.56c13.37,4.93,26.16,11.03,36.99,17.67
							l40.52,14.93c0.58,0.21,1.05,0.65,1.31,1.21c0.26,0.56,0.28,1.2,0.07,1.78l-9.91,26.88c-0.17,0.47-0.49,0.86-0.88,1.12
							C195.48,704.64,184.92,708.17,169.37,708.17z M52.37,614.04l-8.41,22.84c-4.7,12.74,21.07,37.74,66.92,54.63
							c21.03,7.75,41.81,12.02,58.5,12.02c13.99,0,23.89-3.18,27.15-8.72c0.1-0.17,0.21-0.32,0.34-0.45l8.78-23.84l-38.55-14.2
							c-0.14-0.05-0.28-0.12-0.41-0.2c-10.62-6.52-23.19-12.53-36.36-17.39c-13.17-4.85-26.64-8.43-38.95-10.36
							c-0.15-0.02-0.3-0.06-0.44-0.12L52.37,614.04z"/>
					</g>
				</g>
			</g>
		</g>
		<g>
			<g>
				<g>
					<g>
						
							<ellipse transform="matrix(0.3457 -0.9383 0.9383 0.3457 -516.7995 540.9008)" class="st15" cx="129.46" cy="641.03" rx="30.45" ry="84"/>
					</g>
				</g>
			</g>
			<g>
				<g>
					<g>
						<path class="st2" d="M178.27,684.1C178.27,684.1,178.27,684.1,178.27,684.1c-17.24,0-38.6-4.37-60.14-12.31
							c-45.42-16.74-76.03-43.36-69.67-60.6c3.14-8.53,14.58-13.22,32.2-13.22c17.23,0,38.59,4.37,60.14,12.31
							c21.3,7.85,40.25,18.26,53.35,29.31c13.7,11.56,19.5,22.67,16.32,31.29C207.33,679.4,195.89,684.1,178.27,684.1z
							 M80.66,602.62c-15.31,0-25.45,3.71-27.83,10.18c-4.7,12.74,21.07,37.74,66.92,54.63c21.04,7.75,41.83,12.02,58.53,12.02
							c0,0,0,0,0.01,0c15.3,0,25.45-3.71,27.83-10.18c2.41-6.55-3.04-16.07-14.96-26.13c-12.7-10.71-31.15-20.83-51.96-28.5
							C118.14,606.89,97.36,602.62,80.66,602.62z"/>
					</g>
				</g>
			</g>
		</g>
		<g>
			<g>
				<g>
					<path class="st2" d="M180.88,706.06c-0.27,0-0.54-0.05-0.8-0.14c-1.21-0.44-1.82-1.78-1.38-2.99l8.36-22.69
						c0.44-1.21,1.78-1.82,2.99-1.38c1.21,0.44,1.82,1.78,1.38,2.99l-8.36,22.69C182.72,705.48,181.83,706.06,180.88,706.06z"/>
				</g>
			</g>
		</g>
		<g>
			<g>
				<g>
					<path class="st2" d="M168.65,708.16c-0.27,0-0.54-0.05-0.8-0.14c-1.21-0.44-1.82-1.78-1.38-2.99l8.87-24.07
						c0.44-1.21,1.78-1.82,2.99-1.38c1.21,0.44,1.82,1.78,1.38,2.99l-8.87,24.07C170.49,707.58,169.6,708.16,168.65,708.16z"/>
				</g>
			</g>
		</g>
		<g>
			<g>
				<g>
					<path class="st2" d="M124.89,699.87c-0.27,0-0.54-0.05-0.8-0.14c-1.21-0.44-1.82-1.78-1.38-2.99l8.35-22.66
						c0.44-1.21,1.78-1.82,2.99-1.38c1.21,0.44,1.82,1.78,1.38,2.99l-8.35,22.66C126.72,699.28,125.83,699.87,124.89,699.87z"/>
				</g>
			</g>
		</g>
		<g>
			<g>
				<g>
					<path class="st2" d="M102.47,692.9c-0.27,0-0.54-0.05-0.8-0.14c-1.21-0.44-1.82-1.78-1.38-2.99l8.77-23.8
						c0.44-1.21,1.78-1.82,2.99-1.38c1.21,0.44,1.82,1.78,1.38,2.99l-8.77,23.8C104.31,692.32,103.42,692.9,102.47,692.9z"/>
				</g>
			</g>
		</g>
		<g>
			<g>
				<g>
					<path class="st2" d="M46.14,653.64c-0.27,0-0.54-0.05-0.8-0.14c-1.21-0.44-1.82-1.78-1.38-2.99l8.46-22.97
						c0.44-1.21,1.78-1.82,2.99-1.38c1.21,0.44,1.82,1.78,1.38,2.99l-8.46,22.97C47.98,653.06,47.09,653.64,46.14,653.64z"/>
				</g>
			</g>
		</g>
		<g>
			<g>
				<g>
					<path class="st2" d="M53.39,662.31c-0.27,0-0.54-0.05-0.8-0.14c-1.21-0.44-1.82-1.78-1.38-2.99l8.54-23.19
						c0.44-1.21,1.78-1.82,2.99-1.38c1.21,0.44,1.82,1.78,1.38,2.99l-8.54,23.19C55.23,661.72,54.34,662.31,53.39,662.31z"/>
				</g>
			</g>
		</g>
		<g>
			<g>
				<g>
					<path class="st2" d="M83.39,682.91c-0.27,0-0.54-0.05-0.8-0.14c-1.21-0.44-1.82-1.78-1.38-2.99l8.32-22.59
						c0.44-1.21,1.78-1.82,2.99-1.38c1.21,0.44,1.82,1.78,1.38,2.99l-8.32,22.59C85.22,682.33,84.33,682.91,83.39,682.91z"/>
				</g>
			</g>
		</g>
	</g>
	<g>
		<g>
			<g>
				<g>
					<g>
						<path class="st14" d="M388.2,113.13c-7.74,1.3-16.33,3.63-25.13,6.98c-8.8,3.35-16.76,7.33-23.4,11.51l-25.96,9.89l6.07,15.94
							c3.83,10.06,29.43,9.64,57.16-0.93c26.62-10.14,45.53-25.95,43.63-36.09l0.12-0.06l-6.53-17.13L388.2,113.13z"/>
					</g>
				</g>
			</g>
			<g>
				<g>
					<g>
						<path class="st2" d="M338.4,167.06C338.4,167.06,338.4,167.06,338.4,167.06c-11.25,0-18.63-3.12-20.79-8.78l-6.07-15.94
							c-0.46-1.2,0.15-2.55,1.35-3l25.74-9.81c6.92-4.33,15.08-8.34,23.62-11.59c8.54-3.25,17.3-5.69,25.34-7.06l25.75-9.81
							c0.58-0.22,1.22-0.2,1.78,0.05c0.56,0.25,1,0.72,1.22,1.29l6.53,17.13c0.16,0.42,0.19,0.85,0.11,1.26
							c1.13,11.41-17.99,27.53-45.2,37.9C363.63,164.09,349.64,167.06,338.4,167.06z M316.71,142.86l5.25,13.77
							c1.4,3.67,7.39,5.78,16.44,5.78c10.54,0,24.29-2.94,37.72-8.05c27.05-10.3,43.64-25.64,42.17-33.49
							c-0.02-0.12-0.04-0.24-0.04-0.37l-5.43-14.26l-23.79,9.06c-0.14,0.05-0.29,0.1-0.44,0.12c-7.81,1.31-16.35,3.68-24.69,6.86
							c-8.34,3.18-16.29,7.09-22.99,11.31c-0.13,0.08-0.27,0.15-0.41,0.21L316.71,142.86z"/>
					</g>
				</g>
			</g>
		</g>
		<g>
			<g>
				<g>
					<g>
						
							<ellipse transform="matrix(0.9345 -0.356 0.356 0.9345 -19.9208 137.7173)" class="st15" cx="364.17" cy="122.98" rx="53.75" ry="19.49"/>
					</g>
				</g>
			</g>
			<g>
				<g>
					<g>
						<path class="st2" d="M332.55,151.72C332.55,151.72,332.55,151.72,332.55,151.72c-11.25,0-18.63-3.12-20.79-8.78
							c-4.43-11.62,14.76-28.97,44.64-40.35c14.15-5.39,28.13-8.36,39.38-8.36c11.25,0,18.63,3.12,20.79,8.78
							c2.23,5.85-1.49,13.33-10.46,21.07c-8.38,7.23-20.51,14.07-34.18,19.28C357.78,148.75,343.8,151.72,332.55,151.72z
							 M395.78,98.89c-10.54,0-24.29,2.94-37.72,8.05c-28.32,10.79-44.83,26.76-41.94,34.34c1.4,3.67,7.39,5.78,16.44,5.78
							c10.54,0,24.29-2.94,37.72-8.05c13.17-5.02,24.82-11.57,32.79-18.45c7.17-6.18,10.59-12.12,9.15-15.89
							C410.82,100.99,404.83,98.89,395.78,98.89z"/>
					</g>
				</g>
			</g>
		</g>
		<g>
			<g>
				<g>
					<path class="st2" d="M415.33,133.92c-0.94,0-1.82-0.57-2.18-1.5l-5.51-14.46c-0.46-1.2,0.15-2.55,1.35-3
						c1.2-0.46,2.55,0.15,3,1.35l5.51,14.46c0.46,1.2-0.15,2.55-1.35,3C415.88,133.88,415.6,133.92,415.33,133.92z"/>
				</g>
			</g>
		</g>
		<g>
			<g>
				<g>
					<path class="st2" d="M410.31,140.08c-0.94,0-1.82-0.57-2.18-1.5l-5.84-15.34c-0.46-1.2,0.15-2.55,1.35-3
						c1.2-0.46,2.55,0.15,3,1.35l5.84,15.34c0.46,1.2-0.15,2.55-1.35,3C410.87,140.03,410.59,140.08,410.31,140.08z"/>
				</g>
			</g>
		</g>
		<g>
			<g>
				<g>
					<path class="st2" d="M385.72,154.48c-0.94,0-1.82-0.57-2.18-1.5l-5.5-14.44c-0.46-1.2,0.15-2.55,1.35-3
						c1.2-0.46,2.54,0.15,3,1.35l5.5,14.44c0.46,1.2-0.15,2.55-1.35,3C386.27,154.43,385.99,154.48,385.72,154.48z"/>
				</g>
			</g>
		</g>
		<g>
			<g>
				<g>
					<path class="st2" d="M371.98,160.55c-0.94,0-1.82-0.57-2.18-1.5l-5.78-15.17c-0.46-1.2,0.15-2.55,1.35-3
						c1.2-0.46,2.55,0.15,3,1.35l5.78,15.17c0.46,1.2-0.15,2.55-1.35,3C372.53,160.5,372.25,160.55,371.98,160.55z"/>
				</g>
			</g>
		</g>
		<g>
			<g>
				<g>
					<path class="st2" d="M328.3,165.3c-0.94,0-1.82-0.57-2.18-1.5l-5.58-14.64c-0.46-1.2,0.15-2.55,1.35-3
						c1.2-0.46,2.54,0.15,3,1.35l5.58,14.64c0.46,1.2-0.15,2.55-1.35,3C328.86,165.25,328.58,165.3,328.3,165.3z"/>
				</g>
			</g>
		</g>
		<g>
			<g>
				<g>
					<path class="st2" d="M335.44,166.43c-0.94,0-1.82-0.57-2.18-1.5l-5.63-14.78c-0.46-1.2,0.15-2.55,1.35-3
						c1.2-0.46,2.54,0.15,3,1.35l5.63,14.78c0.46,1.2-0.15,2.55-1.35,3C336,166.38,335.72,166.43,335.44,166.43z"/>
				</g>
			</g>
		</g>
		<g>
			<g>
				<g>
					<path class="st2" d="M358.57,163.75c-0.94,0-1.82-0.57-2.18-1.5l-5.48-14.39c-0.46-1.2,0.15-2.55,1.35-3
						c1.2-0.46,2.55,0.15,3,1.35l5.48,14.39c0.46,1.2-0.15,2.55-1.35,3C359.13,163.7,358.85,163.75,358.57,163.75z"/>
				</g>
			</g>
		</g>
	</g>
</g>
</svg>
