<?xml version="1.0" encoding="utf-8"?>
<!-- Generator: Adobe Illustrator 28.1.0, SVG Export Plug-In . SVG Version: 6.00 Build 0)  -->
<svg version="1.1" id="圖層_1" xmlns="http://www.w3.org/2000/svg" xmlns:xlink="http://www.w3.org/1999/xlink" x="0px" y="0px"
	 viewBox="0 0 113 25" style="enable-background:new 0 0 113 25;" xml:space="preserve">
<style type="text/css">
	.st0{fill:#0067E2;}
</style>
<g>
	<path class="st0" d="M0,8.79c0.08-3.21,0.89-5.44,2.37-6.7c1.62-1.37,4.18-2.06,7.76-2.06h2.4c3.52,0,6.08,0.7,7.7,2.06
		s2.43,2.9,2.43,4.6c0,0.86-0.17,1.48-0.5,1.79c-0.31,0.33-0.92,0.5-1.79,0.5h-2.85c-0.81,0-1.39-0.17-1.73-0.5
		c-0.33-0.31-0.5-0.61-0.53-0.87c0-0.25-0.22-0.47-0.67-0.67c-0.45-0.2-1.28-0.31-2.51-0.31h-1.59c-1.2,0-2.01,0.17-2.43,0.45
		C7.7,7.37,7.51,7.76,7.51,8.23c0,0.33,0.2,0.56,0.56,0.7c0.42,0.2,1.26,0.31,2.48,0.33h1.98c3.52,0,6.08,0.67,7.7,2.04
		c1.51,1.26,2.29,2.65,2.4,4.21v0.81c-0.11,3.18-0.89,5.39-2.37,6.64C18.67,24.33,16.07,25,12.53,25h-2.4
		c-3.52,0-6.11-0.67-7.73-2.04C0.81,21.6,0,20.06,0,18.36c0-0.89,0.14-1.48,0.47-1.81c0.33-0.31,0.92-0.47,1.81-0.47h2.82
		c0.84,0,1.42,0.17,1.76,0.47c0.31,0.33,0.5,0.61,0.5,0.89c0.03,0.25,0.25,0.47,0.7,0.64c0.42,0.2,1.26,0.31,2.48,0.33h1.62
		c1.2-0.03,2.01-0.19,2.46-0.5c0.33-0.25,0.53-0.61,0.53-1.06c-0.03-0.28-0.22-0.5-0.56-0.7c-0.45-0.2-1.28-0.28-2.51-0.31h-1.95
		c-3.52,0-6.11-0.7-7.73-2.04C0.89,12.53,0.08,11.08,0,9.4V8.79z"/>
	<path class="st0" d="M44.03,0.03c0.86,0,1.48,0.17,1.84,0.53c0.34,0.36,0.5,0.98,0.5,1.81v2.79c0,0.86-0.17,1.48-0.5,1.84
		c-0.36,0.36-0.98,0.53-1.84,0.53h-4.91v15.23c0.03,0.75-0.14,1.28-0.5,1.62c-0.33,0.33-0.95,0.5-1.81,0.53h-2.96
		c-0.86,0.03-1.48-0.14-1.84-0.5c-0.36-0.36-0.56-0.89-0.59-1.65V7.53h-5.36c-0.89,0-1.51-0.17-1.84-0.53
		c-0.33-0.36-0.5-0.98-0.5-1.84V2.59c0-1,0.17-1.67,0.5-2.04c0.33-0.36,0.95-0.53,1.84-0.53H44.03z"/>
	<path class="st0" d="M48.52,24.33c-0.36-0.33-0.53-0.95-0.53-1.81V2.43c0-0.84,0.17-1.45,0.5-1.81c0.33-0.36,0.95-0.56,1.84-0.56
		H68.3c0.87,0,1.48,0.2,1.84,0.56c0.33,0.36,0.5,0.98,0.5,1.81V4.3c0,0.84-0.17,1.45-0.5,1.81c-0.36,0.36-0.98,0.56-1.84,0.56H55.77
		v2.57H68.3c0.87,0,1.48,0.17,1.84,0.53c0.33,0.36,0.5,0.98,0.5,1.84v1.84c0,0.87-0.17,1.45-0.5,1.81
		c-0.36,0.36-0.98,0.56-1.84,0.56H55.77v2.46H68.3c0.87,0,1.48,0.17,1.84,0.53c0.33,0.36,0.5,0.98,0.5,1.84v1.84
		c0,0.87-0.17,1.48-0.5,1.84c-0.36,0.36-0.98,0.53-1.84,0.53H50.33C49.47,24.83,48.85,24.67,48.52,24.33z"/>
	<path class="st0" d="M80.86,17.19c-0.08,0.11-0.14,0.25-0.14,0.36v5.22c0.03,0.75-0.14,1.28-0.5,1.62
		c-0.36,0.33-0.95,0.5-1.81,0.53h-2.65c-0.87,0.03-1.48-0.14-1.84-0.5c-0.39-0.36-0.59-0.89-0.59-1.65V2.79
		c0-0.89,0.22-1.56,0.67-2.04c0.45-0.45,1.17-0.7,2.15-0.7h8.76c4.05,0,6.89,0.73,8.57,2.18c1.67,1.45,2.51,3.54,2.51,6.31
		c0,2.73-0.84,4.85-2.51,6.31c-1.67,1.45-4.52,2.18-8.57,2.18h-3.63C81.08,17.02,80.94,17.08,80.86,17.19z M87.39,7.06
		c-0.47-0.25-1.28-0.39-2.37-0.39h-3.74c-0.2,0-0.33,0.06-0.42,0.2c-0.08,0.11-0.14,0.25-0.14,0.36v2.65c0,0.14,0.06,0.25,0.14,0.36
		c0.08,0.11,0.22,0.2,0.42,0.2h3.74c1.09,0,1.9-0.14,2.37-0.45c0.5-0.28,0.75-0.75,0.75-1.45C88.14,7.84,87.89,7.34,87.39,7.06z"/>
	<path class="st0" d="M110.96,24.47h-4.24c-0.72,0-1.09-0.36-1.09-1.03V5.64c0-0.36-0.2-0.56-0.56-0.56h-1.28
		c-0.73,0-1.09-0.33-1.09-1V1c0-0.67,0.36-1,1.09-1h6.08c1.45,0,2.18,0.7,2.18,2.09v21.34C112.05,24.11,111.69,24.47,110.96,24.47z"
		/>
</g>
</svg>
