<?xml version="1.0" encoding="utf-8"?>
<!-- Generator: Adobe Illustrator 28.1.0, SVG Export Plug-In . SVG Version: 6.00 Build 0)  -->
<svg version="1.1" id="圖層_1" xmlns="http://www.w3.org/2000/svg" xmlns:xlink="http://www.w3.org/1999/xlink" x="0px" y="0px"
	 viewBox="0 0 450 460" style="enable-background:new 0 0 450 460;" xml:space="preserve">
<style type="text/css">
	.st0{fill:#3B9CFF;}
	.st1{fill:#FFC0BB;}
	.st2{fill:#142784;}
	.st3{fill:#FBCD4A;}
	.st4{fill:#FFC533;}
	.st5{fill:#F0EAFF;}
	.st6{fill:#FFFFFF;}
	.st7{fill:#C9E0FC;}
	.st8{fill:#31C2AA;}
	.st9{fill:#33CC99;}
</style>
<g>
	<g>
		<g>
			<g>
				<path class="st0" d="M411.43,298.17c-5.75,9.52-12.12,18.87-19.11,27.97c-1.62,2.11-3.27,4.21-4.96,6.29
					c-8.63,10.67-18.13,20.97-28.48,30.79c-3.98,3.78-8.03,7.43-12.14,10.95c-3.8,3.26-7.66,6.41-11.56,9.45
					c-9.5,7.41-19.27,14.14-29.22,20.21c-28.27,17.24-58.05,29.06-87.53,35.29c-0.6,0.13-1.21,0.25-1.81,0.38
					c-6.18,1.26-12.33,2.27-18.46,3.03c-2.22,0.28-4.45,0.52-6.66,0.73c-47.11,4.51-91.99-5.76-126.98-31.56
					c-0.68-0.5-1.36-1.01-2.04-1.53c-4.46-3.4-8.76-7.06-12.87-10.99c0,0,0,0-0.01,0c-1.85-1.76-3.67-3.58-5.44-5.45
					c-10.74-11.32-19.48-23.95-26.26-37.56c-4.07-8.16-7.43-16.67-10.1-25.47c-1.45-4.79-2.7-9.67-3.75-14.61
					c-15.89-75.08,15.14-166.78,87.06-235.03c9.03-8.57,18.39-16.47,28.01-23.7c3.27-2.46,6.57-4.84,9.89-7.15
					c2-1.39,4.02-2.75,6.04-4.08h0c4.69-3.09,9.44-6.03,14.22-8.81c8.28-4.83,16.68-9.19,25.16-13.09h0.01
					c10-4.6,20.1-8.55,30.23-11.85c5.26-1.72,10.53-3.25,15.8-4.62c2.64-0.68,5.27-1.32,7.91-1.91
					c67.65-15.2,134.06-1.01,177.43,44.69C464.15,112.03,463.38,212.12,411.43,298.17z"/>
			</g>
		</g>
	</g>
	<g>
		<g>
			<g>
				<path class="st1" d="M313.75,86.07c-8.08-0.42-44.97,15.43-53.81,12.82c-8.84-2.61-29.1-29.65-29.99-30.8
					c-0.89-1.16,55.72-35.51,55.72-35.51l31.11,12.6L313.75,86.07z"/>
			</g>
		</g>
		<g>
			<g>
				<path class="st2" d="M262.42,99.86c-1.07,0-1.95-0.1-2.67-0.32c-8.08-2.38-25.12-24.17-30.15-30.79l-0.19-0.25
					c-0.13-0.16-0.18-0.38-0.14-0.59c0.11-0.58,0.27-1.45,28.3-18.88c13.73-8.54,27.6-16.96,27.74-17.04
					c0.18-0.11,0.41-0.13,0.61-0.05l31.11,12.6c0.27,0.11,0.44,0.39,0.42,0.68l-3.02,40.9c-0.03,0.37-0.34,0.65-0.71,0.63
					c-3.34-0.17-12.11,2.64-21.41,5.62C281.33,95.88,268.89,99.86,262.42,99.86z M230.79,68.07c10.22,13.44,23.26,28.38,29.35,30.17
					c0.59,0.17,1.36,0.26,2.29,0.26c6.25,0,18.58-3.95,29.47-7.43c9.29-2.97,17.35-5.55,21.23-5.68l2.94-39.78l-30.33-12.28
					C264.91,45.97,234.07,65.06,230.79,68.07z"/>
			</g>
		</g>
	</g>
	<g>
		<g>
			<g>
				<path class="st1" d="M310.33,38.39c0,0,55.52,30.92,57.29,46.41c1.77,15.49-20.67,11.39-32.03-0.46
					c-11.36-11.84-26.4-18.17-26.4-18.17L310.33,38.39z"/>
			</g>
		</g>
		<g>
			<g>
				<path class="st2" d="M358.17,95.58c-7.51,0-16.99-4.42-23.07-10.76c-11.13-11.6-26.03-17.95-26.18-18.01
					c-0.26-0.11-0.43-0.37-0.42-0.65l1.14-27.79c0.01-0.24,0.14-0.45,0.35-0.56c0.21-0.12,0.46-0.12,0.66,0
					c2.28,1.27,55.85,31.27,57.64,46.93c0.38,3.32-0.28,5.96-1.96,7.84C364.58,94.54,361.76,95.58,358.17,95.58z M309.89,65.75
					c2.57,1.15,15.95,7.45,26.2,18.13c5.84,6.09,14.92,10.34,22.09,10.34c3.19,0,5.66-0.88,7.15-2.55c1.41-1.58,1.96-3.87,1.63-6.78
					c-1.59-13.87-48.61-41.16-55.99-45.35L309.89,65.75z"/>
			</g>
		</g>
	</g>
	<g>
		<g>
			<g>
				<path class="st1" d="M306.96,25.8c0,0,63.18,6.84,70.85,20.41s-14.6,18.54-29.67,12.06c-15.08-6.48-31.4-6.44-31.4-6.44
					L306.96,25.8z"/>
			</g>
		</g>
		<g>
			<g>
				<path class="st2" d="M362.35,61.77c-5.02,0-10.16-1.02-14.47-2.87c-14.69-6.31-30.46-6.38-31.12-6.38
					c-0.28,0-0.54-0.18-0.64-0.44l-9.78-26.04c-0.08-0.22-0.05-0.47,0.1-0.66c0.14-0.19,0.38-0.28,0.61-0.26
					c2.59,0.28,63.62,7.03,71.37,20.75c1.96,3.47,2.17,6.71,0.62,9.37C376.67,59.27,370.28,61.77,362.35,61.77z M317.22,51.16
					c2.85,0.05,17.49,0.6,31.19,6.49c4.15,1.78,9.1,2.76,13.94,2.76c7.46,0,13.4-2.24,15.5-5.85c1.32-2.25,1.11-4.95-0.63-8.02
					c-6.86-12.15-60.81-18.95-69.23-19.95L317.22,51.16z"/>
			</g>
		</g>
	</g>
	<g>
		<g>
			<g>
				<g>
					<g>
						<path class="st3" d="M77.67,109.41c-2.92-1.47-6.38-2.81-10.16-3.85c-3.78-1.04-7.43-1.67-10.7-1.9l-11.16-3.08l-1.89,6.85
							c-1.19,4.32,7.51,10.49,19.43,13.78c11.44,3.15,21.68,2.51,23.55-1.37l0.05,0.01l2.03-7.36L77.67,109.41z"/>
					</g>
				</g>
			</g>
			<g>
				<g>
					<g>
						<path class="st2" d="M76.68,123.89c-4.12,0-8.85-0.7-13.67-2.03c-12.47-3.44-21.21-9.86-19.9-14.61L45,100.4
							c0.05-0.17,0.16-0.32,0.32-0.41c0.16-0.09,0.34-0.11,0.52-0.06l11.09,3.06c3.38,0.25,7.1,0.91,10.76,1.92
							c3.66,1.01,7.2,2.35,10.22,3.87L89,111.83c0.36,0.1,0.57,0.47,0.47,0.84l-2.03,7.36c-0.04,0.14-0.12,0.26-0.22,0.34
							C85.94,122.65,82.21,123.89,76.68,123.89z M46.13,101.42l-1.71,6.2c-0.95,3.46,6.43,9.49,18.95,12.94
							c4.7,1.3,9.3,1.98,13.31,1.98c5.01,0,8.55-1.12,9.44-2.99c0.02-0.05,0.05-0.09,0.08-0.13l1.78-6.46l-10.5-2.9
							c-0.04-0.01-0.09-0.03-0.13-0.05c-2.96-1.49-6.43-2.81-10.03-3.8c-3.6-0.99-7.26-1.64-10.56-1.88c-0.04,0-0.09-0.01-0.13-0.02
							L46.13,101.42z"/>
					</g>
				</g>
			</g>
		</g>
		<g>
			<g>
				<g>
					<g>
						<path class="st4" d="M88.75,112.74c1.19-4.32-7.51-10.49-19.43-13.78c-11.92-3.29-22.55-2.45-23.74,1.87
							c-1.19,4.32,7.51,10.49,19.43,13.78C76.93,117.9,87.56,117.07,88.75,112.74z"/>
					</g>
				</g>
			</g>
			<g>
				<g>
					<g>
						<path class="st2" d="M78.51,117.3L78.51,117.3c-4.13,0-8.86-0.7-13.68-2.03c-12.47-3.44-21.21-9.86-19.9-14.61
							c0.77-2.78,4.74-4.38,10.9-4.38c4.13,0,8.86,0.7,13.67,2.03c5.84,1.61,11.11,3.95,14.84,6.6c3.92,2.78,5.72,5.62,5.06,8.01
							C88.64,115.71,84.67,117.3,78.51,117.3z M55.83,97.64c-5.42,0-9.01,1.26-9.59,3.38c-0.95,3.46,6.43,9.49,18.95,12.94
							c4.7,1.3,9.31,1.98,13.31,1.98c5.42,0,9.01-1.26,9.59-3.38c0.49-1.77-1.17-4.15-4.53-6.54c-3.61-2.56-8.73-4.83-14.42-6.4
							C64.44,98.33,59.84,97.64,55.83,97.64z"/>
					</g>
				</g>
			</g>
		</g>
		<g>
			<g>
				<g>
					<path class="st2" d="M82.23,122.98c-0.06,0-0.12-0.01-0.18-0.02c-0.36-0.1-0.57-0.47-0.47-0.84l1.71-6.21
						c0.1-0.36,0.47-0.57,0.84-0.47c0.36,0.1,0.57,0.47,0.47,0.84l-1.71,6.21C82.8,122.78,82.52,122.98,82.23,122.98z"/>
				</g>
			</g>
		</g>
		<g>
			<g>
				<g>
					<path class="st2" d="M79.02,123.81c-0.06,0-0.12-0.01-0.18-0.02c-0.36-0.1-0.57-0.47-0.47-0.84l1.82-6.59
						c0.1-0.36,0.47-0.57,0.84-0.47c0.36,0.1,0.57,0.47,0.47,0.84l-1.82,6.59C79.6,123.61,79.32,123.81,79.02,123.81z"/>
				</g>
			</g>
		</g>
		<g>
			<g>
				<g>
					<path class="st2" d="M67.22,122.58c-0.06,0-0.12-0.01-0.18-0.02c-0.36-0.1-0.57-0.47-0.47-0.84l1.71-6.21
						c0.1-0.36,0.47-0.57,0.84-0.47c0.36,0.1,0.57,0.47,0.47,0.84l-1.71,6.21C67.79,122.38,67.51,122.58,67.22,122.58z"/>
				</g>
			</g>
		</g>
		<g>
			<g>
				<g>
					<path class="st2" d="M61.11,121.23c-0.06,0-0.12-0.01-0.18-0.02c-0.36-0.1-0.57-0.47-0.47-0.84l1.8-6.52
						c0.1-0.36,0.47-0.57,0.84-0.47c0.36,0.1,0.57,0.47,0.47,0.84l-1.8,6.52C61.68,121.04,61.4,121.23,61.11,121.23z"/>
				</g>
			</g>
		</g>
		<g>
			<g>
				<g>
					<path class="st2" d="M45.27,112.07c-0.06,0-0.12-0.01-0.18-0.02c-0.36-0.1-0.57-0.47-0.47-0.84l1.73-6.29
						c0.1-0.36,0.47-0.57,0.84-0.47c0.36,0.1,0.57,0.47,0.47,0.84l-1.73,6.29C45.84,111.87,45.57,112.07,45.27,112.07z"/>
				</g>
			</g>
		</g>
		<g>
			<g>
				<g>
					<path class="st2" d="M47.39,114.2c-0.06,0-0.12-0.01-0.18-0.02c-0.36-0.1-0.57-0.47-0.47-0.84l1.75-6.35
						c0.1-0.36,0.47-0.57,0.84-0.47c0.36,0.1,0.57,0.47,0.47,0.84l-1.75,6.35C47.96,114.01,47.69,114.2,47.39,114.2z"/>
				</g>
			</g>
		</g>
		<g>
			<g>
				<g>
					<path class="st2" d="M55.82,119.01c-0.06,0-0.12-0.01-0.18-0.02c-0.36-0.1-0.57-0.47-0.47-0.84l1.71-6.18
						c0.1-0.36,0.47-0.57,0.84-0.47c0.36,0.1,0.57,0.47,0.47,0.84l-1.71,6.18C56.39,118.81,56.11,119.01,55.82,119.01z"/>
				</g>
			</g>
		</g>
	</g>
	<g>
		<g>
			<g>
				<g>
					<g>
						<path class="st3" d="M105.7,27.57c-4.67,1.48-9.77,3.67-14.92,6.52c-5.15,2.85-9.72,6-13.46,9.17l-15.18,8.39l5.15,9.32
							c3.25,5.88,19.03,3.38,35.25-5.59c15.56-8.61,25.87-20.03,23.8-26.14l0.07-0.05l-5.54-10.02L105.7,27.57z"/>
					</g>
				</g>
			</g>
			<g>
				<g>
					<g>
						<path class="st2" d="M75.31,64.84C75.31,64.84,75.31,64.84,75.31,64.84c-4.35,0-7.33-1.22-8.61-3.53l-5.15-9.32
							c-0.09-0.16-0.11-0.34-0.06-0.52c0.05-0.17,0.17-0.32,0.32-0.41l15.12-8.36c3.87-3.27,8.54-6.45,13.52-9.2
							c4.98-2.75,10.15-5.02,14.98-6.55l15.12-8.36c0.16-0.09,0.34-0.11,0.52-0.06c0.17,0.05,0.32,0.17,0.41,0.32l5.54,10.02
							c0.08,0.14,0.1,0.3,0.07,0.45c1.82,6.59-8.48,17.96-24.2,26.66C92.85,61.53,82.54,64.84,75.31,64.84z M63.06,51.92l4.83,8.73
							c1.29,2.34,4.75,2.83,7.42,2.83c7.01,0,17.07-3.25,26.91-8.69c14.89-8.23,25.42-19.59,23.48-25.33
							c-0.02-0.07-0.04-0.14-0.04-0.21l-5.06-9.15l-14.58,8.06c-0.04,0.02-0.08,0.04-0.12,0.05c-4.76,1.51-9.88,3.75-14.8,6.47
							c-4.92,2.72-9.54,5.87-13.35,9.09c-0.03,0.03-0.07,0.05-0.11,0.08L63.06,51.92z"/>
					</g>
				</g>
			</g>
		</g>
		<g>
			<g>
				<g>
					<g>
						
							<ellipse transform="matrix(0.8751 -0.4839 0.4839 0.8751 -5.8579 48.8377)" class="st4" cx="91.7" cy="35.77" rx="33.56" ry="12.17"/>
					</g>
				</g>
			</g>
			<g>
				<g>
					<g>
						<path class="st2" d="M70.35,55.87C70.35,55.87,70.35,55.87,70.35,55.87c-4.35,0-7.33-1.22-8.61-3.53
							c-1.72-3.11-0.11-7.75,4.52-13.06c4.49-5.14,11.31-10.37,19.22-14.75c10.03-5.55,20.34-8.86,27.57-8.86
							c4.35,0,7.33,1.22,8.61,3.53c1.72,3.11,0.11,7.75-4.52,13.06c-4.49,5.14-11.31,10.37-19.22,14.75
							C87.89,52.56,77.58,55.87,70.35,55.87z M113.05,17.03c-7.01,0-17.07,3.25-26.91,8.69c-7.78,4.3-14.47,9.43-18.86,14.45
							c-4.17,4.78-5.76,8.97-4.36,11.51c1.29,2.34,4.75,2.83,7.42,2.83c7.01,0,17.07-3.25,26.91-8.69
							c7.78-4.3,14.47-9.43,18.86-14.45c4.17-4.78,5.76-8.97,4.36-11.51C119.18,17.52,115.73,17.03,113.05,17.03z"/>
					</g>
				</g>
			</g>
		</g>
		<g>
			<g>
				<g>
					<path class="st2" d="M124.08,37.29c-0.24,0-0.47-0.13-0.6-0.35l-4.67-8.45c-0.18-0.33-0.06-0.74,0.27-0.92
						c0.33-0.18,0.74-0.06,0.92,0.27l4.67,8.45c0.18,0.33,0.06,0.74-0.27,0.92C124.31,37.26,124.19,37.29,124.08,37.29z"/>
				</g>
			</g>
		</g>
		<g>
			<g>
				<g>
					<path class="st2" d="M121.52,41.53c-0.24,0-0.47-0.13-0.6-0.35l-4.96-8.97c-0.18-0.33-0.06-0.74,0.27-0.92
						c0.33-0.18,0.74-0.06,0.92,0.27l4.96,8.97c0.18,0.33,0.06,0.74-0.27,0.92C121.75,41.51,121.64,41.53,121.52,41.53z"/>
				</g>
			</g>
		</g>
		<g>
			<g>
				<g>
					<path class="st2" d="M107.58,52.59c-0.24,0-0.47-0.13-0.6-0.35l-4.67-8.44c-0.18-0.33-0.06-0.74,0.27-0.92
						c0.33-0.18,0.74-0.06,0.92,0.27l4.67,8.44c0.18,0.33,0.06,0.74-0.27,0.92C107.81,52.57,107.7,52.59,107.58,52.59z"/>
				</g>
			</g>
		</g>
		<g>
			<g>
				<g>
					<path class="st2" d="M99.62,57.55c-0.24,0-0.47-0.13-0.6-0.35l-4.9-8.87c-0.18-0.33-0.06-0.74,0.27-0.92
						c0.33-0.18,0.74-0.06,0.92,0.27l4.9,8.87c0.18,0.33,0.06,0.74-0.27,0.92C99.85,57.52,99.73,57.55,99.62,57.55z"/>
				</g>
			</g>
		</g>
		<g>
			<g>
				<g>
					<path class="st2" d="M73.05,64.32c-0.24,0-0.47-0.13-0.6-0.35l-4.73-8.56c-0.18-0.33-0.06-0.74,0.27-0.92
						c0.33-0.18,0.74-0.06,0.92,0.27l4.73,8.56c0.18,0.33,0.06,0.74-0.27,0.92C73.27,64.29,73.16,64.32,73.05,64.32z"/>
				</g>
			</g>
		</g>
		<g>
			<g>
				<g>
					<path class="st2" d="M77.56,64.39c-0.24,0-0.47-0.13-0.6-0.35l-4.78-8.64c-0.18-0.33-0.06-0.74,0.27-0.92
						c0.33-0.18,0.74-0.06,0.92,0.27l4.78,8.64c0.18,0.33,0.06,0.74-0.27,0.92C77.78,64.36,77.67,64.39,77.56,64.39z"/>
				</g>
			</g>
		</g>
		<g>
			<g>
				<g>
					<path class="st2" d="M91.62,60.71c-0.24,0-0.47-0.13-0.6-0.35l-4.65-8.41c-0.18-0.33-0.06-0.74,0.27-0.92
						c0.33-0.18,0.74-0.06,0.92,0.27l4.65,8.41c0.18,0.33,0.06,0.74-0.27,0.92C91.84,60.68,91.73,60.71,91.62,60.71z"/>
				</g>
			</g>
		</g>
	</g>
	<g>
		<g>
			<g>
				<g>
					<polygon class="st5" points="130.04,76.27 134.88,96.52 154.26,100.24 135.13,105.46 129.54,125.33 123.96,104.96 
						106.32,101.49 124.95,96.89 					"/>
				</g>
			</g>
		</g>
		<g>
			<g>
				<g>
					<path class="st2" d="M129.54,125.49C129.54,125.49,129.54,125.49,129.54,125.49c-0.31,0-0.57,0.05-0.66-0.24l-5.48-19.83
						l-17.22-3.33c-0.31-0.06-0.54-0.3-0.55-0.62c-0.01-0.32,0.21-0.58,0.52-0.66l18.23-4.49l4.99-20.25
						c0.07-0.3,0.35-0.55,0.66-0.55c0,0,0,0,0,0c0.31,0,0.59,0.25,0.66,0.55l4.74,19.83l18.94,3.65c0.31,0.06,0.54,0.33,0.55,0.65
						c0.01,0.32-0.2,0.6-0.5,0.68l-18.75,5.12l-5.48,19.24C130.12,125.55,129.85,125.49,129.54,125.49z M109.46,101.41l14.63,2.88
						c0.25,0.05,0.46,0.24,0.52,0.49l4.94,18.01l4.93-17.52c0.06-0.23,0.24-0.41,0.48-0.47l16.3-4.45l-16.5-3.17
						c-0.26-0.05-0.47-0.25-0.53-0.51l-4.19-17.53l-4.42,17.9c-0.06,0.24-0.25,0.44-0.5,0.5L109.46,101.41z"/>
				</g>
			</g>
		</g>
	</g>
	<g>
		<g>
			<g>
				<g>
					<polygon class="st5" points="340.47,228.87 345.21,248.65 364.14,252.29 345.45,257.39 339.99,276.81 334.53,256.91 
						317.29,253.51 335.5,249.02 					"/>
				</g>
			</g>
		</g>
		<g>
			<g>
				<g>
					<path class="st2" d="M339.99,277.56C339.99,277.56,339.99,277.56,339.99,277.56c-0.31,0-0.57-0.24-0.66-0.54l-5.35-19.52
						l-16.82-3.33c-0.31-0.06-0.54-0.34-0.55-0.66c-0.01-0.32,0.21-0.6,0.52-0.68l17.81-4.39l4.88-19.76
						c0.07-0.3,0.35-0.52,0.66-0.52c0,0,0,0,0,0c0.31,0,0.59,0.22,0.66,0.53l4.63,19.36l18.5,3.56c0.31,0.06,0.54,0.33,0.55,0.64
						s-0.2,0.6-0.5,0.68l-18.32,5l-5.36,19.09C340.56,277.32,340.29,277.56,339.99,277.56z M320.43,253.43l14.23,2.81
						c0.25,0.05,0.46,0.24,0.52,0.49l4.81,17.55l4.8-17.07c0.06-0.23,0.24-0.41,0.48-0.47l15.87-4.33l-16.06-3.09
						c-0.26-0.05-0.47-0.25-0.53-0.51l-4.08-17.07l-4.31,17.44c-0.06,0.24-0.25,0.44-0.5,0.5L320.43,253.43z"/>
				</g>
			</g>
		</g>
	</g>
	<g>
		<g>
			<g>
				<g>
					<polygon class="st5" points="398.04,66.01 401.14,78.99 413.57,81.38 401.3,84.73 397.72,97.48 394.13,84.41 382.82,82.18 
						394.77,79.23 					"/>
				</g>
			</g>
		</g>
		<g>
			<g>
				<g>
					<path class="st2" d="M397.72,97.92C397.72,97.92,397.72,97.92,397.72,97.92c-0.31,0-0.57-0.09-0.66-0.38l-3.47-12.6l-10.9-2.12
						c-0.31-0.06-0.54-0.32-0.55-0.64c-0.01-0.32,0.21-0.59,0.52-0.67l11.55-2.85l3.17-12.89c0.07-0.3,0.35-0.58,0.66-0.58
						c0,0,0,0,0,0c0.31,0,0.59,0.28,0.66,0.59l3.01,12.59l12,2.32c0.31,0.06,0.54,0.33,0.55,0.65s-0.2,0.6-0.5,0.69l-11.9,3.25
						l-3.48,12.26C398.29,97.84,398.02,97.92,397.72,97.92z M385.96,82.11l8.31,1.64c0.25,0.05,0.46,0.24,0.52,0.49l2.94,10.71
						l2.92-10.39c0.06-0.23,0.24-0.41,0.48-0.47l9.45-2.58l-9.56-1.84c-0.26-0.05-0.47-0.25-0.53-0.51l-2.46-10.27l-2.6,10.51
						c-0.06,0.24-0.25,0.44-0.5,0.5L385.96,82.11z"/>
				</g>
			</g>
		</g>
	</g>
	<g>
		<g>
			<g>
				<g>
					<path class="st1" d="M272.69,92.09c1.02,0.56,2,1.05,2.95,1.47c-0.03-0.03-0.06-0.06-0.1-0.08
						C274.74,92.85,273.78,92.4,272.69,92.09z"/>
				</g>
			</g>
		</g>
		<g>
			<g>
				<g>
					<path class="st2" d="M275.63,94.24c-0.09,0-0.18-0.02-0.27-0.06c-0.96-0.43-1.97-0.93-3-1.49c-0.3-0.17-0.43-0.53-0.3-0.85
						c0.13-0.32,0.48-0.49,0.81-0.4c1.21,0.33,2.25,0.84,3.09,1.51c0.03,0.02,0.05,0.04,0.08,0.07c0.27,0.21,0.35,0.6,0.17,0.89
						C276.08,94.12,275.86,94.24,275.63,94.24z"/>
				</g>
			</g>
		</g>
	</g>
	<g>
		<g>
			<g>
				<g>
					<g>
						<path class="st1" d="M308.75,20.24c-14.96-10.08-80.44,2.68-92.74-1.42c-1.41-0.48-4.81-2.4-9.79-5.48
							c-0.5-0.31-1.02-0.63-1.55-0.96c-10.13,3.3-20.23,7.25-30.23,11.85h-0.01c-8.48,3.9-16.87,8.26-25.16,13.09
							c-4.78,2.79-9.52,5.73-14.22,8.81h0c-2.02,1.33-4.04,2.69-6.04,4.08c-3.33,2.3-6.62,4.68-9.89,7.15
							c6.18,4.14,12.43,8.34,18.63,12.51c2.38,1.6,4.76,3.19,7.12,4.79c2.19,1.47,4.38,2.94,6.55,4.4c2.39,1.61,4.77,3.21,7.11,4.78
							c15.52,10.45,29.87,20.11,41.05,27.64c29.51,19.88,79.52,3.71,84.11,2.85c1.6-0.3,3.15-0.48,4.64-0.49
							c18.72-0.16,31.55-6.79,26.69-17.9c12.71,15.99,25.65,2.9,25.68-1.47C340.74,89.47,323.71,30.32,308.75,20.24z M281.26,85.43
							c-6.24-0.48-12.11-0.75-16.34-1.15v0c-1.23-0.12-2.31-0.24-3.24-0.38c-11.35-1.79-8.6-10.82-5.29-19.46
							c3.31-8.64,36.82-13.68,36.82-13.68s6.53,16.39,16.43,36.44c1.14,2.32,2.3,4.33,3.47,6.09
							C307.6,88.14,293.68,86.38,281.26,85.43z M313.12,93.29c0.82,0.77,1.46,1.61,1.87,2.53c0.02,0.04,0.03,0.07,0.05,0.12
							C314.39,95.14,313.75,94.25,313.12,93.29z"/>
					</g>
				</g>
			</g>
		</g>
		<g>
			<g>
				<g>
					<g>
						<path class="st2" d="M238.18,122.03c-16.02,0-29.13-3.36-38.96-9.98c-11.18-7.53-25.53-17.2-41.05-27.64l-3.32-2.23
							c-1.26-0.84-2.52-1.69-3.79-2.55c-1.16-0.78-2.32-1.56-3.48-2.34c-1.02-0.68-2.04-1.37-3.06-2.06
							c-2.36-1.59-4.74-3.19-7.12-4.79c-6.21-4.17-12.45-8.36-18.63-12.51c-0.18-0.12-0.29-0.33-0.3-0.55
							c-0.01-0.22,0.09-0.43,0.27-0.56c3.25-2.44,6.58-4.85,9.92-7.16c1.94-1.35,3.98-2.72,6.05-4.09c0.01-0.01,0.03-0.02,0.04-0.03
							c4.7-3.09,9.48-6.05,14.21-8.81c8.24-4.8,16.73-9.22,25.21-13.12c0.02-0.01,0.05-0.02,0.07-0.03
							c9.93-4.56,20.1-8.55,30.24-11.85c0.19-0.06,0.4-0.04,0.57,0.07c0.36,0.23,0.72,0.45,1.06,0.66l0.49,0.3
							c5.11,3.16,8.35,4.98,9.65,5.41c1.63,0.54,4.35,0.81,8.33,0.81c6.52,0,15.61-0.72,25.24-1.49c11.3-0.9,24.1-1.91,34.91-1.91
							c12.35,0,20.34,1.34,24.43,4.09c8.13,5.48,16.37,24.42,21.86,39.35c5.96,16.22,10.42,32.69,10.4,35.45
							c-0.02,3.29-5.74,9.88-13.2,9.88h0c-4.07,0-7.95-1.88-11.58-5.59c0.41,2.44-0.04,4.7-1.36,6.74
							c-3.58,5.53-13.64,8.9-26.9,9.02c-1.39,0.01-2.87,0.17-4.52,0.48c-0.44,0.08-1.36,0.32-2.64,0.66
							C274.54,117.41,256.87,122.03,238.18,122.03z M120.3,57.34c5.92,3.97,11.9,7.98,17.84,11.97c2.38,1.6,4.76,3.19,7.12,4.79
							c1.02,0.69,2.04,1.37,3.06,2.06c1.17,0.78,2.33,1.56,3.49,2.34c1.27,0.86,2.53,1.71,3.79,2.55l3.32,2.23
							c15.52,10.44,29.87,20.11,41.05,27.64c9.6,6.47,22.46,9.75,38.2,9.75c18.52,0,36.07-4.59,42.67-6.32
							c1.35-0.35,2.25-0.59,2.73-0.68c1.73-0.33,3.28-0.49,4.76-0.5c12.8-0.11,22.43-3.25,25.77-8.4c1.59-2.46,1.71-5.31,0.34-8.47
							c-0.6-0.76-1.22-1.62-1.85-2.56c-5.49-5.05-19.65-6.73-31.39-7.63c-2.7-0.21-5.29-0.37-7.79-0.53
							c-3.16-0.2-6.15-0.39-8.55-0.62c-0.02,0-0.05-0.01-0.07-0.01c-1.35-0.13-2.37-0.25-3.21-0.38c-3.83-0.6-6.35-2.02-7.68-4.33
							c-2.38-4.11-0.38-10.18,1.86-16.04c3.41-8.91,35.97-13.9,37.35-14.1c0.31-0.05,0.62,0.13,0.73,0.42
							c0.07,0.16,6.63,16.59,16.41,36.39c1.07,2.16,2.2,4.16,3.38,5.95c0.89,0.85,1.54,1.73,1.97,2.7c0.01,0.01,0.01,0.02,0.01,0.03
							l0.01,0.02c3.92,4.91,8.15,7.4,12.56,7.4c6.69,0,11.83-6.05,11.84-8.52c0.01-2.38-4.24-18.41-10.32-34.98
							c-7.65-20.83-15.23-34.58-21.34-38.69c-3.86-2.6-11.6-3.86-23.67-3.86c-10.75,0-23.53,1.01-34.8,1.91
							c-9.66,0.77-18.78,1.49-25.35,1.49c-4.12,0-6.99-0.29-8.76-0.88c-1.41-0.48-4.66-2.29-9.93-5.55l-0.48-0.3
							c-0.26-0.16-0.53-0.33-0.8-0.5c-10.01,3.27-20.05,7.22-29.85,11.72c-0.02,0.01-0.05,0.02-0.07,0.03
							c-8.43,3.88-16.85,8.26-25.04,13.03c-4.72,2.75-9.5,5.71-14.19,8.8c-0.01,0.01-0.03,0.02-0.04,0.03
							c-2.05,1.35-4.06,2.71-5.99,4.04C126.35,52.9,123.29,55.1,120.3,57.34z M265.05,83.61c2.37,0.22,5.32,0.41,8.44,0.61
							c2.51,0.16,5.1,0.33,7.81,0.53c10.38,0.79,22.63,2.21,29.48,6.05c-0.6-1.05-1.19-2.15-1.75-3.3
							c-8.85-17.91-15.07-33.07-16.25-35.99c-4.27,0.69-32.84,5.56-35.76,13.16c-2.13,5.55-4.03,11.28-1.95,14.87
							c1.12,1.94,3.32,3.14,6.72,3.67c0.83,0.13,1.84,0.25,3.2,0.38C265.01,83.6,265.03,83.6,265.05,83.61z"/>
					</g>
				</g>
			</g>
		</g>
	</g>
	<g>
		<g>
			<g>
				<g>
					<path class="st6" d="M294.7,62.46l-21.57,59.59c0,0,31.1,3.15,51.23,19.89c20.13,16.74,32.02,37.69,83.77,48.72l23.44-64.75
						c0,0-46.12-13.58-63.22-33.13C351.24,73.23,314.09,60.86,294.7,62.46z"/>
				</g>
			</g>
			<g>
				<g>
					<path class="st2" d="M408.13,191.34c-0.05,0-0.09-0.01-0.14-0.02c-41.52-8.85-57.3-23.87-72.55-38.39
						c-3.85-3.66-7.48-7.12-11.51-10.47c-19.74-16.42-50.55-19.7-50.86-19.74c-0.21-0.02-0.4-0.14-0.51-0.31
						c-0.11-0.18-0.14-0.4-0.06-0.59l21.57-59.59c0.09-0.25,0.32-0.42,0.58-0.45c1.13-0.09,2.35-0.14,3.61-0.14
						c10.21,0,23.96,3.13,36.79,8.38c14.34,5.86,26.35,13.79,33.81,22.32c16.78,19.18,62.45,32.79,62.9,32.93
						c0.18,0.05,0.33,0.18,0.41,0.34c0.08,0.17,0.1,0.36,0.03,0.54l-23.44,64.75C408.67,191.16,408.41,191.34,408.13,191.34z
						 M274.06,121.47c5.18,0.67,32.54,4.82,50.73,19.94c4.07,3.38,7.72,6.86,11.58,10.53c15.05,14.33,30.61,29.14,71.32,37.93
						l22.99-63.51c-5.84-1.8-46.97-14.96-62.85-33.13C352.25,75.41,318.66,63,298.25,63c-1.06,0-2.09,0.03-3.06,0.1L274.06,121.47z"
						/>
				</g>
			</g>
		</g>
		<g>
			<g>
				<g>
					<g>
						<path class="st7" d="M409.09,133.39l-0.66,0.17c-3.4-7.43-11.75-11.62-19.94-9.52c-8.19,2.1-13.5,9.78-12.91,17.94l-0.83,0.21
							l1.71,6.67l0.98-0.25c3.59,7,11.67,10.86,19.61,8.82c7.93-2.03,13.16-9.3,12.94-17.17l0.81-0.21L409.09,133.39z
							 M389.27,127.09c6.5-1.67,13.13,1.51,16.05,7.26l-0.83,0.21c-2.79-5.31-8.96-8.22-15.02-6.67
							c-6.06,1.55-10.07,7.08-9.96,13.08l-0.83,0.21C378.48,134.74,382.76,128.76,389.27,127.09z M381.94,140.35
							c0.17-4.67,3.38-8.89,8.13-10.11c4.76-1.22,9.6,0.93,11.99,4.95L381.94,140.35z M403.53,141.92
							c-0.48,4.35-3.59,8.16-8.08,9.31c-4.48,1.15-9.04-0.7-11.56-4.28L403.53,141.92z M396.26,154.38
							c-6.24,1.6-12.59-1.26-15.68-6.58l0.84-0.21c2.95,4.87,8.84,7.47,14.64,5.99c5.79-1.49,9.71-6.6,9.95-12.29l0.84-0.21
							C406.7,147.22,402.5,152.78,396.26,154.38z"/>
					</g>
				</g>
			</g>
		</g>
		<g>
			<g>
				<g>
					<g>
						<g>
							<path class="st7" d="M426.18,128.09c-0.23-0.44-0.63-0.78-1.11-0.94c-0.42-0.14-42.18-14.03-57.4-31.16
								c-15.74-17.7-50.2-30.9-69.35-30.45c-0.78,0.02-1.46,0.5-1.71,1.2l0,0.01l-18.09,51.03c-0.19,0.52-0.11,1.1,0.2,1.58
								c0.31,0.47,0.82,0.79,1.39,0.85c0.28,0.03,27.75,3.4,45.64,18.3c3.84,3.2,7.33,6.55,11.03,10.11
								c13.67,13.14,28.99,27.95,67.17,37.62c0.95,0.24,1.7-0.35,2.07-1.22l0-0.01l20.08-55.59
								C426.26,128.97,426.4,128.54,426.18,128.09z M339.43,146.05c-3.75-3.6-7.29-7-11.23-10.29
								c-12.44-10.35-28.81-15.34-38.79-17.57c0.35-2.37,0.13-6.19-3.97-8.6l12.61-35.57c5.03,0.93,7.77-2.08,9.05-4.19
								c18.6,2.76,45.04,14.27,57.72,28.53c12.05,13.55,38.72,24.74,51.73,29.63c-0.4,2.18-0.45,5.99,3.2,8.56l-13.93,38.94
								c-5.04-0.39-7.51,3.32-8.43,5.19C365.79,171.37,352.4,158.51,339.43,146.05z"/>
						</g>
					</g>
				</g>
			</g>
			<g>
				<g>
					<g>
						<g>
							<path class="st2" d="M404.36,186.98L404.36,186.98c-0.19,0-0.39-0.03-0.59-0.07c-38.22-9.68-53.68-24.54-67.33-37.66
								l-0.14-0.14c-3.69-3.54-7.17-6.89-10.99-10.08c-17.75-14.78-45.02-18.11-45.29-18.14c-0.78-0.09-1.46-0.51-1.88-1.16
								c-0.43-0.65-0.53-1.45-0.27-2.17l18.09-51.03c0.36-0.99,1.28-1.64,2.34-1.67c19.48-0.45,53.99,12.81,69.88,30.68
								c15.18,17.07,56.69,30.83,57.11,30.96c0.66,0.22,1.19,0.67,1.5,1.28c0.37,0.72,0.12,1.42-0.04,1.87l-20.08,55.59
								c0,0.01-0.01,0.03-0.02,0.04C406.18,186.35,405.33,186.98,404.36,186.98z M299.28,66.22c-0.32,0-0.64,0-0.95,0.01
								c-0.5,0.01-0.93,0.31-1.09,0.75l-18.09,51.03c-0.12,0.32-0.07,0.68,0.12,0.98c0.2,0.3,0.54,0.51,0.9,0.55
								c0.28,0.03,27.94,3.41,46,18.45c3.86,3.21,7.36,6.58,11.07,10.14l0.14,0.14c13.52,13,28.85,27.73,66.72,37.32
								c0.09,0.02,0.17,0.03,0.25,0.03c0.59,0,0.92-0.6,1.03-0.86l20.07-55.56c0.15-0.42,0.2-0.63,0.11-0.79
								c-0.14-0.28-0.41-0.5-0.72-0.61c-0.42-0.14-42.28-14.01-57.7-31.35C351.77,79.15,318.63,66.22,299.28,66.22z M397.37,181.36
								c-0.06,0-0.13-0.01-0.19-0.03c-31.74-9.36-45.2-22.29-58.22-34.8c-3.75-3.61-7.28-6.99-11.2-10.26
								c-12.61-10.5-29.54-15.42-38.5-17.43c-0.35-0.08-0.58-0.41-0.52-0.76c0.36-2.43,0.01-5.77-3.64-7.91
								c-0.28-0.16-0.41-0.51-0.3-0.81l12.61-35.57c0.11-0.31,0.43-0.5,0.76-0.44c0.58,0.11,1.15,0.16,1.7,0.16
								c3.48,0,5.54-2.19,6.64-4.04c0.14-0.24,0.41-0.36,0.68-0.32c18.44,2.73,45.22,14.23,58.12,28.75
								c11.74,13.2,37.28,24.12,51.46,29.45c0.31,0.12,0.49,0.44,0.43,0.76c-0.43,2.35-0.28,5.63,2.92,7.88
								c0.25,0.18,0.35,0.5,0.25,0.78l-13.93,38.94c-0.1,0.29-0.39,0.47-0.69,0.45c-0.23-0.02-0.46-0.03-0.68-0.03
								c-4.1,0-6.2,3.03-7.09,4.84C397.86,181.22,397.62,181.36,397.37,181.36z M290.15,117.66c11.06,2.53,26.5,7.61,38.48,17.57
								c3.96,3.29,7.5,6.7,11.25,10.3c12.85,12.34,26.11,25.09,57.15,34.34c1.05-1.89,3.58-5.22,8.31-5.09l13.59-37.99
								c-3.27-2.57-3.45-6.13-3.14-8.37c-14.39-5.44-39.69-16.36-51.48-29.62c-12.6-14.17-38.69-25.44-56.87-28.25
								c-1.16,1.77-3.53,4.31-7.56,4.31c-0.44,0-0.9-0.03-1.37-0.09l-12.24,34.52C289.96,111.74,290.36,115.35,290.15,117.66z"/>
						</g>
					</g>
				</g>
			</g>
		</g>
		<g>
			<g>
				<g>
					<path class="st2" d="M358.89,120.06c-0.09,0-0.19-0.02-0.28-0.06c-2.53-1.15-5.2-3.46-8.28-6.12c-3.2-2.76-6.82-5.9-11.27-8.64
						c-8.64-5.32-30.39-10.96-30.61-11.02c-0.36-0.09-0.58-0.46-0.49-0.83c0.09-0.36,0.46-0.58,0.83-0.49
						c0.9,0.23,22.17,5.75,30.98,11.18c4.55,2.8,8.21,5.97,11.45,8.77c3,2.6,5.6,4.84,7.95,5.91c0.34,0.16,0.49,0.56,0.34,0.9
						C359.4,119.91,359.15,120.06,358.89,120.06z"/>
				</g>
			</g>
		</g>
		<g>
			<g>
				<g>
					<path class="st2" d="M403.73,139.31c-0.03,0-0.06,0-0.09-0.01c-9.06-1.13-33.15-12.27-34.17-12.74
						c-0.34-0.16-0.49-0.56-0.33-0.9c0.16-0.34,0.56-0.49,0.9-0.33c0.25,0.12,24.92,11.52,33.77,12.62
						c0.37,0.05,0.64,0.39,0.59,0.76C404.36,139.06,404.07,139.31,403.73,139.31z"/>
				</g>
			</g>
		</g>
		<g>
			<g>
				<g>
					<path class="st2" d="M379.95,139.76c-0.07,0-0.13-0.01-0.2-0.03c-14.54-4.46-28.41-15.75-37.59-23.22
						c-9.52-7.75-35.95-15.42-36.22-15.5c-0.36-0.1-0.57-0.48-0.46-0.84c0.1-0.36,0.48-0.57,0.84-0.46
						c1.1,0.32,26.97,7.83,36.7,15.75c9.1,7.41,22.85,18.6,37.13,22.98c0.36,0.11,0.56,0.49,0.45,0.85
						C380.51,139.57,380.24,139.76,379.95,139.76z"/>
				</g>
			</g>
		</g>
		<g>
			<g>
				<g>
					<path class="st2" d="M358.32,147.51c-0.42,0.52-0.9,0.78-1.47,0.78c-0.56,0-1.08-0.18-1.56-0.57
						c-0.42-0.33-0.69-0.73-0.84-1.18c-0.14-0.45-0.13-0.9,0.05-1.34l1.21,0.48c-0.08,0.2-0.1,0.4-0.04,0.61
						c0.05,0.21,0.16,0.38,0.33,0.51c0.19,0.15,0.4,0.22,0.62,0.21c0.22-0.01,0.42-0.12,0.58-0.33c0.2-0.25,0.25-0.49,0.16-0.74
						c-0.09-0.25-0.27-0.48-0.53-0.68c-0.37-0.3-0.79-0.52-1.26-0.69l2.18-2.49l2.76,2.22l-0.74,0.92l-1.81-1.45l-0.61,0.68
						c0.15,0.07,0.31,0.17,0.49,0.32c0.47,0.38,0.76,0.82,0.87,1.31C358.82,146.57,358.68,147.05,358.32,147.51z"/>
				</g>
			</g>
			<g>
				<g>
					<path class="st2" d="M359.94,149.5l-2.04,1.36l-0.87-0.67l1.89-1.47L359.94,149.5z"/>
				</g>
			</g>
			<g>
				<g>
					<path class="st2" d="M365.67,150.3c-0.14,0.34-0.34,0.67-0.59,1.02c-0.25,0.34-0.52,0.63-0.79,0.87
						c-0.28,0.24-0.57,0.42-0.88,0.55c-0.31,0.13-0.63,0.17-0.96,0.13c-0.34-0.04-0.66-0.18-0.98-0.42
						c-0.42-0.31-0.69-0.68-0.8-1.12c-0.11-0.44-0.1-0.88,0.05-1.32c0.15-0.44,0.39-0.9,0.73-1.36c0.25-0.34,0.51-0.63,0.79-0.87
						c0.28-0.24,0.57-0.42,0.88-0.54c0.31-0.13,0.63-0.16,0.96-0.12c0.34,0.05,0.66,0.19,0.98,0.42c0.32,0.23,0.55,0.5,0.7,0.81
						c0.14,0.3,0.2,0.62,0.17,0.95C365.9,149.64,365.81,149.97,365.67,150.3z M363.96,150.49c0.13-0.17,0.24-0.34,0.33-0.51
						c0.1-0.17,0.18-0.35,0.25-0.55c0.07-0.2,0.1-0.38,0.07-0.55c-0.02-0.17-0.1-0.3-0.24-0.4c-0.14-0.1-0.29-0.14-0.46-0.11
						c-0.17,0.03-0.34,0.1-0.5,0.23c-0.16,0.13-0.31,0.26-0.45,0.41c-0.13,0.14-0.26,0.3-0.39,0.47c-0.13,0.17-0.24,0.34-0.33,0.52
						c-0.1,0.17-0.18,0.36-0.25,0.56c-0.07,0.2-0.1,0.38-0.07,0.55c0.02,0.17,0.11,0.3,0.25,0.41c0.14,0.1,0.29,0.14,0.46,0.11
						c0.17-0.03,0.34-0.11,0.5-0.24c0.17-0.13,0.32-0.27,0.45-0.41C363.7,150.83,363.83,150.67,363.96,150.49z"/>
				</g>
			</g>
			<g>
				<g>
					<path class="st2" d="M369.87,153.17c-0.13,0.34-0.31,0.68-0.55,1.03c-0.24,0.35-0.49,0.65-0.76,0.9
						c-0.27,0.25-0.56,0.44-0.86,0.58c-0.3,0.14-0.62,0.19-0.96,0.16c-0.34-0.03-0.67-0.16-1-0.38c-0.43-0.29-0.71-0.66-0.84-1.09
						c-0.13-0.44-0.13-0.88,0-1.32c0.13-0.45,0.36-0.91,0.68-1.39c0.24-0.35,0.49-0.65,0.76-0.89c0.27-0.24,0.55-0.43,0.86-0.57
						c0.3-0.14,0.62-0.19,0.96-0.15c0.34,0.04,0.67,0.16,1,0.39c0.33,0.22,0.57,0.48,0.72,0.78c0.15,0.3,0.22,0.61,0.21,0.94
						C370.07,152.5,370,152.83,369.87,153.17z M368.16,153.42c0.12-0.18,0.22-0.35,0.31-0.52c0.09-0.17,0.17-0.36,0.23-0.55
						c0.07-0.2,0.08-0.38,0.05-0.55c-0.03-0.17-0.11-0.3-0.25-0.39c-0.14-0.09-0.29-0.13-0.46-0.09c-0.17,0.03-0.34,0.12-0.5,0.25
						c-0.16,0.13-0.3,0.27-0.43,0.42c-0.13,0.15-0.25,0.31-0.37,0.48c-0.12,0.18-0.22,0.35-0.31,0.53
						c-0.09,0.18-0.17,0.36-0.24,0.56c-0.07,0.2-0.09,0.39-0.06,0.55c0.03,0.17,0.12,0.3,0.26,0.4c0.14,0.09,0.29,0.13,0.46,0.09
						c0.17-0.03,0.33-0.12,0.49-0.26s0.31-0.28,0.43-0.43C367.91,153.76,368.03,153.6,368.16,153.42z"/>
				</g>
			</g>
			<g>
				<g>
					<path class="st2" d="M374.22,155.92c-0.12,0.34-0.29,0.7-0.51,1.06c-0.22,0.36-0.47,0.67-0.73,0.93
						c-0.26,0.26-0.54,0.46-0.84,0.62c-0.3,0.15-0.61,0.22-0.95,0.2c-0.34-0.02-0.67-0.13-1.01-0.34c-0.44-0.28-0.74-0.63-0.88-1.06
						c-0.14-0.43-0.16-0.87-0.05-1.32c0.11-0.45,0.32-0.92,0.63-1.41c0.22-0.36,0.47-0.67,0.73-0.92c0.26-0.25,0.54-0.46,0.83-0.6
						c0.3-0.15,0.62-0.21,0.95-0.19c0.34,0.02,0.68,0.14,1.01,0.35c0.34,0.21,0.59,0.46,0.75,0.76c0.17,0.29,0.25,0.6,0.24,0.94
						S374.34,155.58,374.22,155.92z M372.52,156.23c0.11-0.18,0.21-0.36,0.29-0.53c0.08-0.18,0.16-0.36,0.21-0.56
						c0.06-0.2,0.07-0.38,0.03-0.55c-0.04-0.17-0.13-0.3-0.27-0.38c-0.14-0.09-0.3-0.11-0.47-0.08c-0.17,0.04-0.33,0.13-0.49,0.27
						c-0.15,0.14-0.29,0.29-0.42,0.44c-0.12,0.15-0.24,0.32-0.35,0.5c-0.11,0.18-0.21,0.36-0.29,0.54
						c-0.08,0.18-0.15,0.37-0.21,0.57c-0.06,0.2-0.07,0.39-0.03,0.56c0.04,0.17,0.13,0.3,0.28,0.39c0.14,0.09,0.3,0.11,0.46,0.07
						c0.17-0.04,0.33-0.13,0.48-0.27c0.16-0.14,0.3-0.29,0.42-0.44C372.29,156.59,372.41,156.42,372.52,156.23z"/>
				</g>
			</g>
			<g>
				<g>
					<path class="st2" d="M375.04,159.58l-1.85,1.6l-0.95-0.55l1.69-1.69L375.04,159.58z"/>
				</g>
			</g>
			<g>
				<g>
					<path class="st2" d="M380.93,159.64c-0.09,0.35-0.24,0.71-0.44,1.09c-0.2,0.37-0.42,0.7-0.66,0.98
						c-0.24,0.28-0.51,0.5-0.79,0.67c-0.29,0.17-0.6,0.26-0.94,0.26c-0.34,0-0.68-0.09-1.03-0.27c-0.46-0.25-0.78-0.58-0.95-1
						c-0.17-0.42-0.22-0.86-0.14-1.32c0.08-0.46,0.26-0.94,0.53-1.45c0.2-0.37,0.42-0.7,0.66-0.97c0.24-0.27,0.5-0.49,0.79-0.66
						c0.29-0.17,0.6-0.25,0.94-0.25c0.34,0,0.68,0.09,1.03,0.28c0.35,0.19,0.62,0.42,0.8,0.7c0.19,0.28,0.29,0.59,0.31,0.92
						C381.06,158.95,381.03,159.29,380.93,159.64z M379.26,160.07c0.1-0.19,0.19-0.37,0.26-0.55c0.07-0.18,0.13-0.37,0.17-0.58
						c0.04-0.2,0.04-0.39-0.01-0.55c-0.05-0.16-0.15-0.29-0.3-0.36c-0.15-0.08-0.31-0.09-0.47-0.04c-0.17,0.05-0.32,0.15-0.47,0.3
						c-0.14,0.15-0.27,0.31-0.39,0.46c-0.11,0.16-0.22,0.33-0.32,0.52c-0.1,0.19-0.18,0.37-0.25,0.56
						c-0.07,0.18-0.13,0.38-0.17,0.59c-0.05,0.21-0.04,0.39,0,0.56c0.05,0.16,0.15,0.29,0.3,0.37c0.15,0.08,0.3,0.09,0.47,0.04
						c0.16-0.05,0.32-0.15,0.46-0.31c0.15-0.15,0.27-0.31,0.38-0.47C379.05,160.44,379.16,160.26,379.26,160.07z"/>
				</g>
			</g>
			<g>
				<g>
					<path class="st2" d="M385.68,161.84c-0.07,0.36-0.19,0.73-0.37,1.11c-0.18,0.39-0.38,0.72-0.6,1.02
						c-0.23,0.29-0.47,0.53-0.75,0.72c-0.27,0.19-0.58,0.3-0.92,0.32c-0.34,0.03-0.69-0.04-1.05-0.21
						c-0.47-0.22-0.81-0.53-1.01-0.94c-0.2-0.41-0.27-0.84-0.22-1.31c0.05-0.46,0.2-0.96,0.44-1.48c0.18-0.39,0.38-0.72,0.6-1.01
						c0.22-0.29,0.47-0.52,0.75-0.71c0.28-0.19,0.58-0.29,0.92-0.31c0.34-0.02,0.69,0.05,1.05,0.21c0.36,0.16,0.64,0.38,0.85,0.65
						c0.2,0.27,0.32,0.57,0.36,0.9C385.76,161.14,385.75,161.49,385.68,161.84z M384.03,162.37c0.09-0.19,0.16-0.38,0.22-0.57
						c0.06-0.18,0.11-0.38,0.14-0.59c0.03-0.21,0.02-0.39-0.04-0.55c-0.06-0.16-0.16-0.28-0.32-0.35c-0.15-0.07-0.31-0.07-0.47-0.01
						s-0.31,0.17-0.45,0.33c-0.14,0.16-0.25,0.32-0.36,0.49c-0.1,0.17-0.2,0.34-0.28,0.54c-0.09,0.19-0.16,0.38-0.22,0.57
						c-0.06,0.19-0.1,0.39-0.14,0.6c-0.03,0.21-0.02,0.39,0.04,0.55c0.06,0.16,0.17,0.28,0.32,0.35c0.15,0.07,0.31,0.07,0.47,0.01
						c0.16-0.06,0.31-0.17,0.44-0.34c0.14-0.16,0.25-0.33,0.35-0.49C383.85,162.75,383.94,162.57,384.03,162.37z"/>
				</g>
			</g>
			<g>
				<g>
					<path class="st2" d="M390.56,163.67c-0.04,0.36-0.13,0.74-0.28,1.14c-0.14,0.4-0.32,0.75-0.52,1.06
						c-0.2,0.31-0.43,0.57-0.69,0.78c-0.26,0.21-0.55,0.34-0.89,0.39c-0.33,0.05-0.69,0.01-1.06-0.12
						c-0.49-0.18-0.85-0.46-1.08-0.85c-0.23-0.39-0.34-0.82-0.32-1.28c0.02-0.47,0.12-0.97,0.32-1.51c0.14-0.4,0.32-0.75,0.52-1.05
						c0.2-0.3,0.43-0.56,0.69-0.76c0.26-0.21,0.56-0.33,0.89-0.38c0.34-0.05,0.69-0.01,1.06,0.13c0.37,0.14,0.67,0.33,0.89,0.58
						c0.22,0.25,0.37,0.54,0.43,0.86C390.59,162.96,390.61,163.31,390.56,163.67z M388.97,164.33c0.07-0.2,0.13-0.39,0.18-0.58
						c0.05-0.19,0.08-0.39,0.09-0.6c0.01-0.21-0.01-0.39-0.08-0.55c-0.07-0.16-0.19-0.26-0.34-0.32c-0.16-0.06-0.32-0.05-0.47,0.02
						c-0.16,0.07-0.3,0.19-0.42,0.36c-0.12,0.17-0.23,0.34-0.32,0.51c-0.09,0.17-0.17,0.36-0.24,0.56c-0.07,0.2-0.13,0.4-0.17,0.59
						c-0.04,0.19-0.07,0.39-0.09,0.61c-0.02,0.21,0.01,0.39,0.08,0.55c0.07,0.16,0.19,0.26,0.35,0.32c0.16,0.06,0.31,0.05,0.47-0.02
						c0.15-0.07,0.29-0.2,0.42-0.37c0.12-0.17,0.23-0.35,0.31-0.52C388.81,164.72,388.89,164.53,388.97,164.33z"/>
				</g>
			</g>
			<g>
				<g>
					<path class="st2" d="M396.22,162.64l-0.1,0.54c0.71,0.16,1.27,0.47,1.68,0.95c-0.32,0.25-0.63,0.49-0.94,0.73
						c-0.1-0.15-0.24-0.29-0.42-0.4c-0.18-0.11-0.35-0.19-0.52-0.23l-0.24,1.28c0.25,0.13,0.45,0.25,0.6,0.35
						c0.15,0.1,0.32,0.24,0.5,0.41c0.18,0.17,0.3,0.37,0.37,0.59c0.07,0.22,0.07,0.47,0.02,0.74c-0.1,0.55-0.37,0.94-0.78,1.18
						c-0.42,0.23-0.88,0.31-1.4,0.23l-0.11,0.58l-0.59-0.11l0.11-0.58c-0.36-0.08-0.7-0.22-1.03-0.41c-0.33-0.19-0.6-0.43-0.81-0.7
						c0.45-0.32,0.79-0.56,1.01-0.72c0.12,0.18,0.27,0.35,0.47,0.49c0.2,0.15,0.39,0.24,0.56,0.28l0.27-1.4
						c-0.25-0.12-0.46-0.24-0.63-0.35c-0.17-0.11-0.33-0.25-0.48-0.41c-0.15-0.16-0.26-0.34-0.31-0.55
						c-0.05-0.21-0.06-0.44-0.01-0.7c0.09-0.49,0.35-0.85,0.77-1.09c0.42-0.24,0.87-0.32,1.33-0.25l0.1-0.55L396.22,162.64z
						 M395.12,165.27l0.22-1.16c-0.16-0.01-0.3,0.02-0.43,0.1c-0.13,0.08-0.21,0.2-0.24,0.37
						C394.61,164.87,394.76,165.11,395.12,165.27z M395.42,166.69l-0.24,1.27c0.18,0.03,0.34,0,0.46-0.1
						c0.12-0.09,0.21-0.23,0.24-0.42C395.94,167.14,395.79,166.89,395.42,166.69z"/>
				</g>
			</g>
		</g>
		<g>
			<g>
				<g>
					<path class="st2" d="M301.88,117.06c-0.14-0.12-0.23-0.29-0.26-0.49c-0.06-0.34,0.1-0.64,0.18-0.81
						c1.42-2.78,4.07-4.9,7.09-5.67c0.47-0.12,1.03-0.22,1.55-0.03c0.41,0.14,0.71,0.44,0.92,0.79c0.42-0.31,0.85-0.63,1.26-0.95
						c1.88-1.43,3.78-2.99,4.86-5.03l-12.34,5.18c-0.18,0.08-0.39-0.01-0.47-0.19c-0.08-0.18,0.01-0.39,0.19-0.47l13.19-5.53
						c0.13-0.06,0.28-0.03,0.39,0.07c0.1,0.1,0.13,0.25,0.08,0.38c-1.03,2.62-3.27,4.47-5.47,6.15c-0.47,0.36-0.95,0.72-1.43,1.07
						c0.06,0.27,0.07,0.55,0.04,0.81c-0.07,0.55-0.28,1.05-0.54,1.51l2.3-0.58c0.31-0.08,1.27-0.32,1.76,0.32
						c0.22,0.29,0.27,0.68,0.14,1.1c1.2,0.6,2.05,1.88,2.15,3.21c0.58-0.33,1.27-0.55,1.87-0.44c0.39,0.08,0.7,0.3,0.89,0.64
						c0.28,0.48,0.2,1,0.13,1.47c-0.04,0.27-0.08,0.52-0.05,0.75c0.11,0.94,1.23,1.47,3.33,1.58c2.58,0.13,5.1,0.69,7.5,1.65
						c1.06,0.42,1.6,1.05,1.53,1.77c-0.02,0.2-0.2,0.34-0.39,0.32c-0.19-0.02-0.34-0.2-0.32-0.39c0.05-0.52-0.74-0.9-1.08-1.04
						c-2.32-0.93-4.77-1.47-7.27-1.6c-0.93-0.05-3.76-0.19-4-2.2c-0.04-0.32,0.01-0.64,0.05-0.94c0.06-0.4,0.11-0.74-0.04-1.01
						c-0.1-0.17-0.23-0.26-0.42-0.3c-0.54-0.11-1.35,0.28-1.89,0.69c-0.11,0.09-0.27,0.1-0.39,0.03c-0.12-0.07-0.19-0.21-0.17-0.36
						c0.18-1.29-0.58-2.63-1.74-3.2c-0.97,1.41-2.85,2.1-4.51,1.63c-0.1-0.03-0.18-0.1-0.23-0.2c-0.04-0.1-0.04-0.21,0-0.3
						c0.76-1.57,2.7-2.45,4.38-2.02c0.04-0.16,0.04-0.31-0.04-0.42c-0.13-0.18-0.48-0.2-1.01-0.06l-3.14,0.79
						c-0.14,0.04-0.29-0.02-0.38-0.14c-0.09-0.12-0.09-0.28-0.01-0.4c0.38-0.59,0.8-1.25,0.89-1.96c0.01-0.08,0.01-0.16,0.01-0.25
						c-2.34,1.71-4.75,3.35-7.18,4.9c-0.46,0.29-1.18,0.5-1.69,0.28C302.02,117.17,301.95,117.12,301.88,117.06z M310.52,110.92
						c-0.09-0.08-0.19-0.14-0.31-0.18c-0.34-0.12-0.75-0.05-1.14,0.05c-2.83,0.72-5.31,2.71-6.64,5.31
						c-0.07,0.13-0.13,0.27-0.11,0.36c0.01,0.06,0.03,0.08,0.03,0.08c0.25,0.11,0.72,0,1.06-0.21c2.5-1.59,4.98-3.29,7.38-5.05
						C310.72,111.14,310.63,111.01,310.52,110.92z M314.29,115.1c-1.17-0.22-2.45,0.31-3.14,1.28
						C312.31,116.52,313.56,116.02,314.29,115.1z"/>
				</g>
			</g>
		</g>
	</g>
	<g>
		<g>
			<g>
				<g>
					<path class="st1" d="M296.36,59.2c0,0,6.11,34.65,22.93,36.17c16.81,1.53,19.87-10.19,13.76-28.02
						c-6.11-17.83-11.72-28.53-11.72-28.53L296.36,59.2z"/>
				</g>
			</g>
		</g>
		<g>
			<g>
				<g>
					<path class="st2" d="M322.1,96.19c-0.92,0-1.87-0.05-2.87-0.14c-7.25-0.66-13.41-7.08-18.34-19.08
						c-3.62-8.82-5.18-17.57-5.2-17.65c-0.07-0.37,0.18-0.72,0.55-0.79c0.37-0.07,0.72,0.18,0.79,0.55
						c0.06,0.34,6.22,34.15,22.32,35.62c6.37,0.58,10.88-0.77,13.42-4c3.44-4.38,3.31-12.38-0.37-23.12
						c-6.02-17.57-11.62-28.33-11.68-28.44c-0.17-0.33-0.05-0.74,0.29-0.92c0.33-0.17,0.74-0.05,0.92,0.29
						c0.06,0.11,5.7,10.95,11.76,28.63c3.9,11.36,3.95,19.57,0.16,24.4C331.42,94.63,327.47,96.19,322.1,96.19z"/>
				</g>
			</g>
		</g>
	</g>
	<g>
		<g>
			<g>
				<g>
					<g>
						<g>
							<path class="st1" d="M105.54,440.46c0,0,69.74,15.06,113.99-1.16l0.5-101.58c0,0,14.2-19.35,11.55-66.54
								s-14.47-37.21-17.32-76.7s-34.1-23.58-32.19,2.18c1.91,25.75,15.79,52.67,1.11,57.44c0,0-6.7-6.17-17.14-16.72
								c-10.44-10.55-15.13-11.53-19.18-20.63c-4.05-9.1-4.86-17.31-4.65-25.44c0.21-8.13,28.13,8.81,28.13-19.37
								c0-17.71-51.51-14.93-56.15-0.91c-4.64,14.02-4.63,30.21-4.63,30.21s-18.78-2.62-18.86,17.08c0,0-21.57,5.88-17.85,27.82
								c0,0-23,11.41-8.69,38.34c14.31,26.93,35.15,49.74,41.32,59.75L105.54,440.46z"/>
						</g>
					</g>
				</g>
				<g>
					<g>
						<g>
							<path class="st2" d="M167.79,447.09C167.78,447.09,167.78,447.09,167.79,447.09c-32.47,0-62.08-6.14-62.37-6.2
								c-0.28-0.06-0.49-0.23-0.49-0.52l-0.06-96.02c-2.03-3.26-5.55-7.79-9.98-13.52c-9.13-11.81-21.64-27.98-31.26-46.08
								c-4.73-8.9-5.95-17.08-3.62-24.32c2.9-9.03,10.33-13.61,12.17-14.63c-1.77-11.36,3.25-18.37,7.81-22.27
								c4.21-3.6,8.69-5.22,10.11-5.67c0.29-15.65,12.19-17.36,17.33-17.36c0.63,0,1.15,0.03,1.53,0.05
								c0.06-3.23,0.57-17.39,4.65-29.72c2.55-7.72,18.18-11.88,31.59-11.88c6.93,0,13.22,1.07,17.7,3.01
								c5.28,2.28,8.06,5.73,8.06,9.97c0,7.05-1.68,11.87-5.14,14.74c-3.36,2.79-7.83,3.11-10.91,3.11c-1.64,0-3.21-0.1-4.73-0.2
								c-1.27-0.08-2.48-0.16-3.52-0.16c-3.15,0-3.8,0.72-3.83,1.89c-0.17,6.54,0.21,15.3,4.6,25.17c2.58,5.79,5.36,8.17,9.96,12.1
								c2.42,2.07,5.43,4.64,9.1,8.34c9.16,9.25,15.5,15.19,16.85,16.45c8.87-3.21,6.06-15.69,2.52-31.44
								c-1.76-7.81-3.75-16.66-4.39-25.25c-0.59-7.94,1.99-15.83,6.89-21.11c3.33-3.59,7.31-5.56,11.2-5.56
								c8.5,0,14.23,9.12,15.33,24.41c1.34,18.55,4.61,26,8.08,33.88c3.85,8.76,7.84,17.82,9.24,42.83
								c1.37,24.47-1.85,41.34-4.81,51.18c-2.92,9.75-6.09,14.64-6.75,15.59l-0.5,101.38c0,0.26-0.16,0.31-0.41,0.4
								C206.06,444.72,188.58,447.09,167.79,447.09z M106.16,439.88c3.97,0.82,31.57,6.17,61.62,6.17c0,0,0.01,0,0.01,0
								c20.44,0,37.64-2.39,51.13-7.26l0.5-101.11c0-0.13,0.04-0.24,0.12-0.34c0.04-0.05,3.55-4.92,6.7-15.46
								c2.91-9.74,6.09-26.43,4.73-50.66c-1.39-24.79-5.33-33.74-9.14-42.4c-3.51-7.99-6.83-15.53-8.18-34.29
								c-1.05-14.56-6.32-23.26-14.1-23.26c-3.54,0-7.2,1.84-10.29,5.17c-4.68,5.04-7.13,12.58-6.57,20.18
								c0.63,8.5,2.61,17.3,4.36,25.07c3.58,15.91,6.67,29.64-3.68,33c-0.21,0.07-0.44,0.02-0.61-0.13
								c-0.07-0.06-6.83-6.3-17.16-16.74c-3.63-3.67-6.62-6.22-9.02-8.27c-4.57-3.91-7.59-6.49-10.29-12.54
								c-4.5-10.1-4.88-19.04-4.71-25.71c0.08-3.1,3.57-3.1,5.06-3.1c1.08,0,2.31,0.08,3.6,0.16c1.5,0.1,3.06,0.2,4.66,0.2
								c7.32,0,14.81-1.97,14.81-16.62c0-8.67-13.21-11.75-24.53-11.75c-6.9,0-14.04,1.09-19.58,2.99
								c-5.94,2.04-9.79,4.89-10.83,8.04c-4.56,13.77-4.6,29.85-4.6,30.01c0,0.18-0.08,0.35-0.21,0.47
								c-0.13,0.12-0.31,0.17-0.49,0.15c-0.01,0-0.81-0.11-2.06-0.11c-4.82,0-16.04,1.62-16.1,16.58c0,0.28-0.19,0.52-0.46,0.59
								c-0.05,0.01-5.35,1.5-10.11,5.58c-6.34,5.44-8.79,12.68-7.29,21.54c0.05,0.27-0.09,0.54-0.33,0.66
								c-0.09,0.04-8.87,4.51-11.96,14.14c-2.22,6.91-1.02,14.77,3.54,23.36c9.57,18.01,22.04,34.14,31.15,45.92
								c4.53,5.85,8.1,10.47,10.15,13.8c0.06,0.1,0.09,0.17,0.09,0.28L106.16,439.88z"/>
						</g>
					</g>
				</g>
			</g>
			<g>
				<g>
					<g>
						<path class="st2" d="M105.3,302.11c-4.6,0-9.04-1.36-12.87-3.99c-6.45-4.43-10.71-11.91-11.98-21.06
							c-0.05-0.34,0.19-0.65,0.53-0.7c0.34-0.05,0.65,0.19,0.7,0.53c1.22,8.8,5.29,15.97,11.46,20.21
							c5.13,3.52,11.14,4.62,17.39,3.16c3.02-0.7,5.18-2.25,6.42-4.59c3.07-5.8-0.31-14.68-0.34-14.77
							c-0.1-0.26-0.01-0.55,0.21-0.72c0.22-0.17,0.53-0.16,0.75,0.01c0.36,0.28,8.89,6.82,16.55-1.84
							c7.78-8.79-1.44-26.15-1.53-26.33c-0.15-0.28-0.07-0.63,0.2-0.8c9.27-6.32,9.28-14.82,7.66-20.84
							c-1.76-6.52-6.35-13.52-12.61-19.19c-6.03-5.46-12.88-8.96-18.31-9.36c-0.34-0.02-0.6-0.32-0.57-0.66
							c0.02-0.34,0.32-0.6,0.66-0.57c5.79,0.42,12.73,3.95,19.05,9.67c6.43,5.82,11.15,13.03,12.97,19.78
							c1.7,6.31,1.71,15.18-7.71,21.87c1.53,3.02,8.8,18.57,1.12,27.24c-6.47,7.31-13.67,4.64-16.73,2.95
							c0.88,2.99,2.25,9.36-0.27,14.12c-1.42,2.68-3.85,4.43-7.23,5.22C108.96,301.9,107.11,302.11,105.3,302.11z"/>
					</g>
				</g>
			</g>
			<g>
				<g>
					<g>
						<path class="st2" d="M160.36,326.32c-0.31,0-0.58-0.24-0.61-0.56c-2.14-21.06,5.19-35.36,11.73-43.64
							c7.09-8.98,14.57-12.91,14.88-13.07c0.3-0.16,0.68-0.04,0.83,0.26c0.16,0.3,0.04,0.68-0.26,0.83c-0.08,0.04-7.6,4-14.52,12.79
							c-6.37,8.1-13.53,22.08-11.43,42.7c0.03,0.34-0.21,0.64-0.55,0.68C160.4,326.32,160.38,326.32,160.36,326.32z"/>
					</g>
				</g>
			</g>
			<g>
				<g>
					<g>
						<path class="st2" d="M133.12,252.36c-0.21,0-0.41-0.11-0.53-0.3c-4.8-7.92-17.91-26.83-35.87-31.28
							c-0.33-0.08-0.53-0.42-0.45-0.75c0.08-0.33,0.42-0.53,0.75-0.45c18.41,4.56,31.75,23.78,36.63,31.84
							c0.18,0.29,0.08,0.67-0.21,0.85C133.34,252.34,133.23,252.36,133.12,252.36z"/>
					</g>
				</g>
			</g>
			<g>
				<g>
					<g>
						<path class="st2" d="M117.17,281.31c-0.23,0-0.46-0.13-0.56-0.36c-12.97-28.62-27.21-39.81-43.56-34.22
							c-0.32,0.11-0.67-0.06-0.78-0.38c-0.11-0.32,0.06-0.67,0.38-0.78c17.05-5.84,31.8,5.57,45.08,34.88
							c0.14,0.31,0,0.68-0.31,0.82C117.34,281.29,117.25,281.31,117.17,281.31z"/>
					</g>
				</g>
			</g>
		</g>
		<g>
			<g>
				<g>
					<g>
						<g>
							<polygon class="st8" points="134.67,210.46 135.12,197.48 178.58,174.73 178.64,174.65 178.67,174.65 328.51,166.8 
								328.07,179.77 327.8,179.76 328.01,179.77 283.96,215.64 134.59,210.53 							"/>
						</g>
					</g>
				</g>
				<g>
					<g>
						<g>
							<path class="st2" d="M283.96,216.78c-0.01,0-0.01,0-0.02,0l-149.37-5.38c-0.26-0.01-0.48-0.31-0.56-0.55
								c-0.06-0.18-0.03-0.44,0.06-0.59l0.44-12.77c0.01-0.22,0.13-0.44,0.33-0.54l43.33-22.68c0.12-0.15,0.3-0.23,0.5-0.23
								l149.82-7.85c0.17-0.01,0.34,0.05,0.47,0.18c0.12,0.12,0.19,0.29,0.18,0.46l-0.44,12.96c-0.01,0.16-0.08,0.32-0.2,0.43
								c-0.06,0.06-0.14,0.1-0.22,0.13l-43.92,36.03C284.24,216.47,284.1,216.78,283.96,216.78z M135.31,209.93l148.44,5.09
								l43.44-35.38c0.03-0.17,0.14-0.32,0.28-0.4l0.4-11.78l-148.96,7.8c-0.01,0.01-0.03,0.02-0.05,0.03l-43.14,22.58
								L135.31,209.93z"/>
						</g>
					</g>
				</g>
			</g>
			<g>
				<g>
					<g>
						<g>
							<g>
								<polygon class="st9" points="179.08,161.68 328.46,166.8 284.41,202.6 135.03,197.48 								"/>
							</g>
						</g>
					</g>
					<g>
						<g>
							<g>
								<path class="st2" d="M284.41,203.21c-0.01,0-0.01,0-0.02,0l-149.37-5.12c-0.26-0.01-0.48-0.18-0.56-0.42
									c-0.08-0.24,0-0.51,0.2-0.68l44.05-35.8c0.12-0.09,0.26-0.14,0.41-0.14l149.37,5.12c0.26,0.01,0.48,0.18,0.56,0.42
									c0.08,0.24,0,0.51-0.2,0.68l-44.05,35.8C284.69,203.17,284.55,203.21,284.41,203.21z M136.7,196.92l147.49,5.05l42.59-34.61
									l-147.49-5.05L136.7,196.92z"/>
							</g>
						</g>
					</g>
				</g>
				<g>
					<g>
						<g>
							<g>
								<path class="st9" d="M176.41,168.12l-29.27,23.79c4.05,0.14,5.27,2.03,2.71,4.11c-0.03,0.02-0.03-0.28-0.32,0.16
									l124.79,4.28c0.28-0.44,0.17-0.14,0.2-0.16c2.51-2.04,7.97-3.66,12.09-3.58l29.28-23.8c-3.98-0.2-5.27-2.06-2.76-4.1
									c0.11-0.09,0.17,0.1,0.3-0.35l-124.82-4.28c-0.11,0.45-0.04,0.26-0.15,0.35C185.9,166.61,180.46,168.26,176.41,168.12z"/>
							</g>
						</g>
					</g>
					<g>
						<g>
							<g>
								<path class="st2" d="M274.32,201.11c-0.01,0-0.01,0-0.02,0l-124.79-4.3c-0.22-0.01-0.42-0.15-0.53-0.34
									c-0.1-0.2-0.09-0.44,0.03-0.63c0.1-0.15,0.32-0.49,0.7-0.52c0.66-0.6,0.96-1.17,0.82-1.58c-0.17-0.51-1.17-1.14-3.42-1.21
									c-0.26-0.01-0.48-0.18-0.56-0.42c-0.08-0.24,0-0.51,0.2-0.68l29.27-23.79c0.12-0.09,0.26-0.14,0.41-0.14
									c3.83,0.13,9.09-1.43,11.57-3.39l0.02-0.07c0.07-0.29,0.33-0.48,0.62-0.47l124.82,4.28c0.19,0.01,0.37,0.1,0.48,0.26
									c0.11,0.16,0.15,0.35,0.09,0.54c-0.06,0.19-0.18,0.62-0.6,0.73c-0.73,0.62-1.07,1.22-0.93,1.65
									c0.17,0.52,1.17,1.16,3.42,1.28c0.26,0.01,0.48,0.18,0.56,0.42c0.08,0.24,0,0.51-0.2,0.67L287,197.18
									c-0.11,0.09-0.26,0.14-0.4,0.14c-3.99-0.07-9.29,1.5-11.69,3.45c-0.03,0.03-0.07,0.07-0.11,0.09
									C274.68,201.01,274.5,201.11,274.32,201.11z M151.13,195.61l122.88,4.21c0.1-0.11,0.22-0.19,0.39-0.22
									c2.68-2,7.88-3.53,12-3.51l27.96-22.73c-1.66-0.31-2.72-0.98-3.04-1.96c-0.15-0.46-0.22-1.33,0.69-2.37l-122.95-4.21
									c-0.06,0.1-0.14,0.19-0.28,0.25c-2.66,2.12-8.04,3.76-12.16,3.68l-27.93,22.7c1.64,0.28,2.69,0.94,3.02,1.91
									C151.86,193.79,151.93,194.61,151.13,195.61z"/>
							</g>
						</g>
					</g>
				</g>
				<g>
					<g>
						<g>
							<g>
								
									<ellipse transform="matrix(0.9751 -0.2217 0.2217 0.9751 -34.6315 55.9047)" class="st8" cx="231.68" cy="182.2" rx="32.32" ry="11.66"/>
							</g>
						</g>
					</g>
					<g>
						<g>
							<g>
								<path class="st2" d="M217.09,196.26c-0.66,0-1.31-0.01-1.94-0.03c-8.59-0.29-14.23-2.58-15.46-6.26
									c-0.65-1.94-0.38-5.1,4.63-9.17c8.73-7.1,27.16-12.66,41.94-12.66c0.66,0,1.31,0.01,1.94,0.03
									c8.59,0.29,14.23,2.58,15.46,6.26c0.65,1.94,0.38,5.1-4.63,9.17C250.3,190.7,231.88,196.26,217.09,196.26z M246.26,169.37
									c-14.54,0-32.62,5.44-41.16,12.38c-3.48,2.82-4.98,5.6-4.24,7.82c1.05,3.12,6.41,5.15,14.33,5.42
									c0.62,0.02,1.26,0.03,1.9,0.03c14.54,0,32.62-5.44,41.16-12.38c3.48-2.82,4.98-5.6,4.24-7.82
									c-1.05-3.12-6.41-5.15-14.33-5.42C247.54,169.38,246.9,169.37,246.26,169.37z"/>
							</g>
						</g>
					</g>
				</g>
				<g>
					<g>
						<g>
							<path class="st2" d="M275.48,182.52c1.87-1.52,5.87-2.67,8.93-2.57c3.06,0.1,4.02,1.42,2.15,2.95
								c-1.87,1.52-5.87,2.67-8.93,2.57C274.57,185.36,273.6,184.04,275.48,182.52z"/>
						</g>
					</g>
				</g>
				<g>
					<g>
						<g>
							<path class="st2" d="M180.54,179.26c1.87-1.52,5.87-2.67,8.93-2.57c3.06,0.1,4.02,1.42,2.15,2.95
								c-1.87,1.52-5.87,2.67-8.93,2.57C179.63,182.1,178.67,180.79,180.54,179.26z"/>
						</g>
					</g>
				</g>
			</g>
			<g>
				<g>
					<g>
						<path class="st2" d="M285.06,206.34c-0.01,0-0.01,0-0.02,0l-91.11-3.09c-0.34-0.01-0.61-0.28-0.6-0.63
							c0.01-0.34,0.29-0.6,0.64-0.59l90.88,3.12l43.02-34.64c0.27-0.21,0.65-0.17,0.87,0.09c0.21,0.27,0.17,0.66-0.09,0.87
							l-43.2,34.75C285.34,206.31,285.2,206.34,285.06,206.34z"/>
					</g>
				</g>
			</g>
			<g>
				<g>
					<g>
						<path class="st2" d="M182.7,203.2c-0.01,0-0.01,0-0.02,0l-47.69-1.79c-0.34-0.01-0.61-0.38-0.6-0.72
							c0.01-0.34,0.3-0.64,0.64-0.64l47.69,1.61c0.34,0.01,0.61,0.45,0.6,0.79C183.31,202.79,183.03,203.2,182.7,203.2z"/>
					</g>
				</g>
			</g>
			<g>
				<g>
					<g>
						<path class="st2" d="M285.15,210.51c-0.01,0-0.01,0-0.02,0l-36.44-1.28c-0.34-0.01-0.61-0.31-0.6-0.66
							c0.01-0.34,0.3-0.61,0.64-0.6l36.22,1.24l15.21-11.94c0.27-0.21,0.66-0.16,0.87,0.1c0.21,0.27,0.16,0.66-0.1,0.87
							l-15.39,12.11C285.42,210.43,285.28,210.51,285.15,210.51z"/>
					</g>
				</g>
			</g>
			<g>
				<g>
					<g>
						<path class="st2" d="M158.72,205.29c-0.01,0-0.01,0-0.02,0l-23.85-0.4c-0.34-0.01-0.61-0.09-0.6-0.43
							c0.01-0.34,0.3-0.5,0.64-0.49l23.85,0.87c0.34,0.01,0.61-0.09,0.6,0.25C159.32,205.41,159.05,205.29,158.72,205.29z"/>
					</g>
				</g>
			</g>
			<g>
				<g>
					<g>
						<path class="st2" d="M223.51,208.42c-0.01,0-0.01,0-0.02,0l-43.64-1.54c-0.34-0.01-0.61-0.32-0.6-0.66
							c0.01-0.34,0.3-0.62,0.64-0.61l43.64,1.49c0.34,0.01,0.61,0.34,0.6,0.68C224.11,208.12,223.84,208.42,223.51,208.42z"/>
					</g>
				</g>
			</g>
			<g>
				<g>
					<g>
						<path class="st2" d="M318.01,184.59c-0.18,0-0.37-0.08-0.49-0.24c-0.21-0.27-0.16-0.66,0.11-0.87l10.07-7.81
							c0.27-0.21,0.66-0.16,0.87,0.11c0.21,0.27,0.16,0.66-0.11,0.87l-10.07,7.81C318.28,184.55,318.15,184.59,318.01,184.59z"/>
					</g>
				</g>
			</g>
		</g>
		<g>
			<g>
				<g>
					<g>
						<path class="st1" d="M147.41,160.12c14.53,0.49,23.22,2.38,23.61,14.31c0.38,11.93-14.39,18.32-37.19,13.25L147.41,160.12z"/>
					</g>
				</g>
			</g>
			<g>
				<g>
					<g>
						<path class="st2" d="M148.56,190.05c-4.52,0-9.53-0.59-14.86-1.77c-0.33-0.07-0.54-0.4-0.47-0.74
							c0.07-0.33,0.41-0.54,0.74-0.47c14.19,3.16,25.9,2.01,32.13-3.15c2.94-2.44,4.43-5.72,4.31-9.48
							c-0.35-11.02-7.7-13.2-23.01-13.71c-0.34-0.01-0.61-0.3-0.6-0.64c0.01-0.34,0.3-0.61,0.64-0.6c7.41,0.25,13.2,0.84,17.36,2.93
							c4.48,2.25,6.65,6.05,6.84,11.98c0.13,4.16-1.51,7.78-4.76,10.47C162.75,188.3,156.38,190.05,148.56,190.05z"/>
					</g>
				</g>
			</g>
		</g>
		<g>
			<g>
				<g>
					<path class="st6" d="M97.23,449.8v-72.34h130.2v72.4C227.43,449.85,153.12,471.33,97.23,449.8z"/>
				</g>
			</g>
			<g>
				<g>
					<path class="st2" d="M155.93,460c-22.52,0-42.34-3.24-58.92-9.63c-0.24-0.09-0.4-0.32-0.4-0.58v-72.34
						c0-0.34,0.28-0.62,0.62-0.62h130.2c0.34,0,0.62,0.28,0.62,0.62v72.4c0,0.28-0.18,0.52-0.45,0.59
						C227.27,450.54,194.11,460,155.93,460z M97.85,449.37c16.36,6.23,35.9,9.39,58.08,9.39c35.59,0,66.81-8.26,70.88-9.38v-71.31
						H97.85V449.37z"/>
				</g>
			</g>
		</g>
		<g>
			<g>
				<g>
					<path class="st2" d="M226.97,400.31H97.23c-0.34,0-0.62-0.28-0.62-0.62s0.28-0.62,0.62-0.62h129.74c0.34,0,0.62,0.28,0.62,0.62
						S227.31,400.31,226.97,400.31z"/>
				</g>
			</g>
		</g>
		<g>
			<path class="st2" d="M215.02,380.96c-3.75,0-6.8,3.05-6.8,6.8s3.05,6.8,6.8,6.8c3.75,0,6.8-3.05,6.8-6.8
				S218.77,380.96,215.02,380.96z M215.02,393.31c-3.07,0-5.56-2.49-5.56-5.56c0-3.07,2.49-5.56,5.56-5.56
				c3.07,0,5.56,2.49,5.56,5.56C220.58,390.82,218.09,393.31,215.02,393.31z"/>
			<path class="st2" d="M217.46,384.96l-2.66,2.18l-2.18-2.14c-0.24-0.24-0.63-0.24-0.87,0.01c-0.24,0.24-0.24,0.63,0.01,0.87
				l2.08,2.04l-2.04,1.67c-0.26,0.22-0.3,0.61-0.09,0.87c0.12,0.15,0.3,0.23,0.48,0.23c0.14,0,0.28-0.05,0.39-0.14l2.15-1.76
				l2.28,2.24c0.12,0.12,0.28,0.18,0.43,0.18c0.16,0,0.32-0.06,0.44-0.19c0.24-0.24,0.24-0.63-0.01-0.87l-2.18-2.14l2.55-2.09
				c0.26-0.22,0.3-0.61,0.09-0.87C218.12,384.79,217.73,384.75,217.46,384.96z"/>
		</g>
	</g>
	<g>
		<g>
			<g>
				<g>
					<g>
						<path class="st3" d="M254.9,306.76c-3.91,0.88-8.23,2.31-12.62,4.26c-4.4,1.96-8.34,4.21-11.61,6.53l-12.96,5.77l3.54,7.96
							c2.24,5.02,15.28,4.09,29.13-2.07c13.29-5.92,22.49-14.5,21.24-19.63l0.06-0.04l-3.81-8.55L254.9,306.76z"/>
					</g>
				</g>
			</g>
			<g>
				<g>
					<g>
						<path class="st2" d="M229.42,335.19L229.42,335.19c-4.7,0-7.74-1.26-8.8-3.64l-3.54-7.96c-0.15-0.34,0-0.74,0.34-0.9
							l12.9-5.74c3.39-2.39,7.42-4.66,11.68-6.55c4.25-1.89,8.64-3.38,12.68-4.29l12.9-5.74c0.16-0.07,0.35-0.08,0.52-0.01
							c0.17,0.06,0.3,0.19,0.38,0.36l3.81,8.55c0.06,0.14,0.07,0.29,0.04,0.43c0.99,5.56-8.23,14.14-21.68,20.13
							C242.99,333.23,235.25,335.19,229.42,335.19z M218.6,323.66l3.27,7.34c0.81,1.83,3.5,2.83,7.56,2.83
							c5.65,0,13.18-1.91,20.67-5.25c12.66-5.64,22.02-14.09,20.86-18.84c-0.01-0.06-0.02-0.12-0.02-0.18l-3.42-7.67l-12.34,5.49
							c-0.04,0.02-0.08,0.03-0.13,0.04c-3.98,0.89-8.3,2.35-12.49,4.22c-4.2,1.87-8.17,4.1-11.5,6.46
							c-0.04,0.03-0.08,0.05-0.12,0.07L218.6,323.66z"/>
					</g>
				</g>
			</g>
		</g>
		<g>
			<g>
				<g>
					<g>
						
							<ellipse transform="matrix(0.9136 -0.4067 0.4067 0.9136 -106.0698 125.7872)" class="st4" cx="242.91" cy="312.45" rx="27.45" ry="9.95"/>
					</g>
				</g>
			</g>
			<g>
				<g>
					<g>
						<path class="st2" d="M226.01,327.53L226.01,327.53c-4.7,0-7.74-1.26-8.8-3.64c-1.21-2.71,0.44-6.43,4.63-10.46
							c4.03-3.88,9.97-7.67,16.74-10.69c7.66-3.41,15.4-5.37,21.23-5.37c4.7,0,7.74,1.26,8.8,3.64c2.42,5.45-6.97,14.74-21.38,21.15
							C239.58,325.57,231.84,327.53,226.01,327.53z M259.82,298.73c-5.65,0-13.18,1.91-20.67,5.25
							c-6.63,2.95-12.44,6.65-16.35,10.43c-3.7,3.56-5.28,6.82-4.33,8.93c0.81,1.83,3.5,2.83,7.56,2.83
							c5.65,0,13.18-1.91,20.67-5.25c13.26-5.9,22.73-14.77,20.69-19.36C266.56,299.74,263.88,298.73,259.82,298.73z"/>
					</g>
				</g>
			</g>
		</g>
		<g>
			<g>
				<g>
					<path class="st2" d="M269.25,316.1c-0.26,0-0.51-0.15-0.62-0.4l-3.21-7.22c-0.15-0.34,0-0.74,0.34-0.9
						c0.34-0.15,0.74,0,0.9,0.34l3.21,7.22c0.15,0.34,0,0.74-0.34,0.9C269.43,316.08,269.34,316.1,269.25,316.1z"/>
				</g>
			</g>
		</g>
		<g>
			<g>
				<g>
					<path class="st2" d="M266.86,319.38c-0.26,0-0.51-0.15-0.62-0.4l-3.41-7.66c-0.15-0.34,0-0.74,0.34-0.9
						c0.34-0.15,0.74,0,0.9,0.34l3.41,7.66c0.15,0.34,0,0.74-0.34,0.9C267.05,319.36,266.95,319.38,266.86,319.38z"/>
				</g>
			</g>
		</g>
		<g>
			<g>
				<g>
					<path class="st2" d="M254.72,327.41c-0.26,0-0.51-0.15-0.62-0.4l-3.21-7.21c-0.15-0.34,0-0.74,0.34-0.9
						c0.34-0.15,0.74,0,0.9,0.34l3.21,7.21c0.15,0.34,0,0.74-0.34,0.9C254.91,327.39,254.81,327.41,254.72,327.41z"/>
				</g>
			</g>
		</g>
		<g>
			<g>
				<g>
					<path class="st2" d="M247.88,330.89c-0.26,0-0.51-0.15-0.62-0.4l-3.37-7.57c-0.15-0.34,0-0.74,0.34-0.9
						c0.34-0.15,0.74,0,0.9,0.34l3.37,7.57c0.15,0.34,0,0.74-0.34,0.9C248.07,330.87,247.98,330.89,247.88,330.89z"/>
				</g>
			</g>
		</g>
		<g>
			<g>
				<g>
					<path class="st2" d="M225.74,334.53c-0.26,0-0.51-0.15-0.62-0.4l-3.25-7.31c-0.15-0.34,0-0.74,0.34-0.9
						c0.34-0.15,0.74,0,0.9,0.34l3.25,7.31c0.15,0.34,0,0.74-0.34,0.9C225.93,334.51,225.84,334.53,225.74,334.53z"/>
				</g>
			</g>
		</g>
		<g>
			<g>
				<g>
					<path class="st2" d="M229.41,334.91c-0.26,0-0.51-0.15-0.62-0.4l-3.28-7.38c-0.15-0.34,0-0.74,0.34-0.9
						c0.34-0.15,0.74,0,0.9,0.34l3.28,7.38c0.15,0.34,0,0.74-0.34,0.9C229.6,334.89,229.51,334.91,229.41,334.91z"/>
				</g>
			</g>
		</g>
		<g>
			<g>
				<g>
					<path class="st2" d="M241.14,332.9c-0.26,0-0.51-0.15-0.62-0.4l-3.2-7.19c-0.15-0.34,0-0.74,0.34-0.9
						c0.34-0.15,0.74,0,0.9,0.34l3.2,7.19c0.15,0.34,0,0.74-0.34,0.9C241.32,332.88,241.23,332.9,241.14,332.9z"/>
				</g>
			</g>
		</g>
	</g>
	<g>
		<g>
			<g>
				<g>
					<g>
						<path class="st3" d="M303.07,376.12c-4.35-3.08-9.59-6.08-15.43-8.68c-5.84-2.6-11.57-4.5-16.77-5.67l-17.23-7.68l-4.71,10.58
							c-2.97,6.67,9.54,18.73,27.94,26.93c17.66,7.87,34.33,9.33,38.27,3.53l0.09,0.02l5.07-11.37L303.07,376.12z"/>
					</g>
				</g>
			</g>
			<g>
				<g>
					<g>
						<path class="st2" d="M304.72,399.35c-7.72,0-17.97-2.6-28.12-7.12c-19.04-8.48-31.46-20.71-28.29-27.83l4.71-10.58
							c0.07-0.16,0.21-0.29,0.38-0.36c0.17-0.06,0.36-0.06,0.52,0.01l17.16,7.65c5.37,1.21,11.19,3.18,16.83,5.7
							c5.65,2.52,11,5.53,15.49,8.71l17.16,7.65c0.16,0.07,0.29,0.21,0.36,0.38c0.06,0.17,0.06,0.36-0.01,0.52l-5.07,11.37
							c-0.07,0.15-0.19,0.27-0.33,0.34C313.74,398.11,310.01,399.35,304.72,399.35z M253.99,354.99l-4.44,9.96
							c-2.77,6.21,9.87,18.14,27.6,26.04c9.99,4.45,20.03,7,27.57,7c4.95,0,8.45-1.15,9.87-3.23c0.04-0.06,0.1-0.12,0.16-0.16
							l4.66-10.45l-16.6-7.4c-0.04-0.02-0.08-0.04-0.12-0.07c-4.43-3.14-9.73-6.12-15.32-8.61c-5.59-2.49-11.34-4.44-16.65-5.63
							c-0.04-0.01-0.09-0.02-0.13-0.04L253.99,354.99z"/>
					</g>
				</g>
			</g>
		</g>
		<g>
			<g>
				<g>
					<g>
						
							<ellipse transform="matrix(0.407 -0.9134 0.9134 0.407 -167.3058 480.9698)" class="st4" cx="286.79" cy="369.34" rx="13.23" ry="36.49"/>
					</g>
				</g>
			</g>
			<g>
				<g>
					<g>
						<path class="st2" d="M309.26,389.17C309.26,389.17,309.26,389.17,309.26,389.17c-7.72,0-17.98-2.6-28.13-7.12
							c-19.04-8.48-31.46-20.71-28.29-27.83c1.37-3.07,5.34-4.7,11.48-4.7c7.72,0,17.97,2.6,28.13,7.12
							c8.97,4,16.85,9.03,22.18,14.17c5.5,5.3,7.67,10.15,6.1,13.66C319.37,387.55,315.4,389.17,309.26,389.17z M264.32,350.88
							c-5.48,0-9.12,1.38-10.24,3.89c-2.77,6.21,9.87,18.14,27.6,26.04c9.99,4.45,20.04,7,27.58,7c5.48,0,9.12-1.38,10.24-3.89
							c1.29-2.9-0.82-7.32-5.81-12.13c-5.22-5.03-12.96-9.97-21.79-13.91C281.91,353.43,271.86,350.88,264.32,350.88z"/>
					</g>
				</g>
			</g>
		</g>
		<g>
			<g>
				<g>
					<path class="st2" d="M307.27,398.68c-0.09,0-0.19-0.02-0.28-0.06c-0.34-0.15-0.5-0.55-0.34-0.9l4.27-9.59
						c0.15-0.34,0.55-0.5,0.9-0.34c0.34,0.15,0.5,0.55,0.34,0.9l-4.27,9.59C307.78,398.53,307.53,398.68,307.27,398.68z"/>
				</g>
			</g>
		</g>
		<g>
			<g>
				<g>
					<path class="st2" d="M301.91,399.24c-0.09,0-0.19-0.02-0.28-0.06c-0.34-0.15-0.5-0.55-0.34-0.9l4.53-10.18
						c0.15-0.34,0.55-0.5,0.9-0.34c0.34,0.15,0.5,0.55,0.34,0.9l-4.53,10.18C302.42,399.09,302.17,399.24,301.91,399.24z"/>
				</g>
			</g>
		</g>
		<g>
			<g>
				<g>
					<path class="st2" d="M283.18,394.38c-0.09,0-0.19-0.02-0.28-0.06c-0.34-0.15-0.5-0.55-0.34-0.9l4.27-9.58
						c0.15-0.34,0.55-0.5,0.9-0.34c0.34,0.15,0.5,0.55,0.34,0.9l-4.27,9.58C283.69,394.23,283.44,394.38,283.18,394.38z"/>
				</g>
			</g>
		</g>
		<g>
			<g>
				<g>
					<path class="st2" d="M273.67,390.72c-0.09,0-0.19-0.02-0.28-0.06c-0.34-0.15-0.5-0.55-0.34-0.9l4.48-10.06
						c0.15-0.34,0.55-0.5,0.9-0.34c0.34,0.15,0.5,0.55,0.34,0.9l-4.48,10.06C274.18,390.57,273.93,390.72,273.67,390.72z"/>
				</g>
			</g>
		</g>
		<g>
			<g>
				<g>
					<path class="st2" d="M250.38,372.09c-0.09,0-0.19-0.02-0.28-0.06c-0.34-0.15-0.5-0.55-0.34-0.9l4.33-9.71
						c0.15-0.34,0.55-0.5,0.9-0.34c0.34,0.15,0.5,0.55,0.34,0.9l-4.33,9.71C250.89,371.94,250.64,372.09,250.38,372.09z"/>
				</g>
			</g>
		</g>
		<g>
			<g>
				<g>
					<path class="st2" d="M253.27,376.05c-0.09,0-0.19-0.02-0.28-0.06c-0.34-0.15-0.5-0.55-0.34-0.9l4.37-9.81
						c0.15-0.34,0.55-0.5,0.9-0.34c0.34,0.15,0.5,0.55,0.34,0.9l-4.37,9.81C253.78,375.9,253.53,376.05,253.27,376.05z"/>
				</g>
			</g>
		</g>
		<g>
			<g>
				<g>
					<path class="st2" d="M265.68,385.84c-0.09,0-0.19-0.02-0.28-0.06c-0.34-0.15-0.5-0.55-0.34-0.9l4.26-9.55
						c0.15-0.34,0.55-0.5,0.9-0.34c0.34,0.15,0.5,0.55,0.34,0.9l-4.26,9.55C266.19,385.69,265.94,385.84,265.68,385.84z"/>
				</g>
			</g>
		</g>
	</g>
</g>
</svg>
