<?xml version="1.0" encoding="utf-8"?>
<!-- Generator: Adobe Illustrator 28.1.0, SVG Export Plug-In . SVG Version: 6.00 Build 0)  -->
<svg version="1.1" id="Object" xmlns="http://www.w3.org/2000/svg" xmlns:xlink="http://www.w3.org/1999/xlink" x="0px" y="0px"
	 viewBox="0 0 274 230" style="enable-background:new 0 0 274 230;" xml:space="preserve">
<style type="text/css">
	.st0{fill:#3B9CFF;}
	.st1{fill:#FFFFFF;}
	.st2{fill:#FDD67C;}
	.st3{fill:#FD7F98;}
	.st4{fill:#9ACF74;}
	.st5{fill:#142784;}
	.st6{fill:#FBCD4A;}
	.st7{fill:#FFC533;}
</style>
<g>
	<g>
		<g>
			<g>
				<path class="st0" d="M230.07,0.41H89.83c-4.25,0-7.7,3.45-7.7,7.7v179.96c0,4.25,3.45,7.7,7.7,7.7h140.25
					c4.25,0,7.7-3.45,7.7-7.7V8.11C237.77,3.86,234.32,0.41,230.07,0.41z"/>
			</g>
		</g>
		<g>
			<g>
				<g>
					<rect x="94.78" y="16.93" class="st1" width="130.35" height="27.21"/>
				</g>
			</g>
		</g>
		<g>
			<g>
				<g>
					<g>
						<path class="st1" d="M122.76,80H95.73c-0.56,0-1.03,0.46-1.03,1.03v17.02c0,0.56,0.46,1.03,1.03,1.03h27.04
							c0.56,0,1.03-0.46,1.03-1.03V81.02C123.79,80.46,123.33,80,122.76,80z"/>
					</g>
				</g>
			</g>
			<g>
				<g>
					<g>
						<path class="st1" d="M156.4,80h-27.04c-0.56,0-1.03,0.46-1.03,1.03v17.02c0,0.56,0.46,1.03,1.03,1.03h27.04
							c0.56,0,1.03-0.46,1.03-1.03V81.02C157.43,80.46,156.97,80,156.4,80z"/>
					</g>
				</g>
			</g>
			<g>
				<g>
					<g>
						<path class="st1" d="M190.29,80h-27.04c-0.56,0-1.03,0.46-1.03,1.03v17.02c0,0.56,0.46,1.03,1.03,1.03h27.04
							c0.56,0,1.03-0.46,1.03-1.03V81.02C191.31,80.46,190.85,80,190.29,80z"/>
					</g>
				</g>
			</g>
			<g>
				<g>
					<g>
						<path class="st1" d="M122.76,106.16H95.73c-0.56,0-1.03,0.46-1.03,1.03v17.02c0,0.56,0.46,1.03,1.03,1.03h27.04
							c0.56,0,1.03-0.46,1.03-1.03v-17.02C123.79,106.62,123.33,106.16,122.76,106.16z"/>
					</g>
				</g>
			</g>
			<g>
				<g>
					<g>
						<path class="st1" d="M156.4,106.16h-27.04c-0.56,0-1.03,0.46-1.03,1.03v17.02c0,0.56,0.46,1.03,1.03,1.03h27.04
							c0.56,0,1.03-0.46,1.03-1.03v-17.02C157.43,106.62,156.97,106.16,156.4,106.16z"/>
					</g>
				</g>
			</g>
			<g>
				<g>
					<g>
						<path class="st1" d="M190.29,106.16h-27.04c-0.56,0-1.03,0.46-1.03,1.03v17.02c0,0.56,0.46,1.03,1.03,1.03h27.04
							c0.56,0,1.03-0.46,1.03-1.03v-17.02C191.31,106.62,190.85,106.16,190.29,106.16z"/>
					</g>
				</g>
			</g>
			<g>
				<g>
					<g>
						<path class="st1" d="M122.76,131.34H95.73c-0.56,0-1.03,0.46-1.03,1.03v17.02c0,0.56,0.46,1.03,1.03,1.03h27.04
							c0.56,0,1.03-0.46,1.03-1.03v-17.02C123.79,131.8,123.33,131.34,122.76,131.34z"/>
					</g>
				</g>
			</g>
			<g>
				<g>
					<g>
						<path class="st1" d="M156.4,131.34h-27.04c-0.56,0-1.03,0.46-1.03,1.03v17.02c0,0.56,0.46,1.03,1.03,1.03h27.04
							c0.56,0,1.03-0.46,1.03-1.03v-17.02C157.43,131.8,156.97,131.34,156.4,131.34z"/>
					</g>
				</g>
			</g>
			<g>
				<g>
					<g>
						<path class="st1" d="M190.29,131.34h-27.04c-0.56,0-1.03,0.46-1.03,1.03v17.02c0,0.56,0.46,1.03,1.03,1.03h27.04
							c0.56,0,1.03-0.46,1.03-1.03v-17.02C191.31,131.8,190.85,131.34,190.29,131.34z"/>
					</g>
				</g>
			</g>
			<g>
				<g>
					<g>
						<path class="st1" d="M190.29,156.52h-27.04c-0.56,0-1.03,0.46-1.03,1.03v17.02c0,0.56,0.46,1.03,1.03,1.03h27.04
							c0.56,0,1.03-0.46,1.03-1.03v-17.02C191.31,156.99,190.85,156.52,190.29,156.52z"/>
					</g>
				</g>
			</g>
			<g>
				<g>
					<g>
						<path class="st1" d="M156.4,156.52h-27.04c-0.56,0-1.03,0.46-1.03,1.03v17.02c0,0.56,0.46,1.03,1.03,1.03h27.04
							c0.56,0,1.03-0.46,1.03-1.03v-17.02C157.43,156.99,156.97,156.52,156.4,156.52z"/>
					</g>
				</g>
			</g>
			<g>
				<g>
					<g>
						<path class="st1" d="M224.17,80h-27.04c-0.56,0-1.03,0.46-1.03,1.03v17.02c0,0.56,0.46,1.03,1.03,1.03h27.04
							c0.56,0,1.03-0.46,1.03-1.03V81.02C225.2,80.46,224.74,80,224.17,80z"/>
					</g>
				</g>
			</g>
			<g>
				<g>
					<g>
						<path class="st2" d="M224.17,106.02h-27.04c-0.56,0-1.03,0.46-1.03,1.03v42.34c0,0.56,0.46,1.03,1.03,1.03h27.04
							c0.56,0,1.03-0.46,1.03-1.03v-42.34C225.2,106.48,224.74,106.02,224.17,106.02z"/>
					</g>
				</g>
			</g>
			<g>
				<g>
					<g>
						<path class="st3" d="M224.17,156.52h-27.04c-0.56,0-1.03,0.46-1.03,1.03v17.02c0,0.56,0.46,1.03,1.03,1.03h27.04
							c0.56,0,1.03-0.46,1.03-1.03v-17.02C225.2,156.99,224.74,156.52,224.17,156.52z"/>
					</g>
				</g>
			</g>
			<g>
				<g>
					<g>
						<path class="st1" d="M122.77,156.52H95.73c-0.56,0-1.03,0.46-1.03,1.03v17.02c0,0.56,0.46,1.03,1.03,1.03h27.04
							c0.56,0,1.03-0.46,1.03-1.03v-17.02C123.79,156.99,123.33,156.52,122.77,156.52z"/>
					</g>
				</g>
			</g>
		</g>
		<g>
			<g>
				<g>
					<g>
						<path class="st4" d="M116.82,58.06H95.73c-0.56,0-1.03,0.46-1.03,1.03v8.43c0,0.56,0.46,1.03,1.03,1.03h21.09
							c0.56,0,1.03-0.46,1.03-1.03v-8.43C117.85,58.52,117.39,58.06,116.82,58.06z"/>
					</g>
				</g>
			</g>
			<g>
				<g>
					<g>
						<path class="st4" d="M143.64,58.06h-21.09c-0.56,0-1.03,0.46-1.03,1.03v8.43c0,0.56,0.46,1.03,1.03,1.03h21.09
							c0.56,0,1.03-0.46,1.03-1.03v-8.43C144.67,58.52,144.2,58.06,143.64,58.06z"/>
					</g>
				</g>
			</g>
			<g>
				<g>
					<g>
						<path class="st4" d="M170.46,58.06h-21.09c-0.56,0-1.03,0.46-1.03,1.03v8.43c0,0.56,0.46,1.03,1.03,1.03h21.09
							c0.56,0,1.03-0.46,1.03-1.03v-8.43C171.48,58.52,171.02,58.06,170.46,58.06z"/>
					</g>
				</g>
			</g>
			<g>
				<g>
					<g>
						<path class="st4" d="M197.28,58.06h-21.09c-0.56,0-1.03,0.46-1.03,1.03v8.43c0,0.56,0.46,1.03,1.03,1.03h21.09
							c0.56,0,1.03-0.46,1.03-1.03v-8.43C198.3,58.52,197.84,58.06,197.28,58.06z"/>
					</g>
				</g>
			</g>
			<g>
				<g>
					<g>
						<path class="st4" d="M224.1,58.06H203c-0.56,0-1.03,0.46-1.03,1.03v8.43c0,0.56,0.46,1.03,1.03,1.03h21.09
							c0.56,0,1.03-0.46,1.03-1.03v-8.43C225.12,58.52,224.66,58.06,224.1,58.06z"/>
					</g>
				</g>
			</g>
		</g>
		<path class="st5" d="M90.08,196.18c-4.61,0-8.36-3.75-8.36-8.36V8.36c0-4.61,3.75-8.36,8.36-8.36h139.74
			c4.61,0,8.36,3.75,8.36,8.36v179.46c0,4.61-3.75,8.36-8.36,8.36H90.08z M90.08,0.83c-4.15,0-7.53,3.38-7.53,7.53v179.46
			c0,4.15,3.38,7.53,7.53,7.53h139.74c4.15,0,7.53-3.38,7.53-7.53V8.36c0-4.15-3.38-7.53-7.53-7.53H90.08z"/>
		<path class="st5" d="M94.78,44.55c-0.23,0-0.41-0.19-0.41-0.41V16.93c0-0.23,0.19-0.41,0.41-0.41h130.35
			c0.23,0,0.41,0.19,0.41,0.41v27.21c0,0.23-0.19,0.41-0.41,0.41H94.78z M95.52,17.34c-0.18,0-0.33,0.15-0.33,0.33v25.72
			c0,0.18,0.15,0.33,0.33,0.33h128.86c0.18,0,0.33-0.15,0.33-0.33V17.67c0-0.18-0.15-0.33-0.33-0.33H95.52z"/>
		<path class="st5" d="M95.73,99.48c-0.79,0-1.44-0.65-1.44-1.44V81.02c0-0.79,0.65-1.44,1.44-1.44h27.04
			c0.79,0,1.44,0.65,1.44,1.44v17.02c0,0.79-0.65,1.44-1.44,1.44H95.73z M95.73,80.41c-0.34,0-0.61,0.27-0.61,0.61v17.02
			c0,0.34,0.28,0.61,0.61,0.61h27.04c0.34,0,0.61-0.27,0.61-0.61V81.02c0-0.34-0.27-0.61-0.61-0.61H95.73z"/>
		<path class="st5" d="M129.36,99.48c-0.79,0-1.44-0.65-1.44-1.44V81.02c0-0.79,0.65-1.44,1.44-1.44h27.04
			c0.79,0,1.44,0.65,1.44,1.44v17.02c0,0.79-0.65,1.44-1.44,1.44H129.36z M129.36,80.41c-0.34,0-0.61,0.27-0.61,0.61v17.02
			c0,0.34,0.27,0.61,0.61,0.61h27.04c0.34,0,0.61-0.27,0.61-0.61V81.02c0-0.34-0.27-0.61-0.61-0.61H129.36z"/>
		<path class="st5" d="M163.25,99.48c-0.79,0-1.44-0.65-1.44-1.44V81.02c0-0.79,0.65-1.44,1.44-1.44h27.04
			c0.79,0,1.44,0.65,1.44,1.44v17.02c0,0.79-0.65,1.44-1.44,1.44H163.25z M163.25,80.41c-0.34,0-0.61,0.27-0.61,0.61v17.02
			c0,0.34,0.28,0.61,0.61,0.61h27.04c0.34,0,0.61-0.27,0.61-0.61V81.02c0-0.34-0.28-0.61-0.61-0.61H163.25z"/>
		<path class="st5" d="M95.73,125.64c-0.79,0-1.44-0.65-1.44-1.44v-17.02c0-0.79,0.65-1.44,1.44-1.44h27.04
			c0.79,0,1.44,0.65,1.44,1.44v17.02c0,0.79-0.65,1.44-1.44,1.44H95.73z M95.73,106.57c-0.34,0-0.61,0.27-0.61,0.61v17.02
			c0,0.34,0.28,0.61,0.61,0.61h27.04c0.34,0,0.61-0.28,0.61-0.61v-17.02c0-0.34-0.27-0.61-0.61-0.61H95.73z"/>
		<path class="st5" d="M129.36,125.64c-0.79,0-1.44-0.65-1.44-1.44v-17.02c0-0.79,0.65-1.44,1.44-1.44h27.04
			c0.79,0,1.44,0.65,1.44,1.44v17.02c0,0.79-0.65,1.44-1.44,1.44H129.36z M129.36,106.57c-0.34,0-0.61,0.28-0.61,0.61v17.02
			c0,0.34,0.27,0.61,0.61,0.61h27.04c0.34,0,0.61-0.28,0.61-0.61v-17.02c0-0.34-0.27-0.61-0.61-0.61H129.36z"/>
		<path class="st5" d="M163.25,125.64c-0.79,0-1.44-0.65-1.44-1.44v-17.02c0-0.79,0.65-1.44,1.44-1.44h27.04
			c0.79,0,1.44,0.65,1.44,1.44v17.02c0,0.79-0.65,1.44-1.44,1.44H163.25z M163.25,106.57c-0.34,0-0.61,0.27-0.61,0.61v17.02
			c0,0.34,0.28,0.61,0.61,0.61h27.04c0.34,0,0.61-0.28,0.61-0.61v-17.02c0-0.34-0.28-0.61-0.61-0.61H163.25z"/>
		<path class="st5" d="M95.73,150.83c-0.79,0-1.44-0.65-1.44-1.44v-17.02c0-0.79,0.65-1.44,1.44-1.44h27.04
			c0.79,0,1.44,0.65,1.44,1.44v17.02c0,0.79-0.65,1.44-1.44,1.44H95.73z M95.73,131.76c-0.34,0-0.61,0.27-0.61,0.61v17.02
			c0,0.34,0.28,0.61,0.61,0.61h27.04c0.34,0,0.61-0.28,0.61-0.61v-17.02c0-0.34-0.27-0.61-0.61-0.61H95.73z"/>
		<path class="st5" d="M129.36,150.83c-0.79,0-1.44-0.65-1.44-1.44v-17.02c0-0.79,0.65-1.44,1.44-1.44h27.04
			c0.79,0,1.44,0.65,1.44,1.44v17.02c0,0.79-0.65,1.44-1.44,1.44H129.36z M129.36,131.76c-0.34,0-0.61,0.27-0.61,0.61v17.02
			c0,0.34,0.27,0.61,0.61,0.61h27.04c0.34,0,0.61-0.28,0.61-0.61v-17.02c0-0.34-0.27-0.61-0.61-0.61H129.36z"/>
		<path class="st5" d="M163.25,150.83c-0.79,0-1.44-0.65-1.44-1.44v-17.02c0-0.79,0.65-1.44,1.44-1.44h27.04
			c0.79,0,1.44,0.65,1.44,1.44v17.02c0,0.79-0.65,1.44-1.44,1.44H163.25z M163.25,131.76c-0.34,0-0.61,0.27-0.61,0.61v17.02
			c0,0.34,0.28,0.61,0.61,0.61h27.04c0.34,0,0.61-0.28,0.61-0.61v-17.02c0-0.34-0.28-0.61-0.61-0.61H163.25z"/>
		<path class="st5" d="M163.25,176.01c-0.79,0-1.44-0.65-1.44-1.44v-17.02c0-0.79,0.65-1.44,1.44-1.44h27.04
			c0.79,0,1.44,0.65,1.44,1.44v17.02c0,0.79-0.65,1.44-1.44,1.44H163.25z M163.25,156.94c-0.34,0-0.61,0.27-0.61,0.61v17.02
			c0,0.34,0.28,0.61,0.61,0.61h27.04c0.34,0,0.61-0.28,0.61-0.61v-17.02c0-0.34-0.28-0.61-0.61-0.61H163.25z"/>
		<path class="st5" d="M129.36,176.01c-0.79,0-1.44-0.65-1.44-1.44v-17.02c0-0.79,0.65-1.44,1.44-1.44h27.04
			c0.79,0,1.44,0.65,1.44,1.44v17.02c0,0.79-0.65,1.44-1.44,1.44H129.36z M129.36,156.94c-0.34,0-0.61,0.27-0.61,0.61v17.02
			c0,0.34,0.27,0.61,0.61,0.61h27.04c0.34,0,0.61-0.28,0.61-0.61v-17.02c0-0.34-0.27-0.61-0.61-0.61H129.36z"/>
		<path class="st5" d="M197.13,99.48c-0.79,0-1.44-0.65-1.44-1.44V81.02c0-0.79,0.65-1.44,1.44-1.44h27.04
			c0.79,0,1.44,0.65,1.44,1.44v17.02c0,0.79-0.65,1.44-1.44,1.44H197.13z M197.13,80.41c-0.34,0-0.61,0.27-0.61,0.61v17.02
			c0,0.34,0.28,0.61,0.61,0.61h27.04c0.34,0,0.61-0.27,0.61-0.61V81.02c0-0.34-0.28-0.61-0.61-0.61H197.13z"/>
		<path class="st5" d="M197.13,150.83c-0.79,0-1.44-0.65-1.44-1.44v-42.34c0-0.79,0.65-1.44,1.44-1.44h27.04
			c0.79,0,1.44,0.65,1.44,1.44v42.34c0,0.79-0.65,1.44-1.44,1.44H197.13z M197.13,106.43c-0.34,0-0.61,0.28-0.61,0.61v42.34
			c0,0.34,0.28,0.61,0.61,0.61h27.04c0.34,0,0.61-0.28,0.61-0.61v-42.34c0-0.34-0.28-0.61-0.61-0.61H197.13z"/>
		<path class="st5" d="M197.13,176.01c-0.79,0-1.44-0.65-1.44-1.44v-17.02c0-0.79,0.65-1.44,1.44-1.44h27.04
			c0.79,0,1.44,0.65,1.44,1.44v17.02c0,0.79-0.65,1.44-1.44,1.44H197.13z M197.13,156.94c-0.34,0-0.61,0.27-0.61,0.61v17.02
			c0,0.34,0.28,0.61,0.61,0.61h27.04c0.34,0,0.61-0.28,0.61-0.61v-17.02c0-0.34-0.28-0.61-0.61-0.61H197.13z"/>
		<path class="st5" d="M95.73,176.01c-0.79,0-1.44-0.65-1.44-1.44v-17.02c0-0.79,0.65-1.44,1.44-1.44h27.04
			c0.79,0,1.44,0.65,1.44,1.44v17.02c0,0.79-0.65,1.44-1.44,1.44H95.73z M95.73,156.94c-0.34,0-0.61,0.27-0.61,0.61v17.02
			c0,0.34,0.28,0.61,0.61,0.61h27.04c0.34,0,0.61-0.28,0.61-0.61v-17.02c0-0.34-0.27-0.61-0.61-0.61H95.73z"/>
		<path class="st5" d="M95.73,68.96c-0.79,0-1.44-0.65-1.44-1.44v-8.43c0-0.79,0.65-1.44,1.44-1.44h21.09
			c0.79,0,1.44,0.65,1.44,1.44v8.43c0,0.79-0.65,1.44-1.44,1.44H95.73z M95.73,58.47c-0.34,0-0.61,0.27-0.61,0.61v8.43
			c0,0.34,0.28,0.61,0.61,0.61h21.09c0.34,0,0.61-0.27,0.61-0.61v-8.43c0-0.34-0.27-0.61-0.61-0.61H95.73z"/>
		<path class="st5" d="M122.54,68.96c-0.79,0-1.44-0.65-1.44-1.44v-8.43c0-0.79,0.65-1.44,1.44-1.44h21.09
			c0.79,0,1.44,0.65,1.44,1.44v8.43c0,0.79-0.65,1.44-1.44,1.44H122.54z M122.54,58.47c-0.34,0-0.61,0.27-0.61,0.61v8.43
			c0,0.34,0.27,0.61,0.61,0.61h21.09c0.34,0,0.61-0.27,0.61-0.61v-8.43c0-0.34-0.28-0.61-0.61-0.61H122.54z"/>
		<path class="st5" d="M149.36,68.96c-0.79,0-1.44-0.65-1.44-1.44v-8.43c0-0.79,0.65-1.44,1.44-1.44h21.09
			c0.79,0,1.44,0.65,1.44,1.44v8.43c0,0.79-0.65,1.44-1.44,1.44H149.36z M149.36,58.47c-0.34,0-0.61,0.27-0.61,0.61v8.43
			c0,0.34,0.28,0.61,0.61,0.61h21.09c0.34,0,0.61-0.27,0.61-0.61v-8.43c0-0.34-0.27-0.61-0.61-0.61H149.36z"/>
		<path class="st5" d="M176.18,68.96c-0.79,0-1.44-0.65-1.44-1.44v-8.43c0-0.79,0.65-1.44,1.44-1.44h21.09
			c0.79,0,1.44,0.65,1.44,1.44v8.43c0,0.79-0.65,1.44-1.44,1.44H176.18z M176.18,58.47c-0.34,0-0.61,0.27-0.61,0.61v8.43
			c0,0.34,0.27,0.61,0.61,0.61h21.09c0.34,0,0.61-0.27,0.61-0.61v-8.43c0-0.34-0.28-0.61-0.61-0.61H176.18z"/>
		<path class="st5" d="M203,68.96c-0.79,0-1.44-0.65-1.44-1.44v-8.43c0-0.79,0.65-1.44,1.44-1.44h21.09c0.79,0,1.44,0.65,1.44,1.44
			v8.43c0,0.79-0.65,1.44-1.44,1.44H203z M203,58.47c-0.34,0-0.61,0.27-0.61,0.61v8.43c0,0.34,0.28,0.61,0.61,0.61h21.09
			c0.34,0,0.61-0.27,0.61-0.61v-8.43c0-0.34-0.28-0.61-0.61-0.61H203z"/>
	</g>
	<g>
		<g>
			<g>
				<g>
					<g>
						<g>
							<path class="st6" d="M89.45,193.26c-4.4-0.78-9.44-1.18-14.8-1.06c-5.36,0.12-10.38,0.72-14.74,1.7l-15.8,0.34l0.21,9.7
								c0.13,6.12,13.93,10.79,30.81,10.43c16.2-0.35,29.35-5.2,30.27-11l0.07-0.01l-0.22-10.43L89.45,193.26z"/>
						</g>
					</g>
				</g>
			</g>
			<path class="st5" d="M73.28,214.81c-16.35,0-29.27-4.77-29.4-10.86l-0.21-9.7c0-0.11,0.04-0.22,0.12-0.3
				c0.08-0.08,0.19-0.13,0.3-0.13l15.69-0.34c0.05,0,0.09-0.01,0.14-0.02c4.48-0.99,9.57-1.57,14.72-1.68
				c0.63-0.01,1.27-0.02,1.89-0.02c4.52,0,8.86,0.36,12.88,1.07c0.04,0.01,0.08,0.01,0.12,0.01c0,0,15.71-0.34,15.71-0.34
				c0.15,0,0.25,0.06,0.3,0.12c0.08,0.08,0.13,0.19,0.13,0.3l0.22,10.43c0,0.08-0.02,0.16-0.06,0.23c-0.04,0.06-0.07,0.13-0.09,0.21
				c-1.43,5.94-14.59,10.67-30.62,11.02C74.51,214.8,73.9,214.81,73.28,214.81z M76.5,192.61c-0.61,0-1.23,0.01-1.84,0.02
				c-5.14,0.11-10.21,0.69-14.66,1.69l-14.76,0.33c-0.39,0.01-0.69,0.33-0.68,0.71l0.18,8.58c0.12,5.53,12.92,10.03,28.54,10.03
				c0.61,0,1.22-0.01,1.83-0.02c17.69-0.38,29.08-5.71,29.86-10.64c0.03-0.08,0.06-0.24,0.06-0.33l-0.19-8.91
				c-0.01-0.38-0.32-0.69-0.7-0.69c-0.01,0-14.69,0.32-14.69,0.32C85.37,192.97,81.04,192.61,76.5,192.61z"/>
			<g>
				<g>
					<g>
						<g>
							
								<ellipse transform="matrix(0.9998 -0.0215 0.0215 0.9998 -4.1548 1.6515)" class="st7" cx="74.68" cy="193.94" rx="30.58" ry="11.09"/>
						</g>
					</g>
				</g>
			</g>
			<path class="st5" d="M73.08,205.47c-16.35,0-29.27-4.77-29.4-10.86c-0.14-6.35,13.66-11.81,30.75-12.18
				c0.62-0.01,1.24-0.02,1.85-0.02c16.35,0,29.27,4.77,29.4,10.86c0.14,6.35-13.66,11.81-30.75,12.18
				C74.31,205.47,73.7,205.47,73.08,205.47z M76.28,183.27c-0.61,0-1.21,0.01-1.83,0.02c-16.34,0.35-30.04,5.53-29.92,11.3
				c0.12,5.53,12.92,10.03,28.54,10.03c0.61,0,1.22-0.01,1.83-0.02c8.11-0.17,15.71-1.5,21.4-3.72c5.47-2.14,8.57-4.9,8.51-7.59
				C104.71,187.77,91.9,183.27,76.28,183.27z"/>
			<path class="st5" d="M100.45,208.77c-0.23,0-0.42-0.19-0.43-0.42l-0.19-8.8c0-0.24,0.18-0.43,0.42-0.44c0,0,0,0,0,0
				c0.24,0,0.43,0.19,0.44,0.42l0.19,8.8c0,0.23-0.18,0.43-0.41,0.44H100.45z"/>
			<path class="st5" d="M96.59,211.11c-0.23,0-0.42-0.19-0.43-0.42l-0.2-9.33c0-0.11,0.04-0.22,0.12-0.3
				c0.08-0.08,0.19-0.13,0.3-0.13c0,0,0,0,0,0c0.25,0,0.43,0.18,0.44,0.42l0.2,9.33c0,0.23-0.18,0.43-0.41,0.44H96.59z"/>
			<path class="st5" d="M80.66,214.12c-0.23,0-0.42-0.19-0.43-0.42l-0.19-8.79c0-0.12,0.04-0.22,0.12-0.31s0.19-0.13,0.3-0.13
				c0,0,0,0,0,0c0.24,0,0.43,0.2,0.44,0.42l0.19,8.79c0,0.11-0.04,0.22-0.12,0.3c-0.08,0.08-0.19,0.13-0.3,0.13L80.66,214.12z"/>
			<path class="st5" d="M72.13,214.75c-0.23,0-0.42-0.19-0.43-0.42l-0.2-9.23c0-0.24,0.18-0.43,0.42-0.44c0,0,0,0,0,0
				c0.25,0,0.43,0.19,0.44,0.42l0.2,9.23c0,0.23-0.18,0.43-0.41,0.44H72.13z"/>
			<path class="st5" d="M47.82,208.95c-0.23,0-0.42-0.19-0.43-0.42l-0.19-8.91c0-0.11,0.04-0.22,0.12-0.3
				c0.08-0.08,0.19-0.13,0.3-0.13c0,0,0,0,0,0c0.24,0,0.43,0.19,0.44,0.42l0.19,8.91c0,0.23-0.18,0.43-0.41,0.44H47.82z"/>
			<path class="st5" d="M51.43,210.92c-0.23,0-0.42-0.19-0.43-0.42l-0.19-8.99c0-0.24,0.18-0.43,0.42-0.44c0,0,0,0,0,0
				c0.23,0,0.43,0.2,0.44,0.42l0.19,8.99c0,0.23-0.18,0.43-0.41,0.44H51.43z"/>
			<path class="st5" d="M64.34,213.9c-0.23,0-0.42-0.19-0.43-0.42l-0.19-8.76c0-0.11,0.04-0.22,0.12-0.3
				c0.08-0.08,0.19-0.13,0.3-0.13c0,0,0,0,0,0c0.24,0,0.43,0.2,0.44,0.42l0.19,8.76c0,0.23-0.18,0.43-0.41,0.44H64.34z"/>
		</g>
		<g>
			<g>
				<g>
					<g>
						<g>
							<path class="st6" d="M89.45,178.59c-4.4-0.78-9.44-1.18-14.8-1.06c-5.36,0.12-10.38,0.72-14.74,1.7l-15.8,0.34l0.21,9.7
								c0.13,6.12,13.93,10.79,30.81,10.43c16.2-0.35,29.35-5.2,30.27-11l0.07-0.01l-0.22-10.43L89.45,178.59z"/>
						</g>
					</g>
				</g>
			</g>
			<path class="st5" d="M73.28,200.15c-16.35,0-29.27-4.77-29.4-10.86l-0.21-9.7c0-0.11,0.04-0.22,0.12-0.3
				c0.08-0.08,0.19-0.13,0.3-0.13l15.69-0.34c0.05,0,0.09-0.01,0.14-0.02c4.48-0.99,9.57-1.57,14.72-1.68
				c0.64-0.01,1.27-0.02,1.9-0.02c4.52,0,8.86,0.36,12.88,1.07c0.04,0.01,0.08,0.01,0.12,0.01c0,0,15.71-0.34,15.71-0.34
				c0.12,0,0.22,0.04,0.3,0.12s0.13,0.19,0.13,0.3l0.22,10.43c0,0.08-0.02,0.16-0.06,0.24c-0.04,0.06-0.07,0.13-0.08,0.2
				c-1.43,5.93-14.59,10.67-30.62,11.02C74.51,200.14,73.9,200.15,73.28,200.15z M76.53,177.94c-0.62,0-1.25,0.01-1.88,0.02
				c-5.14,0.11-10.21,0.69-14.66,1.69l-14.76,0.33c-0.39,0.01-0.69,0.33-0.68,0.71l0.18,8.58c0.12,5.53,12.92,10.03,28.54,10.03
				c0.61,0,1.22-0.01,1.83-0.02c17.69-0.38,29.08-5.71,29.86-10.64c0.03-0.08,0.06-0.24,0.06-0.33l-0.19-8.91
				c0-0.19-0.08-0.36-0.22-0.49c-0.13-0.12-0.3-0.19-0.48-0.19c0,0-14.69,0.32-14.69,0.32C85.36,178.3,81.05,177.94,76.53,177.94z"
				/>
			<g>
				<g>
					<g>
						<g>
							
								<ellipse transform="matrix(0.9998 -0.0215 0.0215 0.9998 -3.8393 1.6481)" class="st7" cx="74.68" cy="179.28" rx="30.58" ry="11.09"/>
						</g>
					</g>
				</g>
			</g>
			<path class="st5" d="M73.08,190.81c-16.35,0-29.27-4.77-29.4-10.86c-0.14-6.35,13.66-11.81,30.75-12.18
				c0.62-0.01,1.24-0.02,1.85-0.02c16.35,0,29.27,4.77,29.4,10.86c0.14,6.35-13.66,11.81-30.75,12.18
				C74.31,190.8,73.69,190.81,73.08,190.81z M76.28,168.6c-0.61,0-1.21,0.01-1.83,0.02c-16.34,0.35-30.04,5.53-29.92,11.3
				c0.12,5.53,12.92,10.03,28.54,10.03c0.61,0,1.22-0.01,1.83-0.02c8.11-0.17,15.71-1.5,21.4-3.72c5.47-2.14,8.57-4.9,8.51-7.59
				C104.71,173.1,91.9,168.6,76.28,168.6z"/>
			<path class="st5" d="M100.45,194.1c-0.23,0-0.42-0.19-0.43-0.42l-0.19-8.8c0-0.24,0.18-0.43,0.42-0.44c0,0,0,0,0,0
				c0.24,0,0.43,0.19,0.44,0.42l0.19,8.8c0,0.23-0.18,0.43-0.41,0.44H100.45z"/>
			<path class="st5" d="M96.59,196.44c-0.23,0-0.42-0.19-0.43-0.42l-0.2-9.33c0-0.11,0.04-0.22,0.12-0.3
				c0.08-0.08,0.19-0.13,0.3-0.13c0,0,0,0,0,0c0.25,0,0.43,0.18,0.44,0.42l0.2,9.33c0,0.23-0.18,0.43-0.41,0.44H96.59z"/>
			<path class="st5" d="M80.66,199.46c-0.23,0-0.42-0.19-0.43-0.42l-0.19-8.79c0-0.24,0.18-0.43,0.42-0.44c0,0,0,0,0,0
				c0.23,0,0.43,0.2,0.44,0.42l0.19,8.79c0,0.11-0.04,0.22-0.12,0.3c-0.08,0.08-0.19,0.13-0.3,0.13L80.66,199.46z"/>
			<path class="st5" d="M72.13,200.09c-0.23,0-0.42-0.19-0.43-0.42l-0.2-9.23c0-0.24,0.18-0.43,0.42-0.44c0,0,0,0,0,0
				c0.24,0,0.43,0.18,0.44,0.42l0.2,9.23C72.57,199.88,72.38,200.08,72.13,200.09L72.13,200.09z"/>
			<path class="st5" d="M47.82,194.29c-0.23,0-0.42-0.19-0.43-0.42l-0.19-8.91c0-0.11,0.04-0.22,0.12-0.31
				c0.08-0.08,0.18-0.13,0.3-0.13c0,0,0,0,0,0c0.25,0,0.43,0.19,0.44,0.42l0.19,8.91c0,0.23-0.18,0.43-0.41,0.44H47.82z"/>
			<path class="st5" d="M51.43,196.26c-0.23,0-0.42-0.19-0.43-0.42l-0.19-8.99c0-0.24,0.18-0.43,0.42-0.44c0,0,0,0,0,0
				c0.23,0,0.43,0.2,0.44,0.42l0.19,8.99c0,0.23-0.18,0.43-0.41,0.44H51.43z"/>
			<path class="st5" d="M64.34,199.24c-0.23,0-0.42-0.19-0.43-0.42l-0.19-8.76c0-0.24,0.18-0.43,0.42-0.44c0,0,0,0,0,0
				c0.24,0,0.43,0.19,0.44,0.42l0.19,8.76C64.77,199.04,64.58,199.24,64.34,199.24L64.34,199.24z"/>
		</g>
		<g>
			<g>
				<g>
					<g>
						<g>
							<path class="st6" d="M89.45,163.41c-4.4-0.78-9.44-1.18-14.8-1.06c-5.36,0.12-10.38,0.72-14.74,1.7l-15.8,0.34l0.21,9.7
								c0.13,6.12,13.93,10.79,30.81,10.43c16.2-0.35,29.35-5.2,30.27-11l0.07-0.01l-0.22-10.43L89.45,163.41z"/>
						</g>
					</g>
				</g>
			</g>
			<path class="st5" d="M73.28,184.96c-16.35,0-29.27-4.77-29.4-10.86l-0.21-9.7c0-0.24,0.18-0.43,0.42-0.44l15.69-0.34
				c0.05,0,0.09-0.01,0.14-0.02c4.48-0.99,9.57-1.57,14.72-1.68c0.63-0.01,1.26-0.02,1.89-0.02c4.53,0,8.87,0.36,12.89,1.07
				c0.04,0.01,0.08,0.01,0.12,0.01c0,0,15.71-0.34,15.71-0.34c0.15,0,0.25,0.06,0.3,0.12c0.08,0.08,0.13,0.19,0.13,0.3l0.22,10.43
				c0,0.08-0.02,0.16-0.06,0.24c-0.04,0.06-0.07,0.13-0.08,0.2c-1.43,5.94-14.59,10.67-30.62,11.01
				C74.51,184.95,73.9,184.96,73.28,184.96z M76.54,162.75c-0.62,0-1.25,0.01-1.88,0.02c-5.14,0.11-10.21,0.69-14.66,1.69
				l-14.76,0.33c-0.39,0.01-0.69,0.33-0.68,0.71l0.18,8.58c0.12,5.53,12.92,10.03,28.54,10.03c0.61,0,1.22-0.01,1.83-0.02
				c17.69-0.38,29.08-5.71,29.86-10.64c0.03-0.08,0.06-0.24,0.06-0.33l-0.19-8.91c-0.01-0.38-0.32-0.69-0.7-0.69
				c-0.01,0-14.69,0.32-14.69,0.32C85.37,163.11,81.05,162.75,76.54,162.75z"/>
			<g>
				<g>
					<g>
						<g>
							
								<ellipse transform="matrix(0.9998 -0.0215 0.0215 0.9998 -3.5126 1.6445)" class="st7" cx="74.68" cy="164.09" rx="30.58" ry="11.09"/>
						</g>
					</g>
				</g>
			</g>
			<path class="st5" d="M73.08,175.62c-16.35,0-29.27-4.77-29.4-10.86c-0.14-6.35,13.66-11.81,30.75-12.18
				c0.62-0.01,1.24-0.02,1.85-0.02c16.35,0,29.27,4.77,29.4,10.86c0.14,6.35-13.66,11.81-30.75,12.18
				C74.31,175.61,73.7,175.62,73.08,175.62z M76.28,153.42c-0.61,0-1.21,0.01-1.83,0.02c-16.34,0.35-30.04,5.53-29.92,11.3
				c0.12,5.53,12.92,10.03,28.54,10.03l0.33,0c0.47,0,0.94-0.01,1.42-0.02c8.19-0.18,15.79-1.5,21.48-3.72
				c5.47-2.14,8.57-4.9,8.51-7.59C104.71,157.91,91.9,153.42,76.28,153.42z"/>
			<path class="st5" d="M100.45,178.91c-0.23,0-0.42-0.19-0.43-0.42l-0.19-8.8c0-0.11,0.04-0.22,0.12-0.3
				c0.08-0.08,0.19-0.13,0.3-0.13c0,0,0,0,0,0c0.25,0,0.43,0.19,0.44,0.42l0.19,8.8c0,0.23-0.18,0.43-0.41,0.44H100.45z"/>
			<path class="st5" d="M96.59,181.26c-0.23,0-0.42-0.19-0.43-0.42l-0.2-9.33c0-0.11,0.04-0.22,0.12-0.3
				c0.08-0.08,0.19-0.13,0.3-0.13c0,0,0,0,0,0c0.25,0,0.43,0.18,0.44,0.42l0.2,9.33C97.02,181.05,96.83,181.25,96.59,181.26
				L96.59,181.26z"/>
			<path class="st5" d="M80.66,184.27c-0.23,0-0.42-0.19-0.43-0.42l-0.19-8.79c0-0.11,0.04-0.22,0.12-0.3
				c0.08-0.08,0.18-0.13,0.3-0.13c0,0,0,0,0,0c0.23,0,0.43,0.2,0.44,0.42l0.19,8.79c0,0.23-0.18,0.43-0.41,0.44H80.66z"/>
			<path class="st5" d="M72.13,184.9c-0.23,0-0.42-0.19-0.43-0.42l-0.2-9.23c0-0.11,0.04-0.22,0.12-0.3
				c0.08-0.08,0.19-0.13,0.3-0.13c0,0,0,0,0,0c0.25,0,0.43,0.18,0.44,0.42l0.2,9.23c0,0.23-0.18,0.43-0.41,0.44H72.13z"/>
			<path class="st5" d="M47.82,179.1c-0.23,0-0.42-0.19-0.43-0.42l-0.19-8.91c0-0.24,0.18-0.43,0.42-0.44c0,0,0,0,0,0
				c0.24,0,0.43,0.2,0.43,0.42l0.19,8.91c0,0.11-0.04,0.22-0.12,0.3c-0.08,0.08-0.19,0.13-0.3,0.13L47.82,179.1z"/>
			<path class="st5" d="M51.43,181.07c-0.23,0-0.42-0.19-0.43-0.42l-0.19-8.99c0-0.24,0.18-0.43,0.42-0.44c0,0,0,0,0,0
				c0.23,0,0.43,0.2,0.44,0.42l0.19,8.99c0,0.23-0.18,0.43-0.41,0.44H51.43z"/>
			<path class="st5" d="M64.34,184.05c-0.23,0-0.42-0.19-0.43-0.42l-0.19-8.76c0-0.24,0.18-0.43,0.42-0.44c0,0,0,0,0,0
				c0.24,0,0.43,0.19,0.44,0.42l0.19,8.76c0,0.23-0.18,0.43-0.41,0.44H64.34z"/>
		</g>
		<g>
			<g>
				<g>
					<g>
						<g>
							<path class="st6" d="M89.45,148.22c-4.4-0.78-9.44-1.18-14.8-1.06c-5.36,0.12-10.38,0.72-14.74,1.7l-15.8,0.34l0.21,9.7
								c0.13,6.12,13.93,10.79,30.81,10.43c16.2-0.35,29.35-5.2,30.27-11l0.07-0.01l-0.22-10.43L89.45,148.22z"/>
						</g>
					</g>
				</g>
			</g>
			<path class="st5" d="M73.28,169.77c-16.35,0-29.27-4.77-29.4-10.86l-0.21-9.7c0-0.24,0.18-0.43,0.42-0.44l15.69-0.34
				c0.05,0,0.09-0.01,0.14-0.02c4.48-0.99,9.57-1.57,14.72-1.68c0.64-0.01,1.27-0.02,1.9-0.02c4.52,0,8.85,0.36,12.87,1.07
				c0.04,0.01,0.08,0.01,0.12,0.01c0,0,15.71-0.34,15.71-0.34c0.15,0,0.25,0.06,0.3,0.12c0.08,0.08,0.13,0.19,0.13,0.3l0.22,10.43
				c0,0.08-0.02,0.16-0.07,0.24c-0.04,0.06-0.07,0.13-0.08,0.2c-1.43,5.93-14.59,10.67-30.62,11.01
				C74.51,169.76,73.9,169.77,73.28,169.77z M76.52,147.57c-0.62,0-1.24,0.01-1.86,0.02c-5.14,0.11-10.2,0.69-14.66,1.69
				l-14.76,0.33c-0.19,0-0.36,0.08-0.49,0.22s-0.2,0.31-0.19,0.5l0.18,8.58c0.12,5.53,12.92,10.03,28.54,10.03
				c0.61,0,1.22-0.01,1.83-0.02c17.69-0.38,29.08-5.71,29.86-10.64c0.03-0.08,0.06-0.24,0.06-0.33l-0.19-8.91
				c-0.01-0.38-0.32-0.69-0.7-0.69c-0.01,0-14.69,0.32-14.69,0.32C85.37,147.93,81.05,147.57,76.52,147.57z"/>
			<g>
				<g>
					<g>
						<g>
							
								<ellipse transform="matrix(0.9998 -0.0215 0.0215 0.9998 -3.1859 1.641)" class="st7" cx="74.68" cy="148.9" rx="30.58" ry="11.09"/>
						</g>
					</g>
				</g>
			</g>
			<path class="st5" d="M73.08,160.43c-16.35,0-29.27-4.77-29.4-10.86c-0.14-6.35,13.66-11.81,30.75-12.18
				c0.62-0.01,1.24-0.02,1.85-0.02c16.35,0,29.27,4.77,29.4,10.86c0.14,6.35-13.66,11.81-30.75,12.18
				C74.31,160.43,73.7,160.43,73.08,160.43z M76.28,138.23c-0.61,0-1.21,0.01-1.83,0.02c-16.34,0.35-30.04,5.53-29.92,11.3
				c0.12,5.53,12.92,10.03,28.54,10.03c0.61,0,1.22-0.01,1.83-0.02c8.11-0.17,15.71-1.5,21.4-3.72c5.47-2.14,8.57-4.9,8.51-7.59
				C104.71,142.73,91.9,138.23,76.28,138.23z"/>
			<path class="st5" d="M100.45,163.73c-0.23,0-0.42-0.19-0.43-0.42l-0.19-8.8c0-0.11,0.04-0.22,0.12-0.31
				c0.08-0.08,0.18-0.13,0.3-0.13c0,0,0,0,0,0c0.24,0,0.43,0.19,0.44,0.42l0.19,8.8c0,0.23-0.18,0.43-0.41,0.44H100.45z"/>
			<path class="st5" d="M96.59,166.07c-0.23,0-0.42-0.19-0.43-0.42l-0.2-9.33c0-0.11,0.04-0.22,0.12-0.3
				c0.08-0.08,0.19-0.13,0.3-0.13c0,0,0,0,0,0c0.25,0,0.43,0.18,0.44,0.42l0.2,9.33c0,0.23-0.18,0.43-0.41,0.44H96.59z"/>
			<path class="st5" d="M80.66,169.08c-0.23,0-0.42-0.19-0.43-0.42l-0.19-8.79c0-0.24,0.18-0.43,0.42-0.44c0,0,0,0,0,0
				c0.23,0,0.43,0.2,0.44,0.42l0.19,8.79c0,0.23-0.18,0.43-0.41,0.44H80.66z"/>
			<path class="st5" d="M72.13,169.71c-0.23,0-0.42-0.19-0.43-0.42l-0.2-9.23c0-0.24,0.18-0.43,0.42-0.44c0,0,0,0,0,0
				c0.25,0,0.43,0.19,0.44,0.42l0.2,9.23c0,0.23-0.18,0.43-0.41,0.44H72.13z"/>
			<path class="st5" d="M47.82,163.91c-0.23,0-0.42-0.19-0.43-0.42l-0.19-8.91c0-0.24,0.18-0.43,0.42-0.44c0,0,0,0,0,0
				c0.24,0,0.43,0.19,0.44,0.42l0.19,8.91c0,0.11-0.04,0.22-0.12,0.3c-0.08,0.08-0.19,0.13-0.3,0.13L47.82,163.91z"/>
			<path class="st5" d="M51.43,165.88c-0.23,0-0.42-0.19-0.43-0.42l-0.19-8.99c0-0.24,0.18-0.43,0.42-0.44c0,0,0,0,0,0
				c0.25,0,0.43,0.19,0.44,0.42l0.19,8.99c0,0.23-0.18,0.43-0.41,0.44H51.43z"/>
			<path class="st5" d="M64.34,168.87c-0.23,0-0.42-0.19-0.43-0.42l-0.19-8.76c0-0.11,0.04-0.22,0.12-0.3
				c0.08-0.08,0.19-0.13,0.3-0.13c0,0,0,0,0,0c0.24,0,0.43,0.2,0.44,0.42l0.19,8.76c0,0.23-0.18,0.43-0.41,0.44H64.34z"/>
		</g>
	</g>
	<g>
		<g>
			<g>
				<g>
					<g>
						<g>
							<path class="st6" d="M45.77,208.45c-4.4-0.78-9.44-1.18-14.8-1.06c-5.36,0.12-10.38,0.72-14.74,1.7l-15.8,0.34l0.21,9.7
								c0.13,6.12,13.93,10.79,30.81,10.43c16.2-0.35,29.35-5.2,30.27-11l0.07-0.01l-0.22-10.43L45.77,208.45z"/>
						</g>
					</g>
				</g>
			</g>
			<path class="st5" d="M29.61,230c-16.35,0-29.27-4.77-29.4-10.86L0,209.43c0-0.11,0.04-0.22,0.12-0.3C0.2,209.05,0.3,209,0.42,209
				l15.69-0.34c0.05,0,0.09-0.01,0.14-0.02c4.48-0.99,9.57-1.57,14.72-1.68c0.63-0.01,1.27-0.02,1.89-0.02
				c4.52,0,8.86,0.36,12.88,1.07c0.04,0.01,0.08,0.01,0.12,0.01c0,0,15.71-0.34,15.71-0.34c0.15,0,0.25,0.06,0.3,0.12
				c0.08,0.08,0.13,0.19,0.13,0.3l0.22,10.43c0,0.08-0.02,0.16-0.06,0.23c-0.04,0.06-0.07,0.13-0.09,0.21
				c-1.43,5.94-14.59,10.67-30.62,11.02C30.83,229.99,30.22,230,29.61,230z M32.82,207.79c-0.61,0-1.23,0.01-1.84,0.02
				c-5.14,0.11-10.21,0.69-14.66,1.69l-14.76,0.33c-0.39,0.01-0.69,0.33-0.68,0.71l0.18,8.58c0.12,5.53,12.92,10.03,28.54,10.03
				c0.61,0,1.22-0.01,1.83-0.02c17.69-0.38,29.08-5.71,29.86-10.64c0.03-0.08,0.06-0.24,0.06-0.33l-0.19-8.91
				c-0.01-0.38-0.32-0.69-0.7-0.69c-0.01,0-14.69,0.32-14.69,0.32C41.7,208.16,37.37,207.79,32.82,207.79z"/>
			<g>
				<g>
					<g>
						<g>
							
								<ellipse transform="matrix(0.9998 -0.0215 0.0215 0.9998 -4.4917 0.7154)" class="st7" cx="31.01" cy="209.13" rx="30.58" ry="11.09"/>
						</g>
					</g>
				</g>
			</g>
			<path class="st5" d="M29.41,220.66c-16.35,0-29.27-4.77-29.4-10.86c-0.14-6.35,13.66-11.81,30.75-12.18
				c0.62-0.01,1.24-0.02,1.85-0.02c16.35,0,29.27,4.77,29.4,10.86c0.14,6.35-13.66,11.81-30.75,12.18
				C30.63,220.66,30.02,220.66,29.41,220.66z M32.61,198.46c-0.61,0-1.21,0.01-1.83,0.02c-16.34,0.35-30.04,5.53-29.92,11.3
				c0.12,5.53,12.92,10.03,28.54,10.03c0.61,0,1.22-0.01,1.83-0.02c8.11-0.17,15.71-1.5,21.4-3.72c5.47-2.14,8.57-4.9,8.51-7.59
				C61.03,202.96,48.23,198.46,32.61,198.46z"/>
			<path class="st5" d="M56.78,223.96c-0.23,0-0.42-0.19-0.43-0.42l-0.19-8.8c0-0.24,0.18-0.43,0.42-0.44c0,0,0,0,0,0
				c0.24,0,0.43,0.19,0.44,0.42l0.19,8.8c0,0.23-0.18,0.43-0.41,0.44H56.78z"/>
			<path class="st5" d="M52.91,226.3c-0.23,0-0.42-0.19-0.43-0.42l-0.2-9.33c0-0.11,0.04-0.22,0.12-0.3
				c0.08-0.08,0.19-0.13,0.3-0.13c0,0,0,0,0,0c0.25,0,0.43,0.18,0.44,0.42l0.2,9.33c0,0.23-0.18,0.43-0.41,0.44H52.91z"/>
			<path class="st5" d="M36.98,229.31c-0.23,0-0.42-0.19-0.43-0.42l-0.19-8.79c0-0.12,0.04-0.22,0.12-0.31s0.19-0.13,0.3-0.13
				c0,0,0,0,0,0c0.24,0,0.43,0.2,0.44,0.42l0.19,8.79c0,0.11-0.04,0.22-0.12,0.3c-0.08,0.08-0.19,0.13-0.3,0.13L36.98,229.31z"/>
			<path class="st5" d="M28.46,229.94c-0.23,0-0.42-0.19-0.43-0.42l-0.2-9.23c0-0.24,0.18-0.43,0.42-0.44c0,0,0,0,0,0
				c0.25,0,0.43,0.19,0.44,0.42l0.2,9.23c0,0.23-0.18,0.43-0.41,0.44H28.46z"/>
			<path class="st5" d="M4.15,224.14c-0.23,0-0.42-0.19-0.43-0.42l-0.19-8.91c0-0.11,0.04-0.22,0.12-0.3
				c0.08-0.08,0.19-0.13,0.3-0.13c0,0,0,0,0,0c0.24,0,0.43,0.19,0.44,0.42l0.19,8.91c0,0.23-0.18,0.43-0.41,0.44H4.15z"/>
			<path class="st5" d="M7.76,226.11c-0.23,0-0.42-0.19-0.43-0.42l-0.19-8.99c0-0.24,0.18-0.43,0.42-0.44c0,0,0,0,0,0
				c0.23,0,0.43,0.2,0.44,0.42l0.19,8.99c0,0.23-0.18,0.43-0.41,0.44H7.76z"/>
			<path class="st5" d="M20.66,229.09c-0.23,0-0.42-0.19-0.43-0.42l-0.19-8.76c0-0.11,0.04-0.22,0.12-0.3
				c0.08-0.08,0.19-0.13,0.3-0.13c0,0,0,0,0,0c0.24,0,0.43,0.2,0.44,0.42l0.19,8.76c0,0.23-0.18,0.43-0.41,0.44H20.66z"/>
		</g>
		<g>
			<g>
				<g>
					<g>
						<g>
							<path class="st6" d="M45.77,193.78c-4.4-0.78-9.44-1.18-14.8-1.06c-5.36,0.12-10.38,0.72-14.74,1.7l-15.8,0.34l0.21,9.7
								c0.13,6.12,13.93,10.79,30.81,10.43c16.2-0.35,29.35-5.2,30.27-11l0.07-0.01l-0.22-10.43L45.77,193.78z"/>
						</g>
					</g>
				</g>
			</g>
			<path class="st5" d="M29.61,215.34c-16.35,0-29.27-4.77-29.4-10.86L0,194.77c0-0.11,0.04-0.22,0.12-0.3
				c0.08-0.08,0.19-0.13,0.3-0.13L16.11,194c0.05,0,0.09-0.01,0.14-0.02c4.48-0.99,9.57-1.57,14.72-1.68
				c0.64-0.01,1.27-0.02,1.9-0.02c4.52,0,8.86,0.36,12.88,1.07c0.04,0.01,0.08,0.01,0.12,0.01c0,0,15.71-0.34,15.71-0.34
				c0.12,0,0.22,0.04,0.3,0.12s0.13,0.19,0.13,0.3l0.22,10.43c0,0.08-0.02,0.16-0.06,0.24c-0.04,0.06-0.07,0.13-0.08,0.2
				c-1.43,5.93-14.59,10.67-30.62,11.02C30.84,215.33,30.22,215.34,29.61,215.34z M32.86,193.13c-0.62,0-1.25,0.01-1.88,0.02
				c-5.14,0.11-10.21,0.69-14.66,1.69l-14.76,0.33c-0.39,0.01-0.69,0.33-0.68,0.71l0.18,8.58c0.12,5.53,12.92,10.03,28.54,10.03
				c0.61,0,1.22-0.01,1.83-0.02c17.69-0.38,29.08-5.71,29.86-10.64c0.03-0.08,0.06-0.24,0.06-0.33l-0.19-8.91
				c0-0.19-0.08-0.36-0.22-0.49c-0.13-0.12-0.3-0.19-0.48-0.19c0,0-14.69,0.32-14.69,0.32C41.69,193.49,37.37,193.13,32.86,193.13z"
				/>
			<g>
				<g>
					<g>
						<g>
							
								<ellipse transform="matrix(0.9998 -0.0215 0.0215 0.9998 -4.1762 0.712)" class="st7" cx="31.01" cy="194.47" rx="30.58" ry="11.09"/>
						</g>
					</g>
				</g>
			</g>
			<path class="st5" d="M29.41,206c-16.35,0-29.27-4.77-29.4-10.86c-0.14-6.35,13.66-11.81,30.75-12.18
				c0.62-0.01,1.24-0.02,1.85-0.02c16.35,0,29.27,4.77,29.4,10.86c0.14,6.35-13.66,11.81-30.75,12.18
				C30.63,205.99,30.02,206,29.41,206z M32.61,183.79c-0.61,0-1.21,0.01-1.83,0.02c-16.34,0.35-30.04,5.53-29.92,11.3
				c0.12,5.53,12.92,10.03,28.54,10.03c0.61,0,1.22-0.01,1.83-0.02c8.11-0.17,15.71-1.5,21.4-3.72c5.47-2.14,8.57-4.9,8.51-7.59
				C61.03,188.29,48.23,183.79,32.61,183.79z"/>
			<path class="st5" d="M56.78,209.29c-0.23,0-0.42-0.19-0.43-0.42l-0.19-8.8c0-0.24,0.18-0.43,0.42-0.44c0,0,0,0,0,0
				c0.24,0,0.43,0.19,0.44,0.42l0.19,8.8c0,0.23-0.18,0.43-0.41,0.44H56.78z"/>
			<path class="st5" d="M52.91,211.63c-0.23,0-0.42-0.19-0.43-0.42l-0.2-9.33c0-0.11,0.04-0.22,0.12-0.3
				c0.08-0.08,0.19-0.13,0.3-0.13c0,0,0,0,0,0c0.25,0,0.43,0.18,0.44,0.42l0.2,9.33c0,0.23-0.18,0.43-0.41,0.44H52.91z"/>
			<path class="st5" d="M36.98,214.65c-0.23,0-0.42-0.19-0.43-0.42l-0.19-8.79c0-0.24,0.18-0.43,0.42-0.44c0,0,0,0,0,0
				c0.23,0,0.43,0.2,0.44,0.42l0.19,8.79c0,0.11-0.04,0.22-0.12,0.3c-0.08,0.08-0.19,0.13-0.3,0.13L36.98,214.65z"/>
			<path class="st5" d="M28.46,215.28c-0.23,0-0.42-0.19-0.43-0.42l-0.2-9.23c0-0.24,0.18-0.43,0.42-0.44c0,0,0,0,0,0
				c0.24,0,0.43,0.18,0.44,0.42l0.2,9.23C28.89,215.07,28.7,215.27,28.46,215.28L28.46,215.28z"/>
			<path class="st5" d="M4.15,209.48c-0.23,0-0.42-0.19-0.43-0.42l-0.19-8.91c0-0.11,0.04-0.22,0.12-0.31
				c0.08-0.08,0.18-0.13,0.3-0.13c0,0,0,0,0,0c0.25,0,0.43,0.19,0.44,0.42l0.19,8.91c0,0.23-0.18,0.43-0.41,0.44H4.15z"/>
			<path class="st5" d="M7.76,211.45c-0.23,0-0.42-0.19-0.43-0.42l-0.19-8.99c0-0.24,0.18-0.43,0.42-0.44c0,0,0,0,0,0
				c0.23,0,0.43,0.2,0.44,0.42l0.19,8.99c0,0.23-0.18,0.43-0.41,0.44H7.76z"/>
			<path class="st5" d="M20.66,214.43c-0.23,0-0.42-0.19-0.43-0.42l-0.19-8.76c0-0.24,0.18-0.43,0.42-0.44c0,0,0,0,0,0
				c0.24,0,0.43,0.19,0.44,0.42l0.19,8.76C21.1,214.23,20.91,214.43,20.66,214.43L20.66,214.43z"/>
		</g>
		<g>
			<g>
				<g>
					<g>
						<g>
							<path class="st6" d="M45.77,178.6c-4.4-0.78-9.44-1.18-14.8-1.06s-10.38,0.72-14.74,1.7l-15.8,0.34l0.21,9.7
								c0.13,6.12,13.93,10.79,30.81,10.43c16.2-0.35,29.35-5.2,30.27-11l0.07-0.01l-0.22-10.43L45.77,178.6z"/>
						</g>
					</g>
				</g>
			</g>
			<path class="st5" d="M29.61,200.15c-16.35,0-29.27-4.77-29.4-10.86L0,179.58c0-0.24,0.18-0.43,0.42-0.44l15.69-0.34
				c0.05,0,0.09-0.01,0.14-0.02c4.48-0.99,9.57-1.57,14.72-1.68c0.63-0.01,1.26-0.02,1.89-0.02c4.53,0,8.87,0.36,12.89,1.07
				c0.04,0.01,0.08,0.01,0.12,0.01c0,0,15.71-0.34,15.71-0.34c0.15,0,0.25,0.06,0.3,0.12c0.08,0.08,0.13,0.19,0.13,0.3l0.22,10.43
				c0,0.08-0.02,0.16-0.06,0.24c-0.04,0.06-0.07,0.13-0.08,0.2c-1.43,5.94-14.59,10.67-30.62,11.01
				C30.83,200.14,30.22,200.15,29.61,200.15z M32.86,177.94c-0.62,0-1.25,0.01-1.88,0.02c-5.14,0.11-10.21,0.69-14.66,1.69
				l-14.76,0.33c-0.39,0.01-0.69,0.33-0.68,0.71l0.18,8.58c0.12,5.53,12.92,10.03,28.54,10.03c0.61,0,1.22-0.01,1.83-0.02
				c17.69-0.38,29.08-5.71,29.86-10.64c0.03-0.08,0.06-0.24,0.06-0.33l-0.19-8.91c-0.01-0.38-0.32-0.69-0.7-0.69
				c-0.01,0-14.69,0.32-14.69,0.32C41.69,178.3,37.38,177.94,32.86,177.94z"/>
			<g>
				<g>
					<g>
						<g>
							
								<ellipse transform="matrix(0.9998 -0.0215 0.0215 0.9998 -3.8495 0.7085)" class="st7" cx="31.01" cy="179.28" rx="30.58" ry="11.09"/>
						</g>
					</g>
				</g>
			</g>
			<path class="st5" d="M29.41,190.81c-16.35,0-29.27-4.77-29.4-10.86c-0.14-6.35,13.66-11.81,30.75-12.18
				c0.62-0.01,1.24-0.02,1.85-0.02c16.35,0,29.27,4.77,29.4,10.86c0.14,6.35-13.66,11.81-30.75,12.18
				C30.63,190.8,30.02,190.81,29.41,190.81z M32.61,168.61c-0.61,0-1.21,0.01-1.83,0.02c-16.34,0.35-30.04,5.53-29.92,11.3
				c0.12,5.53,12.92,10.03,28.54,10.03l0.33,0c0.47,0,0.94-0.01,1.42-0.02c8.19-0.18,15.79-1.5,21.48-3.72
				c5.47-2.14,8.57-4.9,8.51-7.59C61.03,173.1,48.23,168.61,32.61,168.61z"/>
			<path class="st5" d="M56.78,194.1c-0.23,0-0.42-0.19-0.43-0.42l-0.19-8.8c0-0.11,0.04-0.22,0.12-0.3
				c0.08-0.08,0.19-0.13,0.3-0.13c0,0,0,0,0,0c0.25,0,0.43,0.19,0.44,0.42l0.19,8.8c0,0.23-0.18,0.43-0.41,0.44H56.78z"/>
			<path class="st5" d="M52.91,196.45c-0.23,0-0.42-0.19-0.43-0.42l-0.2-9.33c0-0.11,0.04-0.22,0.12-0.3
				c0.08-0.08,0.19-0.13,0.3-0.13c0,0,0,0,0,0c0.25,0,0.43,0.18,0.44,0.42l0.2,9.33C53.35,196.24,53.16,196.44,52.91,196.45
				L52.91,196.45z"/>
			<path class="st5" d="M36.98,199.46c-0.23,0-0.42-0.19-0.43-0.42l-0.19-8.79c0-0.11,0.04-0.22,0.12-0.3
				c0.08-0.08,0.18-0.13,0.3-0.13c0,0,0,0,0,0c0.23,0,0.43,0.2,0.44,0.42l0.19,8.79c0,0.23-0.18,0.43-0.41,0.44H36.98z"/>
			<path class="st5" d="M28.46,200.09c-0.23,0-0.42-0.19-0.43-0.42l-0.2-9.23c0-0.11,0.04-0.22,0.12-0.3
				c0.08-0.08,0.19-0.13,0.3-0.13c0,0,0,0,0,0c0.25,0,0.43,0.18,0.44,0.42l0.2,9.23c0,0.23-0.18,0.43-0.41,0.44H28.46z"/>
			<path class="st5" d="M4.15,194.29c-0.23,0-0.42-0.19-0.43-0.42l-0.19-8.91c0-0.24,0.18-0.43,0.42-0.44c0,0,0,0,0,0
				c0.24,0,0.43,0.2,0.43,0.42l0.19,8.91c0,0.11-0.04,0.22-0.12,0.3c-0.08,0.08-0.19,0.13-0.3,0.13L4.15,194.29z"/>
			<path class="st5" d="M7.76,196.26c-0.23,0-0.42-0.19-0.43-0.42l-0.19-8.99c0-0.24,0.18-0.43,0.42-0.44c0,0,0,0,0,0
				c0.23,0,0.43,0.2,0.44,0.42l0.19,8.99c0,0.23-0.18,0.43-0.41,0.44H7.76z"/>
			<path class="st5" d="M20.66,199.24c-0.23,0-0.42-0.19-0.43-0.42l-0.19-8.76c0-0.24,0.18-0.43,0.42-0.44c0,0,0,0,0,0
				c0.24,0,0.43,0.19,0.44,0.42l0.19,8.76c0,0.23-0.18,0.43-0.41,0.44H20.66z"/>
		</g>
	</g>
	<g>
		<g>
			<g>
				<g>
					<g>
						
							<ellipse transform="matrix(0.5449 -0.8385 0.8385 0.5449 -54.7858 292.2221)" class="st7" cx="241.83" cy="196.58" rx="31.67" ry="31.67"/>
					</g>
				</g>
			</g>
			<g>
				<g>
					<g>
						<path class="st5" d="M241.8,228.76C241.8,228.76,241.8,228.76,241.8,228.76c-17.06,0-31.16-13.36-32.1-30.41
							c-0.47-8.58,2.43-16.83,8.16-23.23c5.73-6.4,13.62-10.18,22.2-10.66c0.59-0.03,1.2-0.05,1.79-0.05
							c17.06,0,31.16,13.36,32.1,30.41c0.47,8.58-2.43,16.83-8.16,23.23c-5.73,6.4-13.62,10.18-22.2,10.65
							C242.99,228.74,242.39,228.76,241.8,228.76z M241.85,165.41c-0.57,0-1.16,0.02-1.73,0.05c-8.31,0.46-15.95,4.12-21.51,10.32
							c-5.56,6.2-8.36,14.19-7.91,22.51c0.91,16.52,14.56,29.46,31.09,29.46c0,0,0,0,0,0c0.57,0,1.16-0.02,1.73-0.05
							c8.31-0.46,15.95-4.12,21.51-10.32c5.56-6.2,8.36-14.19,7.91-22.51C272.04,178.36,258.38,165.41,241.85,165.41z"/>
					</g>
				</g>
			</g>
		</g>
		<g>
			<g>
				<g>
					<g>
						
							<ellipse transform="matrix(0.5568 -0.8306 0.8306 0.5568 -56.1199 287.981)" class="st6" cx="241.83" cy="196.58" rx="25.71" ry="25.71"/>
					</g>
				</g>
			</g>
			<g>
				<g>
					<g>
						<path class="st5" d="M241.8,222.8C241.8,222.8,241.8,222.8,241.8,222.8c-13.9,0-25.39-10.88-26.15-24.78
							c-0.38-6.99,1.98-13.71,6.65-18.93c4.67-5.21,11.1-8.3,18.09-8.68c0.48-0.03,0.97-0.04,1.46-0.04
							c13.9,0,25.39,10.88,26.15,24.78c0.79,14.43-10.31,26.82-24.74,27.61C242.78,222.78,242.29,222.8,241.8,222.8z M241.85,171.38
							c-0.46,0-0.94,0.01-1.4,0.04c-6.72,0.37-12.9,3.33-17.39,8.35c-4.49,5.01-6.76,11.48-6.4,18.2
							c0.73,13.36,11.78,23.83,25.15,23.83c0,0,0,0,0,0c0.46,0,0.94-0.01,1.4-0.04c13.88-0.76,24.55-12.67,23.79-26.55
							C266.26,181.84,255.22,171.38,241.85,171.38z"/>
					</g>
				</g>
			</g>
		</g>
		<g>
			<g>
				<g>
					<path class="st7" d="M242.29,176.72l0.13,2.97c3.91-0.06,7.22,0.91,9.93,2.89c-1.36,1.69-2.7,3.34-4.03,4.95
						c-0.73-0.67-1.62-1.19-2.67-1.57c-1.05-0.38-2.05-0.56-2.98-0.55l0.31,6.99c1.45,0.37,2.64,0.73,3.57,1.07
						c0.93,0.34,1.97,0.85,3.11,1.53c1.14,0.68,2.02,1.56,2.63,2.64c0.62,1.08,0.96,2.36,1.02,3.85c0.13,3-0.75,5.37-2.64,7.1
						c-1.89,1.73-4.24,2.7-7.03,2.91l0.14,3.19l-3.23,0.14l-0.14-3.19c-1.98,0.03-3.94-0.26-5.88-0.86c-1.94-0.6-3.63-1.5-5.09-2.69
						c1.97-2.25,3.43-3.92,4.38-5.01c0.82,0.81,1.84,1.47,3.06,1.99c1.22,0.52,2.31,0.77,3.27,0.75l-0.34-7.64
						c-1.47-0.31-2.71-0.66-3.72-1.04c-1.01-0.38-2.01-0.89-3-1.53c-0.99-0.64-1.76-1.48-2.3-2.5c-0.54-1.03-0.84-2.24-0.9-3.64
						c-0.12-2.68,0.78-4.89,2.71-6.64c1.92-1.75,4.13-2.73,6.63-2.96l-0.13-3.01L242.29,176.72z M239.76,191.8l-0.28-6.33
						c-0.84,0.12-1.55,0.47-2.12,1.03c-0.57,0.57-0.84,1.3-0.8,2.2C236.63,190.34,237.69,191.37,239.76,191.8z M243.09,198.84
						l0.3,6.9c0.99-0.07,1.75-0.43,2.29-1.06c0.54-0.64,0.79-1.46,0.74-2.48C246.35,200.53,245.24,199.41,243.09,198.84z"/>
				</g>
				<g>
					<path class="st5" d="M240.55,215.34c-0.13,0-0.25-0.05-0.34-0.13c-0.1-0.09-0.16-0.22-0.16-0.35l-0.12-2.71
						c-1.86-0.02-3.73-0.32-5.55-0.88c-1.99-0.62-3.76-1.55-5.26-2.78c-0.11-0.09-0.17-0.21-0.18-0.35
						c-0.01-0.14,0.03-0.27,0.12-0.37c1.94-2.21,3.41-3.89,4.37-5c0.09-0.11,0.22-0.17,0.36-0.17c0.15-0.01,0.27,0.05,0.37,0.14
						c0.78,0.76,1.75,1.4,2.91,1.88c0.93,0.39,1.79,0.63,2.55,0.69l-0.3-6.71c-1.33-0.3-2.47-0.62-3.41-0.98
						c-1.04-0.39-2.08-0.92-3.1-1.58c-1.06-0.69-1.89-1.59-2.47-2.69c-0.57-1.09-0.9-2.38-0.96-3.85c-0.12-2.82,0.84-5.19,2.87-7.03
						c1.87-1.7,4.04-2.72,6.45-3.04l-0.11-2.54c-0.01-0.13,0.04-0.26,0.13-0.36c0.09-0.1,0.22-0.16,0.35-0.16l3.19-0.14
						c0.27-0.01,0.51,0.2,0.52,0.48l0.11,2.49c3.79,0.03,7.07,1.03,9.75,2.99c0.11,0.08,0.18,0.2,0.2,0.34
						c0.02,0.14-0.02,0.27-0.11,0.38c-1.36,1.7-2.71,3.36-4.03,4.95c-0.09,0.11-0.22,0.17-0.35,0.18c-0.14,0.01-0.27-0.04-0.37-0.13
						c-0.68-0.62-1.52-1.11-2.5-1.46c-0.8-0.28-1.56-0.45-2.28-0.5l0.27,6.08c1.3,0.34,2.39,0.67,3.26,0.99
						c0.96,0.35,2.03,0.87,3.2,1.57c1.21,0.72,2.16,1.67,2.81,2.82c0.65,1.15,1.02,2.52,1.09,4.08c0.14,3.14-0.81,5.66-2.8,7.49
						c-1.86,1.7-4.16,2.71-6.84,3l0.12,2.71c0.01,0.28-0.2,0.51-0.48,0.52l-3.23,0.14C240.57,215.34,240.56,215.34,240.55,215.34z
						 M240.41,211.14c0.27,0,0.49,0.21,0.5,0.48l0.12,2.69l2.23-0.1l-0.12-2.69c-0.01-0.27,0.19-0.5,0.46-0.52
						c2.66-0.2,4.93-1.14,6.73-2.78c1.79-1.64,2.61-3.83,2.48-6.7c-0.06-1.4-0.38-2.62-0.96-3.62c-0.57-1-1.4-1.83-2.45-2.46
						c-1.11-0.66-2.13-1.16-3.02-1.49c-0.92-0.33-2.1-0.69-3.52-1.05c-0.21-0.06-0.37-0.24-0.38-0.46l-0.31-6.99
						c-0.01-0.14,0.04-0.27,0.14-0.37c0.09-0.1,0.22-0.16,0.36-0.16l0.09,0c0.96,0,1.99,0.19,3.06,0.58
						c0.93,0.33,1.75,0.78,2.44,1.33c1.1-1.34,2.23-2.72,3.36-4.13c-2.53-1.7-5.62-2.54-9.2-2.49c-0.28,0.01-0.5-0.21-0.51-0.48
						l-0.11-2.47l-2.18,0.1l0.11,2.51c0.01,0.27-0.19,0.5-0.46,0.52c-2.38,0.22-4.51,1.17-6.34,2.83c-1.82,1.66-2.65,3.7-2.54,6.25
						c0.06,1.32,0.34,2.47,0.85,3.42c0.5,0.95,1.21,1.72,2.13,2.32c0.96,0.62,1.93,1.12,2.9,1.48c0.98,0.37,2.21,0.71,3.65,1.02
						c0.22,0.05,0.39,0.24,0.4,0.47l0.34,7.64c0.01,0.14-0.04,0.27-0.14,0.37c-0.09,0.1-0.22,0.16-0.36,0.16l-0.08,0
						c-1.01,0-2.15-0.27-3.39-0.79c-1.09-0.46-2.03-1.04-2.83-1.73c-0.89,1.03-2.13,2.44-3.69,4.22c1.31,0.99,2.82,1.75,4.51,2.27
						C236.56,210.89,238.48,211.17,240.41,211.14C240.41,211.14,240.41,211.14,240.41,211.14z M243.39,206.24
						c-0.12,0-0.24-0.04-0.33-0.13c-0.1-0.09-0.16-0.22-0.17-0.35l-0.3-6.9c-0.01-0.16,0.06-0.31,0.19-0.41
						c0.12-0.1,0.29-0.13,0.44-0.09c2.38,0.64,3.63,1.92,3.72,3.82c0.05,1.15-0.24,2.1-0.86,2.83c-0.63,0.74-1.52,1.16-2.64,1.24
						C243.41,206.24,243.4,206.24,243.39,206.24z M243.62,199.53l0.25,5.64c0.6-0.13,1.08-0.4,1.43-0.82
						c0.46-0.54,0.66-1.24,0.63-2.14C245.87,200.96,245.11,200.08,243.62,199.53z M239.76,192.31c-0.03,0-0.07,0-0.1-0.01
						c-2.87-0.6-3.54-2.27-3.6-3.57c-0.05-1.05,0.27-1.91,0.95-2.58c0.65-0.64,1.46-1.03,2.4-1.17c0.14-0.02,0.28,0.02,0.39,0.11
						c0.11,0.09,0.18,0.22,0.18,0.37l0.28,6.33c0.01,0.16-0.06,0.3-0.18,0.41C239.99,192.27,239.87,192.31,239.76,192.31z
						 M239,186.09c-0.5,0.15-0.92,0.41-1.29,0.77c-0.47,0.47-0.68,1.06-0.65,1.82c0.05,1.21,0.76,2.02,2.17,2.46L239,186.09z"/>
				</g>
			</g>
		</g>
		<g>
			<g>
				<g>
					<path class="st5" d="M253.33,174.09c-0.08,0-0.16-0.02-0.24-0.06c-0.24-0.13-0.34-0.43-0.21-0.68l2.66-4.99
						c0.13-0.24,0.43-0.34,0.68-0.21c0.24,0.13,0.34,0.43,0.21,0.68l-2.66,4.99C253.69,174,253.51,174.09,253.33,174.09z"/>
				</g>
			</g>
		</g>
		<g>
			<g>
				<g>
					<path class="st5" d="M257.25,176.52c-0.09,0-0.18-0.02-0.26-0.07c-0.24-0.15-0.31-0.46-0.16-0.69l3.14-5.09
						c0.15-0.24,0.46-0.31,0.69-0.16c0.24,0.15,0.31,0.46,0.16,0.69l-3.14,5.09C257.58,176.43,257.42,176.52,257.25,176.52z"/>
				</g>
			</g>
		</g>
		<g>
			<g>
				<g>
					<path class="st5" d="M271.99,194.9h-3.52c-0.28,0-0.5-0.15-0.5-0.42s0.23-0.42,0.5-0.42h3.52c0.28,0,0.5,0.15,0.5,0.42
						S272.27,194.9,271.99,194.9z"/>
				</g>
			</g>
		</g>
		<g>
			<g>
				<g>
					<path class="st5" d="M273.38,199.83c-0.01,0-0.02,0-0.02,0l-5.67-0.27c-0.28-0.01-0.49-0.25-0.48-0.53
						c0.01-0.28,0.25-0.49,0.53-0.48l5.67,0.27c0.28,0.01,0.49,0.25,0.48,0.53C273.87,199.62,273.65,199.83,273.38,199.83z"/>
				</g>
			</g>
		</g>
		<g>
			<g>
				<g>
					<path class="st5" d="M272.7,204.19c-0.05,0-0.1-0.01-0.15-0.02l-5.71-1.82c-0.26-0.08-0.41-0.37-0.33-0.63
						c0.08-0.26,0.37-0.41,0.63-0.33l5.71,1.82c0.26,0.08,0.41,0.37,0.33,0.63C273.11,204.06,272.91,204.19,272.7,204.19z"/>
				</g>
			</g>
		</g>
		<g>
			<g>
				<g>
					<path class="st5" d="M264.46,218.94c-0.13,0-0.26-0.05-0.36-0.15l-4.07-4.07c-0.2-0.2-0.2-0.51,0-0.71c0.2-0.2,0.51-0.2,0.71,0
						l4.07,4.07c0.2,0.2,0.2,0.51,0,0.71C264.72,218.89,264.59,218.94,264.46,218.94z"/>
				</g>
			</g>
		</g>
		<g>
			<g>
				<g>
					<path class="st5" d="M261.15,221.66c-0.15,0-0.29-0.06-0.39-0.18l-3.53-4.29c-0.18-0.21-0.15-0.53,0.07-0.71
						c0.21-0.18,0.53-0.15,0.71,0.07l3.53,4.29c0.18,0.21,0.15,0.53-0.07,0.71C261.38,221.62,261.27,221.66,261.15,221.66z"/>
				</g>
			</g>
		</g>
		<g>
			<g>
				<g>
					<path class="st5" d="M228.31,225.74c-0.06,0-0.12-0.01-0.18-0.03c-0.26-0.1-0.39-0.39-0.29-0.65l2.14-5.49
						c0.1-0.26,0.39-0.39,0.65-0.29c0.26,0.1,0.39,0.39,0.29,0.65l-2.14,5.49C228.7,225.61,228.51,225.74,228.31,225.74z"/>
				</g>
			</g>
		</g>
		<g>
			<g>
				<g>
					<path class="st5" d="M224.96,223.87c-0.09,0-0.18-0.02-0.26-0.07c-0.24-0.14-0.31-0.45-0.17-0.69l2.97-4.92
						c0.14-0.24,0.45-0.31,0.69-0.17c0.24,0.14,0.31,0.45,0.17,0.69l-2.97,4.92C225.3,223.78,225.13,223.87,224.96,223.87z"/>
				</g>
			</g>
		</g>
		<g>
			<g>
				<g>
					<path class="st5" d="M210.6,202.37c-0.25,0-0.47-0.19-0.5-0.45c-0.03-0.28,0.17-0.52,0.45-0.55l5.65-0.57
						c0.28-0.03,0.52,0.17,0.55,0.45c0.03,0.28-0.17,0.52-0.45,0.55l-5.65,0.57C210.63,202.37,210.61,202.37,210.6,202.37z"/>
				</g>
			</g>
		</g>
		<g>
			<g>
				<g>
					<path class="st5" d="M210.2,198.82c-0.27,0-0.49-0.21-0.5-0.48c-0.02-0.28,0.2-0.51,0.47-0.53l5.95-0.33
						c0.28-0.01,0.51,0.2,0.53,0.47c0.02,0.28-0.2,0.51-0.47,0.53l-5.95,0.33C210.22,198.82,210.21,198.82,210.2,198.82z"/>
				</g>
			</g>
		</g>
		<g>
			<g>
				<g>
					<path class="st5" d="M215.45,194.05h-4.77c-0.28,0-0.5-0.36-0.5-0.64s0.23-0.64,0.5-0.64h4.77c0.28,0,0.5,0.36,0.5,0.64
						S215.73,194.05,215.45,194.05z"/>
				</g>
			</g>
		</g>
		<g>
			<g>
				<g>
					<path class="st5" d="M221.38,181.5c-0.11,0-0.22-0.04-0.31-0.11l-4.66-3.72c-0.22-0.17-0.25-0.49-0.08-0.71
						c0.17-0.22,0.49-0.25,0.71-0.08l4.66,3.72c0.22,0.17,0.25,0.49,0.08,0.71C221.68,181.43,221.53,181.5,221.38,181.5z"/>
				</g>
			</g>
		</g>
		<g>
			<g>
				<g>
					<path class="st5" d="M223.44,178.57c-0.12,0-0.24-0.04-0.34-0.13l-4.11-3.78c-0.2-0.19-0.22-0.51-0.03-0.71
						c0.19-0.2,0.51-0.22,0.71-0.03l4.11,3.78c0.2,0.19,0.22,0.51,0.03,0.71C223.71,178.52,223.58,178.57,223.44,178.57z"/>
				</g>
			</g>
		</g>
		<g>
			<g>
				<g>
					<path class="st5" d="M227.69,175.6c-0.16,0-0.32-0.08-0.42-0.23L224,170.4c-0.15-0.23-0.09-0.54,0.14-0.7
						c0.23-0.15,0.54-0.09,0.7,0.14l3.28,4.98c0.15,0.23,0.09,0.54-0.14,0.7C227.88,175.58,227.79,175.6,227.69,175.6z"/>
				</g>
			</g>
		</g>
	</g>
</g>
</svg>
