<?xml version="1.0" encoding="utf-8"?>
<!-- Generator: Adobe Illustrator 28.1.0, SVG Export Plug-In . SVG Version: 6.00 Build 0)  -->
<svg version="1.1" id="_x3C_Layer_x3E_" xmlns="http://www.w3.org/2000/svg" xmlns:xlink="http://www.w3.org/1999/xlink" x="0px"
	 y="0px" viewBox="0 0 150 188.89" style="enable-background:new 0 0 150 188.89;" xml:space="preserve">
<style type="text/css">
	.st0{fill:#62A2FF;}
</style>
<g>
	
		<rect x="108.73" y="155.21" transform="matrix(0.8773 -0.4799 0.4799 0.8773 -62.9637 72.208)" class="st0" width="2.04" height="8.1"/>
	
		<rect x="33.73" y="155.2" transform="matrix(0.8773 -0.4799 0.4799 0.8773 -72.1631 36.2142)" class="st0" width="2.04" height="8.1"/>
	<path class="st0" d="M37.5,65.69l39.33,75.98l35.66-18.47L73.16,47.22L37.5,65.69z M77.27,140.29l-38.4-74.17l33.85-17.53
		l38.4,74.17L77.27,140.29z"/>
	<path class="st0" d="M43.93,68.79l34.08,65.84l28.5-14.76L72.43,54.03L43.93,68.79z M78.45,133.25L45.3,69.22L72,55.4l33.15,64.02
		L78.45,133.25z"/>
	<path class="st0" d="M68.61,82.09c-6.02,3.12-8.39,10.56-5.27,16.58c2.19,4.22,6.49,6.65,10.95,6.65c1.9,0,3.83-0.44,5.64-1.38
		c6.02-3.12,8.39-10.56,5.27-16.58C82.07,81.34,74.63,78.97,68.61,82.09z M84.28,87.83c2.86,5.53,0.69,12.35-4.83,15.21
		c-5.52,2.86-12.35,0.69-15.21-4.83c-2.86-5.53-0.69-12.35,4.83-15.21c1.65-0.86,3.42-1.26,5.17-1.26
		C78.33,81.74,82.28,83.96,84.28,87.83z"/>
	<rect x="77.93" y="120.92" transform="matrix(0.8773 -0.48 0.48 0.8773 -50.2971 53.232)" class="st0" width="2.04" height="8.1"/>
	<rect x="71.24" y="60.76" transform="matrix(0.8773 -0.48 0.48 0.8773 -22.2403 42.6384)" class="st0" width="2.04" height="8.1"/>
	<path class="st0" d="M71.73,90.3c-0.02,0.82,0.23,1.52,0.44,2.08c0.05,0.14,0.1,0.27,0.14,0.41c0.03,0.08,0.05,0.17,0.08,0.25
		l-3.51,1.74c-0.36-0.83-0.46-1.93,0.32-2.62l-2.03-2.28c-1.69,1.51-2.1,3.97-1.03,6.27l-1.61,0.8l0.45,0.91l1.65-0.82
		c1.09,1.66,2.8,2.66,4.59,2.66c0.23,0,0.46-0.02,0.69-0.05c2.38-0.34,4.03-2.42,3.92-4.94c-0.03-0.72-0.18-1.39-0.37-2.05
		l3.26-1.62c-0.07,0.82-0.46,1.71-0.97,2.75l2.74,1.35c0.64-1.3,1.51-3.08,1.28-5.03c-0.02-0.18-0.07-0.35-0.11-0.52l1.28-0.63
		l-0.45-0.91l-1.16,0.57c-0.83-1.8-2.66-3.11-4.65-3.11c-0.01,0-0.01,0-0.02,0C74.07,85.5,71.81,87.69,71.73,90.3z M72.78,94.84
		c0.03,0.73-0.29,1.63-1.3,1.78c-0.81,0.11-1.54-0.34-2.06-0.96l3.25-1.61C72.73,94.32,72.77,94.58,72.78,94.84z M76.67,88.55
		L76.67,88.55c0.8,0,1.61,0.63,1.93,1.41l-3.44,1.71c-0.04-0.11-0.08-0.22-0.12-0.34c-0.13-0.36-0.26-0.7-0.25-0.94
		C74.82,89.45,75.73,88.55,76.67,88.55z"/>
	<rect x="2.93" y="120.92" transform="matrix(0.8773 -0.48 0.48 0.8773 -59.5011 17.2324)" class="st0" width="2.04" height="8.1"/>
	<rect x="115.43" y="26.48" transform="matrix(0.8773 -0.48 0.48 0.8773 -0.3625 59.6419)" class="st0" width="2.04" height="8.1"/>
	<rect x="40.43" y="26.48" transform="matrix(0.8773 -0.48 0.48 0.8773 -9.5677 23.6421)" class="st0" width="2.04" height="8.1"/>
	<polygon class="st0" points="150,28.76 135.11,0 133.97,0 148.63,28.32 114.77,45.85 91.03,0 89.89,0 114.34,47.22 	"/>
	<polygon class="st0" points="144.02,25.42 130.86,0 129.71,0 142.65,24.99 115.95,38.81 95.86,0 94.71,0 115.52,40.18 	"/>
	<path class="st0" d="M111.78,10.88c1.9,0,3.83-0.44,5.64-1.38c2.92-1.51,5.07-4.07,6.07-7.2c0.24-0.76,0.4-1.53,0.5-2.3h-1.03
		c-0.09,0.67-0.23,1.34-0.43,1.99c-0.91,2.87-2.89,5.22-5.57,6.6c-5.52,2.86-12.35,0.69-15.21-4.83c-0.62-1.2-1-2.47-1.17-3.77
		h-1.03c0.17,1.46,0.59,2.89,1.29,4.23C103.02,8.46,107.33,10.88,111.78,10.88z"/>
	<path class="st0" d="M118.33,0h-1.74L118,0.69C118.11,0.47,118.22,0.24,118.33,0z"/>
	<path class="st0" d="M102.49,3.41l1.65-0.82c1.09,1.66,2.8,2.66,4.59,2.66c0.23,0,0.46-0.02,0.69-0.05
		c2.38-0.34,4.03-2.42,3.92-4.94c0-0.09-0.02-0.17-0.03-0.26h-3.07c0.02,0.13,0.04,0.27,0.04,0.4c0.03,0.73-0.29,1.63-1.3,1.78
		c-0.81,0.12-1.54-0.34-2.06-0.96L109.37,0h-2.29l-0.69,0.34c-0.05-0.11-0.09-0.22-0.13-0.34h-3.13c0.09,0.57,0.26,1.14,0.52,1.7
		l-1.61,0.8L102.49,3.41z"/>
	<polygon class="st0" points="75,28.76 60.11,0 58.97,0 73.63,28.32 39.77,45.85 16.03,0 14.89,0 39.34,47.22 	"/>
	<polygon class="st0" points="69.02,25.42 55.86,0 54.71,0 67.65,24.99 40.95,38.81 20.86,0 19.71,0 40.52,40.18 	"/>
	<path class="st0" d="M33.04,10.3c1.23,0.39,2.49,0.58,3.74,0.58c1.94,0,3.87-0.47,5.64-1.38c2.92-1.51,5.07-4.07,6.07-7.2
		c0.24-0.76,0.4-1.53,0.5-2.3h-1.03c-0.09,0.67-0.23,1.34-0.44,1.99c-0.91,2.87-2.89,5.22-5.57,6.6c-2.68,1.39-5.73,1.65-8.61,0.73
		c-2.87-0.91-5.22-2.89-6.6-5.57c-0.62-1.2-1-2.47-1.17-3.77h-1.02c0.17,1.44,0.58,2.87,1.28,4.23C27.35,7.15,29.91,9.31,33.04,10.3
		z"/>
	<path class="st0" d="M43.33,0h-1.74L43,0.69C43.11,0.47,43.22,0.24,43.33,0z"/>
	<path class="st0" d="M27.49,3.41l1.65-0.82c1.09,1.66,2.8,2.66,4.59,2.66c0.23,0,0.46-0.02,0.69-0.05
		c2.38-0.34,4.03-2.42,3.92-4.94c0-0.09-0.02-0.17-0.03-0.26h-3.07c0.02,0.13,0.04,0.27,0.04,0.4c0.03,0.73-0.29,1.63-1.3,1.78
		c-0.81,0.12-1.54-0.34-2.06-0.96L34.37,0h-2.29l-0.69,0.34c-0.05-0.11-0.1-0.22-0.14-0.34h-3.13c0.09,0.57,0.26,1.14,0.52,1.7
		l-1.61,0.8L27.49,3.41z"/>
	<polygon class="st0" points="37.5,123.2 0,50.77 0,52.98 36.13,122.76 2.27,140.29 0,135.9 0,138.12 1.84,141.66 	"/>
	<polygon class="st0" points="31.52,119.86 0,58.99 0,61.2 30.15,119.43 3.45,133.25 0,126.58 0,128.8 3.02,134.62 	"/>
	<polygon class="st0" points="0,67.7 0,67.93 0.1,67.88 	"/>
	<path class="st0" d="M10.19,87.36C8.13,83.38,4.18,81.01,0,80.76v1.03c3.81,0.26,7.4,2.41,9.28,6.04
		c2.86,5.53,0.69,12.35-4.83,15.21c-1.43,0.74-2.94,1.14-4.45,1.23v1.01c1.67-0.1,3.34-0.52,4.92-1.33
		C10.94,100.83,13.31,93.39,10.19,87.36z"/>
	<path class="st0" d="M0.47,92.66l3.26-1.62c-0.07,0.82-0.46,1.71-0.97,2.75l2.74,1.35c0.64-1.3,1.51-3.08,1.28-5.03
		c-0.02-0.18-0.07-0.35-0.11-0.52l1.28-0.63L7.5,88.05l-1.16,0.57c-0.83-1.8-2.66-3.11-4.65-3.11c-0.01,0-0.01,0-0.02,0
		c-0.58,0-1.14,0.12-1.67,0.32v3.82c0.33-0.62,0.99-1.09,1.67-1.09c0,0,0,0,0.01,0c0.8,0,1.6,0.63,1.93,1.41l-3.44,1.71
		c-0.04-0.11-0.08-0.22-0.12-0.34C0.03,91.3,0.01,91.26,0,91.22v0.53v1.14v4.81c0.57-0.84,0.89-1.87,0.84-3
		C0.81,93.99,0.66,93.32,0.47,92.66z"/>
	<polygon class="st0" points="112.5,65.69 150,138.12 150,135.9 113.87,66.12 147.73,48.59 150,52.98 150,50.77 148.16,47.22 	"/>
	<polygon class="st0" points="118.93,68.79 150,128.8 150,126.58 120.3,69.22 147,55.4 150,61.2 150,58.99 147.43,54.03 	"/>
	<path class="st0" d="M143.61,82.09c-6.02,3.12-8.39,10.56-5.27,16.58c2.19,4.22,6.49,6.65,10.95,6.65c0.24,0,0.48-0.03,0.72-0.04
		v-1.01c-4.33,0.28-8.64-1.97-10.76-6.07c-2.86-5.53-0.69-12.35,4.83-15.21c1.65-0.86,3.42-1.26,5.17-1.26
		c0.25,0,0.5,0.03,0.76,0.05v-1.03C147.85,80.62,145.65,81.04,143.61,82.09z"/>
	<path class="st0" d="M146.73,90.3c-0.02,0.82,0.23,1.52,0.44,2.08c0.05,0.14,0.1,0.27,0.14,0.41c0.03,0.08,0.05,0.17,0.08,0.25
		l-3.51,1.74c-0.36-0.83-0.46-1.93,0.32-2.62l-2.03-2.28c-1.69,1.51-2.1,3.97-1.03,6.27l-1.61,0.8l0.45,0.91l1.65-0.82
		c1.09,1.66,2.8,2.66,4.59,2.66c0.23,0,0.46-0.02,0.69-0.05c1.31-0.19,2.39-0.91,3.08-1.94V92.9v-1.14v-0.53
		c-0.11-0.32-0.22-0.61-0.21-0.82c0.01-0.26,0.09-0.51,0.21-0.75v-3.82C148.17,86.52,146.79,88.28,146.73,90.3z M147.78,94.84
		c0.03,0.73-0.29,1.63-1.3,1.78c-0.81,0.11-1.54-0.34-2.06-0.96l3.25-1.61C147.73,94.32,147.77,94.58,147.78,94.84z"/>
	<polygon class="st0" points="144.42,61.75 148.31,68.86 150,67.93 150,67.7 146.21,60.77 	"/>
	<polygon class="st0" points="0,160.13 14.89,188.89 16.03,188.89 1.37,160.57 35.23,143.04 58.97,188.89 60.11,188.89 
		35.66,141.66 	"/>
	<polygon class="st0" points="6.43,163.23 19.71,188.89 20.86,188.89 7.8,163.67 34.5,149.85 54.71,188.89 55.86,188.89 
		34.93,148.47 	"/>
	<path class="st0" d="M40.49,175.74c-3.13-0.99-6.46-0.71-9.38,0.8c-2.92,1.51-5.07,4.07-6.07,7.2c-0.54,1.69-0.69,3.44-0.49,5.15
		h1.03c-0.21-1.61-0.07-3.25,0.43-4.84c0.91-2.87,2.89-5.22,5.57-6.6c1.65-0.86,3.42-1.26,5.17-1.26c4.08,0,8.04,2.22,10.04,6.1
		c1.09,2.11,1.45,4.41,1.16,6.61h1.04c0.29-2.42-0.15-4.87-1.3-7.08C46.18,178.89,43.62,176.73,40.49,175.74z"/>
	<path class="st0" d="M29.67,184.32c-1.28,1.14-1.82,2.82-1.55,4.57h3.14c-0.24-0.77-0.23-1.68,0.45-2.28L29.67,184.32z"/>
	<path class="st0" d="M44.99,182.48l-1.16,0.57c-0.83-1.8-2.66-3.11-4.65-3.11c-0.01,0-0.01,0-0.02,0c-2.6,0-4.85,2.2-4.93,4.81
		c-0.02,0.82,0.23,1.52,0.44,2.08c0.05,0.14,0.1,0.27,0.14,0.41c0.03,0.09,0.05,0.17,0.08,0.25l-2.82,1.4h2.29l0.79-0.39
		c0.03,0.13,0.07,0.27,0.08,0.39h3.07c-0.05-0.62-0.18-1.21-0.35-1.78l3.27-1.62c-0.07,0.82-0.46,1.71-0.97,2.75l1.34,0.65h1.74
		c0.57-1.21,1.14-2.71,0.95-4.34c-0.02-0.18-0.07-0.35-0.11-0.52l1.28-0.63L44.99,182.48z M37.54,185.78
		c-0.13-0.36-0.26-0.71-0.25-0.94c0.03-0.95,0.94-1.84,1.88-1.84c0,0,0,0,0.01,0c0.8,0,1.6,0.63,1.93,1.41l-3.44,1.71
		C37.62,186,37.58,185.89,37.54,185.78z"/>
	<polygon class="st0" points="75,160.13 89.89,188.89 91.03,188.89 76.37,160.57 110.23,143.04 133.97,188.89 135.11,188.89 
		110.66,141.66 	"/>
	<polygon class="st0" points="81.43,163.23 94.71,188.89 95.86,188.89 82.8,163.67 109.5,149.85 129.71,188.89 130.86,188.89 
		109.93,148.47 	"/>
	<path class="st0" d="M115.49,175.74c-3.13-0.99-6.46-0.71-9.38,0.8c-2.92,1.51-5.07,4.07-6.07,7.2c-0.54,1.69-0.69,3.44-0.49,5.15
		h1.03c-0.21-1.61-0.07-3.25,0.43-4.84c0.91-2.87,2.89-5.22,5.57-6.6c1.63-0.84,3.39-1.27,5.18-1.27c1.15,0,2.3,0.18,3.43,0.54
		c2.87,0.91,5.22,2.89,6.6,5.57c1.09,2.11,1.45,4.41,1.16,6.61h1.04c0.29-2.42-0.15-4.87-1.3-7.08
		C121.18,178.89,118.62,176.73,115.49,175.74z"/>
	<path class="st0" d="M104.67,184.32c-1.28,1.14-1.82,2.82-1.55,4.57h3.14c-0.24-0.77-0.23-1.68,0.45-2.28L104.67,184.32z"/>
	<path class="st0" d="M119.99,182.48l-1.16,0.57c-0.83-1.8-2.66-3.11-4.65-3.11c-0.01,0-0.01,0-0.02,0c-2.6,0-4.85,2.2-4.93,4.81
		c-0.02,0.83,0.23,1.52,0.44,2.09c0.05,0.14,0.1,0.27,0.14,0.41c0.03,0.09,0.05,0.17,0.08,0.25l-2.82,1.4h2.29l0.79-0.39
		c0.03,0.13,0.07,0.27,0.08,0.39h3.07c-0.05-0.62-0.18-1.21-0.35-1.78l3.27-1.62c-0.07,0.82-0.46,1.71-0.97,2.75l1.34,0.66h1.74
		c0.57-1.21,1.14-2.71,0.95-4.34c-0.02-0.18-0.07-0.35-0.11-0.52l1.28-0.63L119.99,182.48z M112.54,185.78
		c-0.13-0.36-0.26-0.71-0.25-0.94c0.03-0.95,0.94-1.84,1.88-1.84c0,0,0,0,0.01,0c0.8,0,1.6,0.63,1.93,1.41l-3.44,1.71
		C112.62,186,112.58,185.89,112.54,185.78z"/>
</g>
</svg>
